<svg width="16" height="16" viewBox="0 0 16 16" fill="none" xmlns="http://www.w3.org/2000/svg"><rect x="4.5" y="2.125" width="10.5" height="12.25" rx="0.875" fill="#2FB776"/><path d="M4.5 11.3125H15V13.5C15 13.9832 14.6082 14.375 14.125 14.375H5.375C4.89175 14.375 4.5 13.9832 4.5 13.5V11.3125Z" fill="url(#paint0_linear_264_1216)"/><rect x="9.75" y="8.25" width="5.25" height="3.0625" fill="#229C5B"/><rect x="9.75" y="5.1875" width="5.25" height="3.0625" fill="#27AE68"/><path d="M4.5 3C4.5 2.51675 4.89175 2.125 5.375 2.125H9.75V5.1875H4.5V3Z" fill="#1D854F"/><rect x="4.5" y="5.1875" width="5.25" height="3.0625" fill="#197B43"/><rect x="4.5" y="8.25" width="5.25" height="3.0625" fill="#1B5B38"/><path d="M4.5 6.5C4.5 5.77513 5.08763 5.1875 5.8125 5.1875H8.4375C9.16237 5.1875 9.75 5.77513 9.75 6.5V11.75C9.75 12.4749 9.16237 13.0625 8.4375 13.0625H4.5V6.5Z" fill="black" fill-opacity="0.3"/><rect x="1" y="4.3125" width="7.875" height="7.875" rx="0.875" fill="url(#paint1_linear_264_1216)"/><path d="M6.6875 10.4375L5.45468 8.20625L6.63338 6.0625H5.67118L4.94351 7.43125L4.22788 6.0625H3.23561L4.42032 8.20625L3.1875 10.4375H4.1497L4.92547 8.9875L5.69523 10.4375H6.6875Z" fill="white"/><defs><linearGradient id="paint0_linear_264_1216" x1="4.5" y1="12.8437" x2="15" y2="12.8438" gradientUnits="userSpaceOnUse"><stop stop-color="#163C27"/><stop offset="1" stop-color="#2A6043"/></linearGradient><linearGradient id="paint1_linear_264_1216" x1="1" y1="8.25" x2="8.875" y2="8.25" gradientUnits="userSpaceOnUse"><stop stop-color="#185A30"/><stop offset="1" stop-color="#176F3D"/></linearGradient></defs></svg>