<svg xmlns="http://www.w3.org/2000/svg" viewBox="0 0 48 48" width="480px" height="480px">
  <path d="M22.1065 17.7889C20.8007 17.7572 19.7886 17.8847 18.9398 18.2352C18.695 18.3307 18.3032 18.3308 18.2705 18.6336C18.4011 18.7611 18.4174 18.9683 18.5317 19.1436C18.7278 19.4622 19.0704 19.8925 19.3805 20.1157C19.7233 20.3707 20.0662 20.6256 20.4251 20.8487C21.0618 21.2312 21.7801 21.4542 22.4003 21.8367C22.7596 22.0597 23.1185 22.3467 23.4776 22.5857C23.6572 22.713 23.7714 22.9204 24 23V22.9523C23.8856 22.8087 23.853 22.6016 23.7388 22.4423C23.5757 22.2829 23.4123 22.1395 23.2491 21.9801C22.7757 21.3587 22.1881 20.8168 21.5515 20.3707C21.0292 20.02 19.8865 19.542 19.6744 18.9523C19.6744 18.9523 19.658 18.9365 19.6417 18.9205C20.0008 18.8886 20.4251 18.7611 20.768 18.6655C21.323 18.522 21.829 18.554 22.4003 18.4105C22.6615 18.3468 22.9227 18.2671 23.1838 18.1874V18.044C22.8901 17.7572 22.6779 17.3748 22.3677 17.1038C21.5352 16.4025 20.621 15.7173 19.6744 15.1437C19.1683 14.8249 18.5153 14.6177 17.9767 14.3469C17.781 14.2512 17.4544 14.2034 17.3402 14.0441C17.0463 13.6935 16.883 13.2314 16.6709 12.817C16.1976 11.9405 15.7404 10.9685 15.3323 10.0443C15.0387 9.4227 14.8591 8.80113 14.4999 8.22756C12.8187 5.51844 10.9905 3.87705 8.18296 2.26744C7.57894 1.93284 6.86074 1.7894 6.09356 1.61418C5.68563 1.59815 5.27741 1.56637 4.86938 1.55034C4.60818 1.43878 4.34699 1.13605 4.11844 0.992614C3.1882 0.418859 0.788533 -0.824001 0.102981 0.817391C-0.337791 1.85315 0.755977 2.87298 1.13126 3.39901C1.40897 3.76549 1.76793 4.17977 1.96383 4.59415C2.07811 4.86491 2.11066 5.15197 2.22494 5.43875C2.48623 6.13973 2.73091 6.92077 3.07383 7.57421C3.2534 7.90881 3.44921 8.25935 3.67776 8.56216C3.80836 8.73738 4.03681 8.81716 4.08588 9.10395C3.85743 9.4227 3.84101 9.90083 3.71031 10.2992C3.12271 12.0999 3.35135 14.3309 4.18374 15.6536C4.44484 16.0518 5.06519 16.9286 5.89766 16.5938C6.63228 16.307 6.46903 15.3987 6.68107 14.6019C6.73023 14.4104 6.69758 14.2831 6.79544 14.1556V14.1876C7.02399 14.6337 7.25244 15.0641 7.46466 15.5102C7.97074 16.291 8.85209 17.1038 9.58662 17.6457C9.97851 17.9324 10.2886 18.4265 10.7783 18.6018V18.5539H10.7456C10.6476 18.4104 10.5007 18.3468 10.3702 18.2351C10.0765 17.9484 9.74987 17.5978 9.52141 17.279C8.83596 16.3865 8.23184 15.3986 7.69321 14.3787C7.43211 13.8848 7.20347 13.3429 6.99134 12.8489C6.89329 12.6575 6.89329 12.3708 6.73014 12.2753C6.48526 12.6258 6.12621 12.9286 5.94664 13.3588C5.63665 14.0441 5.60391 14.8887 5.48963 15.7651C5.42433 15.7812 5.45689 15.7651 5.42424 15.7971C4.90203 15.6694 4.72246 15.1437 4.52647 14.6974C4.03672 13.566 3.95509 11.7493 4.37964 10.4426C4.49391 10.1079 4.98366 9.05623 4.78776 8.73747C4.68981 8.43466 4.36322 8.25935 4.18374 8.02037C3.97161 7.71756 3.74296 7.33524 3.59613 7.00046C3.20434 6.10804 3.00844 5.12 2.58408 4.22758C2.38819 3.81321 2.04555 3.38307 1.76793 3.00057C1.45785 2.57035 1.11503 2.26744 0.870158 1.75753C0.788627 1.58231 0.674259 1.29543 0.804858 1.10418C0.837508 0.976676 0.902714 0.928955 1.03341 0.897079C1.24563 0.721674 1.84965 0.944801 2.06169 1.04043C2.66571 1.27931 3.17169 1.50262 3.67776 1.83722C3.90621 1.99659 4.15109 2.29941 4.44484 2.3791H4.78766C5.31006 2.49057 5.89757 2.41097 6.38731 2.55432C7.25253 2.82517 8.03594 3.22361 8.73791 3.65392C10.8763 4.97656 12.639 6.85702 13.8307 9.10395C14.0266 9.47033 14.1081 9.8052 14.2877 10.1875C14.6306 10.9685 15.055 11.7653 15.3976 12.5302C15.7404 13.2791 16.0669 14.0441 16.5566 14.6656C16.8015 15.0001 17.7808 15.1755 18.2216 15.3509C18.548 15.4942 19.0541 15.6218 19.3479 15.797C19.9028 16.1315 20.4578 16.5142 20.9802 16.8806C21.2414 17.0718 22.0574 17.4703 22.1065 17.7889Z" />
  <path d="M5.51243 4C5.29997 4 5.15002 4.02095 5 4.05214V4.07298H5.025C5.12509 4.23964 5.29997 4.35423 5.42492 4.5C5.525 4.66661 5.61244 4.83333 5.71253 5C5.72496 4.98952 5.73746 4.97917 5.73746 4.97917C5.91256 4.87494 6 4.70833 6 4.45833C5.92499 4.38548 5.91249 4.31256 5.84998 4.23964C5.77504 4.13542 5.61244 4.08339 5.51243 4Z" />
</svg>
