<svg xmlns="http://www.w3.org/2000/svg" viewBox="0 0 48 48" width="480px" height="480px">
  <path d="M16.8052 1C15.9241 1.00636 15.0482 1.13067 14.2021 1.36942L14.1426 1.38775C13.6089 1.29626 13.0687 1.24568 12.5269 1.2365C11.4138 1.21817 10.4576 1.48034 9.68659 1.91667C8.92692 1.66092 7.35089 1.22 5.68981 1.308C4.5333 1.36942 3.27096 1.71042 2.33554 2.66835C1.40296 3.62627 0.909738 5.10854 1.01367 7.12522C1.04202 7.68164 1.20548 8.58915 1.47666 9.76433C1.74783 10.9395 2.12861 12.3154 2.60388 13.5704C3.07915 14.8262 3.59977 15.9537 4.4133 16.7201C4.81959 17.1041 5.37895 17.4268 6.03847 17.4002C6.50145 17.3819 6.92003 17.1848 7.28097 16.8942C7.45671 17.1188 7.64474 17.2169 7.81576 17.3076C8.03119 17.4222 8.24095 17.5001 8.45827 17.5515C8.8485 17.6459 9.51652 17.7724 10.2989 17.6431C10.5653 17.6001 10.8459 17.5157 11.1256 17.3956C11.136 17.6981 11.1483 17.9942 11.1606 18.294C11.1993 19.2437 11.2239 20.1209 11.5177 20.89C11.565 21.0156 11.6944 21.6628 12.2047 22.2339C12.7149 22.8059 13.7146 23.1624 14.8531 22.9259C15.6563 22.7591 16.6777 22.4584 17.3561 21.5216C18.0269 20.5958 18.3293 19.2675 18.3888 17.1133C18.4039 16.9969 18.4219 16.8979 18.4408 16.8053L18.6005 16.8191H18.6194C19.4763 16.8566 20.4061 16.7384 21.1828 16.3882C21.8706 16.0793 22.3913 15.7667 22.7701 15.2121C22.8646 15.0746 22.9686 14.9087 22.9969 14.6227C23.0253 14.3367 22.8561 13.8894 22.5755 13.6831C22.0133 13.2688 21.6599 13.4264 21.281 13.5025C20.9078 13.5826 20.5275 13.6274 20.1453 13.6364C21.2376 11.8516 22.0209 9.95591 22.4678 8.2784C22.7324 7.28839 22.8807 6.37538 22.893 5.57696C22.9053 4.77853 22.8382 4.07178 22.345 3.46036C20.8039 1.55 18.6373 1.022 16.9611 1.00367C16.9091 1.00275 16.8572 1.00183 16.8052 1.00275V1ZM16.7608 1.58667C18.3463 1.57201 20.3721 2.00376 21.8262 3.80686C22.1532 4.21203 22.2505 4.8042 22.2391 5.53387C22.2269 6.26263 22.088 7.13531 21.8338 8.0914C21.3406 9.94308 20.4089 12.1018 19.0965 14.0388C19.1429 14.0707 19.193 14.0972 19.2458 14.1176C19.5198 14.2276 20.1444 14.322 21.3906 14.0736C21.7043 14.0095 21.9339 13.9664 22.172 14.1424C22.2299 14.19 22.2756 14.2499 22.3056 14.3175C22.3356 14.3851 22.3491 14.4585 22.345 14.532C22.3322 14.6432 22.2899 14.7494 22.2221 14.84C21.9812 15.191 21.5059 15.5238 20.8965 15.7979C20.357 16.0417 19.5831 16.1691 18.8971 16.1765C18.5532 16.1801 18.2357 16.1545 17.9665 16.0729L17.9494 16.0665C17.8455 17.0381 17.6065 18.9567 17.4506 19.8322C17.3258 20.538 17.1076 21.099 16.6909 21.5189C16.2751 21.9387 15.6865 22.1917 14.8947 22.3567C13.9139 22.5611 13.1987 22.3411 12.7376 21.9644C12.2774 21.5885 12.0667 21.0898 11.9401 20.7846C11.8532 20.5738 11.8078 20.3006 11.7644 19.9358C11.7209 19.5709 11.6888 19.1245 11.667 18.6212C11.6381 17.8507 11.6286 17.0795 11.6387 16.3085C11.229 16.6725 10.7199 16.9144 10.1723 17.0051C9.52124 17.1124 8.94015 17.007 8.59339 16.9226C8.42244 16.881 8.25743 16.8191 8.10205 16.7384C7.94143 16.655 7.78836 16.5606 7.68631 16.3745C7.62635 16.2679 7.60727 16.1442 7.63246 16.0252C7.66439 15.9047 7.73688 15.7979 7.83844 15.7218C8.02552 15.5742 8.27308 15.4917 8.6463 15.4165C9.32566 15.2809 9.56282 15.1883 9.70738 15.0774C9.83021 14.982 9.96911 14.7895 10.2148 14.5072C10.2136 14.4947 10.2127 14.4822 10.2119 14.4696C9.77228 14.4576 9.34173 14.3452 8.95527 14.1415C8.81354 14.2863 8.08977 15.0288 7.20727 16.0591C6.83593 16.49 6.42586 16.7375 5.99311 16.7549C5.56037 16.7732 5.16919 16.5615 4.8366 16.2489C4.17236 15.6228 3.64229 14.5457 3.18025 13.3284C2.71916 12.111 2.34404 10.7553 2.07759 9.60024C1.8102 8.44523 1.6524 7.51389 1.62973 7.06472C1.53051 5.1562 1.99066 3.87011 2.77963 3.05885C3.56953 2.24759 4.65235 1.94051 5.70777 1.88184C7.60222 1.77642 9.40125 2.41718 9.76502 2.55468C10.4661 2.09268 11.3694 1.80484 12.4976 1.82317C13.0332 1.83046 13.5661 1.89751 14.0859 2.02301L14.1048 2.01476C14.3336 1.93674 14.5667 1.87125 14.803 1.81859C15.4448 1.67335 16.1009 1.5962 16.7599 1.58851L16.7608 1.58667ZM16.9044 2.20084H16.7665C16.2251 2.20817 15.6859 2.26712 15.1564 2.37685C16.3337 2.88285 17.2228 3.66202 17.8493 4.43936C18.2844 4.97758 18.6441 5.56941 18.9189 6.19938C19.0228 6.44138 19.0927 6.6458 19.1324 6.80439C19.1523 6.88414 19.1655 6.95105 19.1702 7.02072C19.1721 7.05555 19.174 7.0913 19.1589 7.15272C19.1589 7.15547 19.1541 7.16189 19.1532 7.16464C19.1816 7.96765 18.9765 8.51215 18.9519 9.27849C18.933 9.834 19.0795 10.4867 19.1154 11.1989C19.1494 11.8681 19.0663 12.6033 18.6184 13.3247C18.6562 13.3687 18.6902 13.4127 18.7261 13.4567C19.911 11.6463 20.7651 9.64333 21.2206 7.93556C21.4643 7.01614 21.5938 6.18288 21.6051 5.52287C21.6146 4.86287 21.488 4.38436 21.3264 4.18453C20.0584 2.61151 18.3425 2.21184 16.9044 2.20084ZM12.3785 2.43551C11.2617 2.43826 10.4604 2.76552 9.85289 3.25594C9.22645 3.76286 8.80598 4.45678 8.53008 5.1672C8.20221 6.01055 8.08977 6.82639 8.04536 7.38006L8.05765 7.37272C8.39496 7.18939 8.83811 7.00605 9.31243 6.89972C9.78675 6.7943 10.2979 6.7613 10.7609 6.93547C11.2239 7.10964 11.6066 7.51939 11.7455 8.1409C12.4106 11.1265 11.5385 12.2366 11.2173 13.0744C11.0954 13.3781 10.991 13.6881 10.9045 14.003C10.9452 13.9939 10.9858 13.9829 11.0264 13.9792C11.2532 13.9609 11.4308 14.0342 11.5366 14.0782C11.8598 14.2084 12.0818 14.4815 12.2018 14.7932C12.233 14.8748 12.2557 14.9628 12.2689 15.0535C12.2829 15.0908 12.2893 15.1303 12.2878 15.17C12.252 16.3119 12.2561 17.4548 12.3001 18.5965C12.3218 19.0897 12.354 19.5242 12.3946 19.867C12.4352 20.2089 12.4928 20.4693 12.5297 20.5573C12.6506 20.8506 12.8273 21.2347 13.1467 21.4959C13.4661 21.7563 13.9243 21.9304 14.7615 21.7563C15.4871 21.605 15.935 21.3951 16.2345 21.0935C16.5331 20.7919 16.7117 20.3721 16.826 19.7295C16.997 18.767 17.341 15.9757 17.3825 15.4505C17.3636 15.0545 17.4241 14.7501 17.5545 14.5182C17.6887 14.2799 17.8965 14.1341 18.0761 14.0553C18.1658 14.0159 18.2499 13.9893 18.3189 13.97C18.2459 13.8682 18.1693 13.7689 18.0893 13.6721C17.8305 13.3676 17.6185 13.0282 17.46 12.6647C17.3841 12.5146 17.3031 12.3669 17.2172 12.2219C17.0915 12.0019 16.9328 11.7269 16.7665 11.418C16.4339 10.7993 16.072 10.0494 15.884 9.31882C15.6969 8.58915 15.6695 7.83381 16.1495 7.30122C16.5747 6.82822 17.3211 6.63205 18.4417 6.74205C18.4087 6.6458 18.3888 6.56605 18.3331 6.43772C18.0797 5.85919 17.749 5.31552 17.3495 4.8207C16.3999 3.64277 14.8626 2.47493 12.4872 2.43735H12.3785V2.43551ZM6.10272 2.48318C5.98272 2.48318 5.86272 2.48685 5.74367 2.49326C4.78936 2.54643 3.88701 2.81502 3.24167 3.47869C2.59538 4.14236 2.17019 5.23045 2.26279 7.03172C2.28074 7.37272 2.43381 8.3279 2.69648 9.46274C2.95821 10.5976 3.32954 11.9332 3.77552 13.1129C4.22244 14.2927 4.76384 15.3194 5.27785 15.8052C5.53674 16.0481 5.76162 16.1462 5.96571 16.138C6.17075 16.1288 6.41736 16.0142 6.71877 15.6631C7.26831 15.02 7.83866 14.3939 8.42898 13.7858C8.01013 13.433 7.68957 12.9835 7.49687 12.4789C7.30416 11.9742 7.24551 11.4307 7.32632 10.8983C7.42364 10.2208 7.43687 9.58741 7.42553 9.08691C7.41419 8.59923 7.37829 8.27473 7.37829 8.07215C7.37812 8.06634 7.37812 8.06053 7.37829 8.05473V8.05015L7.37734 8.04465C7.37678 6.98936 7.56607 5.94117 7.9367 4.94904C8.20127 4.26703 8.59527 3.57402 9.18582 3.01302C8.60567 2.82785 7.57576 2.54551 6.46082 2.49235C6.34124 2.48639 6.22246 2.48333 6.10272 2.48318ZM17.8172 7.32506C17.1756 7.33331 16.8156 7.49373 16.6266 7.70364C16.3592 8.00156 16.3337 8.52407 16.5 9.16757C16.6654 9.812 17.0074 10.5325 17.3287 11.1311C17.4893 11.4308 17.6452 11.7003 17.7709 11.9194C17.8975 12.1394 17.9901 12.2953 18.0468 12.4282C18.0987 12.551 18.1564 12.6592 18.215 12.76C18.4635 12.2513 18.5079 11.7517 18.4823 11.231C18.4493 10.5866 18.2953 9.9275 18.3179 9.26016C18.3435 8.48007 18.5022 7.97223 18.5164 7.36906C18.2845 7.33992 18.051 7.32522 17.8172 7.32506ZM10.0371 7.43047C9.84115 7.43225 9.64595 7.455 9.4551 7.49831C9.07473 7.58797 8.70837 7.72638 8.36567 7.9099C8.24975 7.97022 8.13942 8.04015 8.03591 8.1189L8.01513 8.13723C8.0208 8.27107 8.0482 8.59557 8.05954 9.07316C8.07087 9.59566 8.05765 10.2621 7.95371 10.9835C7.72789 12.551 8.90047 13.849 10.2781 13.8509C10.3584 13.5291 10.4907 13.2028 10.623 12.859C11.0066 11.8562 11.7615 11.1247 11.1256 8.27015C11.0217 7.80264 10.8157 7.61381 10.5322 7.50748C10.3734 7.45296 10.2056 7.42687 10.0371 7.43047ZM17.5176 7.61748H17.5649C17.6272 7.61931 17.6849 7.62573 17.735 7.63764C17.786 7.64864 17.8294 7.66514 17.8654 7.68806C17.8838 7.69913 17.8996 7.71382 17.9118 7.73119C17.924 7.74856 17.9323 7.76821 17.9362 7.78889L17.9353 7.79623C17.9371 7.83974 17.9256 7.88281 17.9022 7.91998C17.8743 7.97029 17.8394 8.01657 17.7983 8.05748C17.7024 8.15988 17.574 8.22828 17.4335 8.25182C17.2968 8.26785 17.1588 8.23421 17.0462 8.1574C17 8.1273 16.9587 8.09086 16.9233 8.04923C16.8927 8.01652 16.8721 7.97622 16.8638 7.93281C16.8618 7.91166 16.8643 7.89035 16.8711 7.87017C16.878 7.84999 16.889 7.83138 16.9035 7.81548C16.9345 7.7813 16.972 7.75328 17.014 7.73298C17.1047 7.68348 17.2276 7.64681 17.3665 7.62664C17.4184 7.61931 17.4695 7.61564 17.5176 7.61473V7.61748ZM10.1288 7.77148C10.1789 7.77148 10.2318 7.77606 10.2856 7.78339C10.4302 7.80264 10.5587 7.84023 10.657 7.89523C10.7049 7.9195 10.7476 7.95249 10.7826 7.9924C10.8017 8.01357 10.8161 8.03833 10.8249 8.06515C10.8337 8.09196 10.8367 8.12025 10.8337 8.14823C10.8246 8.20094 10.8 8.24996 10.7628 8.2894C10.7241 8.33544 10.6786 8.37561 10.6277 8.40857C10.5048 8.49303 10.3539 8.52996 10.2044 8.51215C10.0516 8.48779 9.91181 8.41415 9.80754 8.30315C9.76318 8.25845 9.72563 8.20783 9.69604 8.15281C9.6649 8.10441 9.65127 8.04732 9.6573 7.99056C9.67148 7.89156 9.75557 7.84023 9.83777 7.81181C9.93141 7.78278 10.0297 7.77036 10.1278 7.77514L10.1288 7.77148ZM18.6893 14.5026L18.6864 14.5035C18.5475 14.5521 18.4332 14.5723 18.3368 14.6135C18.2394 14.6499 18.159 14.7197 18.111 14.8097C18.0515 14.9151 18.0005 15.1021 18.0156 15.4202C18.0583 15.4488 18.1056 15.4704 18.1554 15.4844C18.317 15.532 18.5882 15.5632 18.8905 15.5586C19.4934 15.5522 20.2351 15.4156 20.6291 15.2378C20.9523 15.0921 21.2524 14.9023 21.5201 14.674C20.2039 14.938 19.4593 14.8675 19.003 14.685C18.8896 14.6393 18.7839 14.5784 18.6893 14.5026ZM11.1011 14.5888H11.0812C11.0311 14.5934 10.9584 14.6099 10.8176 14.7611C10.4888 15.1186 10.3735 15.3432 10.1023 15.5531C9.83116 15.7621 9.47872 15.874 8.7748 16.0142C8.55181 16.0582 8.42425 16.1068 8.33922 16.1462C8.36662 16.1682 8.36378 16.1737 8.40536 16.1948C8.50835 16.2498 8.64063 16.2984 8.7474 16.325C9.04976 16.3983 9.54675 16.4836 10.0655 16.3983C10.5842 16.3121 11.1237 16.0711 11.5839 15.445C11.6633 15.3368 11.6718 15.1773 11.6066 15.0059C11.5404 14.8345 11.3959 14.6869 11.2938 14.6456C11.2331 14.6172 11.168 14.5986 11.1011 14.5906V14.5888Z" />
</svg>