<?xml version="1.0" encoding="UTF-8" standalone="no"?>
<!DOCTYPE svg PUBLIC "-//W3C//DTD SVG 1.1//EN" "http://www.w3.org/Graphics/SVG/1.1/DTD/svg11.dtd">
<svg width="100%" height="100%" viewBox="0 0 250 250" version="1.1" xmlns="http://www.w3.org/2000/svg" xmlns:xlink="http://www.w3.org/1999/xlink" xml:space="preserve" xmlns:serif="http://www.serif.com/" style="fill-rule:evenodd;clip-rule:evenodd;stroke-linejoin:round;stroke-miterlimit:2;">
    <g transform="matrix(1,0,0,1,-0.999997,-1)">
        <g transform="matrix(11.3636,0,0,11.3637,-10.3636,-10.3637)">
            <path d="M16.805,1C15.924,1.006 15.048,1.131 14.202,1.369L14.143,1.388C13.609,1.296 13.069,1.246 12.527,1.237C11.414,1.218 10.458,1.48 9.687,1.917C8.927,1.661 7.351,1.22 5.69,1.308C4.533,1.369 3.271,1.71 2.336,2.668C1.403,3.626 0.91,5.109 1.014,7.125C1.042,7.682 1.205,8.589 1.477,9.764C1.748,10.94 2.129,12.315 2.604,13.57C3.079,14.826 3.6,15.954 4.413,16.72C4.82,17.104 5.379,17.427 6.038,17.4C6.501,17.382 6.92,17.185 7.281,16.894C7.457,17.119 7.645,17.217 7.816,17.308C8.031,17.422 8.241,17.5 8.458,17.552C8.849,17.646 9.517,17.772 10.299,17.643C10.565,17.6 10.846,17.516 11.126,17.396C11.136,17.698 11.148,17.994 11.161,18.294C11.199,19.244 11.224,20.121 11.518,20.89C11.565,21.016 11.694,21.663 12.205,22.234C12.715,22.806 13.715,23.162 14.853,22.926C15.656,22.759 16.678,22.458 17.356,21.522C18.027,20.596 18.329,19.267 18.389,17.113C18.404,16.997 18.422,16.898 18.441,16.805L18.601,16.819L18.619,16.819C19.476,16.857 20.406,16.738 21.183,16.388C21.871,16.079 22.391,15.767 22.77,15.212C22.865,15.075 22.969,14.909 22.997,14.623C23.025,14.337 22.856,13.889 22.576,13.683C22.013,13.269 21.66,13.426 21.281,13.503C20.908,13.583 20.528,13.627 20.145,13.636C21.238,11.852 22.021,9.956 22.468,8.278C22.732,7.288 22.881,6.375 22.893,5.577C22.905,4.779 22.838,4.072 22.345,3.46C20.804,1.55 18.637,1.022 16.961,1.004C16.909,1.003 16.857,1.002 16.805,1.003L16.805,1ZM16.761,1.587C18.346,1.572 20.372,2.004 21.826,3.807C22.153,4.212 22.251,4.804 22.239,5.534C22.227,6.263 22.088,7.135 21.834,8.091C21.341,9.943 20.409,12.102 19.097,14.039C19.143,14.071 19.193,14.097 19.246,14.118C19.52,14.228 20.144,14.322 21.391,14.074C21.704,14.009 21.934,13.966 22.172,14.142C22.23,14.19 22.276,14.25 22.306,14.318C22.336,14.385 22.349,14.459 22.345,14.532C22.332,14.643 22.29,14.749 22.222,14.84C21.981,15.191 21.506,15.524 20.897,15.798C20.357,16.042 19.583,16.169 18.897,16.177C18.553,16.18 18.236,16.154 17.967,16.073L17.949,16.067C17.846,17.038 17.607,18.957 17.451,19.832C17.326,20.538 17.108,21.099 16.691,21.519C16.275,21.939 15.687,22.192 14.895,22.357C13.914,22.561 13.199,22.341 12.738,21.964C12.277,21.589 12.067,21.09 11.94,20.785C11.853,20.574 11.808,20.301 11.764,19.936C11.721,19.571 11.689,19.125 11.667,18.621C11.638,17.851 11.629,17.08 11.639,16.308C11.229,16.673 10.72,16.914 10.172,17.005C9.521,17.112 8.94,17.007 8.593,16.923C8.422,16.881 8.257,16.819 8.102,16.738C7.941,16.655 7.788,16.561 7.686,16.375C7.626,16.268 7.607,16.144 7.632,16.025C7.664,15.905 7.737,15.798 7.838,15.722C8.026,15.574 8.273,15.492 8.646,15.416C9.326,15.281 9.563,15.188 9.707,15.077C9.83,14.982 9.969,14.79 10.215,14.507C10.214,14.495 10.213,14.482 10.212,14.47C9.772,14.458 9.342,14.345 8.955,14.142C8.814,14.286 8.09,15.029 7.207,16.059C6.836,16.49 6.426,16.738 5.993,16.755C5.56,16.773 5.169,16.562 4.837,16.249C4.172,15.623 3.642,14.546 3.18,13.328C2.719,12.111 2.344,10.755 2.078,9.6C1.81,8.445 1.652,7.514 1.63,7.065C1.531,5.156 1.991,3.87 2.78,3.059C3.57,2.248 4.652,1.941 5.708,1.882C7.602,1.776 9.401,2.417 9.765,2.555C10.466,2.093 11.369,1.805 12.498,1.823C13.033,1.83 13.566,1.898 14.086,2.023L14.105,2.015C14.334,1.937 14.567,1.871 14.803,1.819C15.445,1.673 16.101,1.596 16.76,1.589L16.761,1.587ZM16.904,2.201L16.767,2.201C16.225,2.208 15.686,2.267 15.156,2.377C16.334,2.883 17.223,3.662 17.849,4.439C18.284,4.978 18.644,5.569 18.919,6.199C19.023,6.441 19.093,6.646 19.132,6.804C19.152,6.884 19.166,6.951 19.17,7.021C19.172,7.056 19.174,7.091 19.159,7.153C19.159,7.155 19.154,7.162 19.153,7.165C19.182,7.968 18.977,8.512 18.952,9.278C18.933,9.834 19.08,10.487 19.115,11.199C19.149,11.868 19.066,12.603 18.618,13.325C18.656,13.369 18.69,13.413 18.726,13.457C19.911,11.646 20.765,9.643 21.221,7.936C21.464,7.016 21.594,6.183 21.605,5.523C21.615,4.863 21.488,4.384 21.326,4.185C20.058,2.612 18.343,2.212 16.904,2.201ZM12.379,2.436C11.262,2.438 10.46,2.766 9.853,3.256C9.226,3.763 8.806,4.457 8.53,5.167C8.202,6.011 8.09,6.826 8.045,7.38L8.058,7.373C8.395,7.189 8.838,7.006 9.312,6.9C9.787,6.794 10.298,6.761 10.761,6.935C11.224,7.11 11.607,7.519 11.746,8.141C12.411,11.127 11.539,12.237 11.217,13.074C11.095,13.378 10.991,13.688 10.905,14.003C10.945,13.994 10.986,13.983 11.026,13.979C11.253,13.961 11.431,14.034 11.537,14.078C11.86,14.208 12.082,14.482 12.202,14.793C12.233,14.875 12.256,14.963 12.269,15.054C12.283,15.091 12.289,15.13 12.288,15.17C12.252,16.312 12.256,17.455 12.3,18.597C12.322,19.09 12.354,19.524 12.395,19.867C12.435,20.209 12.493,20.469 12.53,20.557C12.651,20.851 12.827,21.235 13.147,21.496C13.466,21.756 13.924,21.93 14.762,21.756C15.487,21.605 15.935,21.395 16.235,21.094C16.533,20.792 16.712,20.372 16.826,19.73C16.997,18.767 17.341,15.976 17.383,15.451C17.364,15.055 17.424,14.75 17.555,14.518C17.689,14.28 17.897,14.134 18.076,14.055C18.166,14.016 18.25,13.989 18.319,13.97C18.246,13.868 18.169,13.769 18.089,13.672C17.831,13.368 17.619,13.028 17.46,12.665C17.384,12.515 17.303,12.367 17.217,12.222C17.092,12.002 16.933,11.727 16.767,11.418C16.434,10.799 16.072,10.049 15.884,9.319C15.697,8.589 15.669,7.834 16.15,7.301C16.575,6.828 17.321,6.632 18.442,6.742C18.409,6.646 18.389,6.566 18.333,6.438C18.08,5.859 17.749,5.316 17.35,4.821C16.4,3.643 14.863,2.475 12.487,2.437L12.379,2.437L12.379,2.436ZM6.103,2.483C5.983,2.483 5.863,2.487 5.744,2.493C4.789,2.546 3.887,2.815 3.242,3.479C2.595,4.142 2.17,5.23 2.263,7.032C2.281,7.373 2.434,8.328 2.696,9.463C2.958,10.598 3.33,11.933 3.776,13.113C4.222,14.293 4.764,15.319 5.278,15.805C5.537,16.048 5.762,16.146 5.966,16.138C6.171,16.129 6.417,16.014 6.719,15.663C7.268,15.02 7.839,14.394 8.429,13.786C8.01,13.433 7.69,12.984 7.497,12.479C7.304,11.974 7.246,11.431 7.326,10.898C7.424,10.221 7.437,9.587 7.426,9.087C7.414,8.599 7.378,8.275 7.378,8.072L7.378,8.05L7.377,8.045C7.377,6.989 7.566,5.941 7.937,4.949C8.201,4.267 8.595,3.574 9.186,3.013C8.606,2.828 7.576,2.546 6.461,2.492C6.341,2.486 6.222,2.483 6.103,2.483ZM17.817,7.325C17.176,7.333 16.816,7.494 16.627,7.704C16.359,8.002 16.334,8.524 16.5,9.168C16.665,9.812 17.007,10.533 17.329,11.131C17.489,11.431 17.645,11.7 17.771,11.919C17.898,12.139 17.99,12.295 18.047,12.428C18.099,12.551 18.156,12.659 18.215,12.76C18.464,12.251 18.508,11.752 18.482,11.231C18.449,10.587 18.295,9.928 18.318,9.26C18.344,8.48 18.502,7.972 18.516,7.369C18.285,7.34 18.051,7.325 17.817,7.325ZM10.037,7.43C9.841,7.432 9.646,7.455 9.455,7.498C9.075,7.588 8.708,7.726 8.366,7.91C8.25,7.97 8.139,8.04 8.036,8.119L8.015,8.137C8.021,8.271 8.048,8.596 8.06,9.073C8.071,9.596 8.058,10.262 7.954,10.984C7.728,12.551 8.9,13.849 10.278,13.851C10.358,13.529 10.491,13.203 10.623,12.859C11.007,11.856 11.762,11.125 11.126,8.27C11.022,7.803 10.816,7.614 10.532,7.507C10.373,7.453 10.206,7.427 10.037,7.43ZM17.518,7.617L17.565,7.617C17.627,7.619 17.685,7.626 17.735,7.638C17.786,7.649 17.829,7.665 17.865,7.688C17.884,7.699 17.9,7.714 17.912,7.731C17.924,7.749 17.932,7.768 17.936,7.789L17.935,7.796C17.937,7.84 17.926,7.883 17.902,7.92C17.874,7.97 17.839,8.017 17.798,8.057C17.702,8.16 17.574,8.228 17.434,8.252C17.297,8.268 17.159,8.234 17.046,8.157C17,8.127 16.959,8.091 16.923,8.049C16.893,8.017 16.872,7.976 16.864,7.933C16.862,7.912 16.864,7.89 16.871,7.87C16.878,7.85 16.889,7.831 16.904,7.815C16.935,7.781 16.972,7.753 17.014,7.733C17.105,7.683 17.228,7.647 17.366,7.627C17.418,7.619 17.47,7.616 17.518,7.615L17.518,7.617ZM10.129,7.771C10.179,7.771 10.232,7.776 10.286,7.783C10.43,7.803 10.559,7.84 10.657,7.895C10.705,7.92 10.748,7.952 10.783,7.992C10.802,8.014 10.816,8.038 10.825,8.065C10.834,8.092 10.837,8.12 10.834,8.148C10.825,8.201 10.8,8.25 10.763,8.289C10.724,8.335 10.679,8.376 10.628,8.409C10.505,8.493 10.354,8.53 10.204,8.512C10.052,8.488 9.912,8.414 9.808,8.303C9.763,8.258 9.726,8.208 9.696,8.153C9.665,8.104 9.651,8.047 9.657,7.991C9.671,7.892 9.756,7.84 9.838,7.812C9.931,7.783 10.03,7.77 10.128,7.775L10.129,7.771ZM18.689,14.503L18.686,14.504C18.548,14.552 18.433,14.572 18.337,14.614C18.239,14.65 18.159,14.72 18.111,14.81C18.052,14.915 18.001,15.102 18.016,15.42C18.058,15.449 18.106,15.47 18.155,15.484C18.317,15.532 18.588,15.563 18.891,15.559C19.493,15.552 20.235,15.416 20.629,15.238C20.952,15.092 21.252,14.902 21.52,14.674C20.204,14.938 19.459,14.868 19.003,14.685C18.89,14.639 18.784,14.578 18.689,14.503ZM11.101,14.589L11.081,14.589C11.031,14.593 10.958,14.61 10.818,14.761C10.489,15.119 10.374,15.343 10.102,15.553C9.831,15.762 9.479,15.874 8.775,16.014C8.552,16.058 8.424,16.107 8.339,16.146C8.367,16.168 8.364,16.174 8.405,16.195C8.508,16.25 8.641,16.298 8.747,16.325C9.05,16.398 9.547,16.484 10.066,16.398C10.584,16.312 11.124,16.071 11.584,15.445C11.663,15.337 11.672,15.177 11.607,15.006C11.54,14.835 11.396,14.687 11.294,14.646C11.233,14.617 11.168,14.599 11.101,14.591L11.101,14.589Z" style="fill-rule:nonzero;"/>
        </g>
    </g>
</svg>
