<svg width="17" height="24" viewBox="0 0 17 24" fill="none" xmlns="http://www.w3.org/2000/svg">
<path d="M0 0.270508H7.60892V7.56518H0V0.270508Z" fill="#CB8999"/>
<path d="M16.1337 16.4805H8.45435V23.4374H16.1337V16.4805Z" fill="#FFC800"/>
<path d="M7.60892 8.37598H0V15.7382H7.60892V8.37598Z" fill="#5D576B"/>
<path d="M16.1337 8.37598H8.45435V15.7382H16.1337V8.37598Z" fill="#6CD4FF"/>
<path d="M16.1337 0.270508H8.45435V7.56518H16.1337V0.270508Z" fill="#8ECB89"/>
<path d="M0 0.270508H7.60892V7.56518H0V0.270508Z" fill="#CB8999"/>
<path d="M16.1337 16.4805H8.45435V23.4374H16.1337V16.4805Z" fill="#FFC800"/>
<path d="M7.60892 8.37598H0V15.7382H7.60892V8.37598Z" fill="#5D576B"/>
<path d="M16.1337 8.37598H8.45435V15.7382H16.1337V8.37598Z" fill="#6CD4FF"/>
<path d="M16.1337 0.270508H8.45435V7.56518H16.1337V0.270508Z" fill="#8ECB89"/>
</svg>
