<svg width="109" height="22" viewBox="0 0 109 22" fill="none" xmlns="http://www.w3.org/2000/svg">
<path d="M28.1593 19.5299V16.2749L28.2889 14.6367C27.9291 14.9816 27.5117 15.269 27.0367 15.4989C26.5618 15.7145 26.0797 15.8222 25.5903 15.8222C24.9282 15.8222 24.3237 15.6929 23.7768 15.4342C23.2443 15.1756 22.7837 14.8091 22.3951 14.3349C22.0209 13.8463 21.7259 13.2571 21.51 12.5673C21.3085 11.8775 21.2078 11.0942 21.2078 10.2176C21.2078 9.34105 21.3301 8.55781 21.5748 7.86801C21.8338 7.17821 22.1649 6.5962 22.5679 6.12196C22.9852 5.63336 23.4602 5.25971 23.9927 5.00104C24.5396 4.74236 25.0937 4.61303 25.655 4.61303C26.2452 4.61303 26.7633 4.72081 27.2094 4.93637C27.6557 5.13756 28.0874 5.46809 28.5047 5.92795H28.5911L28.8502 4.8717H31.3329V19.5299H28.1593ZM26.4106 13.2355C26.7561 13.2355 27.0655 13.1636 27.3389 13.0199C27.6268 12.8763 27.9003 12.6247 28.1593 12.2655V7.88957C27.8715 7.63089 27.5764 7.45122 27.2742 7.35066C26.9719 7.2501 26.6769 7.19977 26.389 7.19977C25.8854 7.19977 25.4391 7.44411 25.0505 7.93268C24.6619 8.40692 24.4676 9.15416 24.4676 10.1745C24.4676 11.238 24.6332 12.014 24.9642 12.5026C25.3096 12.9912 25.7918 13.2355 26.4106 13.2355ZM36.9297 15.8222C35.7639 15.8222 34.9147 15.4415 34.3822 14.6798C33.8641 13.9181 33.605 12.8618 33.605 11.511V4.8717H36.7785V11.1014C36.7785 11.8775 36.8865 12.4092 37.1024 12.6966C37.3183 12.9841 37.6564 13.1277 38.117 13.1277C38.52 13.1277 38.8582 13.0343 39.1317 12.8475C39.4051 12.6607 39.7001 12.3589 40.0169 11.9421V4.8717H43.1904V15.5636H40.5998L40.3623 14.0762H40.2975C39.8369 14.6223 39.3404 15.0534 38.8079 15.3696C38.2898 15.6714 37.6637 15.8222 36.9297 15.8222ZM48.25 15.8222C47.7605 15.8222 47.3144 15.736 46.9115 15.5636C46.5229 15.4055 46.1918 15.1828 45.9184 14.8953C45.6448 14.5935 45.429 14.2486 45.2707 13.8606C45.1267 13.4726 45.0548 13.0487 45.0548 12.5888C45.0548 11.4679 45.5298 10.5913 46.4797 9.95896C47.4296 9.32661 48.9624 8.90271 51.0781 8.68715C51.0493 8.21291 50.9054 7.83923 50.6463 7.56623C50.4016 7.27877 49.9842 7.1351 49.3942 7.1351C48.9336 7.1351 48.473 7.22133 48.0125 7.39378C47.5662 7.56623 47.0842 7.80334 46.566 8.10513L45.4218 6.01418C46.1127 5.59742 46.8322 5.25971 47.5807 5.00104C48.3434 4.74236 49.1495 4.61303 49.9987 4.61303C51.3803 4.61303 52.431 5.00823 53.1506 5.79862C53.8846 6.57464 54.2516 7.78901 54.2516 9.44161V15.5636H51.661L51.4451 14.4642H51.3587C50.8981 14.8666 50.416 15.1971 49.9123 15.4558C49.4085 15.7001 48.8544 15.8222 48.25 15.8222ZM49.3294 13.3648C49.6892 13.3648 49.9987 13.2858 50.2577 13.1277C50.5168 12.9696 50.7902 12.7469 51.0781 12.4595V10.5841C49.9555 10.7422 49.1783 10.9721 48.7465 11.2739C48.3147 11.5757 48.0988 11.9349 48.0988 12.3517C48.0988 12.6966 48.2068 12.9553 48.4227 13.1277C48.6529 13.2858 48.9552 13.3648 49.3294 13.3648ZM60.3254 15.8222C59.6634 15.8222 59.0589 15.6929 58.512 15.4342C57.9795 15.1756 57.5189 14.8091 57.1303 14.3349C56.7562 13.8463 56.461 13.2571 56.2452 12.5673C56.0437 11.8775 55.9429 11.0942 55.9429 10.2176C55.9429 9.34105 56.0653 8.55781 56.3099 7.86801C56.569 7.17821 56.9001 6.5962 57.303 6.12196C57.7204 5.63336 58.1954 5.25971 58.7279 5.00104C59.2748 4.74236 59.8289 4.61303 60.3902 4.61303C60.9947 4.61303 61.4912 4.71362 61.8798 4.91481C62.2684 5.11601 62.6499 5.38905 63.024 5.73395L62.8945 4.09568V0.45268H66.0681V15.5636H63.4774L63.2615 14.5073H63.1752C62.801 14.881 62.362 15.1971 61.8582 15.4558C61.3546 15.7001 60.8436 15.8222 60.3254 15.8222ZM61.1458 13.2355C61.4912 13.2355 61.8007 13.1636 62.0741 13.0199C62.362 12.8763 62.6354 12.6247 62.8945 12.2655V7.88957C62.6067 7.63089 62.3116 7.45122 62.0094 7.35066C61.7071 7.2501 61.4121 7.19977 61.1242 7.19977C60.6206 7.19977 60.1743 7.44411 59.7857 7.93268C59.3971 8.40692 59.2028 9.15416 59.2028 10.1745C59.2028 11.238 59.3684 12.014 59.6994 12.5026C60.0448 12.9912 60.527 13.2355 61.1458 13.2355ZM68.4481 15.5636V4.8717H71.0388L71.2547 6.74709H71.341C71.7296 6.01418 72.1973 5.47527 72.7443 5.13037C73.2911 4.78548 73.8381 4.61303 74.385 4.61303C74.6873 4.61303 74.9319 4.63458 75.1191 4.67769C75.3205 4.70644 75.5004 4.75673 75.6588 4.82859L75.1406 7.56623C74.9391 7.50878 74.752 7.46567 74.5793 7.43689C74.4066 7.40811 74.2051 7.39378 73.9748 7.39378C73.5718 7.39378 73.1472 7.53745 72.7011 7.8249C72.2693 8.11235 71.9094 8.62248 71.6217 9.35539V15.5636H68.4481ZM78.7053 15.8222C78.216 15.8222 77.7698 15.736 77.3668 15.5636C76.9782 15.4055 76.6472 15.1828 76.3737 14.8953C76.1003 14.5935 75.8844 14.2486 75.726 13.8606C75.5821 13.4726 75.5101 13.0487 75.5101 12.5888C75.5101 11.4679 75.9851 10.5913 76.935 9.95896C77.8849 9.32661 79.4177 8.90271 81.5334 8.68715C81.5047 8.21291 81.3607 7.83923 81.1016 7.56623C80.857 7.27877 80.4396 7.1351 79.8495 7.1351C79.389 7.1351 78.9284 7.22133 78.4678 7.39378C78.0217 7.56623 77.5395 7.80334 77.0213 8.10513L75.8771 6.01418C76.568 5.59742 77.2876 5.25971 78.036 5.00104C78.7989 4.74236 79.6049 4.61303 80.454 4.61303C81.8356 4.61303 82.8864 5.00823 83.6059 5.79862C84.3399 6.57464 84.707 7.78901 84.707 9.44161V15.5636H82.1163L81.9004 14.4642H81.8141C81.3536 14.8666 80.8714 15.1971 80.3676 15.4558C79.8639 15.7001 79.3098 15.8222 78.7053 15.8222ZM79.7847 13.3648C80.1446 13.3648 80.454 13.2858 80.713 13.1277C80.9721 12.9696 81.2456 12.7469 81.5334 12.4595V10.5841C80.4108 10.7422 79.6336 10.9721 79.2018 11.2739C78.77 11.5757 78.5541 11.9349 78.5541 12.3517C78.5541 12.6966 78.6621 12.9553 78.878 13.1277C79.1083 13.2858 79.4106 13.3648 79.7847 13.3648ZM90.7036 15.8222C90.0415 15.8222 89.473 15.7217 88.998 15.5205C88.5376 15.3192 88.1561 15.039 87.8538 14.6798C87.5661 14.3205 87.3502 13.8894 87.2062 13.3864C87.0767 12.869 87.0119 12.3014 87.0119 11.6835V7.35066H85.5438V5.00104L87.1846 4.8717L87.5516 2.02628H90.1854V4.8717H92.7545V7.35066H90.1854V11.6403C90.1854 12.2439 90.3078 12.6823 90.5524 12.9553C90.8115 13.214 91.1498 13.3433 91.5671 13.3433C91.7398 13.3433 91.9125 13.3217 92.0853 13.2786C92.2724 13.2355 92.4379 13.1852 92.5818 13.1277L93.0783 15.4342C92.7906 15.5205 92.4523 15.6067 92.0637 15.6929C91.6751 15.7791 91.2217 15.8222 90.7036 15.8222ZM94.4128 15.5636V4.8717H97.5864V15.5636H94.4128ZM95.9888 3.2981C95.4562 3.2981 95.0173 3.1472 94.6719 2.84542C94.3265 2.52926 94.1538 2.12687 94.1538 1.63827C94.1538 1.14967 94.3265 0.754467 94.6719 0.45268C95.0173 0.150893 95.4562 0 95.9888 0C96.5357 0 96.9747 0.150893 97.3057 0.45268C97.6512 0.754467 97.8239 1.14967 97.8239 1.63827C97.8239 2.12687 97.6512 2.52926 97.3057 2.84542C96.9747 3.1472 96.5357 3.2981 95.9888 3.2981ZM104.611 15.8222C103.862 15.8222 103.164 15.7001 102.517 15.4558C101.883 15.1971 101.329 14.8307 100.854 14.3564C100.379 13.8822 100.005 13.3002 99.7316 12.6104C99.4581 11.9062 99.3214 11.1087 99.3214 10.2176C99.3214 9.32661 99.4725 8.53625 99.7747 7.84646C100.077 7.14232 100.48 6.55308 100.984 6.07885C101.502 5.60461 102.099 5.24535 102.776 5.00104C103.452 4.74236 104.157 4.61303 104.891 4.61303C105.553 4.61303 106.136 4.72081 106.64 4.93637C107.158 5.15193 107.619 5.42497 108.022 5.7555L106.532 7.80334C106.028 7.38655 105.546 7.17821 105.086 7.17821C104.308 7.17821 103.697 7.45122 103.251 7.99735C102.804 8.54348 102.581 9.2835 102.581 10.2176C102.581 11.1518 102.804 11.8918 103.251 12.4379C103.711 12.9841 104.287 13.2571 104.978 13.2571C105.323 13.2571 105.654 13.1852 105.971 13.0415C106.302 12.8834 106.611 12.6966 106.899 12.481L108.151 14.5504C107.619 15.0103 107.043 15.3408 106.424 15.542C105.805 15.7288 105.201 15.8222 104.611 15.8222Z" fill="#5D576B"/>
<path d="M28.1593 19.5299V16.2749L28.2889 14.6367C27.9291 14.9816 27.5117 15.269 27.0367 15.4989C26.5618 15.7145 26.0797 15.8222 25.5903 15.8222C24.9282 15.8222 24.3237 15.6929 23.7768 15.4342C23.2443 15.1756 22.7837 14.8091 22.3951 14.3349C22.0209 13.8463 21.7259 13.2571 21.51 12.5673C21.3085 11.8775 21.2078 11.0942 21.2078 10.2176C21.2078 9.34105 21.3301 8.55781 21.5748 7.86801C21.8338 7.17821 22.1649 6.5962 22.5679 6.12196C22.9852 5.63336 23.4602 5.25971 23.9927 5.00104C24.5396 4.74236 25.0937 4.61303 25.655 4.61303C26.2452 4.61303 26.7633 4.72081 27.2094 4.93637C27.6557 5.13756 28.0874 5.46809 28.5047 5.92795H28.5911L28.8502 4.8717H31.3329V19.5299H28.1593ZM26.4106 13.2355C26.7561 13.2355 27.0655 13.1636 27.3389 13.0199C27.6268 12.8763 27.9003 12.6247 28.1593 12.2655V7.88957C27.8715 7.63089 27.5764 7.45122 27.2742 7.35066C26.9719 7.2501 26.6769 7.19977 26.389 7.19977C25.8854 7.19977 25.4391 7.44411 25.0505 7.93268C24.6619 8.40692 24.4676 9.15416 24.4676 10.1745C24.4676 11.238 24.6332 12.014 24.9642 12.5026C25.3096 12.9912 25.7918 13.2355 26.4106 13.2355ZM36.9297 15.8222C35.7639 15.8222 34.9147 15.4415 34.3822 14.6798C33.8641 13.9181 33.605 12.8618 33.605 11.511V4.8717H36.7785V11.1014C36.7785 11.8775 36.8865 12.4092 37.1024 12.6966C37.3183 12.9841 37.6564 13.1277 38.117 13.1277C38.52 13.1277 38.8582 13.0343 39.1317 12.8475C39.4051 12.6607 39.7001 12.3589 40.0169 11.9421V4.8717H43.1904V15.5636H40.5998L40.3623 14.0762H40.2975C39.8369 14.6223 39.3404 15.0534 38.8079 15.3696C38.2898 15.6714 37.6637 15.8222 36.9297 15.8222ZM48.25 15.8222C47.7605 15.8222 47.3144 15.736 46.9115 15.5636C46.5229 15.4055 46.1918 15.1828 45.9184 14.8953C45.6448 14.5935 45.429 14.2486 45.2707 13.8606C45.1267 13.4726 45.0548 13.0487 45.0548 12.5888C45.0548 11.4679 45.5298 10.5913 46.4797 9.95896C47.4296 9.32661 48.9624 8.90271 51.0781 8.68715C51.0493 8.21291 50.9054 7.83923 50.6463 7.56623C50.4016 7.27877 49.9842 7.1351 49.3942 7.1351C48.9336 7.1351 48.473 7.22133 48.0125 7.39378C47.5662 7.56623 47.0842 7.80334 46.566 8.10513L45.4218 6.01418C46.1127 5.59742 46.8322 5.25971 47.5807 5.00104C48.3434 4.74236 49.1495 4.61303 49.9987 4.61303C51.3803 4.61303 52.431 5.00823 53.1506 5.79862C53.8846 6.57464 54.2516 7.78901 54.2516 9.44161V15.5636H51.661L51.4451 14.4642H51.3587C50.8981 14.8666 50.416 15.1971 49.9123 15.4558C49.4085 15.7001 48.8544 15.8222 48.25 15.8222ZM49.3294 13.3648C49.6892 13.3648 49.9987 13.2858 50.2577 13.1277C50.5168 12.9696 50.7902 12.7469 51.0781 12.4595V10.5841C49.9555 10.7422 49.1783 10.9721 48.7465 11.2739C48.3147 11.5757 48.0988 11.9349 48.0988 12.3517C48.0988 12.6966 48.2068 12.9553 48.4227 13.1277C48.6529 13.2858 48.9552 13.3648 49.3294 13.3648ZM60.3254 15.8222C59.6634 15.8222 59.0589 15.6929 58.512 15.4342C57.9795 15.1756 57.5189 14.8091 57.1303 14.3349C56.7562 13.8463 56.461 13.2571 56.2452 12.5673C56.0437 11.8775 55.9429 11.0942 55.9429 10.2176C55.9429 9.34105 56.0653 8.55781 56.3099 7.86801C56.569 7.17821 56.9001 6.5962 57.303 6.12196C57.7204 5.63336 58.1954 5.25971 58.7279 5.00104C59.2748 4.74236 59.8289 4.61303 60.3902 4.61303C60.9947 4.61303 61.4912 4.71362 61.8798 4.91481C62.2684 5.11601 62.6499 5.38905 63.024 5.73395L62.8945 4.09568V0.45268H66.0681V15.5636H63.4774L63.2615 14.5073H63.1752C62.801 14.881 62.362 15.1971 61.8582 15.4558C61.3546 15.7001 60.8436 15.8222 60.3254 15.8222ZM61.1458 13.2355C61.4912 13.2355 61.8007 13.1636 62.0741 13.0199C62.362 12.8763 62.6354 12.6247 62.8945 12.2655V7.88957C62.6067 7.63089 62.3116 7.45122 62.0094 7.35066C61.7071 7.2501 61.4121 7.19977 61.1242 7.19977C60.6206 7.19977 60.1743 7.44411 59.7857 7.93268C59.3971 8.40692 59.2028 9.15416 59.2028 10.1745C59.2028 11.238 59.3684 12.014 59.6994 12.5026C60.0448 12.9912 60.527 13.2355 61.1458 13.2355ZM68.4481 15.5636V4.8717H71.0388L71.2547 6.74709H71.341C71.7296 6.01418 72.1973 5.47527 72.7443 5.13037C73.2911 4.78548 73.8381 4.61303 74.385 4.61303C74.6873 4.61303 74.9319 4.63458 75.1191 4.67769C75.3205 4.70644 75.5004 4.75673 75.6588 4.82859L75.1406 7.56623C74.9391 7.50878 74.752 7.46567 74.5793 7.43689C74.4066 7.40811 74.2051 7.39378 73.9748 7.39378C73.5718 7.39378 73.1472 7.53745 72.7011 7.8249C72.2693 8.11235 71.9094 8.62248 71.6217 9.35539V15.5636H68.4481ZM78.7053 15.8222C78.216 15.8222 77.7698 15.736 77.3668 15.5636C76.9782 15.4055 76.6472 15.1828 76.3737 14.8953C76.1003 14.5935 75.8844 14.2486 75.726 13.8606C75.5821 13.4726 75.5101 13.0487 75.5101 12.5888C75.5101 11.4679 75.9851 10.5913 76.935 9.95896C77.8849 9.32661 79.4177 8.90271 81.5334 8.68715C81.5047 8.21291 81.3607 7.83923 81.1016 7.56623C80.857 7.27877 80.4396 7.1351 79.8495 7.1351C79.389 7.1351 78.9284 7.22133 78.4678 7.39378C78.0217 7.56623 77.5395 7.80334 77.0213 8.10513L75.8771 6.01418C76.568 5.59742 77.2876 5.25971 78.036 5.00104C78.7989 4.74236 79.6049 4.61303 80.454 4.61303C81.8356 4.61303 82.8864 5.00823 83.6059 5.79862C84.3399 6.57464 84.707 7.78901 84.707 9.44161V15.5636H82.1163L81.9004 14.4642H81.8141C81.3536 14.8666 80.8714 15.1971 80.3676 15.4558C79.8639 15.7001 79.3098 15.8222 78.7053 15.8222ZM79.7847 13.3648C80.1446 13.3648 80.454 13.2858 80.713 13.1277C80.9721 12.9696 81.2456 12.7469 81.5334 12.4595V10.5841C80.4108 10.7422 79.6336 10.9721 79.2018 11.2739C78.77 11.5757 78.5541 11.9349 78.5541 12.3517C78.5541 12.6966 78.6621 12.9553 78.878 13.1277C79.1083 13.2858 79.4106 13.3648 79.7847 13.3648ZM90.7036 15.8222C90.0415 15.8222 89.473 15.7217 88.998 15.5205C88.5376 15.3192 88.1561 15.039 87.8538 14.6798C87.5661 14.3205 87.3502 13.8894 87.2062 13.3864C87.0767 12.869 87.0119 12.3014 87.0119 11.6835V7.35066H85.5438V5.00104L87.1846 4.8717L87.5516 2.02628H90.1854V4.8717H92.7545V7.35066H90.1854V11.6403C90.1854 12.2439 90.3078 12.6823 90.5524 12.9553C90.8115 13.214 91.1498 13.3433 91.5671 13.3433C91.7398 13.3433 91.9125 13.3217 92.0853 13.2786C92.2724 13.2355 92.4379 13.1852 92.5818 13.1277L93.0783 15.4342C92.7906 15.5205 92.4523 15.6067 92.0637 15.6929C91.6751 15.7791 91.2217 15.8222 90.7036 15.8222ZM94.4128 15.5636V4.8717H97.5864V15.5636H94.4128ZM95.9888 3.2981C95.4562 3.2981 95.0173 3.1472 94.6719 2.84542C94.3265 2.52926 94.1538 2.12687 94.1538 1.63827C94.1538 1.14967 94.3265 0.754467 94.6719 0.45268C95.0173 0.150893 95.4562 0 95.9888 0C96.5357 0 96.9747 0.150893 97.3057 0.45268C97.6512 0.754467 97.8239 1.14967 97.8239 1.63827C97.8239 2.12687 97.6512 2.52926 97.3057 2.84542C96.9747 3.1472 96.5357 3.2981 95.9888 3.2981ZM104.611 15.8222C103.862 15.8222 103.164 15.7001 102.517 15.4558C101.883 15.1971 101.329 14.8307 100.854 14.3564C100.379 13.8822 100.005 13.3002 99.7316 12.6104C99.4581 11.9062 99.3214 11.1087 99.3214 10.2176C99.3214 9.32661 99.4725 8.53625 99.7747 7.84646C100.077 7.14232 100.48 6.55308 100.984 6.07885C101.502 5.60461 102.099 5.24535 102.776 5.00104C103.452 4.74236 104.157 4.61303 104.891 4.61303C105.553 4.61303 106.136 4.72081 106.64 4.93637C107.158 5.15193 107.619 5.42497 108.022 5.7555L106.532 7.80334C106.028 7.38655 105.546 7.17821 105.086 7.17821C104.308 7.17821 103.697 7.45122 103.251 7.99735C102.804 8.54348 102.581 9.2835 102.581 10.2176C102.581 11.1518 102.804 11.8918 103.251 12.4379C103.711 12.9841 104.287 13.2571 104.978 13.2571C105.323 13.2571 105.654 13.1852 105.971 13.0415C106.302 12.8834 106.611 12.6966 106.899 12.481L108.151 14.5504C107.619 15.0103 107.043 15.3408 106.424 15.542C105.805 15.7288 105.201 15.8222 104.611 15.8222Z" fill="#5D576B"/>
<path d="M0 0.253662H6.85762V7.10092H0V0.253662Z" fill="#CB8999"/>
<path d="M14.5407 15.4697H7.61963V22H14.5407V15.4697Z" fill="#FFC800"/>
<path d="M6.85762 7.86182H0V14.7725H6.85762V7.86182Z" fill="#5D576B"/>
<path d="M14.5407 7.86182H7.61963V14.7725H14.5407V7.86182Z" fill="#6CD4FF"/>
<path d="M14.5407 0.253662H7.61963V7.10092H14.5407V0.253662Z" fill="#8ECB89"/>
<path d="M0 0.253662H6.85762V7.10092H0V0.253662Z" fill="#CB8999"/>
<path d="M14.5407 15.4697H7.61963V22H14.5407V15.4697Z" fill="#FFC800"/>
<path d="M6.85762 7.86182H0V14.7725H6.85762V7.86182Z" fill="#5D576B"/>
<path d="M14.5407 7.86182H7.61963V14.7725H14.5407V7.86182Z" fill="#6CD4FF"/>
<path d="M14.5407 0.253662H7.61963V7.10092H14.5407V0.253662Z" fill="#8ECB89"/>
</svg>
