<svg width="125" height="20" viewBox="0 0 125 20" fill="none" xmlns="http://www.w3.org/2000/svg">
<path d="M6.95156 19.5299V16.2749L7.08109 14.6367C6.72131 14.9816 6.3039 15.269 5.82894 15.4989C5.35399 15.7145 4.87191 15.8222 4.38249 15.8222C3.72047 15.8222 3.11599 15.6929 2.56903 15.4342C2.03655 15.1756 1.57598 14.8091 1.18738 14.3349C0.813174 13.8463 0.518131 13.2571 0.302243 12.5673C0.100744 11.8775 0 11.0942 0 10.2176C0 9.34105 0.122332 8.55781 0.367009 7.86801C0.626074 7.17821 0.957106 6.5962 1.36009 6.12196C1.77748 5.63336 2.25243 5.25971 2.78492 5.00104C3.33187 4.74236 3.88595 4.61303 4.44726 4.61303C5.03739 4.61303 5.55552 4.72081 6.00165 4.93637C6.44789 5.13756 6.87967 5.46809 7.29698 5.92795H7.38333L7.6424 4.8717H10.1251V19.5299H6.95156ZM5.20287 13.2355C5.54829 13.2355 5.85776 13.1636 6.13118 13.0199C6.41907 12.8763 6.69249 12.6247 6.95156 12.2655V7.88957C6.66378 7.63089 6.36866 7.45122 6.06642 7.35066C5.76417 7.2501 5.46916 7.19977 5.18128 7.19977C4.67761 7.19977 4.23137 7.44411 3.84277 7.93268C3.45417 8.40692 3.25988 9.15416 3.25988 10.1745C3.25988 11.238 3.42546 12.014 3.75642 12.5026C4.10184 12.9912 4.58402 13.2355 5.20287 13.2355ZM15.7219 15.8222C14.5561 15.8222 13.7069 15.4415 13.1744 14.6798C12.6563 13.9181 12.3972 12.8618 12.3972 11.511V4.8717H15.5708V11.1014C15.5708 11.8775 15.6787 12.4092 15.8946 12.6966C16.1105 12.9841 16.4487 13.1277 16.9093 13.1277C17.3122 13.1277 17.6504 13.0343 17.924 12.8475C18.1974 12.6607 18.4924 12.3589 18.8091 11.9421V4.8717H21.9826V15.5636H19.392L19.1545 14.0762H19.0897C18.6292 14.6223 18.1326 15.0534 17.6001 15.3696C17.082 15.6714 16.4559 15.8222 15.7219 15.8222ZM27.0422 15.8222C26.5528 15.8222 26.1066 15.736 25.7037 15.5636C25.3151 15.4055 24.984 15.1828 24.7106 14.8953C24.4371 14.5935 24.2212 14.2486 24.0629 13.8606C23.9189 13.4726 23.8471 13.0487 23.8471 12.5888C23.8471 11.4679 24.322 10.5913 25.2719 9.95896C26.2218 9.32661 27.7546 8.90271 29.8703 8.68715C29.8415 8.21291 29.6976 7.83923 29.4386 7.56623C29.1938 7.27877 28.7764 7.1351 28.1864 7.1351C27.7258 7.1351 27.2652 7.22133 26.8047 7.39378C26.3585 7.56623 25.8764 7.80334 25.3583 8.10513L24.2141 6.01418C24.9049 5.59742 25.6245 5.25971 26.3729 5.00104C27.1357 4.74236 27.9417 4.61303 28.7909 4.61303C30.1726 4.61303 31.2232 5.00823 31.9429 5.79862C32.6769 6.57464 33.0439 7.78901 33.0439 9.44161V15.5636H30.4532L30.2373 14.4642H30.151C29.6904 14.8666 29.2082 15.1971 28.7045 15.4558C28.2008 15.7001 27.6467 15.8222 27.0422 15.8222ZM28.1216 13.3648C28.4814 13.3648 28.7909 13.2858 29.05 13.1277C29.309 12.9696 29.5824 12.7469 29.8703 12.4595V10.5841C28.7477 10.7422 27.9705 10.9721 27.5387 11.2739C27.107 11.5757 26.8911 11.9349 26.8911 12.3517C26.8911 12.6966 26.999 12.9553 27.2149 13.1277C27.4452 13.2858 27.7474 13.3648 28.1216 13.3648ZM39.1177 15.8222C38.4557 15.8222 37.8512 15.6929 37.3042 15.4342C36.7717 15.1756 36.3111 14.8091 35.9225 14.3349C35.5484 13.8463 35.2533 13.2571 35.0374 12.5673C34.836 11.8775 34.7351 11.0942 34.7351 10.2176C34.7351 9.34105 34.8576 8.55781 35.1022 7.86801C35.3612 7.17821 35.6923 6.5962 36.0952 6.12196C36.5127 5.63336 36.9876 5.25971 37.5201 5.00104C38.0671 4.74236 38.6211 4.61303 39.1824 4.61303C39.7869 4.61303 40.2835 4.71362 40.6721 4.91481C41.0607 5.11601 41.4421 5.38905 41.8163 5.73395L41.6867 4.09568V0.45268H44.8603V15.5636H42.2696L42.0537 14.5073H41.9674C41.5933 14.881 41.1543 15.1971 40.6505 15.4558C40.1468 15.7001 39.6358 15.8222 39.1177 15.8222ZM39.938 13.2355C40.2835 13.2355 40.5929 13.1636 40.8664 13.0199C41.1543 12.8763 41.4277 12.6247 41.6867 12.2655V7.88957C41.399 7.63089 41.1038 7.45122 40.8016 7.35066C40.4994 7.2501 40.2043 7.19977 39.9165 7.19977C39.4128 7.19977 38.9665 7.44411 38.578 7.93268C38.1894 8.40692 37.9951 9.15416 37.9951 10.1745C37.9951 11.238 38.1606 12.014 38.4916 12.5026C38.837 12.9912 39.3192 13.2355 39.938 13.2355ZM47.2403 15.5636V4.8717H49.831L50.0469 6.74709H50.1332C50.5218 6.01418 50.9896 5.47527 51.5365 5.13037C52.0834 4.78548 52.6303 4.61303 53.1773 4.61303C53.4795 4.61303 53.7241 4.63458 53.9113 4.67769C54.1127 4.70644 54.2927 4.75673 54.451 4.82859L53.9329 7.56623C53.7313 7.50878 53.5443 7.46567 53.3716 7.43689C53.1989 7.40811 52.9973 7.39378 52.7671 7.39378C52.364 7.39378 51.9395 7.53745 51.4933 7.8249C51.0616 8.11235 50.7017 8.62248 50.4139 9.35539V15.5636H47.2403ZM57.4975 15.8222C57.0082 15.8222 56.5621 15.736 56.159 15.5636C55.7704 15.4055 55.4394 15.1828 55.1659 14.8953C54.8925 14.5935 54.6766 14.2486 54.5183 13.8606C54.3744 13.4726 54.3024 13.0487 54.3024 12.5888C54.3024 11.4679 54.7773 10.5913 55.7272 9.95896C56.6771 9.32661 58.2099 8.90271 60.3256 8.68715C60.2969 8.21291 60.1529 7.83923 59.8939 7.56623C59.6493 7.27877 59.2318 7.1351 58.6417 7.1351C58.1812 7.1351 57.7206 7.22133 57.26 7.39378C56.8139 7.56623 56.3317 7.80334 55.8136 8.10513L54.6694 6.01418C55.3602 5.59742 56.0799 5.25971 56.8283 5.00104C57.5911 4.74236 58.3971 4.61303 59.2462 4.61303C60.6279 4.61303 61.6786 5.00823 62.3982 5.79862C63.1322 6.57464 63.4992 7.78901 63.4992 9.44161V15.5636H60.9085L60.6927 14.4642H60.6063C60.1458 14.8666 59.6636 15.1971 59.1598 15.4558C58.6562 15.7001 58.102 15.8222 57.4975 15.8222ZM58.5769 13.3648C58.9368 13.3648 59.2462 13.2858 59.5053 13.1277C59.7643 12.9696 60.0379 12.7469 60.3256 12.4595V10.5841C59.203 10.7422 58.4258 10.9721 57.994 11.2739C57.5623 11.5757 57.3464 11.9349 57.3464 12.3517C57.3464 12.6966 57.4543 12.9553 57.6702 13.1277C57.9006 13.2858 58.2028 13.3648 58.5769 13.3648ZM69.4958 15.8222C68.8338 15.8222 68.2652 15.7217 67.7903 15.5205C67.3298 15.3192 66.9483 15.039 66.6461 14.6798C66.3583 14.3205 66.1424 13.8894 65.9984 13.3864C65.8689 12.869 65.8041 12.3014 65.8041 11.6835V7.35066H64.3361V5.00104L65.9768 4.8717L66.3438 2.02628H68.9777V4.8717H71.5467V7.35066H68.9777V11.6403C68.9777 12.2439 69.1001 12.6823 69.3447 12.9553C69.6037 13.214 69.942 13.3433 70.3594 13.3433C70.5321 13.3433 70.7048 13.3217 70.8775 13.2786C71.0647 13.2355 71.2301 13.1852 71.374 13.1277L71.8706 15.4342C71.5828 15.5205 71.2445 15.6067 70.8559 15.6929C70.4673 15.7791 70.0139 15.8222 69.4958 15.8222ZM73.2051 15.5636V4.8717H76.3786V15.5636H73.2051ZM74.7811 3.2981C74.2485 3.2981 73.8096 3.1472 73.4641 2.84542C73.1187 2.52926 72.946 2.12687 72.946 1.63827C72.946 1.14967 73.1187 0.754467 73.4641 0.45268C73.8096 0.150893 74.2485 0 74.7811 0C75.3279 0 75.7669 0.150893 76.098 0.45268C76.4434 0.754467 76.6161 1.14967 76.6161 1.63827C76.6161 2.12687 76.4434 2.52926 76.098 2.84542C75.7669 3.1472 75.3279 3.2981 74.7811 3.2981ZM83.4029 15.8222C82.6545 15.8222 81.9564 15.7001 81.3088 15.4558C80.6756 15.1971 80.1214 14.8307 79.6464 14.3564C79.1715 13.8822 78.7973 13.3002 78.5238 12.6104C78.2504 11.9062 78.1136 11.1087 78.1136 10.2176C78.1136 9.32661 78.2647 8.53625 78.567 7.84646C78.8692 7.14232 79.2723 6.55308 79.776 6.07885C80.2941 5.60461 80.8914 5.24535 81.5678 5.00104C82.2443 4.74236 82.9495 4.61303 83.6835 4.61303C84.3457 4.61303 84.9286 4.72081 85.4322 4.93637C85.9504 5.15193 86.4109 5.42497 86.8139 5.7555L85.3243 7.80334C84.8206 7.38655 84.3384 7.17821 83.8778 7.17821C83.1006 7.17821 82.489 7.45122 82.0428 7.99735C81.5966 8.54348 81.3735 9.2835 81.3735 10.2176C81.3735 11.1518 81.5966 11.8918 82.0428 12.4379C82.5034 12.9841 83.079 13.2571 83.7699 13.2571C84.1153 13.2571 84.4464 13.1852 84.763 13.0415C85.094 12.8834 85.4035 12.6966 85.6913 12.481L86.9434 14.5504C86.4109 15.0103 85.8353 15.3408 85.2163 15.542C84.5975 15.7288 83.993 15.8222 83.4029 15.8222Z" fill="#5D576B"/>
<rect x="94.4634" y="4.17871" width="30.0015" height="12.5006" rx="4" transform="rotate(-2 94.4634 4.17871)" fill="#5D576B"/>
<path d="M118.843 13.1256L118.39 11.6387H116.113L115.66 13.1256H114.233L116.437 6.85327H118.057L120.27 13.1256H118.843ZM118.074 10.5278L117.621 9.07506C117.593 8.97822 117.554 8.85431 117.506 8.70334C117.46 8.54952 117.413 8.39428 117.365 8.23762C117.319 8.07811 117.282 7.93996 117.254 7.82317C117.225 7.93996 117.185 8.08523 117.134 8.25898C117.086 8.42989 117.039 8.59225 116.993 8.74607C116.947 8.89988 116.915 9.00955 116.895 9.07506L116.446 10.5278H118.074Z" fill="white"/>
<path d="M112.361 13.1256H111.037V7.98126H109.341V6.87891H114.058V7.98126H112.361V13.1256Z" fill="white"/>
<path d="M108.644 13.1256H105.047V6.87891H108.644V7.96417H106.371V9.3357H108.486V10.421H106.371V12.0318H108.644V13.1256Z" fill="white"/>
<path d="M99.1674 6.87891H101.111C101.943 6.87891 102.573 6.99569 103 7.22927C103.427 7.46284 103.641 7.87302 103.641 8.4598C103.641 8.69622 103.602 8.90985 103.525 9.1007C103.451 9.29154 103.343 9.44821 103.201 9.57069C103.058 9.69318 102.885 9.77293 102.679 9.80996V9.85269C102.887 9.89542 103.075 9.96948 103.243 10.0749C103.412 10.1774 103.545 10.3284 103.645 10.5278C103.748 10.7243 103.799 10.9864 103.799 11.3139C103.799 11.6928 103.706 12.0175 103.521 12.2881C103.336 12.5587 103.071 12.7667 102.726 12.9119C102.385 13.0543 101.977 13.1256 101.505 13.1256H99.1674V6.87891ZM100.492 9.35279H101.261C101.646 9.35279 101.912 9.29297 102.06 9.17333C102.208 9.05085 102.282 8.8714 102.282 8.63498C102.282 8.39571 102.194 8.2248 102.017 8.12226C101.843 8.01686 101.567 7.96417 101.188 7.96417H100.492V9.35279ZM100.492 10.4039V12.0318H101.355C101.754 12.0318 102.031 11.9548 102.188 11.801C102.345 11.6472 102.423 11.4407 102.423 11.1815C102.423 11.0277 102.389 10.8924 102.321 10.7756C102.252 10.6588 102.137 10.5677 101.975 10.5021C101.815 10.4366 101.594 10.4039 101.312 10.4039H100.492Z" fill="white"/>
</svg>
