<svg width="15" height="22" viewBox="0 0 15 22" fill="none" xmlns="http://www.w3.org/2000/svg">
<path d="M0 0.253662H6.85762V7.10092H0V0.253662Z" fill="#CB8999"/>
<path d="M14.5407 15.4697H7.61957V22H14.5407V15.4697Z" fill="#FFC800"/>
<path d="M6.85762 7.86182H0V14.7725H6.85762V7.86182Z" fill="#5D576B"/>
<path d="M14.5407 7.86182H7.61957V14.7725H14.5407V7.86182Z" fill="#6CD4FF"/>
<path d="M14.5407 0.253662H7.61957V7.10092H14.5407V0.253662Z" fill="#8ECB89"/>
<path d="M0 0.253662H6.85762V7.10092H0V0.253662Z" fill="#CB8999"/>
<path d="M14.5407 15.4697H7.61957V22H14.5407V15.4697Z" fill="#FFC800"/>
<path d="M6.85762 7.86182H0V14.7725H6.85762V7.86182Z" fill="#5D576B"/>
<path d="M14.5407 7.86182H7.61957V14.7725H14.5407V7.86182Z" fill="#6CD4FF"/>
<path d="M14.5407 0.253662H7.61957V7.10092H14.5407V0.253662Z" fill="#8ECB89"/>
</svg>
