<svg width="160" height="40" viewBox="0 0 160 40" fill="none" xmlns="http://www.w3.org/2000/svg">
<path d="M51.6351 0.533325H43.9418V39H51.6351V0.533325Z" fill="#2E73B8"/>
<path d="M43.9419 0.533325L38.5941 3.44178V36.1854L43.9419 39V0.533325Z" fill="#215C99"/>
<path d="M51.7289 0.533325V39L57.0767 36.1854V3.44178L51.7289 0.533325Z" fill="#5294CF"/>
<path d="M62.4246 5.88116L65.4268 7.47612V32.0573L62.4246 33.6522V5.88116Z" fill="#5294CF"/>
<path d="M62.4245 33.6522L57.0767 32.0573V7.47612L62.4245 5.88116V33.6522Z" fill="#215C99"/>
<path d="M30.2439 7.47612V32.0573L33.2462 33.6522V5.88116L30.2439 7.47612Z" fill="#215C99"/>
<path d="M33.2462 5.88116L38.594 7.47612V32.0573L33.2462 33.6522V5.88116Z" fill="#5294CF"/>
<path d="M105.079 10.6575V9.43779C105.079 9.25014 105.267 9.0625 105.454 9.0625H111.177C111.365 9.0625 111.553 9.15632 111.553 9.43779V10.4698C111.553 10.6575 111.365 10.9389 111.084 11.3142L108.175 15.5362C109.207 15.5362 110.427 15.7238 111.365 16.2867C111.553 16.3805 111.647 16.662 111.647 16.8497V18.1632C111.647 18.3508 111.459 18.5384 111.177 18.4446C109.395 17.5064 107.049 17.5064 105.173 18.4446C104.985 18.5384 104.704 18.3508 104.704 18.1632V16.9435C104.704 16.7558 104.704 16.3806 104.891 16.0053L108.269 11.1266H105.36C105.267 11.0327 105.079 10.8451 105.079 10.6575Z" fill="#211C1C"/>
<path d="M84.2508 18.6323H82.562C82.3743 18.6323 82.2805 18.4446 82.2805 18.3508V9.43781C82.2805 9.25016 82.4682 9.06252 82.6558 9.06252H84.2508C84.4384 9.06252 84.5322 9.25016 84.626 9.34398V10.4698C85.0952 9.34398 85.8457 8.87488 86.8778 8.87488C87.9098 8.87488 88.6604 9.43781 89.1295 10.4698C89.5986 9.34398 90.443 8.87488 91.5688 8.87488C92.3194 8.87488 93.07 9.15634 93.5391 9.81309C94.102 10.5637 94.0082 11.5957 94.0082 12.6277V18.257C94.0082 18.4446 93.8205 18.6323 93.6329 18.6323H91.9441C91.7565 18.6323 91.5688 18.4446 91.5688 18.257V13.4721C91.5688 13.0968 91.5688 12.1586 91.475 11.7833C91.3812 11.1266 90.9121 10.9389 90.5368 10.9389C90.1615 10.9389 89.5986 11.2204 89.5047 11.6895C89.4109 12.1586 89.3171 12.8154 89.3171 13.3783V18.1632C89.3171 18.3508 89.1295 18.5385 88.9418 18.5385H87.253C87.0654 18.5385 86.8778 18.3508 86.8778 18.1632V13.3783C86.8778 12.4401 87.0654 10.9389 85.8457 10.9389C84.626 10.9389 84.7199 12.3463 84.7199 13.3783V18.1632C84.626 18.4446 84.4384 18.6323 84.2508 18.6323Z" fill="#211C1C"/>
<path d="M116.431 10.7513C115.212 10.7513 115.118 12.4401 115.118 13.6598C115.118 14.6918 115.118 17.0373 116.431 17.0373C117.745 17.0373 117.839 15.1609 117.839 14.035C117.839 13.2845 117.839 12.4401 117.557 11.6895C117.37 10.9389 116.994 10.7513 116.431 10.7513ZM116.338 8.87488C118.965 8.87488 120.278 11.1266 120.278 13.8474C120.278 16.5682 118.777 18.7261 116.338 18.7261C113.804 18.7261 112.397 16.4744 112.397 13.7536C112.491 11.1266 113.804 8.87488 116.338 8.87488Z" fill="#211C1C"/>
<path d="M123.656 18.6323H121.967C121.779 18.6323 121.592 18.4446 121.592 18.257V9.34398C121.592 9.15634 121.779 9.06252 121.967 9.06252H123.562C123.749 9.06252 123.843 9.15634 123.843 9.34398V10.6575C124.312 9.43781 124.969 8.87488 126.189 8.87488C127.033 8.87488 127.69 9.15634 128.253 9.90691C128.722 10.6575 128.722 11.7833 128.722 12.7215V18.3508C128.722 18.5385 128.534 18.6323 128.347 18.6323H126.658C126.47 18.6323 126.376 18.5385 126.376 18.3508V13.4721C126.376 12.5339 126.47 11.0328 125.344 11.0328C124.875 11.0328 124.5 11.3142 124.312 11.7833C124.031 12.3463 124.031 12.8154 124.031 13.4721V18.3508C124.031 18.4446 123.843 18.6323 123.656 18.6323Z" fill="#211C1C"/>
<path d="M100.2 16.1929C99.9189 16.662 99.4498 17.0373 99.0745 17.0373C98.4178 17.0373 98.0425 16.4744 98.0425 15.8177C98.0425 14.3165 99.356 14.035 100.669 14.035V14.4103C100.576 15.0671 100.576 15.5362 100.2 16.1929ZM103.672 17.0373C103.296 16.5682 103.015 16.1929 103.015 15.4424V12.7216C103.015 11.5957 103.109 10.4698 102.171 9.71928C101.514 9.06253 100.388 8.78107 99.5436 8.78107C97.9486 8.78107 96.0722 9.43781 95.6969 11.5019C95.6969 11.6895 95.7908 11.8772 95.9784 11.8772L97.6672 12.0648C97.8548 12.0648 97.9486 11.8772 97.9486 11.6895C98.1363 10.939 98.6992 10.6575 99.356 10.6575C99.7312 10.6575 100.2 10.7513 100.294 11.1266C100.576 11.5019 100.482 11.971 100.482 12.3463V12.5339C99.4498 12.6277 98.1363 12.7216 97.1981 13.1907C96.166 13.6598 95.3217 14.598 95.3217 16.0991C95.3217 17.8817 96.4475 18.8199 97.9486 18.8199C99.1683 18.8199 99.8251 18.5385 100.857 17.6003C101.232 18.0694 101.326 18.3508 101.795 18.7261C101.889 18.8199 102.077 18.8199 102.264 18.7261C102.64 18.4446 103.203 17.7879 103.578 17.6003C103.766 17.4126 103.766 17.1311 103.672 17.0373Z" fill="#211C1C"/>
<path d="M77.4956 16.1929C77.2142 16.662 76.7451 17.0373 76.276 17.0373C75.6192 17.0373 75.2439 16.4744 75.2439 15.8177C75.2439 14.3165 76.5574 14.035 77.8709 14.035V14.4103C77.7771 15.0671 77.8709 15.5362 77.4956 16.1929ZM80.2165 15.4424V12.7216C80.2165 11.5957 80.3103 10.4698 79.3721 9.71928C78.6215 9.06253 77.5895 8.78107 76.7451 8.78107C75.1501 8.78107 73.2737 9.43781 72.8984 11.5019C72.8984 11.6895 72.9922 11.8772 73.1799 11.8772L74.8687 12.0648C75.0563 12.0648 75.1501 11.8772 75.1501 11.6895C75.3378 10.939 75.9007 10.6575 76.5574 10.6575C76.9327 10.6575 77.4018 10.7513 77.5895 11.1266C77.8709 11.5019 77.7771 11.971 77.7771 12.3463V12.5339C76.8389 12.6277 75.4316 12.7216 74.4934 13.1907C73.4613 13.6598 72.6169 14.598 72.6169 16.0991C72.6169 17.8817 73.7428 18.8199 75.2439 18.8199C76.4636 18.8199 77.1204 18.5385 78.1524 17.6003C78.5277 18.0694 78.6215 18.3508 79.1844 18.7261C79.2782 18.8199 79.4659 18.8199 79.6535 18.7261C80.0288 18.4446 80.5917 17.7879 80.967 17.6003C81.1547 17.5064 81.0608 17.3188 80.967 17.1311C80.4979 16.5682 80.2165 16.1929 80.2165 15.4424Z" fill="#211C1C"/>
<path d="M73.7428 26.2318H74.7748C75.9007 26.2318 76.6513 25.575 76.6513 24.6368C76.6513 23.6048 75.8069 23.1357 74.681 23.0418C74.1181 23.0418 73.7428 23.1357 73.649 23.1357L73.7428 26.2318ZM72.6169 22.3851C73.1799 22.2913 73.9304 22.1974 74.681 22.1974C75.8069 22.1974 76.5574 22.3851 77.1204 22.948C77.5895 23.3233 77.7771 23.8862 77.7771 24.543C77.7771 25.575 77.0265 26.4194 76.1821 26.7009C76.8389 26.9823 77.2142 27.5453 77.4018 28.3896C77.6833 29.5155 77.8709 30.3599 78.0586 30.7352H76.9327C76.7451 30.4537 76.5574 29.797 76.3698 28.6711C76.0883 27.5453 75.6192 27.0761 74.681 27.0761H73.649V30.7352H72.6169V22.3851Z" fill="#211C1C"/>
<path d="M84.6601 26.8033H81.3764V29.8056H85.0354V30.7438H80.2505V22.2999H84.8478V23.2381H81.3764V25.8651H84.6601V26.8033Z" fill="#211C1C"/>
<path d="M88.4472 29.9078C88.7286 30.0016 89.1977 30.0016 89.4792 30.0016C91.8247 30.0016 93.0444 28.6881 93.0444 26.4364C93.0444 24.4662 92.0124 23.2465 89.6668 23.2465C89.1039 23.2465 88.7286 23.3403 88.4472 23.3403V29.9078ZM87.3213 22.4021C87.978 22.3083 88.7286 22.2145 89.6668 22.2145C91.2618 22.2145 92.3876 22.5898 93.0444 23.2465C93.795 23.9971 94.1702 24.9353 94.1702 26.2488C94.1702 27.5623 93.7011 28.782 92.9506 29.5325C92.1062 30.3769 90.8865 30.7522 89.1977 30.7522C88.3533 30.7522 87.7904 30.7522 87.2275 30.6584L87.3213 22.4021Z" fill="#211C1C"/>
<path d="M96.3281 29.4388C96.7972 29.7202 97.454 30.0017 98.2984 30.0017C99.3304 30.0017 100.081 29.345 100.081 28.5944C100.081 27.8438 99.6119 27.3747 98.486 26.9056C97.1725 26.4365 96.2343 25.7798 96.2343 24.4663C96.2343 23.1528 97.2663 22.1207 99.0489 22.1207C99.9872 22.1207 100.55 22.3084 100.925 22.5898L100.644 23.528C100.362 23.3404 99.7995 23.1528 99.0489 23.1528C97.9231 23.1528 97.454 23.9033 97.454 24.3724C97.454 25.2168 98.0169 25.4983 99.1428 25.9674C100.55 26.5303 101.301 27.1871 101.301 28.5006C101.301 29.8141 100.362 30.9399 98.3922 30.9399C97.5478 30.9399 96.7034 30.6585 96.2343 30.377L96.3281 29.4388Z" fill="#211C1C"/>
<path d="M104.738 22.2999V25.8651H108.866V22.2999H109.898V30.7438H108.866V26.8033H104.738V30.7438H103.612V22.2999H104.738Z" fill="#211C1C"/>
<path d="M113.745 22.2999H112.713V30.7438H113.745V22.2999Z" fill="#211C1C"/>
<path d="M116.559 22.2999H121.063V23.2381H117.591V26.0527H120.781V26.9909H117.591V30.7438H116.559V22.2999Z" fill="#211C1C"/>
<path d="M122.564 22.2999V23.2381H125.097V30.7438H126.223V23.2381H128.756V22.2999H122.564Z" fill="#211C1C"/>
</svg>
