<svg width="160" height="40" viewBox="0 0 160 40" fill="none" xmlns="http://www.w3.org/2000/svg">
<g clip-path="url(#clip0_1011_949)">
<path d="M72.1067 22.4003H80.2134L75.9201 15.4669L68.0267 27.9736H64.4534L74.0534 12.9602C74.7734 11.9202 76.2134 11.6802 77.2267 12.4002C77.4401 12.5602 77.6267 12.7202 77.7867 12.9336L87.4134 27.9736H83.8401L82.1601 25.1736H73.9467L72.1067 22.4003ZM109.387 25.2003V12.1602H106.347V26.4803C106.347 26.8803 106.507 27.2803 106.8 27.5469C107.093 27.8403 107.493 28.0003 107.92 28.0003H121.76L123.573 25.2003H109.387ZM59.0134 22.8536C61.9734 22.8536 64.3734 20.4536 64.3734 17.4936C64.3734 14.5336 61.9734 12.1336 59.0134 12.1336H45.7067V27.9736H48.72V14.9603H58.8C60.2134 14.9603 61.36 16.1069 61.36 17.5203C61.36 18.9336 60.2134 20.0803 58.8 20.0803H50.2134L59.3067 27.9736H63.7334L57.6267 22.8536H59.0134ZM26.9867 27.9736H36.1867C40.56 27.8669 44 24.2136 43.8934 19.8669C43.7867 15.6536 40.3734 12.2669 36.1867 12.1602H26.9867C22.6133 12.0536 18.96 15.4936 18.8533 19.8669C18.7467 24.2403 22.1867 27.8669 26.56 27.9736C26.6933 28.0003 26.8267 28.0003 26.9867 27.9736ZM35.9734 25.2003H27.1733C24.3467 25.1203 22.1333 22.7469 22.2133 19.9203C22.2933 17.2269 24.48 15.0403 27.1733 14.9603H35.9734C38.8 14.8803 41.1734 17.0936 41.2534 19.9203C41.3334 22.7469 39.12 25.1203 36.2934 25.2003C36.1867 25.2003 36.08 25.2003 35.9734 25.2003ZM93.7601 27.9736H103.147L104.933 25.2003H93.9734C91.1467 25.2803 88.7734 23.0669 88.6934 20.2403C88.6134 17.4136 90.8267 15.0403 93.6534 14.9603C93.7601 14.9603 93.8667 14.9603 93.9734 14.9603H102.907L104.72 12.1602H93.7867C89.4134 12.0536 85.7867 15.4936 85.6801 19.8669C85.5734 24.2403 89.0134 27.8669 93.3867 27.9736C93.4934 28.0003 93.6267 28.0003 93.7601 27.9736ZM130.987 25.2003C128.693 25.2003 126.667 23.6803 126.053 21.4669H139.067L140.853 18.6669H126.053C126.667 16.4536 128.693 14.9336 130.987 14.9336H139.92L141.707 12.1336H130.773C126.4 12.2669 122.96 15.8936 123.067 20.2669C123.173 24.4803 126.56 27.8669 130.773 27.9736H140.16L141.947 25.2003H130.987Z" fill="#C74634"/>
</g>
<defs>
<clipPath id="clip0_1011_949">
<rect width="123.093" height="16" fill="white" transform="translate(18.8533 12)"/>
</clipPath>
</defs>
</svg>
