<svg width="160" height="40" viewBox="0 0 160 40" fill="none" xmlns="http://www.w3.org/2000/svg">
<path fill-rule="evenodd" clip-rule="evenodd" d="M115 20.3861C115 15.4084 112.589 11.4806 107.981 11.4806C103.353 11.4806 100.553 15.4084 100.553 20.3473C100.553 26.2 103.858 29.1556 108.603 29.1556C110.917 29.1556 112.667 28.6306 113.989 27.8917V24.0028C112.667 24.6639 111.15 25.0723 109.225 25.0723C107.339 25.0723 105.667 24.4111 105.453 22.1167H114.961C114.961 21.8639 115 20.8528 115 20.3861ZM105.394 18.5389C105.394 16.3417 106.736 15.4278 107.961 15.4278C109.147 15.4278 110.411 16.3417 110.411 18.5389H105.394Z" fill="#635BFF"/>
<path fill-rule="evenodd" clip-rule="evenodd" d="M93.0472 11.4806C91.1417 11.4806 89.9167 12.375 89.2361 12.9973L88.9833 11.7917H84.7056V34.4639L89.5667 33.4334L89.5861 27.9306C90.2861 28.4361 91.3167 29.1556 93.0278 29.1556C96.5083 29.1556 99.6778 26.3556 99.6778 20.1917C99.6583 14.5528 96.45 11.4806 93.0472 11.4806ZM91.8806 24.8778C90.7333 24.8778 90.0528 24.4695 89.5861 23.9639L89.5667 16.75C90.0722 16.1861 90.7722 15.7973 91.8806 15.7973C93.65 15.7973 94.875 17.7806 94.875 20.3278C94.875 22.9334 93.6695 24.8778 91.8806 24.8778Z" fill="#635BFF"/>
<path fill-rule="evenodd" clip-rule="evenodd" d="M78.0167 10.3333L82.8972 9.28328V5.33606L78.0167 6.36661V10.3333Z" fill="#635BFF"/>
<path d="M82.8972 11.8111H78.0167V28.825H82.8972V11.8111Z" fill="#635BFF"/>
<path fill-rule="evenodd" clip-rule="evenodd" d="M72.7861 13.25L72.475 11.8111H68.275V28.825H73.1361V17.2944C74.2834 15.7972 76.2278 16.0694 76.8306 16.2833V11.8111C76.2084 11.5778 73.9334 11.15 72.7861 13.25Z" fill="#635BFF"/>
<path fill-rule="evenodd" clip-rule="evenodd" d="M63.0639 7.59167L58.3194 8.60279L58.3 24.1778C58.3 27.0556 60.4583 29.175 63.3361 29.175C64.9305 29.175 66.0972 28.8833 66.7389 28.5333V24.5861C66.1167 24.8389 63.0444 25.7333 63.0444 22.8556V15.9528H66.7389V11.8111H63.0444L63.0639 7.59167Z" fill="#635BFF"/>
<path fill-rule="evenodd" clip-rule="evenodd" d="M49.9194 16.75C49.9194 15.9917 50.5417 15.7 51.5722 15.7C53.05 15.7 54.9167 16.1473 56.3944 16.9445V12.375C54.7806 11.7334 53.1861 11.4806 51.5722 11.4806C47.625 11.4806 45 13.5417 45 16.9834C45 22.35 52.3889 21.4945 52.3889 23.8084C52.3889 24.7028 51.6111 24.9945 50.5222 24.9945C48.9083 24.9945 46.8472 24.3334 45.2139 23.4389V28.0667C47.0222 28.8445 48.85 29.175 50.5222 29.175C54.5667 29.175 57.3472 27.1723 57.3472 23.6917C57.3278 17.8973 49.9194 18.9278 49.9194 16.75Z" fill="#635BFF"/>
</svg>
