<svg width="160" height="40" viewBox="0 0 160 40" fill="none" xmlns="http://www.w3.org/2000/svg">
<mask id="mask0_1011_60" style="mask-type:luminance" maskUnits="userSpaceOnUse" x="32" y="0" width="96" height="40">
<path d="M127.184 0H32.8159V39.4074H127.184V0Z" fill="white"/>
</mask>
<g mask="url(#mask0_1011_60)">
<path d="M77.2562 24.808C77.2562 23.7632 76.88 23.0386 75.7097 23.0386C74.6787 23.0386 74.0658 23.596 74.0658 24.6548C74.0658 27.4552 78.7678 25.7833 78.7678 29.4196C78.7678 31.7184 77.0821 32.3802 75.6749 32.3802C73.3483 32.3802 72.6655 31.1821 72.6655 29.0714H73.8846C73.8846 30.1859 73.9543 31.384 75.7515 31.384C75.9829 31.3916 76.2131 31.351 76.428 31.2651C76.6428 31.1791 76.8375 31.0496 76.9999 30.8847C77.1622 30.7198 77.2885 30.5231 77.371 30.3068C77.4535 30.0907 77.4903 29.8597 77.4791 29.6286C77.4791 26.8142 72.777 28.4443 72.777 24.7941C72.777 23.8745 73.1671 22.0494 75.6888 22.0494C77.5837 22.0494 78.4475 22.9969 78.4753 24.822L77.2562 24.808Z" fill="#201C1D"/>
<path d="M82.0489 26.6192H82.662C83.7068 26.6192 84.1667 25.867 84.1667 24.8777C84.1667 23.9722 83.8323 23.2338 82.8848 23.2338C81.5891 23.2338 81.4638 24.432 81.4638 25.1495H80.2447C80.2447 23.4636 81.0388 22.3073 82.857 22.3073C84.9189 22.3073 85.3927 23.7701 85.3927 24.8708C85.3927 25.8599 84.8911 26.7377 83.8601 26.9885V27.0164C84.9746 27.2392 85.6852 27.9498 85.6852 29.3152C85.6852 31.1124 84.7796 32.3663 82.8848 32.3663C80.2376 32.3663 80.0844 30.0536 80.0844 29.6217V29.4962H81.3035C81.3035 30.4018 81.7494 31.4468 82.871 31.4468C83.5954 31.4468 84.4383 31.0846 84.4383 29.4127C84.4383 28.2564 83.881 27.5318 82.655 27.5318H82.028L82.0489 26.6192Z" fill="#201C1D"/>
<path d="M43.1363 2.9797C45.1286 1.98528 47.114 0.978685 49.1133 -6.10352e-05C49.1306 3.30884 49.1133 6.63167 49.1133 9.94755C47.1662 10.3794 45.2436 10.9228 43.2965 11.353L43.5647 11.5271L43.1572 11.4801C43.1119 10.5553 43.1572 9.62885 43.1328 8.70409C43.1328 6.79189 43.1363 4.88493 43.1363 2.9797Z" fill="#8C3223"/>
<path d="M49.1131 -6.10352e-05C51.1067 0.998408 53.1013 1.99516 55.097 2.99014V8.69714C55.0866 9.58182 55.097 10.4683 55.097 11.353L54.9682 11.3878C53.0228 10.8984 51.0793 10.3951 49.1237 9.94755C49.1114 6.63167 49.1306 3.30884 49.1131 -6.10352e-05Z" fill="#E15343"/>
<path d="M32.8159 8.13459C33.7006 7.7027 34.5731 7.24294 35.4648 6.82147C35.4578 15.3863 35.4578 23.9512 35.4648 32.5161C34.5731 32.1067 33.7076 31.6452 32.8229 31.2133C32.8182 23.5239 32.8159 15.831 32.8159 8.13459Z" fill="#8C3223"/>
<path d="M35.4648 6.82147C38.0162 7.47455 40.5849 8.05449 43.138 8.70756C43.1554 9.63231 43.1171 10.5588 43.1624 11.4836L43.5699 11.5306C45.4194 11.8301 47.2497 12.2272 49.101 12.5076C49.1218 13.2547 49.1184 14.0001 49.101 14.7472C47.1191 14.9771 45.1286 15.2192 43.1415 15.4996C43.1415 18.3017 43.1519 21.1055 43.1415 23.9076C45.1233 24.2159 47.1191 24.4301 49.108 24.6808C49.1481 25.4175 49.1218 26.156 49.1201 26.8944C47.1244 27.2305 45.1355 27.6048 43.1484 27.9845V30.6473C40.5814 31.2864 38.0162 31.8699 35.4596 32.5142C35.4689 23.9506 35.4706 15.3863 35.4648 6.82147Z" fill="#E15343"/>
<path d="M55.0936 8.69713C57.6536 8.06147 60.219 7.44845 62.7825 6.8302C62.7733 15.1489 62.7733 23.4676 62.7825 31.7863C62.7825 32.0232 62.7582 32.26 62.7372 32.4969C60.1876 31.8925 57.6433 31.2778 55.0955 30.6526C55.0849 29.7645 55.0955 28.8744 55.0955 27.9845C53.1048 27.6048 51.1108 27.2305 49.1116 26.8908C49.1116 26.1525 49.1394 25.4141 49.0993 24.6774C47.1105 24.4319 45.1147 24.2125 43.1328 23.9042C43.152 21.1021 43.1328 18.2981 43.1328 15.496C45.1286 15.2192 47.1192 14.9771 49.1097 14.7385C49.1185 13.9914 49.122 13.246 49.1097 12.4989C50.7833 12.2603 52.4377 11.8859 54.1114 11.6281C54.4058 11.5801 54.6942 11.5007 54.9717 11.3913L55.1007 11.3564C55.0884 10.4665 55.0832 9.57834 55.0936 8.69713Z" fill="#8C3223"/>
<path d="M62.7841 6.8302C63.6548 7.27777 64.5466 7.70097 65.4225 8.15551C65.4143 15.8403 65.4143 23.525 65.4225 31.2099C64.5274 31.661 63.6218 32.0946 62.7336 32.563V32.4986C62.7545 32.2618 62.7718 32.0249 62.7789 31.788C62.78 23.4682 62.7817 15.1489 62.7841 6.8302Z" fill="#E15343"/>
<path d="M43.3018 11.353C45.2505 10.9228 47.1714 10.3795 49.1185 9.94757C51.0743 10.3951 53.0178 10.8985 54.963 11.3878C54.6856 11.4972 54.3971 11.5766 54.1027 11.6247C52.4308 11.8859 50.7764 12.2603 49.101 12.4954C47.2481 12.2168 45.4177 11.818 43.57 11.5184C43.4811 11.4679 43.3906 11.4122 43.3018 11.353Z" fill="#5E1F19"/>
<path d="M49.1325 14.742C51.1179 14.9893 53.1067 15.2261 55.0903 15.4995V23.906C53.1013 24.1951 51.1056 24.4458 49.1099 24.6688C49.1377 21.358 49.0941 18.0492 49.1325 14.742Z" fill="#E15343"/>
<path d="M43.1411 27.9811C45.1265 27.6014 47.117 27.2271 49.1128 26.8908C51.1103 27.2305 53.1044 27.6049 55.0967 27.9845C53.1027 28.4757 51.1139 28.9999 49.1111 29.4597C47.1153 28.9842 45.1282 28.4826 43.1411 27.9811Z" fill="#F2B0A9"/>
<path d="M43.1361 30.6508C43.1448 29.7626 43.1361 28.8762 43.1361 27.988C45.1232 28.4879 47.112 28.9912 49.1043 29.4666C49.1253 32.7755 49.113 36.0949 49.1043 39.4072C47.1033 38.4302 45.118 37.4219 43.1239 36.4275C43.132 34.4991 43.1361 32.5735 43.1361 30.6508Z" fill="#8C3223"/>
<path d="M49.1099 29.4615C51.1125 29.0017 53.1013 28.4775 55.0955 27.9863C55.0867 28.8745 55.0832 29.7644 55.0955 30.6544C55.1041 32.5701 55.0955 34.4858 55.0955 36.4136C53.1009 37.4085 51.1073 38.4054 49.1151 39.4038C49.1185 36.088 49.1308 32.7738 49.1099 29.4615Z" fill="#E15343"/>
<path d="M76.5963 9.18299C74.9871 9.18299 73.2089 9.80647 72.8206 11.844C72.812 11.8816 72.811 11.9205 72.8176 11.9585C72.8244 11.9964 72.8385 12.0326 72.8595 12.0649C72.8805 12.0973 72.9077 12.1251 72.9397 12.1467C72.9716 12.1682 73.0075 12.1832 73.0454 12.1906H73.0732L74.7242 12.3891C74.7998 12.3671 74.8663 12.3214 74.914 12.2587C74.9617 12.196 74.9879 12.1196 74.9889 12.0409C75.0513 11.7318 75.2245 11.4562 75.476 11.2659C75.7275 11.0757 76.0398 10.984 76.3542 11.0081C76.5353 11.0001 76.7155 11.0358 76.8798 11.1122C77.0441 11.1886 77.1875 11.3034 77.2981 11.447C77.4906 11.8357 77.5673 12.2715 77.5194 12.7026V12.9429C76.4319 12.9888 75.3566 13.1888 74.3253 13.5368C73.7733 13.771 73.3053 14.1673 72.9835 14.6733C72.6616 15.1792 72.501 15.7711 72.5229 16.3703C72.5229 18.1779 73.6514 19.0784 75.0515 19.0784C75.5848 19.1105 76.1178 19.0131 76.6051 18.7945C77.0925 18.5757 77.5197 18.2424 77.8501 17.8226C78.095 18.2522 78.4148 18.6344 78.7941 18.9513C78.857 18.9851 78.9291 18.9988 79 18.9903C79.0711 18.982 79.1378 18.9519 79.1911 18.9043C79.5395 18.5925 80.1351 18.0334 80.4886 17.7391C80.5511 17.6764 80.586 17.5916 80.586 17.5032C80.586 17.4147 80.5511 17.3299 80.4886 17.2671C80.0781 16.8324 79.8457 16.2594 79.8372 15.6615V13.0387C79.8372 11.9102 79.9312 10.8357 79.111 10.0416C78.4045 9.4601 77.5109 9.15501 76.5963 9.18299ZM98.7747 9.18299C97.1654 9.18299 95.3873 9.80647 94.999 11.844C94.99 11.8812 94.9885 11.9198 94.9946 11.9576C95.0007 11.9954 95.0143 12.0315 95.0346 12.064C95.0548 12.0964 95.0814 12.1245 95.1127 12.1465C95.144 12.1686 95.1793 12.1842 95.2167 12.1924H95.2445L96.9042 12.3874C96.984 12.3696 97.0556 12.3257 97.1077 12.2626C97.1597 12.1995 97.1893 12.1209 97.1915 12.0391C97.2539 11.7303 97.4269 11.455 97.6781 11.2648C97.9291 11.0746 98.241 10.9827 98.5551 11.0064C98.7362 10.9984 98.9165 11.0341 99.0808 11.1105C99.2451 11.1869 99.3885 11.3017 99.4991 11.4452C99.6817 11.8375 99.7483 12.2738 99.6907 12.7026V12.9429C98.6106 12.989 97.5429 13.189 96.5193 13.5368C95.9672 13.771 95.4993 14.1673 95.1775 14.6733C94.8556 15.1792 94.695 15.7711 94.7169 16.3703C94.7169 18.1779 95.8453 19.0784 97.2456 19.0784C97.7778 19.1097 98.3099 19.0118 98.7962 18.7932C99.2827 18.5746 99.7089 18.2416 100.039 17.8226C100.283 18.2523 100.603 18.6345 100.983 18.9513C101.046 18.9851 101.118 18.9988 101.189 18.9903C101.26 18.982 101.327 18.9519 101.38 18.9043C101.728 18.5925 102.324 18.0334 102.677 17.7391C102.737 17.6748 102.769 17.5905 102.769 17.5032C102.769 17.4158 102.737 17.3315 102.677 17.2671C102.272 16.8307 102.045 16.2587 102.04 15.6632V13.0387C102.04 11.9102 102.115 10.8357 101.295 10.0416C100.589 9.45504 99.6916 9.14935 98.7747 9.18299ZM86.2983 9.27182C85.7976 9.26069 85.3076 9.41584 84.9045 9.71301C84.5015 10.0102 84.2083 10.4326 84.0709 10.9141V9.75247C84.0655 9.67155 84.0311 9.59532 83.9737 9.53796C83.9164 9.48061 83.8401 9.44606 83.7591 9.44074H82.1918C82.1061 9.44294 82.0245 9.47797 81.9639 9.53857C81.9034 9.59917 81.8683 9.68074 81.8661 9.76641V18.6795C81.8741 18.7596 81.9095 18.8343 81.9665 18.8911C82.0232 18.9478 82.0979 18.9832 82.1778 18.9912H83.8724C83.9581 18.989 84.0396 18.9541 84.1003 18.8934C84.1608 18.8329 84.1959 18.7512 84.1981 18.6657V13.9478C84.1981 12.9151 84.1457 11.5097 85.3631 11.5097C86.5804 11.5097 86.3958 12.9639 86.3958 13.9478V18.6674C86.4008 18.7498 86.4348 18.8278 86.4919 18.8874C86.549 18.947 86.6254 18.9845 86.7075 18.993H88.402C88.4878 18.9908 88.5694 18.9559 88.6299 18.8951C88.6905 18.8346 88.7256 18.753 88.7278 18.6674V13.9478C88.6888 13.3785 88.7399 12.8066 88.8792 12.2533C88.9511 12.0441 89.0828 11.8605 89.258 11.7255C89.4333 11.5905 89.6444 11.51 89.8649 11.494C90.0963 11.4648 90.3297 11.5283 90.5143 11.6705C90.699 11.8128 90.8199 12.0223 90.8507 12.2533C90.9069 12.8163 90.9226 13.3826 90.8978 13.9478V18.6674C90.9026 18.7498 90.9366 18.8278 90.9937 18.8874C91.0508 18.947 91.1272 18.9845 91.2095 18.993H92.8987C92.9844 18.9908 93.0659 18.9559 93.1266 18.8951C93.1871 18.8346 93.2222 18.753 93.2244 18.6674V13.0091C93.2244 12.0652 93.3185 10.9663 92.7854 10.2105C92.5119 9.86798 92.1522 9.60447 91.743 9.44711C91.3339 9.28975 90.8904 9.24419 90.4577 9.31514C90.0252 9.38607 89.6194 9.57094 89.2819 9.85074C88.9445 10.1305 88.6877 10.4952 88.5379 10.9071C88.0155 9.79428 87.3536 9.27877 86.2965 9.27877L86.2983 9.27182ZM115.115 9.27182C112.677 9.27182 111.307 11.4243 111.307 14.1986C111.307 16.9729 112.651 19.1724 115.115 19.1724C117.475 19.1724 118.985 17.0059 118.985 14.2839C118.985 11.4818 117.613 9.27182 115.082 9.27182H115.115ZM124.779 9.27182C123.609 9.27182 122.944 9.83781 122.466 11.0743V9.7159C122.448 9.6476 122.408 9.5872 122.352 9.54384C122.296 9.50048 122.227 9.47651 122.156 9.47558H120.589C120.509 9.47383 120.43 9.50243 120.37 9.55567C120.31 9.6089 120.272 9.68289 120.263 9.76293V18.6674C120.268 18.7498 120.302 18.8278 120.359 18.8874C120.416 18.947 120.493 18.9845 120.575 18.993H122.27C122.355 18.9908 122.437 18.9559 122.497 18.8951C122.558 18.8346 122.593 18.753 122.595 18.6674V13.8729C122.571 13.2942 122.669 12.7168 122.883 12.1784C122.951 11.9849 123.073 11.8148 123.234 11.6878C123.395 11.5608 123.589 11.4821 123.793 11.4609C124.964 11.4609 124.851 12.8768 124.851 13.8572V18.6987C124.861 18.7753 124.898 18.8458 124.955 18.8981C125.012 18.9505 125.085 18.9816 125.162 18.986H126.858C126.938 18.9848 127.015 18.9551 127.074 18.9024C127.134 18.8498 127.173 18.7775 127.184 18.6987V13.0997C127.184 12.2289 127.184 11.0377 126.745 10.3254C126.539 9.98987 126.247 9.71515 125.9 9.5294C125.553 9.34365 125.162 9.25355 124.769 9.26833L124.779 9.27182ZM104.436 9.42333C104.354 9.42333 104.274 9.45617 104.216 9.51463C104.157 9.57309 104.125 9.65238 104.125 9.73506V11.0133C104.121 11.0952 104.149 11.1752 104.204 11.2362C104.259 11.2971 104.335 11.3341 104.417 11.339H107.338L104.029 16.2414C103.87 16.5037 103.788 16.8055 103.794 17.1122V18.4096C103.791 18.4582 103.801 18.5067 103.822 18.5505C103.843 18.5944 103.875 18.6323 103.914 18.6608C103.954 18.6894 104 18.7077 104.048 18.714C104.096 18.7202 104.145 18.7144 104.191 18.697C105.095 18.2158 106.104 17.9642 107.128 17.9642C108.152 17.9642 109.161 18.2158 110.065 18.697C110.112 18.7163 110.163 18.7237 110.214 18.7184C110.264 18.7132 110.313 18.6954 110.355 18.6666C110.397 18.638 110.431 18.5993 110.454 18.5542C110.477 18.509 110.489 18.4587 110.488 18.4079V17.0669C110.482 16.9678 110.45 16.872 110.395 16.7892C110.341 16.7063 110.265 16.6394 110.176 16.5949C109.205 16.071 108.108 15.8235 107.005 15.8791L109.889 11.6316C110.096 11.4081 110.242 11.1353 110.314 10.8392V9.75247C110.318 9.67064 110.289 9.59058 110.234 9.52964C110.18 9.46871 110.103 9.43176 110.021 9.42681H104.449L104.436 9.42333ZM115.11 11.1178C115.37 11.1015 115.626 11.1794 115.833 11.3371C116.04 11.4948 116.182 11.7218 116.235 11.9764C116.426 12.7477 116.507 13.5422 116.475 14.3362C116.475 15.4647 116.418 17.37 115.112 17.37C113.806 17.37 113.797 15.0102 113.797 13.9321C113.797 12.8541 113.855 11.1004 115.081 11.1004L115.11 11.1178ZM77.4931 14.3501V14.7228C77.5579 15.3533 77.4502 15.9895 77.1814 16.5636C77.0772 16.7888 76.9138 16.9817 76.7087 17.1212C76.5035 17.2608 76.2641 17.342 76.0164 17.356C75.3651 17.356 74.9837 16.8335 74.9837 16.0778C74.9645 14.6148 76.2811 14.3553 77.4984 14.3553L77.4931 14.3501ZM99.6715 14.3501V14.7228C99.738 15.3562 99.6301 15.9957 99.3598 16.5723C99.2561 16.798 99.0929 16.9909 98.8875 17.1306C98.6822 17.2703 98.4427 17.3513 98.1946 17.3646C97.5433 17.3646 97.1619 16.8422 97.1619 16.0864C97.1619 14.6096 98.4455 14.3449 99.6628 14.3449L99.6715 14.3501Z" fill="#201C1D"/>
</g>
</svg>
