<svg width="160" height="40" viewBox="0 0 160 40" fill="none" xmlns="http://www.w3.org/2000/svg">
<g clip-path="url(#clip0_1011_356)">
<g clip-path="url(#clip1_1011_356)">
<mask id="mask0_1011_356" style="mask-type:luminance" maskUnits="userSpaceOnUse" x="-6" y="-11" width="168" height="217">
<path d="M-5.49048 -10.6953H161.215V205.042H-5.49048V-10.6953Z" fill="white"/>
</mask>
<g mask="url(#mask0_1011_356)">
<path d="M51.9518 16.9573C52.3832 21.9835 44.4732 26.7673 34.2845 27.6414C24.0958 28.5156 15.4865 25.1488 15.0556 20.1228C14.6241 15.0957 22.5342 10.3122 32.7229 9.4381C42.9115 8.56425 51.5208 11.9302 51.9518 16.9573Z" fill="#BBE6FB"/>
</g>
<mask id="mask1_1011_356" style="mask-type:luminance" maskUnits="userSpaceOnUse" x="-6" y="-11" width="168" height="217">
<path d="M-5.49048 -10.6953H161.215V205.042H-5.49048V-10.6953Z" fill="white"/>
</mask>
<g mask="url(#mask1_1011_356)">
<mask id="mask2_1011_356" style="mask-type:luminance" maskUnits="userSpaceOnUse" x="20" y="10" width="25" height="17">
<path d="M20.6616 10.0258H44.7114V26.9622H20.6616V10.0258Z" fill="white"/>
</mask>
<g mask="url(#mask2_1011_356)">
<g opacity="0.350006">
<path d="M33.0221 10.0274C29.1356 9.96424 24.5877 11.5074 21.2037 12.9524C20.8515 13.9674 20.6619 15.0469 20.6619 16.1659C20.6619 22.1281 26.0455 26.962 32.6868 26.962C39.3281 26.962 44.7117 22.1281 44.7117 16.1659C44.7117 14.279 44.1713 12.5062 43.2236 10.9628C40.5163 10.542 36.7926 10.0887 33.0221 10.0274Z" fill="white"/>
</g>
</g>
</g>
<mask id="mask3_1011_356" style="mask-type:luminance" maskUnits="userSpaceOnUse" x="-6" y="-11" width="168" height="217">
<path d="M-5.49048 -10.6953H161.215V205.042H-5.49048V-10.6953Z" fill="white"/>
</mask>
<g mask="url(#mask3_1011_356)">
<path d="M32.6865 10.0263C30.5348 9.89503 26.8262 11.0176 23.7337 12.1374C23.2638 13.2463 23.0028 14.4598 23.0028 15.7333C23.0028 20.9573 27.7392 25.1922 32.7497 25.1922C37.7272 25.1922 42.131 20.9505 42.4965 15.7333C42.6153 14.0343 42.0305 12.4335 41.2184 11.0533C38.0124 10.4886 34.6099 10.1437 32.6865 10.0263Z" fill="white"/>
</g>
<mask id="mask4_1011_356" style="mask-type:luminance" maskUnits="userSpaceOnUse" x="-6" y="-11" width="168" height="217">
<path d="M-5.49048 -10.6953H161.215V205.042H-5.49048V-10.6953Z" fill="white"/>
</mask>
<g mask="url(#mask4_1011_356)">
<path d="M27.1647 15.0475C27.4287 14.4629 27.8286 14.1766 28.2159 13.6866C28.1729 13.5705 28.0786 13.1911 28.0786 13.0595C28.0786 12.4722 28.555 11.9955 29.1426 11.9955C29.2813 11.9955 29.4136 12.0231 29.5349 12.0713C31.2959 10.7292 33.6142 10.1441 35.944 10.6649C36.1568 10.7128 36.3654 10.7709 36.5703 10.8346C34.2677 10.5154 31.6723 11.3309 29.9069 12.7558C29.9609 12.883 30.1104 13.2467 30.1104 13.3929C30.1104 13.9805 29.7302 14.1235 29.1426 14.1235C29.0091 14.1235 28.8817 14.0979 28.7637 14.0529C28.3649 14.5885 27.8762 15.6086 27.6371 16.2463C28.6133 17.1196 29.4954 17.4361 30.6449 17.8657C30.6419 17.8109 30.6844 17.7602 30.6844 17.7044C30.6844 15.933 32.2438 14.4934 34.0155 14.4934C35.603 14.4934 36.9176 15.6478 37.1742 17.1623C37.9663 16.6584 38.7323 16.2721 39.316 15.5252C39.1798 15.3591 39.033 14.8887 39.033 14.6571C39.033 14.124 39.4656 13.6918 39.9986 13.6918C40.0741 13.6918 40.1466 13.7026 40.2171 13.719C40.5135 13.1099 40.7371 12.4643 40.8801 11.7986C38.1099 9.74774 32.7499 10.0275 32.7499 10.0275C32.7499 10.0275 28.4848 9.80494 25.5974 11.2121C25.79 12.6043 26.3454 13.9279 27.1647 15.0475Z" fill="#373535"/>
<path d="M40.4056 14.2483C40.6015 14.4248 40.7082 14.5798 40.7924 14.7307C41.0514 15.1965 40.5317 15.6228 39.9986 15.6228C39.9444 15.6228 39.8921 15.6155 39.8401 15.6067C39.2395 16.5454 38.1875 17.7491 37.2529 18.3549C38.686 18.5897 40.0373 19.1637 41.1127 20.0506C41.8959 18.6475 42.4965 16.6214 42.4965 14.9004C42.4965 13.5905 41.9182 12.6303 41.0452 11.9259C40.9994 12.6276 40.6249 13.609 40.4056 14.2483Z" fill="#373535"/>
<path d="M28.7725 23.1353C29.2501 21.8166 30.4246 20.7948 31.5357 19.8959C31.3731 19.6734 31.1293 19.1223 31.0277 18.8614C29.6725 18.4492 28.4735 17.6778 27.5435 16.6566C27.5367 16.6863 27.5282 16.7152 27.5212 16.7449C27.346 17.5296 27.3139 18.316 27.401 19.0831C28.0499 19.204 28.541 19.7725 28.541 20.4565C28.541 20.8621 28.1855 21.4499 27.9096 21.7057C28.2095 22.3529 28.4141 22.6651 28.7725 23.1353Z" fill="#373535"/>
<path d="M28.6885 24.2423C28.1189 23.676 27.725 22.5463 27.3554 21.837C27.2862 21.8476 27.2154 21.855 27.1429 21.855C26.3704 21.855 25.5611 21.2067 25.7442 20.4565C25.8455 20.0414 26.1321 19.7698 26.5987 19.5432C26.4924 18.6832 26.4636 17.4471 26.6632 16.5531C26.7204 16.2973 26.8416 16.1775 26.922 15.9339C26.0697 14.6866 25.5189 13.0496 25.5189 11.4253C25.5189 11.3659 25.5219 11.3073 25.5232 11.2485C24.0828 11.9709 23.0028 13.1089 23.0028 14.9005C23.0028 18.8633 25.2852 22.7506 28.6811 24.2744C28.6836 24.2638 28.6858 24.2529 28.6885 24.2423Z" fill="#373535"/>
<path d="M37.0389 18.7639C36.6001 20.012 35.4136 20.9084 34.0154 20.9084C33.2674 20.9084 32.5812 20.6505 32.0359 20.2217C30.9117 21.0972 29.8918 22.6352 29.3735 23.9693C29.6061 24.2197 29.7682 24.4256 30.0291 24.6476C30.8155 24.8524 31.8986 24.6476 32.7498 24.6476C36.1738 24.6476 39.2064 23.1244 40.9451 20.4533C39.789 19.6527 38.4254 18.8908 37.0389 18.7639Z" fill="#373535"/>
</g>
<mask id="mask5_1011_356" style="mask-type:luminance" maskUnits="userSpaceOnUse" x="-6" y="-11" width="168" height="217">
<path d="M-5.49048 -10.6953H161.215V205.042H-5.49048V-10.6953Z" fill="white"/>
</mask>
<g mask="url(#mask5_1011_356)">
<path d="M27.077 15.5106C27.3409 14.926 27.6719 14.3851 28.059 13.895C28.0159 13.7793 27.9909 13.6542 27.9909 13.5227C27.9909 12.9354 28.4673 12.4587 29.0548 12.4587C29.1935 12.4587 29.3259 12.4862 29.4471 12.5344C31.2081 11.1923 33.5265 10.6072 35.8563 11.128C36.069 11.176 36.2777 11.234 36.4825 11.2977C34.18 10.9785 31.8009 11.6843 30.0355 13.1094C30.0894 13.2364 30.1188 13.3764 30.1188 13.5227C30.1188 14.1102 29.6424 14.5866 29.0548 14.5866C28.9214 14.5866 28.7939 14.561 28.6759 14.5161C28.2771 15.0516 27.9511 15.6433 27.7119 16.2812C28.5504 17.1847 29.5795 17.8992 30.7287 18.3288C30.726 18.274 30.7203 18.2198 30.7203 18.164C30.7203 16.3926 32.1561 14.9565 33.9277 14.9565C35.5152 14.9565 36.8298 16.111 37.0864 17.6255C37.8785 17.1215 38.5824 16.4743 39.1659 15.7274C39.0297 15.5613 38.9452 15.3518 38.9452 15.1203C38.9452 14.5872 39.3778 14.1549 39.9109 14.1549C39.9863 14.1549 40.0588 14.1658 40.1293 14.1821C40.4257 13.573 40.6493 12.9275 40.7923 12.2617C38.0221 10.2109 32.6622 10.4906 32.6622 10.4906C32.6622 10.4906 28.397 10.2681 25.5096 11.6753C25.7022 13.0675 26.2576 14.3911 27.077 15.5106Z" fill="#1287B1"/>
<path d="M40.5551 14.4064C40.7509 14.5829 40.8765 14.836 40.8765 15.1204C40.8765 15.6534 40.4439 16.086 39.9109 16.086C39.8567 16.086 39.8044 16.0786 39.7523 16.0699C39.1517 17.0086 38.3558 17.8089 37.4209 18.4147C38.8025 18.6307 40.1029 19.2169 41.178 20.1038C41.9612 18.7007 42.4087 17.0846 42.4087 15.3636C42.4087 14.0537 41.8304 13.0935 40.9574 12.389C40.9116 13.0907 40.7744 13.7671 40.5551 14.4064Z" fill="#1287B1"/>
<path d="M28.9199 23.4521C29.3974 22.1334 30.2271 20.9501 31.3382 20.0515C31.1756 19.8287 31.0415 19.5854 30.9399 19.3245C29.5845 18.9123 28.3857 18.1409 27.4557 17.1197C27.4489 17.1494 27.4402 17.1783 27.4334 17.208C27.258 17.9927 27.2258 18.7791 27.3133 19.5462C27.9618 19.6672 28.4532 20.2356 28.4532 20.9196C28.4532 21.3252 28.2792 21.69 28.0032 21.9457C28.2536 22.4764 28.5614 22.9819 28.9199 23.4521Z" fill="#1287B1"/>
<path d="M28.6847 24.2262C28.1152 23.6598 27.6371 23.0094 27.2677 22.3003C27.1983 22.3109 27.1274 22.318 27.0553 22.318C26.2827 22.318 25.6565 21.6918 25.6565 20.9196C25.6565 20.366 25.979 19.8888 26.4456 19.6622C26.3397 18.8025 26.3756 17.9101 26.5756 17.0161C26.6328 16.7606 26.7025 16.5111 26.7829 16.2673C25.9305 15.0203 25.4312 13.5126 25.4312 11.8883C25.4312 11.8289 25.434 11.7703 25.4353 11.7118C23.9949 12.4339 22.9149 13.5722 22.9149 15.3635C22.9149 19.3266 25.2814 22.7345 28.6774 24.2583C28.6798 24.2477 28.682 24.2368 28.6847 24.2262Z" fill="#1287B1"/>
<path d="M36.9512 19.2269C36.5124 20.475 35.3258 21.3715 33.9276 21.3715C33.1796 21.3715 32.4935 21.1135 31.9481 20.6848C30.8239 21.5603 29.9754 22.7536 29.4573 24.0881C29.6897 24.3384 29.9381 24.5743 30.1991 24.796C30.9857 25.0009 31.8108 25.1107 32.6621 25.1107C36.0861 25.1107 39.0963 23.3428 40.835 20.672C39.679 19.8711 38.3377 19.3539 36.9512 19.2269Z" fill="#1287B1"/>
</g>
<mask id="mask6_1011_356" style="mask-type:luminance" maskUnits="userSpaceOnUse" x="-6" y="-11" width="168" height="217">
<path d="M-5.49048 -10.6953H161.215V205.042H-5.49048V-10.6953Z" fill="white"/>
</mask>
<g mask="url(#mask6_1011_356)">
<mask id="mask7_1011_356" style="mask-type:luminance" maskUnits="userSpaceOnUse" x="27" y="12" width="14" height="13">
<path d="M27.5244 12.0829H40.027V24.5746H27.5244V12.0829Z" fill="white"/>
</mask>
<g mask="url(#mask7_1011_356)">
<path d="M37.0639 18.3999L40.0273 17.6931L37.0527 17.5413L39.4735 15.6912L36.7267 16.6759L38.5934 14.089L36.0152 15.8026L36.9165 12.7744L35.1459 15.2704L35.1056 12.1163L33.9406 14.9258L32.9692 12.0828L33.0218 15.4319L31.343 12.4298L32.2515 15.6174L29.5283 13.6371L31.6615 16.3175L28.2808 15.0743L30.9489 17.0483L27.5276 17.1535L31.0257 18.0562L27.5246 18.8132L30.9805 19.0638L28.0661 20.9299L31.0671 19.842L28.9849 22.479L31.616 20.3571L30.6686 23.8958L32.6998 21.016L32.4152 24.4171L33.5682 21.3339L34.5497 24.5746L34.7883 21.3241L36.2451 24.0973L35.3843 20.9253L38.0519 22.9917L36.3298 20.3571L39.2564 21.4973L37.0187 19.2983L40.0194 19.5342L37.0639 18.3999Z" fill="white"/>
</g>
</g>
<mask id="mask8_1011_356" style="mask-type:luminance" maskUnits="userSpaceOnUse" x="-6" y="-11" width="168" height="217">
<path d="M-5.49048 -10.6953H161.215V205.042H-5.49048V-10.6953Z" fill="white"/>
</mask>
<g mask="url(#mask8_1011_356)">
<mask id="mask9_1011_356" style="mask-type:luminance" maskUnits="userSpaceOnUse" x="5" y="7" width="59" height="18">
<path d="M5.5152 7.23151H63.3724V24.0704H5.5152V7.23151Z" fill="white"/>
</mask>
<g mask="url(#mask9_1011_356)">
<g opacity="0.350006">
<path d="M5.5152 24.0703C14.7058 14.88 22.046 12.0427 28.7077 10.7475C29.5892 10.5761 29.7559 8.65002 29.7559 8.65002C29.7559 8.65002 29.8793 10.0687 30.4963 10.2536C31.113 10.4388 31.9146 8.03305 31.9146 8.03305C31.9146 8.03305 31.1745 10.1921 31.9146 10.3154C32.655 10.4388 34.0118 8.21828 34.0118 8.21828C34.0118 8.21828 33.4569 10.1302 33.8271 10.2536C34.1968 10.377 36.0472 7.47818 36.0472 7.47818C36.0472 7.47818 34.9369 9.39012 35.9856 9.57535C37.0346 9.7603 38.5644 8.2703 38.5644 8.2703C38.5644 8.2703 37.3615 9.63364 37.8975 9.82187C40.1799 10.6241 42.0268 7.65769 42.0268 7.65769C42.0268 7.65769 41.5988 8.95837 40.4886 10.377C42.8938 10.9937 44.6804 7.37004 44.6804 7.37004L42.8938 10.9937C43.8191 11.4876 47.5204 7.23139 47.5204 7.23139C47.5204 7.23139 45.6082 10.5622 44.4979 11.2405C45.1146 11.7341 47.3352 9.7603 47.3352 9.7603C47.3352 9.7603 45.5464 11.9806 46.2249 12.104C47.2118 12.9059 50.8507 7.97149 50.8507 7.97149C50.8507 7.97149 49.4324 10.8703 47.3352 13.1527C49.0881 14.0296 53.4418 8.40323 53.4418 8.40323C53.4418 8.40323 53.3184 10.1921 50.1725 13.0293C52.5164 12.721 55.5389 8.27984 55.5389 8.27984C55.5389 8.27984 54.4287 11.6107 51.7761 13.9544C54.0775 13.7149 57.759 8.03305 57.759 8.03305C57.759 8.03305 56.3406 11.9806 53.4418 14.263C56.6492 14.9723 61.2753 10.1921 61.2753 10.1921C61.2753 10.1921 59.4557 13.5847 57.0807 14.9723C59.7333 15.99 63.3725 11.7956 63.3725 11.7956C63.3725 11.7956 59.7333 17.4089 53.9353 17.1621C52.0329 17.0812 46.2786 11.3906 33.9503 11.8575C17.6665 12.4745 14.2125 19.3827 5.5152 24.0703Z" fill="#373535"/>
</g>
</g>
<path d="M5.89188 23.3724C15.0825 14.182 22.4224 11.345 29.0841 10.0495C29.9659 9.87819 30.1326 7.95236 30.1326 7.95236C30.1326 7.95236 30.2557 9.37127 30.873 9.55595C31.4897 9.74091 32.2913 7.33566 32.2913 7.33566C32.2913 7.33566 31.5512 9.49466 32.2913 9.61778C33.0317 9.74091 34.3885 7.52061 34.3885 7.52061C34.3885 7.52061 33.8336 9.43255 34.2033 9.55595C34.5735 9.67934 36.4238 6.78024 36.4238 6.78024C36.4238 6.78024 35.3136 8.69246 36.3623 8.87741C37.4107 9.06264 38.941 7.57264 38.941 7.57264C38.941 7.57264 37.7381 8.93598 38.2742 9.1242C40.5566 9.92613 42.4029 6.96002 42.4029 6.96002C42.4029 6.96002 41.975 8.26071 40.8652 9.67934C43.2705 10.2963 45.0571 6.6721 45.0571 6.6721L43.2705 10.2963C44.1958 10.7896 47.8966 6.534 47.8966 6.534C47.8966 6.534 45.9849 9.8643 44.8746 10.5428C45.4913 11.0364 47.7119 9.06264 47.7119 9.06264C47.7119 9.06264 45.9231 11.2832 46.6016 11.4063C47.5885 12.2085 51.2274 7.27382 51.2274 7.27382C51.2274 7.27382 49.8085 10.1729 47.7119 12.4551C49.4647 13.3322 53.8184 7.70557 53.8184 7.70557C53.8184 7.70557 53.695 9.49466 50.5492 12.3319C52.8931 12.0233 55.9156 7.58217 55.9156 7.58217C55.9156 7.58217 54.8053 10.913 52.1527 13.257C54.4542 13.0175 58.1356 7.33566 58.1356 7.33566C58.1356 7.33566 56.7173 11.2832 53.8184 13.5653C57.0259 14.2747 61.652 9.49466 61.652 9.49466C61.652 9.49466 59.8324 12.8868 57.4574 14.2747C60.11 15.2923 63.7492 11.098 63.7492 11.098C63.7492 11.098 60.11 16.7112 54.3115 16.4644C52.4096 16.3833 46.6553 10.6927 34.3267 11.1598C18.0432 11.7765 14.5889 18.6847 5.89188 23.3724Z" fill="#373535"/>
</g>
<mask id="mask10_1011_356" style="mask-type:luminance" maskUnits="userSpaceOnUse" x="-6" y="-11" width="168" height="217">
<path d="M-5.49048 -10.6953H161.215V205.042H-5.49048V-10.6953Z" fill="white"/>
</mask>
<g mask="url(#mask10_1011_356)">
<mask id="mask11_1011_356" style="mask-type:luminance" maskUnits="userSpaceOnUse" x="5" y="17" width="55" height="21">
<path d="M5.27444 17.4583H59.5847V37.566H5.27444V17.4583Z" fill="white"/>
</mask>
<g mask="url(#mask11_1011_356)">
<g opacity="0.350006">
<path d="M5.27444 25.0753C10.1318 27.5119 14.5732 24.7054 20.1706 26.2829C24.4263 27.4825 29.6078 28.9613 36.6391 27.9434C43.6707 26.926 49.6849 23.8727 52.5535 18.4136C53.4478 15.9776 57.0867 18.969 57.0867 18.969C57.0867 18.969 54.4347 17.8588 54.4965 18.3831C54.5581 18.9072 58.4749 20.7268 58.4749 20.7268C58.4749 20.7268 54.928 19.6165 55.144 20.4492C55.36 21.282 59.5846 24.6128 59.5846 24.6128C59.5846 24.6128 54.8046 20.9736 54.4039 21.4669C54.0027 21.9605 56.4392 23.9653 56.4392 23.9653C56.4392 23.9653 52.3991 21.4669 50.9802 22.2037C49.9598 22.733 55.1748 26.1551 55.1748 26.1551C55.1748 26.1551 51.7821 23.5641 50.9802 24.2426C50.1785 24.9214 54.8046 30.4726 54.8046 30.4726C54.8046 30.4726 49.5613 24.7978 49.0375 25.0753C48.5128 25.3529 50.4866 28.067 50.4866 28.067C50.4866 28.067 47.8961 25.2295 47.1871 25.7231C46.4778 26.2167 50.8878 33.5874 50.8878 33.5874C50.8878 33.5874 46.1076 26.0317 44.1338 27.2956C47.2334 34.0962 46.0768 35.0679 46.0768 35.0679C46.0768 35.0679 45.6813 28.13 41.8206 28.3136C39.8776 28.4062 42.7457 33.4948 42.7457 33.4948C42.7457 33.4948 40.1059 28.8472 38.3478 28.9398C41.588 35.0717 40.433 37.5657 40.433 37.5657C40.433 37.5657 40.9688 32.3287 36.5743 29.4143C38.2394 30.8942 35.5294 37.5657 35.5294 37.5657C35.5294 37.5657 37.9134 27.7347 33.7711 29.6091C33.1165 29.9046 33.7248 34.5127 33.7248 34.5127C33.7248 34.5127 32.892 29.2386 31.6434 29.5165C30.9153 29.678 27.017 36.8256 27.017 36.8256C27.017 36.8256 30.2092 29.1 29.2379 29.4238C28.5302 29.66 27.2023 32.8473 27.2023 32.8473C27.2023 32.8473 27.8497 29.7014 27.2023 29.5165C26.5548 29.3312 22.9461 32.8473 22.9461 32.8473C22.9461 32.8473 25.6294 29.7014 25.1666 29.0537C24.4655 28.0722 23.6437 28.0262 22.6685 28.4062C21.2496 28.9591 19.3379 31.5518 19.3379 31.5518C19.3379 31.5518 21.2436 28.9267 20.9105 27.9434C20.3758 26.3635 14.8968 30.9967 14.8968 30.9967C14.8968 30.9967 18.135 27.9434 17.3949 27.2956C16.6548 26.6481 12.6359 26.8483 11.381 26.8448C7.68024 26.8334 6.3978 25.9652 5.27444 25.0753Z" fill="#373535"/>
</g>
</g>
<path d="M5.08957 24.5204C9.94692 26.957 14.3881 24.1505 19.9855 25.7282C24.2411 26.9273 29.4229 28.4064 36.4545 27.3884C43.4861 26.3708 49.4998 23.3175 52.3684 17.859C53.2627 15.4227 56.9016 18.4138 56.9016 18.4138C56.9016 18.4138 54.2495 17.3038 54.3114 17.8282C54.3729 18.3523 58.2897 20.1719 58.2897 20.1719C58.2897 20.1719 54.7428 19.0619 54.9589 19.8946C55.1749 20.727 59.4 24.0579 59.4 24.0579C59.4 24.0579 54.6195 20.4184 54.2188 20.9122C53.8181 21.4056 56.2544 23.4101 56.2544 23.4101C56.2544 23.4101 52.2139 20.9122 50.7953 21.6485C49.7746 22.1781 54.9896 25.5999 54.9896 25.5999C54.9896 25.5999 51.597 23.0091 50.7953 23.6877C49.9934 24.3665 54.62 29.9176 54.62 29.9176C54.62 29.9176 49.3764 24.2428 48.8523 24.5204C48.3282 24.7982 50.302 27.5118 50.302 27.5118C50.302 27.5118 47.711 24.6746 47.0019 25.1682C46.2926 25.6615 50.7027 33.0325 50.7027 33.0325C50.7027 33.0325 45.9224 25.4765 43.9486 26.741C47.0482 33.5413 45.8916 34.5129 45.8916 34.5129C45.8916 34.5129 45.4961 27.575 41.6355 27.7589C39.6925 27.8515 42.5605 32.9399 42.5605 32.9399C42.5605 32.9399 39.9207 28.292 38.163 28.3846C41.4034 34.5168 40.2479 37.0108 40.2479 37.0108C40.2479 37.0108 40.7837 31.7735 36.3891 28.8591C38.0543 30.3393 35.3442 37.0108 35.3442 37.0108C35.3442 37.0108 37.7288 27.1798 33.5865 29.0541C32.9319 29.35 33.5402 33.9578 33.5402 33.9578C33.5402 33.9578 32.7069 28.684 31.4585 28.9615C30.7301 29.1231 26.8319 36.2707 26.8319 36.2707C26.8319 36.2707 30.0241 28.545 29.0527 28.8692C28.345 29.1048 27.0171 32.2921 27.0171 32.2921C27.0171 32.2921 27.6649 29.1465 27.0171 28.9615C26.3696 28.7766 22.7612 32.2921 22.7612 32.2921C22.7612 32.2921 25.4446 29.1465 24.9815 28.4987C24.2804 27.5173 23.4585 27.4715 22.4836 27.8515C21.0645 28.4042 19.1528 30.9969 19.1528 30.9969C19.1528 30.9969 21.0585 28.3715 20.7256 27.3884C20.1906 25.8088 14.7119 30.4417 14.7119 30.4417C14.7119 30.4417 17.9502 27.3884 17.2098 26.741C16.4697 26.0932 12.4508 26.2937 11.1959 26.2899C7.49509 26.2782 6.21293 25.4103 5.08957 24.5204Z" fill="#373535"/>
</g>
</g>
<path d="M75.1017 15.7671C75.9361 15.7671 76.7265 15.9647 77.1222 16.3599C77.1881 16.9752 76.6387 17.9632 76.2874 17.9632C75.8702 17.8095 75.475 17.7213 74.992 17.7213C72.9939 17.7213 72.0054 19.7856 72.0054 21.8276C72.0054 23.101 72.4445 23.87 73.455 23.87C74.5309 23.87 75.6287 23.1454 76.2435 22.5965C76.3972 22.7058 76.5948 23.0576 76.5948 23.4528C76.5948 23.8919 76.463 24.3091 76.0678 24.7043C75.3652 25.4069 74.1796 25.9998 72.4665 25.9998C70.4904 25.9998 69.1291 24.88 69.1291 22.2667C69.1291 18.8415 71.3906 15.7671 75.0798 15.7671H75.1017Z" fill="#373535"/>
<path d="M81.5564 23.7601C82.6323 23.7601 84.5868 21.8714 85.1357 18.2706C85.1577 18.051 85.1797 17.9851 85.2236 17.7656C84.9821 17.6777 84.6527 17.6119 84.3229 17.6119C83.5105 17.6119 82.6762 17.8534 81.9296 18.8634C81.1612 19.9393 80.8318 21.2786 80.8318 22.3549C80.8318 23.2766 81.0953 23.7601 81.5344 23.7601H81.5564ZM78.0209 22.7721C78.0209 21.4767 78.4601 19.2147 80.1073 17.568C81.5125 16.1188 83.2251 15.7671 84.7844 15.7671C85.8164 15.7671 87.2216 16.0964 88.0999 16.2725C87.8803 17.2386 87.3533 20.8834 87.1118 22.9912C87.002 23.8919 86.9581 25.1434 87.002 25.6045C86.2775 25.9119 84.9162 25.9997 84.5425 25.9997C84.3453 25.9997 84.3009 25.0995 84.3673 24.2432C84.3888 23.9577 84.4331 23.5406 84.4546 23.3649C83.5983 24.7921 81.9077 25.9997 80.1292 25.9997C78.8557 25.9997 78.0209 24.9458 78.0209 22.794V22.7721Z" fill="#373535"/>
<path d="M93.5665 15.7673C94.4667 15.7673 95.323 16.0967 95.7187 16.5138C95.6967 17.1291 95.2137 18.1606 94.4447 17.8751C94.1154 17.7653 93.786 17.678 93.3469 17.678C92.7541 17.678 92.2491 17.9415 92.2491 18.4899C92.2491 18.9071 92.5565 19.2149 94.0276 20.2469C95.0819 21.0154 95.4991 21.696 95.4991 22.6621C95.4991 24.2654 93.9836 25.9999 91.3489 25.9999C90.273 25.9999 89.3284 25.5828 89.021 25.1436C88.6258 24.4849 88.9332 23.1895 89.3728 23.4086C89.9437 23.6941 90.8878 24.0019 91.6563 24.0019C92.3808 24.0019 92.8419 23.6721 92.8419 23.233C92.8419 22.8602 92.5126 22.5304 91.1732 21.5862C90.053 20.7519 89.7017 19.9834 89.7017 19.1051C89.7017 17.2828 91.261 15.7673 93.5445 15.7673H93.5665Z" fill="#373535"/>
<path d="M101.141 15.7673C102.042 15.7673 102.898 16.0967 103.293 16.5138C103.271 17.1291 102.789 18.1606 102.02 17.8751C101.69 17.7653 101.361 17.678 100.922 17.678C100.329 17.678 99.8241 17.9415 99.8241 18.4899C99.8241 18.9071 100.132 19.2149 101.603 20.2469C102.656 21.0154 103.074 21.696 103.074 22.6621C103.074 24.2654 101.558 25.9999 98.9234 25.9999C97.8476 25.9999 96.9034 25.5828 96.5961 25.1436C96.2008 24.4849 96.5082 23.1895 96.9474 23.4086C97.5182 23.6941 98.4624 24.0019 99.2308 24.0019C99.9554 24.0019 100.416 23.6721 100.416 23.233C100.416 22.8602 100.087 22.5304 98.7478 21.5862C97.628 20.7519 97.2767 19.9834 97.2767 19.1051C97.2767 17.2828 98.8356 15.7673 101.12 15.7673H101.141Z" fill="#373535"/>
<path d="M108.057 23.7601C109.133 23.7601 111.087 21.8714 111.636 18.2706C111.658 18.051 111.681 17.9851 111.725 17.7656C111.483 17.6777 111.154 17.6119 110.824 17.6119C110.012 17.6119 109.177 17.8534 108.43 18.8634C107.662 19.9393 107.332 21.2786 107.332 22.3549C107.332 23.2766 107.596 23.7601 108.035 23.7601H108.057ZM104.522 22.7721C104.522 21.4767 104.961 19.2147 106.608 17.568C108.013 16.1188 109.726 15.7671 111.285 15.7671C112.317 15.7671 113.723 16.0964 114.601 16.2725C114.381 17.2386 113.854 20.8834 113.613 22.9912C113.503 23.8919 113.459 25.1434 113.503 25.6045C112.778 25.9119 111.417 25.9997 111.044 25.9997C110.846 25.9997 110.802 25.0995 110.868 24.2432C110.89 23.9577 110.934 23.5406 110.956 23.3649C110.099 24.7921 108.409 25.9997 106.63 25.9997C105.356 25.9997 104.522 24.9458 104.522 22.794V22.7721Z" fill="#373535"/>
<path d="M119.562 18.6217C120.573 16.9969 121.889 15.7673 123.734 15.7673C125.293 15.7673 125.798 17.2164 125.513 19.2803C125.359 20.2469 125.096 21.6301 124.92 22.9036C124.766 23.9799 124.656 24.9456 124.679 25.6047C124.108 25.8902 122.439 25.9999 122.066 25.9999C121.912 25.9999 121.889 24.7919 122.088 23.5184C122.263 22.4645 122.636 20.5543 122.812 19.456C122.922 18.8197 122.9 18.0508 122.285 18.0508C121.472 18.0508 119.541 19.3467 118.574 24.6601C118.508 25.0993 118.333 25.3627 118.091 25.5164C117.762 25.7145 117.059 25.8902 115.632 25.9121C115.895 24.5728 116.313 21.8278 116.62 19.8078C116.905 17.9634 117.015 16.7773 116.949 16.3162C117.323 16.1845 119.277 15.7673 119.496 15.7673C119.738 15.7673 119.782 16.448 119.562 18.0952C119.541 18.2488 119.518 18.4899 119.496 18.6217H119.562Z" fill="#373535"/>
<path d="M130.716 23.7382C131.682 23.7382 133.637 21.9373 134.185 18.7536C134.208 18.5779 134.274 18.2486 134.318 18.0505C134.032 17.7871 133.659 17.6114 133.066 17.6114C130.848 17.6114 129.86 20.2686 129.86 22.1793C129.86 23.2112 130.211 23.7382 130.694 23.7382H130.716ZM129.267 25.9997C127.862 25.9997 126.984 24.7482 126.984 22.5964C126.984 19.039 129.201 15.7671 132.934 15.7671C133.593 15.7671 134.185 15.9427 134.559 16.1623C134.756 15.1523 135.217 12.034 135.24 11.1118C135.854 11.0021 137.172 10.8049 137.764 10.8049C138.007 10.8049 138.073 11.046 137.984 11.5949C137.457 14.8888 136.514 21.2127 136.338 22.6184C136.205 23.804 136.184 24.9677 136.205 25.6264C135.503 25.9338 134.076 25.9997 133.703 25.9997C133.548 25.9997 133.461 24.9897 133.505 24.0895C133.527 23.804 133.571 23.3864 133.571 23.321C132.473 25.1214 130.957 25.9997 129.289 25.9997H129.267Z" fill="#373535"/>
<path d="M142.133 18.9294C143.297 16.3381 144.68 15.7672 145.581 15.7672C145.867 15.7672 146.305 15.9428 146.503 16.1624C146.591 16.887 146.02 18.3361 145.515 18.885C145.251 18.7533 144.923 18.6215 144.549 18.6215C143.802 18.6215 142.331 19.7857 141.409 24.7917C141.342 25.2094 141.211 25.385 140.97 25.4948C140.597 25.7144 139.125 25.89 138.423 25.912C138.751 24.1111 139.322 20.4444 139.542 18.2922C139.608 17.7433 139.63 16.7333 139.586 16.3381C140.003 16.1404 141.651 15.7672 142.023 15.7672C142.221 15.7672 142.375 16.9752 142.067 18.9294H142.133Z" fill="#373535"/>
<path d="M149.884 23.7601C150.96 23.7601 152.914 21.8714 153.463 18.2706C153.485 18.051 153.507 17.9851 153.551 17.7656C153.31 17.6777 152.98 17.6119 152.651 17.6119C151.838 17.6119 151.004 17.8534 150.257 18.8634C149.489 19.9393 149.159 21.2786 149.159 22.3549C149.159 23.2766 149.423 23.7601 149.862 23.7601H149.884ZM146.348 22.7721C146.348 21.4767 146.788 19.2147 148.434 17.568C149.84 16.1188 151.552 15.7671 153.112 15.7671C154.144 15.7671 155.549 16.0964 156.428 16.2725C156.208 17.2386 155.681 20.8834 155.439 22.9912C155.33 23.8919 155.285 25.1434 155.33 25.6045C154.605 25.9119 153.244 25.9997 152.87 25.9997C152.673 25.9997 152.629 25.0995 152.694 24.2432C152.716 23.9577 152.76 23.5406 152.783 23.3649C151.926 24.7921 150.236 25.9997 148.457 25.9997C147.183 25.9997 146.348 24.9458 146.348 22.794V22.7721Z" fill="#373535"/>
</g>
<defs>
<clipPath id="clip0_1011_356">
<rect width="160" height="40" fill="white"/>
</clipPath>
<clipPath id="clip1_1011_356">
<rect width="60.8387" height="40.8543" fill="white" transform="translate(4 5.44446)"/>
</clipPath>
</defs>
</svg>
