<svg width="107" height="25" viewBox="0 0 107 25" fill="none" xmlns="http://www.w3.org/2000/svg">
<g clip-path="url(#clip0_8732_332)">
<path d="M6.76566 19.3269H0L5.42247 0H19.2771L17.9588 4.57677H10.8698L9.97437 7.88498H17.0385L15.8446 12.0886H8.78043L6.76566 19.3269Z" fill="#006044"/>
<path d="M22.4122 19.3269H15.7212L19.6761 5.19861H26.3672L22.4122 19.3269ZM26.7403 3.85543H20.0492L21.1437 0H27.8347L26.7403 3.85543Z" fill="#006044"/>
<path d="M39.7485 19.3269H33.2067L33.6793 17.735C32.361 18.8543 31.0178 19.6503 28.8538 19.6503C26.6649 19.6503 25.2969 18.6056 25.2969 16.4167C25.2969 13.979 26.267 10.3475 27.6848 7.81035C28.7295 5.91995 30.595 4.925 32.7839 4.925C34.6743 4.925 36.0672 5.74583 36.6144 6.79053L38.48 0H45.171L39.7485 19.3269ZM34.724 9.40227C34.1271 9.40227 33.5301 9.57639 33.2067 10.4221C32.7092 11.616 32.2864 12.7851 32.2864 13.9542C32.2864 14.5014 32.6844 14.974 33.3311 14.974C33.8534 14.974 34.1768 14.8247 34.4753 14.6506L35.8185 10.0241C35.5449 9.62614 35.122 9.40227 34.724 9.40227Z" fill="#006044"/>
<path d="M58.6033 13.1583H49.3751C49.201 13.9045 49.002 14.4268 49.002 15.0238C49.002 15.2974 49.0518 16.0436 49.997 16.0436C50.9173 16.0436 51.3402 15.6705 51.7382 14.3025H58.2799C57.4591 18.3071 52.6834 19.7001 49.7483 19.7001C45.7933 19.7001 42.709 19.128 42.709 15.3223C42.709 13.2329 43.7786 9.75056 45.1715 7.9099C46.8629 5.69614 49.7731 4.87531 52.4844 4.87531C56.6383 4.87531 59.3246 5.72101 59.3246 9.25308C59.3246 10.0988 58.9764 11.9892 58.6033 13.1583ZM51.9371 8.40738C51.1163 8.40738 50.5442 8.97947 50.1711 10.3973H52.9072C52.9818 10.1237 53.0813 9.67594 53.0813 9.40233C53.1062 8.65611 52.6336 8.40738 51.9371 8.40738Z" fill="#006044"/>
<path d="M65.319 19.3269H58.6528L64.0504 0H70.7415L65.319 19.3269Z" fill="#006044"/>
<path d="M74.1495 19.3269H67.4585L71.4134 5.19861H78.1045L74.1495 19.3269ZM78.4776 3.85543H71.7865L72.881 0H79.572L78.4776 3.85543Z" fill="#006044"/>
<path d="M90.4905 5.1986L91.0626 8.38244H85.9386L84.4462 13.7552C84.3218 14.178 84.2223 14.6755 84.2223 15.0237C84.2223 15.6456 84.471 15.8446 85.3914 15.8446H86.8092L85.8142 19.3269H79.8445C77.8795 19.3269 77.1333 18.3568 77.1333 16.9141C77.1333 16.3172 77.2079 15.6704 77.4318 14.9491L81.0633 2.06451H87.7544L86.8838 5.1986H90.4905Z" fill="#006044"/>
<path d="M101.186 16.4913C100.191 16.4913 99.3706 17.3121 99.3706 18.3071C99.3706 19.302 100.191 20.1228 101.186 20.1228C102.181 20.1228 103.002 19.302 103.002 18.3071C103.002 17.3121 102.181 16.4913 101.186 16.4913ZM101.186 19.7995C100.366 19.7995 99.694 19.1279 99.694 18.3071C99.694 17.4862 100.366 16.8146 101.186 16.8146C102.007 16.8146 102.679 17.4862 102.679 18.3071C102.679 19.1279 102.007 19.7995 101.186 19.7995Z" fill="#006044"/>
<path d="M101.908 17.934C101.908 17.5609 101.709 17.3619 101.236 17.3619H100.54V19.2274H100.863V18.4563H101.112L101.584 19.2274H101.957L101.46 18.4314C101.709 18.4066 101.908 18.2573 101.908 17.934ZM100.863 18.1827V17.6604H101.112C101.311 17.6604 101.559 17.6604 101.559 17.9091C101.559 18.1578 101.336 18.1827 101.112 18.1827H100.863Z" fill="#006044"/>
<path d="M99.5202 5.19867L95.8887 13.0339L95.9882 5.19867H89.2225L90.5159 19.327C90.3418 20.1478 90.0682 20.6204 89.5707 20.8443C88.9986 21.093 87.7301 21.0432 87.2575 21.0184H87.1828L86.1133 24.8489H90.6652C93.3515 24.8489 94.6698 23.5057 96.61 20.496L106.361 5.19867H99.5202Z" fill="#006044"/>
</g>
<defs>
<clipPath id="clip0_8732_332">
<rect width="106.36" height="24.8737" fill="white"/>
</clipPath>
</defs>
</svg>
