
<svg width="160" height="40" viewBox="0 0 160 40" fill="none" xmlns="http://www.w3.org/2000/svg">
<g clip-path="url(#clip0_1074_2)">
<path d="M24.1086 27.6047H30.837V26.8893H30.3329C29.3489 26.8893 29.1134 26.6206 29.1134 25.6396V16.7681C29.7986 15.6059 30.7223 14.8603 31.8845 14.8603C33.3454 14.8603 34.2359 15.9319 34.2359 17.9574V25.6396C34.2359 26.6237 33.9974 26.8893 33.0436 26.8893H32.5063V27.6047H39.0867V26.8923H38.6098C37.6258 26.8923 37.3903 26.6237 37.3903 25.6426V17.6284C37.3903 17.3597 37.3903 17.091 37.3601 16.8254C38.0152 15.6331 38.9992 14.8603 40.1583 14.8603C41.6193 14.8603 42.5128 15.9319 42.5128 17.9574V25.6396C42.5128 26.6237 42.2743 26.8893 41.3205 26.8893H40.7832V27.6047H47.3636V26.8923H46.9169C45.9027 26.8923 45.6672 26.6237 45.6672 25.6426V17.6284C45.6672 14.6219 43.9708 12.9526 41.4986 12.9526C39.6542 12.9526 38.0453 13.9668 37.182 15.9893C36.6779 14.0242 35.1868 12.9526 33.2217 12.9526C31.4649 12.9526 29.9465 13.9034 29.1104 15.8112V13.3088H24.1086V14.0242H24.7033C25.7175 14.0242 25.953 14.2928 25.953 15.2739V25.6366C25.953 26.6206 25.7145 26.8863 24.7033 26.8863H24.1086V27.6047ZM51.327 10.9302C52.3986 10.9302 53.2921 10.0367 53.2921 8.96508C53.2921 7.89349 52.3986 7 51.327 7C50.2554 7 49.3619 7.89349 49.3619 8.96508C49.3619 10.0367 50.2554 10.9302 51.327 10.9302ZM47.9915 27.6047H54.6021V26.8893H54.1554C53.1713 26.8893 52.9359 26.6206 52.9359 25.6396V13.3118H47.9311V14.0272H48.5258C49.54 14.0272 49.7755 14.2959 49.7755 15.2769V25.6396C49.7755 26.6237 49.537 26.8893 48.5258 26.8893H47.9885L47.9915 27.6047ZM59.4258 19.2101H61.3305C60.8536 18.9112 60.6755 18.4947 60.437 17.7219L59.7216 15.0716C59.3956 13.8793 59.127 13.3148 57.8169 13.3148H55.0791V14.0302H55.4685C56.2714 14.0302 56.362 14.3291 56.6004 15.2226L57.2253 17.5469C57.5513 18.6758 58.0614 19.2101 59.4258 19.2101ZM63.8359 19.2101H65.7406C67.1111 19.2101 67.585 18.6728 67.914 17.5438L68.5388 15.2195C68.7773 14.326 68.895 14.0272 69.6708 14.0272H70.0602V13.3118H67.3495C66.0093 13.3118 65.7406 13.8491 65.4418 15.0686L64.7264 17.7189C64.491 18.5218 64.3098 18.9112 63.8359 19.2101ZM61.3335 21.7094H63.8359V19.2071H61.3335V21.7094ZM55.0791 27.6077H57.8169C59.127 27.6077 59.3956 27.0402 59.7216 25.8509L60.437 23.2006C60.6755 22.4279 60.8536 22.0083 61.3305 21.7125H59.4258C58.0554 21.7125 57.5483 22.2498 57.2223 23.3787L56.5974 25.703C56.3589 26.5965 56.2714 26.8953 55.4655 26.8953H55.0761L55.0791 27.6077ZM67.3465 27.6077H70.0572V26.8923H69.6678C68.895 26.8923 68.7743 26.5935 68.5358 25.7L67.911 23.3757C67.585 22.2437 67.108 21.7094 65.7376 21.7094H63.8359C64.3129 22.0083 64.4849 22.3947 64.7234 23.1976L65.4388 25.8479C65.7376 27.0704 66.0063 27.6077 67.3465 27.6077ZM70.4436 33.5633H77.35V32.8479H76.6346C75.6838 32.8479 75.4423 32.5793 75.4423 31.5983V25.9113C76.3056 27.1912 77.7666 27.9669 79.4932 27.9669C82.7382 27.9669 85.3281 25.1083 85.3281 20.167C85.3281 15.6995 82.8861 12.9617 79.7286 12.9617C77.8843 12.9617 76.3328 14.0332 75.4393 15.938V13.3178H70.4345V14.0332H71.0292C72.0132 14.0332 72.2788 14.3019 72.2788 15.2829V31.5983C72.2788 32.5823 72.0102 32.8479 71.0292 32.8479H70.4345V33.5633H70.4436ZM78.6057 14.803C80.5406 14.803 82.1193 16.6202 82.1193 20.2213C82.1193 24.1515 80.6584 26.2977 78.6661 26.2977C77.3832 26.2977 76.2543 25.6124 75.4483 24.4201V17.0337C76.2211 15.5757 77.3259 14.8 78.6057 14.803ZM90.0401 27.9066C91.9749 27.9066 93.5235 26.9829 94.6856 24.9001V25.2261C94.6856 27.0131 95.8176 27.7858 97.6921 27.7858C98.2596 27.7858 98.975 27.7285 99.4489 27.5775V26.8319C99.2104 26.8893 99.0323 26.9225 98.8542 26.9225C98.1087 26.9225 97.8702 26.4758 97.8702 25.7604V18.1385C97.8702 14.6249 95.9051 12.9556 92.5998 12.9556C90.3962 12.9556 88.2531 13.9699 86.8826 15.0414L87.3596 15.8776C88.7904 14.8935 90.188 14.3291 91.7063 14.3291C93.6714 14.3291 94.6826 15.4007 94.6826 17.903V18.5581L91.0181 19.9889C87.6826 21.3593 86.46 22.6392 86.46 24.5741C86.4631 26.5059 87.8335 27.9066 90.0401 27.9066ZM89.5933 23.7953C89.5933 22.3071 90.4566 21.2355 92.2134 20.4598L94.6856 19.3882V24.0337C93.7619 25.3136 92.6904 26.0592 91.5282 26.0592C90.3691 26.0592 89.5963 25.2563 89.5933 23.7953ZM100.044 27.6077H106.835V26.8923H106.268C105.284 26.8923 105.048 26.6237 105.048 25.6426V16.7982C105.734 15.6059 106.745 14.8634 107.937 14.8634C109.486 14.8634 110.47 15.9349 110.47 17.9604V25.6426C110.47 26.6267 110.231 26.8923 109.277 26.8923H108.71V27.6077H115.468V26.8923H114.874C113.86 26.8923 113.624 26.6237 113.624 25.6426V17.6284C113.624 14.6219 111.837 12.9526 109.308 12.9526C107.463 12.9526 105.912 13.9034 105.048 15.8112V13.3088H100.044V14.0242H100.638C101.652 14.0242 101.888 14.2928 101.888 15.2739V25.6366C101.888 26.6206 101.649 26.8863 100.638 26.8863H100.044V27.6077ZM123.211 27.9639C125.176 27.9639 127.023 27.0704 128.364 25.9988L127.917 25.3438C126.725 26.2071 125.384 26.5935 124.135 26.5935C121.098 26.5935 119.311 24.4503 119.311 20.2817V19.7444H128.72C128.663 15.7236 126.187 12.9858 122.586 12.9858C118.985 12.9858 116.093 16.2308 116.093 20.5201C116.096 25.2291 118.777 27.9669 123.211 27.9639ZM122.616 13.7284C124.403 13.7284 125.505 15.6633 125.683 18.9384H119.371C119.64 15.6361 120.89 13.7284 122.616 13.7284ZM129.375 27.6047H136.281V26.8893H135.596C134.612 26.8893 134.377 26.6206 134.377 25.6396V7.35619H129.372V8.07159H129.967C130.951 8.07159 131.216 8.34024 131.216 9.32127V25.6396C131.216 26.6237 130.948 26.8893 129.967 26.8893H129.372L129.375 27.6047Z" fill="#7856FF"/>
</g>
<defs>
<clipPath id="clip0_1074_2">
<rect width="112.173" height="26.5633" fill="white" transform="translate(24.1086 7)"/>
</clipPath>
</defs>
</svg>
