<svg version="1.1" xmlns="http://www.w3.org/2000/svg" xmlns:xlink="http://www.w3.org/1999/xlink" x="0px" y="0px" width="110px"
	 height="37.5px" viewBox="0 0 110 37.5" overflow="visible" enable-background="new 0 0 110 37.5" xml:space="preserve">
<defs>
</defs>
<path id="path2_1_" fill="#4386FA" d="M9.6,36.2l-9.2-16c-0.5-0.9-0.5-1.9,0-2.8l9.2-16C10.1,0.5,11,0,12,0h18.5
	c1,0,1.9,0.5,2.4,1.4l9.2,16c0.5,0.9,0.5,1.9,0,2.8l-9.3,16c-0.5,0.9-1.4,1.4-2.4,1.4H12C11,37.5,10.1,37,9.6,36.2L9.6,36.2z"/>
<path id="path4_1_" opacity="0.1" enable-background="new    " d="M27,13.6c0,0,2.6,6.2-0.9,9.7s-9.9,1.3-9.9,1.3l13,13h1.3
	c1,0,1.9-0.5,2.4-1.4L39,25.6L27,13.6z"/>
<path id="path6_1_" fill="#FFFFFF" d="M30.1,26.2l-2.8-2.8c0,0-0.1-0.1-0.1-0.1c2.6-3.4,2-8.2-1.4-10.8c-3.1-2.4-7.4-2.1-10.2,0.7
	c-2.9,2.9-3,7.5-0.3,10.6c2.7,3,7.3,3.5,10.5,0.9c0,0,0,0.1,0.1,0.1l2.8,2.8c0.1,0.1,0.2,0.1,0.3,0.1c0.1,0,0.2,0,0.3-0.1l0.8-0.8
	c0.1-0.1,0.1-0.2,0.1-0.3C30.2,26.4,30.1,26.3,30.1,26.2L30.1,26.2z M21,24.4c-2.3,0-4.5-1.4-5.4-3.6c-0.9-2.2-0.4-4.7,1.3-6.3
	c2.3-2.3,5.9-2.3,8.2,0c1.1,1.1,1.7,2.6,1.7,4.1C26.8,21.8,24.2,24.4,21,24.4L21,24.4z M17.3,18.3v2.4c0.4,0.7,0.9,1.2,1.6,1.6v-4
	L17.3,18.3z M20.2,16.3v6.5c0.5,0.1,1,0.1,1.6,0v-6.5L20.2,16.3z M24.7,20.7v-1.4h-1.6v3C23.8,21.9,24.3,21.3,24.7,20.7L24.7,20.7z"
	/>
<path id="path8_1_" fill="#767677" d="M64.6,8.3h-7v2.1h5c-0.2,2.9-2.7,4.2-5,4.2c-1.5,0-2.9-0.6-3.9-1.6s-1.6-2.4-1.6-3.9V9
	c0-1.5,0.5-2.9,1.6-3.9s2.4-1.6,3.9-1.6C59,3.4,60.3,4,61.3,5l1.5-1.5c-1.4-1.4-3.3-2.1-5.3-2.1c-6-0.1-9.8,6.4-6.7,11.6
	c1.4,2.4,4.1,3.8,6.8,3.7c4.1,0,7.1-2.8,7.1-7C64.7,9.3,64.7,8.8,64.6,8.3L64.6,8.3z M70.4,6.8c-2.7-0.1-4.9,2.1-5,4.8v0.1
	c0,2.7,2.2,5,4.9,5s5-2.2,5-4.9C75.3,8.5,72.7,6.8,70.4,6.8L70.4,6.8z M70.4,8.8c1.4,0,2.8,1.1,2.8,3s-1.3,3-2.8,3
	c-1.6,0-2.8-1.2-2.8-3S68.8,8.8,70.4,8.8L70.4,8.8z M81.1,6.8c-2.7,0-4.9,2.1-4.9,4.8v0.1c0,2.7,2.2,5,4.9,5s5-2.2,5-4.9
	C86,8.5,83.5,6.8,81.1,6.8L81.1,6.8z M81.1,8.8c1.4,0,2.8,1.1,2.8,3s-1.3,3-2.8,3c-1.6,0-2.8-1.2-2.8-3S79.5,8.8,81.1,8.8L81.1,8.8z
	 M91.6,6.8c-2.6,0-4.7,2.3-4.7,4.9c0,2.6,2,4.8,4.7,4.9c1,0.1,2-0.4,2.7-1.2v1c0,1.7-1,2.7-2.6,2.7c-1.1,0-2.1-0.7-2.5-1.8l-1.9,0.8
	c0.7,1.4,2,2.9,4.4,2.9c2.6,0,4.6-1.7,4.6-5.1V7.1h-2.1v0.8C93.6,7.2,92.7,6.8,91.6,6.8L91.6,6.8z M91.8,8.7c1.3,0,2.6,1.1,2.6,3
	s-1.3,3-2.7,3c-1.4,0-2.7-1.1-2.7-3C89.1,9.9,90.5,8.7,91.8,8.7L91.8,8.7z M105.5,6.8c-2.5,0-4.6,2-4.6,4.9c-0.1,2.7,2.1,5,4.8,4.9
	c1.7,0,3.2-0.8,4.1-2.2l-1.7-1.1c-0.5,0.9-1.4,1.4-2.4,1.4c-1,0-2-0.6-2.4-1.5l6.6-2.7l-0.3-0.8C109,8,107.4,6.8,105.5,6.8
	L105.5,6.8z M105.6,8.7c0.8,0,1.5,0.4,1.8,1.1l-4.4,1.9C102.8,10.2,104.2,8.7,105.6,8.7L105.6,8.7z M97.8,16.4h2.2V1.9h-2.2
	L97.8,16.4z M50.1,33.1v-9.5h3.4c0.7,0,1.4,0.3,1.9,0.8c0.5,0.5,0.8,1.1,0.8,1.8c0,0.9-0.5,1.7-1.3,2v0.1c0.5,0.1,0.9,0.4,1.2,0.8
	c0.3,0.4,0.4,0.9,0.4,1.3c0,0.7-0.3,1.4-0.8,1.9c-0.6,0.5-1.3,0.8-2,0.8L50.1,33.1L50.1,33.1z M51.3,24.7v2.9h2.2
	c0.4,0,0.8-0.1,1.1-0.4c0.6-0.5,0.6-1.4,0-2l0,0c-0.3-0.3-0.7-0.4-1-0.4L51.3,24.7L51.3,24.7z M51.3,28.8v3.1h2.5
	c0.9,0,1.6-0.7,1.6-1.5c0-0.4-0.2-0.8-0.5-1.1c-0.3-0.3-0.7-0.5-1.2-0.5L51.3,28.8L51.3,28.8z M59.4,24.3c0,0.9-1.3,1.2-1.7,0.3
	c-0.4-0.9,0.7-1.6,1.4-0.9C59.3,23.9,59.4,24.1,59.4,24.3L59.4,24.3z M59.1,26.6v6.5h-1.2v-6.5H59.1z M63.5,36.2c-0.3,0-0.7,0-1-0.1
	c-0.3-0.1-0.6-0.2-0.9-0.4c-0.3-0.2-0.5-0.4-0.7-0.6c-0.2-0.2-0.3-0.5-0.4-0.8l1.2-0.5c0.1,0.4,0.4,0.7,0.7,0.9
	c0.3,0.2,0.7,0.3,1.1,0.3c0.6,0,1.1-0.2,1.6-0.6c0.4-0.5,0.6-1,0.6-1.6v-0.6h-0.1c-0.2,0.3-0.6,0.6-0.9,0.8
	c-0.4,0.2-0.8,0.3-1.3,0.3c-0.8,0-1.6-0.4-2.2-1c-0.6-0.7-0.9-1.6-0.9-2.5c0-0.9,0.3-1.8,0.9-2.5c0.5-0.6,1.3-1,2.2-1
	c0.4,0,0.9,0.1,1.3,0.3c0.4,0.2,0.7,0.5,0.9,0.8h0.1v-0.9h1.2v6.2c0.1,0.9-0.3,1.8-0.9,2.5C65.3,35.9,64.4,36.2,63.5,36.2L63.5,36.2
	z M63.6,32.2c0.6,0,1.1-0.2,1.5-0.7c0.8-1,0.8-2.4,0-3.4c-0.4-0.4-0.9-0.7-1.5-0.7c-0.6,0-1.1,0.2-1.5,0.7c-0.4,0.5-0.6,1.1-0.6,1.7
	c0,0.6,0.2,1.2,0.6,1.7C62.5,31.9,63,32.2,63.6,32.2L63.6,32.2z"/>
<path id="path41_1_" fill="#767677" d="M77.3,33.1l-1,0.6l-0.7-1c-0.7,0.4-1.5,0.5-2.3,0.5c-1.3,0-2.6-0.5-3.5-1.4
	c-1.9-2-1.9-5.1,0-7.1c1.9-1.9,5-1.9,7,0c0.9,0.9,1.4,2.2,1.4,3.5c0,0.7-0.1,1.4-0.4,2.1c-0.3,0.6-0.7,1.2-1.2,1.7L77.3,33.1z
	 M73.4,32.1c0.6,0,1.1-0.1,1.6-0.4L73.9,30l1-0.7l1.1,1.7c0.7-0.7,1.1-1.7,1.1-2.8c0-1-0.3-2-1-2.7c-0.7-0.7-1.6-1.1-2.6-1.1
	c-1,0-1.9,0.4-2.6,1.1c-1.4,1.5-1.4,3.9,0,5.4C71.5,31.7,72.5,32.1,73.4,32.1L73.4,32.1z M85.3,33.1h-1.2v-0.9h-0.1
	c-0.2,0.3-0.5,0.6-0.9,0.8c-0.4,0.2-0.8,0.3-1.2,0.3c-0.7,0-1.4-0.2-1.8-0.7c-0.5-0.5-0.7-1.2-0.6-1.9v-4.1h1.2v4
	c0,1.1,0.6,1.6,1.6,1.6c0.5,0,0.9-0.2,1.2-0.6c0.3-0.4,0.5-0.9,0.5-1.4v-3.6h1.2L85.3,33.1L85.3,33.1z M89.6,33.3
	c-0.9,0-1.8-0.3-2.4-1c-0.6-0.7-1-1.6-0.9-2.5c0-0.9,0.3-1.8,0.9-2.5c1.3-1.3,3.3-1.3,4.6-0.1c0.6,0.7,0.9,1.7,0.9,2.6V30h-5.1
	c0,0.6,0.2,1.1,0.6,1.5c1,1,2.7,0.7,3.3-0.6l1.1,0.5c-0.3,0.5-0.7,1-1.2,1.3C90.9,33.1,90.3,33.3,89.6,33.3L89.6,33.3z M87.7,29h3.7
	c0-0.4-0.2-0.8-0.6-1.1c-0.4-0.3-0.8-0.5-1.3-0.4c-0.4,0-0.9,0.1-1.2,0.4C88,28.2,87.8,28.6,87.7,29L87.7,29z M95,33.1h-1.2v-6.5H95
	v1.1H95c0.1-0.4,0.4-0.7,0.8-0.9c0.3-0.2,0.7-0.4,1.1-0.4c0.3,0,0.6,0,0.9,0.2l-0.4,1.2c-0.2-0.1-0.5-0.1-0.7-0.1
	c-0.5,0-0.9,0.2-1.2,0.6C95.2,28.5,95,29,95,29.5L95,33.1L95,33.1z M104.6,26.6l-4.1,9.4h-1.3l1.5-3.3l-2.7-6.1h1.3l1.9,4.7h0
	l1.9-4.7L104.6,26.6L104.6,26.6z"/>
</svg>
