<svg width="204" height="21" viewBox="0 0 204 21" fill="none" xmlns="http://www.w3.org/2000/svg">
<g clip-path="url(#clip0_8732_296)">
<path d="M188.303 19.5783C188.303 19.125 188.672 18.7567 189.153 18.7567C189.635 18.7567 190.003 19.125 190.003 19.5783C190.003 20.0317 189.635 20.4283 189.153 20.4283C188.672 20.4283 188.303 20.06 188.303 19.5783ZM188.473 19.5783C188.473 19.9467 188.785 20.2583 189.182 20.2583C189.55 20.2583 189.862 19.975 189.862 19.5783C189.862 19.21 189.55 18.9267 189.182 18.9267C188.757 18.9267 188.473 19.2383 188.473 19.5783Z" fill="#E31837"/>
<path d="M189.578 20.06H189.408L189.125 19.635H188.955V20.06H188.842V19.125H189.267C189.352 19.125 189.437 19.125 189.493 19.1817C189.578 19.21 189.607 19.295 189.607 19.38C189.607 19.55 189.465 19.635 189.295 19.635L189.578 20.06ZM189.125 19.5217C189.267 19.5217 189.437 19.55 189.437 19.38C189.437 19.2667 189.323 19.2383 189.21 19.2383H188.955V19.5217H189.125Z" fill="#E31837"/>
<path d="M185.102 20.4283C191.052 15.3283 199.41 10.37 204 8.585C203.292 8.13167 202.187 7.48 200.94 6.77167C195.018 8.72667 188.105 13.0617 181.928 17.9633C182.977 18.7567 184.082 19.5783 185.102 20.4283Z" fill="#E31837"/>
<path d="M182.382 6.57332C181.503 6.14832 180.54 5.75165 179.803 5.41165C177.565 6.51665 174.647 8.18832 170.963 10.8233C171.757 11.2483 172.607 11.7583 173.513 12.2683C176.347 10.1717 179.208 8.18832 182.382 6.57332Z" fill="#012169"/>
<path d="M187.68 4.13668C186.603 3.54168 182.863 2.15335 180.285 1.55835C179.52 1.84168 178.443 2.26668 177.707 2.57835C178.642 2.83335 182.127 3.76835 185.102 5.27002C185.867 4.90168 186.943 4.44835 187.68 4.13668Z" fill="#E31837"/>
<path d="M175.015 3.76831C171.7 5.29831 168.215 7.39498 166.316 8.61331C166.996 8.92498 167.676 9.17998 168.611 9.63331C172.805 6.79998 176.091 5.07164 177.395 4.50498C176.46 4.16498 175.581 3.93831 175.015 3.76831Z" fill="#012169"/>
<path d="M190.173 3.25833C190.938 3.00333 191.817 2.77667 192.582 2.55C190.372 1.615 187.595 0.623333 185.102 0C184.705 0.113333 183.515 0.425 182.693 0.68C183.543 0.935 186.348 1.58667 190.173 3.25833ZM176.205 13.9117C177.112 14.45 178.075 15.1867 179.01 15.81C185.215 10.9933 191.335 7.28167 198.05 5.185C197.115 4.70333 196.293 4.27833 195.245 3.76833C191.222 4.78833 184.337 7.53667 176.205 13.9117Z" fill="#E31837"/>
<path d="M0 18.955H4.53333C6.82833 18.955 7.905 17.765 7.905 16.0933C7.905 14.7333 7.19667 13.8267 5.72333 13.5433C7.02667 13.2317 7.62167 12.4383 7.62167 11.2767C7.62167 9.80332 6.545 8.61332 4.25 8.61332H0.0283333V18.955H0ZM3.93833 14.5633C4.78833 14.5633 5.38333 14.9883 5.38333 15.8383C5.38333 16.745 4.81667 17.1133 3.93833 17.1133H2.465V14.535H3.93833V14.5633ZM3.655 10.4267C4.505 10.4267 5.1 10.795 5.1 11.645C5.1 12.495 4.53333 12.8633 3.655 12.8633H2.465V10.4267H3.655ZM17.0567 8.58499H14.5067L10.625 18.955H13.2033L13.9117 16.8017H17.6517L18.36 18.955H20.9667L17.0567 8.58499ZM15.7817 11.0783L17 14.9033H14.5067L15.7817 11.0783ZM33.8867 8.58499H31.535V15.5267L27.115 8.58499H24.48V18.955H26.8317V12.0417L31.2517 18.955H33.8867V8.58499ZM44.7383 18.955L41.3383 13.685V18.955H38.8167V8.58499H41.3383V13.5717L44.5683 8.58499H47.3733L43.9733 13.5717L47.685 18.955H44.7383ZM56.61 13.77C56.61 15.8383 57.8567 17.1133 59.4717 17.1133C61.0867 17.1133 62.3333 15.8383 62.3333 13.77C62.3333 11.7017 61.0867 10.4267 59.4717 10.4267C57.8567 10.4267 56.61 11.7017 56.61 13.77ZM53.9467 13.77C53.975 10.7383 56.1 8.35832 59.4717 8.35832C62.8433 8.35832 64.9683 10.7383 64.9967 13.77C64.9683 16.8017 62.8433 19.1817 59.4717 19.1817C56.1 19.1817 53.975 16.8017 53.9467 13.77ZM68.4533 18.955H70.975V14.875H74.2617V12.8917H70.975V10.5683H74.9417L75.395 8.58499H68.4533V18.955ZM87.1533 8.58499H84.6033L80.7217 18.955H83.3L84.0083 16.8017H87.7483L88.4567 18.955H91.0633L87.1533 8.58499ZM85.8783 11.0783L87.0967 14.9033H84.6033L85.8783 11.0783ZM106.023 8.58499H103.077L100.385 14.195L97.6933 8.58499H94.7467V18.955H97.0133V12.0133L100.357 18.955L103.7 12.0133V18.955H106.052L106.023 8.58499ZM110.925 18.955H118.008V16.9717H113.447V14.6483H117.045V12.7217H113.447V10.5683H117.612L118.065 8.58499H110.925V18.955ZM127.613 18.955H130.362L127.783 14.5633C129.2 14.1667 129.88 13.175 129.88 11.73C129.88 9.85999 128.747 8.61332 126.197 8.61332H122.202V18.9833H124.667V14.9033H125.347L127.613 18.955ZM125.715 10.5117C126.763 10.5117 127.302 10.965 127.302 11.8433C127.302 12.7217 126.763 13.175 125.715 13.175H124.638V10.5117H125.715ZM134.13 18.955H136.652V8.61332H134.13V18.955ZM149.062 16.1783C148.098 16.8583 147.248 17.085 146.37 17.085C144.443 17.085 143.083 15.7533 143.083 13.77C143.083 11.7867 144.415 10.455 146.285 10.455C147.135 10.455 147.985 10.6817 148.92 11.3617V9.00999C148.07 8.52832 147.078 8.32999 145.973 8.32999C142.545 8.32999 140.392 10.71 140.363 13.7417C140.392 16.8017 142.488 19.1533 145.973 19.1533C147.135 19.1533 148.127 18.955 149.033 18.4733V16.1783H149.062ZM158.298 8.58499H155.748L151.867 18.955H154.445L155.153 16.8017H158.893L159.602 18.955H162.208L158.298 8.58499ZM157.023 11.0783L158.242 14.9033H155.748L157.023 11.0783Z" fill="#012169"/>
</g>
<defs>
<clipPath id="clip0_8732_296">
<rect width="204" height="20.4283" fill="white"/>
</clipPath>
</defs>
</svg>
