<svg width="136" height="26" viewBox="0 0 136 26" fill="none" xmlns="http://www.w3.org/2000/svg">
<g clip-path="url(#clip0_8732_313)">
<path d="M47.809 9.06708C44.2676 9.06708 42.0977 11.3586 42.0977 15.386C42.0977 19.4135 44.2676 21.6876 47.809 21.6876C51.3504 21.6876 53.503 19.3961 53.503 15.386C53.503 11.3759 51.3851 9.06708 47.809 9.06708ZM47.809 19.8474C45.5696 19.8474 44.6669 18.0073 44.6669 15.4034C44.6842 12.7647 45.5696 10.9419 47.809 10.9419C50.0484 10.9419 50.9511 12.7647 50.9511 15.386C50.9511 18.0073 50.0484 19.8474 47.809 19.8474Z" fill="black"/>
<path d="M80.254 9.06708C78.5007 9.06708 77.4765 9.86562 76.7126 10.8898C76.6085 11.0114 76.5217 11.1329 76.3481 11.1329C76.1745 11.1329 76.0356 11.0114 76.0356 10.7683V9.31011H73.7441V21.4619H76.1745V14.7611C76.1745 12.5911 77.3376 11.0461 79.1604 11.0461C80.879 11.0461 81.7296 12.0356 81.7296 14.1882V21.4619H84.16V13.5459C84.16 10.751 82.8927 9.06708 80.254 9.06708Z" fill="black"/>
<path d="M93.2389 9.06703C91.6071 9.06703 90.5481 9.79614 89.8364 10.7162C89.7322 10.8377 89.6454 10.9592 89.4718 10.9592C89.2982 10.9592 89.1594 10.8377 89.1594 10.5947V4.06744H86.729V21.4619H89.1594V14.761C89.1594 12.5911 90.3225 11.046 92.1452 11.046C93.8638 11.046 94.7145 12.0355 94.7145 14.1881V21.4619H97.1448V13.5458C97.1448 10.7509 95.8776 9.06703 93.2389 9.06703Z" fill="black"/>
<path d="M104.731 9.06708C101.189 9.06708 99.0195 11.3586 99.0195 15.386C99.0195 19.4135 101.189 21.6876 104.731 21.6876C108.272 21.6876 110.425 19.3961 110.425 15.386C110.407 11.3586 108.307 9.06708 104.731 9.06708ZM104.731 19.8474C102.491 19.8474 101.589 18.0073 101.589 15.4034C101.589 12.7994 102.491 10.9593 104.731 10.9593C106.97 10.9593 107.873 12.7821 107.873 15.4034C107.856 17.99 106.97 19.8474 104.731 19.8474Z" fill="black"/>
<path d="M117.473 9.06708C113.932 9.06708 111.762 11.3586 111.762 15.386C111.762 19.4135 113.932 21.6876 117.473 21.6876C121.014 21.6876 123.167 19.3961 123.167 15.386C123.167 11.3759 121.049 9.06708 117.473 9.06708ZM117.473 19.8474C115.234 19.8474 114.331 18.0073 114.331 15.4034C114.331 12.7994 115.234 10.9593 117.473 10.9593C119.712 10.9593 120.615 12.7821 120.615 15.4034C120.615 18.0247 119.712 19.8474 117.473 19.8474Z" fill="black"/>
<path d="M71.1056 9.31012H68.6753V21.4619H71.1056V9.31012Z" fill="black"/>
<path d="M71.1748 4.06744H68.5708V6.84499H71.1748V4.06744Z" fill="black"/>
<path d="M133.27 4.06744V10.2822C133.27 10.5252 133.131 10.6468 132.958 10.6468C132.836 10.6468 132.663 10.5252 132.593 10.4558C131.725 9.53575 130.788 9.06704 129.312 9.06704C126.691 9.06704 124.556 11.0808 124.556 15.386C124.556 19.6912 126.691 21.6875 129.312 21.6875C130.84 21.6875 131.795 21.0973 132.715 20.1772C132.854 20.0384 132.958 19.9516 133.079 19.9516C133.253 19.9516 133.392 20.0731 133.392 20.3161V21.4619H135.701V4.06744H133.27ZM130.232 19.83C127.993 19.8474 127.09 17.9899 127.09 15.386C127.09 12.782 127.993 10.9419 130.232 10.9419C132.472 10.9419 133.374 12.7646 133.374 15.386C133.374 18.0073 132.506 19.83 130.232 19.83Z" fill="black"/>
<path d="M61.9045 9.06704C60.4289 9.06704 59.4915 9.53575 58.6235 10.4558C58.5541 10.5252 58.3805 10.6468 58.2589 10.6468C58.0854 10.6468 57.9465 10.5252 57.9465 10.2822V4.06744H55.5161V21.4619H57.8076V20.3161C57.8076 20.0731 57.9465 19.9516 58.1201 19.9516C58.2416 19.9516 58.3457 20.021 58.4846 20.1772C59.4047 21.0973 60.3595 21.6875 61.8871 21.6875C64.5084 21.6875 66.661 19.6912 66.661 15.386C66.661 11.0808 64.5258 9.06704 61.9045 9.06704ZM60.9671 19.8474C58.7103 19.8474 57.825 18.0073 57.825 15.4033C57.825 12.7994 58.6929 10.9592 60.9671 10.9592C63.2412 10.9592 64.1092 12.782 64.1092 15.4033C64.1092 17.9899 63.2065 19.8474 60.9671 19.8474Z" fill="black"/>
<path d="M38.2782 13.7195C38.0873 13.6501 38.0178 13.5285 38.0178 13.3723C38.0178 13.1987 38.0873 13.1293 38.3129 13.0078C39.6323 12.3828 40.4308 11.1329 40.4308 9.43166C40.4308 6.44579 38.556 4.64038 34.7889 4.64038H28.2964V21.4619H30.8656V14.518H35.0146C36.9762 14.518 37.6359 15.3513 37.688 16.7054L37.931 21.4619H40.4655L40.2051 16.5318C40.101 14.9 39.4587 14.1535 38.2782 13.7195ZM34.6153 12.5217H30.8656V6.68882H34.6153C36.5596 6.68882 37.7574 7.64361 37.7574 9.60525C37.7574 11.5669 36.5596 12.5217 34.6153 12.5217Z" fill="black"/>
<path d="M12.8394 5.85553H7.56203C7.37107 5.85553 7.20962 5.93191 7.07595 6.09857L3.29154 10.7857C2.73603 11.4801 2.59715 12.1224 2.59715 13.0424V17.8337C1.36462 21.2883 0.583429 23.6319 0.010559 25.7497C-0.0241604 25.8851 0.0279187 25.9581 0.149437 25.9581H0.722306C0.826465 25.9581 0.930623 25.906 0.965342 25.8192C5.28791 14.8131 9.99238 9.36219 12.9435 6.09857C13.065 5.95969 13.013 5.85553 12.8394 5.85553Z" fill="black"/>
<path d="M12.9957 0.456588C12.6415 0.593729 12.3013 0.826349 12.145 0.960019C10.5827 2.29672 9.54108 3.35566 8.55158 4.39724C8.43006 4.51876 8.48214 4.64027 8.65574 4.64027H14.506C15.0441 4.64027 15.3566 4.95275 15.3566 5.4909V12.0876C15.3566 12.2612 15.4955 12.3133 15.5996 12.157L19.1236 7.5567C19.6965 6.81024 19.8701 6.58456 20.0263 5.54298C20.2347 4.01533 20.1131 1.67177 19.1931 0.699624C18.3772 -0.168361 14.6969 -0.20308 12.9957 0.456588Z" fill="black"/>
<path d="M13.8807 7.17483C10.2525 11.2196 7.42289 15.4728 4.80157 20.5939C4.73561 20.7223 4.81893 20.8369 4.97517 20.7848L10.3914 19.1183C11.0025 18.9308 11.3462 18.6843 11.6413 18.1982L14.0543 14.2229C14.1064 14.1187 14.1237 13.9972 14.1237 13.9104V7.27899C14.1237 7.10539 14.0022 7.03595 13.8807 7.17483Z" fill="black"/>
</g>
<defs>
<clipPath id="clip0_8732_313">
<rect width="135.701" height="25.9579" fill="white"/>
</clipPath>
</defs>
</svg>
