<svg width="51" height="30" viewBox="0 0 51 30" fill="none" xmlns="http://www.w3.org/2000/svg">
<mask id="mask0_8732_286" style="mask-type:luminance" maskUnits="userSpaceOnUse" x="0" y="0" width="51" height="30">
<path d="M50.5525 0.286407H0.447266V29.24H50.5525V0.286407Z" fill="white"/>
</mask>
<g mask="url(#mask0_8732_286)">
<path d="M0.490723 19.9297C0.490723 14.7632 4.72104 10.7409 10.2343 10.7409C13.4244 10.7409 16.3371 12.1625 18.0015 14.3124L15.6089 16.7049C14.9744 15.8924 14.1646 15.2335 13.2401 14.7772C12.3156 14.321 11.2999 14.0791 10.269 14.0697C6.97488 14.0697 4.33961 16.5316 4.33961 19.9297C4.33961 23.3626 6.97488 25.8244 10.269 25.8244C11.3369 25.8232 12.39 25.5753 13.3463 25.1001C14.3026 24.625 15.1363 23.9354 15.7823 23.0851L18.1402 25.4084C16.5452 27.6622 13.4938 29.1532 10.2343 29.1532C4.72104 29.1532 0.490723 25.1309 0.490723 19.9297Z" fill="#255BE3"/>
<path d="M21.2607 11.3651H25.0403V28.5291H21.2607V11.3651Z" fill="#255BE3"/>
<path d="M32.0795 23.9173V14.5551H27.9531V11.365H32.2528V7.68945L35.7897 5.95572V11.365H41.407V14.5551H35.7897V23.2932C35.7897 25.0269 36.7606 25.7898 38.5983 25.7898C39.5545 25.7947 40.5006 25.5937 41.3723 25.2003V28.4598C40.2802 28.9389 39.0972 29.1756 37.9048 29.1532C34.5413 29.1532 32.0795 27.3155 32.0795 23.9173Z" fill="#255BE3"/>
<path d="M44.3892 11.3651H48.1687V28.5291H44.3892V11.3651Z" fill="#255BE3"/>
<path d="M34.6799 0.442438C37.784 0.435012 40.8444 1.17469 43.6024 2.59893C46.3605 4.02326 48.7353 6.09037 50.5264 8.6257H46.1227C44.6792 7.02135 42.9146 5.73847 40.9433 4.86029C38.972 3.98211 36.838 3.5283 34.6799 3.5283C32.5219 3.5283 30.3879 3.98211 28.4166 4.86029C26.4452 5.73847 24.6806 7.02135 23.2372 8.6257H18.8335C20.6245 6.09037 22.9994 4.02326 25.7574 2.59893C28.5155 1.17469 31.5758 0.435012 34.6799 0.442438Z" fill="#FF3C28"/>
</g>
</svg>
