<svg width="160" height="40" viewBox="0 0 160 40" fill="none" xmlns="http://www.w3.org/2000/svg">
<g clip-path="url(#clip0_1011_356)">
<g clip-path="url(#clip1_1011_356)">
<mask id="mask0_1011_356" style="mask-type:luminance" maskUnits="userSpaceOnUse" x="-9" y="-16" width="190" height="246">
<path d="M-8.78873 -15.6976H180.722V229.552H-8.78873V-15.6976Z" fill="white"/>
</mask>
<g mask="url(#mask0_1011_356)">
<path d="M56.5114 15.7378C57.0019 21.4516 48.0098 26.8898 36.4273 27.8835C24.8449 28.8772 15.0578 25.0499 14.5679 19.3364C14.0774 13.6216 23.0696 8.18372 34.6521 7.19003C46.2345 6.19665 56.0216 10.0231 56.5114 15.7378Z" fill="#BBE6FB"/>
</g>
<mask id="mask1_1011_356" style="mask-type:luminance" maskUnits="userSpaceOnUse" x="-9" y="-16" width="190" height="246">
<path d="M-8.78873 -15.6976H180.722V229.552H-8.78873V-15.6976Z" fill="white"/>
</mask>
<g mask="url(#mask1_1011_356)">
<mask id="mask2_1011_356" style="mask-type:luminance" maskUnits="userSpaceOnUse" x="20" y="7" width="29" height="21">
<path d="M20.9408 7.8581H48.2806V27.1114H20.9408V7.8581Z" fill="white"/>
</mask>
<g mask="url(#mask2_1011_356)">
<g opacity="0.350006">
<path d="M34.9922 7.86002C30.574 7.78818 25.404 9.54239 21.5571 11.1851C21.1567 12.3389 20.9412 13.5661 20.9412 14.8382C20.9412 21.616 27.0613 27.1111 34.611 27.1111C42.1608 27.1111 48.2809 21.616 48.2809 14.8382C48.2809 12.6932 47.6665 10.6779 46.5892 8.92338C43.5115 8.44496 39.2785 7.92969 34.9922 7.86002Z" fill="white"/>
</g>
</g>
</g>
<mask id="mask3_1011_356" style="mask-type:luminance" maskUnits="userSpaceOnUse" x="-9" y="-16" width="190" height="246">
<path d="M-8.78873 -15.6976H180.722V229.552H-8.78873V-15.6976Z" fill="white"/>
</mask>
<g mask="url(#mask3_1011_356)">
<path d="M34.6107 7.85872C32.1647 7.70947 27.9487 8.98557 24.4332 10.2586C23.899 11.5192 23.6024 12.8987 23.6024 14.3464C23.6024 20.285 28.9867 25.0992 34.6826 25.0992C40.341 25.0992 45.3472 20.2772 45.7628 14.3464C45.8978 12.415 45.2329 10.5952 44.3098 9.02613C40.6652 8.38421 36.7972 7.99219 34.6107 7.85872Z" fill="white"/>
</g>
<mask id="mask4_1011_356" style="mask-type:luminance" maskUnits="userSpaceOnUse" x="-9" y="-16" width="190" height="246">
<path d="M-8.78873 -15.6976H180.722V229.552H-8.78873V-15.6976Z" fill="white"/>
</mask>
<g mask="url(#mask4_1011_356)">
<path d="M28.3336 13.5667C28.6337 12.9022 29.0883 12.5767 29.5286 12.0197C29.4797 11.8878 29.3725 11.4564 29.3725 11.3068C29.3725 10.6392 29.9141 10.0973 30.582 10.0973C30.7397 10.0973 30.8902 10.1286 31.028 10.1834C33.0299 8.65772 35.6654 7.99257 38.3139 8.58464C38.5557 8.63914 38.7929 8.70509 39.0258 8.77755C36.4083 8.41464 33.4578 9.34175 31.4509 10.9616C31.5123 11.1062 31.6823 11.5196 31.6823 11.6859C31.6823 12.3538 31.25 12.5164 30.582 12.5164C30.4303 12.5164 30.2854 12.4873 30.1513 12.4362C29.698 13.045 29.1424 14.2046 28.8706 14.9295C29.9804 15.9223 30.9831 16.2821 32.2898 16.7704C32.2864 16.7082 32.3347 16.6506 32.3347 16.5871C32.3347 14.5734 34.1075 12.9369 36.1215 12.9369C37.9262 12.9369 39.4206 14.2492 39.7123 15.9709C40.6128 15.398 41.4836 14.9589 42.1472 14.1099C41.9923 13.921 41.8254 13.3862 41.8254 13.123C41.8254 12.517 42.3172 12.0256 42.9232 12.0256C43.0089 12.0256 43.0913 12.0379 43.1715 12.0565C43.5084 11.3641 43.7626 10.6302 43.9252 9.87343C40.776 7.54202 34.6828 7.86004 34.6828 7.86004C34.6828 7.86004 29.8342 7.60705 26.5518 9.20674C26.7708 10.7894 27.4022 12.294 28.3336 13.5667Z" fill="#373535"/>
<path d="M43.3858 12.6583C43.6084 12.859 43.7298 13.0352 43.8255 13.2067C44.12 13.7362 43.5292 14.2208 42.9232 14.2208C42.8615 14.2208 42.8021 14.2125 42.743 14.2026C42.0602 15.2697 40.8643 16.638 39.8018 17.3267C41.4309 17.5936 42.9671 18.2461 44.1897 19.2543C45.0799 17.6593 45.7627 15.356 45.7627 13.3996C45.7627 11.9105 45.1053 10.8189 44.1129 10.0182C44.0609 10.8158 43.6351 11.9315 43.3858 12.6583Z" fill="#373535"/>
<path d="M30.1614 22.7609C30.7042 21.2619 32.0394 20.1003 33.3025 19.0785C33.1177 18.8255 32.8405 18.199 32.725 17.9024C31.1845 17.4339 29.8214 16.5569 28.7642 15.396C28.7565 15.4298 28.7469 15.4626 28.7388 15.4963C28.5397 16.3885 28.5032 17.2825 28.6022 18.1545C29.3398 18.2919 29.8982 18.9382 29.8982 19.7157C29.8982 20.1768 29.4941 20.8451 29.1804 21.1358C29.5213 21.8716 29.7539 22.2265 30.1614 22.7609Z" fill="#373535"/>
<path d="M30.0658 24.0194C29.4183 23.3756 28.9705 22.0914 28.5503 21.2851C28.4717 21.2972 28.3912 21.3055 28.3088 21.3055C27.4306 21.3055 26.5106 20.5685 26.7187 19.7157C26.8339 19.2438 27.1596 18.9351 27.6901 18.6775C27.5693 17.6999 27.5365 16.2946 27.7635 15.2783C27.8285 14.9876 27.9663 14.8513 28.0577 14.5745C27.0887 13.1566 26.4626 11.2955 26.4626 9.44903C26.4626 9.38152 26.466 9.31495 26.4676 9.24806C24.8301 10.0693 23.6023 11.363 23.6023 13.3996C23.6023 17.9046 26.1969 22.3237 30.0574 24.0559C30.0602 24.0438 30.0627 24.0314 30.0658 24.0194Z" fill="#373535"/>
<path d="M39.5586 17.7916C39.0597 19.2104 37.7108 20.2295 36.1214 20.2295C35.271 20.2295 34.491 19.9363 33.8711 19.4489C32.5931 20.4441 31.4338 22.1924 30.8445 23.7091C31.1089 23.9937 31.2932 24.2278 31.5898 24.4802C32.4838 24.713 33.715 24.4802 34.6827 24.4802C38.5751 24.4802 42.0225 22.7486 43.9991 19.7121C42.6849 18.802 41.1347 17.9359 39.5586 17.7916Z" fill="#373535"/>
</g>
<mask id="mask5_1011_356" style="mask-type:luminance" maskUnits="userSpaceOnUse" x="-9" y="-16" width="190" height="246">
<path d="M-8.78873 -15.6976H180.722V229.552H-8.78873V-15.6976Z" fill="white"/>
</mask>
<g mask="url(#mask5_1011_356)">
<path d="M28.2339 14.0932C28.5339 13.4287 28.9102 12.8137 29.3502 12.2566C29.3013 12.125 29.2728 11.9829 29.2728 11.8333C29.2728 11.1657 29.8144 10.6238 30.4823 10.6238C30.6399 10.6238 30.7904 10.6551 30.9282 10.7099C32.9301 9.18421 35.5656 8.51906 38.2141 9.11113C38.456 9.16563 38.6932 9.23158 38.926 9.30404C36.3085 8.94112 33.6039 9.74345 31.5971 11.3636C31.6584 11.5079 31.6918 11.667 31.6918 11.8333C31.6918 12.5013 31.1502 13.0429 30.4823 13.0429C30.3306 13.0429 30.1856 13.0137 30.0516 12.9627C29.5982 13.5714 29.2276 14.244 28.9557 14.9692C29.9088 15.9964 31.0787 16.8086 32.3851 17.2969C32.382 17.2347 32.3755 17.1731 32.3755 17.1096C32.3755 15.0959 34.0077 13.4634 36.0218 13.4634C37.8264 13.4634 39.3209 14.7757 39.6126 16.4974C40.513 15.9245 41.3132 15.1888 41.9765 14.3397C41.8217 14.1508 41.7257 13.9127 41.7257 13.6495C41.7257 13.0435 42.2174 12.552 42.8234 12.552C42.9092 12.552 42.9915 12.5644 43.0717 12.583C43.4087 11.8906 43.6629 11.1567 43.8255 10.3999C40.6762 8.06851 34.5831 8.38653 34.5831 8.38653C34.5831 8.38653 29.7345 8.13354 26.4521 9.73323C26.671 11.3159 27.3024 12.8205 28.2339 14.0932Z" fill="#1287B1"/>
<path d="M43.5557 12.838C43.7784 13.0387 43.9211 13.3263 43.9211 13.6496C43.9211 14.2556 43.4294 14.7474 42.8234 14.7474C42.7618 14.7474 42.7023 14.739 42.6432 14.7291C41.9604 15.7962 41.0555 16.706 39.9928 17.3946C41.5634 17.6402 43.0417 18.3066 44.2639 19.3148C45.1542 17.7198 45.6629 15.8826 45.6629 13.9262C45.6629 12.437 45.0055 11.3455 44.0131 10.5447C43.9611 11.3424 43.805 12.1112 43.5557 12.838Z" fill="#1287B1"/>
<path d="M30.3288 23.1211C30.8717 21.622 31.8149 20.2769 33.078 19.2553C32.8931 19.002 32.7408 18.7255 32.6253 18.4288C31.0844 17.9603 29.7216 17.0834 28.6644 15.9225C28.6567 15.9562 28.6468 15.989 28.639 16.0228C28.4396 16.9149 28.4031 17.8089 28.5025 18.6809C29.2398 18.8184 29.7984 19.4647 29.7984 20.2422C29.7984 20.7033 29.6005 21.1179 29.2868 21.4087C29.5714 22.0119 29.9213 22.5866 30.3288 23.1211Z" fill="#1287B1"/>
<path d="M30.0615 24.0011C29.414 23.3573 28.8706 22.6178 28.4507 21.8118C28.3717 21.8239 28.2912 21.8319 28.2092 21.8319C27.331 21.8319 26.6191 21.12 26.6191 20.2421C26.6191 19.6129 26.9857 19.0704 27.5161 18.8127C27.3957 17.8355 27.4366 16.821 27.6638 15.8047C27.7289 15.5143 27.8081 15.2306 27.8995 14.9535C26.9306 13.5359 26.363 11.8219 26.363 9.97541C26.363 9.9079 26.3661 9.84133 26.3676 9.77475C24.7301 10.5957 23.5023 11.8897 23.5023 13.926C23.5023 18.4312 26.1927 22.3054 30.0532 24.0376C30.056 24.0255 30.0584 24.0131 30.0615 24.0011Z" fill="#1287B1"/>
<path d="M39.4588 18.318C38.96 19.7368 37.6111 20.7559 36.0216 20.7559C35.1713 20.7559 34.3913 20.4627 33.7713 19.9753C32.4934 20.9705 31.5288 22.3271 30.9398 23.8441C31.204 24.1287 31.4864 24.3969 31.783 24.6489C32.6773 24.8818 33.6153 25.0066 34.5829 25.0066C38.4753 25.0066 41.8974 22.9969 43.8739 19.9607C42.5597 19.0503 41.035 18.4623 39.4588 18.318Z" fill="#1287B1"/>
</g>
<mask id="mask6_1011_356" style="mask-type:luminance" maskUnits="userSpaceOnUse" x="-9" y="-16" width="190" height="246">
<path d="M-8.78873 -15.6976H180.722V229.552H-8.78873V-15.6976Z" fill="white"/>
</mask>
<g mask="url(#mask6_1011_356)">
<mask id="mask7_1011_356" style="mask-type:luminance" maskUnits="userSpaceOnUse" x="28" y="10" width="15" height="15">
<path d="M28.7424 10.1966H42.9554V24.3972H28.7424V10.1966Z" fill="white"/>
</mask>
<g mask="url(#mask7_1011_356)">
<path d="M39.5869 17.3778L42.9557 16.5743L39.5742 16.4018L42.3261 14.2986L39.2035 15.418L41.3256 12.4772L38.3947 14.4252L39.4194 10.9828L37.4066 13.8202L37.3608 10.2346L36.0364 13.4285L34.9321 10.1965L34.9919 14.0038L33.0835 10.5911L34.1162 14.2147L31.0205 11.9635L33.4455 15.0105L29.6023 13.5972L32.6354 15.8413L28.7461 15.9608L32.7227 16.987L28.7427 17.8476L32.6713 18.1325L29.3583 20.2539L32.7698 19.0172L30.4028 22.015L33.3937 19.6027L32.3167 23.6255L34.6259 20.3518L34.3023 24.2182L35.6131 20.7132L36.7288 24.3972L37 20.702L38.6561 23.8546L37.6775 20.2487L40.71 22.5977L38.7524 19.6027L42.0793 20.8989L39.5355 18.3991L42.9467 18.6672L39.5869 17.3778Z" fill="white"/>
</g>
</g>
<mask id="mask8_1011_356" style="mask-type:luminance" maskUnits="userSpaceOnUse" x="-9" y="-16" width="190" height="246">
<path d="M-8.78873 -15.6976H180.722V229.552H-8.78873V-15.6976Z" fill="white"/>
</mask>
<g mask="url(#mask8_1011_356)">
<mask id="mask9_1011_356" style="mask-type:luminance" maskUnits="userSpaceOnUse" x="3" y="4" width="67" height="20">
<path d="M3.72247 4.6816H69.4944V23.824H3.72247V4.6816Z" fill="white"/>
</mask>
<g mask="url(#mask9_1011_356)">
<g opacity="0.350006">
<path d="M3.72247 23.8239C14.1703 13.3764 22.5147 10.151 30.0877 8.67854C31.0897 8.48376 31.2792 6.29417 31.2792 6.29417C31.2792 6.29417 31.4195 7.90687 32.1209 8.11713C32.822 8.3277 33.7333 5.5928 33.7333 5.5928C33.7333 5.5928 32.8919 8.04715 33.7333 8.18742C34.5749 8.3277 36.1173 5.80337 36.1173 5.80337C36.1173 5.80337 35.4866 7.97685 35.9074 8.11713C36.3276 8.25741 38.4311 4.96202 38.4311 4.96202C38.4311 4.96202 37.1689 7.13551 38.3611 7.34608C39.5536 7.55634 41.2927 5.86251 41.2927 5.86251C41.2927 5.86251 39.9252 7.41235 40.5346 7.62632C43.1292 8.53827 45.2287 5.16609 45.2287 5.16609C45.2287 5.16609 44.7423 6.64471 43.4801 8.2574C46.2144 8.95847 48.2454 4.83909 48.2454 4.83909L46.2144 8.95847C47.2663 9.51988 51.4739 4.68147 51.4739 4.68147C51.4739 4.68147 49.3001 8.46797 48.0379 9.23902C48.739 9.80012 51.2633 7.55634 51.2633 7.55634C51.2633 7.55634 49.2298 10.0804 50.0012 10.2206C51.1231 11.1323 55.2598 5.52281 55.2598 5.52281C55.2598 5.52281 53.6474 8.8182 51.2633 11.4128C53.256 12.4096 58.2053 6.01362 58.2053 6.01362C58.2053 6.01362 58.065 8.04715 54.4887 11.2725C57.1533 10.922 60.5893 5.87335 60.5893 5.87335C60.5893 5.87335 59.3271 9.65985 56.3117 12.3241C58.928 12.052 63.113 5.5928 63.113 5.5928C63.113 5.5928 61.5006 10.0804 58.2053 12.675C61.8515 13.4813 67.1104 8.04715 67.1104 8.04715C67.1104 8.04715 65.0419 11.9039 62.342 13.4813C65.3574 14.6382 69.4945 9.8701 69.4945 9.8701C69.4945 9.8701 65.3574 16.2512 58.7664 15.9707C56.6037 15.8787 50.0622 9.40964 36.0474 9.9404C17.536 10.6418 13.6095 18.495 3.72247 23.8239Z" fill="#373535"/>
</g>
</g>
<path d="M4.1507 23.0305C14.5986 12.583 22.9426 9.35788 30.5156 7.88515C31.518 7.69037 31.7075 5.50109 31.7075 5.50109C31.7075 5.50109 31.8474 7.1141 32.5491 7.32404C33.2502 7.5343 34.1615 4.80002 34.1615 4.80002C34.1615 4.80002 33.3202 7.25437 34.1615 7.39434C35.0032 7.5343 36.5456 5.01028 36.5456 5.01028C36.5456 5.01028 35.9148 7.18377 36.335 7.32404C36.7558 7.46432 38.8593 4.16863 38.8593 4.16863C38.8593 4.16863 37.5972 6.34243 38.7894 6.55269C39.9812 6.76325 41.7209 5.06943 41.7209 5.06943C41.7209 5.06943 40.3534 6.61926 40.9628 6.83324C43.5575 7.74487 45.6563 4.373 45.6563 4.373C45.6563 4.373 45.1699 5.85162 43.9083 7.46432C46.6426 8.1657 48.6736 4.0457 48.6736 4.0457L46.6426 8.16569C47.6945 8.72649 51.9015 3.8887 51.9015 3.8887C51.9015 3.8887 49.7283 7.67458 48.4662 8.44594C49.1672 9.00704 51.6916 6.76325 51.6916 6.76325C51.6916 6.76325 49.658 9.28759 50.4294 9.42755C51.5513 10.3395 55.688 4.72973 55.688 4.72973C55.688 4.72973 54.075 8.02542 51.6916 10.6197C53.6842 11.6168 58.6335 5.22054 58.6335 5.22054C58.6335 5.22054 58.4932 7.25437 54.917 10.4798C57.5816 10.1289 61.0175 5.08026 61.0175 5.08026C61.0175 5.08026 59.7554 8.86676 56.7399 11.5314C59.3562 11.2592 63.5412 4.80002 63.5412 4.80002C63.5412 4.80002 61.9289 9.28759 58.6335 11.8819C62.2797 12.6883 67.5386 7.25437 67.5386 7.25437C67.5386 7.25437 65.4701 11.1105 62.7702 12.6883C65.7856 13.8451 69.9227 9.07702 69.9227 9.07702C69.9227 9.07702 65.7856 15.4581 59.194 15.1776C57.0319 15.0853 50.4904 8.61625 36.4753 9.14731C17.9642 9.84838 14.0375 17.7016 4.1507 23.0305Z" fill="#373535"/>
</g>
<mask id="mask10_1011_356" style="mask-type:luminance" maskUnits="userSpaceOnUse" x="-9" y="-16" width="190" height="246">
<path d="M-8.78873 -15.6976H180.722V229.552H-8.78873V-15.6976Z" fill="white"/>
</mask>
<g mask="url(#mask10_1011_356)">
<mask id="mask11_1011_356" style="mask-type:luminance" maskUnits="userSpaceOnUse" x="3" y="16" width="63" height="24">
<path d="M3.44879 16.3074H65.1886V39.1657H3.44879V16.3074Z" fill="white"/>
</mask>
<g mask="url(#mask11_1011_356)">
<g opacity="0.350006">
<path d="M3.44879 24.9664C8.97061 27.7363 14.0196 24.5459 20.3828 26.3391C25.2205 27.7029 31.1109 29.384 39.1041 28.2268C47.0976 27.0702 53.9345 23.5993 57.1955 17.3934C58.2121 14.6241 62.3488 18.0248 62.3488 18.0248C62.3488 18.0248 59.334 16.7626 59.4043 17.3587C59.4743 17.9545 63.9269 20.023 63.9269 20.023C63.9269 20.023 59.8948 18.7609 60.1404 19.7075C60.3859 20.6541 65.1884 24.4406 65.1884 24.4406C65.1884 24.4406 59.7545 20.3036 59.299 20.8644C58.8429 21.4255 61.6128 23.7046 61.6128 23.7046C61.6128 23.7046 57.0199 20.8644 55.4069 21.702C54.247 22.3037 60.1754 26.1939 60.1754 26.1939C60.1754 26.1939 56.3186 23.2484 55.4069 24.0198C54.4956 24.7915 59.7545 31.102 59.7545 31.102C59.7545 31.102 53.7939 24.6509 53.1985 24.9664C52.602 25.282 54.8458 28.3674 54.8458 28.3674C54.8458 28.3674 51.901 25.1417 51.0949 25.7028C50.2886 26.2639 55.302 34.6429 55.302 34.6429C55.302 34.6429 49.8678 26.0536 47.624 27.4904C51.1476 35.2214 49.8328 36.3259 49.8328 36.3259C49.8328 36.3259 49.3832 28.4389 44.9944 28.6476C42.7856 28.7529 46.046 34.5376 46.046 34.5376C46.046 34.5376 43.0451 29.2542 41.0465 29.3595C44.7299 36.3302 43.417 39.1655 43.417 39.1655C43.417 39.1655 44.0261 33.212 39.0304 29.899C40.9233 31.5813 37.8425 39.1655 37.8425 39.1655C37.8425 39.1655 40.5526 27.9896 35.8437 30.1204C35.0996 30.4563 35.791 35.6948 35.791 35.6948C35.791 35.6948 34.8444 29.6992 33.4249 30.0151C32.5972 30.1987 28.1657 38.3241 28.1657 38.3241C28.1657 38.3241 31.7946 29.5416 30.6903 29.9098C29.8858 30.1783 28.3763 33.8016 28.3763 33.8016C28.3763 33.8016 29.1123 30.2253 28.3763 30.0151C27.6402 29.8045 23.5379 33.8016 23.5379 33.8016C23.5379 33.8016 26.5883 30.2253 26.0622 29.489C25.2651 28.3733 24.3309 28.3209 23.2223 28.7529C21.6093 29.3815 19.4361 32.3288 19.4361 32.3288C19.4361 32.3288 21.6025 29.3447 21.2238 28.2268C20.6159 26.4308 14.3875 31.6978 14.3875 31.6978C14.3875 31.6978 18.0687 28.2268 17.2273 27.4904C16.386 26.7544 11.8173 26.982 10.3907 26.9779C6.18369 26.9649 4.72582 25.9781 3.44879 24.9664Z" fill="#373535"/>
</g>
</g>
<path d="M3.23862 24.3355C8.76044 27.1054 13.8091 23.915 20.1723 25.7086C25.0101 27.0717 30.9007 28.7531 38.8942 27.5959C46.8877 26.4391 53.724 22.9681 56.985 16.7629C58.0016 13.9933 62.1384 17.3936 62.1384 17.3936C62.1384 17.3936 59.1235 16.1318 59.1938 16.7279C59.2638 17.3237 63.7164 19.3922 63.7164 19.3922C63.7164 19.3922 59.6843 18.1303 59.9299 19.0769C60.1754 20.0233 64.9785 23.8097 64.9785 23.8097C64.9785 23.8097 59.544 19.6724 59.0885 20.2338C58.633 20.7946 61.4026 23.0734 61.4026 23.0734C61.4026 23.0734 56.8095 20.2338 55.1968 21.0708C54.0365 21.6728 59.9649 25.5627 59.9649 25.5627C59.9649 25.5627 56.1081 22.6176 55.1968 23.3889C54.2851 24.1606 59.5447 30.4711 59.5447 30.4711C59.5447 30.4711 53.5837 24.02 52.988 24.3355C52.3922 24.6514 54.636 27.7362 54.636 27.7362C54.636 27.7362 51.6905 24.5108 50.8845 25.0719C50.0781 25.6327 55.0915 34.0121 55.0915 34.0121C55.0915 34.0121 49.6573 25.4224 47.4135 26.8599C50.9371 34.5905 49.6223 35.695 49.6223 35.695C49.6223 35.695 49.1727 27.8081 44.7839 28.0171C42.5751 28.1224 45.8355 33.9068 45.8355 33.9068C45.8355 33.9068 42.8346 28.6231 40.8364 28.7284C44.5201 35.6994 43.2065 38.5346 43.2065 38.5346C43.2065 38.5346 43.8156 32.5808 38.8199 29.2678C40.7128 30.9505 37.632 38.5346 37.632 38.5346C37.632 38.5346 40.3428 27.3587 35.6338 29.4895C34.8897 29.8258 35.5812 35.064 35.5812 35.064C35.5812 35.064 34.6339 29.0687 33.2147 29.3842C32.3867 29.5678 27.9552 37.6933 27.9552 37.6933C27.9552 37.6933 31.5841 28.9107 30.4798 29.2792C29.6754 29.5471 28.1658 33.1704 28.1658 33.1704C28.1658 33.1704 28.9021 29.5945 28.1658 29.3842C27.4297 29.174 23.3277 33.1704 23.3277 33.1704C23.3277 33.1704 26.3781 29.5945 25.8517 28.8581C25.0546 27.7424 24.1204 27.6904 23.0121 28.1224C21.3988 28.7507 19.2256 31.698 19.2256 31.698C19.2256 31.698 21.392 28.7135 21.0136 27.5959C20.4054 25.8002 14.1773 31.0669 14.1773 31.0669C14.1773 31.0669 17.8585 27.5959 17.0168 26.8599C16.1755 26.1235 11.6068 26.3514 10.1802 26.3471C5.97321 26.3338 4.51565 25.3472 3.23862 24.3355Z" fill="#373535"/>
</g>
</g>
<path d="M77.263 15.7671C78.0974 15.7671 78.8878 15.9647 79.2835 16.3599C79.3493 16.9752 78.8 17.9632 78.4487 17.9632C78.0315 17.8095 77.6363 17.7213 77.1532 17.7213C75.1552 17.7213 74.1667 19.7856 74.1667 21.8276C74.1667 23.101 74.6058 23.87 75.6163 23.87C76.6922 23.87 77.79 23.1454 78.4048 22.5965C78.5585 22.7058 78.7561 23.0576 78.7561 23.4528C78.7561 23.8919 78.6243 24.3091 78.2291 24.7043C77.5265 25.4069 76.3409 25.9998 74.6278 25.9998C72.6517 25.9998 71.2904 24.88 71.2904 22.2667C71.2904 18.8415 73.5519 15.7671 77.2411 15.7671H77.263Z" fill="#373535"/>
<path d="M83.7177 23.7601C84.7935 23.7601 86.7481 21.8714 87.297 18.2706C87.319 18.051 87.3409 17.9851 87.3849 17.7656C87.1433 17.6777 86.814 17.6119 86.4842 17.6119C85.6718 17.6119 84.8374 17.8534 84.0909 18.8634C83.3225 19.9393 82.9931 21.2786 82.9931 22.3549C82.9931 23.2766 83.2566 23.7601 83.6957 23.7601H83.7177ZM80.1822 22.7721C80.1822 21.4767 80.6213 19.2147 82.2685 17.568C83.6738 16.1188 85.3864 15.7671 86.9457 15.7671C87.9777 15.7671 89.3829 16.0964 90.2612 16.2725C90.0416 17.2386 89.5146 20.8834 89.2731 22.9912C89.1633 23.8919 89.1194 25.1434 89.1633 25.6045C88.4388 25.9119 87.0775 25.9997 86.7037 25.9997C86.5066 25.9997 86.4622 25.0995 86.5286 24.2432C86.5501 23.9577 86.5944 23.5406 86.6159 23.3649C85.7596 24.7921 84.069 25.9997 82.2905 25.9997C81.017 25.9997 80.1822 24.9458 80.1822 22.794V22.7721Z" fill="#373535"/>
<path d="M95.7278 15.7673C96.628 15.7673 97.4843 16.0967 97.88 16.5138C97.858 17.1291 97.375 18.1606 96.606 17.8751C96.2767 17.7653 95.9473 17.678 95.5082 17.678C94.9154 17.678 94.4104 17.9415 94.4104 18.4899C94.4104 18.9071 94.7178 19.2149 96.1888 20.2469C97.2432 21.0154 97.6604 21.696 97.6604 22.6621C97.6604 24.2654 96.1449 25.9999 93.5102 25.9999C92.4343 25.9999 91.4897 25.5828 91.1823 25.1436C90.7871 24.4849 91.0945 23.1895 91.5341 23.4086C92.1049 23.6941 93.0491 24.0019 93.8175 24.0019C94.5421 24.0019 95.0032 23.6721 95.0032 23.233C95.0032 22.8602 94.6738 22.5304 93.3345 21.5862C92.2143 20.7519 91.863 19.9834 91.863 19.1051C91.863 17.2828 93.4223 15.7673 95.7058 15.7673H95.7278Z" fill="#373535"/>
<path d="M103.302 15.7673C104.203 15.7673 105.059 16.0967 105.454 16.5138C105.433 17.1291 104.95 18.1606 104.181 17.8751C103.852 17.7653 103.522 17.678 103.083 17.678C102.49 17.678 101.985 17.9415 101.985 18.4899C101.985 18.9071 102.293 19.2149 103.764 20.2469C104.818 21.0154 105.235 21.696 105.235 22.6621C105.235 24.2654 103.719 25.9999 101.085 25.9999C100.009 25.9999 99.0647 25.5828 98.7573 25.1436C98.3621 24.4849 98.6695 23.1895 99.1086 23.4086C99.6795 23.6941 100.624 24.0019 101.392 24.0019C102.117 24.0019 102.578 23.6721 102.578 23.233C102.578 22.8602 102.248 22.5304 100.909 21.5862C99.7893 20.7519 99.438 19.9834 99.438 19.1051C99.438 17.2828 100.997 15.7673 103.281 15.7673H103.302Z" fill="#373535"/>
<path d="M110.218 23.7601C111.295 23.7601 113.249 21.8714 113.798 18.2706C113.82 18.051 113.842 17.9851 113.886 17.7656C113.644 17.6777 113.315 17.6119 112.985 17.6119C112.173 17.6119 111.339 17.8534 110.592 18.8634C109.824 19.9393 109.494 21.2786 109.494 22.3549C109.494 23.2766 109.757 23.7601 110.197 23.7601H110.218ZM106.683 22.7721C106.683 21.4767 107.122 19.2147 108.769 17.568C110.174 16.1188 111.887 15.7671 113.446 15.7671C114.478 15.7671 115.884 16.0964 116.762 16.2725C116.543 17.2386 116.016 20.8834 115.774 22.9912C115.664 23.8919 115.62 25.1434 115.664 25.6045C114.939 25.9119 113.579 25.9997 113.205 25.9997C113.008 25.9997 112.963 25.0995 113.029 24.2432C113.051 23.9577 113.095 23.5406 113.117 23.3649C112.261 24.7921 110.57 25.9997 108.792 25.9997C107.518 25.9997 106.683 24.9458 106.683 22.794V22.7721Z" fill="#373535"/>
<path d="M121.723 18.6217C122.734 16.9969 124.051 15.7673 125.896 15.7673C127.454 15.7673 127.959 17.2164 127.674 19.2803C127.521 20.2469 127.257 21.6301 127.081 22.9036C126.928 23.9799 126.818 24.9456 126.84 25.6047C126.269 25.8902 124.6 25.9999 124.227 25.9999C124.073 25.9999 124.051 24.7919 124.249 23.5184C124.424 22.4645 124.798 20.5543 124.973 19.456C125.084 18.8197 125.061 18.0508 124.446 18.0508C123.634 18.0508 121.702 19.3467 120.735 24.6601C120.669 25.0993 120.494 25.3627 120.252 25.5164C119.923 25.7145 119.22 25.8902 117.793 25.9121C118.057 24.5728 118.474 21.8278 118.781 19.8078C119.066 17.9634 119.176 16.7773 119.11 16.3162C119.484 16.1845 121.438 15.7673 121.657 15.7673C121.899 15.7673 121.943 16.448 121.723 18.0952C121.702 18.2488 121.679 18.4899 121.657 18.6217H121.723Z" fill="#373535"/>
<path d="M132.878 23.7382C133.843 23.7382 135.798 21.9373 136.347 18.7536C136.369 18.5779 136.435 18.2486 136.479 18.0505C136.193 17.7871 135.82 17.6114 135.227 17.6114C133.009 17.6114 132.021 20.2686 132.021 22.1793C132.021 23.2112 132.373 23.7382 132.855 23.7382H132.878ZM131.428 25.9997C130.023 25.9997 129.145 24.7482 129.145 22.5964C129.145 19.039 131.362 15.7671 135.095 15.7671C135.754 15.7671 136.347 15.9427 136.72 16.1623C136.918 15.1523 137.379 12.034 137.401 11.1118C138.015 11.0021 139.333 10.8049 139.926 10.8049C140.168 10.8049 140.234 11.046 140.146 11.5949C139.618 14.8888 138.675 21.2127 138.499 22.6184C138.367 23.804 138.345 24.9677 138.367 25.6264C137.665 25.9338 136.237 25.9997 135.864 25.9997C135.71 25.9997 135.622 24.9897 135.666 24.0895C135.689 23.804 135.732 23.3864 135.732 23.321C134.634 25.1214 133.119 25.9997 131.45 25.9997H131.428Z" fill="#373535"/>
<path d="M144.294 18.9294C145.459 16.3381 146.841 15.7672 147.742 15.7672C148.028 15.7672 148.467 15.9428 148.664 16.1624C148.752 16.887 148.182 18.3361 147.676 18.885C147.412 18.7533 147.084 18.6215 146.71 18.6215C145.963 18.6215 144.492 19.7857 143.57 24.7917C143.504 25.2094 143.372 25.385 143.131 25.4948C142.758 25.7144 141.286 25.89 140.584 25.912C140.913 24.1111 141.484 20.4444 141.704 18.2922C141.769 17.7433 141.791 16.7333 141.747 16.3381C142.165 16.1404 143.812 15.7672 144.185 15.7672C144.383 15.7672 144.536 16.9752 144.228 18.9294H144.294Z" fill="#373535"/>
<path d="M152.045 23.7601C153.122 23.7601 155.075 21.8714 155.625 18.2706C155.646 18.051 155.669 17.9851 155.713 17.7656C155.471 17.6777 155.142 17.6119 154.812 17.6119C153.999 17.6119 153.165 17.8534 152.418 18.8634C151.65 19.9393 151.32 21.2786 151.32 22.3549C151.32 23.2766 151.584 23.7601 152.023 23.7601H152.045ZM148.509 22.7721C148.509 21.4767 148.949 19.2147 150.596 17.568C152.001 16.1188 153.714 15.7671 155.273 15.7671C156.305 15.7671 157.71 16.0964 158.589 16.2725C158.369 17.2386 157.842 20.8834 157.601 22.9912C157.491 23.8919 157.447 25.1434 157.491 25.6045C156.766 25.9119 155.405 25.9997 155.031 25.9997C154.834 25.9997 154.79 25.0995 154.856 24.2432C154.878 23.9577 154.922 23.5406 154.944 23.3649C154.087 24.7921 152.397 25.9997 150.618 25.9997C149.344 25.9997 148.509 24.9458 148.509 22.794V22.7721Z" fill="#373535"/>
</g>
<defs>
<clipPath id="clip0_1011_356">
<rect width="160" height="40" fill="white"/>
</clipPath>
<clipPath id="clip1_1011_356">
<rect width="69.1613" height="46.443" fill="white" transform="translate(2 2.65009)"/>
</clipPath>
</defs>
</svg>
