<svg width="143" height="28" viewBox="0 0 143 28" fill="none" xmlns="http://www.w3.org/2000/svg">
<g clip-path="url(#clip0_8732_313)">
<path d="M50.0781 9.49738C46.3687 9.49738 44.0957 11.8976 44.0957 16.1162C44.0957 20.3348 46.3687 22.7168 50.0781 22.7168C53.7876 22.7168 56.0423 20.3166 56.0423 16.1162C56.0423 11.9158 53.8239 9.49738 50.0781 9.49738ZM50.0781 20.7894C47.7324 20.7894 46.7869 18.8619 46.7869 16.1344C46.8051 13.3705 47.7324 11.4612 50.0781 11.4612C52.4238 11.4612 53.3693 13.3705 53.3693 16.1162C53.3693 18.8619 52.4238 20.7894 50.0781 20.7894Z" fill="black"/>
<path d="M84.063 9.49738C82.2264 9.49738 81.1536 10.3338 80.3535 11.4067C80.2444 11.5339 80.1535 11.6612 79.9717 11.6612C79.7898 11.6612 79.6444 11.5339 79.6444 11.2794V9.75195H77.2441V22.4805H79.7898V15.4616C79.7898 13.1886 81.0081 11.5703 82.9174 11.5703C84.7176 11.5703 85.6086 12.6068 85.6086 14.8615V22.4805H88.1543V14.1887C88.1543 11.2612 86.8269 9.49738 84.063 9.49738Z" fill="black"/>
<path d="M97.6641 9.49737C95.9548 9.49737 94.8456 10.2611 94.1001 11.2248C93.991 11.3521 93.9001 11.4794 93.7182 11.4794C93.5364 11.4794 93.3909 11.3521 93.3909 11.0975V4.2605H90.8452V22.4804H93.3909V15.4616C93.3909 13.1886 94.6092 11.5703 96.5185 11.5703C98.3187 11.5703 99.2097 12.6068 99.2097 14.8615V22.4804H101.755V14.1887C101.755 11.2612 100.428 9.49737 97.6641 9.49737Z" fill="black"/>
<path d="M109.702 9.49738C105.992 9.49738 103.719 11.8976 103.719 16.1162C103.719 20.3348 105.992 22.7168 109.702 22.7168C113.411 22.7168 115.666 20.3166 115.666 16.1162C115.648 11.8976 113.447 9.49738 109.702 9.49738ZM109.702 20.7894C107.356 20.7894 106.41 18.8619 106.41 16.1344C106.41 13.4068 107.356 11.4794 109.702 11.4794C112.047 11.4794 112.993 13.3887 112.993 16.1344C112.975 18.8437 112.047 20.7894 109.702 20.7894Z" fill="black"/>
<path d="M123.048 9.49738C119.339 9.49738 117.066 11.8976 117.066 16.1162C117.066 20.3348 119.339 22.7168 123.048 22.7168C126.758 22.7168 129.013 20.3166 129.013 16.1162C129.013 11.9158 126.794 9.49738 123.048 9.49738ZM123.048 20.7894C120.703 20.7894 119.757 18.8619 119.757 16.1344C119.757 13.4068 120.703 11.4794 123.048 11.4794C125.394 11.4794 126.34 13.3887 126.34 16.1344C126.34 18.8801 125.394 20.7894 123.048 20.7894Z" fill="black"/>
<path d="M74.4803 9.75195H71.9346V22.4805H74.4803V9.75195Z" fill="black"/>
<path d="M74.5527 4.2605H71.8252V7.16987H74.5527V4.2605Z" fill="black"/>
<path d="M139.595 4.2605V10.7702C139.595 11.0248 139.45 11.1521 139.268 11.1521C139.141 11.1521 138.959 11.0248 138.886 10.9521C137.977 9.98833 136.995 9.49737 135.45 9.49737C132.704 9.49737 130.467 11.6067 130.467 16.1162C130.467 20.6257 132.704 22.7168 135.45 22.7168C137.05 22.7168 138.05 22.0986 139.014 21.1349C139.159 20.9894 139.268 20.8985 139.395 20.8985C139.577 20.8985 139.723 21.0258 139.723 21.2803V22.4804H142.141V4.2605H139.595ZM136.413 20.7712C134.068 20.7894 133.122 18.8437 133.122 16.1162C133.122 13.3887 134.068 11.4612 136.413 11.4612C138.759 11.4612 139.705 13.3705 139.705 16.1162C139.705 18.8619 138.795 20.7712 136.413 20.7712Z" fill="black"/>
<path d="M64.8424 9.49737C63.2968 9.49737 62.3149 9.98833 61.4057 10.9521C61.333 11.0248 61.1512 11.1521 61.0239 11.1521C60.8421 11.1521 60.6966 11.0248 60.6966 10.7702V4.2605H58.1509V22.4804H60.5511V21.2803C60.5511 21.0258 60.6966 20.8985 60.8784 20.8985C61.0057 20.8985 61.1148 20.9712 61.2603 21.1349C62.224 22.0986 63.2241 22.7168 64.8243 22.7168C67.57 22.7168 69.8247 20.6257 69.8247 16.1162C69.8247 11.6067 67.5882 9.49737 64.8424 9.49737ZM63.8605 20.7894C61.4967 20.7894 60.5693 18.8619 60.5693 16.1344C60.5693 13.4068 61.4785 11.4794 63.8605 11.4794C66.2426 11.4794 67.1518 13.3887 67.1518 16.1344C67.1518 18.8437 66.2062 20.7894 63.8605 20.7894Z" fill="black"/>
<path d="M40.0947 14.3706C39.8947 14.2979 39.822 14.1706 39.822 14.0069C39.822 13.8251 39.8947 13.7524 40.1311 13.6251C41.513 12.9705 42.3495 11.6613 42.3495 9.87927C42.3495 6.75169 40.3857 4.8606 36.4398 4.8606H29.6392V22.4805H32.3303V15.2071H36.6762C38.731 15.2071 39.4219 16.0799 39.4765 17.4982L39.731 22.4805H42.3859L42.1131 17.3164C42.004 15.6071 41.3312 14.8252 40.0947 14.3706ZM36.258 13.1159H32.3303V7.00626H36.258C38.2945 7.00626 39.5492 8.00636 39.5492 10.0611C39.5492 12.1158 38.2945 13.1159 36.258 13.1159Z" fill="black"/>
<path d="M13.4487 6.13342H7.92092C7.7209 6.13342 7.55179 6.21343 7.41178 6.38799L3.44776 11.2976C2.86588 12.0249 2.72041 12.6977 2.72041 13.6614V18.6801C1.42938 22.2986 0.611118 24.7534 0.0110602 26.9718C-0.025307 27.1136 0.0292438 27.19 0.156529 27.19H0.756587C0.865689 27.19 0.97479 27.1355 1.01116 27.0445C5.53887 15.5162 10.4666 9.80651 13.5578 6.38799C13.6851 6.24252 13.6306 6.13342 13.4487 6.13342Z" fill="black"/>
<path d="M13.6126 0.478234C13.2416 0.621885 12.8852 0.865545 12.7216 1.00556C11.085 2.40569 9.99402 3.51489 8.95755 4.60591C8.83027 4.73319 8.88482 4.86048 9.06666 4.86048H15.1945C15.7582 4.86048 16.0855 5.18778 16.0855 5.75147V12.6612C16.0855 12.8431 16.231 12.8976 16.3401 12.734L20.0314 7.91532C20.6314 7.13343 20.8133 6.89704 20.9769 5.80602C21.1951 4.20587 21.0678 1.75109 20.1041 0.732805C19.2495 -0.176375 15.3945 -0.212742 13.6126 0.478234Z" fill="black"/>
<path d="M14.5397 7.51531C10.7393 11.7521 7.77542 16.2071 5.0297 21.5712C4.96061 21.7058 5.04789 21.8258 5.21154 21.7712L10.8848 20.0256C11.5249 19.8292 11.8849 19.571 12.194 19.0619L14.7216 14.8978C14.7761 14.7887 14.7943 14.6615 14.7943 14.5705V7.62441C14.7943 7.44258 14.667 7.36984 14.5397 7.51531Z" fill="black"/>
</g>
<defs>
<clipPath id="clip0_8732_313">
<rect width="142.141" height="27.1899" fill="white"/>
</clipPath>
</defs>
</svg>
