<svg width="116" height="21" viewBox="0 0 116 21" fill="none" xmlns="http://www.w3.org/2000/svg">
<g clip-path="url(#clip0_8732_329)">
<path d="M23.3393 5.76711C19.1383 5.76711 15.8559 8.95613 15.8559 13.2253C15.8559 17.4945 19.0554 20.6562 23.3393 20.6562C27.6231 20.6562 30.8783 17.4399 30.8783 13.198C30.8783 8.98342 27.6788 5.76711 23.3393 5.76711ZM23.3676 17.5795C20.9753 17.5795 19.2223 15.7215 19.2223 13.2263C19.2223 10.7028 20.947 8.84591 23.3393 8.84591C25.7599 8.84591 27.5119 10.7312 27.5119 13.2263C27.5119 15.7215 25.7599 17.5795 23.3676 17.5795ZM31.7957 9.01176H33.8825V20.3801H37.2206V6.04423H31.7957V9.01176ZM7.45504 8.84486C9.20806 8.84486 10.5989 9.92606 11.1269 11.5342H14.6603C14.0199 8.09641 11.1826 5.76711 7.48338 5.76711C3.28244 5.76711 0 8.95613 0 13.2263C0 17.4966 3.19952 20.6572 7.48338 20.6572C11.0996 20.6572 13.9926 18.3279 14.633 14.8618H11.1269C10.6262 16.47 9.23535 17.5795 7.48233 17.5795C5.0617 17.5795 3.36537 15.7215 3.36537 13.2263C3.36642 10.7028 5.03546 8.84486 7.45504 8.84486ZM95.2213 11.8397L92.7734 11.4796C91.605 11.3138 90.7705 10.9254 90.7705 10.01C90.7705 9.01176 91.8559 8.51315 93.3297 8.51315C94.9431 8.51315 95.9729 9.20596 96.1954 10.3428H99.4222C99.0601 7.45924 96.8347 5.76816 93.4137 5.76816C89.8804 5.76816 87.5437 7.57051 87.5437 10.1213C87.5437 12.5608 89.0742 13.9758 92.1614 14.4188L94.6093 14.7789C95.806 14.9447 96.4736 15.4171 96.4736 16.3041C96.4736 17.4409 95.3053 17.9123 93.6919 17.9123C91.7163 17.9123 90.6036 17.1082 90.4367 15.8884H87.1543C87.4608 18.689 89.6578 20.6572 93.6635 20.6572C97.3081 20.6572 99.7277 18.9935 99.7277 16.1372C99.7277 13.5864 97.9757 12.2554 95.2213 11.8397ZM35.5516 0.138562C34.3276 0.138562 33.4091 1.02557 33.4091 2.24533C33.4091 3.46509 34.3266 4.3521 35.5516 4.3521C36.7755 4.3521 37.694 3.46509 37.694 2.24533C37.694 1.02557 36.7755 0.138562 35.5516 0.138562ZM84.5394 10.9527C84.5394 7.84763 82.6479 5.76816 78.6422 5.76816C74.859 5.76816 72.7449 7.68178 72.3271 10.621H75.6379C75.8048 9.48413 76.695 8.54149 78.5865 8.54149C80.2839 8.54149 81.1184 9.28993 81.1184 10.2053C81.1184 11.3978 79.588 11.7022 77.6964 11.8964C75.1372 12.1735 71.966 13.0605 71.966 16.3881C71.966 18.9672 73.8859 20.63 76.9458 20.63C79.3381 20.63 80.8403 19.6317 81.5919 18.0508C81.7031 19.4648 82.7602 20.3801 84.235 20.3801H86.1822V17.4136H84.5405V10.9527H84.5394ZM81.257 14.5574C81.257 16.471 79.588 17.885 77.5568 17.885C76.3045 17.885 75.2474 17.358 75.2474 16.2495C75.2474 14.8356 76.9448 14.4472 78.5026 14.2813C80.0047 14.1427 80.8392 13.81 81.257 13.1718V14.5574ZM63.5369 5.76711C61.6726 5.76711 60.1148 6.54389 59.0021 7.84658V0H55.664V20.3801H58.9465V18.4948C60.0592 19.8532 61.6453 20.6572 63.5369 20.6572C67.5425 20.6572 70.5752 17.4966 70.5752 13.2263C70.5752 8.95613 67.4869 5.76711 63.5369 5.76711ZM63.0361 17.5795C60.6439 17.5795 58.8908 15.7215 58.8908 13.2263C58.8908 10.7312 60.6711 8.84591 63.0634 8.84591C65.4841 8.84591 67.1804 10.7039 67.1804 13.2263C67.1804 15.7215 65.4284 17.5795 63.0361 17.5795ZM47.6799 5.76711C45.5102 5.76711 44.091 6.65411 43.2565 7.90222V6.04423H39.9457V20.3791H43.2837V12.5881C43.2837 10.3974 44.6746 8.84486 46.7331 8.84486C48.653 8.84486 49.8486 10.2032 49.8486 12.1724V20.3801H53.1867V11.9237C53.1878 8.3179 51.3245 5.76711 47.6799 5.76711ZM115.64 12.755C115.64 8.65171 112.636 5.76816 108.602 5.76816C104.318 5.76816 101.174 8.98447 101.174 13.2263C101.174 17.6908 104.541 20.6572 108.658 20.6572C112.135 20.6572 114.861 18.6051 115.556 15.6942H112.079C111.578 16.9696 110.354 17.6908 108.712 17.6908C106.57 17.6908 104.956 16.3597 104.595 14.0304H115.639V12.755H115.64ZM104.79 11.6455C105.32 9.64894 106.822 8.679 108.546 8.679C110.438 8.679 111.884 9.7602 112.218 11.6455H104.79Z" fill="#0052FF"/>
</g>
<defs>
<clipPath id="clip0_8732_329">
<rect width="115.64" height="20.6572" fill="white"/>
</clipPath>
</defs>
</svg>
