<svg width="160" height="40" viewBox="0 0 160 40" fill="none"
  xmlns="http://www.w3.org/2000/svg">
  <path d="M47.0887 19.9113H41.9798V14.7739H47.3663C49.3381 14.7739 50.324 15.6426 50.324 17.3822C50.324 19.069 49.2452 19.9113 47.0887 19.9113ZM50.761 14.7137C50.057 14.0867 49.0816 13.7732 47.8223 13.7732L40.5072 13.8133V26.1054H41.9808L41.9671 20.8729H47.4117C48.7766 20.8729 49.8511 20.5594 50.6354 19.9324C51.4197 19.3054 51.8124 18.4356 51.8124 17.3231C51.8124 16.2105 51.4619 15.3407 50.7621 14.7137H50.761ZM60.3023 23.5245C60.1619 23.9257 59.9202 24.2867 59.6025 24.5695C58.9427 25.2145 57.9347 25.5365 56.5804 25.5365C55.3559 25.5365 54.4165 25.2282 53.762 24.597C53.1076 23.9658 52.7793 23.1319 52.7793 22.0816C52.7793 21.5348 52.8648 21.0492 53.0368 20.6249C53.199 20.2149 53.4541 19.8482 53.7821 19.5535C54.4597 18.936 55.3929 18.6267 56.5804 18.6267C59.2109 18.6267 60.5282 19.7773 60.5282 22.0816C60.5282 22.6284 60.4522 23.1097 60.3065 23.5245H60.3023ZM60.5746 18.9898C59.6764 18.1707 58.3474 17.7569 56.5846 17.7569C54.921 17.7569 53.6343 18.1749 52.7276 19.012C51.9084 19.7688 51.4946 20.7906 51.4946 22.0774C51.4946 23.3546 51.9169 24.3838 52.7624 25.167C53.2289 25.5892 53.7726 25.8964 54.3943 26.0853C55.015 26.2753 55.7444 26.3703 56.5804 26.3703C58.3326 26.3703 59.6626 25.965 60.5831 25.1543C61.4022 24.4154 61.816 23.3936 61.816 22.0763C61.816 20.7558 61.4022 19.7255 60.5746 18.9845V18.9898ZM71.7215 23.8803C71.7215 25.5343 70.2384 26.3608 67.2743 26.3608C66.3687 26.3608 65.6044 26.3038 64.9848 26.1888C64.3652 26.0727 63.8606 25.8827 63.4743 25.6177C63.1753 25.4157 62.9303 25.1436 62.7607 24.825C62.5855 24.4988 62.4705 24.0893 62.4177 23.5921L63.7973 23.5794C63.7973 24.2307 64.038 24.7089 64.5214 25.0182C65.0386 25.3876 65.957 25.5723 67.2743 25.5723C69.3464 25.5723 70.383 25.053 70.383 24.0143C70.383 23.4074 70.0304 22.9904 69.3401 22.7603C69.1997 22.716 68.3616 22.5999 66.831 22.4109C65.3004 22.2209 64.3388 22.052 63.9609 21.9021C63.1428 21.576 62.7343 20.9912 62.7343 20.1467C62.7343 19.3192 63.0996 18.7027 63.8342 18.2984C64.1952 18.1306 64.647 18.0018 65.1885 17.9079C65.8113 17.8095 66.4412 17.7636 67.0717 17.7706C69.9249 17.7706 71.352 18.6647 71.352 20.4549H70.0399C70.0399 19.1956 69.0371 18.5623 67.0316 18.5623C66.0098 18.5623 65.2487 18.6943 64.7473 18.9455C64.2459 19.1956 63.9957 19.5925 63.9957 20.1203C63.9957 20.6133 64.3346 20.9701 65.0123 21.1907C65.4081 21.3047 66.318 21.4366 67.7441 21.5865C69.0203 21.7016 69.8953 21.8641 70.3703 22.0721C71.2781 22.4236 71.7299 23.0221 71.7299 23.8665L71.7204 23.8792L71.7215 23.8803ZM77.1386 26.1223L76.5771 26.2015L76.2277 26.2278C75.3294 26.2278 74.6865 26.098 74.2854 25.8373C73.8822 25.5766 73.689 25.1206 73.689 24.4724V18.8568H72.0571V18.0314H73.6806L73.6933 15.3819H74.9515V18.0314H77.1407V18.8695L74.9515 18.8568V24.3141C74.9515 24.7216 75.0592 25.0013 75.2745 25.1512C75.4909 25.3011 75.8762 25.3834 76.4303 25.3834C76.5183 25.3918 76.6071 25.3886 76.6942 25.3739C76.841 25.3475 76.9866 25.3148 77.1302 25.2747L77.1429 26.1107L77.1386 26.1223ZM85.8365 24.2592C85.4924 24.541 85.1018 24.7553 84.6617 24.9063C84.2226 25.0572 83.7159 25.1279 83.1448 25.1279C80.5143 25.1279 79.2002 24.0407 79.2002 21.8694C79.2002 20.8582 79.5369 20.0665 80.2093 19.4944C80.8827 18.9223 81.8296 18.6362 83.053 18.6362C84.2838 18.6362 85.219 18.9254 85.8566 19.5018C86.4941 20.077 86.8129 20.8487 86.8129 21.8166C86.8129 22.8722 86.4878 23.685 85.8365 24.2571V24.2592ZM88.0712 18.0335H86.814L86.8002 19.4205C86.2461 18.8568 85.8502 18.5021 85.6117 18.3523C84.9076 17.9649 83.9967 17.7717 82.8788 17.7717C81.2427 17.7717 79.9918 18.1464 79.1294 18.8938C78.3114 19.5799 77.9018 20.5742 77.9018 21.8757C77.9018 22.5196 78.0053 23.0918 78.2121 23.5931C78.4201 24.0945 78.722 24.5273 79.1178 24.8799C79.9823 25.6008 81.2026 25.9618 82.7806 25.9618C84.6764 25.9618 86.0202 25.4436 86.814 24.407V25.8426C86.814 26.7577 86.5258 27.466 85.9484 27.9674C85.3731 28.4699 84.4242 28.7169 83.1047 28.7169C81.8623 28.7169 80.9788 28.5395 80.451 28.2039C80.0541 27.94 79.7818 27.485 79.6319 26.8369H78.3378C78.4781 27.7426 78.8655 28.397 79.482 28.8013C80.204 29.2668 81.419 29.5001 83.1364 29.5001C86.4213 29.5001 88.0669 28.2788 88.0669 25.8373V18.0366L88.0712 18.0335ZM94.8732 18.8494C94.5243 18.7918 94.1713 18.7625 93.8177 18.7618C91.7509 18.7618 90.7175 19.8955 90.7175 22.1618V26.1043H89.474L89.4603 18.0377L90.7185 18.0493V19.4891H90.784C90.9951 18.9223 91.3308 18.4926 91.7868 18.1992C92.2882 17.9163 93.0355 17.7738 94.0298 17.7738H94.8743V18.8568L94.8732 18.8494ZM96.0428 21.5612C96.2011 20.6439 96.5579 19.9345 97.111 19.4321C97.4721 19.1408 97.8816 18.9223 98.3387 18.7776C98.8391 18.6256 99.36 18.5519 99.883 18.5591C101.001 18.5591 101.909 18.8653 102.621 19.4775C103.335 20.0908 103.683 20.7864 103.683 21.5601L96.0428 21.5612ZM103.805 19.0721C103.346 18.6193 102.785 18.2834 102.168 18.0926C101.517 17.8794 100.759 17.7738 99.8788 17.7738C98.25 17.7738 96.9865 18.1527 96.0871 18.9096C95.1878 19.6675 94.7402 20.6977 94.7402 22.0024C94.7402 23.306 95.172 24.3352 96.0344 25.1058C96.9675 25.9502 98.2796 26.3725 99.9822 26.3725C100.661 26.3725 101.287 26.2965 101.864 26.1434C102.4 26.0078 102.91 25.7876 103.376 25.4911C104.133 24.9474 104.612 24.2772 104.816 23.4791H103.456C102.99 24.8588 101.828 25.5481 99.9716 25.5481C98.6606 25.5481 97.6526 25.2113 96.9495 24.5368C96.3415 23.9594 96.0386 23.21 96.0386 22.2895H105.004C105.004 20.9215 104.608 19.849 103.802 19.0764L103.805 19.0721Z" fill="#231F20"/>
  <path d="M118.293 22.8099C118.293 25.2039 116.362 26.402 112.499 26.402C110.184 26.402 108.494 25.9903 107.43 25.1691C106.558 24.4914 106.123 23.458 106.123 22.0657H107.678C107.678 24.3025 109.286 25.4193 112.498 25.4193C114.039 25.4193 115.153 25.1913 115.844 24.7332C116.426 24.3299 116.716 23.6966 116.716 22.8342C116.716 21.9813 116.32 21.3838 115.528 21.0397C115.079 20.855 113.986 20.6217 112.238 20.3409C110.046 20.0063 108.625 19.6728 107.974 19.3382C107.031 18.8452 106.565 18.0102 106.565 16.8312C106.565 15.7323 106.961 14.9143 107.767 14.378C108.629 13.789 110.108 13.4935 112.204 13.4935C115.99 13.4935 117.883 14.7507 117.883 17.2661H116.314C116.314 15.3808 114.909 14.4403 112.097 14.4403C110.688 14.4403 109.656 14.6303 109.004 15.0124C108.387 15.4178 108.079 16.0121 108.079 16.7963C108.079 17.6144 108.476 18.1907 109.268 18.5254C109.691 18.7196 110.933 18.9877 112.993 19.3318C114.93 19.6221 116.238 19.9609 116.911 20.3441C117.836 20.8191 118.298 21.6425 118.298 22.8099H118.293ZM130.929 24.0312C130.343 24.4991 129.675 24.8545 128.96 25.0794C128.228 25.3127 127.409 25.4277 126.501 25.4277C124.651 25.4277 123.155 24.9295 122.013 23.933C120.872 22.9355 120.302 21.6066 120.302 19.9451C120.302 18.214 120.868 16.865 122 15.8981C123.133 14.9312 124.633 14.4488 126.501 14.4488C128.395 14.4488 129.884 14.9544 130.968 15.9646C131.522 16.4315 131.957 17.0234 132.237 17.6915C132.512 18.3501 132.647 19.1017 132.647 19.9451C132.647 21.6678 132.074 23.0295 130.928 24.0312H130.929ZM131.755 24.8461C132.565 24.275 133.165 23.5826 133.552 22.7698C133.941 21.956 134.135 21.0176 134.135 19.9525C134.135 18.044 133.501 16.5187 132.233 15.3608C131.554 14.7285 130.736 14.2577 129.776 13.9505C128.816 13.6423 127.72 13.4882 126.488 13.4882C124.092 13.4882 122.217 14.0688 120.852 15.2299C119.487 16.3889 118.805 17.9638 118.805 19.9514C118.805 21.8863 119.493 23.4475 120.871 24.6339C122.248 25.8215 124.13 26.4157 126.515 26.4157C127.448 26.4157 128.262 26.3524 128.958 26.2257C129.652 26.0991 130.243 25.9059 130.727 25.6452L133.025 27.237L133.984 26.3556L131.759 24.8461H131.755ZM145.777 26.1043H135.146V13.7943L136.607 13.7679V25.0731H145.786L145.773 26.1001L145.777 26.1043Z" fill="#336791"/>
  <path d="M30.4244 24.0386C30.5722 22.9946 30.5279 22.8416 31.4452 23.0105L31.6784 23.0284C32.3836 23.0559 33.3061 22.9324 33.8487 22.7181C35.0151 22.26 35.7065 21.4936 34.5559 21.6942C31.9318 22.1534 31.7513 21.3997 31.7513 21.3997C34.5221 17.9163 35.6812 13.4914 34.6815 12.4083C31.9497 9.45592 27.2345 10.8524 27.1511 10.8883L27.1258 10.8936C26.5471 10.7954 25.9615 10.7439 25.3746 10.7395C24.1871 10.7226 23.2867 11.0034 22.6027 11.4425C22.6027 11.4425 14.1824 8.50169 14.5751 15.1402C14.6585 16.5525 16.9628 25.8267 19.7115 23.0253C20.7164 22.0014 21.6875 21.1358 21.6875 21.1358C22.1942 21.4187 22.7737 21.5443 23.3521 21.4947L23.3986 21.4609C23.3838 21.5886 23.3901 21.7121 23.4176 21.8599C22.7103 22.5302 22.9172 22.6484 21.5017 22.8954C20.0693 23.1456 20.9106 23.5921 21.4595 23.7082C22.1266 23.8486 23.6667 24.0492 24.7085 22.8141L24.6663 22.9545C24.945 23.1435 24.926 24.3088 24.9661 25.1417C25.0051 25.9756 25.0716 26.7514 25.2711 27.2106C25.4717 27.6687 25.7082 28.8478 27.5681 28.511C29.1229 28.2281 30.3125 27.8218 30.4213 24.0397" fill="#231F20"/>
  <path d="M30.4244 24.0386C30.5722 22.9946 30.5279 22.8416 31.4452 23.0105L31.6784 23.0284C32.3836 23.0559 33.3061 22.9324 33.8487 22.7181C35.0151 22.26 35.7065 21.4936 34.5559 21.6942C31.9318 22.1534 31.7513 21.3997 31.7513 21.3997C34.5221 17.9163 35.6812 13.4914 34.6815 12.4083C31.9497 9.45592 27.2345 10.8524 27.1511 10.8883L27.1258 10.8936C26.5471 10.7954 25.9615 10.7439 25.3746 10.7395C24.1871 10.7226 23.2867 11.0034 22.6027 11.4425C22.6027 11.4425 14.1824 8.50169 14.5751 15.1402C14.6585 16.5525 16.9628 25.8267 19.7115 23.0253C20.7164 22.0014 21.6875 21.1358 21.6875 21.1358C22.1942 21.4187 22.7737 21.5443 23.3521 21.4947L23.3986 21.4609C23.3838 21.5886 23.3901 21.7121 23.4176 21.8599C22.7103 22.5302 22.9172 22.6484 21.5017 22.8954C20.0693 23.1456 20.9106 23.5921 21.4595 23.7082C22.1266 23.8486 23.6667 24.0492 24.7085 22.8141L24.6663 22.9545C24.945 23.1435 24.926 24.3088 24.9661 25.1417C25.0051 25.9756 25.0716 26.7514 25.2711 27.2106C25.4717 27.6687 25.7082 28.8478 27.5681 28.511C29.1229 28.2281 30.3125 27.8218 30.4213 24.0397" stroke="#231F20" stroke-width="2.11114"/>
  <path d="M34.5559 21.6942C31.9318 22.1534 31.7513 21.3997 31.7513 21.3997C34.5222 17.9142 35.6801 13.4914 34.6805 12.4083C31.954 9.45592 27.2345 10.8524 27.1501 10.8883L27.1247 10.8936C26.5461 10.7954 25.9605 10.7439 25.3736 10.7395C24.1871 10.7226 23.2856 11.0034 22.6027 11.4425C22.6027 11.4425 14.1814 8.50169 14.574 15.1402C14.6574 16.5525 16.9617 25.8278 19.7104 23.0253C20.7153 22.0014 21.6865 21.1358 21.6865 21.1358C22.1931 21.4187 22.7726 21.5443 23.3511 21.4947L23.3975 21.4609C23.3828 21.5886 23.3901 21.7121 23.4165 21.8599C22.7093 22.5312 22.9162 22.6484 21.5017 22.8954C20.0693 23.1456 20.9106 23.5921 21.4595 23.7082C22.1266 23.8486 23.6667 24.0492 24.7085 22.8141L24.6663 22.9556C24.9439 23.1435 25.1392 24.18 25.1076 25.1216C25.0759 26.0621 25.0527 26.706 25.2712 27.2116C25.4907 27.7151 25.7082 28.8478 27.5691 28.511C29.125 28.2292 29.9304 27.4977 30.0423 26.2753C30.1215 25.4077 30.302 25.5365 30.3136 24.7596L30.4582 24.3922C30.624 23.2163 30.4846 22.8363 31.442 23.0126L31.6753 23.0305C32.3804 23.058 33.304 22.9345 33.8455 22.7212C35.012 22.2621 35.7033 21.4968 34.5528 21.6973L34.5559 21.6942Z" fill="#336791"/>
  <path d="M27.1501 10.8588C26.8587 10.9369 31.8379 9.31764 34.6678 12.3809C35.6675 13.465 34.5095 17.8878 31.7376 21.3733M24.8247 22.3697C24.7529 24.559 24.8426 26.7641 25.0959 27.3003C25.3493 27.8365 25.8897 28.8784 27.7517 28.5406C29.3066 28.2577 29.8724 27.7109 30.1173 26.5033C30.2936 25.6167 30.6472 23.1488 30.6915 22.6442L24.8247 22.3697ZM22.5942 11.3918C22.5942 11.3918 14.1624 8.47319 14.5593 15.1148C14.6469 16.5272 16.9469 25.8025 19.6967 22.9957C20.7016 21.9718 21.6094 21.1685 21.6094 21.1685L22.5942 11.3918Z" stroke="white" stroke-width="0.527784" stroke-linecap="round" stroke-linejoin="round"/>
  <path fill-rule="evenodd" clip-rule="evenodd" d="M31.7333 21.3722C31.7333 21.3722 31.9096 22.1249 34.538 21.6667C35.6886 21.4662 34.9961 22.2315 33.8297 22.6906C32.8723 23.0675 30.7263 23.1635 30.6915 22.6431C30.6018 21.3005 31.822 21.709 31.7333 21.3722C31.6542 21.0693 31.1074 20.7727 30.7464 20.0317C30.4318 19.3835 26.4281 14.4213 31.8569 15.1581C32.0564 15.1233 30.4403 10.7807 25.3588 10.7099C20.2762 10.6392 20.4451 16.0068 20.4451 16.0068" fill="#336791"/>
  <path d="M31.7333 21.3722C31.7333 21.3722 31.9096 22.1249 34.538 21.6667C35.6886 21.4662 34.9961 22.2315 33.8297 22.6906C32.8723 23.0675 30.7263 23.1635 30.6915 22.6431C30.6018 21.3005 31.822 21.709 31.7333 21.3722ZM31.7333 21.3722C31.6542 21.0693 31.1074 20.7727 30.7464 20.0317C30.4318 19.3835 26.4281 14.4213 31.8569 15.1581C32.0564 15.1233 30.4403 10.7807 25.3588 10.7099C20.2762 10.6392 20.4451 16.0068 20.4451 16.0068" stroke="white" stroke-width="0.527784" stroke-linecap="round" stroke-linejoin="bevel"/>
  <path d="M23.4028 21.8325C22.6945 22.5027 22.9035 22.6199 21.4869 22.8669C20.0545 23.1181 20.8958 23.5636 21.4447 23.6797C22.1118 23.8212 23.653 24.0207 24.6938 22.7856C25.0104 22.4088 24.6917 21.8082 24.2568 21.6562C24.0456 21.5823 23.7649 21.4894 23.4017 21.8314L23.4028 21.8325Z" stroke="white" stroke-width="0.527784" stroke-linejoin="round"/>
  <path fill-rule="evenodd" clip-rule="evenodd" d="M23.3563 21.8209C23.2856 21.4261 23.5094 20.9574 23.7501 20.4085C24.1111 19.5852 24.9439 18.7608 24.2779 16.1472C23.7817 14.2007 20.4493 15.7429 20.4483 16.0068C20.4461 16.2707 20.5981 17.3452 20.3923 18.5961C20.1221 20.228 21.6168 21.6087 23.3373 21.4672" fill="#336791"/>
  <path d="M23.3563 21.8209C23.2856 21.4261 23.5094 20.9574 23.7501 20.4085C24.1111 19.5852 24.9439 18.7608 24.2779 16.1472C23.7817 14.2007 20.4493 15.7429 20.4483 16.0068C20.4461 16.2707 20.5981 17.3452 20.3923 18.5961C20.1221 20.228 21.6168 21.6087 23.3373 21.4672" stroke="white" stroke-width="0.527784" stroke-linecap="round" stroke-linejoin="round"/>
  <path d="M22.5636 15.9667C22.5488 16.0564 22.7589 16.2971 23.0323 16.3287C23.3067 16.3614 23.539 16.1736 23.5537 16.0838C23.5696 15.9941 23.3595 15.8938 23.0861 15.8622C22.8117 15.8294 22.5794 15.8769 22.5636 15.9667Z" fill="white" stroke="white" stroke-width="0.481339"/>
  <path d="M30.8804 15.783C30.8963 15.8727 30.6862 16.1134 30.4128 16.1461C30.1384 16.1778 29.9062 15.9899 29.8903 15.8991C29.8755 15.8083 30.0856 15.7091 30.359 15.6774C30.6324 15.6447 30.8657 15.6933 30.8804 15.783Z" fill="white" stroke="white" stroke-width="0.24067"/>
  <path d="M31.8579 15.1592C31.9033 15.8664 31.6784 16.3477 31.6499 17.1014C31.6077 18.196 32.2653 19.4479 31.2752 20.703" stroke="white" stroke-width="0.527784" stroke-linecap="round" stroke-linejoin="round"/>
</svg>
