<svg width="115" height="22" viewBox="0 0 115 22" fill="none" xmlns="http://www.w3.org/2000/svg">
<g clip-path="url(#clip0_8732_273)">
<path d="M101.251 -3.05176e-05C100.8 -3.05176e-05 100.533 0.367486 100.533 0.7183V6.01392H114.549L108.167 -3.05176e-05H101.251Z" fill="#126BC5"/>
<path d="M115 7.63438C115 7.18333 114.633 6.91605 114.282 6.91605H108.986V20.9319L115 14.5504V7.63438Z" fill="#126BC5"/>
<path d="M107.366 21.3829C107.817 21.3829 108.084 21.0154 108.084 20.6646V15.369H94.0684L100.45 21.3829H107.366Z" fill="#126BC5"/>
<path d="M93.6172 13.7485C93.6172 14.1996 93.9847 14.4669 94.3355 14.4669H99.6311V0.534576L93.6172 6.91604V13.7485Z" fill="#126BC5"/>
<path d="M29.552 2.52252V8.98751H20.5812V2.52252H17.3403V18.8604H20.5812V11.8608H29.552V18.8604H32.8764V2.52252H29.552Z" fill="black"/>
<path d="M73.1362 2.52252V18.7769H87.5029L85.7154 15.9871H76.4606V11.8608H85.3479V9.07104H76.4606V5.39585H85.6152L87.4194 2.52252H73.1362Z" fill="black"/>
<path d="M5.12856 2.52252C1.72066 2.52252 0 4.59399 0 7.65108V13.7653C0 17.2734 2.23853 18.8938 5.12856 18.8938H15.369L13.4813 15.8367H5.74666C4.12624 15.8367 3.40791 15.2019 3.40791 13.4144V7.93507C3.40791 6.13089 4.04271 5.41255 5.83019 5.41255H13.5648L15.369 2.53923L5.12856 2.52252Z" fill="black"/>
<path d="M58.7534 2.52252C56.7822 2.52252 54.7942 3.6919 54.7942 6.74899V7.55085C54.7942 10.6915 56.7655 11.9611 58.6532 11.9611H65.4857C66.204 11.9611 66.7386 12.0446 66.7386 13.3142V14.6673C66.7386 15.7532 66.204 16.0205 65.3854 16.0205H56.3979L54.5938 18.8938H65.6527C68.3423 18.8938 70.1465 17.5407 70.1465 14.4836V13.3977C70.1465 10.4409 68.4425 9.08775 65.8365 9.08775H59.2713C58.5529 9.08775 58.0184 8.90399 58.0184 7.83484V6.58194C58.0184 5.67985 58.3859 5.32903 59.1877 5.32903H67.7242L69.5284 2.53923H58.7534V2.52252Z" fill="black"/>
<path d="M42.3987 2.52252L34.6641 18.7769H38.356L39.8762 15.4525H48.2289L49.749 18.7769H53.4409L45.6228 2.52252H42.3987ZM43.9356 5.93042L46.8924 12.6627H40.962L43.9356 5.93042Z" fill="black"/>
</g>
<defs>
<clipPath id="clip0_8732_273">
<rect width="115" height="21.3829" fill="white"/>
</clipPath>
</defs>
</svg>
