<svg width="160" height="40" viewBox="0 0 160 40" fill="none"
  xmlns="http://www.w3.org/2000/svg">
  <path opacity="0.914" fill-rule="evenodd" clip-rule="evenodd" d="M29.0505 4.78222C28.9231 4.77269 28.8046 4.79639 28.695 4.85333C28.6826 4.68544 28.6589 4.51951 28.6239 4.35556C27.2571 4.83723 25.9298 5.41798 24.6417 6.09778C24.5469 6.14519 24.5469 6.19259 24.6417 6.24C25.1542 6.29382 25.652 6.37678 26.135 6.48889C26.1426 6.62248 26.107 6.64618 26.0283 6.56C25.9928 6.64297 25.9335 6.70222 25.8505 6.73778C25.9411 6.80727 25.9411 6.86653 25.8505 6.91556C25.3185 6.82968 24.797 6.72302 24.2861 6.59556C25.0134 7.33483 25.7483 8.05779 26.4905 8.76444C26.0967 8.76069 25.7175 8.68958 25.3528 8.55111C24.8292 7.90936 24.3076 7.26936 23.7883 6.63111C23.7804 6.58721 23.7567 6.55165 23.7172 6.52444C23.9263 6.26226 24.1159 5.98967 24.2861 5.70667C25.7457 4.98314 27.2627 4.41425 28.8372 4C28.8652 4.27358 28.9363 4.53432 29.0505 4.78222Z" fill="#ADB4BE"/>
  <path opacity="0.975" fill-rule="evenodd" clip-rule="evenodd" d="M24.2861 5.70667C24.1159 5.98967 23.9263 6.26227 23.7172 6.52444C23.7568 6.55165 23.7804 6.58721 23.7883 6.63111C23.2853 6.94472 22.906 7.37139 22.6506 7.91111C22.2359 7.87494 21.9752 7.66161 21.8683 7.27111C22.5525 6.57271 23.3585 6.05123 24.2861 5.70667Z" fill="#949FAB"/>
  <path opacity="0.911" fill-rule="evenodd" clip-rule="evenodd" d="M29.0505 4.78222C29.6127 6.45179 30.3476 8.03994 31.255 9.54667C30.963 9.52961 30.6785 9.4822 30.4016 9.40444C30.1143 8.86777 29.8417 8.32258 29.5839 7.76889C29.0752 8.24245 28.5182 8.64542 27.9127 8.97778C27.5856 8.99345 27.2775 8.94605 26.9883 8.83556C27.7404 8.35886 28.5227 7.92034 29.335 7.52C28.1518 7.38683 26.9904 7.18534 25.8505 6.91556C25.9411 6.86653 25.9411 6.80727 25.8505 6.73778C25.9335 6.70222 25.9927 6.64297 26.0283 6.56C26.107 6.64618 26.1426 6.62248 26.135 6.48889C27.1824 6.63586 28.2253 6.78993 29.2639 6.95111C28.9948 6.27414 28.8052 5.57488 28.695 4.85333C28.8046 4.7964 28.9231 4.77269 29.0505 4.78222Z" fill="#CED2D7"/>
  <path opacity="0.95" fill-rule="evenodd" clip-rule="evenodd" d="M21.8683 7.27111C21.9752 7.66161 22.2359 7.87494 22.6505 7.91111C23.0232 8.05166 23.4024 8.17018 23.7883 8.26667C23.7962 8.31057 23.8199 8.34613 23.8594 8.37333C23.7291 8.40889 23.6461 8.49185 23.6105 8.62222C23.5868 8.59852 23.5631 8.57481 23.5394 8.55111C23.5051 8.61852 23.4933 8.68964 23.5039 8.76444C23.5039 8.78815 23.5039 8.81185 23.5039 8.83556C23.4565 8.83556 23.4328 8.81185 23.4328 8.76444C23.4328 8.71703 23.4091 8.69333 23.3617 8.69333C23.2191 8.74695 23.1717 8.82992 23.2194 8.94222C23.1438 9.04964 23.049 9.06149 22.935 8.97778C22.4268 8.58851 22.0239 8.11444 21.7261 7.55556C21.7381 7.43676 21.7855 7.34195 21.8683 7.27111Z" fill="#B01032"/>
  <path fill-rule="evenodd" clip-rule="evenodd" d="M23.7883 8.26667C24.3046 8.38889 24.8261 8.48371 25.3528 8.55111C25.7175 8.68958 26.0967 8.76069 26.4905 8.76445C26.6515 8.81555 26.8174 8.83925 26.9883 8.83556C27.2775 8.94605 27.5856 8.99345 27.9127 8.97778C27.9632 9.04206 28.0343 9.06577 28.1261 9.04889C27.944 9.27334 27.7425 9.32075 27.5216 9.19111C27.3801 9.36217 27.2142 9.40957 27.0239 9.33333C26.9749 9.39426 26.9156 9.44166 26.8461 9.47556C26.7398 9.38985 26.645 9.38985 26.5616 9.47556C26.235 9.42686 25.915 9.35575 25.6016 9.26222C25.6607 9.54823 25.7436 9.83267 25.8505 10.1156C25.735 10.1056 25.6521 10.153 25.6016 10.2578C25.5773 10.1071 25.5181 10.0834 25.4239 10.1867C25.3266 9.83547 25.208 9.49177 25.0683 9.15556C24.5459 9.02493 24.0243 8.89457 23.5039 8.76445C23.4932 8.68964 23.5051 8.61853 23.5394 8.55111C23.5631 8.57481 23.5868 8.59852 23.6105 8.62222C23.6461 8.49186 23.729 8.40889 23.8594 8.37333C23.8199 8.34613 23.7962 8.31057 23.7883 8.26667Z" fill="#C11D32"/>
  <path opacity="0.961" fill-rule="evenodd" clip-rule="evenodd" d="M28.1261 9.04889C28.8824 9.18064 29.6409 9.29915 30.4016 9.40444C30.6786 9.4822 30.963 9.52961 31.255 9.54667C32.4349 9.70762 33.5964 9.92095 34.7394 10.1867C34.7576 10.3485 34.8525 10.4315 35.0239 10.4356C35.1987 10.6095 35.3646 10.7873 35.5216 10.9689C35.4742 11.0163 35.4269 11.0637 35.3794 11.1111C35.3882 11.1543 35.4119 11.178 35.4505 11.1822C35.3616 12.0355 35.172 12.8651 34.8816 13.6711C34.6927 13.6044 34.5268 13.4622 34.3839 13.2444C34.6535 12.6012 34.8669 11.9375 35.0239 11.2533C35.0002 11.2297 34.9764 11.2059 34.9528 11.1822C34.6171 11.35 34.2853 11.5159 33.9572 11.68C33.8861 11.5378 33.815 11.3956 33.7439 11.2533C33.9706 11.1282 34.2077 11.0215 34.455 10.9333C33.4746 10.7255 32.5028 10.524 31.5394 10.3289C31.4857 10.1891 31.4028 10.1654 31.2905 10.2578C31.2431 10.2104 31.1957 10.163 31.1483 10.1156C30.9771 10.1279 30.8112 10.1279 30.6505 10.1156C30.4982 9.9849 30.3441 9.9612 30.1883 10.0444C29.7867 9.92393 29.3838 9.87652 28.9794 9.90222C28.165 9.8057 27.3591 9.66347 26.5616 9.47556C26.645 9.38985 26.7398 9.38985 26.8461 9.47556C26.9156 9.44166 26.9749 9.39425 27.0239 9.33333C27.2142 9.40957 27.3801 9.36217 27.5216 9.19111C27.7425 9.32075 27.944 9.27334 28.1261 9.04889Z" fill="#CA2030"/>
  <path opacity="0.992" fill-rule="evenodd" clip-rule="evenodd" d="M77.1216 9.26222C77.3599 9.25049 77.5969 9.26234 77.8328 9.29778C77.9184 9.39398 77.9658 9.51249 77.975 9.65333C77.9513 9.76 77.9276 9.86667 77.9039 9.97333C77.5691 9.77268 77.2728 9.82008 77.015 10.1156C76.9163 10.462 76.8807 10.8176 76.9083 11.1822C77.1928 11.1822 77.4772 11.1822 77.7616 11.1822C77.7616 11.3956 77.7616 11.6089 77.7616 11.8222C77.4772 11.8222 77.1928 11.8222 76.9083 11.8222C76.9083 12.9126 76.9083 14.003 76.9083 15.0933C76.6713 15.0933 76.4342 15.0933 76.1972 15.0933C76.1972 14.003 76.1972 12.9126 76.1972 11.8222C75.9839 11.8222 75.7705 11.8222 75.5572 11.8222C75.5572 11.6089 75.5572 11.3956 75.5572 11.1822C75.7705 11.1822 75.9839 11.1822 76.1972 11.1822C76.0073 10.2743 76.3155 9.63433 77.1216 9.26222Z" fill="#221E1F"/>
  <path opacity="0.965" fill-rule="evenodd" clip-rule="evenodd" d="M56.4283 9.40444C57.0023 9.44661 57.1445 9.7192 56.855 10.2222C56.2908 10.3927 56.0656 10.1912 56.1794 9.61778C56.2609 9.53697 56.3438 9.46586 56.4283 9.40444Z" fill="#221E1F"/>
  <path opacity="0.989" fill-rule="evenodd" clip-rule="evenodd" d="M49.3883 9.68889C49.7154 9.66756 50.0354 9.69126 50.3483 9.76C50.9508 11.1644 51.5671 12.5629 52.1972 13.9556C52.794 12.5487 53.4103 11.1502 54.0461 9.76C54.3352 9.69147 54.6316 9.66777 54.935 9.68889C54.935 11.4903 54.935 13.2919 54.935 15.0933C54.7217 15.0933 54.5083 15.0933 54.295 15.0933C54.3069 13.6709 54.295 12.2487 54.2594 10.8267C53.6586 12.2501 53.0305 13.6605 52.375 15.0578C52.0337 15.1489 51.8321 15.0186 51.7705 14.6667C51.2253 13.4341 50.6802 12.2015 50.135 10.9689C50.0994 12.3435 50.0876 13.7183 50.0994 15.0933C49.8624 15.0933 49.6253 15.0933 49.3883 15.0933C49.3883 13.2919 49.3883 11.4903 49.3883 9.68889Z" fill="#221E1F"/>
  <path opacity="0.982" fill-rule="evenodd" clip-rule="evenodd" d="M79.255 10.0444C79.3934 10.3926 79.4408 10.7718 79.3972 11.1822C79.7291 11.1822 80.0609 11.1822 80.3928 11.1822C80.3928 11.3956 80.3928 11.6089 80.3928 11.8222C80.0609 11.8222 79.7291 11.8222 79.3972 11.8222C79.3661 12.681 79.4016 13.5343 79.5039 14.3822C79.7641 14.6393 80.0485 14.663 80.3572 14.4533C80.5162 14.9796 80.3266 15.2403 79.7883 15.2356C79.3021 15.2537 78.9703 15.0404 78.7928 14.5956C78.6931 13.6748 78.6576 12.7504 78.6861 11.8222C78.4728 11.8222 78.2594 11.8222 78.0461 11.8222C78.0461 11.6089 78.0461 11.3956 78.0461 11.1822C78.2594 11.1822 78.4728 11.1822 78.6861 11.1822C78.6629 10.8705 78.6867 10.5623 78.7572 10.2578C78.9361 10.1988 79.1021 10.1277 79.255 10.0444Z" fill="#221E1F"/>
  <path opacity="0.916" fill-rule="evenodd" clip-rule="evenodd" d="M23.3616 8.69333C23.4091 8.69333 23.4328 8.71703 23.4328 8.76444C23.4328 8.81185 23.4565 8.83556 23.5039 8.83556C24.2685 9.41036 24.9085 10.0978 25.4239 10.8978C25.3884 11.0943 25.2699 11.2129 25.0683 11.2533C24.7871 10.8888 24.4908 10.5332 24.1794 10.1867C23.7288 9.81897 23.314 9.41601 22.935 8.97778C23.0489 9.06149 23.1438 9.04964 23.2194 8.94222C23.1716 8.82992 23.219 8.74695 23.3616 8.69333Z" fill="#C51D31"/>
  <path opacity="0.934" fill-rule="evenodd" clip-rule="evenodd" d="M28.9794 9.90222C29.3838 9.87652 29.7868 9.92393 30.1883 10.0444C30.3441 9.9612 30.4982 9.9849 30.6506 10.1156C30.8113 10.1279 30.9772 10.1279 31.1483 10.1156C31.1958 10.163 31.2431 10.2104 31.2906 10.2578C31.4028 10.1654 31.4858 10.1891 31.5394 10.3289C31.0722 10.2925 30.6099 10.2214 30.1528 10.1156C30.1172 10.1393 30.0817 10.163 30.0461 10.1867C30.2317 10.6012 30.3739 11.0278 30.4728 11.4667C30.3559 11.4514 30.2492 11.4752 30.1528 11.5378C30.045 11.3564 29.9857 11.3801 29.975 11.6089C29.8866 11.0859 29.7562 10.5644 29.5839 10.0444C28.6557 10.7114 27.7906 11.4581 26.9883 12.2844C27.0557 12.3188 27.1269 12.3306 27.2017 12.32C26.966 12.3805 26.7645 12.499 26.5972 12.6756C26.525 12.5949 26.4775 12.6186 26.455 12.7467C26.4229 12.5739 26.3636 12.5621 26.2772 12.7111C26.3009 12.7348 26.3246 12.7585 26.3483 12.7822C26.2059 12.806 26.0874 12.8653 25.9928 12.96C25.759 12.3502 25.4508 11.7813 25.0683 11.2533C25.2699 11.2129 25.3884 11.0943 25.4239 10.8978C25.5166 11.0035 25.5995 11.1221 25.6728 11.2533C25.6427 10.8894 25.5597 10.5339 25.4239 10.1867C25.5181 10.0834 25.5773 10.1071 25.6017 10.2578C25.6522 10.153 25.7351 10.1056 25.8506 10.1156C26.1095 10.6665 26.3347 11.2353 26.5261 11.8222C27.2256 11.1111 28.0196 10.5304 28.9083 10.08C28.9618 10.0323 28.9856 9.97304 28.9794 9.90222Z" fill="#D5272E"/>
  <path opacity="0.967" fill-rule="evenodd" clip-rule="evenodd" d="M34.7394 10.1867C36.1521 10.4364 37.5269 10.8157 38.8639 11.3244C38.9958 11.5891 39.1617 11.8736 39.3616 12.1778C39.3257 12.2787 39.2546 12.326 39.1483 12.32C37.9389 11.8694 36.7062 11.4902 35.4505 11.1822C35.4119 11.178 35.3882 11.1543 35.3794 11.1111C35.4269 11.0637 35.4742 11.0163 35.5216 10.9689C35.3646 10.7873 35.1987 10.6095 35.0239 10.4356C34.8525 10.4315 34.7576 10.3485 34.7394 10.1867Z" fill="#B71331"/>
  <path opacity="0.98" fill-rule="evenodd" clip-rule="evenodd" d="M59.3439 11.1111C59.8275 11.0847 60.3015 11.132 60.7661 11.2533C60.7778 11.5152 60.766 11.7759 60.7305 12.0356C60.0496 11.5317 59.4096 11.5792 58.8105 12.1778C58.3216 12.9923 58.4046 13.739 59.0594 14.4178C59.6221 14.6745 60.1672 14.6389 60.695 14.3111C60.7865 14.5393 60.7865 14.7644 60.695 14.9867C59.6974 15.4335 58.8323 15.2557 58.0994 14.4533C57.6297 13.4852 57.7009 12.5607 58.3128 11.68C58.6262 11.4228 58.9699 11.2332 59.3439 11.1111Z" fill="#221E1F"/>
  <path opacity="0.981" fill-rule="evenodd" clip-rule="evenodd" d="M65.3883 11.1111C66.1388 10.9874 66.7906 11.177 67.3439 11.68C67.5169 11.9143 67.6355 12.1751 67.6994 12.4622C67.7627 12.9894 67.739 13.5109 67.6283 14.0267C67.0441 15.1226 66.1552 15.4663 64.9616 15.0578C64.2113 14.6599 63.8557 14.0317 63.895 13.1733C63.8785 12.1011 64.3763 11.4137 65.3883 11.1111ZM65.6727 11.68C66.6266 11.7096 67.1007 12.2074 67.095 13.1733C66.9794 14.4156 66.3394 14.8304 65.175 14.4178C64.5818 13.8132 64.4514 13.1139 64.7839 12.32C64.9913 11.9742 65.2875 11.7609 65.6727 11.68Z" fill="#221E1F"/>
  <path opacity="0.973" fill-rule="evenodd" clip-rule="evenodd" d="M63.0417 11.1111C63.6357 11.0485 63.8254 11.3092 63.6106 11.8933C63.0663 11.6731 62.6752 11.8391 62.4372 12.3911C62.3348 13.2865 62.2992 14.1873 62.3306 15.0933C62.0935 15.0933 61.8565 15.0933 61.6194 15.0933C61.6194 13.7897 61.6194 12.4859 61.6194 11.1822C61.8565 11.1822 62.0935 11.1822 62.3306 11.1822C62.2653 11.7228 62.3601 11.782 62.615 11.36C62.7524 11.2563 62.8946 11.1733 63.0417 11.1111Z" fill="#221E1F"/>
  <path fill-rule="evenodd" clip-rule="evenodd" d="M56.215 11.1822C56.452 11.1822 56.6891 11.1822 56.9261 11.1822C56.9261 12.4859 56.9261 13.7897 56.9261 15.0933C56.6891 15.0933 56.452 15.0933 56.215 15.0933C56.215 13.7897 56.215 12.4859 56.215 11.1822Z" fill="#221E1F"/>
  <path opacity="0.976" fill-rule="evenodd" clip-rule="evenodd" d="M72.855 11.1111C74.3933 10.93 75.1755 11.6055 75.2016 13.1378C75.1932 14.4144 74.5532 15.1137 73.2816 15.2356C72.0286 15.1202 71.3886 14.4329 71.3616 13.1733C71.3472 12.0996 71.845 11.4121 72.855 11.1111ZM73.1394 11.68C73.8245 11.6484 74.2631 11.9566 74.455 12.6044C74.5168 13.0608 74.4931 13.5112 74.3839 13.9556C73.9443 14.619 73.3636 14.7731 72.6416 14.4178C72.1385 13.9746 71.9607 13.4175 72.1083 12.7467C72.2279 12.1651 72.5715 11.8095 73.1394 11.68Z" fill="#221E1F"/>
  <path opacity="0.902" fill-rule="evenodd" clip-rule="evenodd" d="M81.5305 10.4C82.728 10.329 83.1902 10.8742 82.9172 12.0356C82.5367 12.5889 82.027 12.743 81.3883 12.4978C80.8436 12.1594 80.6658 11.6735 80.855 11.04C81.0261 10.7621 81.2512 10.5487 81.5305 10.4ZM82.455 12.1778C82.3247 12.348 82.1469 12.4191 81.9217 12.3911C81.3519 12.3666 81.0319 12.0703 80.9617 11.5022C81.1427 10.6772 81.6167 10.4165 82.3839 10.72C82.7781 10.9886 82.9085 11.356 82.775 11.8222C82.7042 11.9758 82.5975 12.0944 82.455 12.1778ZM81.7439 10.9689C82.0426 10.9636 82.1375 11.094 82.0283 11.36C81.9364 11.3948 81.8415 11.4067 81.7439 11.3956C81.7439 11.2533 81.7439 11.1111 81.7439 10.9689Z" fill="#221E1F"/>
  <path opacity="0.924" fill-rule="evenodd" clip-rule="evenodd" d="M82.455 12.1778C82.3573 12.1889 82.2625 12.1771 82.1705 12.1422C81.8468 11.4644 81.7046 11.4763 81.7439 12.1778C81.6491 12.1778 81.5542 12.1778 81.4594 12.1778C81.4594 11.7037 81.4594 11.2297 81.4594 10.7556C81.7731 10.7215 82.0694 10.7689 82.3483 10.8978C82.4324 11.1662 82.3731 11.3914 82.1705 11.5733C82.2947 11.7624 82.3895 11.9639 82.455 12.1778ZM81.7439 10.9689C81.7439 11.1111 81.7439 11.2533 81.7439 11.3956C81.8415 11.4067 81.9364 11.3948 82.0283 11.36C82.1375 11.094 82.0426 10.9636 81.7439 10.9689Z" fill="#221E1F"/>
  <path opacity="0.98" fill-rule="evenodd" clip-rule="evenodd" d="M69.3705 11.1111C69.7837 11.0842 70.1866 11.1317 70.5794 11.2533C70.6742 11.4903 70.6742 11.7274 70.5794 11.9644C70.2003 11.7092 69.7973 11.6499 69.3705 11.7867C69.0719 12.008 69.0245 12.2687 69.2283 12.5689C69.5404 12.7723 69.8722 12.9382 70.2239 13.0667C70.7461 13.3892 70.9239 13.8514 70.7572 14.4533C70.4733 15.0117 70.011 15.2725 69.3705 15.2356C69.0514 15.2097 68.7432 15.1386 68.4461 15.0222C68.3513 14.7615 68.3513 14.5008 68.4461 14.24C68.8976 14.601 69.3954 14.684 69.9394 14.4889C70.1993 14.2182 70.1757 13.9575 69.8683 13.7067C69.3784 13.5152 68.9399 13.2425 68.5528 12.8889C68.2136 12.0031 68.4862 11.4106 69.3705 11.1111Z" fill="#221E1F"/>
  <path opacity="0.923" fill-rule="evenodd" clip-rule="evenodd" d="M38.8639 11.3244C41.9652 12.27 44.3593 14.1189 46.0461 16.8711C43.898 17.254 41.7647 17.7045 39.6461 18.2222C39.6531 18.1239 39.6531 18.0173 39.6461 17.9022C39.6972 17.7161 39.7921 17.562 39.9305 17.44C41.7124 17.0584 43.514 16.7858 45.335 16.6222C44.1587 15.2678 42.7839 14.1655 41.2105 13.3156C40.7502 14.249 40.205 15.126 39.575 15.9467C39.5318 15.8216 39.5554 15.6912 39.6461 15.5556C39.6173 15.4884 39.5699 15.4409 39.5039 15.4133C39.6052 15.2914 39.5815 15.1967 39.4328 15.1289C39.5234 15.0594 39.5234 15.0001 39.4328 14.9511C39.8612 14.415 40.2641 13.858 40.6417 13.28C39.8963 13.4249 39.1615 13.6265 38.4372 13.8844C38.3467 13.7271 38.2756 13.5612 38.2239 13.3867C38.8672 13.1664 39.5309 12.9887 40.215 12.8533C39.8577 12.6678 39.5021 12.49 39.1483 12.32C39.2546 12.326 39.3257 12.2787 39.3617 12.1778C39.1617 11.8736 38.9958 11.5891 38.8639 11.3244Z" fill="#A80531"/>
  <path opacity="0.948" fill-rule="evenodd" clip-rule="evenodd" d="M33.7439 11.2533C33.815 11.3956 33.8861 11.5378 33.9572 11.68C32.9915 12.2659 32.0433 12.8822 31.1128 13.5289C30.2371 13.1784 29.3127 13.0954 28.3394 13.28C28.1979 13.3066 28.0793 13.3658 27.9839 13.4578C27.5996 13.3854 27.2203 13.2906 26.8461 13.1733C26.8107 13.4524 26.8107 13.7369 26.8461 14.0267C26.6402 14.0905 26.4743 14.2091 26.3483 14.3822C26.2742 13.8959 26.1556 13.4218 25.9928 12.96C26.0873 12.8653 26.2059 12.806 26.3483 12.7822C26.3246 12.7585 26.3009 12.7348 26.2772 12.7111C26.3636 12.5621 26.4229 12.5739 26.455 12.7467C26.4775 12.6186 26.525 12.5949 26.5972 12.6756C26.7645 12.499 26.966 12.3805 27.2017 12.32C28.1246 12.5684 29.0372 12.8528 29.9394 13.1733C29.975 12.6524 29.9868 12.1309 29.975 11.6089C29.9857 11.3801 30.045 11.3564 30.1528 11.5378C30.2492 11.4752 30.3559 11.4515 30.4728 11.4667C30.5063 11.9888 30.5537 12.5104 30.615 13.0311C31.5928 12.3287 32.6358 11.7361 33.7439 11.2533Z" fill="#E13531"/>
  <path opacity="0.991" fill-rule="evenodd" clip-rule="evenodd" d="M33.2461 16.6578C33.0189 17.0182 32.7581 17.35 32.4639 17.6533C32.4738 17.2895 32.4501 16.934 32.3928 16.5867C32.405 16.5161 32.3813 16.4688 32.3217 16.4444C32.2786 16.2117 32.1839 15.9747 32.0372 15.7333C32.2013 15.6513 32.3672 15.5684 32.535 15.4844C31.8533 15.0606 31.1421 14.6932 30.4017 14.3822C30.3018 14.2486 30.1832 14.2249 30.0461 14.3111C29.7767 14.1862 29.4923 14.1389 29.1928 14.1689C29.225 14.1008 29.2723 14.0415 29.335 13.9911C29.0417 13.8262 28.7335 13.6958 28.4106 13.6C28.5519 13.5401 28.7059 13.4926 28.8728 13.4578C29.7854 13.3596 30.6861 13.5967 31.575 14.1689C31.9056 14.3691 32.1782 14.6299 32.3928 14.9511C32.7185 15.5078 33.003 16.0767 33.2461 16.6578Z" fill="#E85043"/>
  <path opacity="0.968" fill-rule="evenodd" clip-rule="evenodd" d="M34.3839 13.2444C34.5268 13.4622 34.6927 13.6044 34.8817 13.6711C34.7706 13.9445 34.6521 14.2172 34.5261 14.4889C34.5498 14.5244 34.5735 14.56 34.5972 14.5956C35.0887 14.3852 35.5865 14.1956 36.0906 14.0267C36.0583 14.0948 36.011 14.1541 35.9483 14.2044C36.0499 14.3561 36.1447 14.5102 36.2328 14.6667C35.6639 14.9274 35.095 15.1881 34.5261 15.4489C34.365 15.2859 34.2228 15.0962 34.0994 14.88C34.1143 14.8383 34.1381 14.8028 34.1706 14.7733C34.0247 14.6335 33.9062 14.4794 33.815 14.3111C33.9868 13.9437 34.1764 13.5881 34.3839 13.2444Z" fill="#D8282E"/>
  <path opacity="0.955" fill-rule="evenodd" clip-rule="evenodd" d="M38.2239 13.3867C38.2756 13.5612 38.3467 13.7271 38.4372 13.8844C37.7073 14.1594 36.9725 14.4201 36.2328 14.6667C36.1447 14.5102 36.0499 14.3561 35.9483 14.2044C36.011 14.1541 36.0583 14.0948 36.0906 14.0267C36.784 13.756 37.4951 13.5427 38.2239 13.3867Z" fill="#C71E30"/>
  <path opacity="0.952" fill-rule="evenodd" clip-rule="evenodd" d="M31.1128 13.5289C31.7568 13.8153 32.3968 14.1234 33.0328 14.4533C33.2738 14.9121 33.499 15.3862 33.7083 15.8756C33.7609 15.9644 33.7491 16.0355 33.6728 16.0889C33.5305 16.2785 33.3883 16.4681 33.2461 16.6578C33.003 16.0767 32.7185 15.5078 32.3928 14.9511C32.1781 14.6299 31.9056 14.3691 31.575 14.1689C30.6861 13.5967 29.7854 13.3596 28.8728 13.4578C28.7059 13.4926 28.5518 13.5401 28.4105 13.6C28.2542 13.5733 28.112 13.5259 27.9839 13.4578C28.0793 13.3658 28.1978 13.3066 28.3394 13.28C29.3127 13.0954 30.2371 13.1784 31.1128 13.5289Z" fill="#E54238"/>
  <path opacity="0.989" fill-rule="evenodd" clip-rule="evenodd" d="M33.815 14.3111C33.9061 14.4794 34.0247 14.6335 34.1705 14.7733C34.138 14.8028 34.1143 14.8383 34.0994 14.88C34.2228 15.0963 34.365 15.2859 34.5261 15.4489C34.7596 15.5639 34.9493 15.7298 35.095 15.9467C35.1865 16.2384 35.1865 16.511 35.095 16.7644C35.1424 16.7881 35.1898 16.8119 35.2372 16.8356C35.2221 16.9518 35.1984 17.0584 35.1661 17.1556C34.6781 16.7817 34.1804 16.4261 33.6728 16.0889C33.7491 16.0355 33.7609 15.9644 33.7083 15.8756C33.499 15.3862 33.2738 14.9121 33.0328 14.4533C33.195 14.5321 33.3491 14.627 33.495 14.7378C33.6204 14.6035 33.7271 14.4612 33.815 14.3111Z" fill="#E02E2D"/>
  <path opacity="0.929" fill-rule="evenodd" clip-rule="evenodd" d="M26.8461 14.0267C26.9409 14.7615 26.9409 15.4963 26.8461 16.2311C26.7678 16.327 26.6967 16.4336 26.6328 16.5511C26.5654 16.7273 26.5654 16.8933 26.6328 17.0489C26.5718 17.0979 26.5245 17.1571 26.4905 17.2267C26.5959 17.4181 26.6433 17.6314 26.6328 17.8667C26.4073 18.3033 26.1939 18.7536 25.9928 19.2178C25.8719 19.0471 25.7771 18.8575 25.7083 18.6489C26.1356 17.6268 26.3726 16.5601 26.4194 15.4489C26.3987 15.0927 26.3749 14.7371 26.3483 14.3822C26.4743 14.2091 26.6402 14.0905 26.8461 14.0267Z" fill="#EA5649"/>
  <path opacity="0.963" fill-rule="evenodd" clip-rule="evenodd" d="M39.4328 14.9511C39.5234 15.0001 39.5234 15.0594 39.4328 15.1289C39.5815 15.1967 39.6052 15.2914 39.5039 15.4133C39.5699 15.4409 39.6173 15.4884 39.6461 15.5556C39.5554 15.6912 39.5318 15.8216 39.575 15.9467C39.1746 16.4656 38.7242 16.9397 38.2239 17.3689C38.1718 17.1814 38.1718 17.0036 38.2239 16.8356C38.171 16.7617 38.0999 16.7261 38.0105 16.7289C38.4846 16.1363 38.9587 15.5437 39.4328 14.9511Z" fill="#BC1731"/>
  <path opacity="0.929" fill-rule="evenodd" clip-rule="evenodd" d="M30.1883 15.3778C29.9681 15.9802 29.7429 16.5728 29.5128 17.1556C30.3281 16.6368 31.1696 16.1627 32.0372 15.7333C32.1838 15.9747 32.2786 16.2117 32.3216 16.4444C31.1768 17.0526 30.039 17.6807 28.9083 18.3289C28.7426 18.4347 28.7189 18.5651 28.8372 18.72C28.5147 18.5707 28.2303 18.3693 27.9839 18.1156C28.0436 17.9971 28.008 17.9852 27.8772 18.08C27.818 18.0208 27.7587 17.9615 27.6994 17.9022C27.7577 17.7356 27.7814 17.5578 27.7705 17.3689C27.9576 17.5202 28.1353 17.6861 28.3039 17.8667C28.8339 17.0438 29.2486 16.1668 29.5483 15.2356C29.5945 15.2139 29.642 15.1903 29.6905 15.1644C29.8744 15.27 30.0403 15.3411 30.1883 15.3778Z" fill="#F16C5D"/>
  <path opacity="0.992" fill-rule="evenodd" clip-rule="evenodd" d="M52.5883 16.5867C53.691 16.5294 54.7813 16.6123 55.8594 16.8356C56.0511 16.89 56.2289 16.9729 56.3928 17.0844C56.4402 17.7719 56.4402 18.4592 56.3928 19.1467C55.1994 18.3135 53.8839 18.0409 52.4461 18.3289C50.9149 18.7956 50.3578 19.803 50.775 21.3511C50.9455 21.7514 51.1944 22.0951 51.5217 22.3822C52.7186 23.1585 53.9275 23.9171 55.1483 24.6578C57.221 26.2048 57.6358 28.1129 56.3928 30.3822C55.6373 31.2791 54.6773 31.8125 53.5128 31.9822C51.8291 32.2497 50.2291 32.0008 48.7128 31.2356C48.6536 30.5232 48.6654 29.8121 48.7483 29.1022C50.0888 30.1603 51.6058 30.5751 53.2994 30.3467C54.7189 30.057 55.3233 29.1918 55.1128 27.7511C54.9894 27.279 54.7642 26.8642 54.4372 26.5067C53.2532 25.63 52.0206 24.824 50.7394 24.0889C48.6808 22.6457 48.1949 20.7849 49.2817 18.5067C50.1146 17.397 51.2168 16.757 52.5883 16.5867Z" fill="#221E1F"/>
  <path opacity="0.993" fill-rule="evenodd" clip-rule="evenodd" d="M64.6061 16.5867C68.3329 16.2499 70.8573 17.8143 72.1794 21.28C72.7718 23.5391 72.6769 25.7672 71.895 27.9644C71.0096 30.0231 69.4808 31.3268 67.3083 31.8756C68.4331 33.0834 69.5709 34.2804 70.7216 35.4667C69.8683 35.5141 69.015 35.5141 68.1616 35.4667C67.2135 34.3526 66.2653 33.2385 65.3172 32.1244C61.354 31.8592 59.0666 29.7614 58.455 25.8311C58.1873 23.7932 58.4955 21.8495 59.3794 20C60.5547 17.9959 62.297 16.8582 64.6061 16.5867ZM64.8194 18.2222C68.3351 18.1225 70.267 19.8292 70.615 23.3422C70.8495 25.1804 70.4939 26.8871 69.5483 28.4622C68.2292 30.0717 66.5344 30.6998 64.4639 30.3467C62.5432 29.9194 61.2751 28.7698 60.6594 26.8978C60.0881 24.9998 60.1592 23.1272 60.8728 21.28C61.6865 19.5998 63.002 18.5806 64.8194 18.2222Z" fill="#221E1F"/>
  <path opacity="0.992" fill-rule="evenodd" clip-rule="evenodd" d="M90.4194 16.5867C91.3225 16.5638 92.2235 16.5994 93.1217 16.6933C93.5334 16.7672 93.9245 16.8976 94.295 17.0844C94.3426 17.7719 94.3426 18.4592 94.295 19.1467C93.0776 18.3056 91.7385 18.033 90.2772 18.3289C88.668 18.8814 88.1581 19.9599 88.7483 21.5644C88.9439 21.9024 89.1928 22.1987 89.495 22.4533C90.5972 23.1585 91.7115 23.846 92.8372 24.5156C95.0936 26.0787 95.5558 28.0579 94.2239 30.4533C93.0961 31.6317 91.7094 32.1769 90.0639 32.0889C88.8393 32.0878 87.6893 31.8034 86.615 31.2356C86.5558 30.5232 86.5676 29.8121 86.6505 29.1022C88.3337 30.4512 90.1826 30.7475 92.1972 29.9911C92.9673 29.3425 93.2162 28.5247 92.9439 27.5378C92.7391 26.9769 92.3956 26.5146 91.9128 26.1511C90.9414 25.4992 89.9458 24.8828 88.9261 24.3022C88.0024 23.7343 87.3033 22.9639 86.8283 21.9911C86.1931 18.9712 87.3901 17.1696 90.4194 16.5867Z" fill="#221E1F"/>
  <path opacity="0.999" fill-rule="evenodd" clip-rule="evenodd" d="M74.775 16.8C75.3913 16.8 76.0075 16.8 76.6239 16.8C76.6239 21.2563 76.6239 25.7126 76.6239 30.1689C78.615 30.1689 80.6061 30.1689 82.5972 30.1689C82.5972 30.7141 82.5972 31.2592 82.5972 31.8044C79.9898 31.8044 77.3824 31.8044 74.775 31.8044C74.775 26.803 74.775 21.8015 74.775 16.8Z" fill="#221E1F"/>
  <path opacity="0.976" fill-rule="evenodd" clip-rule="evenodd" d="M29.1928 14.1689C29.4923 14.1389 29.7767 14.1862 30.0461 14.3111C30.1832 14.2249 30.3017 14.2486 30.4017 14.3822C30.3754 14.7242 30.3043 15.0561 30.1883 15.3778C30.0403 15.3411 29.8744 15.27 29.6905 15.1644C29.642 15.1903 29.5945 15.2139 29.5483 15.2356C29.6191 15.0248 29.6546 14.8115 29.655 14.5956C28.7807 15.3038 27.9273 16.0386 27.095 16.8C27.0461 16.8592 27.0579 16.9065 27.1305 16.9422C27.3582 17.0675 27.5715 17.2097 27.7705 17.3689C27.7814 17.5578 27.7577 17.7356 27.6994 17.9022C27.7587 17.9615 27.818 18.0208 27.8772 18.08C28.0081 17.9852 28.0436 17.9971 27.9839 18.1156C28.2303 18.3693 28.5147 18.5707 28.8372 18.72C29.1003 19.2503 29.2544 19.8192 29.2994 20.4267C30.4018 19.195 31.4329 17.915 32.3928 16.5867C32.4501 16.934 32.4738 17.2895 32.4639 17.6533C31.7485 18.5468 30.9663 19.3884 30.1172 20.1778C30.7451 20.0278 31.3614 19.8263 31.9661 19.5733C31.6206 19.9898 31.1939 20.3098 30.6861 20.5333C30.3699 20.6331 30.0499 20.7161 29.7261 20.7822C29.4167 20.7561 29.0967 20.7561 28.7661 20.7822C28.7522 20.1589 28.5508 19.59 28.1617 19.0756C27.9039 19.4874 27.5839 19.843 27.2017 20.1422C27.1245 19.9938 27.006 19.899 26.8461 19.8578C26.9243 19.7792 26.9717 19.6844 26.9883 19.5733C27.0357 19.5733 27.0594 19.5497 27.0594 19.5022C26.89 19.4037 26.7714 19.2615 26.7039 19.0756C26.9839 18.8908 27.2447 18.6775 27.4861 18.4356C27.2241 18.2099 26.9396 18.0203 26.6328 17.8667C26.6433 17.6314 26.5959 17.4181 26.4905 17.2267C26.5245 17.1571 26.5718 17.0979 26.6328 17.0489C26.5654 16.8933 26.5654 16.7273 26.6328 16.5511C26.6967 16.4336 26.7678 16.327 26.8461 16.2311C27.4028 15.6863 27.9717 15.1529 28.5528 14.6311C28.7588 14.4597 28.9721 14.3056 29.1928 14.1689Z" fill="#ED6153"/>
  <path opacity="0.911" fill-rule="evenodd" clip-rule="evenodd" d="M35.095 15.9467C35.7536 16.4336 36.2988 17.0263 36.7305 17.7244C36.6086 17.8623 36.5849 18.0164 36.6594 18.1867C36.5361 18.487 36.4888 18.7833 36.5172 19.0756C35.9407 19.2196 35.3718 19.3855 34.8105 19.5733C34.8755 19.4606 34.8755 19.3539 34.8105 19.2533C34.9637 19.0787 35.0585 18.8772 35.095 18.6489C35.5029 18.4855 35.9296 18.3551 36.375 18.2578C35.9938 17.856 35.5908 17.4886 35.1661 17.1556C35.1984 17.0584 35.2221 16.9518 35.2372 16.8356C35.1898 16.8119 35.1424 16.7881 35.095 16.7644C35.1865 16.511 35.1865 16.2384 35.095 15.9467Z" fill="#D3262F"/>
  <path opacity="0.949" fill-rule="evenodd" clip-rule="evenodd" d="M38.0105 16.7289C38.0999 16.7261 38.171 16.7617 38.2239 16.8356C38.1718 17.0036 38.1718 17.1814 38.2239 17.3689C38.0963 17.5322 37.9541 17.6863 37.7972 17.8311C37.8646 17.8655 37.9357 17.8773 38.0105 17.8667C38.1972 18.0612 38.1972 18.2627 38.0105 18.4711C38.0278 18.5353 38.0516 18.5945 38.0816 18.6489C37.555 18.7771 37.0335 18.9193 36.5172 19.0756C36.4888 18.7833 36.5361 18.487 36.6594 18.1867C36.5849 18.0164 36.6086 17.8623 36.7305 17.7244C36.7966 17.8266 36.8795 17.9214 36.9794 18.0089C37.3113 17.5706 37.655 17.1439 38.0105 16.7289Z" fill="#C81F30"/>
  <path opacity="0.973" fill-rule="evenodd" clip-rule="evenodd" d="M39.9305 17.44C39.7921 17.562 39.6972 17.7161 39.6461 17.9022C39.6531 18.0173 39.6531 18.1239 39.6461 18.2222C39.1246 18.3644 38.6031 18.5067 38.0817 18.6489C38.0516 18.5945 38.0278 18.5353 38.0105 18.4711C38.1972 18.2627 38.1972 18.0612 38.0105 17.8667C38.6344 17.6895 39.2744 17.5473 39.9305 17.44Z" fill="#BC1731"/>
  <path opacity="0.985" fill-rule="evenodd" clip-rule="evenodd" d="M35.095 18.6489C35.0585 18.8772 34.9637 19.0787 34.8105 19.2533C34.8755 19.3539 34.8755 19.4605 34.8105 19.5733C34.6542 19.6 34.512 19.6474 34.3839 19.7156C34.0944 19.7107 33.8337 19.7818 33.6016 19.9289C33.4159 19.9908 33.2263 20.0382 33.0328 20.0711C33.2068 19.7825 33.3727 19.4862 33.5305 19.1822C33.491 19.155 33.4673 19.1194 33.4594 19.0756C33.9971 18.9042 34.5422 18.762 35.095 18.6489Z" fill="#E0302E"/>
  <path opacity="0.945" fill-rule="evenodd" clip-rule="evenodd" d="M25.7083 18.6489C25.7771 18.8575 25.8719 19.0471 25.9928 19.2178C25.8855 19.4074 25.8026 19.597 25.7439 19.7867C26.0752 19.5616 26.3952 19.3246 26.7039 19.0756C26.7714 19.2615 26.89 19.4037 27.0594 19.5022C27.012 19.5022 26.9883 19.5259 26.9883 19.5733C26.6091 19.8103 26.2298 20.0474 25.8505 20.2844C25.6569 20.0443 25.4436 19.7835 25.2105 19.5022C25.3775 19.2153 25.5435 18.9308 25.7083 18.6489Z" fill="#E6443A"/>
  <path opacity="0.981" fill-rule="evenodd" clip-rule="evenodd" d="M33.4594 19.0756C33.4673 19.1194 33.491 19.155 33.5305 19.1822C33.3727 19.4862 33.2068 19.7825 33.0328 20.0711C32.3511 20.3063 31.6637 20.5434 30.9705 20.7822C30.7418 20.7712 30.5522 20.8423 30.4016 20.9956C30.378 20.9956 30.3542 20.9956 30.3305 20.9956C30.0687 21.0106 29.8554 21.1053 29.6905 21.28C29.1884 21.4316 28.6906 21.5975 28.1972 21.7778C27.8264 21.7015 27.4708 21.5831 27.1305 21.4222C27.6535 21.1686 28.1987 20.9552 28.7661 20.7822C29.0967 20.7561 29.4167 20.7561 29.7261 20.7822C30.0499 20.7161 30.3699 20.6331 30.6861 20.5333C31.1939 20.3098 31.6206 19.9898 31.9661 19.5733C32.4695 19.4214 32.9673 19.2554 33.4594 19.0756Z" fill="#E7493D"/>
  <path opacity="0.922" fill-rule="evenodd" clip-rule="evenodd" d="M34.3839 19.7156C34.6495 21.4377 34.7206 23.168 34.5972 24.9067C34.363 24.8629 34.1377 24.7918 33.9216 24.6933C33.8944 24.7329 33.8589 24.7565 33.815 24.7644C33.8268 24.2898 33.815 23.8157 33.7794 23.3422C32.6458 24.1759 31.4488 24.9107 30.1883 25.5467C29.8848 25.327 29.5886 25.0899 29.2994 24.8356C29.2447 24.9136 29.1854 24.9136 29.1216 24.8356C29.5109 23.685 29.7006 22.4998 29.6905 21.28C29.8554 21.1053 30.0687 21.0106 30.3305 20.9956C30.3216 22.375 30.1439 23.7261 29.7972 25.0489C31.1841 24.4921 32.476 23.781 33.6728 22.9156C32.5426 22.3278 31.4522 21.6878 30.4016 20.9956C30.5522 20.8423 30.7418 20.7712 30.9705 20.7822C31.8542 21.4263 32.7786 22.0189 33.7439 22.56C33.7825 21.6808 33.7351 20.8038 33.6016 19.9289C33.8337 19.7818 34.0944 19.7107 34.3839 19.7156ZM30.3305 20.9956C30.3542 20.9956 30.378 20.9956 30.4016 20.9956C31.4522 21.6878 32.5426 22.3278 33.6728 22.9156C32.476 23.781 31.1841 24.4921 29.7972 25.0489C30.1439 23.7261 30.3216 22.375 30.3305 20.9956Z" fill="#E8E9EA"/>
  <path opacity="0.992" fill-rule="evenodd" clip-rule="evenodd" d="M100.304 20.8533C103.432 20.5855 105.174 22.0077 105.531 25.12C105.566 25.7121 105.578 26.3047 105.566 26.8978C103.054 26.8978 100.541 26.8978 98.0283 26.8978C98.1819 29.5996 99.6042 30.7967 102.295 30.4889C103.207 30.3235 104.024 29.9561 104.748 29.3867C104.796 29.9556 104.796 30.5244 104.748 31.0933C103.66 31.7951 102.464 32.1269 101.157 32.0889C98.5538 32.0568 96.9538 30.7768 96.3572 28.2489C96.0614 26.7763 96.156 25.3304 96.6417 23.9111C97.3414 22.2497 98.5624 21.2305 100.304 20.8533ZM100.731 22.3467C102.725 22.3739 103.721 23.3931 103.717 25.4044C101.845 25.4044 99.9718 25.4044 98.0994 25.4044C98.2971 23.7852 99.1746 22.7659 100.731 22.3467Z" fill="#221E1F"/>
  <path opacity="0.992" fill-rule="evenodd" clip-rule="evenodd" d="M127.895 20.8533C130.611 20.5501 132.306 21.7116 132.979 24.3378C133.119 25.1853 133.179 26.0387 133.157 26.8978C130.645 26.8978 128.132 26.8978 125.619 26.8978C125.77 29.5954 127.192 30.7925 129.886 30.4889C130.798 30.3235 131.616 29.956 132.339 29.3867C132.387 29.9556 132.387 30.5244 132.339 31.0933C131.239 31.8013 130.03 32.1332 128.713 32.0889C125.999 32.0538 124.387 30.7027 123.877 28.0356C123.629 26.5481 123.771 25.1021 124.304 23.6978C125.036 22.1463 126.233 21.1981 127.895 20.8533ZM128.322 22.3467C130.316 22.3741 131.312 23.3934 131.308 25.4044C129.412 25.4281 127.515 25.4044 125.619 25.3333C125.912 23.7613 126.813 22.7658 128.322 22.3467Z" fill="#221E1F"/>
  <path opacity="0.991" fill-rule="evenodd" clip-rule="evenodd" d="M111.326 20.9244C111.874 20.9109 112.419 20.9345 112.962 20.9956C112.974 21.636 112.962 22.276 112.926 22.9156C111.369 22.2 110.232 22.6266 109.513 24.1956C109.316 24.7238 109.197 25.269 109.157 25.8311C109.122 27.8221 109.11 29.8132 109.122 31.8044C108.529 31.8044 107.936 31.8044 107.344 31.8044C107.344 28.2252 107.344 24.6459 107.344 21.0667C107.936 21.0667 108.529 21.0667 109.122 21.0667C109.11 21.7545 109.122 22.4419 109.157 23.1289C109.516 22.0237 110.239 21.2888 111.326 20.9244Z" fill="#221E1F"/>
  <path opacity="0.989" fill-rule="evenodd" clip-rule="evenodd" d="M138.917 20.9244C139.368 20.9126 139.819 20.9244 140.268 20.96C140.359 20.982 140.441 21.0175 140.517 21.0667C140.565 21.683 140.565 22.2992 140.517 22.9156C139.069 22.213 137.955 22.5685 137.175 23.9822C136.946 24.4799 136.804 25.0015 136.748 25.5467C136.713 27.6324 136.701 29.7184 136.713 31.8044C136.12 31.8044 135.527 31.8044 134.935 31.8044C134.935 28.2252 134.935 24.6459 134.935 21.0667C135.527 21.0667 136.12 21.0667 136.713 21.0667C136.701 21.7308 136.713 22.3945 136.748 23.0578C137.138 21.9927 137.861 21.2816 138.917 20.9244Z" fill="#221E1F"/>
  <path opacity="0.991" fill-rule="evenodd" clip-rule="evenodd" d="M113.388 21.0667C114.054 21.0431 114.717 21.0668 115.379 21.1378C116.167 23.3923 116.96 25.6442 117.762 27.8933C118.033 28.6117 118.246 29.3466 118.402 30.0978C118.52 29.6711 118.638 29.2444 118.757 28.8178C119.729 26.2451 120.666 23.6614 121.566 21.0667C122.207 21.0549 122.847 21.0667 123.486 21.1022C122.071 24.6475 120.649 28.1913 119.219 31.7333C118.611 31.8268 118.006 31.8268 117.406 31.7333C116.059 28.1788 114.72 24.6233 113.388 21.0667Z" fill="#221E1F"/>
  <path opacity="0.779" fill-rule="evenodd" clip-rule="evenodd" d="M25.2105 19.5022C25.4436 19.7835 25.6569 20.0443 25.8505 20.2844C25.5553 20.5193 25.2471 20.7445 24.9261 20.96C24.554 21.4103 24.1747 21.8487 23.7883 22.2756C23.7329 22.1207 23.6381 22.0022 23.5039 21.92C24.1557 21.1733 24.7246 20.3673 25.2105 19.5022Z" fill="#D8292E"/>
  <path opacity="0.99" fill-rule="evenodd" clip-rule="evenodd" d="M143.326 21.4222C143.326 21.7067 143.326 21.9911 143.326 22.2756C142.907 22.988 142.314 23.1658 141.548 22.8089C141.083 22.3397 141 21.8064 141.299 21.2089C141.733 20.7723 142.242 20.6657 142.828 20.8889C143.035 21.036 143.201 21.2138 143.326 21.4222ZM142.046 21.3511C142.228 21.3473 142.37 21.4184 142.473 21.5644C142.386 21.7407 142.244 21.8118 142.046 21.7778C142.046 21.6356 142.046 21.4933 142.046 21.3511ZM141.762 21.1378C141.762 21.6119 141.762 22.0859 141.762 22.56C141.856 22.56 141.952 22.56 142.046 22.56C142.056 21.8386 142.198 21.8267 142.473 22.5244C142.589 22.5596 142.707 22.5714 142.828 22.56C142.309 22.8959 141.847 22.8248 141.442 22.3467C141.287 21.9799 141.312 21.6244 141.513 21.28C141.571 21.1859 141.654 21.1386 141.762 21.1378ZM142.828 22.56C142.737 22.3429 142.619 22.1414 142.473 21.9556C142.85 21.6912 142.85 21.4305 142.473 21.1733C142.237 21.1379 142 21.126 141.762 21.1378C142.5 20.7957 142.974 21.0327 143.184 21.8489C143.138 22.1293 143.02 22.3664 142.828 22.56Z" fill="#221E1F"/>
  <path opacity="0.953" fill-rule="evenodd" clip-rule="evenodd" d="M141.762 21.1378C142 21.126 142.237 21.1379 142.473 21.1733C142.85 21.4305 142.85 21.6912 142.473 21.9556C142.619 22.1414 142.737 22.3429 142.828 22.56C142.707 22.5714 142.589 22.5596 142.473 22.5244C142.198 21.8267 142.056 21.8386 142.046 22.56C141.952 22.56 141.856 22.56 141.762 22.56C141.762 22.0859 141.762 21.6119 141.762 21.1378ZM142.046 21.3511C142.046 21.4933 142.046 21.6356 142.046 21.7778C142.244 21.8118 142.386 21.7407 142.473 21.5644C142.37 21.4185 142.228 21.3473 142.046 21.3511Z" fill="#221E1F"/>
  <path opacity="0.935" fill-rule="evenodd" clip-rule="evenodd" d="M23.5039 21.92C23.6381 22.0022 23.7329 22.1207 23.7883 22.2756C23.7169 22.4304 23.7643 22.4541 23.9305 22.3467C24.196 22.6802 24.5041 22.9647 24.855 23.2C24.5553 23.3617 24.2472 23.5039 23.9305 23.6267C23.6661 23.2528 23.3343 22.8972 22.935 22.56C23.1246 22.3467 23.3142 22.1333 23.5039 21.92Z" fill="#CB2030"/>
  <path opacity="0.909" fill-rule="evenodd" clip-rule="evenodd" d="M26.8461 19.8578C27.006 19.899 27.1245 19.9938 27.2017 20.1422C26.4975 20.9532 25.7153 21.6762 24.855 22.3111C25.6036 22.0098 26.3621 21.7135 27.1305 21.4222C27.4708 21.5831 27.8264 21.7015 28.1972 21.7778C27.8356 21.93 27.4801 22.0959 27.1305 22.2756C26.9018 22.2645 26.7122 22.3356 26.5617 22.4889C26.4911 22.4767 26.4438 22.5004 26.4194 22.56C26.0871 22.6197 25.7789 22.7382 25.495 22.9156C25.29 23.0299 25.0767 23.1247 24.855 23.2C24.5041 22.9647 24.196 22.6802 23.9305 22.3467C24.9634 21.5991 25.9352 20.7694 26.8461 19.8578Z" fill="#D82B2F"/>
  <path opacity="0.935" fill-rule="evenodd" clip-rule="evenodd" d="M27.1305 22.2756C27.5251 23.312 28.1414 24.2009 28.9794 24.9422C29.073 24.9798 29.1204 24.9442 29.1216 24.8356C29.1854 24.9136 29.2447 24.9136 29.2994 24.8356C29.5886 25.0899 29.8848 25.327 30.1883 25.5467C30.1191 25.5813 30.048 25.6169 29.975 25.6533C31.0606 26.362 32.2221 26.919 33.4594 27.3244C33.6401 26.4804 33.7587 25.627 33.815 24.7644C33.8589 24.7566 33.8944 24.7329 33.9216 24.6933C34.1378 24.7918 34.363 24.8629 34.5972 24.9067C34.493 26.8366 34.1375 28.7091 33.5305 30.5244C33.3942 30.6131 33.2639 30.6605 33.1394 30.6667C32.945 30.6054 32.9331 30.5461 33.1039 30.4889C32.9759 30.4152 32.8574 30.4033 32.7483 30.4533C32.9837 29.6541 33.197 28.8482 33.3883 28.0356C33.3646 28.0119 33.3409 27.9881 33.3172 27.9644C32.732 28.3368 32.1156 28.6449 31.4683 28.8889C31.3368 28.8112 31.2183 28.7164 31.1128 28.6044C31.8948 28.3202 32.6533 27.9765 33.3883 27.5733C32.0164 27.2584 30.7245 26.7488 29.5128 26.0444C29.182 26.8951 28.8147 27.7247 28.4105 28.5333C28.3883 28.3255 28.2935 28.2544 28.1261 28.32C28.0337 28.2351 27.9389 28.164 27.8416 28.1067C28.0464 27.5785 28.2716 27.0569 28.5172 26.5422C28.5705 26.4615 28.5587 26.3904 28.4816 26.3289C27.8479 26.6104 27.2079 26.8711 26.5616 27.1111C26.3866 26.9138 26.2444 26.7004 26.135 26.4711C26.9785 26.1462 27.8318 25.8262 28.695 25.5111C27.9566 24.8921 27.3522 24.1691 26.8816 23.3422C26.7393 23.069 26.6326 22.7846 26.5616 22.4889C26.7122 22.3356 26.9018 22.2645 27.1305 22.2756Z" fill="#DADCDF"/>
  <path opacity="0.985" fill-rule="evenodd" clip-rule="evenodd" d="M22.935 22.56C23.3343 22.8972 23.6661 23.2528 23.9305 23.6267C23.5612 23.7993 23.2057 23.989 22.8639 24.1956C22.6113 24.2507 22.3742 24.3455 22.1528 24.48C22.014 24.4606 21.9074 24.5079 21.8328 24.6222C21.7735 24.563 21.7142 24.5037 21.655 24.4444C21.7226 24.3934 21.7344 24.3341 21.6905 24.2667C21.5377 24.362 21.4548 24.3145 21.4417 24.1244C21.9394 23.603 22.4372 23.0815 22.935 22.56Z" fill="#BF1A31"/>
  <path opacity="0.947" fill-rule="evenodd" clip-rule="evenodd" d="M21.4417 24.1244C21.4548 24.3145 21.5377 24.362 21.6905 24.2667C21.7344 24.3341 21.7226 24.3934 21.655 24.4444C21.7142 24.5037 21.7735 24.563 21.8328 24.6222C21.9074 24.5079 22.014 24.4606 22.1528 24.48C22.0679 24.5349 21.9968 24.606 21.9394 24.6933C21.3357 24.9833 20.7431 25.2915 20.1617 25.6178C20.0531 25.6126 19.982 25.66 19.9483 25.76C19.5928 25.9497 19.2372 26.1392 18.8817 26.3289C19.7332 25.5962 20.5865 24.8614 21.4417 24.1244Z" fill="#AE1333"/>
  <path opacity="0.063" fill-rule="evenodd" clip-rule="evenodd" d="M20.1617 25.6178C20.128 25.7178 20.0569 25.7652 19.9483 25.76C19.982 25.66 20.0531 25.6126 20.1617 25.6178Z" fill="#B38D95"/>
  <path opacity="0.963" fill-rule="evenodd" clip-rule="evenodd" d="M22.8639 24.1956C22.5997 25.2063 22.7063 26.1781 23.1839 27.1111C23.322 26.8573 23.476 26.6203 23.6461 26.4C24.0017 26.8267 24.3572 27.2533 24.7128 27.68C24.3825 27.7582 24.0743 27.8767 23.7883 28.0356C24.587 28.9532 25.5114 29.7117 26.5617 30.3111C26.7341 30.0914 26.8763 29.8544 26.9883 29.6C27.4247 29.9098 27.8514 30.1706 28.2683 30.3822C27.9988 30.5286 27.7144 30.6589 27.415 30.7733C28.9061 31.4514 30.4586 31.9373 32.0728 32.2311C32.14 32.2023 32.1874 32.1549 32.215 32.0889C32.4007 31.5435 32.5785 30.9983 32.7483 30.4533C32.8574 30.4033 32.976 30.4152 33.1039 30.4889C32.9332 30.5461 32.945 30.6054 33.1394 30.6667C33.2639 30.6605 33.3942 30.613 33.5306 30.5244C33.0855 31.9556 32.5166 33.3304 31.8239 34.6489C31.654 34.6148 31.5355 34.52 31.4683 34.3644C31.6604 33.8246 31.8144 33.2794 31.9306 32.7289C31.0247 33.1849 30.0884 33.5641 29.1217 33.8667C29.1293 33.733 29.0937 33.7094 29.015 33.7956C28.8861 33.6905 28.7558 33.5957 28.6239 33.5111C29.714 33.1754 30.8044 32.8317 31.895 32.48C30.2182 32.3058 28.5944 31.9147 27.0239 31.3067C26.9312 31.3407 26.8483 31.3881 26.775 31.4489C26.7094 31.506 26.6383 31.5179 26.5617 31.4844C26.4701 31.3842 26.3872 31.2775 26.3128 31.1644C26.2617 31.2321 26.2025 31.2439 26.135 31.2C25.9973 30.9791 25.8076 30.825 25.5661 30.7378C25.574 30.6939 25.5977 30.6583 25.6372 30.6311C24.6721 30.1244 23.8425 29.4489 23.1483 28.6044C23.0595 28.4881 22.941 28.4051 22.7928 28.3556C22.8165 28.3319 22.8402 28.3081 22.8639 28.2844C22.7284 28.081 22.5624 27.9151 22.3661 27.7867C22.4567 27.7172 22.4567 27.6579 22.3661 27.6089C21.8604 26.6852 21.7182 25.7133 21.9394 24.6933C21.9968 24.606 22.0679 24.5349 22.1528 24.48C22.3742 24.3455 22.6113 24.2507 22.8639 24.1956Z" fill="#BBC1C9"/>
  <path opacity="0.925" fill-rule="evenodd" clip-rule="evenodd" d="M26.4194 22.56C25.8232 24.0843 25.1121 25.5539 24.2861 26.9689C24.3098 26.9926 24.3335 27.0163 24.3572 27.04C24.942 26.8213 25.5345 26.6317 26.135 26.4711C26.2444 26.7004 26.3867 26.9138 26.5617 27.1111C25.9497 27.3151 25.3334 27.5047 24.7128 27.68C24.3572 27.2533 24.0017 26.8267 23.6461 26.4C24.3168 25.2723 24.933 24.1109 25.495 22.9156C25.7789 22.7382 26.0871 22.6197 26.4194 22.56Z" fill="#CACED3"/>
  <path opacity="0.965" fill-rule="evenodd" clip-rule="evenodd" d="M19.9483 25.76C18.9865 26.4988 18.2636 27.4233 17.7794 28.5333C17.7199 28.6984 17.6962 28.8644 17.7083 29.0311C18.8126 28.7047 19.9149 28.3728 21.015 28.0356C21.0472 28.1037 21.0946 28.163 21.1572 28.2133C21.1335 28.237 21.1098 28.2608 21.0861 28.2844C21.2234 28.3486 21.3419 28.4316 21.4417 28.5333C20.1882 28.8289 18.9319 29.1134 17.6728 29.3867C17.9045 30.6073 18.5327 31.5792 19.5572 32.3022C20.1022 31.5088 20.6593 30.7266 21.2283 29.9556C21.3477 29.9834 21.4662 30.019 21.5839 30.0622C21.5602 30.0859 21.5365 30.1097 21.5128 30.1333C21.5779 30.1531 21.6253 30.1887 21.655 30.24C21.0505 30.9989 20.4579 31.7692 19.8772 32.5511C19.9009 32.5748 19.9246 32.5985 19.9483 32.6222C21.0403 32.3018 22.1306 31.9581 23.2194 31.5911C23.3171 31.5799 23.4119 31.5918 23.5039 31.6267C23.547 31.8051 23.6181 31.9117 23.7172 31.9467C22.6147 32.2759 21.5006 32.5959 20.375 32.9067C21.5031 33.591 22.7001 34.1243 23.9661 34.5067C24.3106 33.9595 24.6542 33.4143 24.9972 32.8711C25.1817 33.0225 25.3951 33.1173 25.6372 33.1556C25.2866 33.6488 24.9074 34.1229 24.4994 34.5778C24.5469 34.6015 24.5942 34.6252 24.6417 34.6489C25.0897 34.5152 25.5401 34.3967 25.9928 34.2933C26.2055 34.2696 26.3714 34.3407 26.4905 34.5067C26.1213 34.6167 25.7421 34.7234 25.3528 34.8267C27.2057 35.22 29.0665 35.4926 30.935 35.6444C31.1076 35.2077 31.2854 34.7811 31.4683 34.3644C31.5355 34.52 31.654 34.6148 31.8239 34.6489C31.6298 35.1082 31.4165 35.5585 31.1839 36C30.5913 36 29.9987 36 29.4061 36C27.2533 35.8022 25.1199 35.4348 23.0061 34.8978C20.8423 34.3912 18.9815 33.3601 17.4239 31.8044C16.7035 30.9374 16.5138 29.9655 16.855 28.8889C17.3086 27.8551 17.9842 27.0017 18.8817 26.3289C19.2372 26.1392 19.5928 25.9497 19.9483 25.76Z" fill="#94A0AC"/>
  <path opacity="0.93" fill-rule="evenodd" clip-rule="evenodd" d="M22.3661 27.6089C22.4567 27.6579 22.4567 27.7172 22.3661 27.7867C22.5624 27.9151 22.7283 28.081 22.8639 28.2844C22.8402 28.3081 22.8165 28.3319 22.7928 28.3556C22.941 28.4051 23.0595 28.4881 23.1483 28.6044C23.0404 28.6052 22.9574 28.6526 22.8994 28.7467C22.4943 29.258 22.0794 29.7557 21.655 30.24C21.6253 30.1887 21.5779 30.1531 21.5128 30.1333C21.5365 30.1097 21.5602 30.0859 21.5839 30.0622C21.4662 30.019 21.3477 29.9834 21.2283 29.9556C21.592 29.4136 21.9713 28.8803 22.3661 28.3556C22.055 28.3798 21.7468 28.439 21.4417 28.5333C21.3419 28.4316 21.2234 28.3486 21.0861 28.2844C21.1098 28.2608 21.1335 28.237 21.1572 28.2133C21.0946 28.163 21.0472 28.1037 21.015 28.0356C21.4824 27.925 21.9328 27.7828 22.3661 27.6089Z" fill="#ADB5BE"/>
  <path opacity="0.935" fill-rule="evenodd" clip-rule="evenodd" d="M27.8416 28.1067C27.9389 28.164 28.0337 28.2351 28.1261 28.32C28.2935 28.2544 28.3883 28.3255 28.4105 28.5333C28.2265 28.9845 28.0132 29.423 27.7705 29.8489C28.8971 29.485 30.0112 29.0701 31.1128 28.6044C31.2183 28.7164 31.3368 28.8112 31.4683 28.8889C30.4322 29.4423 29.3656 29.9401 28.2683 30.3822C27.8514 30.1706 27.4247 29.9098 26.9883 29.6C27.2558 29.0881 27.5403 28.5904 27.8416 28.1067Z" fill="#CACED4"/>
  <path opacity="0.94" fill-rule="evenodd" clip-rule="evenodd" d="M25.5661 30.7378C25.8076 30.825 25.9972 30.9791 26.135 31.2C26.2025 31.2439 26.2617 31.2321 26.3128 31.1644C26.3871 31.2775 26.4701 31.3842 26.5616 31.4844C26.6382 31.5179 26.7093 31.506 26.775 31.4489C26.4317 32.0402 26.0525 32.6091 25.6372 33.1556C25.3951 33.1173 25.1817 33.0225 24.9972 32.8711C25.3135 32.3932 25.6216 31.9073 25.9216 31.4133C25.1859 31.5673 24.4511 31.7451 23.7172 31.9467C23.6181 31.9117 23.547 31.8051 23.5039 31.6267C23.4119 31.5918 23.3171 31.5799 23.2194 31.5911C23.9854 31.2803 24.7677 30.9958 25.5661 30.7378Z" fill="#ADB5BE"/>
  <path fill-rule="evenodd" clip-rule="evenodd" d="M28.6239 33.5111C28.7558 33.5957 28.8861 33.6905 29.015 33.7956C29.0937 33.7094 29.1293 33.733 29.1217 33.8667C28.2583 34.1358 27.3813 34.3492 26.4905 34.5067C26.3714 34.3407 26.2055 34.2696 25.9928 34.2933C26.8531 34.0009 27.7301 33.7402 28.6239 33.5111Z" fill="#A3ACB7"/>
  <path opacity="0.937" fill-rule="evenodd" clip-rule="evenodd" d="M35.2372 36C35.1424 36 35.0476 36 34.9528 36C34.9646 35.7146 34.9527 35.4301 34.9172 35.1467C34.7933 35.4362 34.6629 35.7207 34.5261 36C34.455 36 34.3839 36 34.3128 36C34.203 35.6617 34.0727 35.3298 33.9216 35.0044C33.8862 35.3355 33.8743 35.6673 33.8861 36C33.815 36 33.7439 36 33.6728 36C33.6728 35.5022 33.6728 35.0044 33.6728 34.5067C33.7897 34.4914 33.8963 34.5152 33.9928 34.5778C34.1132 34.904 34.2672 35.2122 34.455 35.5022C34.6079 35.1963 34.762 34.8881 34.9172 34.5778C35.0136 34.5152 35.1203 34.4914 35.2372 34.5067C35.2372 35.0044 35.2372 35.5022 35.2372 36Z" fill="#221E1F"/>
  <path fill-rule="evenodd" clip-rule="evenodd" d="M33.1039 36C33.0091 36 32.9142 36 32.8194 36C32.8194 35.5733 32.8194 35.1467 32.8194 34.72C32.7009 34.72 32.5824 34.72 32.4639 34.72C32.4639 34.6489 32.4639 34.5778 32.4639 34.5067C32.8194 34.5067 33.175 34.5067 33.5305 34.5067C33.5305 34.5778 33.5305 34.6489 33.5305 34.72C33.3883 34.72 33.2461 34.72 33.1039 34.72C33.1039 35.1467 33.1039 35.5733 33.1039 36Z" fill="#221E1F"/>
</svg>
