<svg width="160" height="40" viewBox="0 0 160 40" fill="none" xmlns="http://www.w3.org/2000/svg">
<path d="M74.4396 26.772C72.6829 26.772 71.7966 25.221 71.7966 23.722C71.7966 22.2231 72.7579 20.7383 74.3548 20.7383C75.1034 20.7383 76.0488 21.1091 76.4205 21.6299L78.2795 19.7991C77.3791 18.8625 75.9447 18.3028 74.3548 18.3028C71.1204 18.3028 68.7732 20.5962 68.7732 23.7547C68.7732 26.9653 71.0948 29.2066 74.4184 29.2066C76.0003 29.2066 77.4612 28.7493 78.3281 27.8295L76.5185 25.9113C76.1009 26.4144 75.2252 26.772 74.4396 26.772ZM64.0381 28.9162H66.9247V18.5932H64.0381V28.9162ZM58.7919 24.2526C58.7919 25.4664 57.9912 26.772 56.4994 26.772C55.3492 26.772 54.7348 25.9616 54.7348 24.2949V18.5932H51.8499V25.0003C51.8499 27.1321 52.9269 29.2066 55.8055 29.2066C57.1641 29.2066 58.3011 28.1508 58.8749 27.3713H58.9172V28.9162H61.6767V18.5932H58.7919V24.2526ZM46.6443 19.905H46.5799C46.1721 19.4601 45.0677 18.3037 43.2749 18.3037C40.3326 18.3037 38.0657 20.5794 38.0657 23.715C38.0657 26.8973 40.1579 29.2075 43.1363 29.2075C44.4886 29.2075 45.7598 28.4995 46.496 27.6759H46.5384V33.9999H49.425V18.5932H46.6443V19.905ZM43.8425 26.7728C42.0584 26.7728 41.0441 25.2342 41.0441 23.7141C41.0441 22.2611 41.9754 20.6977 43.8425 20.6977C45.5594 20.6977 46.6231 22.2849 46.6231 23.7556C46.6231 25.2386 45.5824 26.7728 43.8425 26.7728ZM109.569 18.3037C106.285 18.3037 103.902 20.5794 103.902 23.715C103.902 26.9582 106.339 29.2357 109.569 29.2357C112.799 29.2357 115.234 26.937 115.234 23.7141C115.234 20.5794 112.851 18.3037 109.569 18.3037ZM109.569 26.7728C107.687 26.7728 106.83 25.1874 106.83 23.7141C106.83 22.2611 107.687 20.6977 109.569 20.6977C111.45 20.6977 112.307 22.2611 112.307 23.7141C112.307 25.1874 111.451 26.7728 109.569 26.7728ZM145.643 22.5639C144.159 22.2134 143.635 22.0254 143.635 21.4313C143.635 20.6121 144.686 20.432 145.162 20.432C146.057 20.432 147.069 20.9599 147.449 21.4613L149.15 19.8494C148.363 18.8731 146.816 18.3046 145.183 18.3046C143.094 18.3046 140.901 19.3418 140.901 21.659C140.901 23.6497 142.48 24.2499 144.026 24.6163C145.654 24.9906 146.236 25.2642 146.236 25.9121C146.236 26.8682 145.138 27.0244 144.761 27.0244C143.816 27.0244 142.722 26.4895 142.133 25.7974L140.381 27.5523C141.338 28.6001 142.977 29.2313 144.656 29.2313C147.476 29.2313 149.15 27.9028 149.15 25.7109C149.15 23.6135 147.102 22.909 145.643 22.5639ZM140.188 18.5941H136.467L132.742 22.8781H132.677V12.9048H129.792V28.9153H132.677V23.8244H132.742L136.607 28.9162H140.404L135.912 23.2754L140.189 18.5932L140.188 18.5941ZM97.4 18.3037C96.0803 18.3037 95.1084 18.874 94.1903 19.7232H94.1356V12.9057H91.2507V28.9162H94.0102V27.457H94.0535C94.7041 28.511 95.9964 29.2066 97.3373 29.2066C100.316 29.2066 102.574 26.8964 102.574 23.7132C102.574 20.5786 100.342 18.3037 97.4 18.3037ZM96.8324 26.7728C95.0916 26.7728 94.0517 25.2386 94.0517 23.7556C94.0517 22.2849 95.1154 20.6977 96.8324 20.6977C98.6994 20.6977 99.6289 22.2611 99.6289 23.7141C99.6289 25.2342 98.6173 26.7728 96.8324 26.7728ZM90.1649 18.5941H86.4441L82.7189 22.8781H82.6545V12.9048H79.7679V28.9153H82.6545V23.8244H82.718L86.5836 28.9162H90.3803L85.8889 23.2754L90.1649 18.5941ZM122.249 18.3037C118.965 18.3037 116.581 20.5794 116.581 23.715C116.581 26.9582 119.018 29.2357 122.249 29.2357C125.479 29.2357 127.914 26.937 127.914 23.7141C127.914 20.5794 125.531 18.3037 122.249 18.3037ZM122.249 26.7728C120.367 26.7728 119.509 25.1874 119.509 23.7141C119.509 22.2611 120.366 20.6977 122.249 20.6977C124.13 20.6977 124.987 22.2611 124.987 23.7141C124.987 25.1874 124.13 26.7728 122.249 26.7728Z" fill="black"/>
<path d="M22.667 30.9192C29.3798 30.9192 34.8216 25.5434 34.8216 18.912C34.8216 12.2806 29.3798 6.90479 22.667 6.90479C15.9542 6.90479 10.5124 12.2806 10.5124 18.912C10.5124 25.5434 15.9542 30.9192 22.667 30.9192Z" fill="#2CA01C"/>
<path d="M13.8871 18.9118C13.8871 21.4903 16.0031 23.5815 18.6143 23.5815H19.2896V21.846H18.6143C16.9759 21.846 15.6429 20.5299 15.6429 18.9118C15.6429 17.2928 16.9759 15.9766 18.6143 15.9766H20.2368V25.0487C20.2368 26.0064 21.0224 26.7824 21.9926 26.7824V14.242H18.6143C16.0031 14.242 13.8871 16.3324 13.8871 18.9118ZM26.7197 14.242H26.0444V15.9775H26.7197C28.3581 15.9775 29.691 17.2937 29.691 18.9118C29.691 20.5307 28.3581 21.8469 26.7197 21.8469H25.0972V12.7749C25.0972 11.8171 24.3115 11.0411 23.3405 11.0411V23.5815H26.7197C29.33 23.5815 31.4468 21.4912 31.4468 18.9118C31.4468 16.3341 29.33 14.242 26.7197 14.242Z" fill="white"/>
<path d="M49.9661 9.63869C50.4102 9.63869 50.7694 9.28383 50.7694 8.8451C50.7687 8.7403 50.7474 8.63667 50.7067 8.54011C50.6659 8.44356 50.6066 8.35598 50.532 8.28237C50.4574 8.20876 50.369 8.15056 50.2719 8.1111C50.1748 8.07164 50.0709 8.05169 49.9661 8.05239C49.8613 8.05169 49.7574 8.07164 49.6603 8.1111C49.5633 8.15056 49.4749 8.20876 49.4003 8.28237C49.3257 8.35598 49.2663 8.44356 49.2256 8.54011C49.1848 8.63667 49.1635 8.7403 49.1628 8.8451C49.1628 9.28383 49.523 9.63869 49.9661 9.63869ZM45.1728 10.1736C44.3871 10.1736 43.756 10.6441 43.5238 11.1694H43.5009V10.3272H42.2385V15.5787H43.5679V12.6895C43.5679 11.9903 43.9669 11.2683 44.8082 11.2683C45.6609 11.2683 45.8057 12.0451 45.8057 12.6683V15.5787H47.1343V12.2958C47.1343 11.2241 46.5578 10.1736 45.1728 10.1736ZM39.5479 15.5787H40.8764V10.3264H39.5479V15.5787ZM63.7177 9.63869C64.1617 9.63869 64.521 9.28383 64.521 8.8451C64.5203 8.7403 64.4989 8.63667 64.4582 8.54011C64.4175 8.44356 64.3581 8.35598 64.2835 8.28237C64.2089 8.20876 64.1205 8.15056 64.0234 8.1111C63.9264 8.07164 63.8225 8.05169 63.7177 8.05239C63.6129 8.05169 63.509 8.07164 63.4119 8.1111C63.3148 8.15056 63.2264 8.20876 63.1518 8.28237C63.0772 8.35598 63.0179 8.44356 62.9771 8.54011C62.9364 8.63667 62.915 8.7403 62.9144 8.8451C62.9144 9.28383 63.2745 9.63869 63.7177 9.63869ZM61.5637 10.3237V11.4872H63.0538V15.5787H64.3824V11.4872H65.8725V10.3237H61.5637ZM59.303 15.5787H60.6324V10.3264H59.303V15.5787ZM47.8113 11.4872H49.3014V15.5787H50.6308V11.4872H52.1209V10.3237H47.8113V11.4872ZM56.6124 13.2156C56.6124 13.9156 56.2143 14.6368 55.373 14.6368C54.5194 14.6368 54.3755 13.86 54.3755 13.2368V10.3272H53.0461V13.6093C53.0461 14.6819 53.6225 15.7315 55.0067 15.7315C55.7932 15.7315 56.4252 15.2609 56.6574 14.7357H56.6795V15.5787H57.9418V10.3264H56.6133L56.6124 13.2156Z" fill="black"/>
</svg>
