<svg width="160" height="40" viewBox="0 0 160 40" fill="none" xmlns="http://www.w3.org/2000/svg">
<path d="M48.9957 22.2933C49.1319 23.5806 50.291 25.7875 53.6547 25.7875C56.5864 25.7875 57.9957 23.9025 57.9957 22.0634C57.9957 20.4082 56.8819 19.0519 54.6775 18.5921L53.0864 18.2473C52.4729 18.1323 52.0638 17.7875 52.0638 17.2358C52.0638 16.5921 52.7001 16.1094 53.4957 16.1094C54.7682 16.1094 55.2455 16.9599 55.3365 17.6266L57.8592 17.0519C57.7229 15.8335 56.6546 13.7875 53.4729 13.7875C51.0638 13.7875 49.2912 15.4657 49.2912 17.4887C49.2912 19.0749 50.2682 20.3853 52.4274 20.868L53.9047 21.2128C54.7683 21.3967 55.1093 21.8106 55.1093 22.3163C55.1093 22.914 54.632 23.4427 53.6319 23.4427C52.3138 23.4427 51.6546 22.6151 51.5866 21.7185L48.9957 22.2933Z" fill="#1F1F1F"/>
<path d="M67.1983 25.4786H69.9957C69.9516 25.0747 69.8854 24.2668 69.8854 23.3637V13.7875H66.9558V20.5836C66.9558 21.938 66.2071 22.8885 64.9076 22.8885C63.542 22.8885 62.9251 21.843 62.9251 20.536V13.7875H59.9957V21.1776C59.9957 23.7202 61.4933 25.7875 64.1145 25.7875C65.2597 25.7875 66.5157 25.3123 67.1103 24.2192C67.1103 24.6945 67.1542 25.241 67.1983 25.4786Z" fill="#1F1F1F"/>
<path d="M76.8811 29.7875V24.2926C77.4017 25.0545 78.4868 25.6779 79.9623 25.6779C82.9781 25.6779 84.9957 23.1382 84.9957 19.6981C84.9957 16.3272 83.195 13.7875 80.0707 13.7875C78.4652 13.7875 77.2718 14.5494 76.7945 15.4268V14.0415H73.9957V29.7875H76.8811ZM82.1534 19.7212C82.1534 21.7529 80.9819 22.9304 79.5064 22.9304C78.0313 22.9304 76.8379 21.7298 76.8379 19.7212C76.8379 17.7125 78.0313 16.535 79.5064 16.535C80.9819 16.535 82.1534 17.7125 82.1534 19.7212Z" fill="#1F1F1F"/>
<path d="M86.9957 22.3787C86.9957 24.1522 88.4468 25.7875 90.8281 25.7875C92.483 25.7875 93.5489 25.0044 94.1157 24.1061C94.1157 24.5438 94.1611 25.1656 94.2292 25.4651H96.9957C96.9276 25.0735 96.8599 24.2674 96.8599 23.6685V18.0946C96.8599 15.8144 95.5446 13.7875 92.0072 13.7875C89.0138 13.7875 87.4036 15.7453 87.2224 17.5188L89.8981 18.0946C89.9889 17.1042 90.7146 16.252 92.0295 16.252C93.2997 16.252 93.9119 16.9199 93.9119 17.7261C93.9119 18.1177 93.708 18.4401 93.0729 18.5322L90.3292 18.9468C88.4697 19.2232 86.9957 20.3518 86.9957 22.3787ZM91.4627 23.5073C90.4878 23.5073 90.0114 22.8624 90.0114 22.1944C90.0114 21.3192 90.6236 20.8815 91.3948 20.7664L93.9119 20.3749V20.8815C93.9119 22.8854 92.7327 23.5073 91.4627 23.5073Z" fill="#1F1F1F"/>
<path d="M102.795 25.5104V24.1245C103.358 25.0946 104.486 25.7875 105.962 25.7875C109 25.7875 110.996 23.2237 110.996 19.7821C110.996 16.4098 109.195 13.846 106.071 13.846C104.486 13.846 103.315 14.5851 102.838 15.3935V8.78754H99.9957V25.5104H102.795ZM108.11 19.8052C108.11 21.884 106.938 23.0389 105.463 23.0389C104.009 23.0389 102.795 21.8609 102.795 19.8052C102.795 17.7264 104.009 16.5946 105.463 16.5946C106.938 16.5946 108.11 17.7264 108.11 19.8052Z" fill="#1F1F1F"/>
<path d="M112.996 22.3787C112.996 24.1522 114.447 25.7875 116.828 25.7875C118.483 25.7875 119.549 25.0044 120.116 24.1061C120.116 24.5438 120.161 25.1656 120.229 25.4651H122.996C122.928 25.0735 122.86 24.2674 122.86 23.6685V18.0946C122.86 15.8144 121.545 13.7875 118.007 13.7875C115.014 13.7875 113.404 15.7453 113.222 17.5188L115.898 18.0946C115.989 17.1042 116.715 16.252 118.029 16.252C119.3 16.252 119.912 16.9199 119.912 17.7261C119.912 18.1177 119.708 18.4401 119.073 18.5322L116.329 18.9468C114.47 19.2232 112.996 20.3518 112.996 22.3787ZM117.463 23.5073C116.488 23.5073 116.011 22.8624 116.011 22.1944C116.011 21.3192 116.624 20.8815 117.395 20.7664L119.912 20.3749V20.8815C119.912 22.8854 118.733 23.5073 117.463 23.5073Z" fill="#1F1F1F"/>
<path d="M124.996 22.2933C125.132 23.5806 126.291 25.7875 129.655 25.7875C132.587 25.7875 133.996 23.9025 133.996 22.0634C133.996 20.4082 132.882 19.0519 130.678 18.5921L129.086 18.2473C128.473 18.1323 128.064 17.7875 128.064 17.2358C128.064 16.5921 128.7 16.1094 129.496 16.1094C130.769 16.1094 131.246 16.9599 131.337 17.6266L133.86 17.0519C133.723 15.8335 132.655 13.7875 129.473 13.7875C127.064 13.7875 125.291 15.4657 125.291 17.4887C125.291 19.0749 126.268 20.3853 128.428 20.868L129.905 21.2128C130.769 21.3967 131.11 21.8106 131.11 22.3163C131.11 22.914 130.632 23.4427 129.632 23.4427C128.314 23.4427 127.655 22.6151 127.587 21.7185L124.996 22.2933Z" fill="#1F1F1F"/>
<path d="M139.035 18.5002C139.103 17.4657 139.965 16.2703 141.53 16.2703C143.253 16.2703 143.979 17.3737 144.025 18.5002H139.035ZM144.32 21.4427C143.957 22.4542 143.186 23.1668 141.779 23.1668C140.282 23.1668 139.035 22.0864 138.967 20.5922H146.95C146.95 20.5461 146.996 20.0864 146.996 19.6496C146.996 16.0174 144.932 13.7875 141.484 13.7875C138.627 13.7875 135.996 16.1323 135.996 19.7416C135.996 23.5576 138.695 25.7875 141.757 25.7875C144.501 25.7875 146.27 24.1553 146.837 22.2013L144.32 21.4427Z" fill="#1F1F1F"/>
<path d="M29.1184 32.3489C28.4948 33.1982 27.2304 32.7329 27.2154 31.6485L26.9957 15.7875H36.8571C38.6433 15.7875 39.6395 18.0187 38.5288 19.5315L29.1184 32.3489Z" fill="url(#paint0_linear_996_241)"/>
<path d="M29.1184 32.3489C28.4948 33.1982 27.2304 32.7329 27.2154 31.6485L26.9957 15.7875H36.8571C38.6433 15.7875 39.6395 18.0187 38.5288 19.5315L29.1184 32.3489Z" fill="url(#paint1_linear_996_241)" fill-opacity="0.2"/>
<path d="M24.8072 7.20037C25.4898 6.40096 26.8738 6.83898 26.8903 7.85962L26.9957 22.7875H16.3365C14.3813 22.7875 13.2909 20.6877 14.5067 19.2638L24.8072 7.20037Z" fill="#3ECF8E"/>
<defs>
<linearGradient id="paint0_linear_996_241" x1="26.9957" y1="19.3043" x2="35.9545" y2="22.7786" gradientUnits="userSpaceOnUse">
<stop stop-color="#249361"/>
<stop offset="1" stop-color="#3ECF8E"/>
</linearGradient>
<linearGradient id="paint1_linear_996_241" x1="23.1099" y1="13.5506" x2="27.6166" y2="21.3951" gradientUnits="userSpaceOnUse">
<stop/>
<stop offset="1" stop-opacity="0"/>
</linearGradient>
</defs>
</svg>
