<svg width="160" height="40" viewBox="0 0 160 40" fill="none" xmlns="http://www.w3.org/2000/svg">
<mask id="mask0_996_70" style="mask-type:luminance" maskUnits="userSpaceOnUse" x="50" y="0" width="60" height="40">
<path d="M50.566 0H109.434V40H50.566V0Z" fill="white"/>
</mask>
<g mask="url(#mask0_996_70)">
<path d="M64.711 36.402H62.441C62.361 32.57 62.14 28.967 61.778 25.592H61.758L58.301 36.402H56.573L53.137 25.592H53.117C52.862 28.832 52.702 32.436 52.635 36.402H50.565C50.699 31.579 51.035 27.058 51.57 22.838H54.384L57.659 32.804H57.679L60.974 22.838H63.666C64.256 27.781 64.604 32.303 64.711 36.402ZM74.557 26.394C73.633 31.41 72.413 35.054 70.9 37.33C69.72 39.081 68.428 39.958 67.021 39.958C66.646 39.958 66.183 39.845 65.635 39.62V38.41C65.903 38.45 66.218 38.471 66.579 38.471C67.236 38.471 67.765 38.291 68.167 37.928C68.649 37.487 68.89 36.99 68.89 36.442C68.89 36.065 68.702 35.296 68.327 34.131L65.837 26.394H68.067L69.855 32.18C70.256 33.494 70.424 34.411 70.357 34.934C71.335 32.322 72.017 29.474 72.407 26.394H74.557Z" fill="#5D87A1"/>
<path d="M104.777 36.402H98.327V22.838H100.497V34.732H104.777V36.402ZM96.639 36.73L94.146 35.499C94.367 35.317 94.579 35.121 94.769 34.893C95.829 33.648 96.357 31.807 96.357 29.368C96.357 24.881 94.597 22.636 91.073 22.636C89.346 22.636 87.998 23.206 87.034 24.345C85.975 25.591 85.447 27.425 85.447 29.851C85.447 32.235 85.915 33.984 86.853 35.094C87.71 36.099 89.003 36.602 90.732 36.602C91.377 36.602 91.969 36.523 92.508 36.364L95.754 38.254L96.639 36.73ZM88.562 33.688C88.012 32.804 87.738 31.385 87.738 29.429C87.738 26.014 88.775 24.304 90.853 24.304C91.938 24.304 92.734 24.714 93.243 25.529C93.792 26.414 94.067 27.82 94.067 29.749C94.067 33.192 93.029 34.914 90.953 34.914C89.867 34.914 89.071 34.507 88.562 33.688ZM84.502 32.642C84.502 33.792 84.079 34.736 83.236 35.475C82.392 36.211 81.26 36.58 79.842 36.58C78.515 36.58 77.229 36.157 75.984 35.313L76.567 34.149C77.638 34.685 78.608 34.952 79.479 34.952C80.296 34.952 80.935 34.771 81.399 34.412C81.861 34.051 82.137 33.545 82.137 32.906C82.137 32.1 81.575 31.411 80.544 30.834C79.594 30.312 77.692 29.22 77.692 29.22C76.662 28.47 76.146 27.663 76.146 26.335C76.146 25.235 76.531 24.348 77.3 23.673C78.071 22.995 79.066 22.657 80.285 22.657C81.544 22.657 82.689 22.994 83.719 23.662L83.197 24.827C82.315 24.453 81.444 24.265 80.586 24.265C79.891 24.265 79.353 24.433 78.98 24.768C78.604 25.102 78.372 25.53 78.372 26.055C78.372 26.857 78.946 27.555 80.004 28.143C80.968 28.666 82.917 29.776 82.917 29.776C83.973 30.526 84.502 31.325 84.502 32.642Z" fill="#F8981D"/>
<path d="M107.5 18.295C106.188 18.261 105.173 18.393 104.32 18.754C104.074 18.852 103.683 18.852 103.649 19.164C103.782 19.294 103.797 19.507 103.912 19.689C104.109 20.016 104.452 20.457 104.764 20.687C105.108 20.95 105.453 21.211 105.814 21.44C106.452 21.835 107.174 22.064 107.795 22.457C108.157 22.686 108.517 22.982 108.879 23.227C109.058 23.359 109.172 23.572 109.403 23.654V23.604C109.287 23.456 109.254 23.244 109.14 23.079L108.648 22.604C108.168 21.9687 107.593 21.4108 106.944 20.95C106.42 20.589 105.272 20.097 105.059 19.493L105.026 19.459C105.387 19.425 105.814 19.295 106.157 19.194C106.714 19.047 107.223 19.081 107.795 18.934C108.058 18.868 108.319 18.785 108.583 18.704V18.556C108.287 18.261 108.075 17.869 107.763 17.59C106.915 16.8492 106.011 16.1752 105.059 15.574C104.55 15.246 103.896 15.034 103.354 14.754C103.159 14.656 102.83 14.607 102.715 14.444C102.421 14.083 102.256 13.608 102.042 13.181C101.568 12.281 101.108 11.281 100.699 10.329C100.404 9.69 100.224 9.052 99.863 8.461C98.174 5.675 96.34 3.988 93.521 2.332C92.915 1.987 92.194 1.84 91.424 1.66L90.194 1.595C89.933 1.48 89.67 1.168 89.441 1.02C88.505 0.429996 86.097 -0.847005 85.409 0.839996C84.966 1.907 86.065 2.955 86.442 3.496C86.721 3.872 87.082 4.299 87.277 4.726C87.392 5.004 87.424 5.299 87.54 5.594C87.802 6.315 88.047 7.117 88.392 7.79C88.572 8.133 88.768 8.494 88.998 8.805C89.13 8.986 89.358 9.067 89.408 9.363C89.18 9.689 89.162 10.182 89.031 10.592C88.441 12.443 88.671 14.737 89.507 16.098C89.769 16.508 90.393 17.41 91.227 17.064C91.966 16.769 91.802 15.835 92.014 15.016C92.064 14.818 92.031 14.688 92.129 14.559V14.591C92.358 15.049 92.589 15.491 92.801 15.951C93.309 16.753 94.194 17.589 94.931 18.145C95.325 18.442 95.636 18.949 96.127 19.13V19.08H96.095C95.995 18.934 95.85 18.868 95.719 18.754C95.4087 18.4501 95.1238 18.1213 94.867 17.771C94.18 16.853 93.571 15.836 93.032 14.787C92.768 14.278 92.54 13.722 92.327 13.214C92.228 13.018 92.228 12.722 92.064 12.624C91.817 12.984 91.458 13.296 91.278 13.737C90.966 14.443 90.934 15.311 90.818 16.214L90.753 16.246C90.231 16.114 90.05 15.574 89.851 15.116C89.361 13.951 89.278 12.083 89.704 10.739C89.818 10.396 90.312 9.314 90.114 8.987C90.016 8.673 89.688 8.49499 89.508 8.24699C89.2802 7.91615 89.0827 7.56539 88.918 7.199C88.524 6.282 88.326 5.265 87.903 4.349C87.705 3.921 87.362 3.479 87.083 3.085C86.771 2.643 86.428 2.332 86.181 1.807C86.099 1.627 85.985 1.332 86.116 1.137C86.148 1.005 86.215 0.954996 86.346 0.922996C86.558 0.742996 87.164 0.970996 87.377 1.07C87.985 1.316 88.493 1.545 89 1.889C89.23 2.054 89.475 2.365 89.77 2.447H90.115C90.638 2.561 91.228 2.479 91.721 2.627C92.589 2.906 93.375 3.315 94.081 3.757C96.251 5.14041 98.0151 7.07491 99.193 9.363C99.389 9.739 99.472 10.083 99.651 10.477C99.996 11.28 100.423 12.1 100.766 12.887C101.11 13.657 101.438 14.442 101.93 15.082C102.175 15.426 103.161 15.606 103.602 15.786C103.929 15.934 104.438 16.064 104.733 16.244C105.29 16.588 105.846 16.982 106.37 17.36C106.631 17.557 107.451 17.967 107.5 18.295ZM90.783 4.053C90.557 4.05055 90.3317 4.07813 90.113 4.135V4.168H90.143C90.276 4.43 90.505 4.612 90.669 4.84C90.801 5.103 90.916 5.364 91.045 5.626L91.077 5.593C91.307 5.43 91.423 5.167 91.423 4.773C91.323 4.658 91.308 4.545 91.225 4.43C91.128 4.266 90.915 4.184 90.783 4.053Z" fill="#5D87A1"/>
<path d="M109.061 36.4H109.401V34.738H108.891L108.476 35.872L108.024 34.738H107.534V36.4H107.855V35.135H107.873L108.346 36.4H108.59L109.061 35.135V36.4ZM106.326 36.4H106.685V35.02H107.155V34.737H105.836V35.019H106.325L106.326 36.399V36.4Z" fill="#F8981D"/>
</g>
</svg>
