<?xml version="1.0" encoding="UTF-8"?>
<!DOCTYPE svg PUBLIC "-//W3C//DTD SVG 1.1//EN" "http://www.w3.org/Graphics/SVG/1.1/DTD/svg11.dtd">
<svg xmlns="http://www.w3.org/2000/svg" version="1.1" width="160" height="40" viewBox="0 0 1782 451" style="shape-rendering:geometricPrecision; text-rendering:geometricPrecision; image-rendering:optimizeQuality; fill-rule:evenodd; clip-rule:evenodd" xmlns:xlink="http://www.w3.org/1999/xlink">
<g><path style="opacity:0.914" fill="#adb4be" d="M 174.5,11.5 C 172.708,11.366 171.042,11.6993 169.5,12.5C 169.326,10.139 168.993,7.80562 168.5,5.5C 149.28,12.2736 130.614,20.4403 112.5,30C 111.167,30.6667 111.167,31.3333 112.5,32C 119.708,32.7568 126.708,33.9235 133.5,35.5C 133.607,37.3786 133.107,37.7119 132,36.5C 131.5,37.6667 130.667,38.5 129.5,39C 130.774,39.9772 130.774,40.8106 129.5,41.5C 122.018,40.2924 114.685,38.7924 107.5,37C 117.728,47.3961 128.062,57.5627 138.5,67.5C 132.962,67.4472 127.629,66.4472 122.5,64.5C 115.137,55.4754 107.803,46.4754 100.5,37.5C 100.389,36.8826 100.056,36.3826 99.5,36C 102.44,32.3131 105.107,28.4798 107.5,24.5C 128.025,14.3254 149.358,6.32535 171.5,0.5C 171.894,4.34723 172.894,8.01389 174.5,11.5 Z"/></g>
<g><path style="opacity:0.975" fill="#949fab" d="M 107.5,24.5 C 105.107,28.4798 102.44,32.3131 99.5,36C 100.056,36.3826 100.389,36.8826 100.5,37.5C 93.4257,41.9101 88.0924,47.9101 84.5,55.5C 78.6688,54.9914 75.0022,51.9914 73.5,46.5C 83.1218,36.6788 94.4552,29.3454 107.5,24.5 Z"/></g>
<g><path style="opacity:0.911" fill="#ced2d7" d="M 174.5,11.5 C 182.406,34.9783 192.74,57.3116 205.5,78.5C 201.394,78.2601 197.394,77.5934 193.5,76.5C 189.459,68.953 185.626,61.2863 182,53.5C 174.847,60.1595 167.014,65.8262 158.5,70.5C 153.9,70.7204 149.567,70.0538 145.5,68.5C 156.077,61.7965 167.077,55.6298 178.5,50C 161.862,48.1273 145.529,45.2939 129.5,41.5C 130.774,40.8106 130.774,39.9772 129.5,39C 130.667,38.5 131.5,37.6667 132,36.5C 133.107,37.7119 133.607,37.3786 133.5,35.5C 148.229,37.5668 162.895,39.7334 177.5,42C 173.716,32.4801 171.05,22.6467 169.5,12.5C 171.042,11.6993 172.708,11.366 174.5,11.5 Z"/></g>
<g><path style="opacity:0.95" fill="#b01032" d="M 73.5,46.5 C 75.0022,51.9914 78.6688,54.9914 84.5,55.5C 89.7398,57.4764 95.0732,59.1431 100.5,60.5C 100.611,61.1174 100.944,61.6174 101.5,62C 99.6667,62.5 98.5,63.6667 98,65.5C 97.6667,65.1667 97.3333,64.8333 97,64.5C 96.5172,65.448 96.3505,66.448 96.5,67.5C 96.5,67.8333 96.5,68.1667 96.5,68.5C 95.8333,68.5 95.5,68.1667 95.5,67.5C 95.5,66.8333 95.1667,66.5 94.5,66.5C 92.4947,67.254 91.828,68.4207 92.5,70C 91.436,71.5106 90.1026,71.6772 88.5,70.5C 81.3537,65.0259 75.6871,58.3593 71.5,50.5C 71.6682,48.8295 72.3349,47.4961 73.5,46.5 Z"/></g>
<g><path style="opacity:1" fill="#c11d32" d="M 100.5,60.5 C 107.761,62.2187 115.094,63.5521 122.5,64.5C 127.629,66.4472 132.962,67.4472 138.5,67.5C 140.764,68.2186 143.097,68.552 145.5,68.5C 149.567,70.0538 153.9,70.7204 158.5,70.5C 159.209,71.404 160.209,71.7373 161.5,71.5C 158.94,74.6563 156.106,75.323 153,73.5C 151.009,75.9055 148.676,76.5721 146,75.5C 145.311,76.3567 144.478,77.0233 143.5,77.5C 142.005,76.2947 140.672,76.2947 139.5,77.5C 134.907,76.8152 130.407,75.8152 126,74.5C 126.83,78.5219 127.996,82.5219 129.5,86.5C 127.876,86.3601 126.71,87.0267 126,88.5C 125.658,86.3808 124.825,86.0474 123.5,87.5C 122.132,82.5613 120.465,77.728 118.5,73C 111.153,71.1631 103.819,69.3298 96.5,67.5C 96.3505,66.448 96.5172,65.448 97,64.5C 97.3333,64.8333 97.6667,65.1667 98,65.5C 98.5,63.6667 99.6667,62.5 101.5,62C 100.944,61.6174 100.611,61.1174 100.5,60.5 Z"/></g>
<g><path style="opacity:0.961" fill="#ca2030" d="M 161.5,71.5 C 172.135,73.3527 182.802,75.0193 193.5,76.5C 197.394,77.5934 201.394,78.2601 205.5,78.5C 222.092,80.7634 238.426,83.7634 254.5,87.5C 254.756,89.7761 256.09,90.9428 258.5,91C 260.959,93.4464 263.292,95.9464 265.5,98.5C 264.833,99.1667 264.167,99.8333 263.5,100.5C 263.624,101.107 263.957,101.44 264.5,101.5C 263.25,113.499 260.583,125.166 256.5,136.5C 253.843,135.562 251.51,133.562 249.5,130.5C 253.292,121.455 256.292,112.121 258.5,102.5C 258.167,102.167 257.833,101.833 257.5,101.5C 252.78,103.86 248.114,106.193 243.5,108.5C 242.5,106.5 241.5,104.5 240.5,102.5C 243.689,100.74 247.022,99.2401 250.5,98C 236.714,95.0772 223.048,92.2438 209.5,89.5C 208.745,87.5337 207.579,87.2004 206,88.5C 205.333,87.8333 204.667,87.1667 204,86.5C 201.593,86.6733 199.26,86.6733 197,86.5C 194.858,84.6627 192.691,84.3294 190.5,85.5C 184.853,83.8052 179.186,83.1385 173.5,83.5C 162.047,82.1426 150.714,80.1426 139.5,77.5C 140.672,76.2947 142.005,76.2947 143.5,77.5C 144.478,77.0233 145.311,76.3567 146,75.5C 148.676,76.5721 151.009,75.9055 153,73.5C 156.106,75.323 158.94,74.6563 161.5,71.5 Z"/></g>
<g><path style="opacity:0.992" fill="#221e1f" d="M 850.5,74.5 C 853.85,74.335 857.183,74.5017 860.5,75C 861.704,76.3528 862.371,78.0194 862.5,80C 862.167,81.5 861.833,83 861.5,84.5C 856.792,81.6783 852.625,82.3449 849,86.5C 847.612,91.3722 847.112,96.3722 847.5,101.5C 851.5,101.5 855.5,101.5 859.5,101.5C 859.5,104.5 859.5,107.5 859.5,110.5C 855.5,110.5 851.5,110.5 847.5,110.5C 847.5,125.833 847.5,141.167 847.5,156.5C 844.167,156.5 840.833,156.5 837.5,156.5C 837.5,141.167 837.5,125.833 837.5,110.5C 834.5,110.5 831.5,110.5 828.5,110.5C 828.5,107.5 828.5,104.5 828.5,101.5C 831.5,101.5 834.5,101.5 837.5,101.5C 834.829,88.7327 839.163,79.7327 850.5,74.5 Z"/></g>
<g><path style="opacity:0.965" fill="#221e1f" d="M 559.5,76.5 C 567.571,77.0929 569.571,80.9262 565.5,88C 557.566,90.3973 554.399,87.5639 556,79.5C 557.145,78.3636 558.312,77.3636 559.5,76.5 Z"/></g>
<g><path style="opacity:0.989" fill="#221e1f" d="M 460.5,80.5 C 465.099,80.2 469.599,80.5333 474,81.5C 482.472,101.25 491.139,120.916 500,140.5C 508.392,120.716 517.059,101.049 526,81.5C 530.066,80.5363 534.233,80.203 538.5,80.5C 538.5,105.833 538.5,131.167 538.5,156.5C 535.5,156.5 532.5,156.5 529.5,156.5C 529.667,136.497 529.5,116.497 529,96.5C 520.551,116.517 511.718,136.351 502.5,156C 497.7,157.282 494.866,155.449 494,150.5C 486.333,133.167 478.667,115.833 471,98.5C 470.5,117.83 470.333,137.164 470.5,156.5C 467.167,156.5 463.833,156.5 460.5,156.5C 460.5,131.167 460.5,105.833 460.5,80.5 Z"/></g>
<g><path style="opacity:0.982" fill="#221e1f" d="M 880.5,85.5 C 882.446,90.3958 883.113,95.7291 882.5,101.5C 887.167,101.5 891.833,101.5 896.5,101.5C 896.5,104.5 896.5,107.5 896.5,110.5C 891.833,110.5 887.167,110.5 882.5,110.5C 882.062,122.576 882.562,134.576 884,146.5C 887.659,150.115 891.659,150.448 896,147.5C 898.236,154.9 895.57,158.567 888,158.5C 881.163,158.755 876.497,155.755 874,149.5C 872.599,136.552 872.099,123.552 872.5,110.5C 869.5,110.5 866.5,110.5 863.5,110.5C 863.5,107.5 863.5,104.5 863.5,101.5C 866.5,101.5 869.5,101.5 872.5,101.5C 872.174,97.1161 872.508,92.7828 873.5,88.5C 876.016,87.6701 878.35,86.6701 880.5,85.5 Z"/></g>
<g><path style="opacity:0.916" fill="#c51d31" d="M 94.5,66.5 C 95.1667,66.5 95.5,66.8333 95.5,67.5C 95.5,68.1667 95.8333,68.5 96.5,68.5C 107.252,76.5832 116.252,86.2499 123.5,97.5C 123.001,100.264 121.335,101.931 118.5,102.5C 114.545,97.3732 110.378,92.3732 106,87.5C 99.663,82.3293 93.8296,76.6626 88.5,70.5C 90.1026,71.6772 91.436,71.5106 92.5,70C 91.828,68.4207 92.4947,67.254 94.5,66.5 Z"/></g>
<g><path style="opacity:0.934" fill="#d5272e" d="M 173.5,83.5 C 179.186,83.1385 184.853,83.8052 190.5,85.5C 192.691,84.3294 194.858,84.6627 197,86.5C 199.26,86.6733 201.593,86.6733 204,86.5C 204.667,87.1667 205.333,87.8333 206,88.5C 207.579,87.2004 208.745,87.5337 209.5,89.5C 202.929,88.9882 196.429,87.9882 190,86.5C 189.5,86.8333 189,87.1667 188.5,87.5C 191.11,93.3288 193.11,99.3288 194.5,105.5C 192.856,105.286 191.356,105.62 190,106.5C 188.484,103.949 187.651,104.282 187.5,107.5C 186.257,100.145 184.423,92.8119 182,85.5C 168.948,94.8785 156.782,105.379 145.5,117C 146.448,117.483 147.448,117.649 148.5,117.5C 145.186,118.351 142.352,120.017 140,122.5C 138.984,121.366 138.317,121.699 138,123.5C 137.549,121.071 136.715,120.904 135.5,123C 135.833,123.333 136.167,123.667 136.5,124C 134.497,124.335 132.83,125.168 131.5,126.5C 128.213,117.925 123.879,109.925 118.5,102.5C 121.335,101.931 123.001,100.264 123.5,97.5C 124.804,98.9869 125.97,100.654 127,102.5C 126.577,97.3823 125.41,92.3823 123.5,87.5C 124.825,86.0474 125.658,86.3808 126,88.5C 126.71,87.0267 127.876,86.3601 129.5,86.5C 133.141,94.247 136.308,102.247 139,110.5C 148.836,100.5 160.002,92.3335 172.5,86C 173.252,85.3292 173.586,84.4959 173.5,83.5 Z"/></g>
<g><path style="opacity:0.967" fill="#b71331" d="M 254.5,87.5 C 274.366,91.0125 293.699,96.3459 312.5,103.5C 314.355,107.222 316.688,111.222 319.5,115.5C 318.995,116.919 317.995,117.585 316.5,117.5C 299.492,111.164 282.158,105.831 264.5,101.5C 263.957,101.44 263.624,101.107 263.5,100.5C 264.167,99.8333 264.833,99.1667 265.5,98.5C 263.292,95.9464 260.959,93.4464 258.5,91C 256.09,90.9428 254.756,89.7761 254.5,87.5 Z"/></g>
<g><path style="opacity:0.98" fill="#221e1f" d="M 600.5,100.5 C 607.301,100.128 613.967,100.794 620.5,102.5C 620.665,106.182 620.499,109.848 620,113.5C 610.424,106.415 601.424,107.082 593,115.5C 586.124,126.954 587.291,137.454 596.5,147C 604.412,150.61 612.078,150.11 619.5,145.5C 620.787,148.709 620.787,151.875 619.5,155C 605.472,161.283 593.306,158.783 583,147.5C 576.395,133.885 577.395,120.885 586,108.5C 590.408,104.883 595.241,102.217 600.5,100.5 Z"/></g>
<g><path style="opacity:0.981" fill="#221e1f" d="M 685.5,100.5 C 696.054,98.7598 705.22,101.426 713,108.5C 715.434,111.795 717.101,115.462 718,119.5C 718.89,126.914 718.557,134.247 717,141.5C 708.785,156.912 696.285,161.745 679.5,156C 668.948,150.405 663.948,141.571 664.5,129.5C 664.269,114.422 671.269,104.755 685.5,100.5 Z M 689.5,108.5 C 702.914,108.916 709.581,115.916 709.5,129.5C 707.875,146.97 698.875,152.803 682.5,147C 674.158,138.498 672.325,128.664 677,117.5C 679.917,112.637 684.083,109.637 689.5,108.5 Z"/></g>
<g><path style="opacity:0.973" fill="#221e1f" d="M 652.5,100.5 C 660.854,99.6194 663.521,103.286 660.5,111.5C 652.846,108.403 647.346,110.737 644,118.5C 642.559,131.092 642.059,143.759 642.5,156.5C 639.167,156.5 635.833,156.5 632.5,156.5C 632.5,138.167 632.5,119.833 632.5,101.5C 635.833,101.5 639.167,101.5 642.5,101.5C 641.582,109.102 642.916,109.935 646.5,104C 648.432,102.541 650.432,101.375 652.5,100.5 Z"/></g>
<g><path style="opacity:1" fill="#221e1f" d="M 556.5,101.5 C 559.833,101.5 563.167,101.5 566.5,101.5C 566.5,119.833 566.5,138.167 566.5,156.5C 563.167,156.5 559.833,156.5 556.5,156.5C 556.5,138.167 556.5,119.833 556.5,101.5 Z"/></g>
<g><path style="opacity:0.976" fill="#221e1f" d="M 790.5,100.5 C 812.132,97.9529 823.132,107.453 823.5,129C 823.381,146.953 814.381,156.786 796.5,158.5C 778.879,156.878 769.879,147.212 769.5,129.5C 769.297,114.4 776.297,104.733 790.5,100.5 Z M 794.5,108.5 C 804.134,108.056 810.301,112.389 813,121.5C 813.87,127.917 813.536,134.251 812,140.5C 805.819,149.83 797.652,151.996 787.5,147C 780.424,140.768 777.924,132.934 780,123.5C 781.681,115.321 786.514,110.321 794.5,108.5 Z"/></g>
<g><path style="opacity:0.902" fill="#221e1f" d="M 912.5,90.5 C 929.339,89.5013 935.839,97.168 932,113.5C 926.649,121.281 919.482,123.448 910.5,120C 902.84,115.242 900.34,108.408 903,99.5C 905.406,95.5915 908.572,92.5915 912.5,90.5 Z M 925.5,115.5 C 923.668,117.894 921.168,118.894 918,118.5C 909.988,118.156 905.488,113.989 904.5,106C 907.046,94.3987 913.712,90.7321 924.5,95C 930.043,98.7771 931.877,103.944 930,110.5C 929.004,112.66 927.504,114.327 925.5,115.5 Z M 915.5,98.5 C 919.701,98.4258 921.035,100.259 919.5,104C 918.207,104.49 916.873,104.657 915.5,104.5C 915.5,102.5 915.5,100.5 915.5,98.5 Z"/></g>
<g><path style="opacity:0.924" fill="#221e1f" d="M 925.5,115.5 C 924.127,115.657 922.793,115.49 921.5,115C 916.948,105.468 914.948,105.635 915.5,115.5C 914.167,115.5 912.833,115.5 911.5,115.5C 911.5,108.833 911.5,102.167 911.5,95.5C 915.911,95.021 920.078,95.6876 924,97.5C 925.183,101.274 924.349,104.441 921.5,107C 923.246,109.659 924.58,112.492 925.5,115.5 Z M 915.5,98.5 C 915.5,100.5 915.5,102.5 915.5,104.5C 916.873,104.657 918.207,104.49 919.5,104C 921.035,100.259 919.701,98.4258 915.5,98.5 Z"/></g>
<g><path style="opacity:0.98" fill="#221e1f" d="M 741.5,100.5 C 747.31,100.122 752.976,100.789 758.5,102.5C 759.833,105.833 759.833,109.167 758.5,112.5C 753.168,108.91 747.501,108.077 741.5,110C 737.301,113.112 736.634,116.779 739.5,121C 743.888,123.861 748.554,126.194 753.5,128C 760.844,132.536 763.344,139.036 761,147.5C 757.007,155.352 750.507,159.019 741.5,158.5C 737.012,158.136 732.678,157.136 728.5,155.5C 727.167,151.833 727.167,148.167 728.5,144.5C 734.849,149.577 741.849,150.744 749.5,148C 753.155,144.194 752.822,140.527 748.5,137C 741.611,134.307 735.444,130.473 730,125.5C 725.231,113.044 729.064,104.711 741.5,100.5 Z"/></g>
<g><path style="opacity:0.923" fill="#a80531" d="M 312.5,103.5 C 356.112,116.797 389.779,142.797 413.5,181.5C 383.293,186.885 353.293,193.219 323.5,200.5C 323.598,199.118 323.598,197.618 323.5,196C 324.219,193.383 325.553,191.216 327.5,189.5C 352.558,184.134 377.892,180.301 403.5,178C 386.959,158.953 367.625,143.453 345.5,131.5C 339.026,144.627 331.359,156.96 322.5,168.5C 321.892,166.741 322.225,164.908 323.5,163C 323.095,162.055 322.428,161.388 321.5,161C 322.925,159.286 322.592,157.953 320.5,157C 321.774,156.023 321.774,155.189 320.5,154.5C 326.525,146.961 332.191,139.128 337.5,131C 327.019,133.038 316.686,135.872 306.5,139.5C 305.227,137.287 304.227,134.954 303.5,132.5C 312.547,129.403 321.88,126.903 331.5,125C 326.475,122.391 321.475,119.891 316.5,117.5C 317.995,117.585 318.995,116.919 319.5,115.5C 316.688,111.222 314.355,107.222 312.5,103.5 Z"/></g>
<g><path style="opacity:0.948" fill="#e13531" d="M 240.5,102.5 C 241.5,104.5 242.5,106.5 243.5,108.5C 229.92,116.739 216.586,125.406 203.5,134.5C 191.186,129.571 178.186,128.404 164.5,131C 162.509,131.374 160.842,132.207 159.5,133.5C 154.096,132.482 148.762,131.149 143.5,129.5C 143.002,133.425 143.002,137.425 143.5,141.5C 140.604,142.398 138.271,144.065 136.5,146.5C 135.457,139.661 133.79,132.994 131.5,126.5C 132.83,125.168 134.497,124.335 136.5,124C 136.167,123.667 135.833,123.333 135.5,123C 136.715,120.904 137.549,121.071 138,123.5C 138.317,121.699 138.984,121.366 140,122.5C 142.352,120.017 145.186,118.351 148.5,117.5C 161.479,120.993 174.313,124.993 187,129.5C 187.5,122.174 187.666,114.841 187.5,107.5C 187.651,104.282 188.484,103.949 190,106.5C 191.356,105.62 192.856,105.286 194.5,105.5C 194.971,112.843 195.638,120.177 196.5,127.5C 210.251,117.622 224.918,109.289 240.5,102.5 Z"/></g>
<g><path style="opacity:0.991" fill="#e85043" d="M 233.5,178.5 C 230.305,183.569 226.638,188.235 222.5,192.5C 222.64,187.384 222.306,182.384 221.5,177.5C 221.672,176.508 221.338,175.842 220.5,175.5C 219.895,172.227 218.562,168.894 216.5,165.5C 218.807,164.347 221.14,163.18 223.5,162C 213.913,156.04 203.913,150.873 193.5,146.5C 192.095,144.621 190.428,144.288 188.5,145.5C 184.712,143.744 180.712,143.078 176.5,143.5C 176.953,142.542 177.619,141.708 178.5,141C 174.376,138.681 170.042,136.847 165.5,135.5C 167.487,134.657 169.654,133.99 172,133.5C 184.834,132.12 197.5,135.453 210,143.5C 214.649,146.316 218.482,149.983 221.5,154.5C 226.081,162.328 230.081,170.328 233.5,178.5 Z"/></g>
<g><path style="opacity:0.968" fill="#d8282e" d="M 249.5,130.5 C 251.51,133.562 253.843,135.562 256.5,136.5C 254.938,140.345 253.271,144.179 251.5,148C 251.833,148.5 252.167,149 252.5,149.5C 259.411,146.542 266.411,143.876 273.5,141.5C 273.047,142.458 272.381,143.292 271.5,144C 272.928,146.132 274.261,148.299 275.5,150.5C 267.5,154.167 259.5,157.833 251.5,161.5C 249.235,159.208 247.235,156.541 245.5,153.5C 245.709,152.914 246.043,152.414 246.5,152C 244.449,150.033 242.782,147.866 241.5,145.5C 243.916,140.333 246.582,135.333 249.5,130.5 Z"/></g>
<g><path style="opacity:0.955" fill="#c71e30" d="M 303.5,132.5 C 304.227,134.954 305.227,137.287 306.5,139.5C 296.236,143.366 285.902,147.033 275.5,150.5C 274.261,148.299 272.928,146.132 271.5,144C 272.381,143.292 273.047,142.458 273.5,141.5C 283.252,137.694 293.252,134.694 303.5,132.5 Z"/></g>
<g><path style="opacity:0.952" fill="#e54238" d="M 203.5,134.5 C 212.557,138.527 221.557,142.86 230.5,147.5C 233.89,153.951 237.057,160.618 240,167.5C 240.74,168.749 240.573,169.749 239.5,170.5C 237.5,173.167 235.5,175.833 233.5,178.5C 230.081,170.328 226.081,162.328 221.5,154.5C 218.482,149.983 214.649,146.316 210,143.5C 197.5,135.453 184.834,132.12 172,133.5C 169.654,133.99 167.487,134.657 165.5,135.5C 163.302,135.125 161.302,134.458 159.5,133.5C 160.842,132.207 162.509,131.374 164.5,131C 178.186,128.404 191.186,129.571 203.5,134.5 Z"/></g>
<g><path style="opacity:0.989" fill="#e02e2d" d="M 241.5,145.5 C 242.782,147.866 244.449,150.033 246.5,152C 246.043,152.414 245.709,152.914 245.5,153.5C 247.235,156.541 249.235,159.208 251.5,161.5C 254.784,163.117 257.451,165.45 259.5,168.5C 260.787,172.603 260.787,176.436 259.5,180C 260.167,180.333 260.833,180.667 261.5,181C 261.287,182.634 260.954,184.134 260.5,185.5C 253.638,180.242 246.638,175.242 239.5,170.5C 240.573,169.749 240.74,168.749 240,167.5C 237.057,160.618 233.89,153.951 230.5,147.5C 232.781,148.608 234.948,149.942 237,151.5C 238.764,149.611 240.264,147.611 241.5,145.5 Z"/></g>
<g><path style="opacity:0.929" fill="#ea5649" d="M 143.5,141.5 C 144.833,151.833 144.833,162.167 143.5,172.5C 142.399,173.848 141.399,175.348 140.5,177C 139.553,179.478 139.553,181.812 140.5,184C 139.643,184.689 138.977,185.522 138.5,186.5C 139.981,189.192 140.648,192.192 140.5,195.5C 137.329,201.64 134.329,207.973 131.5,214.5C 129.8,212.1 128.467,209.434 127.5,206.5C 133.509,192.127 136.842,177.127 137.5,161.5C 137.208,156.491 136.874,151.491 136.5,146.5C 138.271,144.065 140.604,142.398 143.5,141.5 Z"/></g>
<g><path style="opacity:0.963" fill="#bc1731" d="M 320.5,154.5 C 321.774,155.189 321.774,156.023 320.5,157C 322.592,157.953 322.925,159.286 321.5,161C 322.428,161.388 323.095,162.055 323.5,163C 322.225,164.908 321.892,166.741 322.5,168.5C 316.869,175.798 310.536,182.465 303.5,188.5C 302.768,185.863 302.768,183.363 303.5,181C 302.756,179.961 301.756,179.461 300.5,179.5C 307.167,171.167 313.833,162.833 320.5,154.5 Z"/></g>
<g><path style="opacity:0.929" fill="#f16c5d" d="M 190.5,160.5 C 187.403,168.972 184.236,177.305 181,185.5C 192.466,178.205 204.3,171.538 216.5,165.5C 218.562,168.894 219.895,172.227 220.5,175.5C 204.401,184.052 188.401,192.885 172.5,202C 170.17,203.488 169.836,205.321 171.5,207.5C 166.965,205.401 162.965,202.568 159.5,199C 160.34,197.334 159.84,197.167 158,198.5C 157.167,197.667 156.333,196.833 155.5,196C 156.319,193.657 156.653,191.157 156.5,188.5C 159.13,190.628 161.63,192.961 164,195.5C 171.453,183.928 177.286,171.595 181.5,158.5C 182.15,158.196 182.817,157.863 183.5,157.5C 186.085,158.984 188.418,159.984 190.5,160.5 Z"/></g>
<g><path style="opacity:0.992" fill="#221e1f" d="M 505.5,177.5 C 521.006,176.694 536.339,177.86 551.5,181C 554.196,181.765 556.696,182.932 559,184.5C 559.667,194.167 559.667,203.833 559,213.5C 542.219,201.783 523.719,197.95 503.5,202C 481.967,208.563 474.134,222.73 480,244.5C 482.398,250.129 485.898,254.963 490.5,259C 507.332,269.917 524.332,280.584 541.5,291C 570.647,312.755 576.48,339.588 559,371.5C 548.376,384.113 534.876,391.613 518.5,394C 494.824,397.761 472.324,394.261 451,383.5C 450.168,373.483 450.334,363.483 451.5,353.5C 470.35,368.379 491.683,374.213 515.5,371C 535.461,366.927 543.961,354.76 541,334.5C 539.265,327.861 536.098,322.028 531.5,317C 514.85,304.672 497.517,293.338 479.5,283C 450.55,262.705 443.717,236.538 459,204.5C 470.713,188.896 486.213,179.896 505.5,177.5 Z"/></g>
<g><path style="opacity:0.993" fill="#221e1f" d="M 674.5,177.5 C 726.908,172.764 762.408,194.764 781,243.5C 789.33,275.268 787.996,306.601 777,337.5C 764.55,366.45 743.05,384.783 712.5,392.5C 728.317,409.485 744.317,426.318 760.5,443C 748.5,443.667 736.5,443.667 724.5,443C 711.167,427.333 697.833,411.667 684.5,396C 628.768,392.27 596.601,362.77 588,307.5C 584.236,278.842 588.57,251.509 601,225.5C 617.528,197.318 642.028,181.318 674.5,177.5 Z M 677.5,200.5 C 726.939,199.098 754.106,223.098 759,272.5C 762.298,298.35 757.298,322.35 744,344.5C 725.45,367.133 701.617,375.966 672.5,371C 645.491,364.992 627.658,348.826 619,322.5C 610.966,295.809 611.966,269.476 622,243.5C 633.443,219.872 651.943,205.539 677.5,200.5 Z"/></g>
<g><path style="opacity:0.992" fill="#221e1f" d="M 1037.5,177.5 C 1050.2,177.179 1062.87,177.679 1075.5,179C 1081.29,180.039 1086.79,181.873 1092,184.5C 1092.67,194.167 1092.67,203.833 1092,213.5C 1074.88,201.672 1056.05,197.839 1035.5,202C 1012.87,209.769 1005.7,224.936 1014,247.5C 1016.75,252.252 1020.25,256.419 1024.5,260C 1040,269.917 1055.67,279.584 1071.5,289C 1103.23,310.981 1109.73,338.814 1091,372.5C 1075.14,389.071 1055.64,396.737 1032.5,395.5C 1015.28,395.485 999.108,391.485 984,383.5C 983.168,373.483 983.334,363.483 984.5,353.5C 1008.17,372.47 1034.17,376.637 1062.5,366C 1073.33,356.879 1076.83,345.379 1073,331.5C 1070.12,323.612 1065.29,317.112 1058.5,312C 1044.84,302.832 1030.84,294.165 1016.5,286C 1003.51,278.013 993.679,267.18 987,253.5C 978.067,211.032 994.9,185.698 1037.5,177.5 Z"/></g>
<g><path style="opacity:0.999" fill="#221e1f" d="M 817.5,180.5 C 826.167,180.5 834.833,180.5 843.5,180.5C 843.5,243.167 843.5,305.833 843.5,368.5C 871.5,368.5 899.5,368.5 927.5,368.5C 927.5,376.167 927.5,383.833 927.5,391.5C 890.833,391.5 854.167,391.5 817.5,391.5C 817.5,321.167 817.5,250.833 817.5,180.5 Z"/></g>
<g><path style="opacity:0.976" fill="#ed6153" d="M 176.5,143.5 C 180.712,143.078 184.712,143.744 188.5,145.5C 190.428,144.288 192.095,144.621 193.5,146.5C 193.131,151.309 192.131,155.976 190.5,160.5C 188.418,159.984 186.085,158.984 183.5,157.5C 182.817,157.863 182.15,158.196 181.5,158.5C 182.495,155.536 182.995,152.536 183,149.5C 170.705,159.459 158.705,169.793 147,180.5C 146.312,181.332 146.479,181.998 147.5,182.5C 150.701,184.262 153.701,186.262 156.5,188.5C 156.653,191.157 156.319,193.657 155.5,196C 156.333,196.833 157.167,197.667 158,198.5C 159.84,197.167 160.34,197.334 159.5,199C 162.965,202.568 166.965,205.401 171.5,207.5C 175.2,214.958 177.367,222.958 178,231.5C 193.502,214.179 208.002,196.179 221.5,177.5C 222.306,182.384 222.64,187.384 222.5,192.5C 212.44,205.065 201.44,216.899 189.5,228C 198.33,225.891 206.996,223.057 215.5,219.5C 210.641,225.357 204.641,229.857 197.5,233C 193.054,234.403 188.554,235.57 184,236.5C 179.649,236.133 175.149,236.133 170.5,236.5C 170.305,227.735 167.472,219.735 162,212.5C 158.375,218.292 153.875,223.292 148.5,227.5C 147.415,225.413 145.749,224.08 143.5,223.5C 144.6,222.395 145.267,221.062 145.5,219.5C 146.167,219.5 146.5,219.167 146.5,218.5C 144.117,217.115 142.45,215.115 141.5,212.5C 145.438,209.902 149.105,206.902 152.5,203.5C 148.815,200.327 144.815,197.66 140.5,195.5C 140.648,192.192 139.981,189.192 138.5,186.5C 138.977,185.522 139.643,184.689 140.5,184C 139.553,181.812 139.553,179.478 140.5,177C 141.399,175.348 142.399,173.848 143.5,172.5C 151.329,164.838 159.329,157.338 167.5,150C 170.397,147.59 173.397,145.423 176.5,143.5 Z"/></g>
<g><path style="opacity:0.911" fill="#d3262f" d="M 259.5,168.5 C 268.761,175.348 276.428,183.682 282.5,193.5C 280.785,195.438 280.452,197.605 281.5,200C 279.766,204.223 279.1,208.39 279.5,212.5C 271.393,214.526 263.393,216.859 255.5,219.5C 256.413,217.914 256.413,216.414 255.5,215C 257.654,212.544 258.987,209.711 259.5,206.5C 265.236,204.202 271.236,202.369 277.5,201C 272.139,195.35 266.472,190.183 260.5,185.5C 260.954,184.134 261.287,182.634 261.5,181C 260.833,180.667 260.167,180.333 259.5,180C 260.787,176.436 260.787,172.603 259.5,168.5 Z"/></g>
<g><path style="opacity:0.949" fill="#c81f30" d="M 300.5,179.5 C 301.756,179.461 302.756,179.961 303.5,181C 302.768,183.363 302.768,185.863 303.5,188.5C 301.706,190.797 299.706,192.963 297.5,195C 298.448,195.483 299.448,195.649 300.5,195.5C 303.125,198.236 303.125,201.069 300.5,204C 300.743,204.902 301.077,205.735 301.5,206.5C 294.094,208.303 286.761,210.303 279.5,212.5C 279.1,208.39 279.766,204.223 281.5,200C 280.452,197.605 280.785,195.438 282.5,193.5C 283.429,194.936 284.595,196.269 286,197.5C 290.667,191.336 295.5,185.336 300.5,179.5 Z"/></g>
<g><path style="opacity:0.973" fill="#bc1731" d="M 327.5,189.5 C 325.553,191.216 324.219,193.383 323.5,196C 323.598,197.618 323.598,199.118 323.5,200.5C 316.167,202.5 308.833,204.5 301.5,206.5C 301.077,205.735 300.743,204.902 300.5,204C 303.125,201.069 303.125,198.236 300.5,195.5C 309.273,193.009 318.273,191.009 327.5,189.5 Z"/></g>
<g><path style="opacity:0.985" fill="#e0302e" d="M 259.5,206.5 C 258.987,209.711 257.654,212.544 255.5,215C 256.413,216.414 256.413,217.914 255.5,219.5C 253.302,219.875 251.302,220.542 249.5,221.5C 245.43,221.432 241.763,222.432 238.5,224.5C 235.888,225.371 233.221,226.037 230.5,226.5C 232.948,222.441 235.281,218.275 237.5,214C 236.944,213.617 236.611,213.117 236.5,212.5C 244.061,210.091 251.727,208.091 259.5,206.5 Z"/></g>
<g><path style="opacity:0.945" fill="#e6443a" d="M 127.5,206.5 C 128.467,209.434 129.8,212.1 131.5,214.5C 129.992,217.166 128.826,219.833 128,222.5C 132.659,219.335 137.159,216.002 141.5,212.5C 142.45,215.115 144.117,217.115 146.5,218.5C 145.833,218.5 145.5,218.833 145.5,219.5C 140.167,222.833 134.833,226.167 129.5,229.5C 126.777,226.123 123.777,222.456 120.5,218.5C 122.848,214.465 125.182,210.465 127.5,206.5 Z"/></g>
<g><path style="opacity:0.981" fill="#e7493d" d="M 236.5,212.5 C 236.611,213.117 236.944,213.617 237.5,214C 235.281,218.275 232.948,222.441 230.5,226.5C 220.914,229.807 211.247,233.141 201.5,236.5C 198.284,236.345 195.617,237.345 193.5,239.5C 193.167,239.5 192.833,239.5 192.5,239.5C 188.818,239.711 185.818,241.044 183.5,243.5C 176.438,245.632 169.438,247.965 162.5,250.5C 157.285,249.428 152.285,247.762 147.5,245.5C 154.854,241.933 162.521,238.933 170.5,236.5C 175.149,236.133 179.649,236.133 184,236.5C 188.554,235.57 193.054,234.403 197.5,233C 204.641,229.857 210.641,225.357 215.5,219.5C 222.579,217.363 229.579,215.029 236.5,212.5 Z"/></g>
<g><path style="opacity:0.922" fill="#e8e9ea" d="M 249.5,221.5 C 253.236,245.717 254.236,270.05 252.5,294.5C 249.206,293.885 246.039,292.885 243,291.5C 242.617,292.056 242.117,292.389 241.5,292.5C 241.666,285.825 241.5,279.158 241,272.5C 225.058,284.224 208.225,294.557 190.5,303.5C 186.232,300.411 182.066,297.077 178,293.5C 177.23,294.598 176.397,294.598 175.5,293.5C 180.974,277.32 183.641,260.654 183.5,243.5C 185.818,241.044 188.818,239.711 192.5,239.5C 192.375,258.898 189.875,277.898 185,296.5C 204.504,288.67 222.67,278.67 239.5,266.5C 223.607,258.235 208.274,249.235 193.5,239.5C 195.617,237.345 198.284,236.345 201.5,236.5C 213.926,245.557 226.926,253.891 240.5,261.5C 241.044,249.136 240.377,236.803 238.5,224.5C 241.763,222.432 245.43,221.432 249.5,221.5 Z M 192.5,239.5 C 192.833,239.5 193.167,239.5 193.5,239.5C 208.274,249.235 223.607,258.235 239.5,266.5C 222.67,278.67 204.504,288.67 185,296.5C 189.875,277.898 192.375,258.898 192.5,239.5 Z"/></g>
<g><path style="opacity:0.992" fill="#221e1f" d="M 1176.5,237.5 C 1220.49,233.733 1244.99,253.733 1250,297.5C 1250.5,305.827 1250.67,314.16 1250.5,322.5C 1215.17,322.5 1179.83,322.5 1144.5,322.5C 1146.66,360.495 1166.66,377.328 1204.5,373C 1217.32,370.674 1228.82,365.507 1239,357.5C 1239.67,365.5 1239.67,373.5 1239,381.5C 1223.7,391.368 1206.87,396.035 1188.5,395.5C 1151.89,395.049 1129.39,377.049 1121,341.5C 1116.84,320.792 1118.17,300.459 1125,280.5C 1134.84,257.137 1152.01,242.804 1176.5,237.5 Z M 1182.5,258.5 C 1210.55,258.883 1224.55,273.216 1224.5,301.5C 1198.17,301.5 1171.83,301.5 1145.5,301.5C 1148.28,278.729 1160.62,264.396 1182.5,258.5 Z"/></g>
<g><path style="opacity:0.992" fill="#221e1f" d="M 1564.5,237.5 C 1602.7,233.236 1626.53,249.569 1636,286.5C 1637.96,298.419 1638.8,310.419 1638.5,322.5C 1603.17,322.5 1567.83,322.5 1532.5,322.5C 1534.61,360.436 1554.61,377.27 1592.5,373C 1605.32,370.674 1616.82,365.507 1627,357.5C 1627.67,365.5 1627.67,373.5 1627,381.5C 1611.52,391.456 1594.52,396.123 1576,395.5C 1537.84,395.007 1515.17,376.007 1508,338.5C 1504.51,317.583 1506.51,297.249 1514,277.5C 1524.3,255.682 1541.13,242.349 1564.5,237.5 Z M 1570.5,258.5 C 1598.55,258.886 1612.55,273.22 1612.5,301.5C 1585.83,301.833 1559.16,301.5 1532.5,300.5C 1536.62,278.394 1549.29,264.394 1570.5,258.5 Z"/></g>
<g><path style="opacity:0.991" fill="#221e1f" d="M 1331.5,238.5 C 1339.2,238.309 1346.87,238.642 1354.5,239.5C 1354.67,248.506 1354.5,257.506 1354,266.5C 1332.11,256.437 1316.11,262.437 1306,284.5C 1303.23,291.929 1301.56,299.596 1301,307.5C 1300.5,335.498 1300.33,363.498 1300.5,391.5C 1292.17,391.5 1283.83,391.5 1275.5,391.5C 1275.5,341.167 1275.5,290.833 1275.5,240.5C 1283.83,240.5 1292.17,240.5 1300.5,240.5C 1300.33,250.172 1300.5,259.839 1301,269.5C 1306.04,253.958 1316.21,243.624 1331.5,238.5 Z"/></g>
<g><path style="opacity:0.989" fill="#221e1f" d="M 1719.5,238.5 C 1725.84,238.334 1732.18,238.5 1738.5,239C 1739.77,239.309 1740.93,239.809 1742,240.5C 1742.67,249.167 1742.67,257.833 1742,266.5C 1721.64,256.62 1705.97,261.62 1695,281.5C 1691.78,288.499 1689.78,295.833 1689,303.5C 1688.5,332.831 1688.33,362.165 1688.5,391.5C 1680.17,391.5 1671.83,391.5 1663.5,391.5C 1663.5,341.167 1663.5,290.833 1663.5,240.5C 1671.83,240.5 1680.17,240.5 1688.5,240.5C 1688.33,249.839 1688.5,259.173 1689,268.5C 1694.48,253.522 1704.64,243.522 1719.5,238.5 Z"/></g>
<g><path style="opacity:0.991" fill="#221e1f" d="M 1360.5,240.5 C 1369.86,240.168 1379.19,240.502 1388.5,241.5C 1399.57,273.204 1410.73,304.871 1422,336.5C 1425.81,346.602 1428.81,356.936 1431,367.5C 1432.67,361.5 1434.33,355.5 1436,349.5C 1449.67,313.322 1462.84,276.989 1475.5,240.5C 1484.51,240.334 1493.51,240.5 1502.5,241C 1482.6,290.856 1462.6,340.69 1442.5,390.5C 1433.94,391.815 1425.44,391.815 1417,390.5C 1398.06,340.515 1379.23,290.515 1360.5,240.5 Z"/></g>
<g><path style="opacity:0.779" fill="#d8292e" d="M 120.5,218.5 C 123.777,222.456 126.777,226.123 129.5,229.5C 125.349,232.803 121.015,235.97 116.5,239C 111.267,245.332 105.934,251.498 100.5,257.5C 99.7206,255.323 98.3873,253.656 96.5,252.5C 105.666,241.999 113.666,230.665 120.5,218.5 Z"/></g>
<g><path style="opacity:0.99" fill="#221e1f" d="M 1781.5,245.5 C 1781.5,249.5 1781.5,253.5 1781.5,257.5C 1775.6,267.519 1767.27,270.019 1756.5,265C 1749.96,258.402 1748.79,250.902 1753,242.5C 1759.09,236.361 1766.26,234.861 1774.5,238C 1777.41,240.069 1779.74,242.569 1781.5,245.5 Z M 1763.5,244.5 C 1766.06,244.447 1768.06,245.447 1769.5,247.5C 1768.28,249.978 1766.28,250.978 1763.5,250.5C 1763.5,248.5 1763.5,246.5 1763.5,244.5 Z M 1759.5,241.5 C 1759.5,248.167 1759.5,254.833 1759.5,261.5C 1760.83,261.5 1762.17,261.5 1763.5,261.5C 1763.64,251.355 1765.64,251.188 1769.5,261C 1771.13,261.494 1772.8,261.66 1774.5,261.5C 1767.2,266.224 1760.7,265.224 1755,258.5C 1752.83,253.343 1753.17,248.343 1756,243.5C 1756.82,242.177 1757.98,241.511 1759.5,241.5 Z M 1774.5,261.5 C 1773.22,258.447 1771.56,255.614 1769.5,253C 1774.81,249.283 1774.81,245.617 1769.5,242C 1766.18,241.502 1762.85,241.335 1759.5,241.5C 1769.88,236.689 1776.55,240.023 1779.5,251.5C 1778.86,255.443 1777.2,258.777 1774.5,261.5 Z"/></g>
<g><path style="opacity:0.953" fill="#221e1f" d="M 1759.5,241.5 C 1762.85,241.335 1766.18,241.502 1769.5,242C 1774.81,245.617 1774.81,249.283 1769.5,253C 1771.56,255.614 1773.22,258.447 1774.5,261.5C 1772.8,261.66 1771.13,261.494 1769.5,261C 1765.64,251.188 1763.64,251.355 1763.5,261.5C 1762.17,261.5 1760.83,261.5 1759.5,261.5C 1759.5,254.833 1759.5,248.167 1759.5,241.5 Z M 1763.5,244.5 C 1763.5,246.5 1763.5,248.5 1763.5,250.5C 1766.28,250.978 1768.28,249.978 1769.5,247.5C 1768.06,245.447 1766.06,244.447 1763.5,244.5 Z"/></g>
<g><path style="opacity:0.935" fill="#cb2030" d="M 96.5,252.5 C 98.3873,253.656 99.7206,255.323 100.5,257.5C 99.4958,259.677 100.162,260.011 102.5,258.5C 106.233,263.191 110.566,267.191 115.5,270.5C 111.286,272.774 106.953,274.774 102.5,276.5C 98.7818,271.242 94.1152,266.242 88.5,261.5C 91.1667,258.5 93.8333,255.5 96.5,252.5 Z"/></g>
<g><path style="opacity:0.909" fill="#d82b2f" d="M 143.5,223.5 C 145.749,224.08 147.415,225.413 148.5,227.5C 138.598,238.904 127.598,249.071 115.5,258C 126.027,253.763 136.694,249.596 147.5,245.5C 152.285,247.762 157.285,249.428 162.5,250.5C 157.415,252.64 152.415,254.973 147.5,257.5C 144.284,257.345 141.617,258.345 139.5,260.5C 138.508,260.328 137.842,260.662 137.5,261.5C 132.826,262.339 128.493,264.006 124.5,266.5C 121.618,268.108 118.618,269.441 115.5,270.5C 110.566,267.191 106.233,263.191 102.5,258.5C 117.024,247.987 130.691,236.32 143.5,223.5 Z"/></g>
<g><path style="opacity:0.935" fill="#dadcdf" d="M 147.5,257.5 C 153.048,272.075 161.715,284.575 173.5,295C 174.816,295.528 175.483,295.028 175.5,293.5C 176.397,294.598 177.23,294.598 178,293.5C 182.066,297.077 186.232,300.411 190.5,303.5C 189.527,303.987 188.527,304.487 187.5,305C 202.767,314.966 219.1,322.799 236.5,328.5C 239.041,316.63 240.708,304.63 241.5,292.5C 242.117,292.389 242.617,292.056 243,291.5C 246.039,292.885 249.206,293.885 252.5,294.5C 251.035,321.639 246.035,347.972 237.5,373.5C 235.583,374.746 233.75,375.413 232,375.5C 229.266,374.638 229.099,373.805 231.5,373C 229.701,371.964 228.034,371.797 226.5,372.5C 229.81,361.261 232.81,349.928 235.5,338.5C 235.167,338.167 234.833,337.833 234.5,337.5C 226.27,342.736 217.603,347.069 208.5,350.5C 206.651,349.407 204.984,348.074 203.5,346.5C 214.497,342.503 225.164,337.67 235.5,332C 216.207,327.571 198.04,320.405 181,310.5C 176.349,322.462 171.183,334.128 165.5,345.5C 165.187,342.577 163.854,341.577 161.5,342.5C 160.201,341.306 158.868,340.306 157.5,339.5C 160.379,332.072 163.546,324.738 167,317.5C 167.749,316.365 167.583,315.365 166.5,314.5C 157.588,318.459 148.588,322.125 139.5,325.5C 137.039,322.725 135.039,319.725 133.5,316.5C 145.362,311.931 157.362,307.431 169.5,303C 159.117,294.295 150.617,284.128 144,272.5C 141.998,268.658 140.498,264.658 139.5,260.5C 141.617,258.345 144.284,257.345 147.5,257.5 Z"/></g>
<g><path style="opacity:0.985" fill="#bf1a31" d="M 88.5,261.5 C 94.1152,266.242 98.7818,271.242 102.5,276.5C 97.3065,278.928 92.3065,281.595 87.5,284.5C 83.9475,285.276 80.6142,286.609 77.5,288.5C 75.549,288.227 74.049,288.893 73,290.5C 72.1667,289.667 71.3333,288.833 70.5,288C 71.4506,287.282 71.6172,286.449 71,285.5C 68.8511,286.84 67.6845,286.173 67.5,283.5C 74.5,276.167 81.5,268.833 88.5,261.5 Z"/></g>
<g><path style="opacity:0.947" fill="#ae1333" d="M 67.5,283.5 C 67.6845,286.173 68.8511,286.84 71,285.5C 71.6172,286.449 71.4506,287.282 70.5,288C 71.3333,288.833 72.1667,289.667 73,290.5C 74.049,288.893 75.549,288.227 77.5,288.5C 76.3065,289.272 75.3065,290.272 74.5,291.5C 66.0094,295.578 57.6761,299.912 49.5,304.5C 47.9731,304.427 46.9731,305.094 46.5,306.5C 41.5,309.167 36.5,311.833 31.5,314.5C 43.4748,304.196 55.4748,293.863 67.5,283.5 Z"/></g>
<g><path style="opacity:0.063" fill="#b38d95" d="M 49.5,304.5 C 49.0269,305.906 48.0269,306.573 46.5,306.5C 46.9731,305.094 47.9731,304.427 49.5,304.5 Z"/></g>
<g><path style="opacity:0.963" fill="#bbc1c9" d="M 87.5,284.5 C 83.7845,298.713 85.2845,312.38 92,325.5C 93.9417,321.931 96.1084,318.598 98.5,315.5C 103.5,321.5 108.5,327.5 113.5,333.5C 108.856,334.599 104.522,336.266 100.5,338.5C 111.731,351.405 124.731,362.071 139.5,370.5C 141.925,367.411 143.925,364.078 145.5,360.5C 151.637,364.857 157.637,368.524 163.5,371.5C 159.71,373.558 155.71,375.391 151.5,377C 172.468,386.535 194.301,393.368 217,397.5C 217.945,397.095 218.612,396.428 219,395.5C 221.612,387.831 224.112,380.164 226.5,372.5C 228.034,371.797 229.701,371.964 231.5,373C 229.099,373.805 229.266,374.638 232,375.5C 233.75,375.413 235.583,374.746 237.5,373.5C 231.241,393.625 223.241,412.959 213.5,431.5C 211.111,431.021 209.444,429.688 208.5,427.5C 211.201,419.909 213.367,412.242 215,404.5C 202.262,410.912 189.095,416.245 175.5,420.5C 175.607,418.621 175.107,418.288 174,419.5C 172.188,418.023 170.355,416.69 168.5,415.5C 183.83,410.779 199.164,405.946 214.5,401C 190.92,398.551 168.086,393.051 146,384.5C 144.697,384.978 143.531,385.645 142.5,386.5C 141.577,387.303 140.577,387.47 139.5,387C 138.213,385.59 137.046,384.09 136,382.5C 135.282,383.451 134.449,383.617 133.5,383C 131.563,379.893 128.896,377.726 125.5,376.5C 125.611,375.883 125.944,375.383 126.5,375C 112.928,367.875 101.262,358.375 91.5,346.5C 90.2511,344.864 88.5844,343.697 86.5,343C 86.8333,342.667 87.1667,342.333 87.5,342C 85.5942,339.139 83.2608,336.806 80.5,335C 81.7736,334.023 81.7736,333.189 80.5,332.5C 73.3891,319.51 71.3891,305.843 74.5,291.5C 75.3065,290.272 76.3065,289.272 77.5,288.5C 80.6142,286.609 83.9475,285.276 87.5,284.5 Z"/></g>
<g><path style="opacity:0.925" fill="#caced3" d="M 137.5,261.5 C 129.116,282.935 119.116,303.602 107.5,323.5C 107.833,323.833 108.167,324.167 108.5,324.5C 116.723,321.425 125.056,318.759 133.5,316.5C 135.039,319.725 137.039,322.725 139.5,325.5C 130.894,328.369 122.227,331.035 113.5,333.5C 108.5,327.5 103.5,321.5 98.5,315.5C 107.931,299.642 116.597,283.309 124.5,266.5C 128.493,264.006 132.826,262.339 137.5,261.5 Z"/></g>
<g><path style="opacity:0.965" fill="#94a0ac" d="M 46.5,306.5 C 32.9746,316.89 22.8079,329.89 16,345.5C 15.1635,347.821 14.8301,350.155 15,352.5C 30.5294,347.91 46.0294,343.243 61.5,338.5C 61.9528,339.458 62.6195,340.292 63.5,341C 63.1667,341.333 62.8333,341.667 62.5,342C 64.4308,342.902 66.0975,344.069 67.5,345.5C 49.8731,349.657 32.2064,353.657 14.5,357.5C 17.7592,374.665 26.5926,388.332 41,398.5C 48.6642,387.343 56.4976,376.343 64.5,365.5C 66.1789,365.892 67.8455,366.392 69.5,367C 69.1667,367.333 68.8333,367.667 68.5,368C 69.4158,368.278 70.0825,368.778 70.5,369.5C 61.9993,380.172 53.6659,391.005 45.5,402C 45.8333,402.333 46.1667,402.667 46.5,403C 61.8556,398.494 77.1889,393.661 92.5,388.5C 93.8734,388.343 95.2068,388.51 96.5,389C 97.1069,391.509 98.1069,393.009 99.5,393.5C 83.9959,398.13 68.3292,402.63 52.5,407C 68.3639,416.623 85.1973,424.123 103,429.5C 107.844,421.805 112.677,414.139 117.5,406.5C 120.095,408.629 123.095,409.962 126.5,410.5C 121.57,417.436 116.237,424.103 110.5,430.5C 111.167,430.833 111.833,431.167 112.5,431.5C 118.801,429.62 125.135,427.954 131.5,426.5C 134.491,426.166 136.824,427.166 138.5,429.5C 133.308,431.048 127.975,432.548 122.5,434C 148.557,439.531 174.724,443.365 201,445.5C 203.428,439.359 205.928,433.359 208.5,427.5C 209.444,429.688 211.111,431.021 213.5,431.5C 210.771,437.959 207.771,444.292 204.5,450.5C 196.167,450.5 187.833,450.5 179.5,450.5C 149.226,447.719 119.226,442.552 89.5,435C 59.0713,427.876 32.9047,413.376 11,391.5C 0.86921,379.307 -1.79746,365.64 3,350.5C 9.37945,335.962 18.8795,323.962 31.5,314.5C 36.5,311.833 41.5,309.167 46.5,306.5 Z"/></g>
<g><path style="opacity:0.93" fill="#adb5be" d="M 80.5,332.5 C 81.7736,333.189 81.7736,334.023 80.5,335C 83.2608,336.806 85.5942,339.139 87.5,342C 87.1667,342.333 86.8333,342.667 86.5,343C 88.5844,343.697 90.2511,344.864 91.5,346.5C 89.9826,346.511 88.8159,347.177 88,348.5C 82.3022,355.69 76.4689,362.69 70.5,369.5C 70.0825,368.778 69.4158,368.278 68.5,368C 68.8333,367.667 69.1667,367.333 69.5,367C 67.8455,366.392 66.1789,365.892 64.5,365.5C 69.6142,357.879 74.9475,350.379 80.5,343C 76.1248,343.341 71.7914,344.174 67.5,345.5C 66.0975,344.069 64.4308,342.902 62.5,342C 62.8333,341.667 63.1667,341.333 63.5,341C 62.6195,340.292 61.9528,339.458 61.5,338.5C 68.0737,336.946 74.407,334.946 80.5,332.5 Z"/></g>
<g><path style="opacity:0.935" fill="#caced4" d="M 157.5,339.5 C 158.868,340.306 160.201,341.306 161.5,342.5C 163.854,341.577 165.187,342.577 165.5,345.5C 162.912,351.844 159.912,358.011 156.5,364C 172.343,358.883 188.009,353.049 203.5,346.5C 204.984,348.074 206.651,349.407 208.5,350.5C 193.93,358.283 178.93,365.283 163.5,371.5C 157.637,368.524 151.637,364.857 145.5,360.5C 149.262,353.302 153.262,346.302 157.5,339.5 Z"/></g>
<g><path style="opacity:0.94" fill="#adb5be" d="M 125.5,376.5 C 128.896,377.726 131.563,379.893 133.5,383C 134.449,383.617 135.282,383.451 136,382.5C 137.046,384.09 138.213,385.59 139.5,387C 140.577,387.47 141.577,387.303 142.5,386.5C 137.673,394.815 132.34,402.815 126.5,410.5C 123.095,409.962 120.095,408.629 117.5,406.5C 121.948,399.779 126.281,392.946 130.5,386C 120.154,388.165 109.82,390.665 99.5,393.5C 98.1069,393.009 97.1069,391.509 96.5,389C 95.2068,388.51 93.8734,388.343 92.5,388.5C 103.272,384.129 114.272,380.129 125.5,376.5 Z"/></g>
<g><path style="opacity:1" fill="#a3acb7" d="M 168.5,415.5 C 170.355,416.69 172.188,418.023 174,419.5C 175.107,418.288 175.607,418.621 175.5,420.5C 163.359,424.285 151.026,427.285 138.5,429.5C 136.824,427.166 134.491,426.166 131.5,426.5C 143.598,422.388 155.931,418.721 168.5,415.5 Z"/></g>
<g><path style="opacity:0.937" fill="#221e1f" d="M 261.5,450.5 C 260.167,450.5 258.833,450.5 257.5,450.5C 257.666,446.486 257.499,442.486 257,438.5C 255.257,442.572 253.424,446.572 251.5,450.5C 250.5,450.5 249.5,450.5 248.5,450.5C 246.957,445.743 245.124,441.076 243,436.5C 242.501,441.155 242.334,445.821 242.5,450.5C 241.5,450.5 240.5,450.5 239.5,450.5C 239.5,443.5 239.5,436.5 239.5,429.5C 241.144,429.286 242.644,429.62 244,430.5C 245.694,435.088 247.86,439.421 250.5,443.5C 252.651,439.198 254.818,434.864 257,430.5C 258.356,429.62 259.856,429.286 261.5,429.5C 261.5,436.5 261.5,443.5 261.5,450.5 Z"/></g>
<g><path style="opacity:1" fill="#221e1f" d="M 231.5,450.5 C 230.167,450.5 228.833,450.5 227.5,450.5C 227.5,444.5 227.5,438.5 227.5,432.5C 225.833,432.5 224.167,432.5 222.5,432.5C 222.5,431.5 222.5,430.5 222.5,429.5C 227.5,429.5 232.5,429.5 237.5,429.5C 237.5,430.5 237.5,431.5 237.5,432.5C 235.5,432.5 233.5,432.5 231.5,432.5C 231.5,438.5 231.5,444.5 231.5,450.5 Z"/></g>
</svg>
