<svg width="160" height="40" viewBox="0 0 160 40" fill="none" xmlns="http://www.w3.org/2000/svg">
<g clip-path="url(#clip0_1081_14)">
<g clip-path="url(#clip1_1081_14)">
<path d="M40.1543 10.5743V18.8099H32.5909V10.5743H29V30.2334H32.5909V22.2653H40.1543V30.2334H43.7452V10.5743H40.1543Z" fill="#FE4802"/>
<path d="M55.2373 23.8787C55.2373 24.6665 54.9243 25.4221 54.3672 25.9793C53.8101 26.5364 53.0545 26.8494 52.2666 26.8494C51.4788 26.8494 50.7232 26.5364 50.166 25.9793C49.6089 25.4221 49.296 24.6665 49.296 23.8787V15.4584H45.8898V23.8787C45.8898 25.5683 46.561 27.1887 47.7558 28.3834C48.9505 29.5781 50.5709 30.2493 52.2605 30.2493C53.9501 30.2493 55.5705 29.5781 56.7652 28.3834C57.9599 27.1887 58.6311 25.5683 58.6311 23.8787V15.4584H55.2373V23.8787Z" fill="#FE4802"/>
<path d="M80.4736 16.3257C80.4736 14.5998 81.6155 14.0526 82.8664 14.0526C83.8745 14.0526 85.2063 14.8197 86.0772 15.7504L88.3081 13.1219C87.1944 11.6159 84.9354 10.5743 83.0863 10.5743C79.3916 10.5743 76.7192 12.7384 76.7192 16.3257C76.7192 22.9814 84.8544 20.8701 84.8544 24.5947C84.8544 25.7435 83.739 26.7587 82.4617 26.7587C80.4472 26.7587 79.7945 25.7735 78.8691 24.7319L76.3937 27.3059C77.9771 29.2499 79.93 30.237 82.2699 30.237C85.7799 30.237 88.6036 28.0465 88.6036 24.6228C88.6036 17.2335 80.4684 19.5295 80.4684 16.3257" fill="#FE4802"/>
<path d="M130.802 27.0931C128.789 27.0931 128.217 26.2222 128.217 24.8886V18.9859H131.346V15.995H128.217V12.0488L124.764 13.5988V25.6222C124.764 28.6976 126.886 30.2476 129.796 30.2476C130.252 30.2559 130.708 30.2194 131.157 30.1385L132 27.0368C131.62 27.0631 131.184 27.0895 130.802 27.0895" fill="#FE4802"/>
<path d="M68.2021 15.5568C66.5149 15.5568 65.3379 16.0459 64.1995 17.1631V10.6922H60.7881V22.6858C60.7881 27.1756 64.0342 30.251 67.6813 30.251C71.7279 30.251 75.287 27.1211 75.287 22.9057C75.287 18.743 72.0111 15.5586 68.2021 15.5586M68.181 26.8185C67.4154 26.8185 66.6671 26.5915 66.0306 26.1662C65.3941 25.7409 64.898 25.1364 64.605 24.4291C64.3121 23.7219 64.2354 22.9436 64.3848 22.1928C64.5341 21.442 64.9027 20.7523 65.4441 20.211C65.9854 19.6697 66.675 19.301 67.4259 19.1517C68.1767 19.0023 68.9549 19.079 69.6622 19.3719C70.3694 19.6649 70.974 20.161 71.3993 20.7975C71.8246 21.434 72.0516 22.1824 72.0516 22.9479C72.0516 23.9745 71.6438 24.9589 70.9179 25.6848C70.192 26.4107 69.2075 26.8185 68.181 26.8185Z" fill="#FE4802"/>
<path d="M105.244 22.7262C105.244 18.5038 101.692 15.3809 97.638 15.3809C93.9908 15.3809 90.7448 18.4563 90.7448 22.9462V34.9468H94.1562V28.467C95.2928 29.5825 96.4715 30.0733 98.157 30.0733C101.966 30.0733 105.242 26.8907 105.242 22.7262M102.014 22.684C102.014 23.4496 101.787 24.1979 101.361 24.8344C100.936 25.4709 100.331 25.967 99.6241 26.26C98.9169 26.5529 98.1386 26.6296 97.3878 26.4802C96.637 26.3309 95.9473 25.9623 95.406 25.4209C94.8647 24.8796 94.496 24.19 94.3467 23.4391C94.1974 22.6883 94.274 21.9101 94.567 21.2028C94.8599 20.4956 95.356 19.8911 95.9925 19.4657C96.6291 19.0404 97.3774 18.8134 98.1429 18.8134C99.1695 18.8134 100.154 19.2212 100.88 19.9471C101.606 20.673 102.014 21.6575 102.014 22.684Z" fill="#FE4802"/>
<path d="M116.264 15.2155V11.7882C116.717 11.5766 117.101 11.2407 117.37 10.8196C117.64 10.3985 117.784 9.9095 117.786 9.40959V9.33042C117.786 8.6305 117.508 7.95925 117.013 7.46433C116.518 6.96942 115.847 6.69138 115.147 6.69138H115.068C114.368 6.69138 113.697 6.96942 113.202 7.46433C112.707 7.95925 112.429 8.6305 112.429 9.33042V9.40959C112.431 9.9095 112.575 10.3985 112.845 10.8196C113.114 11.2407 113.498 11.5766 113.951 11.7882V15.2155C112.649 15.4146 111.423 15.9542 110.397 16.7795L100.998 9.45885C101.065 9.21744 101.1 8.96854 101.104 8.71816C101.105 8.13002 100.931 7.55478 100.606 7.0652C100.28 6.57563 99.8159 6.19371 99.2729 5.96775C98.7298 5.74179 98.132 5.68195 97.555 5.7958C96.978 5.90964 96.4477 6.19206 96.0312 6.60732C95.6147 7.02258 95.3307 7.55204 95.2152 8.12872C95.0996 8.7054 95.1577 9.30339 95.382 9.84706C95.6064 10.3907 95.9869 10.8557 96.4756 11.183C96.9642 11.5104 97.5389 11.6855 98.127 11.6862C98.6413 11.6839 99.146 11.5468 99.5908 11.2886L108.847 18.4896C108.015 19.7458 107.581 21.2234 107.602 22.7297C107.622 24.2361 108.096 25.7014 108.961 26.9346L106.146 29.7496C105.919 29.6769 105.681 29.6383 105.442 29.6352C104.96 29.6355 104.488 29.779 104.086 30.0475C103.685 30.3159 103.372 30.6973 103.188 31.1435C103.003 31.5896 102.955 32.0805 103.049 32.554C103.144 33.0276 103.376 33.4625 103.717 33.8039C104.059 34.1453 104.494 34.3779 104.967 34.4722C105.441 34.5665 105.932 34.5182 106.378 34.3336C106.824 34.149 107.205 33.8363 107.474 33.435C107.742 33.0337 107.886 32.5618 107.886 32.0789C107.883 31.84 107.845 31.6028 107.772 31.3752L110.557 28.5901C111.465 29.289 112.521 29.7707 113.644 29.9984C114.767 30.2261 115.928 30.1938 117.036 29.9039C118.145 29.6139 119.172 29.0741 120.04 28.3258C120.908 27.5774 121.593 26.6404 122.043 25.5864C122.492 24.5324 122.695 23.3895 122.635 22.2452C122.575 21.1008 122.254 19.9854 121.696 18.9844C121.138 17.9834 120.359 17.1233 119.417 16.47C118.476 15.8168 117.397 15.3876 116.264 15.2155ZM115.11 26.4859C114.348 26.4852 113.604 26.2587 112.971 25.835C112.338 25.4113 111.844 24.8094 111.553 24.1054C111.262 23.4014 111.186 22.6269 111.335 21.8797C111.484 21.1326 111.851 20.4464 112.39 19.9078C112.929 19.3693 113.615 19.0025 114.362 18.8539C115.109 18.7054 115.884 18.7816 116.588 19.0731C117.292 19.3645 117.893 19.8581 118.317 20.4914C118.74 21.1247 118.966 21.8694 118.967 22.6312C118.967 23.6531 118.561 24.6331 117.838 25.3557C117.116 26.0782 116.136 26.4842 115.114 26.4842" fill="#FE4802"/>
</g>
</g>
<defs>
<clipPath id="clip0_1081_14">
<rect width="103" height="29.1966" fill="white" transform="translate(29 5.74146)"/>
</clipPath>
<clipPath id="clip1_1081_14">
<rect width="103" height="29.1966" fill="white" transform="translate(29 5.74146)"/>
</clipPath>
</defs>
</svg>
