<svg width="81" height="33" viewBox="0 0 81 33" fill="none" xmlns="http://www.w3.org/2000/svg">
<g clip-path="url(#clip0_8733_365)">
<path fill-rule="evenodd" clip-rule="evenodd" d="M5.28149 29.3723C4.28531 29.3723 3.77782 28.8817 3.77782 28.0753C3.77782 26.5717 5.45441 26.0661 8.51249 25.7409C8.51249 27.7445 7.15731 29.3723 5.27209 29.3723H5.28149ZM6.5972 18.1041C4.41124 18.1041 1.89823 19.1323 0.533655 20.2206L1.77982 22.852C2.87374 21.8502 4.64243 20.9931 6.2382 20.9931C7.75502 20.9931 8.59332 21.5006 8.59332 22.523C8.59332 23.2091 8.03884 23.5568 6.99003 23.694C3.06922 24.2015 -0.00390625 25.2842 -0.00390625 28.3047C-0.00390625 30.6992 1.70088 32.1484 4.36425 32.1484C6.26639 32.1484 7.95802 31.0921 8.76248 29.7049V31.7725H12.3074V23.1095C12.3074 19.5383 9.8282 18.0966 6.59908 18.0966L6.5972 18.1041Z" fill="#101820"/>
<path fill-rule="evenodd" clip-rule="evenodd" d="M42.1768 18.4932V31.7555H45.9698V25.3649C45.9698 22.3294 47.808 21.4366 49.088 21.4366C49.6642 21.4321 50.2288 21.5989 50.7101 21.9159L51.4036 18.4105C50.8662 18.1953 50.2908 18.0911 49.712 18.1041C47.7629 18.1041 46.5374 18.9668 45.7292 20.7224V18.4932H42.1768Z" fill="#101820"/>
<path fill-rule="evenodd" clip-rule="evenodd" d="M68.9809 18.1041C66.9754 18.1041 65.4755 19.2883 64.6955 20.4311C63.9719 18.9556 62.44 18.1041 60.598 18.1041C58.5944 18.1041 57.2053 19.2168 56.5644 20.4987V18.4932H52.9067V31.7556H56.7035V24.927C56.7035 22.4836 57.9873 21.3013 59.1846 21.3013C60.2691 21.3013 61.2653 22.0024 61.2653 23.8124V31.7556H65.0545V24.927C65.0545 22.4479 66.3063 21.3013 67.56 21.3013C68.5637 21.3013 69.6275 22.0306 69.6275 23.7861V31.7556H73.4168V22.5869C73.4168 19.6078 71.4113 18.1041 68.9885 18.1041" fill="#101820"/>
<path fill-rule="evenodd" clip-rule="evenodd" d="M32.9455 18.4932H29.5096V17.1456C29.5096 15.3901 30.5114 14.8901 31.3742 14.8901C31.9632 14.8978 32.5424 15.0426 33.0658 15.313L34.2349 12.6383C34.2349 12.6383 33.0489 11.864 30.893 11.864C28.4702 11.864 25.7128 13.2304 25.7128 17.5177V18.4932H19.9707V17.1456C19.9707 15.3901 20.9706 14.8901 21.8353 14.8901C22.4253 14.89 23.0063 15.0353 23.5269 15.313L24.696 12.6383C23.9987 12.2305 22.8765 11.864 21.356 11.864C18.9332 11.864 16.1758 13.2304 16.1758 17.5177V18.4932H13.9805V21.4179H16.1815V31.7556H19.9707V21.4179H25.7204V31.7556H29.5096V21.4179H32.9455V18.4932Z" fill="#101820"/>
<path d="M38.9935 18.4932H35.208V31.7499H38.9935V18.4932Z" fill="#101820"/>
<path fill-rule="evenodd" clip-rule="evenodd" d="M35.3477 16.2396H39.0561C41.2195 9.43736 48.5593 3.4584 57.2881 3.4584C67.904 3.4584 77.0782 11.5406 77.0782 24.1226C77.1105 26.7052 76.7557 29.2781 76.0256 31.7556H79.625L79.6608 31.6315C80.2673 29.1789 80.5665 26.6603 80.5517 24.1338C80.5517 10.1027 70.3267 0.00372314 57.2956 0.00372314C47.0594 0.00372314 37.9358 7.10855 35.3495 16.2433L35.3477 16.2396Z" fill="#4A4AF4"/>
</g>
<defs>
<clipPath id="clip0_8733_365">
<rect width="80.5496" height="32.1409" fill="white"/>
</clipPath>
</defs>
</svg>
