<svg width="160" height="40" viewBox="0 0 160 40" fill="none" xmlns="http://www.w3.org/2000/svg">
<g clip-path="url(#clip0_1011_284)">
<path d="M9.91833 7.46125C9.91833 7.29273 10.0387 7.17236 10.2072 7.17236H12.3738C12.5424 7.17236 12.6627 7.29273 12.6627 7.46125V31.7033C12.6627 31.8718 12.5424 31.9922 12.3738 31.9922H10.2072C10.0387 31.9922 9.91833 31.8718 9.91833 31.7033V7.46125Z" fill="#1E1E1E"/>
<path d="M15.4312 7.46125C15.4312 7.29273 15.5516 7.17236 15.7201 7.17236H17.8867C18.0552 7.17236 18.1756 7.29273 18.1756 7.46125V31.7033C18.1756 31.8718 18.0552 31.9922 17.8867 31.9922H15.7201C15.5516 31.9922 15.4312 31.8718 15.4312 31.7033V7.46125Z" fill="#1E1E1E"/>
<path d="M20.9441 7.46125C20.9441 7.29273 21.0645 7.17236 21.233 7.17236H23.3996C23.5681 7.17236 23.6885 7.29273 23.6885 7.46125V31.7033C23.6885 31.8718 23.5681 31.9922 23.3996 31.9922H21.233C21.0645 31.9922 20.9441 31.8718 20.9441 31.7033V7.46125Z" fill="#1E1E1E"/>
<path d="M26.4568 7.46125C26.4568 7.29273 26.5772 7.17236 26.7457 7.17236H28.9123C29.0809 7.17236 29.2012 7.29273 29.2012 7.46125V31.7033C29.2012 31.8718 29.0809 31.9922 28.9123 31.9922H26.7457C26.5772 31.9922 26.4568 31.8718 26.4568 31.7033V7.46125Z" fill="#1E1E1E"/>
<path d="M31.9698 17.1147C31.9698 16.9462 32.0902 16.8258 32.2587 16.8258H34.4253C34.5938 16.8258 34.7142 16.9462 34.7142 17.1147V22.0498C34.7142 22.2183 34.5938 22.3386 34.4253 22.3386H32.2587C32.0902 22.3386 31.9698 22.2183 31.9698 22.0498V17.1147Z" fill="#1E1E1E"/>
<path d="M49.1582 13.9369C48.3878 13.9369 47.6897 14.0814 47.0638 14.3462C46.4379 14.611 45.9083 14.9962 45.4749 15.5258C45.0416 16.0554 44.7287 16.7054 44.4879 17.4517C44.2713 18.1979 44.1509 19.0405 44.1509 19.9794C44.1509 20.9183 44.3435 22.2904 44.7046 23.2052C45.0657 24.096 45.6194 24.7941 46.3657 25.2756C47.1119 25.757 48.0267 25.9978 49.1341 25.9978C50.2415 25.9978 50.4582 25.9496 51.0841 25.8293C51.71 25.7089 52.36 25.5163 53.01 25.3237V27.37C52.384 27.6107 51.7581 27.7792 51.1082 27.8755C50.4582 27.9959 49.7119 28.044 48.8693 28.044C47.2564 28.044 45.9323 27.707 44.849 27.057C43.7898 26.407 42.9954 25.4441 42.4657 24.2404C41.9361 23.0127 41.6713 21.5923 41.6713 19.9553C41.6713 18.3183 41.8398 17.6683 42.1528 16.6813C42.4898 15.6702 42.9713 14.8276 43.5972 14.1054C44.2231 13.3832 45.0175 12.8295 45.9323 12.4444C46.8712 12.0592 47.9545 11.8425 49.1823 11.8425C50.41 11.8425 50.747 11.9388 51.5174 12.1073C52.2878 12.2759 52.9618 12.4925 53.5877 12.8055L52.697 14.7795C52.1915 14.5388 51.6137 14.3462 51.0119 14.1536C50.4582 14.0332 49.8323 13.9369 49.1582 13.9369Z" fill="#1E1E1E"/>
<path d="M58.4747 27.8514H56.1396V11.0963H58.4747V27.8514Z" fill="#1E1E1E"/>
<path d="M63.6024 15.9592V27.8515H61.2672V15.9592H63.6024ZM62.4709 11.4575C62.832 11.4575 63.1209 11.5538 63.3857 11.7704C63.6505 11.9871 63.7709 12.3241 63.7709 12.8056C63.7709 13.287 63.6505 13.6241 63.3857 13.8407C63.1209 14.0574 62.808 14.1537 62.4709 14.1537C62.1339 14.1537 61.7728 14.0574 61.508 13.8407C61.2672 13.6241 61.1228 13.263 61.1228 12.8056C61.1228 12.3482 61.2432 11.963 61.508 11.7704C61.7487 11.5538 62.0857 11.4575 62.4709 11.4575Z" fill="#1E1E1E"/>
<path d="M71.6188 28.0682C70.5355 28.0682 69.5726 27.8515 68.7541 27.4182C67.9356 26.9849 67.2856 26.3349 66.8282 25.4442C66.3708 24.5294 66.1541 23.3738 66.1541 21.9776C66.1541 20.5813 66.3948 19.3054 66.8763 18.4147C67.3819 17.4999 68.0559 16.8258 68.8744 16.4166C69.717 15.9833 70.704 15.7666 71.7873 15.7666C72.8706 15.7666 73.0632 15.8388 73.641 15.9833C74.2188 16.1036 74.7243 16.2721 75.0854 16.4407L74.3873 18.3425C73.978 18.174 73.5447 18.0295 73.0632 17.9332C72.6058 17.8129 72.1725 17.7647 71.7633 17.7647C71.017 17.7647 70.4151 17.9332 69.9337 18.2462C69.4522 18.5591 69.1152 19.0165 68.8744 19.6665C68.6578 20.2924 68.5374 21.0628 68.5374 22.0016C68.5374 22.9405 68.6578 23.6627 68.8985 24.2646C69.1392 24.8905 69.4763 25.3479 69.9337 25.6849C70.4151 25.9979 70.9929 26.1423 71.667 26.1423C72.341 26.1423 72.9188 26.0701 73.4003 25.9256C73.9058 25.7812 74.3632 25.5886 74.8206 25.3479V27.37C74.3873 27.6108 73.9299 27.8034 73.4243 27.9237C72.9669 28.02 72.341 28.0682 71.6188 28.0682Z" fill="#1E1E1E"/>
<path d="M79.4908 21.159C79.6593 20.9905 84.5703 15.9591 84.5703 15.9591H87.2907L82.5 21.0627L87.6036 27.8514H84.8351L80.9112 22.5312L79.539 23.6867V27.8514H77.2279V11.0963H79.539L79.4908 21.159Z" fill="#1E1E1E"/>
<path d="M102.096 27.8515H99.7126V20.6535H92.2017V27.8515H89.8184V12.1074H92.2017V18.6314H99.7126V12.1074H102.096V27.8515Z" fill="#1E1E1E"/>
<path d="M115.409 21.9054C115.409 22.8924 115.264 23.759 115.023 24.5294C114.759 25.2997 114.373 25.9497 113.892 26.4793C113.411 27.0089 112.809 27.4182 112.135 27.683C111.436 27.9478 110.666 28.0682 109.799 28.0682C108.933 28.0682 108.259 27.9478 107.585 27.683C106.911 27.3941 106.309 27.0089 105.827 26.4793C105.346 25.9497 104.961 25.2997 104.672 24.5294C104.383 23.759 104.263 22.8924 104.263 21.8813C104.263 20.8702 104.479 19.4739 104.913 18.5591C105.37 17.6443 106.02 16.9462 106.863 16.4888C107.705 16.0073 108.716 15.7666 109.872 15.7666C111.027 15.7666 111.918 16.0073 112.736 16.4888C113.579 16.9703 114.229 17.6443 114.71 18.5591C115.168 19.4499 115.409 20.5813 115.409 21.9054ZM106.646 21.9054C106.646 22.7961 106.766 23.5424 106.983 24.1923C107.2 24.8183 107.561 25.2997 108.018 25.6368C108.5 25.9738 109.101 26.1423 109.824 26.1423C110.546 26.1423 111.172 25.9738 111.629 25.6368C112.111 25.2997 112.448 24.8183 112.664 24.1923C112.881 23.5424 113.001 22.772 113.001 21.9054C113.001 21.0387 112.881 20.2202 112.64 19.6184C112.424 18.9925 112.062 18.5351 111.605 18.198C111.148 17.861 110.546 17.6925 109.799 17.6925C108.692 17.6925 107.898 18.0536 107.392 18.7999C106.887 19.5221 106.646 20.5572 106.646 21.9054Z" fill="#1E1E1E"/>
<path d="M127.855 15.9592V27.8515H125.977L125.664 26.2867H125.544C125.303 26.696 124.966 27.033 124.581 27.2978C124.195 27.5626 123.738 27.7552 123.281 27.8756C122.799 27.9959 122.318 28.0682 121.836 28.0682C120.921 28.0682 120.127 27.9237 119.477 27.6348C118.851 27.3219 118.37 26.8645 118.033 26.2145C117.72 25.5645 117.551 24.746 117.551 23.7349V15.9592H119.91V23.3979C119.91 24.3127 120.103 25.0108 120.488 25.4682C120.873 25.9256 121.499 26.1423 122.318 26.1423C123.136 26.1423 123.786 25.9738 124.268 25.6608C124.749 25.3478 125.062 24.8664 125.255 24.2405C125.471 23.6146 125.568 22.8442 125.568 21.9776V15.9592H127.855Z" fill="#1E1E1E"/>
<path d="M138.543 24.5053C138.543 25.2756 138.351 25.9497 137.966 26.4793C137.58 27.0089 137.027 27.4182 136.304 27.683C135.582 27.9478 134.716 28.0681 133.705 28.0681C132.693 28.0681 132.14 27.9959 131.538 27.8756C130.96 27.7552 130.406 27.5867 129.901 27.3459V25.2997C130.43 25.5404 131.032 25.7812 131.73 25.9737C132.429 26.1663 133.103 26.2626 133.753 26.2626C134.403 26.2626 135.269 26.1182 135.654 25.8534C136.04 25.5645 136.256 25.2034 136.256 24.7219C136.256 24.2405 136.184 24.2164 136.04 24.0238C135.895 23.8071 135.606 23.5905 135.197 23.3738C134.788 23.1331 134.21 22.8683 133.44 22.5794C132.693 22.2664 132.043 21.9775 131.514 21.6646C130.984 21.3516 130.575 20.9905 130.31 20.5813C130.021 20.148 129.901 19.6183 129.901 18.9443C129.901 17.9091 130.31 17.1388 131.129 16.5851C131.971 16.0314 133.079 15.7425 134.427 15.7425C135.775 15.7425 135.823 15.8147 136.449 15.9592C137.099 16.0795 137.725 16.2962 138.327 16.5851L137.556 18.3665C137.219 18.198 136.858 18.0776 136.497 17.9813C136.136 17.861 135.775 17.7647 135.414 17.6925C135.053 17.6202 134.692 17.5721 134.306 17.5721C133.608 17.5721 133.055 17.6924 132.693 17.9091C132.332 18.1258 132.14 18.4387 132.14 18.8239C132.14 19.2091 132.212 19.3535 132.38 19.5461C132.549 19.7628 132.862 19.9554 133.295 20.172C133.729 20.3887 134.306 20.6294 135.029 20.9183C135.775 21.2072 136.401 21.4961 136.906 21.785C137.436 22.0738 137.821 22.4349 138.086 22.8683C138.399 23.3016 138.543 23.8553 138.543 24.5053Z" fill="#1E1E1E"/>
<path d="M145.693 15.7425C146.728 15.7425 147.643 15.9592 148.389 16.3925C149.136 16.8258 149.713 17.4276 150.099 18.2461C150.508 19.0646 150.725 20.0035 150.725 21.1109V22.3868H142.732C142.732 23.6145 143.069 24.5293 143.671 25.1793C144.297 25.8293 145.139 26.1423 146.247 26.1423C147.354 26.1423 147.691 26.07 148.269 25.9497C148.871 25.8052 149.497 25.5886 150.123 25.2997V27.2496C149.545 27.5145 148.943 27.707 148.317 27.8515C147.715 27.9719 146.993 28.0441 146.151 28.0441C145.308 28.0441 143.984 27.8274 143.117 27.37C142.227 26.9126 141.553 26.2386 141.047 25.3478C140.566 24.433 140.325 23.3257 140.325 22.0016C140.325 20.6776 140.541 19.522 140.975 18.6072C141.432 17.6924 142.058 16.9702 142.852 16.4888C143.671 16.0073 144.634 15.7425 145.693 15.7425ZM145.693 17.548C144.851 17.548 144.177 17.8128 143.671 18.3665C143.165 18.9202 142.877 19.6906 142.78 20.6776H148.389C148.389 20.0517 148.293 19.522 148.101 19.0406C147.908 18.5591 147.619 18.198 147.21 17.9332C146.825 17.6925 146.319 17.548 145.693 17.548Z" fill="#1E1E1E"/>
</g>
<defs>
<clipPath id="clip0_1011_284">
<rect width="141.667" height="25" fill="white" transform="translate(9.66669 7)"/>
</clipPath>
</defs>
</svg>
