<svg width="160" height="40" viewBox="0 0 160 40" fill="none" xmlns="http://www.w3.org/2000/svg">
<mask id="mask0_344_226" style="mask-type:luminance" maskUnits="userSpaceOnUse" x="50" y="0" width="60" height="40">
<path d="M50.5659 0H109.434V40H50.5659V0Z" fill="white"/>
</mask>
<g mask="url(#mask0_344_226)">
<path d="M64.7109 36.4024H62.4409C62.3609 32.5704 62.1399 28.9674 61.7779 25.5924H61.7579L58.3009 36.4024H56.5729L53.1369 25.5924H53.1169C52.8619 28.8324 52.7019 32.4364 52.6349 36.4024H50.5649C50.6989 31.5794 51.0349 27.0584 51.5699 22.8384H54.3839L57.6589 32.8044H57.6789L60.9739 22.8384H63.6659C64.2559 27.7814 64.6039 32.3034 64.7109 36.4024ZM74.5569 26.3944C73.6329 31.4104 72.4129 35.0544 70.8999 37.3304C69.7199 39.0814 68.4279 39.9584 67.0209 39.9584C66.6459 39.9584 66.1829 39.8454 65.6349 39.6204V38.4104C65.9029 38.4504 66.2179 38.4714 66.5789 38.4714C67.2359 38.4714 67.7649 38.2914 68.1669 37.9284C68.6489 37.4874 68.8899 36.9904 68.8899 36.4424C68.8899 36.0654 68.7019 35.2964 68.3269 34.1314L65.8369 26.3944H68.0669L69.8549 32.1804C70.2559 33.4944 70.4239 34.4114 70.3569 34.9344C71.3349 32.3224 72.0169 29.4744 72.4069 26.3944H74.5569Z" fill="#5D87A1"/>
<path d="M104.777 36.4022H98.3269V22.8382H100.497V34.7322H104.777V36.4022ZM96.6389 36.7302L94.1459 35.4992C94.3669 35.3172 94.5789 35.1212 94.7689 34.8932C95.8289 33.6482 96.3569 31.8072 96.3569 29.3682C96.3569 24.8812 94.5969 22.6362 91.0729 22.6362C89.3459 22.6362 87.9979 23.2062 87.0339 24.3452C85.9749 25.5912 85.4469 27.4252 85.4469 29.8512C85.4469 32.2352 85.9149 33.9842 86.8529 35.0942C87.7099 36.0992 89.0029 36.6022 90.7319 36.6022C91.3769 36.6022 91.9689 36.5232 92.5079 36.3642L95.7539 38.2542L96.6389 36.7302ZM88.5619 33.6882C88.0119 32.8042 87.7379 31.3852 87.7379 29.4292C87.7379 26.0142 88.7749 24.3042 90.8529 24.3042C91.9379 24.3042 92.7339 24.7142 93.2429 25.5292C93.7919 26.4142 94.0669 27.8202 94.0669 29.7492C94.0669 33.1922 93.0289 34.9142 90.9529 34.9142C89.8669 34.9142 89.0709 34.5072 88.5619 33.6882ZM84.5019 32.6422C84.5019 33.7922 84.0789 34.7362 83.2359 35.4752C82.3919 36.2112 81.2599 36.5802 79.8419 36.5802C78.5149 36.5802 77.2289 36.1572 75.9839 35.3132L76.5669 34.1492C77.6379 34.6852 78.6079 34.9522 79.4789 34.9522C80.2959 34.9522 80.9349 34.7712 81.3989 34.4122C81.8609 34.0512 82.1369 33.5452 82.1369 32.9062C82.1369 32.1002 81.5749 31.4112 80.5439 30.8342C79.5939 30.3122 77.6919 29.2202 77.6919 29.2202C76.6619 28.4702 76.1459 27.6632 76.1459 26.3352C76.1459 25.2352 76.5309 24.3482 77.2999 23.6732C78.0709 22.9952 79.0659 22.6572 80.2849 22.6572C81.5439 22.6572 82.6889 22.9942 83.7189 23.6622L83.1969 24.8272C82.3149 24.4532 81.4439 24.2652 80.5859 24.2652C79.8909 24.2652 79.3529 24.4332 78.9799 24.7682C78.6039 25.1022 78.3719 25.5302 78.3719 26.0552C78.3719 26.8572 78.9459 27.5552 80.0039 28.1432C80.9679 28.6662 82.9169 29.7762 82.9169 29.7762C83.9729 30.5262 84.5019 31.3252 84.5019 32.6422Z" fill="#F8981D"/>
<path d="M107.5 18.2952C106.188 18.2612 105.173 18.3932 104.32 18.7542C104.074 18.8522 103.683 18.8522 103.649 19.1642C103.782 19.2942 103.797 19.5072 103.912 19.6892C104.109 20.0162 104.452 20.4572 104.764 20.6872C105.108 20.9502 105.453 21.2112 105.814 21.4402C106.452 21.8352 107.174 22.0642 107.795 22.4572C108.157 22.6862 108.517 22.9822 108.879 23.2272C109.058 23.3592 109.172 23.5722 109.403 23.6542V23.6042C109.287 23.4562 109.254 23.2442 109.14 23.0792L108.648 22.6042C108.168 21.9689 107.593 21.411 106.944 20.9502C106.42 20.5892 105.272 20.0972 105.059 19.4932L105.026 19.4592C105.387 19.4252 105.814 19.2952 106.157 19.1942C106.714 19.0472 107.223 19.0812 107.795 18.9342C108.058 18.8682 108.319 18.7852 108.583 18.7042V18.5562C108.287 18.2612 108.075 17.8692 107.763 17.5902C106.915 16.8494 106.011 16.1754 105.059 15.5742C104.55 15.2462 103.896 15.0342 103.354 14.7542C103.159 14.6562 102.83 14.6072 102.715 14.4442C102.421 14.0832 102.256 13.6082 102.042 13.1812C101.568 12.2812 101.108 11.2812 100.699 10.3292C100.404 9.69021 100.224 9.05221 99.8627 8.46121C98.1737 5.67521 96.3397 3.98821 93.5207 2.33221C92.9147 1.98721 92.1937 1.84021 91.4237 1.66021L90.1937 1.59521C89.9327 1.48021 89.6697 1.16821 89.4407 1.02021C88.5047 0.430209 86.0967 -0.846791 85.4087 0.840209C84.9657 1.90721 86.0647 2.95521 86.4417 3.49621C86.7207 3.87221 87.0817 4.29921 87.2767 4.72621C87.3917 5.00421 87.4237 5.29921 87.5397 5.59421C87.8017 6.31521 88.0467 7.11721 88.3917 7.79021C88.5717 8.13321 88.7677 8.49421 88.9977 8.80521C89.1297 8.98621 89.3577 9.06721 89.4077 9.36321C89.1797 9.68921 89.1617 10.1822 89.0307 10.5922C88.4407 12.4432 88.6707 14.7372 89.5067 16.0982C89.7687 16.5082 90.3927 17.4102 91.2267 17.0642C91.9657 16.7692 91.8017 15.8352 92.0137 15.0162C92.0637 14.8182 92.0307 14.6882 92.1287 14.5592V14.5912C92.3577 15.0492 92.5887 15.4912 92.8007 15.9512C93.3087 16.7532 94.1937 17.5892 94.9307 18.1452C95.3247 18.4422 95.6357 18.9492 96.1267 19.1302V19.0802H96.0947C95.9947 18.9342 95.8497 18.8682 95.7187 18.7542C95.4084 18.4503 95.1235 18.1215 94.8667 17.7712C94.1797 16.8532 93.5707 15.8362 93.0317 14.7872C92.7677 14.2782 92.5397 13.7222 92.3267 13.2142C92.2277 13.0182 92.2277 12.7222 92.0637 12.6242C91.8167 12.9842 91.4577 13.2962 91.2777 13.7372C90.9657 14.4432 90.9337 15.3112 90.8177 16.2142L90.7527 16.2462C90.2307 16.1142 90.0497 15.5742 89.8507 15.1162C89.3607 13.9512 89.2777 12.0832 89.7037 10.7392C89.8177 10.3962 90.3117 9.31421 90.1137 8.98721C90.0157 8.67321 89.6877 8.49521 89.5077 8.24721C89.2799 7.91636 89.0824 7.5656 88.9177 7.19921C88.5237 6.28221 88.3257 5.26521 87.9027 4.34921C87.7047 3.92121 87.3617 3.47921 87.0827 3.08521C86.7707 2.64321 86.4277 2.33221 86.1807 1.80721C86.0987 1.62721 85.9847 1.33221 86.1157 1.13721C86.1477 1.00521 86.2147 0.955209 86.3457 0.923209C86.5577 0.743209 87.1637 0.971209 87.3767 1.07021C87.9847 1.31621 88.4927 1.54521 88.9997 1.88921C89.2297 2.05421 89.4747 2.36521 89.7697 2.44721H90.1147C90.6377 2.56121 91.2277 2.47921 91.7207 2.62721C92.5887 2.90621 93.3747 3.31521 94.0807 3.75721C96.2507 5.14062 98.0148 7.07513 99.1927 9.36321C99.3887 9.73921 99.4717 10.0832 99.6507 10.4772C99.9957 11.2802 100.423 12.1002 100.766 12.8872C101.11 13.6572 101.438 14.4422 101.93 15.0822C102.175 15.4262 103.161 15.6062 103.602 15.7862C103.929 15.9342 104.438 16.0642 104.733 16.2442C105.29 16.5882 105.846 16.9822 106.37 17.3602C106.631 17.5572 107.451 17.9672 107.5 18.2952ZM90.7827 4.05321C90.5567 4.05077 90.3314 4.07834 90.1127 4.13521V4.16821H90.1427C90.2757 4.43021 90.5047 4.61221 90.6687 4.84021C90.8007 5.10321 90.9157 5.36421 91.0447 5.62621L91.0767 5.59321C91.3067 5.43021 91.4227 5.16721 91.4227 4.77321C91.3227 4.65821 91.3077 4.54521 91.2247 4.43021C91.1277 4.26621 90.9147 4.18421 90.7827 4.05321Z" fill="#5D87A1"/>
<path d="M109.061 36.4003H109.401V34.7383H108.891L108.476 35.8723L108.024 34.7383H107.534V36.4003H107.855V35.1353H107.873L108.346 36.4003H108.59L109.061 35.1353V36.4003ZM106.326 36.4003H106.685V35.0203H107.155V34.7373H105.836V35.0193H106.325L106.326 36.3993V36.4003Z" fill="#F8981D"/>
</g>
</svg>
