<svg width="160" height="40" viewBox="0 0 160 40" fill="none" xmlns="http://www.w3.org/2000/svg">
<g clip-path="url(#clip0_1011_357)">
<path d="M27.2912 7.21629C26.0767 5.77683 25.0308 4.31489 24.8284 4.01125C24.8059 3.98876 24.7722 3.98876 24.7497 4.01125C24.536 4.31489 23.4901 5.77683 22.2756 7.21629C11.8621 20.4975 23.9175 29.4604 23.9175 29.4604L24.0187 29.5278C24.1087 30.9111 24.3336 32.9016 24.3336 32.9016H24.7834H25.2332C25.2332 32.9016 25.4582 30.9223 25.5481 29.5278L25.6493 29.4491C25.6493 29.4604 37.7048 20.4975 27.2912 7.21629ZM24.7834 29.2579C24.7834 29.2579 24.2436 28.7969 24.0974 28.5607V28.5382L24.7497 14.0762C24.7497 14.0312 24.8171 14.0312 24.8171 14.0762L25.4582 28.5382V28.5607C25.312 28.7969 24.7834 29.2579 24.7834 29.2579Z" fill="#001E2B"/>
<path d="M47.3311 26.3115L42.3043 14.0424L42.293 14.0087H38.3908V14.8296H39.0205C39.2117 14.8296 39.3916 14.9083 39.5266 15.0433C39.6615 15.1782 39.729 15.3582 39.729 15.5493L39.6166 27.8972C39.6166 28.2795 39.3017 28.5944 38.9193 28.6056L38.2783 28.6281V29.4378H42.0794V28.6281L41.6858 28.6169C41.3034 28.6056 40.9885 28.2908 40.9885 27.9084V16.2691L46.4652 29.4378C46.5439 29.629 46.7239 29.7527 46.9263 29.7527C47.1287 29.7527 47.3086 29.629 47.3874 29.4378L52.7403 16.5614L52.8191 27.8972C52.8191 28.2908 52.5042 28.6056 52.1106 28.6169H51.7057V29.4266H56.159V28.6281H55.5518C55.1694 28.6281 54.8545 28.302 54.8433 27.9196L54.8096 15.5718C54.8096 15.1782 55.1244 14.8633 55.5068 14.8521L56.159 14.8409V14.0087H52.358L47.3311 26.3115Z" fill="#001E2B"/>
<path d="M82.3504 28.4033C82.2267 28.2796 82.1592 28.1109 82.1592 27.9085V21.847C82.1592 20.6887 81.8219 19.7891 81.1471 19.1481C80.4836 18.507 79.5502 18.1697 78.4031 18.1697C76.7838 18.1697 75.513 18.8219 74.6246 20.1152C74.6133 20.1377 74.5796 20.1489 74.5459 20.1489C74.5121 20.1489 74.4896 20.1264 74.4896 20.0927L74.0735 18.4733H73.3651L71.5657 19.5079V20.0702H72.0268C72.2405 20.0702 72.4204 20.1264 72.5441 20.2389C72.6678 20.3514 72.7353 20.52 72.7353 20.7562V27.8972C72.7353 28.0997 72.6678 28.2684 72.5441 28.3921C72.4204 28.5158 72.2517 28.5832 72.0493 28.5832H71.5995V29.4042H75.7267V28.5832H75.2768C75.0744 28.5832 74.9057 28.5158 74.782 28.3921C74.6583 28.2684 74.5908 28.0997 74.5908 27.8972V23.1628C74.5908 22.5668 74.7258 21.9595 74.9732 21.3747C75.2318 20.8012 75.6142 20.3064 76.1203 19.9353C76.6263 19.5641 77.2336 19.3842 77.9421 19.3842C78.7293 19.3842 79.3253 19.6316 79.7077 20.1264C80.0788 20.6212 80.2699 21.2735 80.2699 22.0382V27.8748C80.2699 28.0772 80.2025 28.2459 80.0788 28.3696C79.9551 28.4933 79.7864 28.5607 79.5839 28.5607H79.1341V29.3817H83.2613V28.5607H82.8115C82.6428 28.6057 82.4854 28.5383 82.3504 28.4033Z" fill="#001E2B"/>
<path d="M120.091 14.9308C118.955 14.3235 117.673 14.0087 116.301 14.0087H110.926V14.8296H111.454C111.657 14.8296 111.837 14.9083 112.017 15.0883C112.185 15.2569 112.275 15.4481 112.275 15.6505V27.7735C112.275 27.9759 112.185 28.1671 112.017 28.3357C111.848 28.5044 111.657 28.5944 111.454 28.5944H110.926V29.4153H116.301C117.673 29.4153 118.955 29.1005 120.102 28.4932C121.249 27.8859 122.172 26.9863 122.846 25.8392C123.521 24.6921 123.87 23.3089 123.87 21.7232C123.87 20.1488 123.521 18.7769 122.846 17.6073C122.16 16.4377 121.238 15.5493 120.091 14.9308ZM121.699 21.7008C121.699 23.1402 121.441 24.3547 120.934 25.3331C120.428 26.3115 119.754 27.0425 118.933 27.5148C118.101 27.9871 117.19 28.2233 116.2 28.2233H115.109C114.907 28.2233 114.727 28.1446 114.547 27.9646C114.378 27.7959 114.288 27.6048 114.288 27.4023V15.9767C114.288 15.7742 114.367 15.5943 114.547 15.4144C114.716 15.2457 114.907 15.1557 115.109 15.1557H116.2C117.19 15.1557 118.101 15.3919 118.933 15.8642C119.765 16.3365 120.428 17.0675 120.934 18.0459C121.441 19.0468 121.699 20.2725 121.699 21.7008Z" fill="#001E2B"/>
<path d="M136.566 22.5217C136.071 21.9482 135.115 21.4646 133.98 21.206C135.531 20.43 136.341 19.3392 136.341 17.9335C136.341 17.1688 136.139 16.4828 135.734 15.898C135.329 15.3132 134.755 14.8409 134.025 14.5148C133.294 14.1886 132.428 14.02 131.46 14.02H125.377V14.8409H125.86C126.063 14.8409 126.242 14.9196 126.422 15.0995C126.591 15.2682 126.681 15.4594 126.681 15.6618V27.7847C126.681 27.9872 126.591 28.1783 126.422 28.347C126.254 28.5157 126.063 28.6057 125.86 28.6057H125.32V29.4266H131.922C132.922 29.4266 133.867 29.2579 134.711 28.9206C135.554 28.5832 136.24 28.0884 136.723 27.4361C137.218 26.7839 137.466 25.9854 137.466 25.0633C137.454 24.0512 137.162 23.2077 136.566 22.5217ZM128.986 27.9872C128.818 27.8185 128.728 27.6273 128.728 27.4249V21.9819H131.865C132.967 21.9819 133.822 22.2631 134.407 22.8254C134.992 23.3877 135.284 24.1186 135.284 25.0183C135.284 25.5581 135.149 26.0866 134.902 26.5702C134.643 27.065 134.261 27.4586 133.743 27.7623C133.237 28.0659 132.608 28.2233 131.865 28.2233H129.549C129.346 28.2346 129.166 28.1559 128.986 27.9872ZM128.739 20.8236V15.988C128.739 15.7855 128.818 15.6056 128.998 15.4257C129.166 15.257 129.358 15.167 129.56 15.167H131.044C132.113 15.167 132.911 15.4369 133.406 15.9542C133.901 16.4828 134.148 17.1575 134.148 17.9897C134.148 18.8444 133.912 19.5304 133.451 20.0477C132.99 20.5537 132.293 20.8124 131.359 20.8124H128.739V20.8236Z" fill="#001E2B"/>
<path d="M66.6176 18.8894C65.7516 18.4171 64.7958 18.1697 63.7499 18.1697C62.704 18.1697 61.7369 18.4058 60.8822 18.8894C60.0163 19.3617 59.3416 20.0477 58.8355 20.9136C58.3295 21.7683 58.0708 22.7804 58.0708 23.905C58.0708 25.0296 58.3295 26.0417 58.8355 26.8964C59.3416 27.7623 60.0276 28.4483 60.8822 28.9206C61.7482 29.3929 62.704 29.6403 63.7499 29.6403C64.7958 29.6403 65.7629 29.4042 66.6176 28.9206C67.4835 28.4483 68.1582 27.7623 68.6643 26.8964C69.1703 26.0305 69.429 25.0183 69.429 23.905C69.429 22.7917 69.1703 21.7683 68.6643 20.9136C68.1582 20.0477 67.4835 19.3617 66.6176 18.8894ZM67.4497 23.905C67.4497 25.2882 67.1124 26.4128 66.4376 27.2113C65.7741 28.0209 64.8745 28.437 63.7499 28.437C62.6253 28.437 61.7257 28.0209 61.0622 27.2113C60.3874 26.4016 60.0501 25.277 60.0501 23.905C60.0501 22.533 60.3874 21.3972 61.0622 20.5988C61.7257 19.7891 62.6253 19.373 63.7499 19.373C64.8745 19.373 65.7741 19.7891 66.4376 20.5988C67.1124 21.3972 67.4497 22.5218 67.4497 23.905Z" fill="#001E2B"/>
<path d="M106.315 18.8894C105.449 18.4171 104.493 18.1697 103.447 18.1697C102.402 18.1697 101.434 18.4058 100.58 18.8894C99.7138 19.3617 99.0391 20.0477 98.533 20.9136C98.027 21.7796 97.7683 22.7804 97.7683 23.905C97.7683 25.0296 98.027 26.0417 98.533 26.8964C99.0391 27.751 99.7251 28.4483 100.58 28.9206C101.446 29.3929 102.402 29.6403 103.447 29.6403C104.493 29.6403 105.46 29.4042 106.315 28.9206C107.181 28.4483 107.856 27.7623 108.362 26.8964C108.868 26.0305 109.127 25.0296 109.127 23.905C109.127 22.7804 108.868 21.7683 108.362 20.9136C107.856 20.059 107.17 19.3617 106.315 18.8894ZM107.147 23.905C107.147 25.2882 106.81 26.4128 106.135 27.2113C105.472 28.0209 104.572 28.437 103.447 28.437C102.323 28.437 101.423 28.0209 100.76 27.2113C100.085 26.4016 99.7476 25.277 99.7476 23.905C99.7476 22.5105 100.085 21.3972 100.76 20.5988C101.423 19.7891 102.323 19.373 103.447 19.373C104.572 19.373 105.472 19.7891 106.135 20.5988C106.799 21.3972 107.147 22.5218 107.147 23.905Z" fill="#001E2B"/>
<path d="M90.3011 18.1697C89.4015 18.1697 88.5805 18.3609 87.8271 18.7432C87.0848 19.1256 86.5001 19.6429 86.084 20.3064C85.6679 20.9586 85.4542 21.6896 85.4542 22.4768C85.4542 23.174 85.6116 23.815 85.9378 24.3886C86.2527 24.9396 86.68 25.4007 87.2198 25.783L85.6117 27.976C85.4092 28.2459 85.3867 28.6057 85.5329 28.8981C85.6904 29.2017 85.9828 29.3817 86.3201 29.3817H86.7812C86.3314 29.6853 85.9715 30.0452 85.7241 30.4725C85.4317 30.9561 85.2855 31.4621 85.2855 31.9794C85.2855 32.9466 85.7129 33.745 86.5563 34.3523C87.3885 34.9483 88.5693 35.252 90.0425 35.252C91.0658 35.252 92.0555 35.0833 92.9439 34.7571C93.8435 34.431 94.5745 33.9475 95.1255 33.3177C95.6766 32.6879 95.9577 31.9232 95.9577 31.0348C95.9577 30.1127 95.6204 29.4604 94.8332 28.8194C94.1584 28.2908 93.1013 28.0097 91.7743 28.0097H87.2648C87.2535 28.0097 87.2423 27.9985 87.2423 27.9985C87.2423 27.9985 87.231 27.976 87.2423 27.9647L88.4118 26.3903C88.7267 26.5365 89.0191 26.6265 89.2778 26.6827C89.5477 26.7389 89.8513 26.7614 90.1887 26.7614C91.1333 26.7614 91.9992 26.5702 92.7414 26.1879C93.4837 25.8055 94.0797 25.2882 94.5183 24.6247C94.9456 23.9725 95.1593 23.2415 95.1593 22.4656C95.1593 21.6334 94.7544 20.1039 93.6524 19.328C93.6524 19.3167 93.6636 19.3167 93.6636 19.3167L96.0927 19.5866V18.4733H92.2129C91.5944 18.2821 90.9646 18.1697 90.3011 18.1697ZM91.6619 25.232C91.2345 25.4569 90.7734 25.5806 90.3124 25.5806C89.5589 25.5806 88.8954 25.3107 88.3219 24.7822C87.7596 24.2536 87.4784 23.4777 87.4784 22.4768C87.4784 21.4759 87.7596 20.7112 88.3219 20.1714C88.8842 19.6429 89.5477 19.373 90.3124 19.373C90.7847 19.373 91.2345 19.4854 91.6619 19.7216C92.0892 19.9465 92.4378 20.2951 92.719 20.7562C92.9889 21.2173 93.135 21.7908 93.135 22.4656C93.135 23.1515 93.0001 23.7251 92.719 24.1749C92.4491 24.6585 92.0892 25.0071 91.6619 25.232ZM88.603 29.3817H91.6619C92.5053 29.3817 93.0451 29.5504 93.4049 29.9102C93.7648 30.2701 93.9447 30.7537 93.9447 31.3159C93.9447 32.1369 93.6186 32.8116 92.9664 33.3177C92.3141 33.8237 91.4369 34.0824 90.3461 34.0824C89.4015 34.0824 88.6143 33.8687 88.0295 33.4639C87.456 33.059 87.1636 32.4405 87.1636 31.6533C87.1636 31.1585 87.2985 30.6974 87.5684 30.2926C87.8495 29.8877 88.1757 29.5953 88.603 29.3817Z" fill="#001E2B"/>
<path d="M139.749 29.2242C139.524 29.1005 139.355 28.9206 139.22 28.7181C139.096 28.4932 139.029 28.2683 139.029 28.0097C139.029 27.751 139.096 27.5148 139.22 27.3012C139.344 27.0763 139.524 26.9188 139.749 26.7951C139.974 26.6714 140.221 26.6039 140.502 26.6039C140.783 26.6039 141.031 26.6714 141.256 26.7951C141.48 26.9188 141.649 27.0988 141.784 27.3012C141.908 27.5261 141.975 27.751 141.975 28.0097C141.975 28.2683 141.908 28.5045 141.784 28.7181C141.66 28.9431 141.48 29.1005 141.256 29.2242C141.031 29.3479 140.783 29.4154 140.502 29.4154C140.232 29.4154 139.974 29.3591 139.749 29.2242ZM141.132 29.0668C141.323 28.9655 141.458 28.8081 141.57 28.6394C141.672 28.4482 141.728 28.2458 141.728 28.0097C141.728 27.7735 141.672 27.5711 141.57 27.3799C141.469 27.1887 141.323 27.0425 141.132 26.9526C140.941 26.8513 140.738 26.7951 140.502 26.7951C140.266 26.7951 140.063 26.8513 139.872 26.9526C139.681 27.0538 139.546 27.2112 139.434 27.3799C139.333 27.5711 139.276 27.7735 139.276 28.0097C139.276 28.2458 139.333 28.4482 139.434 28.6394C139.535 28.8306 139.681 28.9768 139.872 29.0668C140.063 29.168 140.266 29.2242 140.502 29.2242C140.738 29.2242 140.952 29.168 141.132 29.0668ZM139.895 28.6844V28.5832L139.917 28.5719H139.985C140.007 28.5719 140.03 28.5607 140.041 28.5495C140.063 28.527 140.063 28.5157 140.063 28.4932V27.4586C140.063 27.4361 140.052 27.4136 140.041 27.4024C140.018 27.3799 140.007 27.3799 139.985 27.3799H139.917L139.895 27.3687V27.2787L139.917 27.2674H140.502C140.671 27.2674 140.794 27.3012 140.896 27.3799C140.997 27.4586 141.042 27.5598 141.042 27.6948C141.042 27.796 141.008 27.8972 140.929 27.9647C140.851 28.0434 140.761 28.0884 140.648 28.0996L140.783 28.1446L141.042 28.5495C141.064 28.5832 141.087 28.5944 141.121 28.5944H141.188L141.199 28.6057V28.7069L141.188 28.7181H140.839L140.817 28.7069L140.457 28.1109H140.367V28.5045C140.367 28.527 140.378 28.5495 140.39 28.5607C140.412 28.5832 140.423 28.5832 140.446 28.5832H140.513L140.536 28.5944V28.6957L140.513 28.7069H139.917L139.895 28.6844ZM140.468 27.9534C140.558 27.9534 140.637 27.9309 140.682 27.8747C140.727 27.8297 140.761 27.751 140.761 27.661C140.761 27.5711 140.738 27.5036 140.693 27.4474C140.648 27.3911 140.581 27.3687 140.502 27.3687H140.457C140.435 27.3687 140.412 27.3799 140.401 27.3911C140.378 27.4136 140.378 27.4249 140.378 27.4474V27.9422H140.468V27.9534Z" fill="#001E2B"/>
</g>
<defs>
<clipPath id="clip0_1011_357">
<rect width="123.928" height="31.2632" fill="white" transform="translate(18.0359 4)"/>
</clipPath>
</defs>
</svg>
