<svg width="160" height="40" viewBox="0 0 160 40" fill="none" xmlns="http://www.w3.org/2000/svg">
<mask id="mask0_1031_2" style="mask-type:alpha" maskUnits="userSpaceOnUse" x="39" y="6" width="27" height="28">
<rect x="39.1505" y="6.58325" width="26.8335" height="26.8335" fill="#D9D9D9"/>
</mask>
<g mask="url(#mask0_1031_2)">
<path d="M52.5673 30.0626C49.7535 30.0626 47.373 29.6293 45.4257 28.7628C43.4784 27.8963 42.5047 26.8388 42.5047 25.5903V14.4097C42.5047 13.1798 43.4877 12.127 45.4536 11.2512C47.4195 10.3753 49.7908 9.93744 52.5673 9.93744C55.3438 9.93744 57.715 10.3753 59.681 11.2512C61.6469 12.127 62.6299 13.1798 62.6299 14.4097V25.5903C62.6299 26.8388 61.6562 27.8963 59.7089 28.7628C57.7616 29.6293 55.3811 30.0626 52.5673 30.0626ZM52.5673 16.6738C54.2257 16.6738 55.8935 16.4362 57.5706 15.961C59.2477 15.4858 60.1887 14.978 60.3937 14.4376C60.1887 13.8972 59.2524 13.3848 57.5846 12.9003C55.9168 12.4158 54.2444 12.1736 52.5673 12.1736C50.8716 12.1736 49.2084 12.4112 47.5779 12.8863C45.9474 13.3615 45.0017 13.8786 44.7409 14.4376C45.0017 14.9967 45.9474 15.5091 47.5779 15.975C49.2084 16.4408 50.8716 16.6738 52.5673 16.6738ZM52.5673 22.2361C53.3499 22.2361 54.1046 22.1989 54.8314 22.1243C55.5581 22.0498 56.2522 21.9426 56.9138 21.8029C57.5753 21.6631 58.1995 21.4907 58.7865 21.2858C59.3735 21.0808 59.9092 20.8479 60.3937 20.587V17.2328C59.9092 17.4937 59.3735 17.7266 58.7865 17.9316C58.1995 18.1366 57.5753 18.3089 56.9138 18.4487C56.2522 18.5884 55.5581 18.6956 54.8314 18.7701C54.1046 18.8447 53.3499 18.8819 52.5673 18.8819C51.7846 18.8819 51.0206 18.8447 50.2753 18.7701C49.5299 18.6956 48.8264 18.5884 48.1649 18.4487C47.5034 18.3089 46.8838 18.1366 46.3061 17.9316C45.7285 17.7266 45.2067 17.4937 44.7409 17.2328V20.587C45.2067 20.8479 45.7285 21.0808 46.3061 21.2858C46.8838 21.4907 47.5034 21.6631 48.1649 21.8029C48.8264 21.9426 49.5299 22.0498 50.2753 22.1243C51.0206 22.1989 51.7846 22.2361 52.5673 22.2361ZM52.5673 27.8264C53.4245 27.8264 54.2956 27.7612 55.1808 27.6308C56.0659 27.5003 56.8811 27.328 57.6265 27.1137C58.3719 26.8994 58.9961 26.6571 59.4993 26.3869C60.0024 26.1167 60.3006 25.8419 60.3937 25.5624V22.8231C59.9092 23.084 59.3735 23.3169 58.7865 23.5219C58.1995 23.7269 57.5753 23.8992 56.9138 24.039C56.2522 24.1788 55.5581 24.2859 54.8314 24.3604C54.1046 24.435 53.3499 24.4722 52.5673 24.4722C51.7846 24.4722 51.0206 24.435 50.2753 24.3604C49.5299 24.2859 48.8264 24.1788 48.1649 24.039C47.5034 23.8992 46.8838 23.7269 46.3061 23.5219C45.7285 23.3169 45.2067 23.084 44.7409 22.8231V25.5903C44.834 25.8698 45.1275 26.14 45.6213 26.4009C46.1151 26.6618 46.7347 26.8994 47.4801 27.1137C48.2255 27.328 49.0454 27.5003 49.9398 27.6308C50.8343 27.7612 51.7101 27.8264 52.5673 27.8264Z" fill="#777777"/>
</g>
<path d="M129.73 26.6162C129.382 26.6162 129.084 26.4934 128.834 26.2477C128.584 25.9979 128.459 25.6972 128.459 25.3457C128.459 24.9984 128.584 24.7019 128.834 24.4563C129.084 24.2064 129.382 24.0815 129.73 24.0815C130.077 24.0815 130.375 24.2064 130.625 24.4563C130.875 24.7019 131 24.9984 131 25.3457C131 25.5786 130.941 25.7925 130.822 25.9873C130.708 26.1778 130.555 26.3303 130.365 26.4447C130.174 26.559 129.962 26.6162 129.73 26.6162Z" fill="#777777"/>
<path d="M124.663 26.6162C124.316 26.6162 124.017 26.4934 123.768 26.2477C123.518 25.9979 123.393 25.6972 123.393 25.3457C123.393 24.9984 123.518 24.7019 123.768 24.4563C124.017 24.2064 124.316 24.0815 124.663 24.0815C125.011 24.0815 125.309 24.2064 125.559 24.4563C125.809 24.7019 125.934 24.9984 125.934 25.3457C125.934 25.5786 125.875 25.7925 125.756 25.9873C125.642 26.1778 125.489 26.3303 125.299 26.4447C125.108 26.559 124.896 26.6162 124.663 26.6162Z" fill="#777777"/>
<path d="M119.597 26.6162C119.25 26.6162 118.951 26.4934 118.701 26.2477C118.451 25.9979 118.327 25.6972 118.327 25.3457C118.327 24.9984 118.451 24.7019 118.701 24.4563C118.951 24.2064 119.25 24.0815 119.597 24.0815C119.944 24.0815 120.243 24.2064 120.493 24.4563C120.743 24.7019 120.868 24.9984 120.868 25.3457C120.868 25.5786 120.808 25.7925 120.69 25.9873C120.575 26.1778 120.423 26.3303 120.232 26.4447C120.042 26.559 119.83 26.6162 119.597 26.6162Z" fill="#777777"/>
<path d="M112.598 26.4955V16.7379H114.434V18.2879H114.536C114.713 17.7628 115.027 17.3499 115.476 17.0492C115.929 16.7443 116.441 16.5918 117.013 16.5918C117.132 16.5918 117.271 16.596 117.432 16.6045C117.598 16.613 117.727 16.6236 117.82 16.6363V18.4531C117.744 18.4319 117.608 18.4086 117.413 18.3832C117.219 18.3536 117.024 18.3388 116.829 18.3388C116.38 18.3388 115.98 18.4341 115.628 18.6246C115.281 18.811 115.006 19.0714 114.802 19.406C114.599 19.7363 114.497 20.1133 114.497 20.5368V26.4955H112.598Z" fill="#777777"/>
<path d="M106.304 26.6925C105.343 26.6925 104.515 26.4871 103.82 26.0763C103.13 25.6613 102.596 25.079 102.219 24.3293C101.847 23.5755 101.66 22.6925 101.66 21.6803C101.66 20.6808 101.847 19.7999 102.219 19.0376C102.596 18.2753 103.122 17.6803 103.795 17.2525C104.472 16.8248 105.264 16.6109 106.171 16.6109C106.721 16.6109 107.255 16.702 107.772 16.8841C108.288 17.0662 108.752 17.352 109.163 17.7417C109.574 18.1313 109.898 18.6374 110.135 19.2599C110.372 19.8783 110.491 20.63 110.491 21.5151V22.1885H102.734V20.7655H108.629C108.629 20.2658 108.528 19.8232 108.324 19.4378C108.121 19.0482 107.835 18.7411 107.467 18.5167C107.102 18.2922 106.675 18.18 106.183 18.18C105.65 18.18 105.184 18.3113 104.786 18.5739C104.392 18.8322 104.087 19.171 103.871 19.5903C103.659 20.0053 103.553 20.4564 103.553 20.9434V22.0551C103.553 22.7073 103.668 23.2621 103.897 23.7195C104.129 24.1769 104.453 24.5263 104.868 24.7677C105.284 25.0048 105.768 25.1234 106.323 25.1234C106.683 25.1234 107.011 25.0726 107.308 24.971C107.604 24.8651 107.861 24.7084 108.077 24.5009C108.293 24.2933 108.458 24.0371 108.572 23.7322L110.37 24.0562C110.226 24.5856 109.968 25.0493 109.595 25.4474C109.226 25.8413 108.763 26.1483 108.204 26.3685C107.649 26.5845 107.016 26.6925 106.304 26.6925Z" fill="#777777"/>
<path d="M93.2368 20.7019V26.4955H91.3374V13.4854H93.2114V18.3261H93.3321C93.5608 17.8009 93.9102 17.3837 94.3803 17.0746C94.8504 16.7654 95.4645 16.6108 96.2226 16.6108C96.8917 16.6108 97.4762 16.7485 97.9759 17.0238C98.4799 17.299 98.8695 17.7098 99.1448 18.2562C99.4243 18.7983 99.5641 19.4759 99.5641 20.289V26.4955H97.6646V20.5177C97.6646 19.802 97.4804 19.2472 97.1119 18.8533C96.7435 18.4552 96.231 18.2562 95.5746 18.2562C95.1257 18.2562 94.7234 18.3515 94.3676 18.542C94.0161 18.7326 93.7387 19.0121 93.5354 19.3806C93.3364 19.7448 93.2368 20.1853 93.2368 20.7019Z" fill="#777777"/>
<path d="M89.0266 16.7379V18.2625H83.6967V16.7379H89.0266ZM85.1261 14.4001H87.0255V23.6305C87.0255 23.999 87.0806 24.2764 87.1907 24.4627C87.3008 24.6448 87.4427 24.7698 87.6163 24.8375C87.7942 24.901 87.9869 24.9328 88.1944 24.9328C88.3469 24.9328 88.4803 24.9222 88.5946 24.901C88.709 24.8799 88.7979 24.8629 88.8614 24.8502L89.2045 26.4193C89.0944 26.4617 88.9377 26.504 88.7344 26.5464C88.5311 26.593 88.277 26.6184 87.9721 26.6226C87.4723 26.6311 87.0065 26.5421 86.5745 26.3558C86.1425 26.1694 85.7931 25.8815 85.5263 25.4918C85.2595 25.1022 85.1261 24.6131 85.1261 24.0244V14.4001Z" fill="#777777"/>
<path d="M82.1769 19.9904C82.1769 21.3795 81.9228 22.5738 81.4146 23.5733C80.9064 24.5685 80.2097 25.3351 79.3246 25.8729C78.4437 26.4066 77.4421 26.6734 76.3198 26.6734C75.1932 26.6734 74.1874 26.4066 73.3023 25.8729C72.4214 25.3351 71.7268 24.5664 71.2186 23.5669C70.7104 22.5674 70.4563 21.3753 70.4563 19.9904C70.4563 18.6013 70.7104 17.4091 71.2186 16.4139C71.7268 15.4144 72.4214 14.6478 73.3023 14.1142C74.1874 13.5764 75.1932 13.3074 76.3198 13.3074C77.4421 13.3074 78.4437 13.5764 79.3246 14.1142C80.2097 14.6478 80.9064 15.4144 81.4146 16.4139C81.9228 17.4091 82.1769 18.6013 82.1769 19.9904ZM80.233 19.9904C80.233 18.9316 80.0615 18.0401 79.7184 17.3159C79.3796 16.5875 78.9138 16.0369 78.3209 15.6643C77.7322 15.2873 77.0651 15.0989 76.3198 15.0989C75.5702 15.0989 74.901 15.2873 74.3123 15.6643C73.7237 16.0369 73.2578 16.5875 72.9148 17.3159C72.576 18.0401 72.4066 18.9316 72.4066 19.9904C72.4066 21.0492 72.576 21.9428 72.9148 22.6712C73.2578 23.3954 73.7237 23.946 74.3123 24.3229C74.901 24.6956 75.5702 24.8819 76.3198 24.8819C77.0651 24.8819 77.7322 24.6956 78.3209 24.3229C78.9138 23.946 79.3796 23.3954 79.7184 22.6712C80.0615 21.9428 80.233 21.0492 80.233 19.9904Z" fill="#777777"/>
</svg>
