<svg width="20" height="20" viewBox="0 0 20 20" fill="none" xmlns="http://www.w3.org/2000/svg">
<path d="M5 1H10V6H5V1Z" fill="#CB8999"/>
<path d="M10 7H5V12H10V7Z" fill="#5D576B"/>
<path d="M16 1H11V6H16V1Z" fill="#8ECB89"/>
<path d="M5 19L10 13.9375L12 15.9375L17.4375 10.5H16V9H20V13H18.5V11.5417L12 18.0625L10 16.0625L7.0625 19H5Z" fill="#221B1B"/>
<path d="M16 7V8H15V11.5H15.0234L14.5234 12H11V7H16Z" fill="#6CD4FF"/>
<path d="M16 18H13.4736L16 15.4648V18ZM13.5234 13L12 14.5234L11 13.5234V13H13.5234Z" fill="#FFC800"/>
</svg>
