<svg width="200" height="13" viewBox="0 0 200 13" fill="none" xmlns="http://www.w3.org/2000/svg">
<g clip-path="url(#clip0_8732_344)">
<path d="M195.243 4.91506H192.193C191.515 4.91506 191.086 4.48689 191.086 3.89817C191.086 3.30944 191.595 2.96156 192.193 2.96156H197.705L198.981 0.160645H192.193C189.392 0.160645 187.777 1.85547 187.777 4.06765C187.777 6.4404 189.302 7.80517 191.764 7.80517H194.815C195.493 7.80517 195.921 8.23334 195.921 8.82206C195.921 9.41971 195.493 9.83895 194.815 9.83895H188.196V12.6399H194.815C197.616 12.6399 199.23 11.0253 199.23 8.65258C199.23 6.27091 197.785 4.91506 195.243 4.91506ZM183.112 4.91506H180.061C179.383 4.91506 178.955 4.48689 178.955 3.89817C178.955 3.30944 179.464 2.96156 180.061 2.96156H185.574L186.849 0.160645H180.061C177.26 0.160645 175.646 1.85547 175.646 4.06765C175.646 6.4404 177.171 7.80517 179.633 7.80517H182.684C183.362 7.80517 183.79 8.23334 183.79 8.82206C183.79 9.41971 183.362 9.83895 182.684 9.83895H176.065V12.6399H182.684C185.485 12.6399 187.099 11.0253 187.099 8.65258C187.099 6.27091 185.654 4.91506 183.112 4.91506ZM163.764 12.5507H174.201V9.74975H167.074V7.71597H174.031V4.91506H167.074V2.96156H174.201V0.169565H163.764V12.5507ZM157.226 5.4235H153.747V2.96156H157.226C158.243 2.96156 158.751 3.5592 158.751 4.23713C158.671 4.91506 158.162 5.4235 157.226 5.4235ZM162.069 4.15685C162.069 1.7841 160.375 0.169565 157.654 0.169565H150.527V12.5596H153.836V8.23334H155.022L158.76 12.5596H162.836L158.76 8.06385C160.794 7.63569 162.069 6.10143 162.069 4.15685ZM144.247 5.68219H140.679V2.97048H144.247C145.264 2.97048 145.772 3.56812 145.772 4.32633C145.692 5.08454 145.184 5.68219 144.247 5.68219ZM144.586 0.169565H137.37V12.5596H140.688V8.4831H144.506C147.307 8.4831 149.001 6.69908 149.001 4.32633C149.001 1.86438 147.307 0.169565 144.586 0.169565ZM136.781 0.169565H132.535L129.315 3.90709L126.086 0.169565H121.759L127.192 6.27983L121.679 12.5596H125.925L129.234 8.65258L132.633 12.5596H136.959L131.357 6.19955L136.781 0.169565ZM110.734 12.5507H121.171V9.74975H114.044V7.71597H121.001V4.91506H114.044V2.96156H121.171V0.169565H110.734V12.5507ZM99.1023 7.71597L94.009 0.160645H89.8522V12.5507H93.1615V4.65637L98.3352 12.5507H102.322V0.169565H99.1023V7.71597ZM79.8438 7.29673L81.5387 3.13996L83.2335 7.29673H79.8438ZM79.5049 0.169565L74.0725 12.5596H77.7208L78.7377 10.0174H84.509L85.6151 12.5596H89.3527L83.7508 0.169565H79.5049ZM68.6402 6.44932V6.19063C68.6402 4.32633 69.6571 3.05076 71.7801 3.05076H75.5176V0.169565H71.5303C67.4538 0.169565 65.3397 2.80099 65.3397 6.19063V6.44932C65.3397 10.2671 67.7125 12.4704 71.3608 12.4704H72.4669L73.8228 9.66947H71.8693C69.9158 9.75867 68.6402 8.65258 68.6402 6.44932ZM60.3266 0.169565V12.5596H63.636V0.169565H60.3266ZM53.7079 5.4235H50.2291V2.96156H53.7079C54.7248 2.96156 55.2333 3.5592 55.2333 4.23713C55.2333 4.91506 54.7248 5.4235 53.7079 5.4235ZM58.5426 4.15685C58.5426 1.7841 56.8478 0.169565 54.1272 0.169565H47V12.5596H50.3094V8.23334H51.4957L55.2333 12.5596H59.39L55.3136 8.06385C57.3563 7.63569 58.5426 6.10143 58.5426 4.15685ZM34.3602 12.5507H44.7968V9.74975H37.6696V7.71597H44.6273V4.91506H37.6696V2.96156H44.7968V0.169565H34.3602V12.5507ZM23.8434 7.97465L21.0425 0.169565H15.8689V12.5596H19.089V3.6484L22.3092 12.5596H25.2796L28.5889 3.6484V12.5596H31.8091V0.169565H26.6354L23.8434 7.97465ZM5.85159 7.29673L7.5464 3.13996L9.24122 7.29673C9.25014 7.29673 5.85159 7.29673 5.85159 7.29673ZM5.43233 0.169565L0 12.5596H3.64831L4.66521 10.0174H10.4365L11.5426 12.5596H15.2801L9.76751 0.169565H5.43233Z" fill="#006FCF"/>
</g>
<defs>
<clipPath id="clip0_8732_344">
<rect width="199.4" height="12.729" fill="white"/>
</clipPath>
</defs>
</svg>
