<svg width="160" height="40" viewBox="0 0 160 40" fill="none" xmlns="http://www.w3.org/2000/svg">
<path fill-rule="evenodd" clip-rule="evenodd" d="M39.309 26.9958C38.2221 27.6534 36.3794 28 34.7026 28C30.1156 28 28.2355 25.3533 28.2355 21.1195C28.2355 17.231 30.5021 14.3295 35.0898 14.3295C36.6193 14.3295 38.2587 14.713 39.2724 15.3692V18.9468L37.2451 18.7824L36.9512 16.9947C36.9139 16.8118 36.8406 16.7207 36.656 16.6659C36.2508 16.5378 35.6243 16.4467 35.0158 16.4467C32.676 16.4467 31.1839 18.0153 31.1839 21.1195C31.1839 24.3498 32.6027 25.9191 34.8872 25.9191C35.4957 25.9191 36.2508 25.828 36.7292 25.6821C36.9505 25.6273 37.0058 25.5725 37.0611 25.2985L37.3377 23.6018H39.309V26.9958ZM47.1403 22.9806C47.1403 20.827 46.4765 20.0599 45.2797 20.0599C44.0627 20.0599 43.2523 20.8092 43.2523 22.9984C43.2523 25.2074 43.9714 26.0835 45.2057 26.0835C46.4032 26.0835 47.1403 25.2615 47.1403 22.9806ZM40.3414 23.0902C40.3414 20.0599 41.9448 18.0892 45.3163 18.0892C48.7244 18.0892 50.0513 20.0969 50.0513 22.8895C50.0513 25.9924 48.4665 27.9993 45.0764 27.9993C41.7049 27.9993 40.3414 25.9554 40.3414 23.0902ZM59.4301 27.1061C58.5824 27.6171 57.2741 28 55.9293 28C52.5944 28 51.1023 25.9383 51.1023 23.1628C51.1023 19.7503 53.2029 18.0892 56.1505 18.0892C57.5874 18.0892 58.8589 18.4906 59.4301 18.8564V21.7216L57.4588 21.6298L57.2375 20.425C57.2188 20.2976 57.1822 20.1887 57.0162 20.1332C56.795 20.0599 56.4451 20.0058 56.0766 20.0058C54.9716 20.0058 54.032 20.7538 54.032 22.8895C54.032 25.2622 55.1002 25.9376 56.4085 25.9376C57.3301 25.9376 58.1585 25.6451 58.7117 25.4081L59.4301 27.1061ZM67.4453 27.7808L65.1054 23.1272L64.1105 24.2039V25.8465C64.1105 26.1383 64.1291 26.1753 64.4057 26.2116L65.5113 26.339V27.7808H60.1125V26.339L61.0342 26.2116C61.2914 26.1753 61.3281 26.1198 61.3281 25.8465V16.209C61.3281 16.0083 61.2728 15.8802 61.0888 15.8254L60.0759 15.4795L60.2785 14H64.1105V21.7942L67.4826 18.2714H70.0251V19.714L69.0667 19.8962C68.8268 19.9325 68.7722 19.9873 68.6062 20.1702L67.298 21.5387L69.6558 25.9006C69.7851 26.1568 69.9144 26.1931 70.209 26.2294L71.0201 26.3575V27.7808H67.4453ZM71.8685 27.7808V26.3027L72.6975 26.1931C72.9554 26.1568 72.9921 26.102 72.9921 25.828V20.4805C72.9921 20.2791 72.9368 20.1517 72.7521 20.0969L71.7578 19.7503L71.9597 18.2714H75.2026L75.4239 19.7318H75.5345C76.143 18.8002 76.9533 18.0892 78.1323 18.0892C78.5561 18.0892 79.4038 18.1625 79.7357 18.2536V21.5757L77.5245 21.5024L77.3406 20.5346C77.3039 20.3702 77.2479 20.3346 77.1006 20.3346C76.6215 20.3346 76.0496 20.7353 75.7744 20.9729V25.8095C75.7744 26.102 75.7931 26.1568 76.069 26.1753L77.893 26.3212V27.7808H71.8685ZM87.3638 22.9806C87.3638 20.827 86.7 20.0599 85.5038 20.0599C84.2868 20.0599 83.4764 20.8092 83.4764 22.9984C83.4764 25.2074 84.1949 26.0835 85.4291 26.0835C86.6267 26.0835 87.3638 25.2615 87.3638 22.9806ZM80.5655 23.0902C80.5655 20.0599 82.1682 18.0892 85.5397 18.0892C88.9485 18.0892 90.2747 20.0969 90.2747 22.8895C90.2747 25.9924 88.6906 27.9993 85.3005 27.9993C81.929 27.9993 80.5655 25.9554 80.5655 23.0902ZM96.6139 23.8566L95.3603 23.9477C94.2734 24.021 93.8868 24.295 93.8868 25.0245C93.8868 25.7554 94.3294 26.0287 94.9371 26.0287C95.5636 26.0287 96.19 25.6821 96.6139 25.3718V23.8566ZM97.111 27.7815L96.9264 26.7951L96.8345 26.7773C96.1347 27.452 95.2137 28 93.7389 28C91.4177 28 91.0492 26.4301 91.0492 25.2985C91.0492 23.4731 92.1914 22.634 94.4946 22.4881L96.6139 22.3422V21.338C96.6139 20.4805 96.5212 19.8962 95.379 19.8962C94.4946 19.8962 94.0341 20.0243 94.0341 21.1195L91.4364 20.8997C91.4364 18.4358 93.7022 18.0892 95.3977 18.0892C98.198 18.0892 99.3223 18.8379 99.3223 21.3928V25.828C99.3223 26.1198 99.3403 26.1568 99.6168 26.1931L100.502 26.339V27.7808L97.111 27.7815ZM109.235 27.1061C108.388 27.6171 107.08 28 105.735 28C102.399 28 100.907 25.9383 100.907 23.1628C100.907 19.7503 103.008 18.0892 105.956 18.0892C107.393 18.0892 108.664 18.4906 109.235 18.8564V21.7216L107.264 21.6298L107.043 20.425C107.024 20.2976 106.988 20.1887 106.822 20.1332C106.6 20.0599 106.25 20.0058 105.881 20.0058C104.776 20.0058 103.837 20.7538 103.837 22.8895C103.837 25.2622 104.906 25.9376 106.214 25.9376C107.135 25.9376 107.964 25.6451 108.516 25.4081L109.236 27.1061" fill="#151F34"/>
<mask id="mask0_996_228" style="mask-type:luminance" maskUnits="userSpaceOnUse" x="2" y="8" width="119" height="24">
<path d="M61.7576 8H2.51782V31.25H120.997V8H61.7576Z" fill="white"/>
</mask>
<g mask="url(#mask0_996_228)">
<path fill-rule="evenodd" clip-rule="evenodd" d="M117.012 27.327V21.3866C117.012 20.8395 116.957 19.8377 116.039 19.8377C115.359 19.8377 114.587 20.1844 114.128 20.5126V25.3958C114.128 25.6871 114.147 25.7241 114.422 25.7603L115.304 25.8875V27.327H110.235V25.8875L111.062 25.7603C111.318 25.7241 111.355 25.6687 111.355 25.3958V15.7744C111.355 15.5741 111.299 15.4462 111.116 15.3915L110.106 15.0462L110.308 13.5691H114.091V18.7265L114.183 18.7443C115.01 18.0707 115.965 17.6515 117.122 17.6515C119.069 17.6515 119.785 18.708 119.785 20.6029V25.3958C119.785 25.6871 119.804 25.7241 120.079 25.7603L120.997 25.8875V27.327H117.011" fill="#151F34"/>
</g>
<path fill-rule="evenodd" clip-rule="evenodd" d="M126.236 18.2418H128.309V25.8219H132.149V27.7573H126.236V18.2418ZM137.61 21.0109L136.467 23.9669H138.766L137.61 21.0102V21.0109ZM136.813 18.2418H138.527L142.62 27.7573H140.281L139.471 25.7409H135.816L135.032 27.7573H132.747L136.813 18.2418ZM145.544 25.9833H147.404C147.564 25.9833 147.725 25.9655 147.889 25.9291C148.048 25.8957 148.199 25.8319 148.335 25.7409C148.468 25.6516 148.576 25.5355 148.661 25.392C148.749 25.2319 148.793 25.0506 148.787 24.8673C148.787 24.6434 148.731 24.4621 148.62 24.324C148.509 24.185 148.366 24.0764 148.202 24.0081C148.028 23.9347 147.844 23.8846 147.657 23.8591C147.476 23.8335 147.295 23.8202 147.112 23.8192H145.544V25.9833ZM145.544 22.0452H147.046C147.205 22.0455 147.363 22.0275 147.518 21.9917C147.672 21.956 147.812 21.8976 147.936 21.8172C148.06 21.7355 148.16 21.629 148.235 21.4944C148.31 21.3598 148.348 21.1991 148.348 21.0102C148.348 20.8131 148.306 20.6497 148.222 20.5199C148.14 20.3928 148.028 20.2888 147.896 20.2177C147.754 20.1429 147.602 20.0905 147.444 20.0625C147.282 20.0317 147.118 20.0161 146.953 20.0158H145.544V22.0452ZM143.471 18.2418H146.979C147.387 18.2418 147.797 18.2706 148.208 18.329C148.596 18.3796 148.971 18.4979 149.318 18.6786C149.646 18.853 149.911 19.0975 150.115 19.4107C150.319 19.7246 150.421 20.1414 150.421 20.6607C150.421 21.1984 150.273 21.6442 149.976 21.9985C149.679 22.3529 149.287 22.6057 148.8 22.7575V22.7849C149.11 22.8296 149.391 22.9168 149.644 23.0466C149.896 23.1771 150.113 23.3419 150.295 23.5438C150.476 23.7458 150.616 23.9806 150.713 24.2492C150.811 24.5184 150.86 24.8055 150.86 25.1097C150.86 25.6118 150.753 26.03 150.541 26.3666C150.328 26.7031 150.053 26.973 149.716 27.1797C149.38 27.3858 149.001 27.5334 148.58 27.6227C148.167 27.7118 147.746 27.7569 147.324 27.7573H143.471V18.2418ZM156.8 20.5666C156.622 20.3446 156.384 20.179 156.116 20.0892C155.854 19.9914 155.577 19.9394 155.298 19.9354C155.147 19.9354 154.992 19.9533 154.833 19.989C154.676 20.0239 154.524 20.0802 154.381 20.1566C154.244 20.2285 154.126 20.332 154.036 20.4587C153.947 20.5844 153.903 20.7376 153.903 20.9162C153.903 21.2032 154.009 21.4223 154.222 21.5755C154.434 21.7279 154.702 21.8571 155.026 21.9642C155.349 22.072 155.697 22.1792 156.069 22.287C156.441 22.3948 156.789 22.5466 157.112 22.7437C157.436 22.9415 157.703 23.2059 157.916 23.537C158.129 23.8687 158.236 24.3131 158.236 24.8673C158.236 25.3961 158.137 25.8577 157.943 26.2526C157.756 26.6362 157.486 26.9719 157.152 27.234C156.807 27.4999 156.414 27.6958 155.995 27.8109C155.543 27.9386 155.076 28.0021 154.607 27.9998C154.028 28.0053 153.453 27.9098 152.907 27.7175C152.384 27.5293 151.896 27.2251 151.444 26.8027L152.919 25.1633C153.132 25.4504 153.4 25.6715 153.723 25.8295C154.047 25.9854 154.381 26.0637 154.726 26.0637C154.895 26.0637 155.066 26.0438 155.238 26.0033C155.411 25.9627 155.566 25.903 155.703 25.8219C155.841 25.7409 155.951 25.6386 156.036 25.5129C156.12 25.3872 156.162 25.2395 156.162 25.0692C156.162 24.7828 156.053 24.5562 155.837 24.3907C155.619 24.2245 155.347 24.0837 155.019 23.9669C154.667 23.8429 154.313 23.7263 153.956 23.6173C153.584 23.5053 153.227 23.3475 152.893 23.1476C152.567 22.9522 152.288 22.6859 152.076 22.368C151.859 22.0452 151.75 21.6194 151.75 21.0906C151.75 20.5803 151.849 20.1325 152.049 19.7472C152.242 19.3696 152.514 19.0391 152.846 18.7788C153.19 18.5133 153.58 18.3151 153.996 18.1944C154.432 18.0644 154.884 17.999 155.338 18C155.87 18 156.384 18.0756 156.88 18.228C157.375 18.3805 157.823 18.636 158.222 18.9938L156.799 20.5666" fill="#348540"/>
<path fill-rule="evenodd" clip-rule="evenodd" d="M16.6639 15.3044C15.8688 15.4882 15.0551 15.5805 14.2389 15.5794C13.4056 15.5794 12.5918 15.4859 11.8104 15.3044C12.4613 14.2778 13.2824 13.3682 14.2389 12.6142C15.1936 13.3691 16.013 14.2786 16.6639 15.3044ZM24.0004 9.39465C22.9984 9.13076 21.9661 8.9981 20.9296 9.00002C18.5474 8.99677 16.2178 9.69664 14.2361 11.011C12.2547 9.69585 9.92494 8.9959 7.54263 9.00002C6.48122 9.00002 5.44954 9.13477 4.47111 9.39465C4.06243 9.49964 3.66005 9.62749 3.26587 9.77758C3.25986 9.77999 3.2544 9.78357 3.2498 9.78811C3.24521 9.79265 3.24158 9.79806 3.23913 9.80403C3.23668 9.80999 3.23546 9.81638 3.23554 9.82282C3.23562 9.82926 3.237 9.83562 3.23959 9.84152C3.41108 10.2114 3.60193 10.5696 3.80729 10.9161C3.81836 10.9353 3.84187 10.9436 3.86261 10.936C5.04147 10.5093 6.28671 10.2924 7.54125 10.2953C9.58455 10.2953 11.4958 10.8631 13.1284 11.8421C12.0903 12.7158 11.2076 13.757 10.5174 14.9221C10.1545 15.5275 9.84784 16.1645 9.60115 16.8252C9.09978 18.1647 8.84359 19.5827 8.84468 21.012C8.84468 24.4138 10.276 27.4897 12.5696 29.6787C12.748 29.8533 12.9334 30.0176 13.1284 30.1785C13.2805 30.3091 13.4326 30.4315 13.5916 30.5497C13.7915 30.7078 13.9996 30.8529 14.2091 30.9918C14.217 30.9971 14.2262 31 14.2357 31C14.2453 31 14.2545 30.9971 14.2624 30.9918C14.4712 30.8495 14.6773 30.7044 14.8771 30.5497C15.0389 30.4315 15.191 30.3091 15.3431 30.1785C15.5347 30.0176 15.7269 29.8498 15.9053 29.6787C18.1955 27.4897 19.6275 24.4103 19.6275 21.0127C19.6288 19.3114 19.2648 17.6294 18.5599 16.0792C18.4879 15.919 18.4127 15.7601 18.3345 15.6028C18.2142 15.3724 18.0874 15.1454 17.9541 14.9221C17.2629 13.7578 16.3803 12.7167 15.3431 11.8421C17.0283 10.829 18.9603 10.294 20.9296 10.2953C22.1841 10.2924 23.4293 10.5093 24.6082 10.936C24.6296 10.9429 24.6531 10.9346 24.6642 10.9154C24.8701 10.5667 25.0593 10.2086 25.2312 9.84221C25.2339 9.83627 25.2354 9.82985 25.2355 9.82333C25.2357 9.81682 25.2345 9.81034 25.232 9.8043C25.2295 9.79825 25.2259 9.79277 25.2212 9.78818C25.2166 9.78359 25.211 9.77998 25.2049 9.77758C24.8108 9.63046 24.4097 9.49846 24.0004 9.39465Z" fill="#151F34"/>
<path fill-rule="evenodd" clip-rule="evenodd" d="M18.2355 20.3508C18.2355 23.3094 17.2597 26.0011 15.6676 28C15.3812 26.9155 15.2355 25.7856 15.2355 24.6492C15.2355 21.6906 16.2114 18.9939 17.8034 17C18.0835 18.0585 18.2355 19.1843 18.2355 20.3508Z" fill="#348540"/>
<path fill-rule="evenodd" clip-rule="evenodd" d="M13.2355 24.6492C13.2355 25.8136 13.0846 26.9394 12.8034 28C11.1525 25.9347 10.2333 23.1966 10.2355 20.3508C10.2355 19.1843 10.3894 18.0585 10.6713 17C12.3218 19.0652 13.2398 21.8038 13.2355 24.6492Z" fill="#7DBC42"/>
</svg>
