<svg width="192" height="13" viewBox="0 0 192 13" fill="none" xmlns="http://www.w3.org/2000/svg">
<g clip-path="url(#clip0_8732_344)">
<path d="M187.41 4.71784H184.482C183.831 4.71784 183.42 4.30685 183.42 3.74174C183.42 3.17664 183.908 2.84271 184.482 2.84271H189.773L190.997 0.154175H184.482C181.793 0.154175 180.243 1.781 180.243 3.90443C180.243 6.18198 181.707 7.492 184.071 7.492H186.999C187.65 7.492 188.061 7.90298 188.061 8.46809C188.061 9.04176 187.65 9.44418 186.999 9.44418H180.646V12.1327H186.999C189.687 12.1327 191.237 10.583 191.237 8.30541C191.237 6.0193 189.85 4.71784 187.41 4.71784ZM175.765 4.71784H172.837C172.186 4.71784 171.775 4.30685 171.775 3.74174C171.775 3.17664 172.263 2.84271 172.837 2.84271H178.128L179.353 0.154175H172.837C170.148 0.154175 168.599 1.781 168.599 3.90443C168.599 6.18198 170.063 7.492 172.426 7.492H175.354C176.005 7.492 176.416 7.90298 176.416 8.46809C176.416 9.04176 176.005 9.44418 175.354 9.44418H169.001V12.1327H175.354C178.043 12.1327 179.593 10.583 179.593 8.30541C179.593 6.0193 178.206 4.71784 175.765 4.71784ZM157.194 12.0471H167.212V9.35856H160.37V7.40638H167.049V4.71784H160.37V2.84271H167.212V0.162738H157.194V12.0471ZM150.918 5.20588H147.578V2.84271H150.918C151.894 2.84271 152.382 3.41638 152.382 4.06711C152.305 4.71784 151.817 5.20588 150.918 5.20588ZM155.567 3.99005C155.567 1.7125 153.94 0.162738 151.329 0.162738H144.487V12.0557H147.664V7.90298H148.803L152.39 12.0557H156.303L152.39 7.7403C154.343 7.32932 155.567 5.85661 155.567 3.99005ZM138.46 5.45419H135.035V2.85127H138.46C139.436 2.85127 139.924 3.42494 139.924 4.15273C139.847 4.88052 139.359 5.45419 138.46 5.45419ZM138.785 0.162738H131.858V12.0557H135.043V8.14273H138.708C141.397 8.14273 143.023 6.43028 143.023 4.15273C143.023 1.78956 141.397 0.162738 138.785 0.162738ZM131.293 0.162738H127.217L124.127 3.75031L121.027 0.162738H116.874L122.089 6.02786L116.797 12.0557H120.873L124.049 8.30541L127.312 12.0557H131.464L126.087 5.9508L131.293 0.162738ZM106.291 12.0471H116.309V9.35856H109.468V7.40638H116.147V4.71784H109.468V2.84271H116.309V0.162738H106.291V12.0471ZM95.1263 7.40638L90.2373 0.154175H86.2473V12.0471H89.4238V4.46953L94.3899 12.0471H98.2172V0.162738H95.1263V7.40638ZM76.6404 7.00395L78.2673 3.01396L79.8941 7.00395H76.6404ZM76.3151 0.162738L71.1007 12.0557H74.6026L75.5787 9.61543H81.1185L82.1802 12.0557H85.7678L80.3907 0.162738H76.3151ZM65.8863 6.19054V5.94224C65.8863 4.15273 66.8624 2.92833 68.9002 2.92833H72.4878V0.162738H68.6605C64.7475 0.162738 62.7183 2.68859 62.7183 5.94224V6.19054C62.7183 9.85517 64.9958 11.97 68.4978 11.97H69.5595L70.8609 9.2815H68.9858C67.1107 9.36712 65.8863 8.30541 65.8863 6.19054ZM57.9063 0.162738V12.0557H61.0829V0.162738H57.9063ZM51.5531 5.20588H48.2139V2.84271H51.5531C52.5292 2.84271 53.0173 3.41638 53.0173 4.06711C53.0173 4.71784 52.5292 5.20588 51.5531 5.20588ZM56.1939 3.99005C56.1939 1.7125 54.567 0.162738 51.9556 0.162738H45.1143V12.0557H48.2909V7.90298H49.4297L53.0173 12.0557H57.0073L53.0943 7.7403C55.0551 7.32932 56.1939 5.85661 56.1939 3.99005ZM32.9817 12.0471H42.9995V9.35856H36.1583V7.40638H42.8368V4.71784H36.1583V2.84271H42.9995V0.162738H32.9817V12.0471ZM22.8868 7.65468L20.1983 0.162738H15.2322V12.0557H18.3232V3.502L21.4141 12.0557H24.2653L27.4419 3.502V12.0557H30.5329V0.162738H25.5668L22.8868 7.65468ZM5.61682 7.00395L7.24364 3.01396L8.87046 7.00395C8.87902 7.00395 5.61682 7.00395 5.61682 7.00395ZM5.21438 0.162738L0 12.0557H3.50194L4.47804 9.61543H10.0178L11.0795 12.0557H14.6671L9.37563 0.162738H5.21438Z" fill="#006FCF"/>
</g>
<defs>
<clipPath id="clip0_8732_344">
<rect width="191.4" height="12.2183" fill="white"/>
</clipPath>
</defs>
</svg>
