<svg width="113" height="25" viewBox="0 0 113 25" fill="none" xmlns="http://www.w3.org/2000/svg">
<g clip-path="url(#clip0_8733_385)">
<path d="M44.5004 18.287V18.4436H38.8062V16.2324V10.4208C38.7867 10.0882 38.9236 8.56189 37.2017 8.58146C37.2017 8.58146 35.4406 8.60103 35.4797 10.7339V16.4868C35.5384 18.2675 36.5951 18.287 36.5951 18.287V18.4436H30.8422H27.5744C27.457 18.4631 23.4456 18.5806 23.289 14.8627V12.8472C23.289 12.8472 21.7041 13.1994 21.2149 13.5712C21.2149 13.5712 19.943 14.3735 20.7844 15.7628C20.7844 15.7628 21.4106 16.8586 23.426 16.4477L22.4476 18.4436H20.5104C20.5104 18.4436 15.9903 18.5414 15.462 15.2149C15.462 15.1953 15.051 12.6124 18.1427 11.5557C18.1427 11.5557 19.1994 11.184 21.2149 10.8317C21.2344 10.8317 22.9368 10.5969 23.0934 9.67725C23.1325 9.52071 23.1129 9.32503 23.0347 9.12935C23.0542 9.20762 22.2715 7.11388 17.3796 9.22719C17.3992 9.24676 18.3776 6.17463 18.3776 6.17463C18.3776 6.17463 22.976 4.82446 26.1851 6.8008C26.1655 6.82036 27.8679 7.72048 27.8288 10.5578C27.8288 10.5382 27.8875 14.4713 27.8875 14.4713C27.8875 14.53 27.8875 16.4672 29.8051 16.5846C29.8051 16.6042 30.49 16.6042 30.8813 16.6042V8.0727C30.8813 8.03356 30.9792 6.2529 29.8051 6.17463V6.01809L35.5384 5.80284V7.25085C35.8515 6.93777 37.1234 5.82241 38.9823 5.78328C38.9823 5.78328 43.4438 5.62673 43.4438 9.99033V16.2911C43.3459 18.2479 44.5004 18.287 44.5004 18.287Z" fill="#96151D"/>
<path d="M0.355957 0.343479V0.147802H6.57849L11.0399 13.1799L14.3469 2.71117C14.3469 2.71117 15.0122 0.950078 13.2119 0.245641V0.128235H18.2017L11.9009 18.561L9.27883 17.5435C9.27883 17.5435 7.16552 16.9173 6.03059 13.7278L1.94095 2.41765C1.94095 2.43722 1.43218 0.617427 0.355957 0.343479Z" fill="#96151D"/>
<path d="M111.265 16.213C111.246 18.4045 112.4 18.2871 112.4 18.2871V18.4437H106.55V10.5775V10.4209C106.55 10.4992 106.55 8.40544 104.73 8.38588C104.71 8.40544 102.597 8.1902 102.597 12.1429C102.577 12.1624 102.577 16.7804 106.158 16.1934C106.158 16.213 104.906 18.4437 104.906 18.4437C104.906 18.4437 101.99 19.4416 99.5835 16.8783C99.5835 16.8783 97.7441 15.2933 97.7441 12.1624C97.7637 12.182 97.6854 9.22729 99.5835 7.34879C99.5444 7.36836 102.48 4.04185 106.55 6.60522V2.45686C106.55 2.41773 106.647 0.637068 105.473 0.558797V0.402256L111.265 0.187012V16.213Z" fill="#96151D"/>
<path d="M93.8505 7.36835C95.1224 4.98109 97.5684 5.72466 97.5684 5.72466V8.8555C93.694 8.20976 93.8701 11.1254 93.8505 11.1058V16.213C93.831 18.385 94.9268 18.2871 94.9855 18.2871V18.4437H89.1934H85.8474C85.73 18.4632 81.7186 18.5806 81.562 14.8628V12.8473C81.562 12.8473 79.9771 13.1995 79.4879 13.5713C79.4879 13.5713 78.216 14.3736 79.0574 15.7629C79.0574 15.7629 79.6835 16.8587 81.6794 16.4478L80.7011 18.4437H78.7639C78.7639 18.4437 74.2437 18.5415 73.7154 15.215C73.7154 15.1954 73.3045 12.6125 76.3962 11.5558C76.3962 11.5558 77.4528 11.1841 79.4683 10.8318C79.4879 10.8318 81.1902 10.597 81.3468 9.67734C81.3859 9.5208 81.3859 9.32512 81.2881 9.12944C81.3077 9.20771 80.5249 7.11397 75.633 9.22728C75.6526 9.24685 76.6505 6.17472 76.6505 6.17472C76.6505 6.17472 81.2489 4.82455 84.4581 6.80089C84.4385 6.82046 86.1213 7.72057 86.1017 10.5579C86.1017 10.5383 86.1604 14.4714 86.1604 14.4714C86.1604 14.5301 86.1604 16.4673 88.0781 16.5847C88.0781 16.6043 88.8412 16.6043 89.213 16.6043V15.5868V8.05322C89.213 8.01409 89.3108 6.23343 88.1368 6.15515V5.99861L93.8701 5.7638V7.36835H93.8505Z" fill="#96151D"/>
<path d="M51.1342 12.6321C52.8953 12.6321 52.6801 10.1861 52.6801 10.1665C52.6409 8.07278 51.1342 8.13148 51.1342 8.13148C49.471 8.13148 49.5297 10.2252 49.5101 10.2057C49.334 12.5146 50.9973 12.6516 51.1342 12.6321ZM64.225 5.70509V13.8453C64.225 13.8453 64.1859 15.6063 65.7904 15.5868C65.7904 15.5672 67.4928 15.8412 67.5515 13.4148V11.9276V7.97494C67.5515 7.93581 67.6494 6.15515 66.4753 6.07688V5.92033L72.2086 5.70509V16.1934C72.2086 16.2325 72.1108 18.2088 73.3436 18.2676V18.4241H67.5515V16.9369C67.3167 17.1718 66.0252 18.4045 64.0685 18.4437C64.0685 18.4437 59.5288 18.6002 59.5288 14.217C59.5092 14.1779 59.5288 9.55993 59.5288 7.97494H56.0262C56.1631 8.09235 56.3197 8.30759 56.3392 8.30759C58.296 10.8123 56.3979 12.906 56.3784 12.9256C55.126 14.6867 51.056 15.1759 51.056 15.1759L50.8016 15.1954C49.4318 15.2346 49.8623 15.939 49.8623 15.939C50.058 16.4086 51.056 16.3304 51.056 16.3304H53.3845C58.1003 16.3108 58.5895 19.4025 58.6091 19.4025C59.3918 23.7269 55.0282 25.0184 50.6842 24.901C46.3597 24.9206 44.7747 23.0421 44.7943 23.0616C43.6985 21.7897 44.2855 20.0286 46.2227 19.4807C47.6512 19.0894 49.3536 19.4807 49.3536 19.4807C48.0621 19.6569 48.2969 20.9679 48.2969 20.9875C48.7274 22.5333 50.9386 22.5529 51.0755 22.5529C53.8933 22.4159 53.9715 21.0462 53.9715 20.3613C53.9715 19.4807 53.228 18.9524 53.228 18.9524C52.2105 18.2088 50.2732 18.4437 48.9231 18.385C47.0446 18.2871 46.5554 16.5065 46.4576 15.9586C46.3597 15.4107 46.4771 15.1954 46.7902 14.9802C47.3577 14.6475 48.6491 14.491 48.5122 14.5106H48.5317C48.5122 14.5106 48.4926 14.5106 48.4926 14.5106C46.8685 14.0018 45.9097 12.6321 45.8901 12.6321C43.8355 9.67733 46.2227 7.36834 46.2227 7.36834C47.5925 6.03774 49.3536 5.74423 50.919 5.66595H64.225V5.70509Z" fill="#96151D"/>
</g>
<defs>
<clipPath id="clip0_8733_385">
<rect width="113" height="24.9134" fill="white"/>
</clipPath>
</defs>
</svg>
