<svg width="123" height="22" viewBox="0 0 123 22" fill="none" xmlns="http://www.w3.org/2000/svg">
<g clip-path="url(#clip0_8732_329)">
<path d="M24.6954 6.10221C20.2504 6.10221 16.7772 9.47654 16.7772 13.9938C16.7772 18.511 20.1626 21.8565 24.6954 21.8565C29.2282 21.8565 32.6725 18.4533 32.6725 13.9649C32.6725 9.50542 29.2871 6.10221 24.6954 6.10221ZM24.7254 18.601C22.1941 18.601 20.3392 16.635 20.3392 13.9949C20.3392 11.3248 22.1641 9.35991 24.6954 9.35991C27.2567 9.35991 29.1105 11.3547 29.1105 13.9949C29.1105 16.635 27.2567 18.601 24.7254 18.601ZM33.6433 9.5354H35.8513V21.5643H39.3834V6.39544H33.6433V9.5354ZM7.88823 9.3588C9.74311 9.3588 11.2148 10.5028 11.7735 12.2044H15.5121C14.8346 8.56687 11.8323 6.10221 7.91822 6.10221C3.47318 6.10221 0 9.47654 0 13.9949C0 18.5132 3.38543 21.8576 7.91822 21.8576C11.7446 21.8576 14.8057 19.3929 15.4832 15.7254H11.7735C11.2437 17.427 9.77199 18.601 7.91711 18.601C5.35582 18.601 3.56092 16.635 3.56092 13.9949C3.56203 11.3248 5.32805 9.3588 7.88823 9.3588ZM100.754 12.5276L98.1641 12.1467C96.9279 11.9712 96.0449 11.5602 96.0449 10.5917C96.0449 9.5354 97.1934 9.00782 98.7528 9.00782C100.46 9.00782 101.55 9.74089 101.785 10.9438H105.199C104.816 7.89267 102.461 6.10333 98.8417 6.10333C95.103 6.10333 92.6306 8.01041 92.6306 10.7094C92.6306 13.2907 94.25 14.7879 97.5166 15.2566L100.107 15.6376C101.373 15.8131 102.079 16.3129 102.079 17.2515C102.079 18.4544 100.843 18.9531 99.136 18.9531C97.0457 18.9531 95.8683 18.1023 95.6917 16.8116H92.2185C92.5429 19.775 94.8676 21.8576 99.106 21.8576C102.962 21.8576 105.523 20.0971 105.523 17.0749C105.523 14.3759 103.669 12.9675 100.754 12.5276ZM37.6174 0.146613C36.3223 0.146613 35.3504 1.08516 35.3504 2.3758C35.3504 3.66644 36.3212 4.60498 37.6174 4.60498C38.9124 4.60498 39.8843 3.66644 39.8843 2.3758C39.8843 1.08516 38.9124 0.146613 37.6174 0.146613ZM89.4518 11.5891C89.4518 8.30363 87.4503 6.10333 83.2118 6.10333C79.2088 6.10333 76.9719 8.12814 76.5298 11.2381H80.033C80.2096 10.0352 81.1515 9.03781 83.153 9.03781C84.949 9.03781 85.832 9.82974 85.832 10.7983C85.832 12.06 84.2126 12.3821 82.2111 12.5876C79.5032 12.8808 76.1477 13.8194 76.1477 17.3403C76.1477 20.0693 78.1792 21.8287 81.4169 21.8287C83.9482 21.8287 85.5376 20.7724 86.3329 19.0997C86.4506 20.5958 87.5691 21.5643 89.1297 21.5643H91.19V18.4255H89.4529V11.5891H89.4518ZM85.9786 15.4033C85.9786 17.4281 84.2126 18.9242 82.0634 18.9242C80.7383 18.9242 79.6198 18.3666 79.6198 17.1937C79.6198 15.6976 81.4158 15.2866 83.0641 15.1111C84.6535 14.9645 85.5365 14.6124 85.9786 13.9371V15.4033ZM67.2288 6.10221C65.2562 6.10221 63.6079 6.92414 62.4305 8.30252V0H58.8985V21.5643H62.3717V19.5695C63.549 21.0068 65.2273 21.8576 67.2288 21.8576C71.4672 21.8576 74.6761 18.5132 74.6761 13.9949C74.6761 9.47654 71.4084 6.10221 67.2288 6.10221ZM66.699 18.601C64.1677 18.601 62.3128 16.635 62.3128 13.9949C62.3128 11.3547 64.1965 9.35991 66.7278 9.35991C69.2891 9.35991 71.084 11.3259 71.084 13.9949C71.084 16.635 69.2303 18.601 66.699 18.601ZM50.4505 6.10221C48.1546 6.10221 46.653 7.04076 45.7699 8.36139V6.39544H42.2668V21.5632H45.7988V13.3196C45.7988 11.0015 47.2705 9.3588 49.4486 9.3588C51.4801 9.3588 52.7452 10.7961 52.7452 12.8797V21.5643H56.2772V12.6165C56.2783 8.80123 54.3068 6.10221 50.4505 6.10221ZM122.36 13.4962C122.36 9.15443 119.181 6.10333 114.912 6.10333C110.38 6.10333 107.053 9.50653 107.053 13.9949C107.053 18.7187 110.615 21.8576 114.971 21.8576C118.651 21.8576 121.536 19.6861 122.271 16.6062H118.591C118.061 17.9557 116.766 18.7187 115.029 18.7187C112.762 18.7187 111.055 17.3103 110.673 14.8457H122.359V13.4962H122.36ZM110.879 12.3222C111.439 10.2096 113.029 9.18331 114.854 9.18331C116.855 9.18331 118.386 10.3273 118.739 12.3222H110.879Z" fill="#0052FF"/>
</g>
<defs>
<clipPath id="clip0_8732_329">
<rect width="122.36" height="21.8576" fill="white"/>
</clipPath>
</defs>
</svg>
