<svg width="59" height="23" viewBox="0 0 59 23" fill="none"
  xmlns="http://www.w3.org/2000/svg">
  <path fill-rule="evenodd" clip-rule="evenodd" d="M31.0209 7.61757C30.526 7.20129 29.6813 6.99339 28.4863 6.99339H25.791V15.3227H27.8064V12.7122H28.7092C29.8049 12.7122 30.6084 12.471 31.1197 11.9883C31.6957 11.4474 31.9855 10.7272 31.9855 9.8282C31.9855 8.8959 31.6639 8.15887 31.0209 7.61757ZM28.6591 10.8275H27.8064V8.87811H28.5724C29.5043 8.87811 29.9702 9.20495 29.9702 9.85863C29.9702 10.5039 29.5328 10.8275 28.6591 10.8275ZM35.4342 6.99292H33.3327V15.3222H37.8701V13.437H35.4342V6.99292ZM41.9875 6.99292L38.6863 15.3222H40.9489L41.3815 14.1113H44.2501L44.6457 15.3222H46.9336L43.6558 6.99292H41.9875ZM41.9626 12.4251L42.8284 9.57815L43.6807 12.4251H41.9626Z" fill="currentColor"/>
  <path fill-rule="evenodd" clip-rule="evenodd" d="M47.9834 15.3222H50.0854V6.9929H47.9834V15.3222ZM58.2461 8.55406C57.9806 8.16909 57.6397 7.84204 57.244 7.59274C56.6096 7.19285 55.7438 6.99337 54.6476 6.99337H51.8783V15.3222H55.1177C56.2883 15.3222 57.2277 14.9396 57.9366 14.1736C58.6455 13.408 58.9995 12.3919 58.9995 11.1262C58.9995 10.1194 58.7485 9.26206 58.2461 8.55406ZM54.8826 13.4365H53.9803V8.87856H54.8953C55.5382 8.87856 56.0322 9.07991 56.3787 9.48121C56.7252 9.8825 56.8985 10.4519 56.8985 11.1889C56.8985 12.6873 56.2265 13.4365 54.8826 13.4365ZM8.72685 0L1.91516 1.78405L0.0379286 8.63413L2.38575 11.0447L0 13.4155L1.76672 20.2955L8.54891 22.1906L10.9351 19.8193L13.283 22.2294L20.0947 20.4454L21.9714 13.5948L19.6241 11.1852L22.0098 8.81441L20.2431 1.93389L13.46 0.0388651L11.0747 2.40963L8.72685 0ZM4.54675 3.10171L8.13498 2.16146L9.7041 3.77225L7.41574 6.04609L4.54675 3.10171ZM12.4237 3.79379L14.0181 2.20969L17.5909 3.20801L14.6751 6.10509L12.4237 3.79379ZM2.18768 8.07176L3.17617 4.46386L6.04422 7.40825L3.75633 9.68209L2.18768 8.07129V8.07176ZM16.0232 7.48972L18.939 4.5917L19.869 8.21598L18.275 9.80056L16.0232 7.48972ZM8.76431 7.43025L11.0527 5.15641L13.3036 7.46771L11.0157 9.74156L8.76431 7.43025ZM5.10537 11.0662L7.39326 8.7924L9.64556 11.1037L7.35674 13.3775L5.10537 11.0662ZM12.3647 11.1257L14.6526 8.85187L16.904 11.1632L14.6156 13.437L12.3647 11.1257ZM2.13992 14.0134L3.73479 12.4284L5.98569 14.7402L3.07081 17.6368L2.13992 14.0134ZM8.70531 14.7617L10.9937 12.4879L13.245 14.7992L10.9571 17.073L8.70531 14.7617ZM15.9642 14.8216L18.2525 12.5478L19.8217 14.1581L18.8336 17.766L15.9642 14.8216ZM4.41891 19.0219L7.33426 16.1239L9.58656 18.4352L7.99169 20.0202L4.41891 19.0219ZM12.3057 18.4572L14.5936 16.1833L17.4621 19.1282L13.8744 20.068L12.3057 18.4572Z" fill="currentColor"/>
</svg>
