<svg xmlns="http://www.w3.org/2000/svg" width="160" height="40" viewBox="0 0 160 25" fill="none"><path clip-rule="evenodd" d="M62.6792 7.50872L62.6761 7.50679C62.6761 7.50679 62.6747 7.50562 62.6729 7.50562C62.6038 7.47437 62.5284 7.45813 62.4562 7.45813C62.3386 7.45898 62.2259 7.49541 62.1277 7.55931C62.0276 7.62524 61.9428 7.72138 61.8943 7.84166V7.84463L59.6011 14.3663L57.8338 9.99498L57.8311 9.9931C57.7813 9.87089 57.6924 9.77644 57.5915 9.7107C57.4896 9.64477 57.372 9.60849 57.2482 9.60849C57.1279 9.60849 57.0157 9.64769 56.917 9.71155C56.8191 9.77733 56.7312 9.87089 56.6818 9.9931L56.6805 9.99498L54.9096 14.3691L52.6043 7.85032H52.6025C52.5625 7.7243 52.4804 7.62609 52.383 7.56119C52.2843 7.49541 52.1685 7.45898 52.0491 7.45813C51.9728 7.45813 51.8961 7.47437 51.8229 7.50562H51.8198L51.8171 7.50872C51.6021 7.61282 51.4707 7.83597 51.4702 8.07917C51.4702 8.15564 51.4846 8.23178 51.5128 8.30722L54.3477 16.22V16.2227C54.3697 16.2818 54.4011 16.3401 54.4469 16.3974C54.4801 16.4383 54.529 16.4728 54.5793 16.5015C54.5887 16.5108 54.6031 16.5241 54.6251 16.5384C54.6489 16.5538 54.6794 16.5645 54.7103 16.57C54.7611 16.5875 54.8279 16.6128 54.9177 16.6128C55.0326 16.6128 55.1389 16.57 55.2345 16.5061C55.3238 16.4442 55.4037 16.3515 55.4477 16.2314L55.4549 16.2257L57.2482 11.7711L59.0437 16.2075H59.0455C59.0868 16.3258 59.1595 16.4185 59.2439 16.4843C59.3332 16.5538 59.4328 16.5968 59.5387 16.6128H59.6141C59.6854 16.6128 59.7555 16.5987 59.8138 16.5748C59.8753 16.5502 59.9251 16.5175 59.9664 16.4853C60.0629 16.4088 60.1369 16.3039 60.1831 16.1874V16.1848L63.0005 8.30722C63.0284 8.23178 63.0427 8.15654 63.0427 8.08039C63.0418 7.83893 62.9049 7.609 62.6792 7.50872ZM49.7164 12.0261C49.7164 11.0969 49.3731 10.2553 48.8269 9.64769C48.2776 9.03889 47.534 8.66675 46.7262 8.66675C45.9184 8.66675 45.173 9.03889 44.6249 9.64769C44.0776 10.2553 43.7343 11.0969 43.7343 12.0261C43.7343 12.9544 44.0776 13.7881 44.6249 14.3919C45.173 14.9979 45.9184 15.3642 46.7262 15.3642C47.534 15.3642 48.2803 14.9979 48.8269 14.3919C49.3731 13.7881 49.7164 12.9544 49.7164 12.0261ZM49.7007 8.80035C50.4591 9.63611 50.92 10.7829 50.9218 12.0261C50.92 13.2692 50.4591 14.4148 49.7007 15.2507C48.9481 16.0853 47.8971 16.613 46.728 16.613C45.5684 16.613 44.5156 16.0853 43.7602 15.2507C43.0036 14.4148 42.5353 13.2692 42.5353 12.0261C42.5353 10.7829 43.0036 9.63611 43.7602 8.80035C44.5156 7.96646 45.5684 7.43898 46.728 7.43898C47.8971 7.43898 48.9481 7.96646 49.7007 8.80035ZM37.7615 7.45522C36.8213 7.45522 35.9631 7.83597 35.3223 8.44355V8.08039C35.3213 7.91333 35.2617 7.75762 35.1569 7.64317C35.0552 7.53065 34.9044 7.45522 34.7393 7.45522C34.5683 7.45522 34.4142 7.52665 34.3069 7.64213C34.2013 7.75573 34.138 7.91333 34.138 8.08039V16.1771L34.1627 16.2027L34.1637 16.2067C34.1702 16.2334 34.1865 16.2629 34.2039 16.2914C34.2857 16.4412 34.4197 16.5548 34.5858 16.6052L34.6097 16.613H34.7393C34.8257 16.613 34.9127 16.594 34.9954 16.5538C35.0643 16.5195 35.1285 16.4642 35.1799 16.3936L35.1818 16.3945C35.1881 16.3879 35.1901 16.3793 35.1974 16.3727C35.2002 16.3717 35.2029 16.3688 35.2047 16.3658C35.2367 16.323 35.2635 16.2792 35.2801 16.2381C35.2976 16.1894 35.3085 16.1435 35.3168 16.1083L35.3223 16.0853V11.2236C35.3397 10.5282 35.6151 9.89955 36.0568 9.44246C36.4955 8.98571 37.0967 8.70317 37.7615 8.70317C38.4373 8.70317 39.0403 8.98571 39.4773 9.44246C39.9161 9.8978 40.1824 10.5254 40.1824 11.2171V15.9911C40.1824 16.1654 40.2539 16.3268 40.3624 16.4375C40.4734 16.5479 40.6248 16.613 40.7828 16.613C40.9434 16.613 41.0941 16.5479 41.2042 16.4375C41.3162 16.3268 41.3841 16.1654 41.3841 15.9911V11.2171C41.3841 9.15644 39.7646 7.45813 37.7615 7.45522ZM96.9417 11.1406C96.6001 9.701 95.384 8.6754 93.9959 8.67832C92.5729 8.67832 91.3728 9.68204 91.0013 11.1406H96.9417ZM98.257 11.7304V11.7922C98.257 11.965 98.183 12.1205 98.0703 12.2227C97.9581 12.3256 97.8123 12.3791 97.6552 12.381H90.9178C91.0892 14.0894 92.4019 15.351 93.969 15.3642H94.3666C94.8849 15.3661 95.3903 15.18 95.8345 14.8719C96.2797 14.5667 96.6643 14.1402 96.9354 13.6707C96.991 13.5706 97.0714 13.4943 97.1584 13.4475C97.2473 13.397 97.3429 13.374 97.4394 13.374C97.5457 13.374 97.6512 13.4027 97.7441 13.4608L97.7504 13.4637L97.758 13.4694C97.9267 13.5982 98.0326 13.7948 98.0326 14.0106C98.0326 14.1202 98.0048 14.2318 97.9469 14.3328L97.9451 14.3368L97.9433 14.3385C97.5668 14.9608 97.0534 15.5283 96.444 15.9396C95.8336 16.3517 95.1259 16.613 94.3666 16.613H93.9627C92.7802 16.6043 91.7117 16.0853 90.9411 15.2554C90.1728 14.4283 89.6994 13.292 89.6994 12.0434C89.6994 10.7734 90.1769 9.62096 90.9514 8.78708C91.7265 7.95423 92.8031 7.43898 93.9959 7.43898C95.134 7.43898 96.1568 7.90933 96.9143 8.67936C97.6718 9.44919 98.1664 10.5185 98.2548 11.7216L98.257 11.7304ZM70.6211 3.67057C70.4569 3.67057 70.3065 3.74221 70.1984 3.85475C70.0898 3.96643 70.0211 4.12384 70.0211 4.29455V15.9911C70.0211 16.1618 70.0898 16.3182 70.1984 16.429C70.3065 16.5395 70.4569 16.613 70.6211 16.613C70.9618 16.613 71.2373 16.3344 71.2391 15.9911V4.29455C71.2373 3.9502 70.9618 3.67057 70.6211 3.67057ZM31.36 11.8027C30.8751 11.5652 30.3252 11.3897 29.7764 11.2008C29.2714 11.0234 28.759 10.8725 28.3936 10.6742C28.2101 10.572 28.0669 10.4643 27.9742 10.3431C27.8795 10.2221 27.8337 10.0989 27.8309 9.93093C27.8319 9.701 27.8961 9.51597 28.0044 9.35183C28.1687 9.10675 28.4441 8.91583 28.7452 8.79258C29.0427 8.669 29.365 8.61065 29.5954 8.61065C30.2765 8.61169 30.7072 8.84731 31.0378 9.09136C31.201 9.21461 31.3389 9.33941 31.4693 9.44246C31.5362 9.49597 31.5987 9.54463 31.6712 9.58072C31.7399 9.61611 31.8207 9.64477 31.909 9.64477C31.9649 9.64477 32.0211 9.63423 32.0722 9.61145C32.1263 9.58868 32.1734 9.55602 32.2184 9.51597C32.2624 9.47319 32.3001 9.42157 32.3267 9.36425C32.3506 9.30505 32.3615 9.24411 32.3615 9.18406C32.3615 9.07324 32.3275 8.96933 32.2788 8.87183C32.188 8.70025 32.0483 8.53625 31.8704 8.37211C31.606 8.12788 31.2572 7.89503 30.8816 7.71964C30.5051 7.54411 30.1013 7.42468 29.7166 7.42468C28.8251 7.42468 28.0807 7.63456 27.5398 8.02119C27.258 8.22331 27.0102 8.44458 26.8349 8.74995C26.6567 9.05616 26.5575 9.43399 26.5447 9.92524C26.5439 9.94717 26.5439 9.9691 26.5439 9.99103C26.5421 10.4681 26.6897 10.8613 26.922 11.1692C27.2746 11.6331 27.798 11.9106 28.3112 12.1072C28.8235 12.3036 29.3356 12.421 29.6588 12.5336C30.114 12.691 30.5979 12.8617 30.9504 13.0878C31.1259 13.2033 31.2681 13.3274 31.3646 13.4637C31.4583 13.6041 31.5113 13.7489 31.5133 13.9322V13.9457C31.5123 14.2108 31.4372 14.4188 31.3131 14.5971C31.1259 14.8624 30.8147 15.0569 30.484 15.18C30.1546 15.3003 29.8121 15.351 29.5917 15.351C28.8142 15.351 28.2938 15.1562 27.9164 14.9608C27.7272 14.8624 27.5739 14.7651 27.4352 14.6829C27.3664 14.6439 27.3022 14.6076 27.2342 14.579C27.1681 14.5505 27.0975 14.532 27.0177 14.532C26.969 14.532 26.9158 14.5408 26.867 14.5607C26.8175 14.5827 26.7725 14.6133 26.7347 14.6504C26.6825 14.7033 26.6366 14.7621 26.6046 14.8299C26.5733 14.8978 26.5575 14.9692 26.5575 15.0436C26.5575 15.1659 26.6015 15.2775 26.6642 15.3785C26.7623 15.5243 26.9065 15.6552 27.0864 15.7859C27.2717 15.9146 27.4932 16.0417 27.7483 16.1667C28.3139 16.4442 29.0391 16.5892 29.59 16.5987H29.5917C30.4484 16.5987 31.1882 16.3936 31.8116 15.9167V15.9155H31.8124C32.422 15.4386 32.8012 14.7297 32.8012 13.9293C32.8012 13.4895 32.7021 13.1164 32.5287 12.8113C32.267 12.3485 31.8418 12.0434 31.36 11.8027ZM79.6751 12.0261C79.6751 11.0881 79.3345 10.2477 78.7901 9.64115C78.2462 9.03616 77.5004 8.669 76.6841 8.66693C75.874 8.66693 75.1309 9.03616 74.5816 9.64115C74.0363 10.2477 73.6912 11.0881 73.6912 12.0261C73.6912 12.963 74.0363 13.7979 74.5816 14.3996C75.1277 15.0017 75.874 15.3642 76.6841 15.3642C77.5022 15.3642 78.2485 15.0017 78.7919 14.4017C79.3345 13.7979 79.6751 12.9639 79.6751 12.0261ZM80.6961 7.61282C80.8069 7.7243 80.8756 7.88571 80.8756 8.06002V15.9911C80.8756 16.1618 80.8056 16.3182 80.6997 16.429C80.5911 16.5395 80.4416 16.613 80.2765 16.613C80.1113 16.613 79.9597 16.5395 79.8533 16.429C79.7447 16.3182 79.6751 16.1618 79.6751 15.9911V15.2173C78.9194 16.0655 77.8581 16.613 76.6841 16.613C75.5155 16.613 74.4631 16.0912 73.7096 15.2554C72.953 14.4236 72.4903 13.2777 72.4903 12.0261C72.4903 10.7745 72.953 9.6275 73.7096 8.79484C74.4631 7.95992 75.5155 7.43898 76.6841 7.43898C77.8576 7.43898 78.9194 7.9706 79.6751 8.8147V8.06002C79.6751 7.88571 79.7438 7.7243 79.8551 7.61282C79.9659 7.50303 80.1158 7.43898 80.2765 7.43898C80.4354 7.43898 80.5866 7.50303 80.6961 7.61282ZM89.1725 8.417C89.2919 8.2939 89.3565 8.1306 89.3565 7.96853C89.3565 7.80924 89.2919 7.64976 89.1712 7.53428H89.1725C89.1712 7.53065 89.1685 7.53065 89.1685 7.53065C89.168 7.52769 89.1658 7.52665 89.1658 7.52665H89.164C89.0482 7.40844 88.8997 7.34355 88.7462 7.34355C88.5914 7.34355 88.4397 7.41065 88.3239 7.53065L83.6302 12.2846V4.29455C83.6302 3.9502 83.3528 3.67057 83.0122 3.67057C82.848 3.67057 82.6976 3.74221 82.5899 3.85475C82.4831 3.96643 82.4117 4.12384 82.4117 4.29455V15.9911C82.4117 16.1618 82.4831 16.3182 82.5899 16.429C82.6976 16.5395 82.848 16.613 83.0122 16.613C83.3528 16.613 83.6302 16.3344 83.6302 15.9911V14.061L85.1587 12.4745L88.2745 16.3812C88.3333 16.4709 88.4132 16.5327 88.4922 16.5653C88.5819 16.6007 88.6694 16.613 88.7471 16.613C88.8548 16.613 89.006 16.5892 89.1393 16.4804L89.1469 16.4758L89.1546 16.467C89.2793 16.3392 89.3502 16.1694 89.3502 15.9957C89.3502 15.8497 89.2982 15.7009 89.2017 15.5819V15.5799L86.0298 11.5728L89.1694 8.417H89.1725ZM68.1444 3.69837H68.0102C67.9927 3.69837 67.9756 3.70026 67.9572 3.70095C67.9406 3.70026 67.9231 3.69837 67.9056 3.69837C67.5596 3.69837 67.2235 3.73927 66.9093 3.84802C66.6001 3.95486 66.3147 4.13144 66.0935 4.3995L66.0926 4.39847L66.0917 4.3995V4.40037C65.8633 4.66463 65.7125 4.98049 65.6209 5.33936C65.5289 5.69992 65.4912 6.10628 65.4876 6.56802V7.46209H64.5389C64.2095 7.46402 63.9479 7.73776 63.9479 8.06882C63.9461 8.24712 64.013 8.41131 64.1216 8.52971C64.2306 8.64604 64.3801 8.72232 64.5465 8.73183H65.4876V16.0063L65.4863 16.0234C65.4863 16.1941 65.5554 16.3515 65.6667 16.4642C65.7766 16.5748 65.931 16.6406 66.0989 16.6406C66.4184 16.6389 66.6809 16.3679 66.6818 16.0234V8.73183H67.7019C67.8661 8.72232 68.0178 8.6507 68.126 8.53522C68.2373 8.41992 68.305 8.25785 68.305 8.08213V8.05846C68.3014 7.73103 68.038 7.46209 67.7082 7.46209H66.6818V6.57178C66.6885 6.1779 66.7276 5.88308 66.7846 5.66853C66.8398 5.45277 66.9152 5.31729 66.9829 5.23338C67.0494 5.15898 67.1355 5.09686 67.276 5.04712C67.4173 4.99969 67.6126 4.9691 67.8773 4.9691H67.9083C67.924 4.9691 67.9406 4.96618 67.9554 4.96618C67.9738 4.96618 67.9909 4.9691 68.0102 4.9691H68.0874H68.1444C68.4827 4.9691 68.756 4.68483 68.756 4.33357C68.756 3.98265 68.4827 3.69837 68.1444 3.69837ZM7.67882 12.439C7.72747 12.2796 7.74775 12.1155 7.74407 11.9534C7.73846 11.836 7.72383 11.7188 7.69174 11.6015C7.59526 11.2371 7.3667 10.9115 7.02419 10.7063L2.153 7.78336C1.46535 7.37202 0.588678 7.61658 0.194023 8.33018C-0.20445 9.0427 0.0305809 9.95268 0.718234 10.3651L3.44027 12.0011L0.718234 13.6325C0.0305809 14.0456 -0.20362 14.9558 0.194023 15.6713C0.588678 16.3829 1.46535 16.6263 2.153 16.215L7.02419 13.2901C7.35292 13.0935 7.576 12.7852 7.67882 12.439ZM9.00081 15.1781C8.72091 15.1532 8.42993 15.2143 8.16816 15.3728L3.29328 18.2938C2.60745 18.706 2.37325 19.6209 2.76907 20.3347C3.16671 21.0465 4.04255 21.2916 4.72737 20.8775L7.45856 19.2403V22.5117C7.45856 23.336 8.10021 24.0038 8.89432 24.0038C9.68461 24.0038 10.3283 23.336 10.3283 22.5117V16.6634C10.3283 15.8782 9.74259 15.2333 9.00081 15.1781ZM13.9931 8.82209C14.2721 8.84609 14.5623 8.78411 14.8241 8.62755L19.6979 5.70373C20.3848 5.29136 20.6178 4.38034 20.223 3.6647C19.8273 2.95235 18.9507 2.70793 18.2648 3.11995L15.5355 4.75903V1.48654C15.5355 0.664582 14.8938 -0.00341797 14.0997 -0.00341797C13.3056 -0.00341797 12.6656 0.664582 12.6656 1.48654V7.33489C12.6656 8.11922 13.2496 8.76515 13.9931 8.82209ZM3.29328 5.70373L8.16816 8.62755C8.42993 8.78411 8.72091 8.84609 9.00081 8.82209C9.74259 8.76515 10.3283 8.11922 10.3283 7.33489V1.48654C10.3283 0.664582 9.68461 -0.00341797 8.89432 -0.00341797C8.10021 -0.00341797 7.45856 0.664582 7.45856 1.48654V4.75903L4.72737 3.11995C4.04255 2.70793 3.16671 2.95235 2.76907 3.6647C2.37325 4.38034 2.60745 5.29136 3.29328 5.70373ZM12.4545 11.9888C12.4545 11.9039 12.405 11.7855 12.3472 11.7227L11.7605 11.1157C11.7027 11.0558 11.5888 11.0061 11.5069 11.0061H11.4841C11.4024 11.0061 11.2887 11.0558 11.2317 11.1157L10.645 11.7227C10.5862 11.7855 10.5412 11.9039 10.5412 11.9888V12.0126C10.5412 12.0965 10.5862 12.2139 10.645 12.275L11.2317 12.8836C11.2895 12.9437 11.4024 12.9932 11.4841 12.9932H11.5069C11.5888 12.9932 11.7027 12.9437 11.7605 12.8836L12.3472 12.275C12.405 12.2139 12.4545 12.0965 12.4545 12.0126V11.9888ZM14.074 12.5725L12.0479 14.6755C11.9899 14.7372 11.878 14.7878 11.7936 14.7878H11.6466H11.3473H11.1978C11.1159 14.7878 11.0021 14.7372 10.9433 14.6755L8.91824 12.5725C8.86026 12.5133 8.81345 12.3942 8.81345 12.3102V12.1547V11.8436V11.6902C8.81345 11.6042 8.86026 11.485 8.91824 11.4249L10.9433 9.32213C11.0021 9.2602 11.1159 9.2115 11.1978 9.2115H11.3473H11.6466H11.7936C11.8761 9.2115 11.9899 9.2602 12.0479 9.32213L14.074 11.4249C14.1318 11.485 14.1786 11.6042 14.1786 11.6902V11.8436V12.1547V12.3102C14.1786 12.3942 14.1318 12.5133 14.074 12.5725ZM19.6979 18.2938L14.8241 15.3728C14.5623 15.2143 14.2721 15.1532 13.9931 15.1781C13.2496 15.2333 12.6656 15.8782 12.6656 16.6634V22.5117C12.6656 23.336 13.3056 24.0038 14.0997 24.0038C14.8938 24.0038 15.5355 23.336 15.5355 22.5117V19.2403L18.2648 20.8775C18.9505 21.2916 19.8273 21.0465 20.223 20.3347C20.6178 19.6209 20.3848 18.706 19.6979 18.2938ZM22.275 10.3651L19.5528 12.0011L22.275 13.6325C22.9625 14.0456 23.1975 14.9558 22.8 15.6713C22.4034 16.3829 21.5259 16.6263 20.8409 16.215L15.966 13.2901C15.6409 13.0935 15.4153 12.7852 15.3151 12.439C15.2674 12.2796 15.2453 12.1155 15.2508 11.9534C15.2536 11.836 15.2701 11.7188 15.3013 11.6015C15.3988 11.2371 15.6273 10.9117 15.966 10.7063L20.8409 7.78336C21.5259 7.37202 22.4034 7.61658 22.8 8.33018C23.1975 9.0427 22.9625 9.95268 22.275 10.3651ZM101.327 7.44726C101.327 8.26731 100.799 8.95173 99.9166 8.95173C99.0401 8.95173 98.5182 8.26077 98.5182 7.44726C98.5182 6.62722 99.0401 5.94265 99.9166 5.94265C100.799 5.94265 101.327 6.62722 101.327 7.44726ZM101.047 7.44726C101.047 6.74995 100.6 6.2202 99.9166 6.2202C99.2452 6.2202 98.7978 6.72388 98.7978 7.44726C98.7978 8.13804 99.2452 8.67399 99.9166 8.67399C100.6 8.67399 101.047 8.14463 101.047 7.44726ZM99.3632 6.7691H99.966C100.295 6.7691 100.513 6.95635 100.513 7.24689C100.513 7.42778 100.426 7.56326 100.295 7.64731L100.531 8.00237V8.07348H100.19L99.9597 7.73122H99.6926V8.07348H99.3632V6.7691ZM99.9597 7.08566H99.6926V7.42778H99.9597C100.084 7.42778 100.165 7.36957 100.165 7.25997C100.165 7.14364 100.09 7.08566 99.9597 7.08566Z" fill="#29B5E8"></path></svg>