<svg width="160" height="40" viewBox="0 0 160 40" fill="none" xmlns="http://www.w3.org/2000/svg">
<path d="M30.7428 18.5426L21.7647 23.6097L12.1507 18.1958L11.6884 18.4463V22.3766L21.7647 28.041L30.7428 22.9932V25.0739L21.7647 30.141L12.1507 24.7271L11.6884 24.9776V25.6519L21.7647 31.3162L31.8217 25.6519V21.7216L31.3594 21.4711L21.7647 26.8657L12.7673 21.8179V19.7371L21.7647 24.7849L31.8217 19.1206V15.2481L31.3208 14.9591L21.7647 20.3344L13.2297 15.5563L21.7647 10.759L28.7777 14.7086L29.3942 14.3618V13.8801L21.7647 9.58374L11.6884 15.2481V15.8646L21.7647 21.5289L30.7428 16.4618V18.5426Z" fill="#EE3D2C"/>
<path d="M50.645 28.0988V10.7975H47.9862V17.2711C47.9862 17.3674 47.9284 17.4445 47.8321 17.483C47.7358 17.5215 47.6394 17.483 47.5816 17.4252C46.6761 16.3655 45.2697 15.7683 43.7284 15.7683C40.4338 15.7683 37.8521 18.5426 37.8521 22.0877C37.8521 23.8216 38.4494 25.4207 39.5476 26.596C40.6457 27.7712 42.1293 28.407 43.7284 28.407C45.2504 28.407 46.6569 27.7712 47.5816 26.6731C47.6394 26.596 47.755 26.5767 47.8321 26.596C47.9284 26.6345 47.9862 26.7116 47.9862 26.8079V28.0988H50.645ZM44.3064 25.9987C42.1871 25.9987 40.5301 24.284 40.5301 22.0877C40.5301 19.8913 42.1871 18.1766 44.3064 18.1766C46.4257 18.1766 48.0826 19.8913 48.0826 22.0877C48.0826 24.284 46.4257 25.9987 44.3064 25.9987Z" fill="black"/>
<path d="M64.8636 28.0988V16.0573H62.2241V17.2711C62.2241 17.3674 62.1663 17.4445 62.07 17.483C61.9736 17.5215 61.8773 17.483 61.8195 17.4059C60.9332 16.3463 59.5461 15.749 57.9662 15.749C54.6717 15.749 52.09 18.5234 52.09 22.0684C52.09 25.6134 54.6717 28.3878 57.9662 28.3878C59.4883 28.3878 60.8947 27.752 61.8195 26.6345C61.8773 26.5575 61.9929 26.5382 62.07 26.5575C62.1663 26.596 62.2241 26.6731 62.2241 26.7694V28.0795H64.8636V28.0988ZM58.5635 25.9988C56.4442 25.9988 54.7873 24.284 54.7873 22.0877C54.7873 19.8913 56.4442 18.1766 58.5635 18.1766C60.6828 18.1766 62.3397 19.8913 62.3397 22.0877C62.3397 24.284 60.6828 25.9988 58.5635 25.9988Z" fill="black"/>
<path d="M87.4631 28.0988V16.0573H84.8236V17.2711C84.8236 17.3674 84.7658 17.4445 84.6694 17.483C84.5731 17.5215 84.4768 17.483 84.419 17.4059C83.5327 16.3463 82.1456 15.749 80.5657 15.749C77.2519 15.749 74.6895 18.5234 74.6895 22.0877C74.6895 25.652 77.2712 28.4071 80.5657 28.4071C82.0878 28.4071 83.4942 27.7713 84.419 26.6538C84.4768 26.5767 84.5924 26.5575 84.6694 26.5767C84.7658 26.6153 84.8236 26.6923 84.8236 26.7887V28.0988H87.4631ZM81.163 25.9988C79.0437 25.9988 77.3867 24.284 77.3867 22.0877C77.3867 19.8913 79.0437 18.1766 81.163 18.1766C83.2823 18.1766 84.9392 19.8913 84.9392 22.0877C84.9392 24.284 83.2823 25.9988 81.163 25.9988Z" fill="black"/>
<path d="M92.299 26.6731C92.3182 26.6731 92.3568 26.6538 92.376 26.6538C92.4338 26.6538 92.5109 26.6923 92.5494 26.7309C93.455 27.7905 94.8614 28.3878 96.4027 28.3878C99.6973 28.3878 102.279 25.6134 102.279 22.0684C102.279 20.3344 101.682 18.7353 100.584 17.5601C99.4853 16.3848 98.0018 15.749 96.4027 15.749C94.8807 15.749 93.4742 16.3848 92.5494 17.483C92.4916 17.5601 92.3953 17.5793 92.299 17.5601C92.2026 17.5215 92.1449 17.4445 92.1449 17.3481V10.7975H89.4861V28.0988H92.1449V26.885C92.1449 26.7887 92.2026 26.7116 92.299 26.6731ZM92.0293 22.0877C92.0293 19.8913 93.6862 18.1766 95.8055 18.1766C97.9248 18.1766 99.5817 19.8913 99.5817 22.0877C99.5817 24.284 97.9248 25.9987 95.8055 25.9987C93.6862 25.9987 92.0293 24.2648 92.0293 22.0877Z" fill="black"/>
<path d="M109.966 18.5234C110.217 18.5234 110.448 18.5427 110.602 18.5812V15.8454C110.506 15.8261 110.332 15.8068 110.159 15.8068C108.772 15.8068 107.5 16.5197 106.826 17.6564C106.768 17.7527 106.672 17.7913 106.575 17.7527C106.479 17.7335 106.402 17.6371 106.402 17.5408V16.0573H103.762V28.1181H106.421V22.8005C106.421 20.161 107.77 18.5234 109.966 18.5234Z" fill="black"/>
<path d="M114.976 16.0573H112.278V28.118H114.976V16.0573Z" fill="black"/>
<path d="M113.588 10.8168C112.683 10.8168 111.951 11.5489 111.951 12.4544C111.951 13.3599 112.683 14.0921 113.588 14.0921C114.494 14.0921 115.226 13.3599 115.226 12.4544C115.226 11.5489 114.494 10.8168 113.588 10.8168Z" fill="black"/>
<path d="M122.875 15.749C119.176 15.749 116.498 18.4078 116.498 22.0877C116.498 23.8794 117.133 25.4786 118.27 26.6345C119.426 27.7905 121.044 28.4263 122.855 28.4263C124.358 28.4263 125.514 28.1373 127.711 26.5189L126.189 24.9198C125.11 25.6327 124.108 25.9795 123.125 25.9795C120.89 25.9795 119.214 24.3033 119.214 22.0877C119.214 19.872 120.89 18.1959 123.125 18.1959C124.185 18.1959 125.167 18.5427 126.15 19.2555L127.845 17.6564C125.861 15.961 124.069 15.749 122.875 15.749Z" fill="black"/>
<path d="M132.392 22.8005C132.431 22.7619 132.489 22.7427 132.547 22.7427H132.566C132.624 22.7427 132.681 22.7812 132.739 22.8197L136.997 28.0987H140.272L134.762 21.4326C134.685 21.3362 134.685 21.2014 134.781 21.1243L139.848 16.0572H136.592L132.219 20.45C132.161 20.5078 132.065 20.527 131.969 20.5078C131.891 20.4692 131.834 20.3922 131.834 20.2958V10.8168H129.156V28.118H131.814V23.417C131.814 23.3592 131.834 23.2821 131.891 23.2436L132.392 22.8005Z" fill="black"/>
<path d="M144.607 28.407C146.784 28.407 149 27.0776 149 24.5537C149 22.8968 147.96 21.7601 145.84 21.0665L144.395 20.5849C143.413 20.2573 142.95 19.7949 142.95 19.1592C142.95 18.427 143.605 17.9261 144.53 17.9261C145.416 17.9261 146.206 18.5041 146.707 19.506L148.846 18.35C148.056 16.7316 146.418 15.7297 144.53 15.7297C142.141 15.7297 140.407 17.271 140.407 19.3711C140.407 21.0473 141.409 22.1647 143.471 22.8198L144.954 23.3014C145.994 23.629 146.438 24.0528 146.438 24.7271C146.438 25.7483 145.493 26.1143 144.684 26.1143C143.605 26.1143 142.642 25.4207 142.18 24.284L140.003 25.44C140.715 27.2703 142.469 28.407 144.607 28.407Z" fill="black"/>
<path d="M72.2619 28.2914C73.1096 28.2914 73.861 28.2143 74.2849 28.1565V25.8446C73.9381 25.8831 73.3216 25.9216 72.9555 25.9216C71.8766 25.9216 71.0481 25.729 71.0481 23.3977V18.4463C71.0481 18.3114 71.1445 18.2151 71.2793 18.2151H73.8803V16.038H71.2793C71.1445 16.038 71.0481 15.9416 71.0481 15.8068V12.3388H68.3894V15.826C68.3894 15.9609 68.293 16.0572 68.1582 16.0572H66.3086V18.2343H68.1582C68.293 18.2343 68.3894 18.3307 68.3894 18.4655V24.072C68.3894 28.2914 71.2023 28.2914 72.2619 28.2914Z" fill="black"/>
</svg>
