<svg width="160" height="40" viewBox="0 0 160 40" fill="none" xmlns="http://www.w3.org/2000/svg">
<path d="M48.8302 19.9161H43.9902V15.0491H49.0932C50.9612 15.0491 51.8952 15.8721 51.8952 17.5201C51.8952 19.1181 50.8732 19.9161 48.8302 19.9161ZM52.3092 14.9921C51.6422 14.3981 50.7182 14.1011 49.5252 14.1011L42.5952 14.1391V25.7841H43.9912L43.9782 20.8271H49.1362C50.4292 20.8271 51.4472 20.5301 52.1902 19.9361C52.9332 19.3421 53.3052 18.5181 53.3052 17.4641C53.3052 16.4101 52.9732 15.5861 52.3102 14.9921H52.3092ZM61.3482 23.3391C61.2152 23.7191 60.9862 24.0611 60.6852 24.3291C60.0602 24.9401 59.1052 25.2451 57.8222 25.2451C56.6622 25.2451 55.7722 24.9531 55.1522 24.3551C54.5322 23.7571 54.2212 22.9671 54.2212 21.9721C54.2212 21.4541 54.3022 20.9941 54.4652 20.5921C54.6189 20.2037 54.8605 19.8562 55.1712 19.5771C55.8132 18.9921 56.6972 18.6991 57.8222 18.6991C60.3142 18.6991 61.5622 19.7891 61.5622 21.9721C61.5622 22.4901 61.4902 22.9461 61.3522 23.3391H61.3482ZM61.6062 19.0431C60.7552 18.2671 59.4962 17.8751 57.8262 17.8751C56.2502 17.8751 55.0312 18.2711 54.1722 19.0641C53.3962 19.7811 53.0042 20.7491 53.0042 21.9681C53.0042 23.1781 53.4042 24.1531 54.2052 24.8951C54.6472 25.2951 55.1622 25.5861 55.7512 25.7651C56.3392 25.9451 57.0302 26.0351 57.8222 26.0351C59.4822 26.0351 60.7422 25.6511 61.6142 24.8831C62.3902 24.1831 62.7822 23.2151 62.7822 21.9671C62.7822 20.7161 62.3902 19.7401 61.6062 19.0381V19.0431ZM72.1662 23.6761C72.1662 25.2431 70.7612 26.0261 67.9532 26.0261C67.0952 26.0261 66.3712 25.9721 65.7842 25.8631C65.1972 25.7531 64.7192 25.5731 64.3532 25.3221C64.0699 25.1307 63.8378 24.8729 63.6772 24.5711C63.5112 24.2621 63.4022 23.8741 63.3522 23.4031L64.6592 23.3911C64.6592 24.0081 64.8872 24.4611 65.3452 24.7541C65.8352 25.1041 66.7052 25.2791 67.9532 25.2791C69.9162 25.2791 70.8982 24.7871 70.8982 23.8031C70.8982 23.2281 70.5642 22.8331 69.9102 22.6151C69.7772 22.5731 68.9832 22.4631 67.5332 22.2841C66.0832 22.1041 65.1722 21.9441 64.8142 21.8021C64.0392 21.4931 63.6522 20.9391 63.6522 20.1391C63.6522 19.3551 63.9982 18.7711 64.6942 18.3881C65.0362 18.2291 65.4642 18.1071 65.9772 18.0181C66.5672 17.9249 67.164 17.8814 67.7612 17.8881C70.4642 17.8881 71.8162 18.7351 71.8162 20.4311H70.5732C70.5732 19.2381 69.6232 18.6381 67.7232 18.6381C66.7552 18.6381 66.0342 18.7631 65.5592 19.0011C65.0842 19.2381 64.8472 19.6141 64.8472 20.1141C64.8472 20.5811 65.1682 20.9191 65.8102 21.1281C66.1852 21.2361 67.0472 21.3611 68.3982 21.5031C69.6072 21.6121 70.4362 21.7661 70.8862 21.9631C71.7462 22.2961 72.1742 22.8631 72.1742 23.6631L72.1652 23.6751L72.1662 23.6761ZM77.2982 25.8001L76.7662 25.8751L76.4352 25.9001C75.5842 25.9001 74.9752 25.7771 74.5952 25.5301C74.2132 25.2831 74.0302 24.8511 74.0302 24.2371V18.9171H72.4842V18.1351H74.0222L74.0342 15.6251H75.2262V18.1351H77.3002V18.9291L75.2262 18.9171V24.0871C75.2262 24.4731 75.3282 24.7381 75.5322 24.8801C75.7372 25.0221 76.1022 25.1001 76.6272 25.1001C76.7106 25.1081 76.7946 25.105 76.8772 25.0911C77.0162 25.0661 77.1542 25.0351 77.2902 24.9971L77.3022 25.7891L77.2982 25.8001ZM85.5382 24.0351C85.2122 24.3021 84.8422 24.5051 84.4252 24.6481C84.0092 24.7911 83.5292 24.8581 82.9882 24.8581C80.4962 24.8581 79.2512 23.8281 79.2512 21.7711C79.2512 20.8131 79.5702 20.0631 80.2072 19.5211C80.8452 18.9791 81.7422 18.7081 82.9012 18.7081C84.0672 18.7081 84.9532 18.9821 85.5572 19.5281C86.1612 20.0731 86.4632 20.8041 86.4632 21.7211C86.4632 22.7211 86.1552 23.4911 85.5382 24.0331V24.0351ZM87.6552 18.1371H86.4642L86.4512 19.4511C85.9262 18.9171 85.5512 18.5811 85.3252 18.4391C84.6582 18.0721 83.7952 17.8891 82.7362 17.8891C81.1862 17.8891 80.0012 18.2441 79.1842 18.9521C78.4092 19.6021 78.0212 20.5441 78.0212 21.7771C78.0212 22.3871 78.1192 22.9291 78.3152 23.4041C78.5122 23.8791 78.7982 24.2891 79.1732 24.6231C79.9922 25.3061 81.1482 25.6481 82.6432 25.6481C84.4392 25.6481 85.7122 25.1571 86.4642 24.1751V25.5351C86.4642 26.4021 86.1912 27.0731 85.6442 27.5481C85.0992 28.0241 84.2002 28.2581 82.9502 28.2581C81.7732 28.2581 80.9362 28.0901 80.4362 27.7721C80.0602 27.5221 79.8022 27.0911 79.6602 26.4771H78.4342C78.5672 27.3351 78.9342 27.9551 79.5182 28.3381C80.2022 28.7791 81.3532 29.0001 82.9802 29.0001C86.0922 29.0001 87.6512 27.8431 87.6512 25.5301V18.1401L87.6552 18.1371ZM94.0992 18.9101C93.7687 18.8555 93.4342 18.8277 93.0992 18.8271C91.1412 18.8271 90.1622 19.9011 90.1622 22.0481V25.7831H88.9842L88.9712 18.1411L90.1632 18.1521V19.5161H90.2252C90.4252 18.9791 90.7432 18.5721 91.1752 18.2941C91.6502 18.0261 92.3582 17.8911 93.3002 17.8911H94.1002V18.9171L94.0992 18.9101ZM95.2072 21.4791C95.3572 20.6101 95.6952 19.9381 96.2192 19.4621C96.5612 19.1861 96.9492 18.9791 97.3822 18.8421C97.8563 18.698 98.3498 18.6282 98.8452 18.6351C99.9042 18.6351 100.764 18.9251 101.439 19.5051C102.115 20.0861 102.445 20.7451 102.445 21.4781L95.2072 21.4791ZM102.561 19.1211C102.126 18.6921 101.594 18.3738 101.01 18.1931C100.393 17.9911 99.6752 17.8911 98.8412 17.8911C97.2982 17.8911 96.1012 18.2501 95.2492 18.9671C94.3972 19.6851 93.9732 20.6611 93.9732 21.8971C93.9732 23.1321 94.3822 24.1071 95.1992 24.8371C96.0832 25.6371 97.3262 26.0371 98.9392 26.0371C99.5822 26.0371 100.175 25.9651 100.722 25.8201C101.229 25.6916 101.713 25.483 102.154 25.2021C102.871 24.6871 103.325 24.0521 103.518 23.2961H102.23C101.788 24.6031 100.688 25.2561 98.9292 25.2561C97.6872 25.2561 96.7322 24.9371 96.0662 24.2981C95.4902 23.7511 95.2032 23.0411 95.2032 22.1691H103.696C103.696 20.8731 103.321 19.8571 102.558 19.1251L102.561 19.1211Z" fill="#231F20"/>
<path d="M116.286 22.6621C116.286 24.9301 114.457 26.0651 110.797 26.0651C108.604 26.0651 107.003 25.6751 105.995 24.8971C105.169 24.2551 104.757 23.2761 104.757 21.9571H106.23C106.23 24.0761 107.753 25.1341 110.796 25.1341C112.256 25.1341 113.311 24.9181 113.966 24.4841C114.517 24.1021 114.792 23.5021 114.792 22.6851C114.792 21.8771 114.417 21.3111 113.666 20.9851C113.241 20.8101 112.206 20.5891 110.55 20.3231C108.473 20.0061 107.127 19.6901 106.51 19.3731C105.617 18.9061 105.175 18.1151 105.175 16.9981C105.175 15.9571 105.55 15.1821 106.314 14.6741C107.131 14.1161 108.532 13.8361 110.517 13.8361C114.104 13.8361 115.897 15.0271 115.897 17.4101H114.411C114.411 15.6241 113.08 14.7331 110.416 14.7331C109.081 14.7331 108.104 14.9131 107.486 15.2751C106.901 15.6591 106.61 16.2221 106.61 16.9651C106.61 17.7401 106.986 18.2861 107.736 18.6031C108.137 18.7871 109.313 19.0411 111.265 19.3671C113.1 19.6421 114.339 19.9631 114.977 20.3261C115.853 20.7761 116.291 21.5561 116.291 22.6621H116.286ZM128.257 23.8191C127.701 24.2623 127.069 24.599 126.391 24.8121C125.698 25.0331 124.922 25.1421 124.062 25.1421C122.309 25.1421 120.892 24.6701 119.81 23.7261C118.729 22.7811 118.189 21.5221 118.189 19.9481C118.189 18.3081 118.725 17.0301 119.798 16.1141C120.871 15.1981 122.292 14.7411 124.062 14.7411C125.856 14.7411 127.267 15.2201 128.294 16.1771C128.819 16.6194 129.231 17.1801 129.496 17.8131C129.756 18.4371 129.884 19.1491 129.884 19.9481C129.884 21.5801 129.341 22.8701 128.256 23.8191H128.257ZM129.039 24.5911C129.807 24.0501 130.375 23.3941 130.742 22.6241C131.11 21.8531 131.294 20.9641 131.294 19.9551C131.294 18.1471 130.693 16.7021 129.492 15.6051C128.849 15.0061 128.074 14.5601 127.164 14.2691C126.255 13.9771 125.217 13.8311 124.049 13.8311C121.78 13.8311 120.003 14.3811 118.71 15.4811C117.417 16.5791 116.771 18.0711 116.771 19.9541C116.771 21.7871 117.423 23.2661 118.728 24.3901C120.033 25.5151 121.816 26.0781 124.075 26.0781C124.959 26.0781 125.73 26.0181 126.389 25.8981C127.047 25.7781 127.607 25.5951 128.065 25.3481L130.242 26.8561L131.151 26.0211L129.043 24.5911H129.039ZM142.323 25.7831H132.252V14.1211L133.636 14.0961V24.8061H142.332L142.319 25.7791L142.323 25.7831Z" fill="#367FAF"/>
<path d="M33.0432 23.826C33.1832 22.837 33.1412 22.692 34.0102 22.852L34.2312 22.869C34.8992 22.895 35.7732 22.778 36.2872 22.575C37.3922 22.141 38.0472 21.415 36.9572 21.605C34.4712 22.04 34.3002 21.326 34.3002 21.326C36.9252 18.026 38.0232 13.834 37.0762 12.808C34.4882 10.011 30.0212 11.334 29.9422 11.368L29.9182 11.373C29.37 11.28 28.8153 11.2311 28.2592 11.227C27.1342 11.211 26.2812 11.477 25.6332 11.893C25.6332 11.893 17.6562 9.10696 18.0282 15.396C18.1072 16.734 20.2902 25.52 22.8942 22.866C23.8462 21.896 24.7662 21.076 24.7662 21.076C25.2462 21.344 25.7952 21.463 26.3432 21.416L26.3872 21.384C26.3732 21.505 26.3792 21.622 26.4052 21.762C25.7352 22.397 25.9312 22.509 24.5902 22.743C23.2332 22.98 24.0302 23.403 24.5502 23.513C25.1822 23.646 26.6412 23.836 27.6282 22.666L27.5882 22.799C27.8522 22.978 27.8342 24.082 27.8722 24.871C27.9092 25.661 27.9722 26.396 28.1612 26.831C28.3512 27.265 28.5752 28.382 30.3372 28.063C31.8102 27.795 32.9372 27.41 33.0402 23.827" fill="#231F20"/>
<path d="M33.0432 23.826C33.1832 22.837 33.1412 22.692 34.0102 22.852L34.2312 22.869C34.8992 22.895 35.7732 22.778 36.2872 22.575C37.3922 22.141 38.0472 21.415 36.9572 21.605C34.4712 22.04 34.3002 21.326 34.3002 21.326C36.9252 18.026 38.0232 13.834 37.0762 12.808C34.4882 10.011 30.0212 11.334 29.9422 11.368L29.9182 11.373C29.37 11.28 28.8153 11.2311 28.2592 11.227C27.1342 11.211 26.2812 11.477 25.6332 11.893C25.6332 11.893 17.6562 9.10696 18.0282 15.396C18.1072 16.734 20.2902 25.52 22.8942 22.866C23.8462 21.896 24.7662 21.076 24.7662 21.076C25.2462 21.344 25.7952 21.463 26.3432 21.416L26.3872 21.384C26.3732 21.505 26.3792 21.622 26.4052 21.762C25.7352 22.397 25.9312 22.509 24.5902 22.743C23.2332 22.98 24.0302 23.403 24.5502 23.513C25.1822 23.646 26.6412 23.836 27.6282 22.666L27.5882 22.799C27.8522 22.978 27.8342 24.082 27.8722 24.871C27.9092 25.661 27.9722 26.396 28.1612 26.831C28.3512 27.265 28.5752 28.382 30.3372 28.063C31.8102 27.795 32.9372 27.41 33.0402 23.827" stroke="#231F20" stroke-width="2"/>
<path d="M36.9568 21.605C34.4708 22.04 34.2998 21.326 34.2998 21.326C36.9248 18.024 38.0218 13.834 37.0748 12.808C34.4918 10.011 30.0208 11.334 29.9408 11.368L29.9168 11.373C29.3686 11.28 28.8138 11.2311 28.2578 11.227C27.1338 11.211 26.2798 11.477 25.6328 11.893C25.6328 11.893 17.6548 9.10696 18.0268 15.396C18.1058 16.734 20.2888 25.521 22.8928 22.866C23.8448 21.896 24.7648 21.076 24.7648 21.076C25.2448 21.344 25.7938 21.463 26.3418 21.416L26.3858 21.384C26.3718 21.505 26.3788 21.622 26.4038 21.762C25.7338 22.398 25.9298 22.509 24.5898 22.743C23.2328 22.98 24.0298 23.403 24.5498 23.513C25.1818 23.646 26.6408 23.836 27.6278 22.666L27.5878 22.8C27.8508 22.978 28.0358 23.96 28.0058 24.852C27.9758 25.743 27.9538 26.353 28.1608 26.832C28.3688 27.309 28.5748 28.382 30.3378 28.063C31.8118 27.796 32.5748 27.103 32.6808 25.945C32.7558 25.123 32.9268 25.245 32.9378 24.509L33.0748 24.161C33.2318 23.047 33.0998 22.687 34.0068 22.854L34.2278 22.871C34.8958 22.897 35.7708 22.78 36.2838 22.578C37.3888 22.143 38.0438 21.418 36.9538 21.608L36.9568 21.605Z" fill="#336791"/>
<path d="M29.9409 11.3398C29.6649 11.4138 34.3819 9.87978 37.0629 12.7818C38.0099 13.8088 36.9129 17.9988 34.2869 21.3008M27.7379 22.2448C27.6699 24.3188 27.7549 26.4078 27.9949 26.9158C28.2349 27.4238 28.7469 28.4108 30.5109 28.0908C31.9839 27.8228 32.5199 27.3048 32.7519 26.1608C32.9189 25.3208 33.2539 22.9828 33.2959 22.5048L27.7379 22.2448ZM25.6249 11.8448C25.6249 11.8448 17.6369 9.07978 18.0129 15.3718C18.0959 16.7098 20.2749 25.4968 22.8799 22.8378C23.8319 21.8678 24.6919 21.1068 24.6919 21.1068L25.6249 11.8448Z" stroke="white" stroke-width="0.5" stroke-linecap="round" stroke-linejoin="round"/>
<path fill-rule="evenodd" clip-rule="evenodd" d="M34.283 21.2999C34.283 21.2999 34.45 22.0129 36.94 21.5789C38.03 21.3889 37.374 22.1139 36.269 22.5489C35.362 22.9059 33.329 22.9969 33.296 22.5039C33.211 21.2319 34.367 21.6189 34.283 21.2999C34.208 21.0129 33.69 20.7319 33.348 20.0299C33.05 19.4159 29.257 14.7149 34.4 15.4129C34.589 15.3799 33.058 11.2659 28.244 11.1989C23.429 11.1319 23.589 16.2169 23.589 16.2169" fill="#336791"/>
<path d="M34.283 21.2999C34.283 21.2999 34.45 22.0129 36.94 21.5789C38.03 21.3889 37.374 22.1139 36.269 22.5489C35.362 22.9059 33.329 22.9969 33.296 22.5039C33.211 21.2319 34.367 21.6189 34.283 21.2999ZM34.283 21.2999C34.208 21.0129 33.69 20.7319 33.348 20.0299C33.05 19.4159 29.257 14.7149 34.4 15.4129C34.589 15.3799 33.058 11.2659 28.244 11.1989C23.429 11.1319 23.589 16.2169 23.589 16.2169" stroke="white" stroke-width="0.5" stroke-linecap="round" stroke-linejoin="bevel"/>
<path d="M26.3911 21.7362C25.7201 22.3712 25.9181 22.4822 24.5761 22.7162C23.2191 22.9542 24.0161 23.3762 24.5361 23.4862C25.1681 23.6202 26.6281 23.8092 27.6141 22.6392C27.9141 22.2822 27.6121 21.7132 27.2001 21.5692C27.0001 21.4992 26.7341 21.4112 26.3901 21.7352L26.3911 21.7362Z" stroke="white" stroke-width="0.5" stroke-linejoin="round"/>
<path fill-rule="evenodd" clip-rule="evenodd" d="M26.3469 21.725C26.2799 21.351 26.4919 20.907 26.7199 20.387C27.0619 19.607 27.8509 18.826 27.2199 16.35C26.7499 14.506 23.5929 15.967 23.5919 16.217C23.5899 16.467 23.7339 17.485 23.5389 18.67C23.2829 20.216 24.6989 21.524 26.3289 21.39" fill="#336791"/>
<path d="M26.3469 21.725C26.2799 21.351 26.4919 20.907 26.7199 20.387C27.0619 19.607 27.8509 18.826 27.2199 16.35C26.7499 14.506 23.5929 15.967 23.5919 16.217C23.5899 16.467 23.7339 17.485 23.5389 18.67C23.2829 20.216 24.6989 21.524 26.3289 21.39" stroke="white" stroke-width="0.5" stroke-linecap="round" stroke-linejoin="round"/>
<path d="M25.5959 16.1791C25.5819 16.2641 25.7809 16.4921 26.0399 16.5221C26.2999 16.5531 26.5199 16.3751 26.5339 16.2901C26.5489 16.2051 26.3499 16.1101 26.0909 16.0801C25.8309 16.0491 25.6109 16.0941 25.5959 16.1791Z" fill="white" stroke="white" stroke-width="0.456"/>
<path d="M33.4748 16.0048C33.4898 16.0898 33.2908 16.3178 33.0318 16.3488C32.7718 16.3788 32.5518 16.2008 32.5368 16.1148C32.5228 16.0288 32.7218 15.9348 32.9808 15.9048C33.2398 15.8738 33.4608 15.9198 33.4748 16.0048Z" fill="white" stroke="white" stroke-width="0.228"/>
<path d="M34.4011 15.4141C34.4441 16.0841 34.2311 16.5401 34.2041 17.2541C34.1641 18.2911 34.7871 19.4771 33.8491 20.6661" stroke="white" stroke-width="0.5" stroke-linecap="round" stroke-linejoin="round"/>
</svg>
