<svg width="160" height="40" viewBox="0 0 160 40" fill="none" xmlns="http://www.w3.org/2000/svg">
<g clip-path="url(#clip0_1081_196)">
<path d="M49.5115 10.8945C49.4904 10.7409 49.3562 10.6557 49.2448 10.6464C49.1343 10.6371 46.9688 10.6042 46.9688 10.6042C46.9688 10.6042 45.1577 8.84551 44.9788 8.6666C44.7999 8.48769 44.4505 8.5417 44.3146 8.58221C44.313 8.58306 43.9746 8.6877 43.4049 8.86408C43.3096 8.55521 43.1694 8.17544 42.9694 7.79399C42.3247 6.56357 41.3804 5.91291 40.2394 5.91122C40.2377 5.91122 40.2368 5.91122 40.2351 5.91122C40.1558 5.91122 40.0773 5.91882 39.998 5.92557C39.9643 5.88506 39.9305 5.8454 39.8951 5.80657C39.398 5.27491 38.7609 5.01583 37.9971 5.03861C36.5236 5.08081 35.0561 6.14499 33.8661 8.03535C33.029 9.36536 32.3918 11.0363 32.2112 12.33C30.5192 12.8541 29.336 13.2203 29.3098 13.2288C28.4558 13.4972 28.4288 13.5233 28.3174 14.3284C28.2347 14.9369 26 32.2169 26 32.2169L44.7273 35.4558L52.8441 33.438C52.8441 33.438 49.5325 11.0482 49.5115 10.8945ZM42.4673 9.15438C42.0361 9.28772 41.5457 9.43963 41.0141 9.60419C41.0031 8.85817 40.9145 7.82016 40.5668 6.92307C41.685 7.1349 42.2352 8.39993 42.4673 9.15438ZM40.0343 9.908C39.0528 10.2118 37.9819 10.5435 36.9076 10.876C37.2097 9.71896 37.7827 8.56702 38.4866 7.81172C38.7482 7.5307 39.1144 7.2176 39.5482 7.03869C39.9558 7.88936 40.0444 9.09362 40.0343 9.908ZM38.0266 6.01924C38.3726 6.01165 38.6638 6.0876 38.9127 6.25132C38.5144 6.45808 38.1296 6.75514 37.7684 7.14249C36.8325 8.14675 36.1151 9.70546 35.8291 11.2093C34.937 11.4853 34.0644 11.7562 33.261 12.0043C33.7683 9.63711 35.7523 6.08507 38.0266 6.01924Z" fill="#95BF47"/>
<path d="M49.2456 10.6473C49.1351 10.638 46.9696 10.6051 46.9696 10.6051C46.9696 10.6051 45.1586 8.8464 44.9797 8.6675C44.913 8.60082 44.8227 8.56622 44.7281 8.55188L44.729 35.4551L52.8449 33.4381C52.8449 33.4381 49.5334 11.049 49.5123 10.8954C49.4912 10.7418 49.3562 10.6566 49.2456 10.6473Z" fill="#5E8E3E"/>
<path d="M40.2292 14.8204L39.2866 18.3471C39.2866 18.3471 38.2351 17.8686 36.9886 17.9471C35.1607 18.0628 35.1412 19.2155 35.1598 19.505C35.2594 21.0823 39.4089 21.4266 39.6419 25.1213C39.825 28.0277 38.1 30.016 35.6147 30.1729C32.6315 30.3611 30.9892 28.6015 30.9892 28.6015L31.6213 25.9128C31.6213 25.9128 33.2745 27.1602 34.5978 27.0766C35.462 27.0218 35.7708 26.3188 35.7396 25.8217C35.6096 23.7642 32.2306 23.8858 32.0171 20.505C31.8373 17.6602 33.7058 14.7774 37.8283 14.5175C39.4165 14.4154 40.2292 14.8204 40.2292 14.8204Z" fill="white"/>
<path d="M63.5326 22.2053C62.5993 21.6989 62.1197 21.272 62.1197 20.6853C62.1197 19.9386 62.786 19.459 63.8264 19.459C65.0376 19.459 66.119 19.9654 66.119 19.9654L66.972 17.3522C66.972 17.3522 66.1877 16.7386 63.8791 16.7386C60.6666 16.7386 58.4401 18.5784 58.4401 21.1649C58.4401 22.6313 59.4797 23.7513 60.8666 24.5507C61.9866 25.1902 62.3867 25.6438 62.3867 26.3101C62.3867 27.0032 61.8268 27.5632 60.7871 27.5632C59.2378 27.5632 57.7746 26.7629 57.7746 26.7629L56.8682 29.3762C56.8682 29.3762 58.22 30.2827 60.4942 30.2827C63.8005 30.2827 66.1735 28.6563 66.1735 25.7233C66.1726 24.1514 64.9732 23.0314 63.5326 22.2053Z" fill="black"/>
<path d="M76.7042 16.7126C75.0778 16.7126 73.798 17.4861 72.8119 18.6588L72.7583 18.632L74.1712 11.2468H70.4917L66.9192 30.0432H70.5988L71.8251 23.6182C72.3047 21.1916 73.5577 19.6992 74.7312 19.6992C75.5574 19.6992 75.878 20.2591 75.878 21.0594C75.878 21.5658 75.8244 22.1793 75.7181 22.6857L74.332 30.0441H78.0117L79.451 22.4455C79.6113 21.6453 79.7182 20.6861 79.7182 20.0457C79.7167 17.9657 78.6237 16.7126 76.7042 16.7126Z" fill="black"/>
<path d="M88.0352 16.7126C83.6088 16.7126 80.6769 20.712 80.6769 25.1642C80.6769 28.0168 82.4362 30.3095 85.7427 30.3095C90.0885 30.3095 93.0213 26.4172 93.0213 21.8579C93.0213 19.2187 91.4745 16.7126 88.0352 16.7126ZM86.2223 27.4844C84.969 27.4844 84.4357 26.4181 84.4357 25.0847C84.4357 22.9787 85.5292 19.5393 87.5287 19.5393C88.8352 19.5393 89.2611 20.6593 89.2611 21.7525C89.2611 24.0183 88.169 27.4844 86.2223 27.4844Z" fill="black"/>
<path d="M102.433 16.7126C99.9492 16.7126 98.5398 18.899 98.5398 18.899H98.487L98.7005 16.9261H95.4477C95.288 18.2595 94.994 20.2851 94.7014 21.8052L92.1417 35.2689H95.8214L96.8338 29.8298H96.9144C96.9144 29.8298 97.6693 30.3095 99.0741 30.3095C103.393 30.3095 106.219 25.8841 106.219 21.4043C106.219 18.9258 105.125 16.7126 102.433 16.7126ZM98.9134 27.5372C97.9583 27.5372 97.393 27.004 97.393 27.004L98.0064 23.5646C98.4333 21.272 99.6328 19.7519 100.913 19.7519C102.033 19.7519 102.379 20.7915 102.379 21.7784C102.379 24.1514 100.966 27.5372 98.9134 27.5372Z" fill="black"/>
<path d="M111.471 11.4335C110.299 11.4335 109.365 12.3668 109.365 13.5662C109.365 14.6594 110.058 15.406 111.098 15.406H111.151C112.298 15.406 113.284 14.6326 113.311 13.2733C113.311 12.2069 112.591 11.4335 111.471 11.4335Z" fill="black"/>
<path d="M106.326 30.0433H110.004L112.511 17.0065H108.805L106.326 30.0433Z" fill="black"/>
<path d="M121.87 16.9797H119.31L119.443 16.3662C119.656 15.1131 120.403 13.9932 121.63 13.9932C122.284 13.9932 122.802 14.1798 122.802 14.1798L123.522 11.3005C123.522 11.3005 122.882 10.9807 121.522 10.9807C120.216 10.9807 118.91 11.354 117.923 12.2069C116.67 13.2734 116.083 14.8193 115.79 16.3662L115.684 16.9797H113.977L113.444 19.7528H115.151L113.205 30.0442H116.884L118.831 19.7528H121.363L121.87 16.9797Z" fill="black"/>
<path d="M130.721 17.0066C130.721 17.0066 128.421 22.8013 127.388 25.9645H127.335C127.265 24.9459 126.428 17.0066 126.428 17.0066H122.562L124.776 28.977C124.83 29.2432 124.803 29.4039 124.696 29.5905C124.268 30.4167 123.549 31.2169 122.696 31.8037C122.003 32.31 121.23 32.6298 120.617 32.8432L121.63 35.9629C122.376 35.803 123.922 35.1895 125.229 33.9632C126.909 32.3904 128.454 29.9639 130.054 26.6576L134.56 17.0057H130.721V17.0066Z" fill="black"/>
</g>
<defs>
<clipPath id="clip0_1081_196">
<rect width="109" height="30.9256" fill="white" transform="translate(26 5.03723)"/>
</clipPath>
</defs>
</svg>
