<svg width="77" height="31" viewBox="0 0 77 31" fill="none" xmlns="http://www.w3.org/2000/svg">
<g clip-path="url(#clip0_8733_365)">
<path fill-rule="evenodd" clip-rule="evenodd" d="M5.01801 27.9135C4.0713 27.9135 3.58902 27.4473 3.58902 26.681C3.58902 25.252 5.18234 24.7715 8.08854 24.4625C8.08854 26.3666 6.80067 27.9135 5.00907 27.9135H5.01801ZM6.26837 17.205C4.19098 17.205 1.80279 18.1821 0.50598 19.2163L1.69025 21.717C2.72984 20.765 4.41069 19.9505 5.9272 19.9505C7.36869 19.9505 8.16535 20.4327 8.16535 21.4045C8.16535 22.0564 7.63841 22.3869 6.64169 22.5173C2.91561 22.9996 -0.00488281 24.0284 -0.00488281 26.8989C-0.00488281 29.1746 1.61523 30.5518 4.14632 30.5518C5.95399 30.5518 7.5616 29.5479 8.32611 28.2297V30.1945H11.6949V21.9618C11.6949 18.5679 9.3389 17.1979 6.27015 17.1979L6.26837 17.205Z" fill="#101820"/>
<path fill-rule="evenodd" clip-rule="evenodd" d="M40.0811 17.5747V30.1784H43.6857V24.1052C43.6857 21.2204 45.4326 20.3719 46.649 20.3719C47.1967 20.3677 47.7332 20.5262 48.1906 20.8274L48.8497 17.4961C48.3389 17.2916 47.7921 17.1926 47.2421 17.2049C45.3897 17.2049 44.2251 18.0248 43.457 19.6932V17.5747H40.0811Z" fill="#101820"/>
<path fill-rule="evenodd" clip-rule="evenodd" d="M65.5547 17.205C63.6488 17.205 62.2234 18.3303 61.4821 19.4163C60.7944 18.0141 59.3386 17.205 57.5881 17.205C55.684 17.205 54.3639 18.2624 53.7548 19.4806V17.5747H50.2788V30.1784H53.887V23.689C53.887 21.3669 55.107 20.2433 56.2448 20.2433C57.2755 20.2433 58.2222 20.9096 58.2222 22.6297V30.1784H61.8232V23.689C61.8232 21.3329 63.0129 20.2433 64.2043 20.2433C65.1581 20.2433 66.1691 20.9364 66.1691 22.6047V30.1784H69.7702V21.4651C69.7702 18.6339 67.8643 17.205 65.5618 17.205" fill="#101820"/>
<path fill-rule="evenodd" clip-rule="evenodd" d="M31.3082 17.5747H28.043V16.294C28.043 14.6256 28.9951 14.1505 29.815 14.1505C30.3748 14.1578 30.9252 14.2954 31.4226 14.5524L32.5336 12.0106C32.5336 12.0106 31.4065 11.2747 29.3577 11.2747C27.0552 11.2747 24.4348 12.5732 24.4348 16.6476V17.5747H18.9779V16.294C18.9779 14.6256 19.9282 14.1505 20.7498 14.1505C21.3106 14.1505 21.8627 14.2885 22.3574 14.5524L23.4685 12.0106C22.8058 11.623 21.7394 11.2747 20.2943 11.2747C17.9919 11.2747 15.3715 12.5732 15.3715 16.6476V17.5747H13.2852V20.3541H15.3768V30.1784H18.9779V20.3541H24.442V30.1784H28.043V20.3541H31.3082V17.5747Z" fill="#101820"/>
<path d="M37.056 17.5747H33.4585V30.173H37.056V17.5747Z" fill="#101820"/>
<path fill-rule="evenodd" clip-rule="evenodd" d="M33.5913 15.433H37.1155C39.1715 8.96865 46.1467 3.28664 54.442 3.28664C64.5307 3.28664 73.2493 10.9674 73.2493 22.9245C73.28 25.3788 72.9428 27.8239 72.249 30.1784H75.6696L75.7035 30.0605C76.2799 27.7296 76.5643 25.3362 76.5502 22.9352C76.5502 9.60097 66.8331 0.00354004 54.4492 0.00354004C44.7213 0.00354004 36.051 6.7555 33.5931 15.4366L33.5913 15.433Z" fill="#4A4AF4"/>
</g>
<defs>
<clipPath id="clip0_8733_365">
<rect width="76.549" height="30.5446" fill="white"/>
</clipPath>
</defs>
</svg>
