<svg width="160" height="40" viewBox="0 0 160 40" fill="none" xmlns="http://www.w3.org/2000/svg">
<path fill-rule="evenodd" clip-rule="evenodd" d="M28.9991 11.1885C28.9991 8.48364 31.2208 6.29095 33.9614 6.29095H52.8179C55.5585 6.29095 57.7801 8.48364 57.7801 11.1885V27.0166C57.7801 29.815 54.1923 31.0294 52.4522 28.8201L47.0121 21.9134V30.2887C47.0121 32.723 45.0126 34.6964 42.5461 34.6964H33.9614C31.2208 34.6964 28.9991 32.5037 28.9991 29.799V11.1885ZM33.9614 10.209C33.4133 10.209 32.9689 10.6475 32.9689 11.1885V29.799C32.9689 30.3399 33.4133 30.7784 33.9614 30.7784H42.695C42.969 30.7784 43.0423 30.5592 43.0423 30.2887V19.0574C43.0423 16.2592 46.6301 15.0446 48.3703 17.2539L53.8103 24.1607V11.1885C53.8103 10.6475 53.8622 10.209 53.3142 10.209H33.9614Z" fill="#32C0ED"/>
<path fill-rule="evenodd" clip-rule="evenodd" d="M28.9991 11.1885C28.9991 8.48364 31.2208 6.29095 33.9614 6.29095H52.8179C55.5585 6.29095 57.7801 8.48364 57.7801 11.1885V27.0166C57.7801 29.815 54.1923 31.0294 52.4522 28.8201L47.0121 21.9134V30.2887C47.0121 32.723 45.0126 34.6964 42.5461 34.6964H33.9614C31.2208 34.6964 28.9991 32.5037 28.9991 29.799V11.1885ZM33.9614 10.209C33.4133 10.209 32.9689 10.6475 32.9689 11.1885V29.799C32.9689 30.3399 33.4133 30.7784 33.9614 30.7784H42.695C42.969 30.7784 43.0423 30.5592 43.0423 30.2887V19.0574C43.0423 16.2592 46.6301 15.0446 48.3703 17.2539L53.8103 24.1607V11.1885C53.8103 10.6475 53.8622 10.209 53.3142 10.209H33.9614Z" fill="url(#paint0_linear_996_239)"/>
<path fill-rule="evenodd" clip-rule="evenodd" d="M28.9991 11.1885C28.9991 8.48364 31.2208 6.29095 33.9614 6.29095H52.8179C55.5585 6.29095 57.7801 8.48364 57.7801 11.1885V27.0166C57.7801 29.815 54.1923 31.0294 52.4522 28.8201L47.0121 21.9134V30.2887C47.0121 32.723 45.0126 34.6964 42.5461 34.6964H33.9614C31.2208 34.6964 28.9991 32.5037 28.9991 29.799V11.1885ZM33.9614 10.209C33.4133 10.209 32.9689 10.6475 32.9689 11.1885V29.799C32.9689 30.3399 33.4133 30.7784 33.9614 30.7784H42.695C42.969 30.7784 43.0423 30.5592 43.0423 30.2887V19.0574C43.0423 16.2592 46.6301 15.0446 48.3703 17.2539L53.8103 24.1607V11.1885C53.8103 10.6475 53.8622 10.209 53.3142 10.209H33.9614Z" fill="url(#paint1_linear_996_239)" fill-opacity="0.35"/>
<path d="M52.818 6.29095C55.5586 6.29095 57.7803 8.48364 57.7803 11.1885V27.0166C57.7803 29.815 54.1924 31.0294 52.4523 28.8201L47.0122 21.9134V30.2887C47.0122 32.723 45.0127 34.6964 42.5462 34.6964C42.8203 34.6964 43.0424 34.4772 43.0424 34.2067V19.0574C43.0424 16.2592 46.6303 15.0446 48.3704 17.2539L53.8105 24.1607V7.27045C53.8105 6.72949 53.3662 6.29095 52.818 6.29095Z" fill="#63F655"/>
<path d="M77.5183 14.6591V22.0887L70.2191 14.6591H66.42V26.8103H69.8849V18.8252L77.8349 26.8103H80.9832V14.6591H77.5183Z" fill="#1A1A1A"/>
<path d="M87.4062 24.1024V21.9498H95.1626V19.3634H87.4062V17.3671H96.8159V14.6591H83.871V26.8103H97.0096V24.1024H87.4062Z" fill="#1A1A1A"/>
<path d="M106.217 27.2096C111.089 27.2096 114.255 24.8488 114.255 20.7347C114.255 16.6206 111.089 14.2599 106.217 14.2599C101.345 14.2599 98.1968 16.6206 98.1968 20.7347C98.1968 24.8488 101.345 27.2096 106.217 27.2096ZM106.217 24.328C103.509 24.328 101.837 23.0261 101.837 20.7347C101.837 18.4434 103.526 17.1414 106.217 17.1414C108.926 17.1414 110.596 18.4434 110.596 20.7347C110.596 23.0261 108.926 24.328 106.217 24.328Z" fill="#1A1A1A"/>
<path d="M127.535 14.6591V22.0887L120.236 14.6591H116.437V26.8103H119.902V18.8252L127.852 26.8103H131V14.6591H127.535Z" fill="#1A1A1A"/>
<defs>
<linearGradient id="paint0_linear_996_239" x1="57.7802" y1="34.6964" x2="32.847" y2="5.96616" gradientUnits="userSpaceOnUse">
<stop stop-color="#2EF51C"/>
<stop offset="1" stop-color="#2EF51C" stop-opacity="0"/>
</linearGradient>
<linearGradient id="paint1_linear_996_239" x1="57.7801" y1="34.6964" x2="40.7448" y2="27.9826" gradientUnits="userSpaceOnUse">
<stop stop-opacity="0.9"/>
<stop offset="1" stop-color="#1A1A1A" stop-opacity="0"/>
</linearGradient>
</defs>
</svg>
