<svg width="160" height="40" viewBox="0 0 160 40" fill="none" xmlns="http://www.w3.org/2000/svg">
<g clip-path="url(#clip0_1015_1182)">
<path d="M52.0108 37.434H52.4355L59.368 33.9673L59.4833 33.8042V6.13331L59.368 5.96938L52.4355 2.50562H52.0056L52.0108 37.434Z" fill="#5294CF"/>
<path d="M42.9891 37.434H42.5585L35.6319 33.9673L35.4914 33.7255L35.42 6.27423L35.6319 5.96938L42.5585 2.50562H42.9945L42.9891 37.434Z" fill="#1F5B98"/>
<path d="M42.5707 2.50562H52.4288V37.434H42.5707V2.50562Z" fill="#2D72B8"/>
<path d="M62.9967 19.1851L62.7624 19.1332L59.4176 18.8213L59.3679 18.846L52.4292 18.5685H42.5706L35.6318 18.846V13.5548L35.6246 13.5587L35.6318 13.5432L42.5706 11.9354H52.4292L59.3679 13.5432L61.9187 14.8991V14.0274L62.9967 13.9095L62.8851 13.6918L59.4719 11.2512L59.3679 11.2849L52.4292 9.13488H42.5706L35.6318 11.2849V5.96942L32.0032 10.2205V13.9332L32.0313 13.9128L33.0812 14.0274V14.917L32.0032 15.4939V19.188L32.0313 19.1851L33.0812 19.2006V20.7512L32.1753 20.7647L32.0032 20.7482V24.4439L33.0812 25.0235V25.9234L32.0483 26.0375L32.0032 26.0036V29.7157L35.6318 33.9673V28.6523L42.5706 30.8024H52.4292L59.3884 28.646L59.4809 28.6866L62.8491 26.2819L62.9967 26.0423L61.9187 25.9234V25.0416L61.7774 24.9852L59.4719 26.2279L59.3884 26.4023L52.4292 28.0007V28.0027H42.5706V28.0007L35.6318 26.3955V21.0849L42.5706 21.3615V21.3682H52.4292L59.3679 21.0849L59.5259 21.1576L62.768 20.8784L62.9967 20.7667L61.9187 20.7512V19.2006L62.9967 19.1851Z" fill="#1A476F"/>
<path d="M59.3679 28.6523V33.9673L62.9967 29.7157V26.0278L59.3889 28.646L59.3679 28.6523ZM59.3679 26.4071L59.3889 26.4023L62.9967 24.4618V20.7512L59.3679 21.0849V26.4071ZM59.3889 13.5481L59.3679 13.5432V18.846L62.9967 19.1851V15.4763L59.3889 13.5481ZM59.3889 11.3058L62.9967 13.9095V10.2215L59.3679 5.96942V11.2849L59.3889 11.2922V11.3058Z" fill="#2D72B8"/>
</g>
<path d="M105.079 11.1241V9.90446C105.079 9.71682 105.267 9.52917 105.454 9.52917H111.177C111.365 9.52917 111.553 9.623 111.553 9.90446V10.9365C111.553 11.1241 111.365 11.4056 111.084 11.7809L108.175 16.0028C109.207 16.0028 110.427 16.1905 111.365 16.7534C111.553 16.8472 111.647 17.1287 111.647 17.3163V18.6298C111.647 18.8175 111.459 19.0051 111.177 18.9113C109.395 17.9731 107.049 17.9731 105.173 18.9113C104.985 19.0051 104.704 18.8175 104.704 18.6298V17.4102C104.704 17.2225 104.704 16.8472 104.891 16.4719L108.269 11.5932H105.36C105.267 11.4994 105.079 11.3118 105.079 11.1241Z" fill="#211C1C"/>
<path d="M84.2508 19.099H82.562C82.3743 19.099 82.2805 18.9113 82.2805 18.8175V9.90448C82.2805 9.71684 82.4682 9.5292 82.6558 9.5292H84.2508C84.4384 9.5292 84.5322 9.71684 84.626 9.81066V10.9365C85.0952 9.81066 85.8457 9.34155 86.8778 9.34155C87.9098 9.34155 88.6604 9.90448 89.1295 10.9365C89.5986 9.81066 90.443 9.34155 91.5688 9.34155C92.3194 9.34155 93.07 9.62302 93.5391 10.2798C94.102 11.0303 94.0082 12.0624 94.0082 13.0944V18.7237C94.0082 18.9113 93.8205 19.099 93.6329 19.099H91.9441C91.7565 19.099 91.5688 18.9113 91.5688 18.7237V13.9388C91.5688 13.5635 91.5688 12.6253 91.475 12.25C91.3812 11.5933 90.9121 11.4056 90.5368 11.4056C90.1615 11.4056 89.5986 11.6871 89.5047 12.1562C89.4109 12.6253 89.3171 13.282 89.3171 13.845V18.6298C89.3171 18.8175 89.1295 19.0051 88.9418 19.0051H87.253C87.0654 19.0051 86.8778 18.8175 86.8778 18.6298V13.845C86.8778 12.9068 87.0654 11.4056 85.8457 11.4056C84.626 11.4056 84.7199 12.8129 84.7199 13.845V18.6298C84.626 18.9113 84.4384 19.099 84.2508 19.099Z" fill="#211C1C"/>
<path d="M116.431 11.218C115.212 11.218 115.118 12.9068 115.118 14.1264C115.118 15.1585 115.118 17.504 116.431 17.504C117.745 17.504 117.839 15.6276 117.839 14.5017C117.839 13.7511 117.839 12.9068 117.557 12.1562C117.37 11.4056 116.994 11.218 116.431 11.218ZM116.338 9.34155C118.965 9.34155 120.278 11.5933 120.278 14.3141C120.278 17.0349 118.777 19.1928 116.338 19.1928C113.804 19.1928 112.397 16.9411 112.397 14.2203C112.491 11.5933 113.804 9.34155 116.338 9.34155Z" fill="#211C1C"/>
<path d="M123.656 19.099H121.967C121.779 19.099 121.592 18.9113 121.592 18.7237V9.81066C121.592 9.62302 121.779 9.5292 121.967 9.5292H123.562C123.749 9.5292 123.843 9.62302 123.843 9.81066V11.1242C124.312 9.90448 124.969 9.34155 126.189 9.34155C127.033 9.34155 127.69 9.62302 128.253 10.3736C128.722 11.1242 128.722 12.25 128.722 13.1882V18.8175C128.722 19.0051 128.534 19.099 128.347 19.099H126.658C126.47 19.099 126.376 19.0051 126.376 18.8175V13.9388C126.376 13.0006 126.47 11.4994 125.344 11.4994C124.875 11.4994 124.5 11.7809 124.312 12.25C124.031 12.8129 124.031 13.282 124.031 13.9388V18.8175C124.031 18.9113 123.843 19.099 123.656 19.099Z" fill="#211C1C"/>
<path d="M100.2 16.6596C99.9189 17.1287 99.4498 17.504 99.0745 17.504C98.4178 17.504 98.0425 16.9411 98.0425 16.2843C98.0425 14.7832 99.356 14.5017 100.669 14.5017V14.877C100.576 15.5338 100.576 16.0029 100.2 16.6596ZM103.672 17.504C103.296 17.0349 103.015 16.6596 103.015 15.909V13.1882C103.015 12.0624 103.109 10.9365 102.171 10.186C101.514 9.52921 100.388 9.24774 99.5436 9.24774C97.9486 9.24774 96.0722 9.90449 95.6969 11.9686C95.6969 12.1562 95.7908 12.3438 95.9784 12.3438L97.6672 12.5315C97.8548 12.5315 97.9486 12.3438 97.9486 12.1562C98.1363 11.4056 98.6992 11.1242 99.356 11.1242C99.7312 11.1242 100.2 11.218 100.294 11.5933C100.576 11.9686 100.482 12.4377 100.482 12.8129V13.0006C99.4498 13.0944 98.1363 13.1882 97.1981 13.6573C96.166 14.1264 95.3217 15.0647 95.3217 16.5658C95.3217 18.3484 96.4475 19.2866 97.9486 19.2866C99.1683 19.2866 99.8251 19.0051 100.857 18.0669C101.232 18.536 101.326 18.8175 101.795 19.1928C101.889 19.2866 102.077 19.2866 102.264 19.1928C102.64 18.9113 103.203 18.2546 103.578 18.0669C103.766 17.8793 103.766 17.5978 103.672 17.504Z" fill="#211C1C"/>
<path d="M77.4956 16.6596C77.2142 17.1287 76.7451 17.504 76.276 17.504C75.6192 17.504 75.2439 16.9411 75.2439 16.2843C75.2439 14.7832 76.5574 14.5017 77.8709 14.5017V14.877C77.7771 15.5338 77.8709 16.0029 77.4956 16.6596ZM80.2165 15.909V13.1882C80.2165 12.0624 80.3103 10.9365 79.3721 10.186C78.6215 9.52921 77.5895 9.24774 76.7451 9.24774C75.1501 9.24774 73.2737 9.90449 72.8984 11.9686C72.8984 12.1562 72.9922 12.3438 73.1799 12.3438L74.8687 12.5315C75.0563 12.5315 75.1501 12.3438 75.1501 12.1562C75.3378 11.4056 75.9007 11.1242 76.5574 11.1242C76.9327 11.1242 77.4018 11.218 77.5895 11.5933C77.8709 11.9686 77.7771 12.4377 77.7771 12.8129V13.0006C76.8389 13.0944 75.4316 13.1882 74.4934 13.6573C73.4613 14.1264 72.6169 15.0647 72.6169 16.5658C72.6169 18.3484 73.7428 19.2866 75.2439 19.2866C76.4636 19.2866 77.1204 19.0051 78.1524 18.0669C78.5277 18.536 78.6215 18.8175 79.1844 19.1928C79.2782 19.2866 79.4659 19.2866 79.6535 19.1928C80.0288 18.9113 80.5917 18.2546 80.967 18.0669C81.1547 17.9731 81.0608 17.7855 80.967 17.5978C80.4979 17.0349 80.2165 16.6596 80.2165 15.909Z" fill="#211C1C"/>
<path d="M123.177 31V23.377H125.696C126.407 23.377 126.979 23.5603 127.412 23.927C127.845 24.2937 128.061 24.7813 128.061 25.39C128.061 25.7713 127.973 26.1013 127.797 26.38C127.621 26.6513 127.368 26.8603 127.038 27.007C127.507 27.1463 127.867 27.3773 128.116 27.7C128.365 28.0153 128.49 28.4077 128.49 28.877C128.49 29.5223 128.263 30.0393 127.808 30.428C127.353 30.8093 126.745 31 125.982 31H123.177ZM124.244 27.524V30.142H125.96C126.891 30.142 127.357 29.7057 127.357 28.833C127.357 28.4003 127.236 28.074 126.994 27.854C126.759 27.634 126.407 27.524 125.938 27.524H124.244ZM124.244 24.235V26.688H125.586C126.495 26.688 126.95 26.281 126.95 25.467C126.95 25.0637 126.836 24.7593 126.609 24.554C126.389 24.3413 126.059 24.235 125.619 24.235H124.244Z" fill="#211C1C"/>
<path d="M115.582 31V23.377H118.09C119.212 23.377 120.067 23.7033 120.653 24.356C121.247 25.0013 121.544 25.9473 121.544 27.194C121.544 28.426 121.244 29.3683 120.642 30.021C120.041 30.6737 119.179 31 118.057 31H115.582ZM116.704 24.257V30.12H117.936C119.572 30.12 120.389 29.185 120.389 27.315V27.062C120.389 26.1307 120.184 25.4303 119.773 24.961C119.363 24.4917 118.75 24.257 117.936 24.257H116.704Z" fill="#211C1C"/>
<path d="M111.467 31.165C110.631 31.165 109.979 30.9047 109.509 30.384C109.04 29.8633 108.805 29.1373 108.805 28.206C108.805 27.282 109.04 26.5597 109.509 26.039C109.979 25.5183 110.631 25.258 111.467 25.258C112.303 25.258 112.956 25.5183 113.425 26.039C113.895 26.5597 114.129 27.282 114.129 28.206C114.129 29.1373 113.895 29.8633 113.425 30.384C112.956 30.9047 112.303 31.165 111.467 31.165ZM111.467 30.285C112.501 30.285 113.018 29.592 113.018 28.206C113.018 26.8273 112.501 26.138 111.467 26.138C110.433 26.138 109.916 26.8273 109.916 28.206C109.916 29.592 110.433 30.285 111.467 30.285Z" fill="#211C1C"/>
<path d="M106.401 31V27.216C106.401 26.8493 106.331 26.578 106.192 26.402C106.053 26.226 105.833 26.138 105.532 26.138C104.997 26.138 104.458 26.303 103.915 26.633C103.922 26.6843 103.926 26.7393 103.926 26.798C103.926 26.8567 103.926 26.9153 103.926 26.974V31H102.837V27.216C102.837 26.8493 102.767 26.578 102.628 26.402C102.489 26.226 102.269 26.138 101.968 26.138C101.411 26.138 100.875 26.2993 100.362 26.622V31H99.2729V25.423H100.186L100.296 25.984C101 25.5 101.686 25.258 102.353 25.258C103.035 25.258 103.497 25.5183 103.739 26.039C104.465 25.5183 105.191 25.258 105.917 25.258C106.423 25.258 106.812 25.401 107.083 25.687C107.354 25.973 107.49 26.38 107.49 26.908V31H106.401Z" fill="#211C1C"/>
<path d="M96.7502 31L96.6622 30.428C96.3982 30.6553 96.1048 30.8313 95.7822 30.956C95.4668 31.0807 95.1515 31.143 94.8362 31.143C94.3155 31.143 93.8975 30.9963 93.5822 30.703C93.2742 30.4023 93.1202 30.0027 93.1202 29.504C93.1202 28.9687 93.3108 28.5433 93.6922 28.228C94.0735 27.9053 94.5868 27.744 95.2322 27.744C95.6575 27.744 96.1195 27.8063 96.6182 27.931V27.205C96.6182 26.809 96.5265 26.5303 96.3432 26.369C96.1672 26.2077 95.8628 26.127 95.4302 26.127C94.8068 26.127 94.1615 26.2407 93.4942 26.468V25.698C93.7582 25.5587 94.0808 25.4523 94.4622 25.379C94.8435 25.2983 95.2285 25.258 95.6172 25.258C96.3138 25.258 96.8272 25.4047 97.1572 25.698C97.4872 25.984 97.6522 26.424 97.6522 27.018V31H96.7502ZM95.1002 30.318C95.5988 30.318 96.1048 30.131 96.6182 29.757V28.635C96.2368 28.5397 95.8482 28.492 95.4522 28.492C94.6235 28.492 94.2092 28.811 94.2092 29.449C94.2092 29.7277 94.2862 29.944 94.4402 30.098C94.5942 30.2447 94.8142 30.318 95.1002 30.318Z" fill="#211C1C"/>
<path d="M90.7784 31V27.271C90.7784 26.8823 90.6978 26.5963 90.5364 26.413C90.3824 26.2297 90.1368 26.138 89.7994 26.138C89.2201 26.138 88.6518 26.325 88.0944 26.699V31H87.0054V25.423H87.9184L88.0284 26.039C88.7251 25.5183 89.4584 25.258 90.2284 25.258C90.7638 25.258 91.1708 25.401 91.4494 25.687C91.7281 25.9657 91.8674 26.3727 91.8674 26.908V31H90.7784Z" fill="#211C1C"/>
<path d="M82.9158 31.055L80.6718 25.423H81.8378L83.4438 29.988L84.9948 25.423H86.1168L83.5758 31.979C83.3851 32.485 83.1541 32.848 82.8828 33.068C82.6188 33.288 82.2814 33.398 81.8708 33.398C81.5628 33.398 81.2768 33.3466 81.0128 33.244V32.463C81.2108 32.5143 81.4198 32.54 81.6398 32.54C81.9111 32.54 82.1238 32.4703 82.2778 32.331C82.4391 32.199 82.5821 31.9606 82.7068 31.616L82.9158 31.055Z" fill="#211C1C"/>
<path d="M73.924 31V23.377H76.432C77.554 23.377 78.4083 23.7033 78.995 24.356C79.589 25.0013 79.886 25.9473 79.886 27.194C79.886 28.426 79.5853 29.3683 78.984 30.021C78.3827 30.6737 77.521 31 76.399 31H73.924ZM75.046 24.257V30.12H76.278C77.9133 30.12 78.731 29.185 78.731 27.315V27.062C78.731 26.1307 78.5257 25.4303 78.115 24.961C77.7043 24.4917 77.092 24.257 76.278 24.257H75.046Z" fill="#211C1C"/>
<defs>
<clipPath id="clip0_1015_1182">
<rect width="31.0001" height="34.9888" fill="white" transform="translate(31.9999 2.50562)"/>
</clipPath>
</defs>
</svg>
