<svg width="160" height="40" viewBox="0 0 160 40" fill="none" xmlns="http://www.w3.org/2000/svg">
<path d="M61.9783 27.158L63.242 24.2229C64.6076 25.2421 66.4216 25.772 68.2152 25.772C69.5401 25.772 70.3757 25.2624 70.3757 24.4879C70.3553 22.3274 62.4471 24.0191 62.3859 18.5975C62.3655 15.8459 64.8114 13.7261 68.2764 13.7261C70.335 13.7261 72.3936 14.2357 73.8611 15.3975L72.6789 18.3936C71.3337 17.5376 69.6624 16.9261 68.0725 16.9261C66.9923 16.9261 66.2789 17.4357 66.2789 18.0879C66.2993 20.2077 74.2687 19.0459 74.3503 24.2229C74.3503 27.0357 71.9655 29.0128 68.5413 29.0128C66.0343 29.0128 63.7311 28.4217 61.9783 27.158ZM110.467 23.1631C109.836 24.2637 108.653 25.0179 107.288 25.0179C105.27 25.0179 103.639 23.3873 103.639 21.3694C103.639 19.3516 105.27 17.721 107.288 17.721C108.653 17.721 109.836 18.4752 110.467 19.5758L113.953 17.6395C112.648 15.3159 110.141 13.7261 107.288 13.7261C103.069 13.7261 99.6445 17.1503 99.6445 21.3694C99.6445 25.5886 103.069 29.0128 107.288 29.0128C110.162 29.0128 112.648 27.4433 113.953 25.0994L110.467 23.1631ZM76.1031 7.38727H80.4649V28.7274H76.1031V7.38727ZM115.665 7.38727V28.7274H120.027V22.3274L125.204 28.7274H130.789L124.205 21.1249L130.299 14.0319H124.959L120.027 19.9223V7.38727H115.665ZM93.428 23.2038C92.7961 24.2433 91.4917 25.0179 90.0241 25.0179C88.0063 25.0179 86.3757 23.3873 86.3757 21.3694C86.3757 19.3516 88.0063 17.721 90.0241 17.721C91.4917 17.721 92.7961 18.5363 93.428 19.5962V23.2038ZM93.428 14.0319V15.7643C92.7146 14.5618 90.9413 13.7261 89.0866 13.7261C85.2547 13.7261 82.2382 17.1096 82.2382 21.3491C82.2382 25.5886 85.2547 29.0128 89.0866 29.0128C90.9413 29.0128 92.7146 28.1771 93.428 26.9745V28.707H97.7898V14.0319H93.428Z" fill="black"/>
<path d="M35.0127 23.1834C35.0127 24.6713 33.8102 25.8739 32.3223 25.8739C30.8344 25.8739 29.6318 24.6713 29.6318 23.1834C29.6318 21.6955 30.8344 20.493 32.3223 20.493H35.0127V23.1834ZM36.358 23.1834C36.358 21.6955 37.5605 20.493 39.0484 20.493C40.5363 20.493 41.7388 21.6955 41.7388 23.1834V29.9095C41.7388 31.3974 40.5363 32.6 39.0484 32.6C37.5605 32.6 36.358 31.3974 36.358 29.9095V23.1834Z" fill="#E01E5A"/>
<path d="M39.0485 12.3809C37.5606 12.3809 36.358 11.1783 36.358 9.69045C36.358 8.20255 37.5606 7 39.0485 7C40.5364 7 41.7389 8.20255 41.7389 9.69045V12.3809H39.0485ZM39.0485 13.7465C40.5364 13.7465 41.7389 14.949 41.7389 16.4369C41.7389 17.9248 40.5364 19.1274 39.0485 19.1274H32.302C30.8141 19.1274 29.6115 17.9248 29.6115 16.4369C29.6115 14.949 30.8141 13.7465 32.302 13.7465H39.0485Z" fill="#36C5F0"/>
<path d="M49.8305 16.4369C49.8305 14.949 51.0331 13.7465 52.521 13.7465C54.0089 13.7465 55.2114 14.949 55.2114 16.4369C55.2114 17.9248 54.0089 19.1274 52.521 19.1274H49.8305V16.4369ZM48.4853 16.4369C48.4853 17.9248 47.2828 19.1274 45.7949 19.1274C44.307 19.1274 43.1044 17.9248 43.1044 16.4369V9.69045C43.1044 8.20255 44.307 7 45.7949 7C47.2828 7 48.4853 8.20255 48.4853 9.69045V16.4369Z" fill="#2EB67D"/>
<path d="M45.7949 27.2191C47.2828 27.2191 48.4853 28.4216 48.4853 29.9095C48.4853 31.3974 47.2828 32.6 45.7949 32.6C44.307 32.6 43.1044 31.3974 43.1044 29.9095V27.2191H45.7949ZM45.7949 25.8739C44.307 25.8739 43.1044 24.6713 43.1044 23.1834C43.1044 21.6955 44.307 20.493 45.7949 20.493H52.5414C54.0293 20.493 55.2318 21.6955 55.2318 23.1834C55.2318 24.6713 54.0293 25.8739 52.5414 25.8739H45.7949Z" fill="#ECB22E"/>
</svg>
