<svg width="160" height="40" viewBox="0 0 160 40" fill="none" xmlns="http://www.w3.org/2000/svg">
<g clip-path="url(#clip0_1011_265)">
<path d="M98.9553 31.0423V21.9223H100.028L103.426 28.3599V21.9223H104.678V31.0423H103.515L100.028 24.247V31.0423H98.9553Z" fill="#201C1D"/>
<path d="M77.1634 8.39998C75.5115 8.39998 73.6853 9.0404 73.2874 11.1326C73.2783 11.1708 73.2769 11.2104 73.2832 11.2491C73.2896 11.2879 73.3036 11.3249 73.3244 11.3582C73.3452 11.3915 73.3724 11.4203 73.4044 11.443C73.4364 11.4656 73.4726 11.4817 73.5109 11.4903H73.5389L75.2343 11.6948C75.312 11.6723 75.3804 11.6253 75.4293 11.5609C75.4782 11.4965 75.5051 11.418 75.5059 11.3372C75.5696 11.0198 75.7472 10.7367 76.0051 10.5411C76.263 10.3456 76.5836 10.2511 76.9063 10.2754C77.0923 10.2673 77.2774 10.304 77.4461 10.3826C77.6147 10.4612 77.762 10.5793 77.8753 10.7269C78.0732 11.1259 78.1525 11.5741 78.1022 12.0167V12.267C76.9857 12.314 75.8815 12.5185 74.823 12.8762C74.257 13.1163 73.777 13.5225 73.4466 14.0411C73.1161 14.5597 72.9507 15.1664 72.9722 15.7809C72.9722 17.6362 74.1312 18.5616 75.5685 18.5616C76.1158 18.5948 76.663 18.495 77.1634 18.2708C77.6638 18.0466 78.1025 17.7046 78.442 17.2741C78.6935 17.7145 79.0232 18.1067 79.4121 18.432C79.4767 18.4666 79.5503 18.4806 79.6231 18.472C79.6958 18.4634 79.7642 18.4326 79.8189 18.3839C80.1766 18.0643 80.789 17.4898 81.1512 17.188C81.2155 17.1237 81.2516 17.0365 81.2516 16.9455C81.2516 16.8546 81.2155 16.7673 81.1512 16.703C80.7357 16.2549 80.5025 15.6678 80.4973 15.0567V12.3598C80.4973 11.2008 80.5935 10.0977 79.7519 9.28181C79.0248 8.68325 78.1047 8.36979 77.1634 8.39998ZM99.9366 8.39998C98.2847 8.39998 96.4585 9.0404 96.0606 11.1326C96.0515 11.1708 96.0501 11.2104 96.0564 11.2491C96.0628 11.2879 96.0767 11.3249 96.0975 11.3582C96.1183 11.3915 96.1455 11.4203 96.1776 11.443C96.2096 11.4656 96.2458 11.4817 96.2841 11.4903H96.3121L98.0075 11.6948C98.0895 11.6765 98.1629 11.6313 98.2164 11.5666C98.2698 11.5018 98.3001 11.4211 98.3026 11.3372C98.3663 11.0198 98.5438 10.7367 98.8018 10.5411C99.0597 10.3456 99.3802 10.2511 99.703 10.2754C99.8889 10.2673 100.074 10.304 100.243 10.3826C100.411 10.4612 100.559 10.5793 100.672 10.7269C100.862 11.1293 100.932 11.5763 100.875 12.0167V12.267C99.7667 12.314 98.6703 12.5196 97.6197 12.8762C97.0531 13.1165 96.5727 13.5233 96.2422 14.0425C95.9118 14.5618 95.7467 15.1692 95.7689 15.7843C95.7689 17.6396 96.9279 18.565 98.3652 18.565C98.9131 18.5981 99.461 18.498 99.9618 18.2732C100.463 18.0484 100.901 17.7056 101.241 17.2741C101.492 17.7145 101.82 18.1067 102.21 18.432C102.275 18.4669 102.348 18.481 102.421 18.4724C102.494 18.4638 102.563 18.4329 102.618 18.3839C102.975 18.0643 103.587 17.4898 103.95 17.188C104.011 17.1219 104.044 17.0353 104.044 16.9455C104.044 16.8557 104.011 16.7692 103.95 16.703C103.534 16.2549 103.301 15.6679 103.295 15.0567V12.3598C103.295 11.2008 103.372 10.0977 102.53 9.28181C101.805 8.67936 100.884 8.36537 99.9422 8.39998H99.9366ZM87.1261 8.49163C86.6121 8.48032 86.1089 8.63971 85.6951 8.94488C85.2813 9.25004 84.9804 9.68375 84.8394 10.1782V8.98675C84.8339 8.9036 84.7983 8.82531 84.7392 8.7665C84.6802 8.70768 84.6018 8.67235 84.5186 8.6671H82.9092C82.8213 8.66936 82.7376 8.7053 82.6754 8.76749C82.6132 8.82967 82.5773 8.91336 82.5751 9.00128V18.1548C82.5831 18.2369 82.6194 18.3138 82.6776 18.3722C82.7359 18.4307 82.8126 18.4672 82.8947 18.4756H84.6349C84.7232 18.4736 84.8073 18.4376 84.8698 18.3752C84.9322 18.3127 84.9682 18.2286 84.9702 18.1403V13.2953C84.9702 12.2335 84.9154 10.7917 86.166 10.7917C87.4156 10.7917 87.2267 12.2849 87.2267 13.2953V18.1414C87.2318 18.2259 87.2667 18.3059 87.3252 18.3671C87.3838 18.4283 87.4621 18.4667 87.5463 18.4756H89.2865C89.3746 18.4733 89.4585 18.4372 89.5207 18.3748C89.5829 18.3124 89.6187 18.2284 89.6207 18.1403V13.2953C89.5809 12.7106 89.6337 12.1233 89.7772 11.5551C89.852 11.3394 89.9889 11.1506 90.1706 11.0124C90.3523 10.8742 90.5709 10.7928 90.7987 10.7783C91.0352 10.7508 91.2731 10.8174 91.4609 10.9638C91.6487 11.1102 91.7714 11.3246 91.8023 11.5607C91.8605 12.1385 91.8761 12.7197 91.8504 13.2997V18.1459C91.8553 18.2308 91.8902 18.3111 91.949 18.3726C92.0078 18.434 92.0866 18.4725 92.1712 18.4812H93.9102C93.9985 18.4792 94.0827 18.4432 94.1451 18.3807C94.2076 18.3183 94.2435 18.2342 94.2455 18.1459V12.3307C94.2455 11.3617 94.3416 10.2329 93.794 9.45728C93.5132 9.10561 93.1437 8.83509 92.7237 8.67353C92.3036 8.51198 91.8481 8.46522 91.404 8.53806C90.9599 8.6109 90.5432 8.80072 90.1968 9.08799C89.8504 9.37526 89.5867 9.74962 89.4329 10.1726C88.8965 9.03034 88.2169 8.50057 87.1306 8.50057L87.1261 8.49163ZM116.716 8.49163C114.212 8.49163 112.805 10.7023 112.805 13.5501C112.805 16.4001 114.185 18.6577 116.716 18.6577C119.139 18.6577 120.689 16.4336 120.689 13.6384C120.689 10.7605 119.281 8.49163 116.682 8.49163H116.716ZM126.639 8.49163C125.437 8.49163 124.754 9.07281 124.264 10.3425V8.94763C124.244 8.87761 124.203 8.81588 124.145 8.77159C124.087 8.7273 124.016 8.70281 123.944 8.70175H122.334C122.252 8.70066 122.172 8.73011 122.111 8.78442C122.049 8.83872 122.009 8.91401 122 8.99569V18.1414C122.005 18.2261 122.04 18.3063 122.099 18.3676C122.158 18.429 122.236 18.4676 122.321 18.4767H124.06C124.148 18.4742 124.232 18.438 124.294 18.3757C124.356 18.3133 124.393 18.2295 124.395 18.1414V13.2182C124.369 12.6238 124.47 12.0307 124.69 11.478C124.76 11.2791 124.885 11.1042 125.05 10.9736C125.216 10.843 125.415 10.7621 125.625 10.7403C126.827 10.7403 126.711 12.1955 126.711 13.2014V18.1682C126.721 18.2469 126.759 18.3195 126.818 18.3734C126.876 18.4272 126.951 18.459 127.031 18.4633H128.771C128.852 18.462 128.931 18.4315 128.992 18.3774C129.054 18.3233 129.093 18.2491 129.105 18.1682V12.4224C129.105 11.5283 129.105 10.3045 128.655 9.57351C128.442 9.22942 128.143 8.94772 127.786 8.75709C127.43 8.56646 127.029 8.4737 126.625 8.48828L126.639 8.49163ZM105.751 8.6481C105.709 8.64795 105.667 8.65612 105.628 8.67213C105.589 8.68814 105.554 8.71168 105.524 8.74139C105.495 8.77111 105.471 8.8064 105.455 8.84525C105.439 8.8841 105.431 8.92573 105.431 8.96775V10.2821C105.426 10.3662 105.455 10.4488 105.511 10.5116C105.568 10.5745 105.646 10.6125 105.73 10.6174H108.73L105.333 15.6502C105.168 15.9184 105.086 16.2291 105.091 16.5443V17.8765C105.088 17.9267 105.098 17.9768 105.12 18.0218C105.152 18.0901 105.209 18.1436 105.279 18.1716C105.35 18.1996 105.428 18.2 105.498 18.1727C106.426 17.6787 107.462 17.4202 108.514 17.42C109.566 17.4198 110.601 17.6779 111.53 18.1716C111.578 18.1903 111.63 18.1971 111.681 18.1912C111.732 18.1854 111.781 18.1671 111.824 18.138C111.866 18.109 111.901 18.0699 111.925 18.0244C111.949 17.9788 111.961 17.928 111.961 17.8765V16.4884C111.956 16.3877 111.925 16.29 111.871 16.205C111.816 16.1199 111.741 16.0504 111.652 16.0033C110.653 15.4686 109.526 15.2178 108.395 15.278L111.357 10.9169C111.567 10.6866 111.715 10.4066 111.788 10.1033V8.98675C111.792 8.90272 111.762 8.82068 111.706 8.75807C111.65 8.69545 111.571 8.65721 111.487 8.65145H105.751V8.6481ZM116.71 10.3894C116.977 10.3714 117.242 10.4507 117.455 10.6126C117.668 10.7745 117.815 11.0081 117.869 11.2701C118.066 12.0636 118.149 12.8806 118.116 13.6976C118.116 14.8555 118.057 16.8125 116.716 16.8125C115.375 16.8125 115.359 14.3895 115.359 13.2897C115.359 12.1899 115.418 10.3816 116.677 10.3816L116.71 10.3894ZM78.0843 13.7088V14.091C78.1514 14.7382 78.0396 15.3909 77.7647 15.9799C77.658 16.2114 77.4904 16.4095 77.2797 16.5531C77.0691 16.6966 76.8233 16.7801 76.5688 16.7946C75.8993 16.7946 75.5071 16.2582 75.5071 15.4814C75.4881 13.9793 76.8404 13.7133 78.0899 13.7133L78.0843 13.7077V13.7088ZM100.858 13.7088V14.091C100.926 14.7413 100.815 15.3979 100.538 15.9899C100.432 16.2216 100.264 16.4199 100.053 16.5633C99.8425 16.7066 99.5965 16.7897 99.342 16.8036C98.6725 16.8036 98.2802 16.2671 98.2802 15.4903C98.2802 13.9748 99.599 13.7021 100.849 13.7021L100.858 13.7077V13.7088Z" fill="#201C1D"/>
<path d="M92.5177 21.9223H97.5247V22.9282H93.7694V25.8564H97.1671V26.7505H93.7694V30.1482H97.5247V31.0423H92.5177V21.9223ZM90.7294 31.0423H89.6565V26.7505H86.4377V31.0423H85.3647V21.9223H86.4377V25.6776H89.6565V21.9223H90.7294V31.0423ZM81.7882 31.0423H80.7153V22.9952H78.3906V21.9223H84.113V22.9952H81.7882V31.0423Z" fill="#201C1D"/>
<path fill-rule="evenodd" clip-rule="evenodd" d="M75.1718 21.9223L72.3106 31.0423H73.3835L74.2776 28.5388H76.7812L77.6753 31.0423H78.7482L75.887 21.9223H75.1718ZM75.5294 23.7105L74.6353 27.4658H76.4235L75.5294 23.7105ZM108.969 21.9223L106.108 31.0423H107.181L108.075 28.5388H110.579L111.473 31.0423H112.546L109.685 21.9223H108.969ZM109.327 23.7105L108.433 27.4658H110.221L109.327 23.7105Z" fill="#201C1D"/>
<path fill-rule="evenodd" clip-rule="evenodd" d="M66.5882 23.9699L48.7059 21.6038L30.8235 23.9699L48.7059 39L66.5882 23.9699Z" fill="#FCBF92"/>
<path fill-rule="evenodd" clip-rule="evenodd" d="M30.8235 23.9699L48.7059 29.7113V39L30.8235 29.3726V23.9699Z" fill="#9D5025"/>
<path fill-rule="evenodd" clip-rule="evenodd" d="M66.5882 23.9699L48.7059 29.7113V39L66.5882 29.3726V23.9699Z" fill="#F58534"/>
<path fill-rule="evenodd" clip-rule="evenodd" d="M33.1326 15.8043H30.8235V21.2651L33.1326 21.7167L35.6987 18.7918L33.1326 15.8043Z" fill="#9D5025"/>
<path fill-rule="evenodd" clip-rule="evenodd" d="M35.6987 21.4909L33.1326 21.7167V15.8043H35.6987V21.4909Z" fill="#F58534"/>
<path fill-rule="evenodd" clip-rule="evenodd" d="M37.4288 8.99567L34.3888 9.61037V21.9984L37.4288 22.6768L40.2118 15.8044L37.4288 8.99567Z" fill="#9D5025"/>
<path fill-rule="evenodd" clip-rule="evenodd" d="M40.2118 22.3381L37.4288 22.6768V8.99567L40.2118 9.33431V22.3381Z" fill="#F58534"/>
<path fill-rule="evenodd" clip-rule="evenodd" d="M43.3568 11.7518L39.16 12.2022V23.0657L43.3568 23.9699L47.8117 17.8318L43.3568 11.7518Z" fill="#9D5025"/>
<path fill-rule="evenodd" clip-rule="evenodd" d="M46.1867 23.4614L43.3568 23.9699V11.7507L46.1867 11.9764V23.4614Z" fill="#F58534"/>
<path fill-rule="evenodd" clip-rule="evenodd" d="M48.7059 1.89746L45.876 2.85864V24.4773L48.7059 25.0931L51.5357 13.4953L48.7059 1.89746Z" fill="#9D5025"/>
<path fill-rule="evenodd" clip-rule="evenodd" d="M51.3245 23.4614L54.0549 23.9699L58.2517 15.8044L54.0549 7.69696L51.3245 8.14849V23.4614Z" fill="#9D5025"/>
<path fill-rule="evenodd" clip-rule="evenodd" d="M58.2517 15.8044L54.0549 7.69696L51.3245 8.14849" fill="#9D5025"/>
<path fill-rule="evenodd" clip-rule="evenodd" d="M57.1475 22.3381L59.9818 22.6768L63.0218 12.3721L59.9818 2.12323L57.1475 2.85752V22.3381Z" fill="#9D5025"/>
<path fill-rule="evenodd" clip-rule="evenodd" d="M61.7131 21.4909L64.2792 21.7167L66.5882 11.5238L64.2792 1L61.7131 1.67729V21.4909Z" fill="#9D5025"/>
<path fill-rule="evenodd" clip-rule="evenodd" d="M48.7059 1.89747L51.5358 2.85865V24.4773L48.7059 25.092V1.89747ZM58.2517 8.6L54.0549 7.69694V23.9699L58.2517 23.0657V8.6ZM63.0218 3.42194L59.9818 2.12324V22.6768L63.0218 21.9984V3.42306V3.42194ZM66.5882 2.23724L64.2792 1V21.7167L66.5882 21.2652V2.23724Z" fill="#F58534"/>
</g>
<defs>
<clipPath id="clip0_1011_265">
<rect width="98.3529" height="38" fill="white" transform="translate(30.8235 1)"/>
</clipPath>
</defs>
</svg>
