<svg width="160" height="40" viewBox="0 0 160 40" fill="none" xmlns="http://www.w3.org/2000/svg">
<path d="M41.8194 20.0254H35.8784V14.1454H42.1422C44.4351 14.1454 45.5816 15.1397 45.5816 17.1307C45.5816 19.0613 44.3271 20.0254 41.8194 20.0254ZM46.0897 14.0766C45.271 13.3589 44.1368 13.0001 42.6725 13.0001L34.166 13.046V27.1148H35.8796L35.8636 21.126H42.195C43.7821 21.126 45.0317 20.7672 45.9437 20.0496C46.8557 19.332 47.3123 18.3365 47.3123 17.0631C47.3123 15.7897 46.9048 14.7942 46.091 14.0766H46.0897ZM57.1849 24.1609C57.0216 24.62 56.7406 25.0331 56.3711 25.3569C55.6039 26.0951 54.4317 26.4636 52.8568 26.4636C51.4329 26.4636 50.3405 26.1108 49.5795 25.3883C48.8184 24.6659 48.4367 23.7114 48.4367 22.5094C48.4367 21.8835 48.5361 21.3278 48.7362 20.8421C48.9248 20.3729 49.2214 19.9531 49.6028 19.6159C50.3908 18.9091 51.4759 18.5551 52.8568 18.5551C55.9157 18.5551 57.4476 19.872 57.4476 22.5094C57.4476 23.1352 57.3592 23.6861 57.1898 24.1609H57.1849ZM57.5016 18.9707C56.457 18.0332 54.9116 17.5596 52.8617 17.5596C50.9272 17.5596 49.4309 18.038 48.3765 18.9961C47.424 19.8623 46.9428 21.0318 46.9428 22.5045C46.9428 23.9664 47.4338 25.1443 48.417 26.0407C48.9596 26.524 49.5917 26.8755 50.3147 27.0918C51.0365 27.3093 51.8847 27.418 52.8568 27.418C54.8944 27.418 56.441 26.9541 57.5114 26.0262C58.4639 25.1805 58.9451 24.0111 58.9451 22.5033C58.9451 20.9919 58.4639 19.8128 57.5016 18.9647V18.9707ZM70.4637 24.568C70.4637 26.4612 68.7391 27.4071 65.2924 27.4071C64.2392 27.4071 63.3505 27.3419 62.63 27.2102C61.9095 27.0773 61.3227 26.8598 60.8735 26.5566C60.5257 26.3254 60.2408 26.0139 60.0437 25.6493C59.8399 25.276 59.7061 24.8072 59.6448 24.2382L61.2491 24.2237C61.2491 24.9691 61.5289 25.5164 62.0911 25.8704C62.6926 26.2932 63.7605 26.5047 65.2924 26.5047C67.7019 26.5047 68.9073 25.9102 68.9073 24.7214C68.9073 24.0268 68.4973 23.5496 67.6946 23.2862C67.5313 23.2354 66.5567 23.1025 64.7768 22.8863C62.997 22.6688 61.8788 22.4755 61.4393 22.304C60.488 21.9307 60.013 21.2613 60.013 20.2948C60.013 19.3477 60.4377 18.6421 61.292 18.1794C61.7118 17.9873 62.2372 17.8399 62.8669 17.7324C63.5911 17.6198 64.3236 17.5673 65.0567 17.5753C68.3746 17.5753 70.0341 18.5986 70.0341 20.6476H68.5084C68.5084 19.2063 67.3423 18.4814 65.0101 18.4814C63.8219 18.4814 62.9368 18.6324 62.3538 18.92C61.7707 19.2063 61.4798 19.6606 61.4798 20.2646C61.4798 20.8288 61.8739 21.2372 62.6619 21.4897C63.1222 21.6202 64.1803 21.7712 65.8386 21.9427C67.3226 22.0744 68.3402 22.2605 68.8926 22.4985C69.9482 22.9008 70.4736 23.5858 70.4736 24.5523L70.4625 24.5668L70.4637 24.568ZM76.7631 27.1341L76.1101 27.2247L75.7038 27.2549C74.6592 27.2549 73.9117 27.1063 73.4453 26.8079C72.9764 26.5095 72.7517 25.9876 72.7517 25.2458V18.8185H70.8541V17.8737H72.7419L72.7567 14.8413H74.2198V17.8737H76.7656V18.833L74.2198 18.8185V25.0646C74.2198 25.5309 74.345 25.8511 74.5954 26.0226C74.847 26.1942 75.2951 26.2884 75.9395 26.2884C76.0418 26.298 76.145 26.2944 76.2464 26.2775C76.417 26.2473 76.5864 26.2099 76.7533 26.164L76.7681 27.1208L76.7631 27.1341ZM86.8775 25.0017C86.4774 25.3243 86.0232 25.5696 85.5114 25.7423C85.0007 25.9151 84.4115 25.996 83.7475 25.996C80.6886 25.996 79.1604 24.7516 79.1604 22.2665C79.1604 21.1091 79.552 20.203 80.3339 19.5482C81.117 18.8934 82.218 18.566 83.6407 18.566C85.0719 18.566 86.1595 18.897 86.9009 19.5567C87.6423 20.2151 88.013 21.0983 88.013 22.2061C88.013 23.4142 87.6349 24.3445 86.8775 24.9993V25.0017ZM89.4761 17.8762H88.0142L87.9982 19.4636C87.3538 18.8185 86.8935 18.4126 86.6161 18.241C85.7974 17.7976 84.7381 17.5765 83.4382 17.5765C81.5356 17.5765 80.081 18.0054 79.0782 18.8608C78.1269 19.6461 77.6506 20.7841 77.6506 22.2738C77.6506 23.0107 77.7709 23.6655 78.0115 24.2394C78.2533 24.8133 78.6043 25.3086 79.0647 25.7121C80.07 26.5373 81.4889 26.9505 83.324 26.9505C85.5285 26.9505 87.0911 26.3573 88.0142 25.1709V26.8139C88.0142 27.8614 87.6791 28.672 87.0077 29.2459C86.3387 29.821 85.2352 30.1037 83.7008 30.1037C82.2561 30.1037 81.2287 29.9007 80.615 29.5165C80.1534 29.2145 79.8367 28.6938 79.6624 27.952H78.1576C78.3208 28.9886 78.7713 29.7376 79.4881 30.2003C80.3277 30.7331 81.7406 31.0001 83.7377 31.0001C87.5576 31.0001 89.4712 29.6023 89.4712 26.8079V17.8798L89.4761 17.8762ZM97.386 18.81C96.9802 18.7441 96.5697 18.7106 96.1585 18.7098C93.7551 18.7098 92.5534 20.0073 92.5534 22.6012V27.1136H91.1074L91.0915 17.881L92.5546 17.8943V19.5422H92.6307C92.8762 18.8934 93.2666 18.4017 93.7968 18.0658C94.3799 17.7421 95.2489 17.579 96.4052 17.579H97.3872V18.8185L97.386 18.81ZM98.746 21.9137C98.9301 20.8639 99.345 20.052 99.9882 19.4769C100.408 19.1435 100.884 18.8934 101.416 18.7279C101.998 18.5539 102.603 18.4695 103.212 18.4778C104.511 18.4778 105.567 18.8282 106.396 19.5289C107.225 20.2308 107.63 21.027 107.63 21.9125L98.746 21.9137ZM107.773 19.065C107.239 18.5467 106.586 18.1622 105.869 17.9438C105.112 17.6998 104.23 17.579 103.207 17.579C101.313 17.579 99.8434 18.0127 98.7976 18.8789C97.7518 19.7463 97.2313 20.9255 97.2313 22.4187C97.2313 23.9108 97.7333 25.0887 98.7362 25.9707C99.8213 26.9372 101.347 27.4204 103.327 27.4204C104.116 27.4204 104.844 27.3334 105.516 27.1583C106.138 27.003 106.731 26.751 107.273 26.4116C108.153 25.7894 108.711 25.0223 108.948 24.1089H107.367C106.824 25.688 105.474 26.4769 103.315 26.4769C101.79 26.4769 100.618 26.0915 99.8004 25.3195C99.0934 24.6586 98.7411 23.8008 98.7411 22.7474H109.166C109.166 21.1816 108.706 19.9541 107.769 19.0698L107.773 19.065Z" fill="#231F20"/>
<path d="M124.28 22.8482C124.28 25.6342 122.041 27.0285 117.56 27.0285C114.876 27.0285 112.916 26.5494 111.682 25.5937C110.67 24.805 110.166 23.6024 110.166 21.9822H111.969C111.969 24.5852 113.834 25.8848 117.559 25.8848C119.346 25.8848 120.638 25.6195 121.44 25.0863C122.114 24.6171 122.451 23.88 122.451 22.8764C122.451 21.8839 121.992 21.1886 121.073 20.7881C120.552 20.5732 119.285 20.3017 117.258 19.9749C114.715 19.5855 113.067 19.1974 112.312 18.808C111.219 18.2343 110.678 17.2626 110.678 15.8905C110.678 14.6117 111.137 13.6597 112.072 13.0357C113.072 12.3502 114.787 12.0063 117.218 12.0063C121.609 12.0063 123.804 13.4693 123.804 16.3966H121.985C121.985 14.2027 120.355 13.1081 117.094 13.1081C115.46 13.1081 114.264 13.3293 113.507 13.7739C112.791 14.2456 112.435 14.9372 112.435 15.8499C112.435 16.802 112.895 17.4727 113.813 17.8621C114.304 18.0881 115.744 18.4001 118.133 18.8006C120.38 19.1384 121.896 19.5327 122.678 19.9786C123.75 20.5314 124.286 21.4896 124.286 22.8482H124.28ZM138.935 24.2695C138.255 24.814 137.481 25.2275 136.651 25.4893C135.802 25.7607 134.852 25.8946 133.8 25.8946C131.654 25.8946 129.919 25.3148 128.594 24.1552C127.271 22.9944 126.61 21.4478 126.61 19.5143C126.61 17.4997 127.266 15.9298 128.58 14.8046C129.893 13.6794 131.633 13.118 133.8 13.118C135.996 13.118 137.723 13.7064 138.98 14.882C139.623 15.4253 140.127 16.1142 140.452 16.8916C140.77 17.6582 140.927 18.5328 140.927 19.5143C140.927 21.519 140.262 23.1037 138.934 24.2695H138.935ZM139.893 25.2178C140.833 24.5532 141.528 23.7474 141.977 22.8015C142.428 21.8544 142.653 20.7623 142.653 19.5229C142.653 17.3019 141.917 15.5269 140.447 14.1793C139.66 13.4435 138.711 12.8956 137.597 12.5382C136.484 12.1795 135.214 12.0001 133.784 12.0001C131.006 12.0001 128.83 12.6757 127.248 14.027C125.665 15.3758 124.874 17.2086 124.874 19.5217C124.874 21.7733 125.672 23.5901 127.27 24.9709C128.867 26.3528 131.05 27.0444 133.815 27.0444C134.898 27.0444 135.842 26.9707 136.648 26.8233C137.454 26.6759 138.139 26.4511 138.7 26.1477L141.365 28.0001L142.478 26.9744L139.897 25.2178H139.893ZM156.155 26.682H143.826V12.3564L145.52 12.3256V25.4819H156.166L156.15 26.6771L156.155 26.682Z" fill="#336791"/>
<path d="M22.6608 24.7254C22.8331 23.5104 22.7814 23.3323 23.8509 23.5288L24.1229 23.5497C24.945 23.5817 26.0207 23.4379 26.6533 23.1885C28.0132 22.6554 28.8194 21.7634 27.4779 21.9969C24.4183 22.5313 24.2078 21.6541 24.2078 21.6541C27.4385 17.6 28.7898 12.4499 27.6243 11.1895C24.4392 7.75327 18.9416 9.37861 18.8444 9.42038L18.8148 9.42653C18.1402 9.31227 17.4574 9.25229 16.7731 9.24716C15.3885 9.2275 14.3387 9.55429 13.5412 10.0654C13.5412 10.0654 3.72375 6.64267 4.18158 14.3689C4.2788 16.0127 6.96546 26.8066 10.1703 23.546C11.3419 22.3544 12.4742 21.347 12.4742 21.347C13.0649 21.6762 13.7406 21.8224 14.415 21.7647L14.4692 21.7254C14.4519 21.874 14.4593 22.0178 14.4913 22.1897C13.6667 22.9699 13.908 23.1075 12.2576 23.3949C10.5875 23.6861 11.5684 24.2058 12.2083 24.3409C12.9861 24.5043 14.7818 24.7377 15.9965 23.3003L15.9473 23.4637C16.2722 23.6836 16.25 25.0399 16.2968 26.0093C16.3423 26.9798 16.4199 27.8828 16.6525 28.4172C16.8863 28.9504 17.162 30.3226 19.3305 29.9307C21.1434 29.6015 22.5304 29.1285 22.6571 24.7267" fill="#231F20"/>
<path d="M22.6608 24.7254C22.8331 23.5104 22.7814 23.3323 23.8509 23.5288L24.1229 23.5497C24.945 23.5817 26.0207 23.4379 26.6533 23.1885C28.0132 22.6554 28.8194 21.7634 27.4779 21.9969C24.4183 22.5313 24.2078 21.6541 24.2078 21.6541C27.4385 17.6 28.7898 12.4499 27.6243 11.1895C24.4392 7.75327 18.9416 9.37861 18.8444 9.42038L18.8148 9.42653C18.1402 9.31227 17.4574 9.25229 16.7731 9.24716C15.3885 9.2275 14.3387 9.55429 13.5412 10.0654C13.5412 10.0654 3.72375 6.64267 4.18158 14.3689C4.2788 16.0127 6.96546 26.8066 10.1703 23.546C11.3419 22.3544 12.4742 21.347 12.4742 21.347C13.0649 21.6762 13.7406 21.8224 14.415 21.7647L14.4692 21.7254C14.4519 21.874 14.4593 22.0178 14.4913 22.1897C13.6667 22.9699 13.908 23.1075 12.2576 23.3949C10.5875 23.6861 11.5684 24.2058 12.2083 24.3409C12.9861 24.5043 14.7818 24.7377 15.9965 23.3003L15.9473 23.4637C16.2722 23.6836 16.25 25.0399 16.2968 26.0093C16.3423 26.9798 16.4199 27.8828 16.6525 28.4172C16.8863 28.9504 17.162 30.3226 19.3305 29.9307C21.1434 29.6015 22.5304 29.1285 22.6571 24.7267" stroke="#231F20" stroke-width="2.24669"/>
<path d="M27.4815 21.9955C24.4216 22.5299 24.2111 21.6528 24.2111 21.6528C27.4421 17.5966 28.7923 12.4496 27.6267 11.1892C24.4475 7.75339 18.9443 9.37857 18.8459 9.42034L18.8163 9.42648C18.1416 9.31224 17.4587 9.25226 16.7744 9.24714C15.3909 9.22748 14.3397 9.55424 13.5434 10.0653C13.5434 10.0653 3.7237 6.64292 4.18157 14.3684C4.27881 16.012 6.96575 26.806 10.1709 23.5445C11.3426 22.353 12.475 21.3457 12.475 21.3457C13.0658 21.6749 13.7416 21.8211 14.4161 21.7634L14.4702 21.724C14.453 21.8727 14.4616 22.0164 14.4924 22.1884C13.6677 22.9696 13.909 23.106 12.2596 23.3934C10.5894 23.6846 11.5703 24.2042 12.2104 24.3393C12.9883 24.5027 14.7841 24.7361 15.9989 23.2989L15.9497 23.4635C16.2734 23.6821 16.5011 24.8884 16.4642 25.9841C16.4273 27.0787 16.4002 27.828 16.655 28.4164C16.911 29.0023 17.1645 30.3204 19.3345 29.9286C21.1488 29.6006 22.0879 28.7493 22.2184 27.3268C22.3107 26.317 22.5212 26.4669 22.5347 25.5628L22.7034 25.1353C22.8966 23.7669 22.7341 23.3247 23.8505 23.5298L24.1225 23.5507C24.9447 23.5826 26.0217 23.4389 26.6531 23.1908C28.0132 22.6564 28.8194 21.7658 27.4778 21.9992L27.4815 21.9955Z" fill="#336791"/>
<path d="M18.9393 9.4161C18.5978 9.50669 24.4337 7.62869 27.7506 11.1815C28.9223 12.4388 27.5651 17.5684 24.3162 21.6109M16.2137 22.7666C16.1296 25.3057 16.2348 27.8631 16.5317 28.4851C16.8286 29.107 17.4621 30.3153 19.6445 29.9236C21.4669 29.5955 22.13 28.9613 22.4171 27.5608C22.6237 26.5324 23.0381 23.6701 23.0901 23.0849L16.2137 22.7666ZM13.5995 10.0343C13.5995 10.0343 3.71678 6.64928 4.18197 14.3523C4.28466 15.9903 6.98051 26.7479 10.2034 23.4926C11.3812 22.305 12.4452 21.3734 12.4452 21.3734L13.5995 10.0343Z" stroke="white" stroke-width="0.561674" stroke-linecap="round" stroke-linejoin="round"/>
<path fill-rule="evenodd" clip-rule="evenodd" d="M24.2359 21.1424C24.2359 21.1424 24.44 21.9995 27.4831 21.4778C28.8151 21.2494 28.0134 22.1209 26.663 22.6437C25.5546 23.0729 23.0701 23.1822 23.0297 22.5897C22.9258 21.0607 24.3386 21.5259 24.2359 21.1424C24.1443 20.7975 23.5112 20.4597 23.0933 19.6159C22.7291 18.8778 18.0937 13.2272 24.3789 14.0662C24.6099 14.0265 22.7389 9.08145 16.8557 9.00091C10.9713 8.92038 11.1668 15.0326 11.1668 15.0326" fill="#336791"/>
<path d="M24.2359 21.1424C24.2359 21.1424 24.44 21.9995 27.4831 21.4778C28.8151 21.2494 28.0134 22.1209 26.663 22.6437C25.5546 23.0729 23.0701 23.1822 23.0297 22.5897C22.9258 21.0607 24.3386 21.5259 24.2359 21.1424ZM24.2359 21.1424C24.1443 20.7975 23.5112 20.4597 23.0933 19.6159C22.7291 18.8778 18.0937 13.2272 24.3789 14.0662C24.6099 14.0265 22.7389 9.08145 16.8557 9.00091C10.9713 8.92038 11.1668 15.0326 11.1668 15.0326" stroke="white" stroke-width="0.561674" stroke-linecap="round" stroke-linejoin="bevel"/>
<path d="M14.4469 22.224C13.5888 22.8336 13.842 22.9401 12.1257 23.1647C10.3903 23.3932 11.4095 23.7983 12.0746 23.9039C12.8828 24.0325 14.75 24.2139 16.011 23.0908C16.3947 22.7481 16.0085 22.2019 15.4816 22.0637C15.2258 21.9965 14.8856 21.9121 14.4457 22.2231L14.4469 22.224Z" stroke="white" stroke-width="0.561674" stroke-linejoin="round"/>
<path fill-rule="evenodd" clip-rule="evenodd" d="M14.76 22.0001C14.6752 21.5247 14.9436 20.9603 15.2324 20.2993C15.6655 19.3078 16.6646 18.315 15.8655 15.1675C15.2704 12.8235 11.2725 14.6807 11.2713 14.9984C11.2687 15.3162 11.4511 16.6103 11.2041 18.1167C10.88 20.0819 12.6731 21.7446 14.7372 21.5743" fill="#336791"/>
<path d="M14.76 22.0001C14.6752 21.5247 14.9436 20.9603 15.2324 20.2993C15.6655 19.3078 16.6646 18.315 15.8655 15.1675C15.2704 12.8235 11.2725 14.6807 11.2713 14.9984C11.2687 15.3162 11.4511 16.6103 11.2041 18.1167C10.88 20.0819 12.6731 21.7446 14.7372 21.5743" stroke="white" stroke-width="0.561674" stroke-linecap="round" stroke-linejoin="round"/>
<path d="M13.1675 15.2391C13.1377 15.4257 13.5614 15.9264 14.1127 15.9923C14.6662 16.0603 15.1345 15.6695 15.1644 15.4828C15.1963 15.2962 14.7726 15.0875 14.2213 15.0217C13.6678 14.9536 13.1995 15.0524 13.1675 15.2391Z" fill="white" stroke="white" stroke-width="0.512246"/>
<path d="M23.1652 15.2403C23.1812 15.4262 22.9694 15.9249 22.6937 15.9928C22.4169 16.0584 22.1828 15.669 22.1668 15.4809C22.1519 15.2928 22.3637 15.0872 22.6394 15.0216C22.9151 14.9538 23.1503 15.0544 23.1652 15.2403Z" fill="white" stroke="white" stroke-width="0.256123"/>
<path d="M24.166 14.0001C24.166 14.8931 24.166 15.5009 24.166 16.4525C24.166 17.8347 24.166 19.4154 24.166 21.0001" stroke="white" stroke-width="0.561674" stroke-linecap="round" stroke-linejoin="round"/>
</svg>
