<svg width="107" height="24" viewBox="0 0 107 24" fill="none" xmlns="http://www.w3.org/2000/svg">
<g clip-path="url(#clip0_8733_385)">
<path d="M42.1378 17.316V17.4643H36.7459V15.3705V9.86751C36.7274 9.55252 36.8571 8.10728 35.2266 8.12581C35.2266 8.12581 33.559 8.14433 33.5961 10.164V15.6114C33.6516 17.2975 34.6522 17.316 34.6522 17.316V17.4643H29.2047H26.1105C25.9993 17.4828 22.2009 17.594 22.0527 14.0735V12.1651C22.0527 12.1651 20.5518 12.4986 20.0886 12.8506C20.0886 12.8506 18.8843 13.6103 19.681 14.9258C19.681 14.9258 20.2739 15.9634 22.1824 15.5743L21.2559 17.4643H19.4216C19.4216 17.4643 15.1415 17.5569 14.6412 14.407C14.6412 14.3885 14.2521 11.9427 17.1796 10.9422C17.1796 10.9422 18.1802 10.5901 20.0886 10.2566C20.1072 10.2566 21.7191 10.0343 21.8674 9.16341C21.9044 9.01518 21.8859 8.8299 21.8118 8.64461C21.8303 8.71872 21.0892 6.73615 16.457 8.73725C16.4755 8.75578 17.402 5.84677 17.402 5.84677C17.402 5.84677 21.7562 4.56829 24.7949 6.43969C24.7764 6.45822 26.3884 7.31054 26.3513 9.99721C26.3513 9.97868 26.4069 13.7029 26.4069 13.7029C26.4069 13.7585 26.4069 15.5929 28.2227 15.704C28.2227 15.7226 28.8712 15.7226 29.2418 15.7226V7.64406C29.2418 7.607 29.3344 5.92089 28.2227 5.84677V5.69854L33.6516 5.49473V6.86585C33.9481 6.56939 35.1525 5.51326 36.9127 5.4762C36.9127 5.4762 41.1372 5.32797 41.1372 9.45987V15.4261C41.0446 17.279 42.1378 17.316 42.1378 17.316Z" fill="#96151D"/>
<path d="M0.336914 0.325214V0.139927H6.22905L10.4536 12.48L13.5849 2.56719C13.5849 2.56719 14.2149 0.899604 12.5103 0.232571V0.121399H17.2351L11.2689 17.5754L8.78601 16.6119C8.78601 16.6119 6.7849 16.019 5.71024 12.9988L1.83775 2.28926C1.83775 2.30779 1.35599 0.584616 0.336914 0.325214Z" fill="#96151D"/>
<path d="M105.358 15.3521C105.339 17.4273 106.432 17.3161 106.432 17.3161V17.4643H100.892V10.0158V9.86758C100.892 9.94169 100.892 7.95912 99.1689 7.94059C99.1504 7.95912 97.1493 7.7553 97.1493 11.4981C97.1308 11.5166 97.1308 15.8894 100.522 15.3335C100.522 15.3521 99.3357 17.4643 99.3357 17.4643C99.3357 17.4643 96.5749 18.4093 94.2959 15.982C94.2959 15.982 92.5542 14.4812 92.5542 11.5166C92.5727 11.5352 92.4986 8.73732 94.2959 6.95857C94.2588 6.9771 97.0381 3.82722 100.892 6.25448V2.32639C100.892 2.28934 100.985 0.603222 99.873 0.529107V0.380878L105.358 0.177063V15.3521Z" fill="#96151D"/>
<path d="M88.8674 6.9771C90.0717 4.7166 92.3878 5.42069 92.3878 5.42069V8.38528C88.7191 7.77384 88.8859 10.5346 88.8674 10.5161V15.3521C88.8488 17.4088 89.8865 17.3161 89.942 17.3161V17.4644H84.4575H81.2891C81.178 17.4829 77.3796 17.5941 77.2314 14.0736V12.1651C77.2314 12.1651 75.7305 12.4987 75.2673 12.8507C75.2673 12.8507 74.0629 13.6104 74.8597 14.9259C74.8597 14.9259 75.4526 15.9635 77.3425 15.5744L76.4161 17.4644H74.5817C74.5817 17.4644 70.3016 17.557 69.8013 14.4071C69.8013 14.3886 69.4122 11.9428 72.3398 10.9422C72.3398 10.9422 73.3403 10.5902 75.2488 10.2567C75.2673 10.2567 76.8793 10.0343 77.0275 9.16349C77.0646 9.01526 77.0646 8.82997 76.9719 8.64469C76.9905 8.7188 76.2493 6.73623 71.6172 8.73733C71.6357 8.75586 72.5806 5.84685 72.5806 5.84685C72.5806 5.84685 76.9349 4.56837 79.9736 6.43977C79.9551 6.4583 81.5485 7.31062 81.53 9.99728C81.53 9.97875 81.5856 13.703 81.5856 13.703C81.5856 13.7586 81.5856 15.593 83.4014 15.7041C83.4014 15.7227 84.124 15.7227 84.4761 15.7227V14.7592V7.62561C84.4761 7.58855 84.5687 5.90244 83.457 5.82832V5.68009L88.8859 5.45775V6.9771H88.8674Z" fill="#96151D"/>
<path d="M48.4189 11.9613C50.0865 11.9613 49.8827 9.64524 49.8827 9.62671C49.8456 7.64414 48.4189 7.69973 48.4189 7.69973C46.844 7.69973 46.8996 9.6823 46.881 9.66377C46.7143 11.8502 48.2892 11.9799 48.4189 11.9613ZM60.8146 5.40217V13.1101C60.8146 13.1101 60.7776 14.7777 62.2969 14.7592C62.2969 14.7406 63.9089 15 63.9645 12.7025V11.2943V7.5515C63.9645 7.51444 64.0572 5.82833 62.9454 5.75421V5.60598L68.3743 5.40217V15.3336C68.3743 15.3706 68.2817 17.242 69.449 17.2976V17.4458H63.9645V16.0376C63.7422 16.26 62.5193 17.4273 60.6664 17.4644C60.6664 17.4644 56.3677 17.6126 56.3677 13.4622C56.3492 13.4251 56.3677 9.05232 56.3677 7.5515H53.0511C53.1808 7.66267 53.329 7.86649 53.3476 7.86649C55.2004 10.2382 53.4032 12.2207 53.3846 12.2393C52.1988 13.9068 48.3448 14.3701 48.3448 14.3701L48.1039 14.3886C46.8069 14.4256 47.2146 15.0927 47.2146 15.0927C47.3999 15.5374 48.3448 15.4633 48.3448 15.4633H50.5497C55.0152 15.4447 55.4784 18.3723 55.4969 18.3723C56.238 22.4671 52.1061 23.69 47.9928 23.5788C43.8979 23.5974 42.3971 21.8186 42.4156 21.8371C41.378 20.6328 41.9339 18.9652 43.7682 18.4464C45.1208 18.0758 46.7328 18.4464 46.7328 18.4464C45.5099 18.6131 45.7323 19.8546 45.7323 19.8731C46.1399 21.3369 48.2336 21.3554 48.3633 21.3554C51.0315 21.2257 51.1056 19.9287 51.1056 19.2802C51.1056 18.4464 50.4015 17.9461 50.4015 17.9461C49.438 17.242 47.6037 17.4644 46.3252 17.4088C44.5464 17.3161 44.0832 15.63 43.9906 15.1112C43.8979 14.5924 44.0091 14.3886 44.3056 14.1848C44.8429 13.8698 46.0658 13.7216 45.9361 13.7401H45.9546C45.9361 13.7401 45.9176 13.7401 45.9176 13.7401C44.3797 13.2583 43.4718 11.9613 43.4532 11.9613C41.5077 9.16349 43.7682 6.97711 43.7682 6.97711C45.0652 5.71716 46.7328 5.43923 48.2151 5.36511H60.8146V5.40217Z" fill="#96151D"/>
</g>
<defs>
<clipPath id="clip0_8733_385">
<rect width="107" height="23.5906" fill="white"/>
</clipPath>
</defs>
</svg>
