<svg width="160" height="40" viewBox="0 0 160 40" fill="none" xmlns="http://www.w3.org/2000/svg">
<path d="M40.207 35.0639L32.1255 20.892C31.6863 20.0948 31.6863 19.2091 32.1255 18.4119L40.207 4.24004C40.6462 3.44287 41.4368 3 42.3152 3H58.566C59.4444 3 60.235 3.44287 60.6742 4.24004L68.7557 18.4119C69.1949 19.2091 69.1949 20.0948 68.7557 20.892L60.5864 35.0639C60.1472 35.8611 59.3566 36.3039 58.4782 36.3039H42.3152C41.4368 36.2154 40.6462 35.7725 40.207 35.0639Z" fill="#4386FA"/>
<path opacity="0.1" d="M55.4912 15.0461C55.4912 15.0461 57.7751 20.5377 54.7007 23.6378C51.6262 26.7379 46.0043 24.7893 46.0043 24.7893L57.4238 36.3039H58.5657C59.4441 36.3039 60.2347 35.8611 60.6739 35.0639L66.0323 25.675L55.4912 15.0461Z" fill="black"/>
<path d="M58.2144 26.2065L55.7548 23.7264L55.667 23.6378C57.9509 20.6263 57.4238 16.3747 54.4372 14.0718C51.7141 11.946 47.9369 12.2117 45.4773 14.6918C42.9299 17.2605 42.842 21.3349 45.2138 24.0807C47.5855 26.7379 51.6262 27.1808 54.4372 24.8779C54.4372 24.8779 54.4372 24.9664 54.525 24.9664L56.9846 27.4465C57.0725 27.5351 57.1603 27.5351 57.2481 27.5351C57.336 27.5351 57.4238 27.5351 57.5117 27.4465L58.2144 26.7379C58.3022 26.6494 58.3022 26.5608 58.3022 26.4722C58.3022 26.3836 58.2144 26.2951 58.2144 26.2065ZM50.2208 24.6121C48.2004 24.6121 46.2679 23.3721 45.4773 21.4235C44.6867 19.4748 45.1259 17.2605 46.6192 15.8433C48.6396 13.8061 51.8019 13.8061 53.8223 15.8433C54.7886 16.8176 55.3156 18.1462 55.3156 19.4748C55.3156 22.3092 53.0317 24.6121 50.2208 24.6121ZM46.9706 19.2091V21.3349C47.322 21.9549 47.7612 22.3978 48.3761 22.7521V19.2091H46.9706ZM49.518 17.4376V23.195C49.9572 23.2835 50.3964 23.2835 50.9235 23.195V17.4376H49.518ZM53.4709 21.3349V20.0949H52.0654V22.7521C52.6803 22.3978 53.1196 21.8663 53.4709 21.3349Z" fill="white"/>
<path d="M88.52 10.3516H82.371V12.2117H86.7631C86.5874 14.7804 84.3914 15.9318 82.371 15.9318C81.0534 15.9318 79.8236 15.4004 78.9451 14.5146C78.0667 13.6289 77.5397 12.3889 77.5397 11.0602V10.9717C77.5397 9.64305 77.9789 8.40301 78.9451 7.51727C79.9114 6.63153 81.0534 6.10008 82.371 6.10008C83.6008 6.01151 84.7427 6.54295 85.6212 7.4287L86.9388 6.10008C85.709 4.86004 84.04 4.24002 82.2832 4.24002C77.0126 4.15145 73.6746 9.90878 76.3977 14.5146C77.6275 16.6404 79.9993 17.8805 82.371 17.7919C85.9725 17.7919 88.6078 15.3118 88.6078 11.5917C88.6078 11.2374 88.6078 10.7945 88.52 10.3516ZM93.6148 9.02303C91.2431 8.93446 89.3105 10.8831 89.2227 13.2746V13.3632C89.2227 15.7547 91.1552 17.7919 93.527 17.7919C95.8987 17.7919 97.9191 15.8433 97.9191 13.4517C97.9191 10.5288 95.6352 9.02303 93.6148 9.02303ZM93.6148 10.7945C94.8446 10.7945 96.0744 11.7688 96.0744 13.4517C96.0744 15.1347 94.9324 16.109 93.6148 16.109C92.2093 16.109 91.1552 15.0461 91.1552 13.4517C91.1552 11.8574 92.2093 10.7945 93.6148 10.7945ZM103.014 9.02303C100.642 9.02303 98.7097 10.8831 98.7097 13.2746V13.3632C98.7097 15.7547 100.642 17.7919 103.014 17.7919C105.386 17.7919 107.406 15.8433 107.406 13.4517C107.318 10.5288 105.122 9.02303 103.014 9.02303ZM103.014 10.7945C104.244 10.7945 105.474 11.7688 105.474 13.4517C105.474 15.1347 104.332 16.109 103.014 16.109C101.608 16.109 100.554 15.0461 100.554 13.4517C100.554 11.8574 101.608 10.7945 103.014 10.7945ZM112.237 9.02303C109.953 9.02303 108.109 11.0602 108.109 13.3632C108.109 15.6661 109.866 17.6147 112.237 17.7033C113.116 17.7919 113.994 17.349 114.609 16.6404V17.5262C114.609 19.0319 113.731 19.9177 112.325 19.9177C111.359 19.9177 110.481 19.2977 110.129 18.3233L108.46 19.0319C109.075 20.272 110.217 21.6006 112.325 21.6006C114.609 21.6006 116.366 20.0948 116.366 17.0833V9.28876H114.521V9.99735C113.994 9.37733 113.204 9.02303 112.237 9.02303ZM112.413 10.7059C113.555 10.7059 114.697 11.6803 114.697 13.3632C114.697 15.0461 113.555 16.0204 112.325 16.0204C111.095 16.0204 109.953 15.0461 109.953 13.3632C110.041 11.7688 111.271 10.7059 112.413 10.7059ZM124.447 9.02303C122.251 9.02303 120.407 10.7945 120.407 13.3632C120.319 15.7547 122.251 17.7919 124.623 17.7033C126.116 17.7033 127.434 16.9947 128.225 15.7547L126.731 14.7804C126.292 15.5775 125.502 16.0204 124.623 16.0204C123.745 16.0204 122.866 15.489 122.515 14.6918L128.313 12.3003L128.049 11.5917C127.522 10.0859 126.116 9.02303 124.447 9.02303ZM124.535 10.7059C125.238 10.7059 125.853 11.0602 126.116 11.6803L122.251 13.3632C122.076 12.0346 123.305 10.7059 124.535 10.7059ZM117.684 17.5262H119.616V4.68289H117.684V17.5262ZM75.7828 32.3181V23.9035H78.7695C79.3844 23.9035 79.9993 24.1692 80.4385 24.6121C80.8777 25.055 81.1412 25.5864 81.1412 26.2064C81.1412 27.0036 80.702 27.7122 79.9993 27.9779V28.0665C80.4385 28.1551 80.7898 28.4208 81.0534 28.7751C81.3169 29.1294 81.4047 29.5723 81.4047 29.9266C81.4047 30.5466 81.1412 31.1666 80.702 31.6095C80.1749 32.0523 79.56 32.3181 78.9451 32.3181H75.7828ZM76.8369 24.8778V27.4465H78.7695C79.1208 27.4465 79.4722 27.3579 79.7357 27.0922C80.2628 26.6493 80.2628 25.8521 79.7357 25.3207C79.4722 25.055 79.1208 24.9664 78.8573 24.9664L76.8369 24.8778ZM76.8369 28.5094V31.2552H79.033C79.8236 31.2552 80.4385 30.6352 80.4385 29.9266C80.4385 29.5723 80.2628 29.218 79.9993 28.9522C79.7357 28.6865 79.3844 28.5094 78.9451 28.5094H76.8369ZM83.9522 24.5235C83.9522 25.3207 82.8102 25.5864 82.4588 24.7893C82.1075 23.9921 83.0737 23.3721 83.6886 23.9921C83.8643 24.1692 83.9522 24.3464 83.9522 24.5235ZM83.6886 26.5607V32.3181H82.6345V26.5607H83.6886ZM87.5537 35.0639C87.2902 35.0639 86.9388 35.0639 86.6753 34.9753C86.4117 34.8867 86.1482 34.7982 85.8847 34.621C85.6212 34.4439 85.4455 34.2667 85.2698 34.0896C85.0941 33.9124 85.0063 33.6467 84.9184 33.381L85.9725 32.9381C86.0604 33.2924 86.3239 33.5581 86.5874 33.7353C86.851 33.9124 87.2023 34.001 87.5537 34.001C88.0807 34.001 88.52 33.8238 88.9592 33.4695C89.3105 33.0267 89.4862 32.5838 89.4862 32.0523V31.5209H89.3984C89.2227 31.7866 88.8713 32.0523 88.6078 32.2295C88.2564 32.4066 87.9051 32.4952 87.4658 32.4952C86.7631 32.4952 86.0604 32.1409 85.5333 31.6095C85.0063 30.9895 84.7427 30.1923 84.7427 29.3951C84.7427 28.598 85.0063 27.8008 85.5333 27.1808C85.9725 26.6493 86.6753 26.295 87.4658 26.295C87.8172 26.295 88.2564 26.3836 88.6078 26.5607C88.9592 26.7379 89.2227 27.0036 89.3984 27.2693H89.4862V26.4722H90.5403V31.9638C90.6282 32.7609 90.2768 33.5581 89.7497 34.1781C89.1348 34.7982 88.3443 35.0639 87.5537 35.0639ZM87.6415 31.5209C88.1686 31.5209 88.6078 31.3438 88.9592 30.9009C89.6619 30.0151 89.6619 28.7751 88.9592 27.8894C88.6078 27.5351 88.1686 27.2693 87.6415 27.2693C87.1145 27.2693 86.6753 27.4465 86.3239 27.8894C85.9725 28.3322 85.7968 28.8637 85.7968 29.3951C85.7968 29.9266 85.9725 30.458 86.3239 30.9009C86.6753 31.2552 87.1145 31.5209 87.6415 31.5209Z" fill="#767677"/>
<path d="M99.6759 32.3181L98.7975 32.8496L98.1826 31.9638C97.5677 32.3181 96.865 32.4067 96.1622 32.4067C95.0203 32.4067 93.8783 31.9638 93.0878 31.1666C91.4187 29.3952 91.4187 26.6494 93.0878 24.8779C94.7568 23.195 97.4799 23.195 99.2367 24.8779C100.027 25.675 100.466 26.8265 100.466 27.978C100.466 28.598 100.379 29.218 100.115 29.838C99.8516 30.3695 99.5002 30.9009 99.061 31.3438L99.6759 32.3181ZM96.2501 31.4324C96.7771 31.4324 97.2163 31.3438 97.6555 31.0781L96.6893 29.5723L97.5677 28.9523L98.534 30.4581C99.1489 29.838 99.5002 28.9523 99.5002 27.978C99.5002 27.0922 99.2367 26.2065 98.6218 25.5865C98.0069 24.9664 97.2163 24.6122 96.3379 24.6122C95.4595 24.6122 94.6689 24.9664 94.054 25.5865C92.8242 26.9151 92.8242 29.0409 94.054 30.3695C94.5811 31.0781 95.4595 31.4324 96.2501 31.4324ZM106.703 32.3181H105.649V31.5209H105.561C105.386 31.7867 105.122 32.0524 104.771 32.2295C104.419 32.4067 104.068 32.4953 103.717 32.4953C103.102 32.4953 102.487 32.3181 102.136 31.8752C101.696 31.4324 101.521 30.8124 101.608 30.1923V26.5608H102.663V30.1038C102.663 31.0781 103.19 31.5209 104.068 31.5209C104.507 31.5209 104.859 31.3438 105.122 30.9895C105.386 30.6352 105.561 30.1923 105.561 29.7495V26.5608H106.615L106.703 32.3181ZM110.481 32.4953C109.69 32.4953 108.899 32.2295 108.372 31.6095C107.845 30.9895 107.494 30.1923 107.582 29.3952C107.582 28.598 107.845 27.8008 108.372 27.1808C109.514 26.0293 111.271 26.0293 112.413 27.0922C112.94 27.7123 113.204 28.598 113.204 29.3952V29.5723H108.724C108.724 30.1038 108.899 30.5466 109.251 30.9009C110.129 31.7867 111.622 31.5209 112.15 30.3695L113.116 30.8124C112.852 31.2552 112.501 31.6981 112.062 31.9638C111.622 32.3181 111.095 32.4953 110.481 32.4953ZM108.812 28.6866H112.062C112.062 28.3323 111.886 27.978 111.535 27.7123C111.183 27.4465 110.832 27.2694 110.393 27.358C110.041 27.358 109.602 27.4465 109.339 27.7123C109.075 27.978 108.899 28.3323 108.812 28.6866ZM115.224 32.3181H114.17V26.5608H115.224V27.5351C115.312 27.1808 115.575 26.9151 115.927 26.7379C116.19 26.5608 116.542 26.3836 116.893 26.3836C117.157 26.3836 117.42 26.3836 117.684 26.5608L117.332 27.6237C117.157 27.5351 116.893 27.5351 116.717 27.5351C116.278 27.5351 115.927 27.7123 115.663 28.0665C115.4 28.2437 115.224 28.6866 115.224 29.1294V32.3181ZM123.657 26.5608L120.055 34.8868H118.913L120.231 31.9638L117.859 26.5608H119.001L120.67 30.7238L122.339 26.5608H123.657Z" fill="#767677"/>
</svg>
