<svg width="106" height="18" viewBox="0 0 106 18" fill="none" xmlns="http://www.w3.org/2000/svg">
<g clip-path="url(#clip0_8733_348)">
<path d="M4.78528 0.390564H0V17.0097H4.71941C7.24145 17.0097 9.05298 16.4262 10.6716 15.0711C12.549 13.5183 13.7112 11.128 13.7112 8.66717C13.7112 3.81602 10.027 0.390564 4.78528 0.390564ZM8.54011 12.8737C7.50494 13.7771 6.21099 14.1677 4.07949 14.1677H3.23724V3.17139H4.07949C6.14982 3.17139 7.44377 3.55723 8.54011 4.53122C9.70231 5.56639 10.3516 7.11913 10.3516 8.67188C10.3469 10.2858 9.70231 11.8997 8.54011 12.8737Z" fill="black"/>
<path d="M18.4308 0.390564H15.1982V17.0097H18.4308V0.390564Z" fill="black"/>
<path d="M26.3877 6.72855C24.4492 6.01805 23.8657 5.56634 23.8657 4.65822C23.8657 3.62306 24.9009 2.84668 26.2607 2.84668C27.23 2.84668 28.0064 3.23252 28.9145 4.20651L30.5943 1.94327C29.1733 0.715187 27.5547 0.0658569 25.6772 0.0658569C22.7035 0.0658569 20.5014 2.13619 20.5014 4.85114C20.5014 7.18026 21.5366 8.34247 24.5762 9.4435C25.8702 9.89521 26.5148 10.2199 26.8395 10.4128C27.4841 10.7986 27.8087 11.448 27.8087 12.1585C27.8087 13.5183 26.7077 14.4876 25.2867 14.4876C23.734 14.4876 22.5059 13.7112 21.7295 12.2902L19.6592 14.2288C21.1461 16.4262 22.9576 17.3954 25.4138 17.3954C28.778 17.3954 31.1683 15.1322 31.1683 11.8997C31.173 9.31646 30.0767 8.08838 26.3877 6.72855Z" fill="black"/>
<path d="M32.208 8.73308C32.208 13.6501 36.024 17.4002 41.0022 17.4002C42.4232 17.4002 43.5901 17.1414 45.077 16.4309V12.6149C43.783 13.9089 42.6208 14.4265 41.1339 14.4265C37.8355 14.4265 35.5723 12.0315 35.5723 8.67191C35.5723 5.50525 37.9673 2.97851 41.0069 2.97851C42.5597 2.97851 43.7219 3.49609 45.0817 4.85592V1.03993C43.6607 0.32943 42.4938 0.00476502 41.0728 0.00476502C36.1557 5.97231e-05 32.208 3.88193 32.208 8.73308Z" fill="black"/>
<path d="M71.3375 11.5797L66.9381 0.390564H63.3809L70.4294 17.4661H72.1798L79.3553 0.390564H75.864L71.3375 11.5797Z" fill="black"/>
<path d="M80.8418 17.0097H90.0265V14.2288H84.079V9.70234H89.8336V6.85564H84.079V3.17139H90.0265V0.390564H80.8418V17.0097Z" fill="black"/>
<path d="M102.895 5.30289C102.895 2.1974 100.759 0.385864 97.009 0.385864H92.1626V17.005H95.3951V10.3517H95.8468L100.307 17.0144H104.316L99.0794 10.027C101.54 9.50943 102.895 7.82964 102.895 5.30289ZM96.3644 8.02255H95.3951V2.97848H96.3644C98.3689 2.97848 99.4699 3.82073 99.4699 5.43464C99.5358 7.11443 98.4348 8.02255 96.3644 8.02255Z" fill="black"/>
<path d="M55.2961 17.5903C60.153 17.5903 64.0903 13.653 64.0903 8.79615C64.0903 3.93925 60.153 0.00195312 55.2961 0.00195312C50.4392 0.00195312 46.502 3.93925 46.502 8.79615C46.502 13.653 50.4392 17.5903 55.2961 17.5903Z" fill="url(#paint0_linear_8733_348)"/>
<path opacity="0.65" d="M55.2961 17.595C60.152 17.595 64.0903 13.6567 64.0903 8.80085C64.0903 3.94499 60.1567 0.00195312 55.2961 0.00195312C50.4356 0.00195312 46.502 3.94028 46.502 8.79614C46.502 13.652 50.4403 17.595 55.2961 17.595Z" fill="url(#paint1_radial_8733_348)"/>
<path d="M105.161 1.10295C105.161 0.778288 104.968 0.651245 104.577 0.651245H104.06V2.20399H104.445V1.55466L104.897 2.13812H105.349L104.831 1.49349C105.034 1.48879 105.161 1.29587 105.161 1.10295ZM104.516 1.29587L104.45 0.910036H104.516C104.709 0.910036 104.775 0.97591 104.775 1.10295C104.775 1.23 104.643 1.29587 104.516 1.29587Z" fill="black"/>
<path d="M104.643 0.00195312C103.867 0.00195312 103.283 0.585409 103.283 1.36178C103.283 2.13816 103.867 2.72161 104.643 2.72161C105.354 2.72161 106.003 2.13816 106.003 1.36178C105.937 0.646578 105.354 0.00195312 104.643 0.00195312ZM104.643 2.45812C104.06 2.45812 103.542 1.94053 103.542 1.35708C103.542 0.712452 103.994 0.256039 104.643 0.256039C105.226 0.256039 105.678 0.773621 105.678 1.35708C105.678 2.00641 105.226 2.45812 104.643 2.45812Z" fill="black"/>
</g>
<defs>
<linearGradient id="paint0_linear_8733_348" x1="59.7992" y1="15.8467" x2="53.7098" y2="6.3124" gradientUnits="userSpaceOnUse">
<stop stop-color="#F9A020"/>
<stop offset="0.2041" stop-color="#F99D20"/>
<stop offset="0.4348" stop-color="#F79320"/>
<stop offset="0.6196" stop-color="#F68820"/>
<stop offset="0.7969" stop-color="#F57E20"/>
<stop offset="1" stop-color="#F47521"/>
</linearGradient>
<radialGradient id="paint1_radial_8733_348" cx="0" cy="0" r="1" gradientUnits="userSpaceOnUse" gradientTransform="translate(58.8004 15.1782) rotate(-117.808) scale(15.487 12.0122)">
<stop stop-color="#FF932C"/>
<stop offset="0.5677" stop-color="#E86D20"/>
<stop offset="0.8604" stop-color="#E85718" stop-opacity="0.8653"/>
<stop offset="1" stop-color="#640000"/>
</radialGradient>
<clipPath id="clip0_8733_348">
<rect width="106.001" height="17.5931" fill="white"/>
</clipPath>
</defs>
</svg>
