<svg width="160" height="40" viewBox="0 0 160 40" fill="none" xmlns="http://www.w3.org/2000/svg">
<path d="M95.5603 14.3873L95.5564 14.3849L95.5524 14.3835C95.4657 14.3444 95.3712 14.3241 95.2807 14.3241C95.1333 14.3251 94.9921 14.3707 94.8691 14.4505C94.7436 14.533 94.6372 14.6531 94.5765 14.8034V14.8071L91.7023 22.9568L89.4872 17.4943L89.4838 17.4918C89.4214 17.3391 89.3099 17.2211 89.1834 17.139C89.0557 17.0566 88.9083 17.0113 88.7532 17.0113C88.6024 17.0113 88.4619 17.0602 88.3381 17.14C88.2154 17.2223 88.1052 17.3391 88.0433 17.4918L88.0416 17.4943L85.822 22.9602L82.9326 14.8142H82.9304C82.8803 14.6568 82.7774 14.534 82.6553 14.4529C82.5316 14.3707 82.3864 14.3251 82.2368 14.3241C82.1412 14.3241 82.045 14.3444 81.9533 14.3835H81.9495L81.946 14.3873C81.6765 14.5174 81.5119 14.7963 81.5112 15.1002C81.5112 15.1958 81.5293 15.2909 81.5647 15.3852L85.1178 25.2732V25.2766C85.1454 25.3504 85.1848 25.4233 85.2422 25.4948C85.2838 25.5459 85.345 25.5891 85.4081 25.6249C85.4199 25.6366 85.4379 25.6532 85.4654 25.6711C85.4953 25.6903 85.5336 25.7037 85.5722 25.7105C85.636 25.7324 85.7196 25.764 85.8322 25.764C85.9762 25.764 86.1095 25.7105 86.2293 25.6307C86.3413 25.5533 86.4413 25.4375 86.4965 25.2874L86.5056 25.2803L88.7532 19.7137L91.0037 25.2575H91.0059C91.0576 25.4054 91.1488 25.5212 91.2545 25.6035C91.3665 25.6903 91.4914 25.7441 91.6241 25.764H91.7186C91.8079 25.764 91.8958 25.7464 91.9688 25.7165C92.046 25.6858 92.1084 25.6449 92.1601 25.6047C92.2811 25.5091 92.3739 25.378 92.4317 25.2324V25.2292L95.963 15.3852C95.9979 15.2909 96.0159 15.1968 96.0159 15.1017C96.0147 14.8 95.8431 14.5127 95.5603 14.3873ZM79.3131 20.0324C79.3131 18.8712 78.8828 17.8196 78.1983 17.0602C77.5098 16.2995 76.5777 15.8345 75.5652 15.8345C74.5528 15.8345 73.6186 16.2995 72.9316 17.0602C72.2456 17.8196 71.8153 18.8712 71.8153 20.0324C71.8153 21.1924 72.2456 22.2342 72.9316 22.9887C73.6186 23.746 74.5528 24.2037 75.5652 24.2037C76.5777 24.2037 77.5131 23.746 78.1983 22.9887C78.8828 22.2342 79.3131 21.1924 79.3131 20.0324ZM79.2934 16.0014C80.244 17.0458 80.8217 18.4789 80.8238 20.0324C80.8217 21.5858 80.244 23.0173 79.2934 24.0619C78.3502 25.1048 77.0328 25.7643 75.5674 25.7643C74.1141 25.7643 72.7946 25.1048 71.8477 24.0619C70.8995 23.0173 70.3125 21.5858 70.3125 20.0324C70.3125 18.4789 70.8995 17.0458 71.8477 16.0014C72.7946 14.9593 74.1141 14.3002 75.5674 14.3002C77.0328 14.3002 78.3502 14.9593 79.2934 16.0014ZM64.3291 14.3205C63.1507 14.3205 62.0751 14.7963 61.272 15.5556V15.1017C61.2707 14.893 61.1959 14.6984 61.0646 14.5554C60.9371 14.4148 60.7481 14.3205 60.5412 14.3205C60.3268 14.3205 60.1337 14.4098 59.9993 14.5541C59.867 14.696 59.7876 14.893 59.7876 15.1017V25.2196L59.8185 25.2515L59.8198 25.2565C59.828 25.29 59.8483 25.3268 59.8702 25.3624C59.9727 25.5496 60.1407 25.6916 60.3488 25.7546L60.3788 25.7643H60.5412C60.6495 25.7643 60.7585 25.7405 60.8622 25.6903C60.9486 25.6474 61.029 25.5783 61.0934 25.4901L61.0959 25.4912C61.1037 25.4829 61.1063 25.4722 61.1154 25.464C61.1189 25.4628 61.1223 25.4592 61.1246 25.4554C61.1646 25.4018 61.1983 25.3472 61.2191 25.2958C61.241 25.2349 61.2546 25.1776 61.265 25.1335L61.272 25.1048V19.0296C61.2937 18.1605 61.6389 17.375 62.1925 16.8038C62.7423 16.233 63.4959 15.8799 64.3291 15.8799C65.1762 15.8799 65.932 16.233 66.4797 16.8038C67.0297 17.3728 67.3635 18.1571 67.3635 19.0214V24.9872C67.3635 25.2049 67.453 25.4067 67.5891 25.545C67.7281 25.683 67.9179 25.7643 68.1159 25.7643C68.3173 25.7643 68.5062 25.683 68.6441 25.545C68.7845 25.4067 68.8696 25.2049 68.8696 24.9872V19.0214C68.8696 16.4464 66.8398 14.3241 64.3291 14.3205ZM138.504 18.9259C138.075 17.1269 136.552 15.8452 134.811 15.8489C133.029 15.8489 131.525 17.1032 131.058 18.9259H138.504ZM140.152 19.6628V19.7401C140.152 19.9561 140.059 20.1503 139.918 20.278C139.778 20.4066 139.595 20.4735 139.398 20.4758H130.954C131.168 22.6107 132.813 24.1872 134.778 24.2037H135.277C135.926 24.2061 136.56 23.9736 137.116 23.5885C137.674 23.2072 138.156 22.6742 138.496 22.0875C138.566 21.9625 138.666 21.8671 138.775 21.8086C138.887 21.7455 139.007 21.7168 139.128 21.7168C139.261 21.7168 139.393 21.7526 139.51 21.8252L139.518 21.8289L139.527 21.8359C139.739 21.9969 139.871 22.2426 139.871 22.5122C139.871 22.6493 139.836 22.7887 139.763 22.9149L139.762 22.9199L139.76 22.9221C139.288 23.6996 138.644 24.4088 137.88 24.9228C137.115 25.4377 136.228 25.7643 135.277 25.7643H134.77C133.288 25.7534 131.949 25.1048 130.983 24.0678C130.02 23.0342 129.427 21.6143 129.427 20.054C129.427 18.467 130.025 17.0269 130.996 15.9848C131.968 14.9441 133.317 14.3002 134.811 14.3002C136.238 14.3002 137.52 14.8879 138.47 15.8502C139.418 16.8122 140.039 18.1484 140.15 19.6519L140.152 19.6628ZM105.515 9.59107C105.309 9.59107 105.12 9.68058 104.985 9.8213C104.849 9.96088 104.763 10.1575 104.763 10.3708V24.9872C104.763 25.2004 104.849 25.3959 104.985 25.5344C105.12 25.6725 105.309 25.7643 105.515 25.7643C105.942 25.7643 106.287 25.4162 106.289 24.9872V10.3708C106.287 9.94058 105.942 9.59107 105.515 9.59107ZM56.3057 19.7532C55.698 19.4565 55.0087 19.2371 54.3208 19.0011C53.6879 18.7794 53.0456 18.5908 52.5877 18.343C52.3577 18.2153 52.1783 18.0807 52.062 17.9292C51.9433 17.778 51.8859 17.6241 51.8824 17.4142C51.8837 17.1269 51.9641 16.8957 52.0998 16.6905C52.3058 16.3843 52.651 16.1457 53.0284 15.9917C53.4013 15.8373 53.8052 15.7644 54.094 15.7644C54.9477 15.7656 55.4875 16.0601 55.9018 16.3651C56.1064 16.5191 56.2792 16.6751 56.4427 16.8038C56.5266 16.8707 56.6049 16.9315 56.6957 16.9766C56.7818 17.0208 56.8832 17.0566 56.9938 17.0566C57.0639 17.0566 57.1343 17.0435 57.1983 17.015C57.2661 16.9865 57.3252 16.9457 57.3816 16.8957C57.4368 16.8422 57.484 16.7777 57.5173 16.7061C57.5473 16.6321 57.5609 16.5559 57.5609 16.4809C57.5609 16.3424 57.5183 16.2126 57.4572 16.0907C57.3435 15.8764 57.1683 15.6714 56.9454 15.4663C56.614 15.1611 56.1768 14.8701 55.7061 14.6509C55.2341 14.4316 54.7281 14.2823 54.2459 14.2823C53.1285 14.2823 52.1955 14.5447 51.5175 15.0277C51.1643 15.2804 50.8538 15.5568 50.6341 15.9384C50.4107 16.321 50.2864 16.7932 50.2703 17.4071C50.2693 17.4345 50.2693 17.4619 50.2693 17.4893C50.2671 18.0854 50.4521 18.5768 50.7432 18.9616C51.1851 19.5413 51.8411 19.888 52.4844 20.1337C53.1265 20.3792 53.7684 20.5259 54.1734 20.6666C54.7439 20.8633 55.3505 21.0766 55.7923 21.3591C56.0123 21.5035 56.1905 21.6585 56.3115 21.8289C56.4289 22.0043 56.4953 22.1852 56.4979 22.4143V22.4311C56.4966 22.7624 56.4024 23.0224 56.2469 23.2452C56.0123 23.5767 55.6222 23.8197 55.2078 23.9736C54.7948 24.1239 54.3656 24.1872 54.0893 24.1872C53.1148 24.1872 52.4627 23.9438 51.9896 23.6996C51.7524 23.5767 51.5603 23.4551 51.3864 23.3524C51.3003 23.3036 51.2197 23.2583 51.1346 23.2225C51.0517 23.1869 50.9632 23.1638 50.8632 23.1638C50.8022 23.1638 50.7354 23.1748 50.6743 23.1997C50.6122 23.2272 50.5559 23.2655 50.5084 23.3118C50.4431 23.3779 50.3856 23.4514 50.3454 23.5361C50.3062 23.621 50.2864 23.7101 50.2864 23.8031C50.2864 23.9559 50.3415 24.0954 50.4202 24.2216C50.543 24.4038 50.7239 24.5674 50.9492 24.7307C51.1816 24.8915 51.4591 25.0504 51.7789 25.2066C52.4878 25.5533 53.3968 25.7345 54.0873 25.7464H54.0893C55.1631 25.7464 56.0904 25.4901 56.8717 24.8942V24.8927C57.6358 24.2967 58.1121 23.4109 58.1121 22.4107C58.1121 21.8611 57.9878 21.3948 57.7705 21.0136C57.4425 20.4352 56.9095 20.054 56.3057 19.7532ZM116.862 20.0324C116.862 18.8602 116.435 17.8101 115.753 17.0521C115.071 16.2961 114.137 15.8373 113.114 15.8347C112.098 15.8347 111.167 16.2961 110.478 17.0521C109.795 17.8101 109.362 18.8602 109.362 20.0324C109.362 21.2031 109.795 22.2465 110.478 22.9984C111.163 23.7507 112.098 24.2037 113.114 24.2037C114.139 24.2037 115.075 23.7507 115.755 23.001C116.435 22.2465 116.862 21.2043 116.862 20.0324ZM118.142 14.5174C118.281 14.6568 118.368 14.8584 118.368 15.0763V24.9872C118.368 25.2004 118.28 25.3959 118.147 25.5344C118.01 25.6725 117.823 25.7643 117.617 25.7643C117.41 25.7643 117.219 25.6725 117.086 25.5344C116.949 25.3959 116.862 25.2004 116.862 24.9872V24.0202C115.915 25.0801 114.585 25.7643 113.114 25.7643C111.649 25.7643 110.33 25.1122 109.385 24.0678C108.437 23.0284 107.858 21.5965 107.858 20.0324C107.858 18.4684 108.437 17.0351 109.385 15.9945C110.33 14.9511 111.649 14.3002 113.114 14.3002C114.584 14.3002 115.915 14.9645 116.862 16.0193V15.0763C116.862 14.8584 116.948 14.6568 117.088 14.5174C117.227 14.3803 117.414 14.3002 117.617 14.3002C117.816 14.3002 118.004 14.3803 118.142 14.5174ZM128.766 15.5224C128.916 15.3685 128.997 15.1644 128.997 14.962C128.997 14.7629 128.916 14.5636 128.764 14.4193H128.766C128.764 14.4148 128.762 14.4148 128.762 14.4148C128.761 14.4111 128.758 14.4098 128.758 14.4098H128.756C128.61 14.262 128.424 14.181 128.232 14.181C128.037 14.181 127.848 14.2648 127.703 14.4148L121.82 20.3554V10.3708C121.82 9.94058 121.472 9.59107 121.045 9.59107C120.839 9.59107 120.65 9.68058 120.516 9.8213C120.382 9.96088 120.293 10.1575 120.293 10.3708V24.9872C120.293 25.2004 120.382 25.3959 120.516 25.5344C120.65 25.6725 120.839 25.7643 121.045 25.7643C121.472 25.7643 121.82 25.4162 121.82 24.9872V22.5752L123.736 20.5927L127.641 25.4746C127.715 25.5868 127.814 25.6639 127.914 25.7046C128.026 25.7489 128.136 25.7643 128.233 25.7643C128.368 25.7643 128.558 25.7345 128.725 25.5986L128.734 25.5929L128.743 25.5818C128.901 25.4222 128.988 25.2099 128.988 24.9929C128.988 24.8105 128.924 24.6245 128.803 24.4758V24.4733L124.827 19.4659L128.763 15.5224H128.766ZM102.41 9.6259H102.242C102.22 9.6259 102.199 9.62821 102.176 9.62902C102.155 9.62821 102.133 9.6259 102.111 9.6259C101.677 9.6259 101.256 9.677 100.862 9.81288C100.475 9.94634 100.117 10.167 99.8396 10.502L99.8386 10.5007L99.8374 10.502C99.5512 10.8322 99.3621 11.228 99.2474 11.6765C99.132 12.127 99.0847 12.6348 99.0802 13.2118V14.3291H97.8912C97.4783 14.3315 97.1504 14.6736 97.1504 15.0873C97.1482 15.3101 97.2321 15.5152 97.3681 15.6632C97.5048 15.8085 97.6922 15.9039 97.9007 15.9158H99.0802V25.0061L99.0786 25.0275C99.0786 25.2408 99.1652 25.4375 99.3047 25.5783C99.4424 25.7165 99.636 25.7988 99.8464 25.7988C100.247 25.7967 100.576 25.458 100.577 25.0275V15.9158H101.856C102.061 15.9039 102.252 15.8144 102.387 15.6701C102.527 15.526 102.611 15.3235 102.611 15.1039V15.0743C102.607 14.6652 102.277 14.3291 101.863 14.3291H100.577V13.2165C100.585 12.7243 100.634 12.3559 100.706 12.0878C100.775 11.8182 100.87 11.6489 100.954 11.5441C101.038 11.4511 101.146 11.3735 101.322 11.3113C101.499 11.252 101.744 11.2138 102.075 11.2138H102.114C102.134 11.2138 102.155 11.2101 102.173 11.2101C102.196 11.2101 102.218 11.2138 102.242 11.2138H102.339H102.41C102.834 11.2138 103.177 10.8585 103.177 10.4196C103.177 9.98106 102.834 9.6259 102.41 9.6259ZM26.6244 20.5484C26.6854 20.3492 26.7107 20.1441 26.7062 19.9415C26.6992 19.7948 26.6808 19.6484 26.6406 19.5018C26.5196 19.0464 26.2332 18.6396 25.8039 18.3832L19.6985 14.7306C18.8366 14.2165 17.7378 14.5222 17.2431 15.4138C16.7438 16.3042 17.0383 17.4414 17.9002 17.9567L21.3119 20.0012L17.9002 22.0397C17.0383 22.5561 16.7448 23.6934 17.2431 24.5875C17.7378 25.4767 18.8366 25.7809 19.6985 25.2669L25.8039 21.6119C26.2159 21.3662 26.4955 20.9809 26.6244 20.5484ZM28.2813 23.9712C27.9305 23.9401 27.5659 24.0164 27.2377 24.2146L21.1277 27.8647C20.2681 28.3797 19.9746 29.5231 20.4707 30.415C20.969 31.3045 22.0668 31.6108 22.9252 31.0933L26.3484 29.0474V33.1355C26.3484 34.1656 27.1526 35 28.1479 35C29.1384 35 29.9451 34.1656 29.9451 33.1355V25.8273C29.9451 24.8461 29.211 24.0401 28.2813 23.9712ZM34.5385 16.0285C34.8882 16.0585 35.252 15.9811 35.5801 15.7855L41.6887 12.1318C42.5497 11.6165 42.8417 10.4781 42.3469 9.5838C41.8509 8.69364 40.7523 8.38817 39.8925 8.903L36.4718 10.9513V6.86189C36.4718 5.83475 35.6674 5 34.6721 5C33.6768 5 32.8747 5.83475 32.8747 6.86189V14.1701C32.8747 15.1502 33.6067 15.9575 34.5385 16.0285ZM21.1277 12.1318L27.2377 15.7855C27.5659 15.9811 27.9305 16.0585 28.2813 16.0285C29.211 15.9575 29.9451 15.1502 29.9451 14.1701V6.86189C29.9451 5.83475 29.1384 5 28.1479 5C27.1526 5 26.3484 5.83475 26.3484 6.86189V10.9513L22.9252 8.903C22.0668 8.38817 20.969 8.69364 20.4707 9.5838C19.9746 10.4781 20.2681 11.6165 21.1277 12.1318ZM32.6101 19.9858C32.6101 19.8797 32.5481 19.7317 32.4756 19.6533L31.7403 18.8947C31.6678 18.8199 31.5251 18.7578 31.4224 18.7578H31.3939C31.2914 18.7578 31.1489 18.8199 31.0774 18.8947L30.3421 19.6533C30.2684 19.7317 30.212 19.8797 30.212 19.9858V20.0155C30.212 20.1203 30.2684 20.267 30.3421 20.3434L31.0774 21.1039C31.1499 21.179 31.2914 21.2409 31.3939 21.2409H31.4224C31.5251 21.2409 31.6678 21.179 31.7403 21.1039L32.4756 20.3434C32.5481 20.267 32.6101 20.1203 32.6101 20.0155V19.9858ZM34.64 20.7152L32.1004 23.3431C32.0278 23.4203 31.8875 23.4835 31.7817 23.4835H31.5975H31.2224H31.035C30.9324 23.4835 30.7897 23.4203 30.716 23.3431L28.1779 20.7152C28.1052 20.6412 28.0464 20.4923 28.0464 20.3874V20.1931V19.8044V19.6127C28.0464 19.5052 28.1052 19.3562 28.1779 19.2812L30.716 16.6535C30.7897 16.5761 30.9324 16.5152 31.035 16.5152H31.2224H31.5975H31.7817C31.8851 16.5152 32.0278 16.5761 32.1004 16.6535L34.64 19.2812C34.7124 19.3562 34.771 19.5052 34.771 19.6127V19.8044V20.1931V20.3874C34.771 20.4923 34.7124 20.6412 34.64 20.7152ZM41.6887 27.8647L35.5801 24.2146C35.252 24.0164 34.8882 23.9401 34.5385 23.9712C33.6067 24.0401 32.8747 24.8461 32.8747 25.8273V33.1355C32.8747 34.1656 33.6768 35 34.6721 35C35.6674 35 36.4718 34.1656 36.4718 33.1355V29.0474L39.8925 31.0933C40.752 31.6108 41.8509 31.3045 42.3469 30.415C42.8417 29.5231 42.5497 28.3797 41.6887 27.8647ZM44.9188 17.9567L41.5068 20.0012L44.9188 22.0397C45.7805 22.5561 46.0751 23.6934 45.5768 24.5875C45.0798 25.4767 43.98 25.7809 43.1214 25.2669L37.0113 21.6119C36.6039 21.3662 36.3211 20.9809 36.1955 20.5484C36.1357 20.3492 36.108 20.1441 36.1148 19.9415C36.1184 19.7948 36.1391 19.6484 36.1782 19.5018C36.3004 19.0464 36.5868 18.6398 37.0113 18.3832L43.1214 14.7306C43.98 14.2165 45.0798 14.5222 45.5768 15.4138C46.0751 16.3042 45.7805 17.4414 44.9188 17.9567ZM144 14.3106C144 15.3353 143.338 16.1906 142.232 16.1906C141.134 16.1906 140.479 15.3272 140.479 14.3106C140.479 13.2858 141.134 12.4304 142.232 12.4304C143.338 12.4304 144 13.2858 144 14.3106ZM143.649 14.3106C143.649 13.4391 143.089 12.7771 142.232 12.7771C141.391 12.7771 140.83 13.4066 140.83 14.3106C140.83 15.1738 141.391 15.8435 142.232 15.8435C143.089 15.8435 143.649 15.182 143.649 14.3106ZM141.539 13.4631H142.295C142.707 13.4631 142.98 13.6971 142.98 14.0602C142.98 14.2862 142.871 14.4555 142.707 14.5606L143.003 15.0042V15.0931H142.576L142.287 14.6654H141.952V15.0931H141.539V13.4631ZM142.287 13.8587H141.952V14.2862H142.287C142.443 14.2862 142.543 14.2135 142.543 14.0766C142.543 13.9311 142.45 13.8587 142.287 13.8587Z" fill="#29B5E8"/>
</svg>
