<svg width="114" height="19" viewBox="0 0 114 19" fill="none" xmlns="http://www.w3.org/2000/svg">
<g clip-path="url(#clip0_8733_348)">
<path d="M5.14645 0.419983H0V18.2934H5.0756C7.78799 18.2934 9.73625 17.6659 11.477 16.2085C13.4961 14.5386 14.7461 11.9679 14.7461 9.32126C14.7461 4.10397 10.7838 0.419983 5.14645 0.419983ZM9.18466 13.8453C8.07137 14.8169 6.67975 15.2369 4.38738 15.2369H3.48157V3.41069H4.38738C6.61397 3.41069 8.00558 3.82565 9.18466 4.87315C10.4346 5.98644 11.1329 7.65638 11.1329 9.32632C11.1279 11.062 10.4346 12.7978 9.18466 13.8453Z" fill="black"/>
<path d="M19.8217 0.419983H16.3452V18.2934H19.8217V0.419983Z" fill="black"/>
<path d="M28.379 7.23636C26.2941 6.47223 25.6666 5.98643 25.6666 5.00977C25.6666 3.89648 26.7799 3.06151 28.2423 3.06151C29.2848 3.06151 30.1198 3.47646 31.0964 4.52397L32.903 2.08991C31.3747 0.769139 29.634 0.0708008 27.6149 0.0708008C24.4167 0.0708008 22.0484 2.29739 22.0484 5.21725C22.0484 7.72215 23.1617 8.97208 26.4307 10.1562C27.8223 10.642 28.5156 10.9912 28.8648 11.1987C29.5581 11.6136 29.9072 12.312 29.9072 13.0761C29.9072 14.5385 28.7231 15.581 27.1948 15.581C25.5249 15.581 24.2041 14.746 23.3692 13.2178L21.1426 15.3027C22.7417 17.6659 24.6899 18.7083 27.3315 18.7083C30.9497 18.7083 33.5204 16.2743 33.5204 12.7978C33.5254 10.0196 32.3463 8.69882 28.379 7.23636Z" fill="black"/>
<path d="M34.6387 9.39215C34.6387 14.6803 38.7427 18.7134 44.0966 18.7134C45.6248 18.7134 46.8798 18.4351 48.4789 17.671V13.567C47.0873 14.9586 45.8374 15.5153 44.2383 15.5153C40.6909 15.5153 38.2569 12.9395 38.2569 9.32636C38.2569 5.9207 40.8326 3.20326 44.1017 3.20326C45.7716 3.20326 47.0215 3.7599 48.484 5.22236V1.11836C46.9557 0.354239 45.7008 0.00507051 44.1725 0.00507051C38.8844 1.0094e-05 34.6387 4.17486 34.6387 9.39215Z" fill="black"/>
<path d="M76.7212 12.4537L71.9897 0.419983H68.1641L75.7446 18.7842H77.627L85.3442 0.419983H81.5894L76.7212 12.4537Z" fill="black"/>
<path d="M86.9429 18.2934H96.8208V15.3027H90.4244V10.4346H96.6133V7.373H90.4244V3.41069H96.8208V0.419983H86.9429V18.2934Z" fill="black"/>
<path d="M110.661 5.70312C110.661 2.36324 108.364 0.414978 104.33 0.414978H99.1182V18.2884H102.595V11.1329H103.08L107.878 18.2985H112.189L106.557 10.7838C109.204 10.2271 110.661 8.42056 110.661 5.70312ZM103.637 8.62804H102.595V3.20327H103.637C105.793 3.20327 106.977 4.10908 106.977 5.84481C107.048 7.65138 105.864 8.62804 103.637 8.62804Z" fill="black"/>
<path d="M59.4692 18.9179C64.6926 18.9179 68.9271 14.6835 68.9271 9.46C68.9271 4.23653 64.6926 0.0020752 59.4692 0.0020752C54.2457 0.0020752 50.0112 4.23653 50.0112 9.46C50.0112 14.6835 54.2457 18.9179 59.4692 18.9179Z" fill="url(#paint0_linear_8733_348)"/>
<path opacity="0.65" d="M59.4692 18.923C64.6915 18.923 68.9271 14.6874 68.9271 9.46506C68.9271 4.24271 64.6966 0.0020752 59.4692 0.0020752C54.2417 0.0020752 50.0112 4.23765 50.0112 9.46C50.0112 14.6824 54.2468 18.923 59.4692 18.923Z" fill="url(#paint1_radial_8733_348)"/>
<path d="M113.097 1.18618C113.097 0.83701 112.89 0.700378 112.47 0.700378H111.913V2.37032H112.328V1.67198L112.814 2.29947H113.3L112.743 1.60619C112.961 1.60113 113.097 1.39366 113.097 1.18618ZM112.404 1.39366L112.333 0.978702H112.404C112.611 0.978702 112.682 1.04955 112.682 1.18618C112.682 1.32281 112.541 1.39366 112.404 1.39366Z" fill="black"/>
<path d="M112.541 0.0020752C111.706 0.0020752 111.078 0.629567 111.078 1.46454C111.078 2.29951 111.706 2.927 112.541 2.927C113.305 2.927 114.003 2.29951 114.003 1.46454C113.932 0.695353 113.305 0.0020752 112.541 0.0020752ZM112.541 2.64361C111.913 2.64361 111.356 2.08697 111.356 1.45948C111.356 0.766199 111.842 0.275338 112.541 0.275338C113.168 0.275338 113.654 0.831984 113.654 1.45948C113.654 2.15781 113.168 2.64361 112.541 2.64361Z" fill="black"/>
</g>
<defs>
<linearGradient id="paint0_linear_8733_348" x1="64.3121" y1="17.0427" x2="57.763" y2="6.78879" gradientUnits="userSpaceOnUse">
<stop stop-color="#F9A020"/>
<stop offset="0.2041" stop-color="#F99D20"/>
<stop offset="0.4348" stop-color="#F79320"/>
<stop offset="0.6196" stop-color="#F68820"/>
<stop offset="0.7969" stop-color="#F57E20"/>
<stop offset="1" stop-color="#F47521"/>
</linearGradient>
<radialGradient id="paint1_radial_8733_348" cx="0" cy="0" r="1" gradientUnits="userSpaceOnUse" gradientTransform="translate(63.2379 16.3237) rotate(-117.808) scale(16.6559 12.9188)">
<stop stop-color="#FF932C"/>
<stop offset="0.5677" stop-color="#E86D20"/>
<stop offset="0.8604" stop-color="#E85718" stop-opacity="0.8653"/>
<stop offset="1" stop-color="#640000"/>
</radialGradient>
<clipPath id="clip0_8733_348">
<rect width="114.001" height="18.9209" fill="white"/>
</clipPath>
</defs>
</svg>
