<svg width="125" height="24" viewBox="0 0 125 24" fill="none" xmlns="http://www.w3.org/2000/svg">
<g clip-path="url(#clip0_8732_273)">
<path d="M110.056 -3.05176e-05C109.565 -3.05176e-05 109.275 0.399444 109.275 0.780763V6.53687H124.51L117.573 -3.05176e-05H110.056Z" fill="#126BC5"/>
<path d="M125 8.29822C125 7.80795 124.601 7.51743 124.219 7.51743H118.463V22.752L125 15.8156V8.29822Z" fill="#126BC5"/>
<path d="M116.702 23.2423C117.192 23.2423 117.483 22.8428 117.483 22.4615V16.7054H102.248L109.184 23.2423H116.702Z" fill="#126BC5"/>
<path d="M101.758 14.9441C101.758 15.4343 102.157 15.7249 102.539 15.7249H108.295V0.581055L101.758 7.51743V14.9441Z" fill="#126BC5"/>
<path d="M32.1217 2.74185V9.76901H22.3708V2.74185H18.8481V20.5004H22.3708V12.8922H32.1217V20.5004H35.7351V2.74185H32.1217Z" fill="black"/>
<path d="M79.4961 2.74185V20.4096H95.112L93.1691 17.3772H83.1095V12.8922H92.7696V9.8598H83.1095V5.86503H93.0602L95.0212 2.74185H79.4961Z" fill="black"/>
<path d="M5.57452 2.74185C1.87028 2.74185 0 4.99345 0 8.31637V14.9622C0 18.7754 2.43318 20.5367 5.57452 20.5367H16.7054L14.6535 17.2138H6.24637C4.48504 17.2138 3.70425 16.5238 3.70425 14.5809V8.62506C3.70425 6.66399 4.39425 5.88319 6.33716 5.88319H14.7443L16.7054 2.76001L5.57452 2.74185Z" fill="black"/>
<path d="M63.8622 2.74185C61.7195 2.74185 59.5587 4.01292 59.5587 7.33584V8.20743C59.5587 11.6211 61.7014 13.0011 63.7532 13.0011H71.1799C71.9607 13.0011 72.5417 13.0919 72.5417 14.472V15.9427C72.5417 17.123 71.9607 17.4136 71.0709 17.4136H61.3019L59.3408 20.5367H71.3614C74.2849 20.5367 76.246 19.0659 76.246 15.743V14.5627C76.246 11.3488 74.3938 9.87797 71.5612 9.87797H64.4251C63.6443 9.87797 63.0632 9.67823 63.0632 8.51611V7.15426C63.0632 6.17373 63.4627 5.7924 64.3343 5.7924H73.613L75.5741 2.76001H63.8622V2.74185Z" fill="black"/>
<path d="M46.0854 2.74185L37.6782 20.4096H41.6912L43.3435 16.7962H52.4226L54.0749 20.4096H58.0879L49.5899 2.74185H46.0854ZM47.7559 6.44609L50.9699 13.7638H44.5238L47.7559 6.44609Z" fill="black"/>
</g>
<defs>
<clipPath id="clip0_8732_273">
<rect width="125" height="23.2423" fill="white"/>
</clipPath>
</defs>
</svg>
