<svg width="160" height="40" viewBox="0 0 160 40" fill="none" xmlns="http://www.w3.org/2000/svg">
<g clip-path="url(#clip0_1081_126)">
<path fill-rule="evenodd" clip-rule="evenodd" d="M45.9556 36.6703H80.3741L114.044 3H45.9556V36.6703Z" fill="url(#paint0_linear_1081_126)"/>
<path fill-rule="evenodd" clip-rule="evenodd" d="M86.36 9.73409H79.6259V25.5217L73.7897 9.73409H67.9535L62.9404 22.9778C62.4166 19.6107 58.8999 18.4884 56.2063 17.5905C54.4106 16.9919 52.4652 16.1689 52.54 15.1962C52.54 14.4479 53.5875 13.6997 55.6077 13.7745C56.9546 13.8494 58.1517 13.9242 60.5461 15.1213L62.8656 11.0809C60.6957 9.95856 57.7028 9.28516 55.3084 9.28516C52.4652 9.28516 50.0708 10.183 48.5744 11.7543C47.5269 12.8018 47.0031 14.1486 47.0031 15.6451C47.0031 17.6653 47.7513 19.1618 49.3226 20.359C50.6694 21.3317 52.3904 22.0051 53.8868 22.454C55.7574 23.0526 57.2538 23.5015 57.2538 24.6239C57.2538 24.998 57.1042 25.3721 56.8049 25.6714C56.356 26.1203 55.6077 26.3448 54.635 26.3448C52.6148 26.27 51.1932 25.9707 48.9485 24.6987L46.8535 28.8139C49.0981 30.0859 51.4925 30.7593 54.1861 30.7593H54.7847C57.1042 30.6845 59.0496 30.1608 60.5461 28.9636C60.6209 28.8888 60.6957 28.8139 60.7705 28.7391L60.6209 29.9363H66.3074L67.3549 27.3175C68.4025 27.6916 69.6745 27.9161 70.9464 27.9161C72.2184 27.9161 73.4156 27.6916 74.4631 27.3923L75.1365 29.9363H85.3124V24.0253H87.4823C92.7199 24.0253 95.7877 21.3317 95.7877 16.9171C95.7877 11.904 92.7199 9.73409 86.36 9.73409ZM70.8716 23.277C70.1234 23.277 69.3752 23.1274 68.7018 22.9029L70.7968 16.1689H70.8716L72.9667 22.9029C72.3681 23.1274 71.6199 23.277 70.8716 23.277ZM86.7341 19.3863H85.2376V13.999H86.7341C88.6795 13.999 90.2508 14.6724 90.2508 16.6926C90.2508 18.7128 88.6795 19.3863 86.7341 19.3863Z" fill="white"/>
</g>
<defs>
<linearGradient id="paint0_linear_1081_126" x1="79.9873" y1="3" x2="79.9873" y2="36.6703" gradientUnits="userSpaceOnUse">
<stop stop-color="#00AEEF"/>
<stop offset="0.212" stop-color="#0097DC"/>
<stop offset="0.519" stop-color="#007CC5"/>
<stop offset="0.792" stop-color="#006CB8"/>
<stop offset="1" stop-color="#0066B3"/>
</linearGradient>
<clipPath id="clip0_1081_126">
<rect width="68.0889" height="33.6703" fill="white" transform="translate(45.9556 3)"/>
</clipPath>
</defs>
</svg>
