<svg width="160" height="40" viewBox="0 0 160 40" fill="none" xmlns="http://www.w3.org/2000/svg">
<mask id="mask0_1081_11" style="mask-type:luminance" maskUnits="userSpaceOnUse" x="51" y="0" width="57" height="40">
<path d="M51.0126 0.104675H107.998V39.9874H51.0126V0.104675Z" fill="white"/>
</mask>
<g mask="url(#mask0_1081_11)">
<path fill-rule="evenodd" clip-rule="evenodd" d="M74.719 4.45588C76.5571 2.54091 79.1164 1.35263 81.9468 1.35263C85.7091 1.35263 88.992 3.45064 90.7397 6.56562C92.3034 5.86689 93.9972 5.50676 95.71 5.50886C102.496 5.50886 107.998 11.0584 107.998 17.9045C107.998 24.7505 102.496 30.3003 95.71 30.3003C94.8813 30.3003 94.072 30.2169 93.2892 30.059C91.7502 32.8044 88.8161 34.6597 85.4494 34.6597C84.0877 34.6615 82.7435 34.3522 81.5196 33.7551C79.9594 37.4261 76.3229 40 72.0861 40C67.6729 40 63.9116 37.2079 62.4689 33.2921C61.8259 33.4278 61.1705 33.496 60.5133 33.4957C55.2591 33.4957 51 29.192 51 23.8833C51 20.3252 52.9133 17.2188 55.7571 15.557C55.1546 14.1696 54.8445 12.6729 54.8463 11.1604C54.8463 5.05462 59.8027 0.104675 65.9166 0.104675C69.5062 0.104675 72.6963 1.81106 74.719 4.45588Z" fill="#00A1E0"/>
</g>
<path fill-rule="evenodd" clip-rule="evenodd" d="M59.2555 20.7935C59.2197 20.8869 59.2683 20.9064 59.2798 20.9229C59.3868 21.0004 59.4955 21.0565 59.6052 21.1196C60.1864 21.4272 60.7357 21.5175 61.3095 21.5175C62.4788 21.5175 63.205 20.8959 63.205 19.8949V19.8752C63.205 18.9495 62.3851 18.6132 61.6168 18.3705L61.5164 18.338C60.937 18.1499 60.4369 17.9872 60.4369 17.6054V17.586C60.4369 17.259 60.7292 17.0188 61.1822 17.0188C61.6859 17.0188 62.2827 17.1862 62.6677 17.3987C62.6677 17.3987 62.7812 17.472 62.8224 17.3625C62.8448 17.3032 63.0394 16.7793 63.0601 16.7225C63.0823 16.6611 63.0434 16.6149 63.0034 16.591C62.5638 16.3231 61.9567 16.1409 61.3282 16.1409L61.2115 16.1413C60.1414 16.1413 59.3941 16.7885 59.3941 17.7145V17.7344C59.3941 18.7104 60.2184 19.0276 60.9906 19.2482L61.1146 19.2867C61.6769 19.4593 62.1625 19.6084 62.1625 20.004V20.0237C62.1625 20.386 61.8469 20.6551 61.3386 20.6551C61.1416 20.6551 60.5125 20.6517 59.8327 20.2218C59.7504 20.1738 59.7035 20.1393 59.64 20.1005C59.6065 20.0802 59.5227 20.0435 59.4863 20.1533L59.2555 20.7935ZM76.3717 20.7935C76.3359 20.8869 76.3845 20.9064 76.3964 20.9229C76.503 21.0004 76.6119 21.0565 76.7215 21.1196C77.3028 21.4272 77.8522 21.5175 78.4258 21.5175C79.595 21.5175 80.3215 20.8959 80.3215 19.8949V19.8752C80.3215 18.9495 79.5018 18.6132 78.7332 18.3705L78.6329 18.338C78.0534 18.1499 77.5531 17.9872 77.5531 17.6054V17.586C77.5531 17.259 77.8457 17.0188 78.2989 17.0188C78.8023 17.0188 79.399 17.1862 79.7839 17.3987C79.7839 17.3987 79.8974 17.472 79.9389 17.3625C79.9611 17.3032 80.1558 16.7793 80.1763 16.7225C80.1988 16.6611 80.1596 16.6149 80.1198 16.591C79.68 16.3231 79.0731 16.1409 78.4446 16.1409L78.3278 16.1413C77.2578 16.1413 76.5106 16.7885 76.5106 17.7145V17.7344C76.5106 18.7104 77.3347 19.0276 78.107 19.2482L78.2308 19.2867C78.7933 19.4593 79.279 19.6084 79.279 20.004V20.0237C79.279 20.386 78.9632 20.6551 78.4553 20.6551C78.2578 20.6551 77.6287 20.6517 76.9491 20.2218C76.8668 20.1738 76.8186 20.1407 76.7562 20.1005C76.7351 20.0871 76.6364 20.0486 76.6027 20.1533L76.3717 20.7935ZM88.0566 18.8324C88.0566 19.3979 87.951 19.8444 87.7437 20.1592C87.5376 20.4712 87.2266 20.623 86.7929 20.623C86.3592 20.623 86.0499 20.4714 85.8471 20.1596C85.6425 19.8446 85.5386 19.3979 85.5386 18.8324C85.5386 18.2674 85.6425 17.8224 85.8471 17.5108C86.0499 17.2019 86.3592 17.0519 86.7929 17.0519C87.2266 17.0519 87.5376 17.2021 87.7437 17.511C87.9514 17.8224 88.0566 18.2674 88.0566 18.8324ZM89.0329 17.7839C88.9368 17.4595 88.7874 17.174 88.5887 16.9359C88.3895 16.6972 88.1376 16.5051 87.839 16.3661C87.5407 16.2268 87.1889 16.1562 86.7929 16.1562C86.3969 16.1562 86.0448 16.2268 85.7464 16.3661C85.4482 16.5051 85.196 16.6972 84.9969 16.9363C84.7983 17.1749 84.6486 17.4599 84.5529 17.7839C84.4576 18.1057 84.4092 18.4586 84.4092 18.8324C84.4092 19.2065 84.4576 19.5596 84.5529 19.881C84.6486 20.2048 84.7979 20.49 84.9971 20.729C85.1962 20.9682 85.449 21.1585 85.7468 21.2942C86.0455 21.4299 86.3973 21.499 86.7929 21.499C87.1887 21.499 87.5401 21.4299 87.8385 21.2942C88.1368 21.1585 88.3891 20.9682 88.5887 20.729C88.7874 20.4909 88.9368 20.2052 89.0329 19.881C89.128 19.5589 89.1763 19.2061 89.1763 18.8324C89.1763 18.459 89.128 18.106 89.0329 17.7839ZM97.0469 20.4716C97.0149 20.3767 96.9223 20.4126 96.9223 20.4126C96.7805 20.4668 96.6297 20.5171 96.4685 20.5422C96.306 20.5677 96.1261 20.5805 95.9336 20.5805C95.4618 20.5805 95.0859 20.44 94.8176 20.1623C94.5481 19.8844 94.3967 19.4354 94.3983 18.8281C94.3998 18.276 94.5334 17.8601 94.773 17.543C95.0105 17.2281 95.3732 17.0664 95.8555 17.0664C96.2582 17.0664 96.5655 17.1131 96.8873 17.214C96.8873 17.214 96.9638 17.2473 97.0004 17.1466C97.0861 16.9093 97.1493 16.7405 97.2406 16.4798C97.2666 16.4054 97.2029 16.374 97.1797 16.365C97.0532 16.3156 96.7544 16.2345 96.5288 16.2004C96.3179 16.1682 96.0714 16.1514 95.7964 16.1514C95.3866 16.1514 95.0212 16.2216 94.7087 16.3606C94.3969 16.4995 94.1324 16.6913 93.9227 16.9298C93.7131 17.1688 93.5535 17.4542 93.448 17.778C93.3422 18.1001 93.2888 18.4536 93.2888 18.8285C93.2888 19.6379 93.5072 20.2919 93.938 20.7711C94.3703 21.2519 95.0186 21.4961 95.8649 21.4961C96.3648 21.4961 96.8777 21.395 97.2471 21.2496C97.2471 21.2496 97.3175 21.2157 97.2869 21.1336L97.0469 20.4716ZM98.7546 18.2902C98.8013 17.9759 98.8873 17.7148 99.0216 17.5108C99.2241 17.2019 99.5324 17.0316 99.9661 17.0316C100.4 17.0316 100.686 17.2021 100.892 17.511C101.028 17.7152 101.088 17.9872 101.111 18.2907L98.7546 18.2902ZM102.04 17.5998C101.957 17.2869 101.752 16.9709 101.618 16.8264C101.405 16.5973 101.197 16.4368 100.99 16.3483C100.691 16.2211 100.369 16.1558 100.044 16.1562C99.6318 16.1562 99.2572 16.226 98.9533 16.3684C98.649 16.5112 98.3933 16.7064 98.1929 16.9489C97.9921 17.1912 97.8415 17.4796 97.7454 17.8067C97.649 18.1319 97.6004 18.4865 97.6004 18.8609C97.6004 19.2417 97.6509 19.5966 97.7502 19.9158C97.8505 20.2377 98.0115 20.5202 98.2289 20.7554C98.4461 20.9914 98.7257 21.1765 99.0597 21.3055C99.3921 21.4343 99.7958 21.5011 100.259 21.4997C101.213 21.4965 101.715 21.2838 101.923 21.1692C101.959 21.1487 101.994 21.1133 101.951 21.0113L101.735 20.4065C101.702 20.3162 101.61 20.3489 101.61 20.3489C101.373 20.4373 101.038 20.595 100.254 20.5933C99.7418 20.5924 99.3623 20.441 99.1238 20.2046C98.8798 19.9627 98.76 19.6075 98.7397 19.1057L102.043 19.1083C102.043 19.1083 102.13 19.1074 102.139 19.0224C102.142 18.9872 102.252 18.3439 102.04 17.5998ZM72.2961 18.2902C72.3428 17.9759 72.4291 17.7148 72.5632 17.5108C72.7659 17.2019 73.0737 17.0316 73.5079 17.0316C73.9418 17.0316 74.2277 17.2021 74.4337 17.511C74.5696 17.7152 74.6291 17.9872 74.6524 18.2907L72.2961 18.2902ZM75.5818 17.5998C75.4989 17.2869 75.2938 16.9709 75.1594 16.8264C74.9468 16.5973 74.7389 16.4368 74.5319 16.3483C74.2328 16.2212 73.911 16.1559 73.586 16.1562C73.1736 16.1562 72.799 16.226 72.4951 16.3684C72.1908 16.5112 71.9351 16.7064 71.7342 16.9489C71.5338 17.1912 71.3833 17.4796 71.2867 17.8067C71.1906 18.1319 71.1422 18.4865 71.1422 18.8609C71.1422 19.2417 71.1923 19.5966 71.2922 19.9158C71.3923 20.2377 71.5535 20.5202 71.7705 20.7554C71.9879 20.9914 72.2672 21.1765 72.6013 21.3055C72.9338 21.4343 73.3372 21.5011 73.8006 21.4997C74.755 21.4965 75.2572 21.2838 75.4645 21.1692C75.501 21.1487 75.5357 21.1133 75.4924 21.0113L75.2764 20.4065C75.2432 20.3162 75.1518 20.3489 75.1518 20.3489C74.9152 20.4373 74.5799 20.595 73.7956 20.5933C73.2836 20.5924 72.9039 20.441 72.6653 20.2046C72.4216 19.9627 72.3016 19.6075 72.2813 19.1057L75.5845 19.1083C75.5845 19.1083 75.6716 19.1074 75.6806 19.0224C75.6842 18.9872 75.7939 18.3439 75.5818 17.5998ZM65.1554 20.4536C65.0258 20.3501 65.0078 20.3248 64.9648 20.2576C64.8993 20.1564 64.8658 20.0123 64.8658 19.8278C64.8658 19.5378 64.9621 19.3288 65.1606 19.1885C65.1585 19.1889 65.4455 18.9409 66.1188 18.9497C66.4191 18.9551 66.7188 18.9806 67.0157 19.0262V20.5277H67.0161C67.0161 20.5277 66.5962 20.618 66.1236 20.6465C65.4517 20.6869 65.1533 20.453 65.1554 20.4536ZM66.47 18.1319C66.3359 18.1221 66.1623 18.1173 65.9541 18.1173C65.6712 18.1173 65.3975 18.1524 65.1405 18.2216C64.8825 18.2911 64.6505 18.3987 64.4509 18.5414C64.2514 18.6838 64.0874 18.8703 63.9715 19.0863C63.8545 19.3043 63.7948 19.5604 63.7948 19.8475C63.7948 20.1405 63.8457 20.3943 63.9462 20.6017C64.0445 20.8072 64.1926 20.985 64.377 21.1189C64.5606 21.2526 64.7872 21.3506 65.0501 21.4105C65.3095 21.4697 65.6036 21.4997 65.9248 21.4997C66.2641 21.4997 66.6015 21.4712 66.9284 21.4161C67.2068 21.3681 67.4843 21.3142 67.7604 21.2544C67.8706 21.2291 67.9921 21.1958 67.9921 21.1958C68.0737 21.1751 68.0674 21.0877 68.0674 21.0877L68.0656 18.0666C68.0656 17.404 67.8888 16.9131 67.5405 16.6082C67.1939 16.3047 66.6836 16.1514 66.0233 16.1514C65.7753 16.1514 65.377 16.1849 65.1378 16.2329C65.1378 16.2329 64.4166 16.3728 64.1196 16.6054C64.1196 16.6054 64.0543 16.6456 64.0899 16.7367L64.3238 17.365C64.3529 17.4465 64.4323 17.4186 64.4323 17.4186C64.4323 17.4186 64.4572 17.4088 64.4865 17.3914C65.1219 17.0459 65.9259 17.0561 65.9259 17.0561C66.2827 17.0561 66.5577 17.1284 66.7424 17.2697C66.9227 17.4082 67.0143 17.6165 67.0143 18.057V18.1966C66.7309 18.1556 66.47 18.1319 66.47 18.1319ZM93.116 16.4299C93.1208 16.4189 93.1233 16.407 93.1234 16.395C93.1234 16.3829 93.1211 16.371 93.1164 16.3599C93.1118 16.3488 93.105 16.3388 93.0964 16.3304C93.0878 16.322 93.0776 16.3154 93.0664 16.311C93.0101 16.2896 92.7292 16.2304 92.5127 16.217C92.0974 16.191 91.8672 16.2609 91.6607 16.3539C91.4559 16.4463 91.2291 16.5956 91.1026 16.7659L91.1022 16.3629C91.1022 16.3076 91.063 16.263 91.0073 16.263H90.1604C90.1056 16.263 90.0658 16.3076 90.0658 16.3629V21.2911C90.0658 21.3177 90.0764 21.3432 90.0952 21.362C90.114 21.3808 90.1395 21.3913 90.1661 21.3914H91.0341C91.0607 21.3913 91.0862 21.3808 91.1049 21.3619C91.1237 21.3431 91.1343 21.3177 91.1343 21.2911V18.8293C91.1343 18.4986 91.1707 18.1692 91.2434 17.9621C91.315 17.7571 91.4124 17.5937 91.533 17.4762C91.6473 17.3628 91.7872 17.2786 91.941 17.2308C92.085 17.1894 92.2342 17.1684 92.3841 17.1684C92.5569 17.1684 92.747 17.2128 92.747 17.2128C92.8107 17.2199 92.8461 17.1809 92.8677 17.1235C92.9244 16.9726 93.0852 16.52 93.116 16.4299Z" fill="#FFFFFE"/>
<path fill-rule="evenodd" clip-rule="evenodd" d="M84.9688 14.1462C84.8616 14.1138 84.7526 14.0879 84.6423 14.0687C84.4939 14.0439 84.3437 14.0323 84.1933 14.0339C83.5958 14.0339 83.1248 14.2027 82.7941 14.5361C82.4658 14.867 82.2423 15.3711 82.1303 16.0343L82.0898 16.2582H81.3399C81.3399 16.2582 81.2484 16.2544 81.2291 16.3543L81.106 17.0412C81.0974 17.107 81.1256 17.148 81.2136 17.1476H81.9437L81.2029 21.2823C81.1449 21.6153 81.0785 21.8892 81.005 22.0967C80.9326 22.3015 80.8618 22.4551 80.7747 22.5665C80.6903 22.6743 80.6103 22.7537 80.4722 22.8C80.3583 22.8383 80.2272 22.8559 80.0836 22.8559C80.0036 22.8559 79.8972 22.8425 79.8186 22.8268C79.7401 22.8113 79.6993 22.7937 79.6404 22.769C79.6404 22.769 79.5548 22.7363 79.521 22.8222C79.4936 22.8923 79.2991 23.4274 79.276 23.4936C79.2526 23.5589 79.2854 23.6104 79.3269 23.6253C79.4241 23.6601 79.4963 23.6823 79.6287 23.7135C79.8126 23.7568 79.9675 23.7596 80.1127 23.7596C80.4167 23.7596 80.6938 23.7168 80.9236 23.6339C81.1548 23.5503 81.356 23.4048 81.534 23.2077C81.7265 22.9952 81.8475 22.7725 81.9633 22.4689C82.0779 22.1679 82.1755 21.7943 82.2536 21.3589L82.9979 17.1476H84.0861C84.0861 17.1476 84.1778 17.151 84.1969 17.0515L84.32 16.3646C84.3286 16.2988 84.3005 16.2578 84.2121 16.2582H83.156C83.1613 16.2343 83.2092 15.8628 83.3305 15.5131C83.3822 15.3637 83.4796 15.2433 83.5621 15.1606C83.6391 15.0818 83.734 15.0228 83.8387 14.9885C83.9535 14.953 84.0732 14.9357 84.1933 14.9374C84.2928 14.9374 84.3904 14.9493 84.4647 14.9648C84.5671 14.9866 84.6069 14.9981 84.6337 15.006C84.7414 15.0389 84.7558 15.0071 84.777 14.955L85.0295 14.2613C85.0555 14.1868 84.9922 14.1554 84.9688 14.1462ZM70.2098 21.2911C70.2098 21.3464 70.1705 21.3914 70.1152 21.3914H69.2392C69.1837 21.3914 69.1443 21.3464 69.1443 21.2911V14.2402C69.1443 14.1851 69.1837 14.1405 69.2392 14.1405H70.1152C70.1705 14.1405 70.2098 14.1851 70.2098 14.2402V21.2911Z" fill="#FFFFFE"/>
</svg>
