<svg width="160" height="40" viewBox="0 0 160 40" fill="none"
  xmlns="http://www.w3.org/2000/svg">
  <path d="M93.7358 15.1347L93.7325 15.1326C93.7325 15.1326 93.7309 15.1314 93.729 15.1314C93.6541 15.0975 93.5724 15.0799 93.4942 15.0799C93.3668 15.0808 93.2447 15.1203 93.1384 15.1895C93.0299 15.261 92.938 15.3651 92.8855 15.4954V15.4986L90.4012 22.5638L88.4866 17.8282L88.4837 17.8261C88.4298 17.6937 88.3334 17.5914 88.2241 17.5202C88.1137 17.4488 87.9863 17.4095 87.8522 17.4095C87.7219 17.4095 87.6004 17.4519 87.4934 17.5211C87.3874 17.5924 87.2921 17.6937 87.2386 17.8261L87.2372 17.8282L85.3187 22.5668L82.8213 15.5048H82.8194C82.7761 15.3683 82.6871 15.2619 82.5816 15.1916C82.4747 15.1203 82.3492 15.0808 82.2199 15.0799C82.1372 15.0799 82.0541 15.0975 81.9748 15.1314H81.9715L81.9685 15.1347C81.7356 15.2475 81.5933 15.4893 81.5927 15.7527C81.5927 15.8356 81.6083 15.918 81.6389 15.9998L84.71 24.572V24.5749C84.7339 24.6389 84.7679 24.7021 84.8175 24.7641C84.8535 24.8084 84.9064 24.8458 84.9609 24.8769C84.9711 24.887 84.9867 24.9014 85.0105 24.9169C85.0363 24.9336 85.0694 24.9452 85.1028 24.9511C85.1579 24.9701 85.2302 24.9975 85.3275 24.9975C85.452 24.9975 85.5672 24.9511 85.6707 24.8819C85.7675 24.8148 85.854 24.7144 85.9017 24.5843L85.9095 24.5781L87.8522 19.7523L89.7974 24.5584H89.7993C89.844 24.6866 89.9228 24.787 90.0142 24.8583C90.111 24.9336 90.2189 24.9802 90.3336 24.9975H90.4153C90.4925 24.9975 90.5685 24.9822 90.6316 24.9563C90.6983 24.9297 90.7522 24.8942 90.7969 24.8594C90.9015 24.7765 90.9817 24.6628 91.0317 24.5366V24.5338L94.0839 15.9998C94.1141 15.918 94.1296 15.8365 94.1296 15.754C94.1286 15.4925 93.9803 15.2434 93.7358 15.1347ZM79.6928 20.0286C79.6928 19.0219 79.3209 18.1102 78.7292 17.4519C78.1341 16.7924 77.3285 16.3893 76.4534 16.3893C75.5783 16.3893 74.7708 16.7924 74.177 17.4519C73.5841 18.1102 73.2122 19.0219 73.2122 20.0286C73.2122 21.0342 73.5841 21.9374 74.177 22.5915C74.7708 23.248 75.5783 23.6448 76.4534 23.6448C77.3285 23.6448 78.137 23.248 78.7292 22.5915C79.3209 21.9374 79.6928 21.0342 79.6928 20.0286ZM79.6758 16.534C80.4974 17.4394 80.9967 18.6818 80.9986 20.0286C80.9967 21.3753 80.4974 22.6163 79.6758 23.5219C78.8605 24.426 77.7219 24.9977 76.4553 24.9977C75.1991 24.9977 74.0586 24.426 73.2402 23.5219C72.4206 22.6163 71.9133 21.3753 71.9133 20.0286C71.9133 18.6818 72.4206 17.4394 73.2402 16.534C74.0586 15.6306 75.1991 15.0592 76.4553 15.0592C77.7219 15.0592 78.8605 15.6306 79.6758 16.534ZM66.7416 15.0768C65.7231 15.0768 64.7934 15.4893 64.0992 16.1475V15.754C64.0981 15.5731 64.0335 15.4044 63.92 15.2804C63.8098 15.1585 63.6464 15.0768 63.4676 15.0768C63.2823 15.0768 63.1154 15.1542 62.9992 15.2793C62.8848 15.4023 62.8162 15.5731 62.8162 15.754V24.5255L62.8429 24.5532L62.844 24.5575C62.8511 24.5865 62.8687 24.6184 62.8876 24.6493C62.9762 24.8116 63.1214 24.9347 63.3013 24.9893L63.3272 24.9977H63.4676C63.5612 24.9977 63.6554 24.9771 63.745 24.9336C63.8197 24.8964 63.8892 24.8365 63.9449 24.76L63.947 24.761C63.9538 24.7538 63.956 24.7445 63.9639 24.7374C63.9669 24.7363 63.9698 24.7332 63.9718 24.7299C64.0064 24.6835 64.0355 24.6361 64.0535 24.5916C64.0724 24.5388 64.0842 24.4891 64.0932 24.4509L64.0992 24.426V19.1592C64.118 18.4058 64.4164 17.7248 64.8949 17.2296C65.3701 16.7348 66.0214 16.4287 66.7416 16.4287C67.4738 16.4287 68.127 16.7348 68.6004 17.2296C69.0758 17.7229 69.3643 18.4028 69.3643 19.1521V24.324C69.3643 24.5128 69.4417 24.6877 69.5593 24.8076C69.6795 24.9272 69.8435 24.9977 70.0147 24.9977C70.1887 24.9977 70.352 24.9272 70.4712 24.8076C70.5926 24.6877 70.6661 24.5128 70.6661 24.324V19.1521C70.6661 16.9198 68.9117 15.0799 66.7416 15.0768ZM130.854 19.0693C130.483 17.5097 129.166 16.3986 127.662 16.4018C126.121 16.4018 124.821 17.4892 124.418 19.0693H130.854ZM132.278 19.7082V19.7752C132.278 19.9624 132.198 20.1308 132.076 20.2415C131.955 20.353 131.797 20.411 131.626 20.413H124.328C124.513 22.2638 125.935 23.6305 127.633 23.6448H128.064C128.625 23.6469 129.173 23.4453 129.654 23.1115C130.136 22.7809 130.553 22.3188 130.847 21.8102C130.907 21.7018 130.994 21.6191 131.088 21.5684C131.185 21.5137 131.288 21.4888 131.393 21.4888C131.508 21.4888 131.622 21.5199 131.723 21.5828L131.73 21.586L131.738 21.5921C131.921 21.7317 132.035 21.9447 132.035 22.1784C132.035 22.2972 132.005 22.4181 131.942 22.5275L131.941 22.5318L131.939 22.5337C131.531 23.2078 130.975 23.8226 130.314 24.2682C129.653 24.7146 128.886 24.9977 128.064 24.9977H127.626C126.345 24.9883 125.188 24.426 124.353 23.527C123.521 22.6309 123.008 21.4 123.008 20.0473C123.008 18.6715 123.525 17.423 124.364 16.5196C125.204 15.6174 126.37 15.0592 127.662 15.0592C128.895 15.0592 130.003 15.5687 130.824 16.4029C131.644 17.2369 132.18 18.3953 132.276 19.6987L132.278 19.7082ZM102.34 10.9767C102.162 10.9767 101.999 11.0543 101.882 11.1763C101.764 11.2973 101.69 11.4678 101.69 11.6527V24.324C101.69 24.5089 101.764 24.6783 101.882 24.7984C101.999 24.9181 102.162 24.9977 102.34 24.9977C102.709 24.9977 103.007 24.6959 103.009 24.324V11.6527C103.007 11.2797 102.709 10.9767 102.34 10.9767ZM59.8067 19.7865C59.2814 19.5293 58.6856 19.3391 58.0911 19.1345C57.544 18.9423 56.9889 18.7788 56.5931 18.564C56.3943 18.4533 56.2392 18.3366 56.1387 18.2053C56.0361 18.0742 55.9865 17.9408 55.9835 17.7588C55.9846 17.5097 56.0541 17.3093 56.1714 17.1314C56.3494 16.8659 56.6478 16.6591 56.974 16.5256C57.2963 16.3917 57.6454 16.3285 57.895 16.3285C58.6329 16.3296 59.0995 16.5849 59.4576 16.8493C59.6344 16.9828 59.7838 17.118 59.9251 17.2296C59.9976 17.2876 60.0653 17.3403 60.1438 17.3794C60.2182 17.4177 60.3058 17.4488 60.4014 17.4488C60.462 17.4488 60.5229 17.4374 60.5782 17.4127C60.6368 17.388 60.6879 17.3526 60.7366 17.3093C60.7843 17.2629 60.8251 17.207 60.8539 17.1449C60.8798 17.0808 60.8916 17.0147 60.8916 16.9497C60.8916 16.8296 60.8548 16.7171 60.802 16.6114C60.7037 16.4256 60.5523 16.2479 60.3596 16.0701C60.0732 15.8055 59.6953 15.5532 59.2884 15.3632C58.8805 15.1731 58.4431 15.0437 58.0263 15.0437C57.0605 15.0437 56.2541 15.2711 55.6681 15.6899C55.3628 15.9089 55.0944 16.1486 54.9045 16.4794C54.7114 16.8111 54.604 17.2204 54.5901 17.7526C54.5892 17.7764 54.5892 17.8001 54.5892 17.8239C54.5873 18.3407 54.7472 18.7667 54.9988 19.1003C55.3808 19.6028 55.9478 19.9034 56.5038 20.1164C57.0588 20.3292 57.6136 20.4564 57.9637 20.5784C58.4568 20.7489 58.9811 20.9338 59.3629 21.1787C59.5531 21.3039 59.7071 21.4383 59.8117 21.586C59.9132 21.7381 59.9706 21.8949 59.9728 22.0935V22.1081C59.9717 22.3953 59.8903 22.6207 59.7559 22.8138C59.5531 23.1012 59.2159 23.3119 58.8577 23.4453C58.5008 23.5756 58.1298 23.6305 57.891 23.6305C57.0487 23.6305 56.485 23.4195 56.0761 23.2078C55.8711 23.1012 55.7051 22.9958 55.5548 22.9068C55.4803 22.8645 55.4107 22.8252 55.3371 22.7942C55.2655 22.7633 55.189 22.7433 55.1025 22.7433C55.0498 22.7433 54.9921 22.7528 54.9393 22.7744C54.8856 22.7982 54.8369 22.8314 54.7959 22.8716C54.7394 22.9289 54.6897 22.9926 54.655 23.066C54.6211 23.1396 54.604 23.2169 54.604 23.2975C54.604 23.43 54.6516 23.5509 54.7196 23.6603C54.8258 23.8183 54.9821 23.9601 55.1769 24.1017C55.3777 24.2411 55.6176 24.3788 55.894 24.5142C56.5067 24.8148 57.2924 24.9719 57.8892 24.9822H57.891C58.8191 24.9822 59.6206 24.76 60.2959 24.2434V24.2421C60.9563 23.7254 61.368 22.9575 61.368 22.0904C61.368 21.6139 61.2606 21.2097 61.0728 20.8792C60.7893 20.3778 60.3286 20.0473 59.8067 19.7865ZM112.148 20.0286C112.148 19.0124 111.779 18.102 111.189 17.4449C110.6 16.7895 109.792 16.3917 108.908 16.3895C108.03 16.3895 107.225 16.7895 106.63 17.4449C106.039 18.102 105.665 19.0124 105.665 20.0286C105.665 21.0435 106.039 21.948 106.63 22.5999C107.222 23.2521 108.03 23.6448 108.908 23.6448C109.794 23.6448 110.603 23.2521 111.191 22.6021C111.779 21.948 112.148 21.0445 112.148 20.0286ZM113.254 15.2475C113.374 15.3683 113.449 15.5431 113.449 15.732V24.324C113.449 24.5089 113.373 24.6783 113.258 24.7984C113.14 24.9181 112.978 24.9977 112.8 24.9977C112.621 24.9977 112.456 24.9181 112.341 24.7984C112.223 24.6783 112.148 24.5089 112.148 24.324V23.4857C111.329 24.4046 110.18 24.9977 108.908 24.9977C107.642 24.9977 106.502 24.4324 105.685 23.527C104.866 22.6259 104.365 21.3845 104.365 20.0286C104.365 18.6727 104.866 17.4301 105.685 16.528C106.502 15.6235 107.642 15.0592 108.908 15.0592C110.179 15.0592 111.329 15.6351 112.148 16.5495V15.732C112.148 15.5431 112.222 15.3683 112.343 15.2475C112.463 15.1286 112.625 15.0592 112.8 15.0592C112.972 15.0592 113.135 15.1286 113.254 15.2475ZM122.437 16.1187C122.566 15.9853 122.636 15.8084 122.636 15.6329C122.636 15.4603 122.566 15.2875 122.435 15.1624H122.437C122.435 15.1585 122.433 15.1585 122.433 15.1585C122.432 15.1553 122.43 15.1542 122.43 15.1542H122.428C122.302 15.0261 122.141 14.9558 121.975 14.9558C121.807 14.9558 121.643 15.0285 121.518 15.1585L116.433 20.3086V11.6527C116.433 11.2797 116.132 10.9767 115.763 10.9767C115.585 10.9767 115.422 11.0543 115.306 11.1763C115.19 11.2973 115.113 11.4678 115.113 11.6527V24.324C115.113 24.5089 115.19 24.6783 115.306 24.7984C115.422 24.9181 115.585 24.9977 115.763 24.9977C116.132 24.9977 116.433 24.6959 116.433 24.324V22.233L118.089 20.5143L121.464 24.7466C121.528 24.8438 121.614 24.9107 121.7 24.946C121.797 24.9844 121.892 24.9977 121.976 24.9977C122.093 24.9977 122.257 24.9719 122.401 24.8541L122.409 24.8491L122.417 24.8395C122.553 24.7011 122.629 24.5171 122.629 24.329C122.629 24.1708 122.573 24.0096 122.469 23.8807V23.8785L119.032 19.5375L122.434 16.1187H122.437ZM99.6564 11.0069H99.5111C99.4921 11.0069 99.4736 11.0089 99.4536 11.0096C99.4357 11.0089 99.4167 11.0069 99.3977 11.0069C99.0229 11.0069 98.6588 11.0512 98.3184 11.169C97.9835 11.2847 97.6743 11.476 97.4346 11.7664L97.4337 11.7653L97.4327 11.7664C97.1853 12.0527 97.0219 12.3958 96.9227 12.7846C96.823 13.1752 96.7821 13.6154 96.7782 14.1156V15.0842H95.7505C95.3936 15.0863 95.1102 15.3829 95.1102 15.7415C95.1083 15.9347 95.1808 16.1125 95.2984 16.2408C95.4165 16.3668 95.5785 16.4495 95.7587 16.4598H96.7782V24.3404L96.7768 24.359C96.7768 24.5439 96.8517 24.7144 96.9723 24.8365C97.0913 24.9563 97.2586 25.0276 97.4405 25.0276C97.7866 25.0258 98.071 24.7322 98.072 24.359V16.4598H99.1771C99.355 16.4495 99.5193 16.3719 99.6365 16.2468C99.7571 16.1219 99.8304 15.9463 99.8304 15.7559V15.7303C99.8265 15.3756 99.5412 15.0842 99.1839 15.0842H98.072V14.1197C98.0792 13.693 98.1216 13.3736 98.1833 13.1412C98.2431 12.9075 98.3248 12.7607 98.3982 12.6698C98.4702 12.5892 98.5635 12.5219 98.7157 12.468C98.8688 12.4166 99.0803 12.3835 99.3671 12.3835H99.4007C99.4177 12.3835 99.4357 12.3803 99.4517 12.3803C99.4716 12.3803 99.4902 12.3835 99.5111 12.3835H99.5947H99.6564C100.023 12.3835 100.319 12.0755 100.319 11.695C100.319 11.3148 100.023 11.0069 99.6564 11.0069ZM34.1521 20.4759C34.2048 20.3032 34.2267 20.1254 34.2228 19.9498C34.2167 19.8226 34.2008 19.6957 34.1661 19.5686C34.0615 19.1738 33.8139 18.8211 33.4429 18.5988L28.1658 15.4323C27.4208 14.9866 26.4711 15.2516 26.0435 16.0246C25.6119 16.7965 25.8665 17.7824 26.6114 18.2291L29.5603 20.0015L26.6114 21.7688C25.8665 22.2164 25.6128 23.2024 26.0435 23.9775C26.4711 24.7484 27.4208 25.0121 28.1658 24.5665L33.4429 21.3979C33.799 21.1849 34.0407 20.8509 34.1521 20.4759ZM35.5842 23.4432C35.281 23.4163 34.9658 23.4824 34.6822 23.6542L29.4011 26.8186C28.6581 27.2651 28.4044 28.2563 28.8332 29.0295C29.2639 29.8007 30.2128 30.0662 30.9547 29.6176L33.9135 27.8439V31.388C33.9135 32.281 34.6086 33.0044 35.4689 33.0044C36.325 33.0044 37.0223 32.281 37.0223 31.388V25.0523C37.0223 24.2017 36.3878 23.503 35.5842 23.4432ZM40.9925 16.5575C41.2948 16.5835 41.6092 16.5164 41.8928 16.3468L47.1727 13.1793C47.9169 12.7326 48.1693 11.7457 47.7416 10.9704C47.3129 10.1987 46.3633 9.93388 45.6202 10.3802L42.6635 12.1559V8.6107C42.6635 7.72025 41.9683 6.99658 41.108 6.99658C40.2477 6.99658 39.5544 7.72025 39.5544 8.6107V14.9464C39.5544 15.7961 40.1871 16.4959 40.9925 16.5575ZM29.4011 13.1793L34.6822 16.3468C34.9658 16.5164 35.281 16.5835 35.5842 16.5575C36.3878 16.4959 37.0223 15.7961 37.0223 14.9464V8.6107C37.0223 7.72025 36.325 6.99658 35.4689 6.99658C34.6086 6.99658 33.9135 7.72025 33.9135 8.6107V12.1559L30.9547 10.3802C30.2128 9.93388 29.2639 10.1987 28.8332 10.9704C28.4044 11.7457 28.6581 12.7326 29.4011 13.1793ZM39.3257 19.9882C39.3257 19.8962 39.2721 19.7679 39.2095 19.6999L38.5739 19.0423C38.5113 18.9774 38.3879 18.9236 38.2992 18.9236H38.2745C38.1859 18.9236 38.0628 18.9774 38.001 19.0423L37.3654 19.6999C37.3017 19.7679 37.253 19.8962 37.253 19.9882V20.0139C37.253 20.1048 37.3017 20.232 37.3654 20.2982L38.001 20.9575C38.0636 21.0226 38.1859 21.0763 38.2745 21.0763H38.2992C38.3879 21.0763 38.5113 21.0226 38.5739 20.9575L39.2095 20.2982C39.2721 20.232 39.3257 20.1048 39.3257 20.0139V19.9882ZM41.0802 20.6205L38.8852 22.8987C38.8224 22.9656 38.7012 23.0204 38.6097 23.0204H38.4505H38.1263H37.9643C37.8756 23.0204 37.7523 22.9656 37.6886 22.8987L35.4948 20.6205C35.432 20.5564 35.3812 20.4273 35.3812 20.3363V20.1679V19.8309V19.6647C35.3812 19.5715 35.432 19.4424 35.4948 19.3773L37.6886 17.0993C37.7523 17.0322 37.8756 16.9794 37.9643 16.9794H38.1263H38.4505H38.6097C38.6991 16.9794 38.8224 17.0322 38.8852 17.0993L41.0802 19.3773C41.1428 19.4424 41.1935 19.5715 41.1935 19.6647V19.8309V20.1679V20.3363C41.1935 20.4273 41.1428 20.5564 41.0802 20.6205ZM47.1727 26.8186L41.8928 23.6542C41.6092 23.4824 41.2948 23.4163 40.9925 23.4432C40.1871 23.503 39.5544 24.2017 39.5544 25.0523V31.388C39.5544 32.281 40.2477 33.0044 41.108 33.0044C41.9683 33.0044 42.6635 32.281 42.6635 31.388V27.8439L45.6202 29.6176C46.3631 30.0662 47.3129 29.8007 47.7416 29.0295C48.1693 28.2563 47.9169 27.2651 47.1727 26.8186ZM49.9646 18.2291L47.0155 20.0015L49.9646 21.7688C50.7094 22.2164 50.964 23.2024 50.5333 23.9775C50.1037 24.7484 49.1531 25.0121 48.411 24.5665L43.1298 21.3979C42.7777 21.1849 42.5333 20.8509 42.4247 20.4759C42.373 20.3032 42.3491 20.1254 42.355 19.9498C42.3581 19.8226 42.376 19.6957 42.4098 19.5686C42.5154 19.1738 42.7629 18.8213 43.1298 18.5988L48.411 15.4323C49.1531 14.9866 50.1037 15.2516 50.5333 16.0246C50.964 16.7965 50.7094 17.7824 49.9646 18.2291ZM135.604 15.0682C135.604 15.9565 135.032 16.698 134.076 16.698C133.127 16.698 132.561 15.9495 132.561 15.0682C132.561 14.1798 133.127 13.4382 134.076 13.4382C135.032 13.4382 135.604 14.1798 135.604 15.0682ZM135.301 15.0682C135.301 14.3127 134.817 13.7388 134.076 13.7388C133.349 13.7388 132.864 14.2845 132.864 15.0682C132.864 15.8165 133.349 16.3971 134.076 16.3971C134.817 16.3971 135.301 15.8236 135.301 15.0682ZM133.477 14.3335H134.13C134.486 14.3335 134.722 14.5363 134.722 14.8511C134.722 15.047 134.628 15.1938 134.486 15.2849L134.742 15.6695V15.7466H134.373L134.123 15.3758H133.834V15.7466H133.477V14.3335ZM134.123 14.6764H133.834V15.047H134.123C134.258 15.047 134.345 14.984 134.345 14.8653C134.345 14.7392 134.264 14.6764 134.123 14.6764Z" fill="#29B5E8"/>
</svg>
