<svg width="57" height="33" viewBox="0 0 57 33" fill="none" xmlns="http://www.w3.org/2000/svg">
<g clip-path="url(#clip0_8732_286)">
<mask id="mask0_8732_286" style="mask-type:luminance" maskUnits="userSpaceOnUse" x="0" y="0" width="57" height="33">
<path d="M56.5 0.320099H0.5V32.68H56.5V0.320099Z" fill="white"/>
</mask>
<g mask="url(#mask0_8732_286)">
<path d="M0.54834 22.2744C0.54834 16.5 5.27634 12.0045 11.4382 12.0045C15.0036 12.0045 18.259 13.5934 20.1192 15.9962L17.4451 18.6702C16.7359 17.7621 15.8309 17.0257 14.7976 16.5157C13.7643 16.0058 12.6292 15.7355 11.477 15.7249C7.79534 15.7249 4.85004 18.4765 4.85004 22.2744C4.85004 26.1111 7.79534 28.8626 11.477 28.8626C12.6705 28.8612 13.8475 28.5841 14.9163 28.0531C15.9851 27.522 16.9169 26.7513 17.6389 25.801L20.2742 28.3976C18.4915 30.9166 15.0811 32.583 11.4382 32.583C5.27634 32.583 0.54834 28.0875 0.54834 22.2744Z" fill="#255BE3"/>
<path d="M23.7622 12.7021H27.9864V31.8855H23.7622V12.7021Z" fill="#255BE3"/>
<path d="M35.8535 26.7311V16.2675H31.2417V12.7021H36.0472V8.5941L40.0002 6.6564V12.7021H46.2784V16.2675H40.0002V26.0336C40.0002 27.9713 41.0853 28.8239 43.1393 28.8239C44.208 28.8294 45.2654 28.6047 46.2396 28.165V31.808C45.019 32.3435 43.6968 32.608 42.3642 32.583C38.605 32.583 35.8535 30.5291 35.8535 26.7311Z" fill="#255BE3"/>
<path d="M49.6113 12.7021H53.8355V31.8855H49.6113V12.7021Z" fill="#255BE3"/>
<path d="M38.76 0.494508C42.2293 0.486208 45.6497 1.31291 48.7322 2.90471C51.8148 4.49661 54.469 6.80691 56.4708 9.64051H51.549C49.9357 7.84741 47.9635 6.41361 45.7603 5.43211C43.557 4.45061 41.172 3.94341 38.76 3.94341C36.3481 3.94341 33.963 4.45061 31.7598 5.43211C29.5565 6.41361 27.5843 7.84741 25.9711 9.64051H21.0493C23.051 6.80691 25.7053 4.49661 28.7878 2.90471C31.8704 1.31291 35.2907 0.486208 38.76 0.494508Z" fill="#FF3C28"/>
</g>
</g>
<defs>
<clipPath id="clip0_8732_286">
<rect width="57" height="33" fill="white"/>
</clipPath>
</defs>
</svg>
