<svg width="160" height="40" viewBox="0 0 160 40" fill="none" xmlns="http://www.w3.org/2000/svg">
<path d="M110.755 20.1951C112.216 20.1951 113.401 20.8158 114.311 22.0573V20.4301H115.441V29.3384H114.311V27.8118C113.289 29.0307 112.12 29.6404 110.806 29.6404C109.491 29.6404 108.379 29.1763 107.468 28.2479C106.569 27.3085 106.12 26.1957 106.12 24.9095C106.12 23.6121 106.575 22.5049 107.485 21.5876C108.395 20.6594 109.485 20.1951 110.755 20.1951ZM90.3714 20.1951C91.8321 20.1951 93.0176 20.8158 93.9277 22.0573V20.4301H95.057V29.3384H93.9277V27.8118C92.9052 29.0307 91.7366 29.6404 90.4218 29.6404C89.1072 29.6404 87.9948 29.1763 87.0846 28.2479C86.1856 27.3085 85.7362 26.1957 85.7362 24.9095C85.7362 23.6121 86.1913 22.5049 87.1013 21.5876C88.0116 20.6594 89.1015 20.1951 90.3714 20.1951ZM120.526 17.293C122.245 17.293 123.503 17.4217 124.301 17.679C125.11 17.925 125.807 18.3221 126.391 18.8701C126.976 19.4069 127.425 20.0669 127.74 20.8497C128.054 21.6327 128.212 22.5498 128.212 23.6012C128.212 24.6411 127.965 25.6255 127.47 26.5537C126.987 27.471 126.324 28.1644 125.481 28.6341C124.65 29.1036 123.447 29.3386 121.874 29.3386H118.015V17.293H120.526ZM103.944 20.4303V29.3386H102.781V20.4301L103.944 20.4303ZM72.2588 17.2928L77.1802 27.1742L82.0681 17.293H82.2536L83.9898 29.3386H82.7931L81.6132 20.7156L77.3319 29.3386H77.0285L72.6969 20.6484L71.517 29.3386H70.3541L72.0733 17.293L72.2588 17.2928ZM100.092 20.1951C100.462 20.1951 100.833 20.2958 101.204 20.4971L100.597 21.4702C100.429 21.3695 100.255 21.3192 100.075 21.3192C99.7265 21.3192 99.395 21.4982 99.0804 21.8562C98.777 22.214 98.5523 22.6783 98.4062 23.2487C98.2602 23.8078 98.1872 24.831 98.1872 26.3185V29.3386H97.0073V20.4299H98.1872V21.7217C98.5017 21.196 98.8051 20.8102 99.0972 20.5642C99.4006 20.3181 99.7322 20.1949 100.092 20.1949V20.1951ZM133.129 17.293C134.399 17.293 135.359 17.5503 136.011 18.065C136.674 18.5681 137.005 19.2952 137.005 20.2457C137.009 20.7601 136.869 21.2653 136.601 21.7054C136.342 22.1415 135.96 22.4939 135.455 22.7622C136.286 23.0308 136.916 23.4333 137.343 23.9701C137.781 24.5071 138 25.1445 138 25.8826C138 26.878 137.635 27.7057 136.904 28.3655C136.174 29.0143 135.23 29.3386 134.073 29.3386H130.736V17.293H133.129ZM110.823 21.3025C109.834 21.3025 108.997 21.6659 108.311 22.393C107.626 23.1087 107.283 23.9588 107.283 24.9429C107.283 25.9271 107.631 26.7828 108.328 27.5098C109.025 28.2256 109.856 28.5836 110.823 28.5836C111.8 28.5836 112.637 28.2369 113.334 27.5435C114.03 26.85 114.379 25.9776 114.379 24.9262C114.379 23.9084 114.036 23.0527 113.351 22.3593C112.665 21.6549 111.823 21.3025 110.823 21.3025ZM90.4388 21.3025C89.45 21.3025 88.6128 21.6659 87.9275 22.393C87.2419 23.1087 86.8993 23.9588 86.8993 24.9429C86.8993 25.9271 87.2476 26.7828 87.9443 27.5098C88.6409 28.2256 89.4725 28.5836 90.4388 28.5836C91.4162 28.5836 92.2534 28.2369 92.9501 27.5435C93.6467 26.85 93.9953 25.9776 93.9953 24.9262C93.9953 23.9084 93.6524 23.0527 92.9671 22.3593C92.2815 21.6549 91.4388 21.3025 90.4388 21.3025ZM120.037 18.4672H119.178V28.1976H120.577C122.037 28.1976 123.093 28.1249 123.745 27.9795C124.408 27.8342 124.987 27.5489 125.481 27.1241C125.976 26.6877 126.352 26.162 126.611 25.547C126.869 24.9319 126.998 24.2272 126.998 23.4331C126.998 22.639 126.846 21.9065 126.543 21.2355C126.251 20.5644 125.829 20.0107 125.279 19.5744C124.729 19.1383 124.077 18.8476 123.324 18.7022C122.582 18.5455 121.487 18.4672 120.037 18.4672ZM132.606 23.5338H131.932V28.1642H133.432C134.297 28.1642 134.932 28.0802 135.337 27.9125C135.753 27.7335 136.09 27.4651 136.348 27.1071C136.607 26.7381 136.736 26.3634 136.736 25.983C136.736 25.6029 136.663 25.2675 136.517 24.9766C136.371 24.6858 136.152 24.4285 135.859 24.2048C135.578 23.9814 135.236 23.8134 134.831 23.7015C134.438 23.5897 133.696 23.5338 132.606 23.5338ZM133.331 18.4672H131.932V22.3259H132.623C133.679 22.3259 134.466 22.158 134.983 21.8226C135.5 21.4869 135.758 20.9614 135.758 20.2455C135.758 19.06 134.949 18.4672 133.331 18.4672ZM103.354 16.991C103.624 16.991 103.848 17.0858 104.028 17.2761C104.219 17.4551 104.315 17.6788 104.315 17.9472C104.315 18.2045 104.219 18.4279 104.028 18.6182C103.848 18.7972 103.624 18.8868 103.354 18.8868C103.095 18.8868 102.871 18.7916 102.68 18.6015C102.5 18.4112 102.41 18.1932 102.41 17.9469C102.41 17.6898 102.5 17.4662 102.68 17.2761C102.871 17.086 103.096 16.991 103.354 16.991Z" fill="#A57242"/>
<path d="M72.4208 2.64463C71.6241 2.66991 71.8763 2.89857 70.1546 3.32021C68.4162 3.74592 66.2927 3.61546 64.4206 4.3969C58.8323 6.72972 57.7109 14.7029 52.6307 17.5589C48.8331 19.694 45.002 19.8642 41.5573 20.9386C39.2937 21.6451 36.8173 23.0942 34.7664 24.8533C33.1744 26.2193 33.1329 27.4204 31.4695 29.1336C29.6903 30.9663 24.3983 29.1646 21.9999 31.9694C22.7726 32.747 23.1111 32.9648 24.6339 32.763C24.3187 33.3578 22.4605 33.8589 22.8243 34.7335C23.2068 35.6545 27.6992 36.2784 31.7832 33.8241C33.6849 32.6813 35.1997 31.034 38.1619 30.6408C41.9948 30.1322 46.4105 30.9669 50.8476 31.6037C50.1899 33.5564 48.8687 34.855 47.8106 36.4102C47.4829 36.7614 48.4689 36.8007 49.5935 36.5885C51.6166 36.0906 53.0745 35.6897 54.6016 34.8051C56.4774 33.7182 56.7616 30.9317 59.0631 30.3286C60.3455 32.2903 63.8331 32.7537 65.9974 31.1845C64.0984 30.6496 63.5734 26.6263 64.2145 24.8533C64.8218 23.1751 65.4216 20.4906 66.0332 18.2724C66.6897 15.8899 66.9319 12.8869 67.7265 11.6735C68.9216 9.8476 70.2426 9.22055 71.3894 8.19104C72.5362 7.16153 73.5857 6.15933 73.5512 3.80326C73.5403 3.04461 73.146 2.62161 72.421 2.64463H72.4208Z" fill="#002B64"/>
<path d="M70.8576 4.04453C71.0492 4.69438 71.3488 4.99255 72.6439 5.11173C72.4548 6.74618 71.3592 7.64026 70.1313 8.49799C69.0505 9.25258 67.8662 9.97895 67.1054 11.1577C66.326 12.3648 65.831 16.4969 64.6225 20.5774C63.5777 24.1032 62.0001 27.5895 59.245 29.1169C58.9572 28.396 59.2817 27.0651 58.7094 26.6277C58.3388 27.6791 57.9202 28.6824 57.4295 29.6148C55.813 32.6905 53.4194 34.9933 49.4196 35.6964C51.3175 33.1402 53.1321 30.5003 53.1713 26.0945C51.8356 26.3821 51.864 29.5225 50.4918 30.362C49.6119 30.4572 48.7207 30.4568 47.8236 30.4031C44.1396 30.1834 40.3604 29.0812 36.9142 30.1819C34.5677 30.9315 32.6486 32.7 30.6616 33.5577C28.3263 34.5658 26.5576 34.9805 23.6497 34.5658C23.2801 34.0708 25.778 33.4318 25.6286 32.3569C24.4904 32.2316 23.8296 32.5061 22.8401 32.0587C22.9495 31.8585 23.11 31.6915 23.3121 31.5524C25.1253 30.3033 30.2761 31.2574 31.6544 29.9103C32.5052 29.0794 33.0635 28.2095 33.6414 27.3642C34.202 26.5437 34.7814 25.746 35.6642 25.0273C35.9901 24.7618 36.3445 24.4996 36.7205 24.2436C38.2247 23.2188 40.0856 22.2895 41.917 21.6489C44.4115 20.7761 46.9396 20.7041 49.5987 19.6928C51.2415 19.0678 53.0276 18.2961 54.4839 17.216C54.8267 16.9629 55.1524 16.6877 55.459 16.3921C59.6169 12.3578 60.4412 5.2413 66.9281 4.57813C67.7125 4.498 68.3545 4.52396 68.9391 4.50612C69.6126 4.48626 70.209 4.40839 70.8576 4.04453ZM62.9496 26.8213C63.0271 28.0547 63.7462 30.5015 64.3814 31.0962C63.1378 31.3974 60.9952 30.8999 60.4458 30.0268C60.7281 28.7659 62.1976 27.6134 62.9496 26.8213Z" fill="#C49A6C"/>
<path d="M71.1735 5.40314C70.9292 5.91326 70.4616 6.57056 70.4616 7.86868C70.4596 8.09147 70.2915 8.24406 70.2888 7.90051C70.3013 6.63196 70.6387 6.08346 70.9973 5.36273C71.1637 5.06726 71.2642 5.18893 71.1735 5.40314ZM70.9274 5.21127C70.6394 5.6977 69.9455 6.58501 69.831 7.87839C69.8097 8.10005 69.6285 8.23728 69.6561 7.89464C69.7809 6.63218 70.3355 5.84194 70.7564 5.15507C70.9474 4.87585 71.037 5.00609 70.9274 5.21105V5.21127ZM70.7034 4.95666C70.375 5.41713 69.3071 6.48298 69.0837 7.76237C69.0436 7.98109 68.8515 8.10321 68.908 7.76395C69.1393 6.51594 70.0598 5.53518 70.5371 4.88669C70.751 4.62395 70.8292 4.76119 70.7034 4.95666ZM70.5031 4.6727L70.3952 4.78692C69.9178 5.2966 68.8084 6.53941 68.4388 7.67682C68.3676 7.88809 68.1603 7.98222 68.2644 7.65402C68.6692 6.45093 69.7843 5.15529 70.3485 4.57971C70.5975 4.34947 70.6555 4.49664 70.5031 4.6727ZM64.7714 7.24818C65.0188 6.19045 65.8454 5.70854 67.2723 5.82614C67.6165 7.40483 65.6896 8.04181 64.7714 7.24818Z" fill="#002B64"/>
</svg>
