<svg width="160" height="40" viewBox="0 0 160 40" fill="none" xmlns="http://www.w3.org/2000/svg">
<g clip-path="url(#clip0_1081_135)">
<path d="M35.3865 35.766V24.3625H37.6862L42.6913 31.8199V24.3625H45.16V35.766H42.8604L37.8553 28.3086V35.766H35.3865Z" fill="#403C38"/>
<path d="M47.4258 35.766V24.3625H54.9673V26.4693H49.9622V28.9774H54.5277V31.0842H49.9622V33.7595H55.1026V35.6991L47.4258 35.766Z" fill="#403C38"/>
<path d="M59.8709 35.766V26.369H56.4214V24.3625H65.6538V26.4693H62.2382V35.766H59.8709Z" fill="#403C38"/>
<path d="M67.2095 35.1974V33.8932C68.2578 34.3948 69.4077 34.6289 70.5575 34.6289C71.3015 34.6958 72.0455 34.4617 72.5866 34.1273C73.0938 33.7929 73.3306 33.2244 73.3306 32.6559C73.3306 32.2546 73.1615 31.8533 72.8233 31.5189C72.316 31.1176 71.7749 30.7832 71.2 30.616L69.9826 30.1144C69.1709 29.8803 68.4269 29.3787 67.7844 28.8102C67.3786 28.4089 67.1418 27.8404 67.1418 27.1715C67.1418 26.2686 67.5477 25.466 68.1902 24.8975C69.1033 24.329 70.084 23.9946 71.1324 24.095C71.7073 24.095 72.1808 24.1618 72.7557 24.2622C73.2629 24.329 73.7364 24.4962 74.1422 24.7638V26.068C73.2291 25.6667 72.1808 25.4326 71.2 25.3323C69.4753 25.3323 68.596 25.9008 68.596 27.0378C68.596 27.4391 68.7651 27.7735 69.1033 28.0076C69.6106 28.4089 70.1517 28.643 70.7266 28.9105L71.944 29.4121C72.7557 29.6462 73.5673 30.1478 74.2437 30.7832C74.6495 31.2848 74.8862 31.9202 74.8862 32.6559C74.9538 33.5588 74.548 34.4283 73.8378 34.9968C72.9248 35.6322 71.8764 35.8997 70.7942 35.8997C70.3884 35.8997 69.9826 35.8997 69.5768 35.8328C69.1709 35.7659 68.7651 35.6656 68.3593 35.5987C67.7844 35.4984 67.4462 35.3646 67.2095 35.1974Z" fill="#403C38"/>
<path d="M76.7123 30.5826V24.3625H78.2003V30.5826C78.2003 31.9537 78.4371 33.0238 78.9443 33.6592C80.0942 34.8631 82.0556 35.0303 83.2731 33.8933C83.3407 33.8264 83.4422 33.7261 83.5098 33.6592C84.0171 33.0238 84.2538 31.9537 84.2538 30.5826V24.3625H85.7418V30.6829C85.7418 32.5556 85.336 33.8264 84.592 34.7293C83.848 35.6322 82.6982 36.0335 81.244 36.0335C79.7898 36.0335 78.64 35.6322 77.896 34.7293C77.1182 33.8264 76.7123 32.4553 76.7123 30.5826Z" fill="#403C38"/>
<path d="M88.1429 35.766V24.3625H89.6309V35.766H88.1429Z" fill="#403C38"/>
<path d="M95.2785 35.766V25.5664H91.6938V24.3625H100.453V25.5664H96.7665V35.6657H95.2785V35.766Z" fill="#403C38"/>
<path d="M102.38 35.766V24.3625H109.482V25.5664H103.835V29.2784H108.975V30.4823H103.835V34.3615H109.651V35.5654H102.38V35.766Z" fill="#403C38"/>
<path d="M74.1084 12.7583H80.2295L77.0167 7.5749L71.0309 16.905H68.2916L75.5625 5.73563C76.1375 4.93305 77.1858 4.76584 77.9975 5.33434C78.1665 5.40122 78.3356 5.50155 78.4033 5.66875L85.6742 16.905H82.9349L81.6498 14.8316H75.4273L74.1084 12.7583ZM102.245 14.8316V5.10025H99.9116V15.8014C99.9116 16.1358 100.081 16.3699 100.25 16.604C100.487 16.8381 100.723 16.9384 101.061 16.9384H111.545L112.932 14.8651L102.245 14.8316ZM64.2673 13.0593C66.5331 13.0593 68.2916 11.3203 68.2916 9.07976C68.2916 6.83919 66.4993 5.10025 64.2673 5.10025H54.1556V16.905H56.4891V7.17361H64.0982C65.1465 7.24049 65.9582 8.1434 65.9582 9.18008C65.8905 10.1499 65.1465 10.919 64.0982 11.0193H57.6389L64.504 16.9384H67.8182L63.2189 13.0593H64.2673ZM40.0535 16.905H46.9862C50.3004 16.905 52.972 14.2631 52.972 10.9859C52.972 7.70867 50.3004 5.10025 46.9862 5.10025H40.0535C36.7393 5.10025 34 7.70867 34 10.9859C34 14.2631 36.7393 16.905 40.0535 16.905ZM46.8171 14.8316H40.1211C38.0244 14.7648 36.3335 12.9924 36.4011 10.8521C36.4687 8.84567 38.092 7.27393 40.1211 7.17361H46.8171C48.9138 7.10672 50.7738 8.77878 50.8415 10.8521C50.9091 12.9255 49.2182 14.7648 47.1215 14.8316C46.9862 14.8316 46.9185 14.8316 46.8171 14.8316ZM90.4764 16.905H97.5782L98.9647 14.8316H90.6455C88.5487 14.8985 86.6887 13.2265 86.6211 11.1531C86.5535 9.07976 88.2444 7.24049 90.3411 7.17361C90.4087 7.17361 90.5102 7.17361 90.5778 7.17361H97.3415L98.728 5.10025H90.4764C87.1622 5.10025 84.4905 7.74211 84.4905 11.0193C84.4905 14.2966 87.1622 16.905 90.4764 16.905ZM118.613 14.8316C116.922 14.8316 115.4 13.7281 114.893 12.056H124.734L126.121 9.98267H114.893C115.367 8.31061 116.922 7.20705 118.613 7.20705H125.377L126.763 5.13369H118.545C115.231 5.13369 112.56 7.77555 112.56 11.0528C112.56 14.33 115.231 16.9719 118.545 16.9719H125.647L127.034 14.8985L118.613 14.8316Z" fill="#403C38"/>
</g>
<defs>
<clipPath id="clip0_1081_135">
<rect width="93" height="31" fill="white" transform="translate(34 5)"/>
</clipPath>
</defs>
</svg>
