<svg width="160" height="40" viewBox="0 0 160 40" fill="none" xmlns="http://www.w3.org/2000/svg">
<path opacity="0.914" fill-rule="evenodd" clip-rule="evenodd" d="M25.8657 3.83111C25.7303 3.82098 25.6044 3.84616 25.4879 3.90666C25.4748 3.72828 25.4496 3.55198 25.4124 3.37778C23.9602 3.88956 22.5499 4.5066 21.1813 5.22889C21.0806 5.27926 21.0806 5.32962 21.1813 5.38C21.7258 5.43718 22.2548 5.52533 22.7679 5.64444C22.776 5.78638 22.7382 5.81156 22.6546 5.72C22.6169 5.80815 22.5539 5.87111 22.4657 5.90889C22.5619 5.98272 22.5619 6.04569 22.4657 6.09778C21.9004 6.00653 21.3463 5.89321 20.8035 5.75778C21.5762 6.54325 22.3571 7.3114 23.1457 8.06221C22.7273 8.05823 22.3244 7.98267 21.9369 7.83555C21.3805 7.15369 20.8263 6.47369 20.2746 5.79555C20.2662 5.74891 20.241 5.71113 20.199 5.68221C20.4212 5.40365 20.6227 5.11402 20.8035 4.81334C22.3543 4.04459 23.9661 3.44014 25.639 3C25.6688 3.29068 25.7443 3.56771 25.8657 3.83111Z" fill="#ADB4BE"/>
<path opacity="0.975" fill-rule="evenodd" clip-rule="evenodd" d="M20.8035 4.81335C20.6226 5.11404 20.4212 5.40368 20.199 5.68223C20.2411 5.71114 20.2662 5.74893 20.2746 5.79557C19.7401 6.12878 19.3371 6.58212 19.0658 7.15557C18.6251 7.11714 18.3481 6.89048 18.2346 6.47557C18.9615 5.73352 19.8179 5.17945 20.8035 4.81335Z" fill="#949FAB"/>
<path opacity="0.911" fill-rule="evenodd" clip-rule="evenodd" d="M25.8657 3.8311C26.463 5.60501 27.2439 7.29242 28.208 8.89332C27.8977 8.87519 27.5954 8.82482 27.3012 8.7422C26.996 8.17199 26.7063 7.59272 26.4324 7.00443C25.8919 7.50759 25.3001 7.93574 24.6568 8.28887C24.3092 8.30552 23.9819 8.25516 23.6746 8.13777C24.4737 7.63127 25.3049 7.16534 26.168 6.73998C24.9108 6.59849 23.6768 6.38441 22.4657 6.09777C22.562 6.04567 22.562 5.98271 22.4657 5.90888C22.5539 5.87109 22.6168 5.80814 22.6546 5.71999C22.7382 5.81155 22.7761 5.78637 22.768 5.64443C23.8808 5.80059 24.9889 5.96429 26.0924 6.13554C25.8065 5.41626 25.6051 4.6733 25.488 3.90665C25.6044 3.84616 25.7303 3.82097 25.8657 3.8311Z" fill="#CED2D7"/>
<path opacity="0.95" fill-rule="evenodd" clip-rule="evenodd" d="M18.2346 6.47559C18.3482 6.89049 18.6252 7.11715 19.0657 7.15559C19.4617 7.30492 19.8646 7.43085 20.2746 7.53337C20.283 7.58001 20.3082 7.61779 20.3502 7.64669C20.2117 7.68448 20.1236 7.77262 20.0857 7.91114C20.0605 7.88596 20.0354 7.86077 20.0102 7.83558C19.9737 7.90721 19.9612 7.98277 19.9725 8.06225C19.9725 8.08744 19.9725 8.11262 19.9725 8.13781C19.9221 8.13781 19.8969 8.11262 19.8969 8.06225C19.8969 8.01187 19.8717 7.98669 19.8214 7.98669C19.6699 8.04366 19.6195 8.13182 19.6702 8.25114C19.5899 8.36527 19.4891 8.37786 19.368 8.28892C18.828 7.87532 18.4 7.37162 18.0836 6.77781C18.0963 6.65159 18.1467 6.55085 18.2346 6.47559Z" fill="#B01032"/>
<path fill-rule="evenodd" clip-rule="evenodd" d="M20.2747 7.53339C20.8232 7.66324 21.3773 7.76399 21.9369 7.8356C22.3244 7.98273 22.7273 8.05828 23.1457 8.06228C23.3168 8.11657 23.4931 8.14175 23.6747 8.13783C23.9819 8.25523 24.3093 8.30559 24.6568 8.28894C24.7105 8.35724 24.786 8.38243 24.8836 8.36449C24.6901 8.60297 24.476 8.65334 24.2413 8.5156C24.0909 8.69735 23.9147 8.74772 23.7125 8.66671C23.6604 8.73145 23.5974 8.78181 23.5236 8.81783C23.4106 8.72676 23.3099 8.72676 23.2213 8.81783C22.8743 8.76609 22.5343 8.69053 22.2013 8.59116C22.2641 8.89504 22.3522 9.19726 22.4657 9.49787C22.343 9.48725 22.2549 9.53761 22.2013 9.64896C22.1755 9.48884 22.1126 9.46366 22.0125 9.57342C21.9091 9.20023 21.7831 8.83505 21.6347 8.47783C21.0796 8.33904 20.5254 8.20053 19.9725 8.06228C19.9611 7.98279 19.9738 7.90724 20.0102 7.8356C20.0354 7.86078 20.0606 7.88598 20.0857 7.91116C20.1236 7.77265 20.2117 7.68449 20.3502 7.64671C20.3082 7.61781 20.2831 7.58003 20.2747 7.53339Z" fill="#C11D32"/>
<path opacity="0.961" fill-rule="evenodd" clip-rule="evenodd" d="M24.8835 8.36456C25.6871 8.50455 26.493 8.63046 27.3012 8.74233C27.5956 8.82495 27.8977 8.87533 28.208 8.89345C29.4616 9.06446 30.6957 9.29113 31.9102 9.57348C31.9295 9.7454 32.0303 9.83358 32.2124 9.83794C32.3982 10.0227 32.5744 10.2116 32.7412 10.4046C32.6909 10.4549 32.6406 10.5053 32.5902 10.5557C32.5995 10.6016 32.6247 10.6267 32.6657 10.6312C32.5712 11.5378 32.3698 12.4193 32.0612 13.2757C31.8605 13.2048 31.6843 13.0537 31.5324 12.8223C31.8189 12.1389 32.0456 11.4337 32.2124 10.7067C32.1873 10.6817 32.162 10.6564 32.1369 10.6312C31.7802 10.8095 31.4277 10.9858 31.0791 11.1601C31.0035 11.009 30.928 10.8579 30.8524 10.7067C31.0933 10.5738 31.3452 10.4605 31.608 10.3667C30.5663 10.146 29.5338 9.93187 28.5102 9.72457C28.4531 9.57604 28.365 9.55085 28.2457 9.64903C28.1953 9.59867 28.145 9.5483 28.0946 9.49794C27.9127 9.51101 27.7364 9.51101 27.5657 9.49794C27.4039 9.35907 27.2402 9.33389 27.0746 9.42229C26.6479 9.29429 26.2198 9.24392 25.7902 9.27122C24.9249 9.16867 24.0686 9.01755 23.2213 8.8179C23.3099 8.72683 23.4106 8.72683 23.5235 8.8179C23.5974 8.78188 23.6604 8.73151 23.7124 8.66678C23.9146 8.74779 24.0909 8.69742 24.2413 8.51567C24.476 8.65341 24.6901 8.60304 24.8835 8.36456Z" fill="#CA2030"/>
<path opacity="0.992" fill-rule="evenodd" clip-rule="evenodd" d="M76.9412 8.59114C77.1944 8.57867 77.4462 8.59126 77.6969 8.62892C77.7878 8.73113 77.8382 8.85705 77.848 9.00669C77.8228 9.12003 77.7976 9.23336 77.7724 9.34669C77.4167 9.1335 77.1019 9.18386 76.828 9.49785C76.7231 9.8659 76.6853 10.2437 76.7146 10.6311C77.0169 10.6311 77.319 10.6311 77.6212 10.6311C77.6212 10.8579 77.6212 11.0845 77.6212 11.3111C77.319 11.3111 77.0169 11.3111 76.7146 11.3111C76.7146 12.4697 76.7146 13.6282 76.7146 14.7867C76.4628 14.7867 76.2109 14.7867 75.9591 14.7867C75.9591 13.6282 75.9591 12.4697 75.9591 11.3111C75.7324 11.3111 75.5057 11.3111 75.2791 11.3111C75.2791 11.0845 75.2791 10.8579 75.2791 10.6311C75.5057 10.6311 75.7324 10.6311 75.9591 10.6311C75.7573 9.66647 76.0847 8.9865 76.9412 8.59114Z" fill="#221E1F"/>
<path opacity="0.965" fill-rule="evenodd" clip-rule="evenodd" d="M54.9546 8.74225C55.5644 8.78705 55.7155 9.07668 55.4079 9.61112C54.8085 9.79227 54.5692 9.57818 54.6901 8.96892C54.7767 8.88306 54.8648 8.80751 54.9546 8.74225Z" fill="#221E1F"/>
<path opacity="0.989" fill-rule="evenodd" clip-rule="evenodd" d="M47.4746 9.04443C47.8222 9.02177 48.1622 9.04695 48.4946 9.11998C49.1348 10.6122 49.7896 12.0981 50.4591 13.5778C51.0932 12.083 51.748 10.5971 52.4235 9.11998C52.7307 9.04717 53.0456 9.02199 53.368 9.04443C53.368 10.9584 53.368 12.8726 53.368 14.7866C53.1413 14.7866 52.9146 14.7866 52.688 14.7866C52.7006 13.2753 52.688 11.7642 52.6501 10.2533C52.0118 11.7657 51.3444 13.2643 50.648 14.7489C50.2853 14.8457 50.0711 14.7072 50.0057 14.3333C49.4264 13.0237 48.8472 11.7141 48.268 10.4044C48.2301 11.8649 48.2176 13.3257 48.2302 14.7866C47.9783 14.7866 47.7264 14.7866 47.4746 14.7866C47.4746 12.8726 47.4746 10.9584 47.4746 9.04443Z" fill="#221E1F"/>
<path opacity="0.982" fill-rule="evenodd" clip-rule="evenodd" d="M79.2079 9.42224C79.355 9.7922 79.4053 10.1951 79.359 10.6312C79.7117 10.6312 80.0642 10.6312 80.4168 10.6312C80.4168 10.8579 80.4168 11.0845 80.4168 11.3112C80.0642 11.3112 79.7117 11.3112 79.359 11.3112C79.326 12.2236 79.3637 13.1303 79.4724 14.0311C79.7488 14.3043 80.051 14.3295 80.379 14.1067C80.5479 14.6659 80.3465 14.9429 79.7746 14.9379C79.258 14.9571 78.9054 14.7305 78.7168 14.2579C78.6109 13.2795 78.5732 12.2974 78.6035 11.3112C78.3768 11.3112 78.1501 11.3112 77.9235 11.3112C77.9235 11.0845 77.9235 10.8579 77.9235 10.6312C78.1501 10.6312 78.3768 10.6312 78.6035 10.6312C78.5788 10.3 78.6041 9.97251 78.679 9.64898C78.8691 9.58629 79.0455 9.51075 79.2079 9.42224Z" fill="#221E1F"/>
<path opacity="0.916" fill-rule="evenodd" clip-rule="evenodd" d="M19.8212 7.98676C19.8717 7.98676 19.8969 8.01194 19.8969 8.06231C19.8969 8.11268 19.9221 8.13787 19.9724 8.13787C20.7848 8.7486 21.4648 9.479 22.0124 10.329C21.9747 10.5378 21.8488 10.6638 21.6346 10.7067C21.3358 10.3194 21.021 9.94162 20.6902 9.57346C20.2114 9.18275 19.7707 8.7546 19.368 8.28898C19.489 8.37793 19.5898 8.36533 19.6702 8.2512C19.6194 8.13188 19.6697 8.04373 19.8212 7.98676Z" fill="#C51D31"/>
<path opacity="0.934" fill-rule="evenodd" clip-rule="evenodd" d="M25.7901 9.27105C26.2198 9.24375 26.648 9.29412 27.0746 9.42212C27.2401 9.33372 27.4038 9.3589 27.5658 9.49777C27.7365 9.51084 27.9128 9.51084 28.0946 9.49777C28.145 9.54813 28.1953 9.5985 28.2458 9.64886C28.365 9.55068 28.4532 9.57586 28.5101 9.7244C28.0137 9.68573 27.5225 9.61018 27.0369 9.49777C26.999 9.52295 26.9613 9.54813 26.9235 9.57331C27.1207 10.0137 27.2718 10.467 27.3769 10.9333C27.2527 10.9171 27.1393 10.9423 27.0369 11.0089C26.9223 10.8161 26.8593 10.8413 26.8479 11.0844C26.754 10.5287 26.6155 9.97462 26.4324 9.42212C25.4462 10.1308 24.527 10.9242 23.6746 11.8021C23.7462 11.8387 23.8218 11.8512 23.9013 11.8399C23.6509 11.9042 23.4368 12.0301 23.259 12.2178C23.1823 12.132 23.1319 12.1572 23.1079 12.2933C23.0738 12.1097 23.0108 12.0972 22.919 12.2555C22.9442 12.2807 22.9694 12.3058 22.9946 12.331C22.8433 12.3563 22.7174 12.4193 22.6169 12.5199C22.3685 11.872 22.041 11.2676 21.6346 10.7066C21.8488 10.6637 21.9747 10.5376 22.0124 10.3289C22.1109 10.4412 22.199 10.5672 22.2769 10.7066C22.2449 10.3199 22.1567 9.94221 22.0124 9.57331C22.1125 9.46356 22.1754 9.48874 22.2013 9.64886C22.255 9.53751 22.3431 9.48715 22.4658 9.49777C22.7409 10.0831 22.9801 10.6875 23.1835 11.311C23.9267 10.5555 24.7703 9.9385 25.7146 9.45995C25.7714 9.40926 25.7967 9.3463 25.7901 9.27105Z" fill="#D5272E"/>
<path opacity="0.967" fill-rule="evenodd" clip-rule="evenodd" d="M31.9102 9.5733C33.4111 9.83861 34.8719 10.2416 36.2924 10.7821C36.4326 11.0634 36.6088 11.3656 36.8212 11.6888C36.7831 11.7961 36.7076 11.8463 36.5946 11.8399C35.3096 11.3612 33.9999 10.9583 32.6657 10.631C32.6247 10.6266 32.5995 10.6014 32.5902 10.5555C32.6406 10.5051 32.6909 10.4548 32.7412 10.4044C32.5744 10.2114 32.3982 10.0225 32.2124 9.83776C32.0303 9.8334 31.9295 9.74522 31.9102 9.5733Z" fill="#B71331"/>
<path opacity="0.98" fill-rule="evenodd" clip-rule="evenodd" d="M58.0523 10.5556C58.5662 10.5275 59.0698 10.5778 59.5634 10.7067C59.5759 10.9849 59.5633 11.2619 59.5256 11.5378C58.8022 11.0025 58.1222 11.0529 57.4856 11.6889C56.9662 12.5543 57.0543 13.3477 57.7501 14.0689C58.3479 14.3417 58.9271 14.3039 59.4879 13.9556C59.5851 14.198 59.5851 14.4372 59.4879 14.6734C58.4279 15.1481 57.5088 14.9592 56.7301 14.1067C56.231 13.078 56.3067 12.0958 56.9568 11.16C57.2898 10.8867 57.655 10.6853 58.0523 10.5556Z" fill="#221E1F"/>
<path opacity="0.981" fill-rule="evenodd" clip-rule="evenodd" d="M64.4746 10.5555C65.272 10.4241 65.9645 10.6255 66.5524 11.16C66.7362 11.4089 66.8622 11.686 66.9301 11.9911C66.9974 12.5512 66.9722 13.1053 66.8546 13.6533C66.2339 14.8177 65.2894 15.1829 64.0212 14.7489C63.224 14.3261 62.8462 13.6587 62.8879 12.7466C62.8704 11.6074 63.3993 10.877 64.4746 10.5555ZM64.7767 11.16C65.7903 11.1914 66.294 11.7203 66.2879 12.7466C66.1651 14.0665 65.4851 14.5073 64.2479 14.0689C63.6177 13.4265 63.4791 12.6835 63.8324 11.84C64.0528 11.4726 64.3675 11.2459 64.7767 11.16Z" fill="#221E1F"/>
<path opacity="0.973" fill-rule="evenodd" clip-rule="evenodd" d="M61.9813 10.5556C62.6124 10.489 62.814 10.766 62.5857 11.3866C62.0074 11.1527 61.5919 11.3291 61.339 11.9156C61.2302 12.8669 61.1924 13.824 61.2257 14.7866C60.9738 14.7866 60.722 14.7866 60.4701 14.7866C60.4701 13.4016 60.4701 12.0163 60.4701 10.6311C60.722 10.6311 60.9738 10.6311 61.2257 10.6311C61.1564 11.2055 61.2571 11.2684 61.5279 10.82C61.6739 10.7098 61.825 10.6216 61.9813 10.5556Z" fill="#221E1F"/>
<path fill-rule="evenodd" clip-rule="evenodd" d="M54.7279 10.6312C54.9797 10.6312 55.2316 10.6312 55.4834 10.6312C55.4834 12.0163 55.4834 13.4016 55.4834 14.7867C55.2316 14.7867 54.9797 14.7867 54.7279 14.7867C54.7279 13.4016 54.7279 12.0163 54.7279 10.6312Z" fill="#221E1F"/>
<path opacity="0.976" fill-rule="evenodd" clip-rule="evenodd" d="M72.4079 10.5555C74.0424 10.3631 74.8734 11.0808 74.9012 12.7089C74.8923 14.0653 74.2123 14.8083 72.8612 14.9378C71.5299 14.8152 70.8499 14.0849 70.8212 12.7466C70.8059 11.6058 71.3348 10.8753 72.4079 10.5555ZM72.7101 11.16C73.438 11.1264 73.904 11.4539 74.1079 12.1422C74.1736 12.6271 74.1484 13.1056 74.0324 13.5778C73.5653 14.2827 72.9483 14.4464 72.1812 14.0689C71.6466 13.598 71.4577 13.0061 71.6145 12.2934C71.7416 11.6754 72.1067 11.2976 72.7101 11.16Z" fill="#221E1F"/>
<path opacity="0.902" fill-rule="evenodd" clip-rule="evenodd" d="M81.6256 9.8001C82.898 9.72466 83.3891 10.3039 83.099 11.5379C82.6947 12.1258 82.1532 12.2895 81.4746 12.029C80.8958 11.6695 80.7069 11.1532 80.9079 10.4801C81.0897 10.1848 81.3289 9.95809 81.6256 9.8001ZM82.6079 11.689C82.4695 11.8698 82.2806 11.9454 82.0413 11.9156C81.4359 11.8896 81.0959 11.5748 81.0213 10.9712C81.2136 10.0946 81.7172 9.81763 82.5324 10.1401C82.9512 10.4255 83.0898 10.8158 82.9479 11.3112C82.8727 11.4744 82.7593 11.6004 82.6079 11.689ZM81.8524 10.4046C82.1697 10.3989 82.2706 10.5375 82.1546 10.8201C82.0569 10.8571 81.9561 10.8697 81.8524 10.8579C81.8524 10.7067 81.8524 10.5556 81.8524 10.4046Z" fill="#221E1F"/>
<path opacity="0.924" fill-rule="evenodd" clip-rule="evenodd" d="M82.6079 11.6889C82.5041 11.7007 82.4034 11.6882 82.3057 11.6511C81.9617 10.9309 81.8106 10.9436 81.8524 11.6889C81.7517 11.6889 81.6508 11.6889 81.5501 11.6889C81.5501 11.1852 81.5501 10.6815 81.5501 10.1778C81.8834 10.1416 82.1982 10.1919 82.4946 10.3289C82.5839 10.6141 82.5209 10.8533 82.3057 11.0466C82.4376 11.2475 82.5383 11.4616 82.6079 11.6889ZM81.8524 10.4044C81.8524 10.5555 81.8524 10.7066 81.8524 10.8578C81.9561 10.8696 82.0569 10.857 82.1546 10.82C82.2706 10.5374 82.1698 10.3988 81.8524 10.4044Z" fill="#221E1F"/>
<path opacity="0.98" fill-rule="evenodd" clip-rule="evenodd" d="M68.7057 10.5555C69.1447 10.5269 69.5728 10.5774 69.9901 10.7066C70.0908 10.9584 70.0908 11.2103 69.9901 11.4621C69.5873 11.191 69.1591 11.128 68.7057 11.2733C68.3884 11.5084 68.338 11.7854 68.5546 12.1044C68.8862 12.3205 69.2387 12.4968 69.6124 12.6333C70.1672 12.976 70.3562 13.467 70.179 14.1066C69.8774 14.6999 69.3862 14.977 68.7057 14.9378C68.3666 14.9102 68.0392 14.8347 67.7235 14.711C67.6228 14.434 67.6228 14.157 67.7235 13.8799C68.2032 14.2635 68.7321 14.3517 69.3101 14.1444C69.5863 13.8568 69.5612 13.5798 69.2346 13.3133C68.7141 13.1098 68.2482 12.8201 67.8369 12.4444C67.4765 11.5032 67.7661 10.8737 68.7057 10.5555Z" fill="#221E1F"/>
<path opacity="0.923" fill-rule="evenodd" clip-rule="evenodd" d="M36.2924 10.7821C39.5875 11.7868 42.1312 13.7513 43.9234 16.6755C41.6411 17.0823 39.3745 17.561 37.1235 18.111C37.1309 18.0066 37.1309 17.8933 37.1235 17.771C37.1777 17.5733 37.2786 17.4095 37.4256 17.2799C39.3189 16.8745 41.2331 16.5848 43.1679 16.411C41.9181 14.972 40.4574 13.8008 38.7856 12.8978C38.2966 13.8895 37.7173 14.8213 37.0479 15.6933C37.002 15.5604 37.0271 15.4218 37.1235 15.2778C37.0929 15.2064 37.0425 15.1559 36.9724 15.1266C37.08 14.997 37.0548 14.8964 36.8968 14.8244C36.9931 14.7505 36.9931 14.6875 36.8968 14.6355C37.352 14.0659 37.7801 13.4741 38.1813 12.8599C37.3893 13.0139 36.6086 13.2281 35.839 13.5021C35.7428 13.335 35.6673 13.1587 35.6124 12.9733C36.2959 12.7392 37.0011 12.5504 37.7279 12.4066C37.3483 12.2095 36.9705 12.0206 36.5945 11.8399C36.7075 11.8463 36.783 11.796 36.8213 11.6888C36.6088 11.3656 36.4325 11.0633 36.2924 10.7821Z" fill="#A80531"/>
<path opacity="0.948" fill-rule="evenodd" clip-rule="evenodd" d="M30.8524 10.7067C30.928 10.8579 31.0035 11.0089 31.079 11.16C30.053 11.7826 29.0455 12.4374 28.0569 13.1245C27.1264 12.7521 26.1443 12.6639 25.1101 12.86C24.9598 12.8883 24.8338 12.9512 24.7324 13.0489C24.3241 12.972 23.9211 12.8713 23.5235 12.7467C23.4859 13.0432 23.4859 13.3455 23.5235 13.6534C23.3047 13.7212 23.1285 13.8472 22.9946 14.0311C22.9159 13.5144 22.7899 13.0107 22.6169 12.52C22.7173 12.4194 22.8433 12.3564 22.9946 12.3311C22.9694 12.3059 22.9442 12.2808 22.9191 12.2556C23.0109 12.0973 23.0739 12.1098 23.108 12.2934C23.1319 12.1573 23.1823 12.1321 23.2591 12.2179C23.4368 12.0302 23.6509 11.9043 23.9013 11.84C24.8819 12.104 25.8516 12.4061 26.8101 12.7467C26.848 12.1932 26.8605 11.6391 26.848 11.0845C26.8593 10.8414 26.9223 10.8162 27.0369 11.0089C27.1393 10.9424 27.2527 10.9173 27.3769 10.9334C27.4125 11.4881 27.4628 12.0423 27.528 12.5956C28.5669 11.8493 29.6751 11.2196 30.8524 10.7067Z" fill="#E13531"/>
<path opacity="0.991" fill-rule="evenodd" clip-rule="evenodd" d="M30.3235 16.4489C30.0821 16.8318 29.805 17.1844 29.4924 17.5066C29.5029 17.1201 29.4778 16.7424 29.4169 16.3734C29.4298 16.2984 29.4047 16.2481 29.3413 16.2222C29.2955 15.9749 29.1949 15.7231 29.0391 15.4666C29.2134 15.3795 29.3897 15.2914 29.568 15.2022C28.8437 14.7519 28.088 14.3615 27.3013 14.0311C27.1952 13.8891 27.0692 13.864 26.9235 13.9556C26.6373 13.8228 26.3351 13.7726 26.0169 13.8045C26.0511 13.7321 26.1013 13.6691 26.168 13.6156C25.8563 13.4403 25.5289 13.3018 25.1858 13.2C25.3359 13.1364 25.4995 13.0859 25.6769 13.0489C26.6465 12.9446 27.6035 13.1965 28.548 13.8045C28.8992 14.0172 29.1889 14.2943 29.4169 14.6356C29.7629 15.227 30.0652 15.8315 30.3235 16.4489Z" fill="#E85043"/>
<path opacity="0.968" fill-rule="evenodd" clip-rule="evenodd" d="M31.5324 12.8221C31.6843 13.0536 31.8605 13.2046 32.0613 13.2755C31.9433 13.566 31.8174 13.8557 31.6835 14.1444C31.7087 14.1821 31.7339 14.22 31.7591 14.2578C32.2813 14.0342 32.8102 13.8328 33.3458 13.6533C33.3115 13.7257 33.2612 13.7887 33.1946 13.8421C33.3026 14.0033 33.4033 14.1671 33.4969 14.3333C32.8924 14.6103 32.288 14.8873 31.6835 15.1644C31.5124 14.9912 31.3613 14.7897 31.2302 14.56C31.246 14.5157 31.2713 14.4779 31.3058 14.4466C31.1508 14.2981 31.0249 14.1343 30.928 13.9555C31.1105 13.5651 31.312 13.1873 31.5324 12.8221Z" fill="#D8282E"/>
<path opacity="0.955" fill-rule="evenodd" clip-rule="evenodd" d="M35.6124 12.9734C35.6673 13.1588 35.7429 13.3351 35.839 13.5022C35.0635 13.7944 34.2828 14.0714 33.4969 14.3334C33.4033 14.1671 33.3025 14.0034 33.1946 13.8422C33.2612 13.7888 33.3115 13.7257 33.3458 13.6534C34.0825 13.3658 34.8381 13.1391 35.6124 12.9734Z" fill="#C71E30"/>
<path opacity="0.952" fill-rule="evenodd" clip-rule="evenodd" d="M28.0569 13.1244C28.7411 13.4287 29.4211 13.7561 30.0969 14.1066C30.3529 14.5941 30.5922 15.0978 30.8146 15.6178C30.8705 15.7121 30.8579 15.7877 30.7769 15.8444C30.6257 16.0459 30.4746 16.2473 30.3235 16.4489C30.0652 15.8315 29.7629 15.227 29.4169 14.6355C29.1888 14.2942 28.8992 14.0171 28.548 13.8044C27.6035 13.1965 26.6465 12.9445 25.6769 13.0489C25.4995 13.0859 25.3358 13.1363 25.1857 13.2C25.0196 13.1716 24.8685 13.1212 24.7324 13.0489C24.8338 12.9511 24.9597 12.8882 25.1101 12.86C26.1443 12.6638 27.1264 12.752 28.0569 13.1244Z" fill="#E54238"/>
<path opacity="0.989" fill-rule="evenodd" clip-rule="evenodd" d="M30.928 13.9556C31.0248 14.1344 31.1508 14.2982 31.3057 14.4467C31.2712 14.4781 31.246 14.5158 31.2302 14.5601C31.3613 14.7899 31.5124 14.9914 31.6836 15.1645C31.9316 15.2867 32.1332 15.463 32.288 15.6935C32.3852 16.0034 32.3852 16.293 32.288 16.5623C32.3384 16.5874 32.3887 16.6127 32.4391 16.6379C32.4231 16.7614 32.3979 16.8746 32.3636 16.9779C31.8451 16.5806 31.3162 16.2028 30.7769 15.8445C30.858 15.7878 30.8705 15.7123 30.8146 15.6179C30.5923 15.0979 30.353 14.5942 30.0969 14.1067C30.2693 14.1904 30.433 14.2913 30.588 14.409C30.7212 14.2663 30.8346 14.1151 30.928 13.9556Z" fill="#E02E2D"/>
<path opacity="0.929" fill-rule="evenodd" clip-rule="evenodd" d="M23.5235 13.6534C23.6243 14.4341 23.6243 15.2148 23.5235 15.9956C23.4404 16.0974 23.3648 16.2107 23.2969 16.3356C23.2253 16.5228 23.2253 16.6991 23.2969 16.8645C23.2321 16.9165 23.1818 16.9794 23.1457 17.0534C23.2577 17.2567 23.3081 17.4834 23.2969 17.7334C23.0573 18.1973 22.8306 18.6757 22.6169 19.1689C22.4885 18.9876 22.3877 18.7861 22.3146 18.5645C22.7686 17.4785 23.0205 16.3451 23.0702 15.1645C23.0482 14.786 23.0229 14.4082 22.9946 14.0311C23.1285 13.8472 23.3048 13.7212 23.5235 13.6534Z" fill="#EA5649"/>
<path opacity="0.963" fill-rule="evenodd" clip-rule="evenodd" d="M36.8969 14.6355C36.9931 14.6876 36.9931 14.7506 36.8969 14.8244C37.0549 14.8964 37.08 14.9971 36.9724 15.1266C37.0425 15.1559 37.0929 15.2064 37.1235 15.2778C37.0271 15.4219 37.0021 15.5604 37.048 15.6933C36.6225 16.2447 36.144 16.7484 35.6124 17.2044C35.5571 17.0052 35.5571 16.8163 35.6124 16.6378C35.5562 16.5593 35.4807 16.5214 35.3857 16.5244C35.8894 15.8948 36.3931 15.2651 36.8969 14.6355Z" fill="#BC1731"/>
<path opacity="0.929" fill-rule="evenodd" clip-rule="evenodd" d="M27.0746 15.089C26.8407 15.729 26.6014 16.3587 26.3569 16.9779C27.2232 16.4267 28.1173 15.9229 29.0391 15.4667C29.1948 15.7232 29.2956 15.975 29.3413 16.2222C28.1249 16.8685 26.916 17.5358 25.7146 18.2245C25.5386 18.3369 25.5134 18.4755 25.6391 18.6401C25.2964 18.4814 24.9943 18.2674 24.7325 17.9979C24.7959 17.872 24.7581 17.8593 24.6191 17.9601C24.5562 17.8972 24.4932 17.8342 24.4302 17.7712C24.4921 17.5941 24.5173 17.4052 24.5057 17.2045C24.7045 17.3653 24.8933 17.5415 25.0725 17.7334C25.6356 16.8591 26.0762 15.9273 26.3946 14.9379C26.4437 14.9148 26.4942 14.8898 26.5457 14.8622C26.7411 14.9744 26.9174 15.05 27.0746 15.089Z" fill="#F16C5D"/>
<path opacity="0.992" fill-rule="evenodd" clip-rule="evenodd" d="M50.8746 16.3733C52.0462 16.3125 53.2046 16.4005 54.3501 16.6378C54.5538 16.6956 54.7427 16.7837 54.9168 16.9021C54.9672 17.6326 54.9672 18.3629 54.9168 19.0933C53.6489 18.2081 52.2511 17.9184 50.7235 18.2244C49.0966 18.7203 48.5047 19.7907 48.9479 21.4355C49.1291 21.8608 49.3936 22.226 49.7413 22.531C51.013 23.3559 52.2975 24.1619 53.5946 24.9489C55.7968 26.5926 56.2375 28.6199 54.9168 31.031C54.1141 31.984 53.0941 32.5507 51.8569 32.731C50.0679 33.0153 48.3679 32.7508 46.7569 31.9378C46.694 31.1809 46.7065 30.4253 46.7946 29.671C48.2189 30.7953 49.8307 31.236 51.6301 30.9933C53.1383 30.6855 53.7805 29.7662 53.5569 28.2355C53.4257 27.7339 53.1865 27.2932 52.839 26.9133C51.581 25.9818 50.2714 25.1255 48.9101 24.3444C46.7229 22.811 46.2066 20.8339 47.3613 18.4133C48.2463 17.2343 49.4174 16.5543 50.8746 16.3733Z" fill="#221E1F"/>
<path opacity="0.993" fill-rule="evenodd" clip-rule="evenodd" d="M63.6435 16.3734C67.6032 16.0156 70.2854 17.6777 71.6901 21.36C72.3195 23.7603 72.2187 26.1277 71.3879 28.4622C70.4472 30.6496 68.8228 32.0348 66.5146 32.6179C67.7097 33.9011 68.9186 35.173 70.1412 36.4334C69.2346 36.4838 68.3279 36.4838 67.4212 36.4334C66.4138 35.2497 65.4064 34.0659 64.399 32.8822C60.1881 32.6004 57.7578 30.3715 57.108 26.1956C56.8235 24.0303 57.151 21.9651 58.0901 20C59.3389 17.8707 61.1901 16.6619 63.6435 16.3734ZM63.8701 18.1111C67.6055 18.0052 69.6582 19.8186 70.0279 23.5511C70.2771 25.5042 69.8993 27.3176 68.8946 28.9911C67.493 30.7012 65.6923 31.3686 63.4924 30.9934C61.4517 30.5394 60.1043 29.3179 59.4501 27.3289C58.8431 25.3123 58.9187 23.3227 59.6769 21.36C60.5414 19.5748 61.9391 18.4919 63.8701 18.1111Z" fill="#221E1F"/>
<path opacity="0.992" fill-rule="evenodd" clip-rule="evenodd" d="M91.0701 16.3734C92.0296 16.349 92.9869 16.3868 93.9413 16.4866C94.3787 16.5651 94.7943 16.7037 95.1879 16.9022C95.2385 17.6326 95.2385 18.3629 95.1879 19.0934C93.8944 18.1997 92.4716 17.91 90.919 18.2244C89.2092 18.8115 88.6675 19.9574 89.2945 21.6622C89.5024 22.0213 89.7668 22.3361 90.0879 22.6066C91.259 23.3559 92.4429 24.0864 93.639 24.7978C96.0364 26.4586 96.5275 28.5615 95.1124 31.1066C93.9141 32.3587 92.4407 32.9379 90.6924 32.8444C89.3912 32.8433 88.1694 32.5411 87.0279 31.9378C86.965 31.1809 86.9776 30.4253 87.0656 29.6711C88.854 31.1044 90.8185 31.4192 92.959 30.6155C93.7772 29.9264 94.0417 29.0575 93.7524 28.0089C93.5348 27.4129 93.1698 26.9217 92.6568 26.5355C91.6247 25.8429 90.5669 25.188 89.4835 24.5711C88.502 23.9677 87.7592 23.1491 87.2545 22.1155C86.5796 18.9069 87.8515 16.9927 91.0701 16.3734Z" fill="#221E1F"/>
<path opacity="0.999" fill-rule="evenodd" clip-rule="evenodd" d="M74.4479 16.6C75.1028 16.6 75.7575 16.6 76.4124 16.6C76.4124 21.3349 76.4124 26.0697 76.4124 30.8045C78.5279 30.8045 80.6435 30.8045 82.759 30.8045C82.759 31.3838 82.759 31.9629 82.759 32.5422C79.9887 32.5422 77.2183 32.5422 74.4479 32.5422C74.4479 27.2282 74.4479 21.9141 74.4479 16.6Z" fill="#221E1F"/>
<path opacity="0.976" fill-rule="evenodd" clip-rule="evenodd" d="M26.0168 13.8044C26.335 13.7726 26.6372 13.8228 26.9235 13.9555C27.0691 13.8639 27.195 13.8891 27.3013 14.0311C27.2733 14.3944 27.1978 14.7471 27.0745 15.0889C26.9173 15.0499 26.741 14.9744 26.5456 14.8622C26.4941 14.8897 26.4436 14.9148 26.3945 14.9378C26.4698 14.7138 26.5075 14.4872 26.5079 14.2578C25.579 15.0103 24.6722 15.791 23.7879 16.6C23.736 16.6629 23.7485 16.7131 23.8256 16.7511C24.0676 16.8842 24.2942 17.0353 24.5056 17.2044C24.5172 17.4051 24.492 17.5941 24.4301 17.7711C24.4931 17.8341 24.5561 17.8971 24.619 17.96C24.7581 17.8593 24.7958 17.8719 24.7324 17.9978C24.9942 18.2674 25.2963 18.4813 25.639 18.64C25.9185 19.2034 26.0823 19.8079 26.1301 20.4533C27.3014 19.1447 28.3969 17.7847 29.4168 16.3734C29.4777 16.7424 29.5029 17.1201 29.4924 17.5066C28.7323 18.456 27.9012 19.3502 26.999 20.1889C27.6661 20.0295 28.321 19.8154 28.9635 19.5466C28.5964 19.9891 28.143 20.3291 27.6035 20.5666C27.2675 20.6726 26.9275 20.7608 26.5835 20.8311C26.2547 20.8033 25.9147 20.8033 25.5635 20.8311C25.5487 20.1688 25.3347 19.5644 24.9213 19.0178C24.6474 19.4553 24.3074 19.8332 23.9013 20.1511C23.8193 19.9934 23.6933 19.8927 23.5235 19.8489C23.6065 19.7654 23.6569 19.6647 23.6745 19.5466C23.7249 19.5466 23.7501 19.5215 23.7501 19.4711C23.5701 19.3664 23.4441 19.2153 23.3724 19.0178C23.6699 18.8215 23.947 18.5948 24.2035 18.3378C23.9251 18.098 23.6228 17.8966 23.2968 17.7334C23.308 17.4833 23.2576 17.2567 23.1456 17.0534C23.1818 16.9794 23.232 16.9165 23.2968 16.8644C23.2252 16.6991 23.2252 16.5227 23.2968 16.3355C23.3647 16.2107 23.4403 16.0974 23.5235 15.9955C24.1149 15.4167 24.7194 14.8499 25.3368 14.2955C25.5557 14.1134 25.7823 13.9497 26.0168 13.8044Z" fill="#ED6153"/>
<path opacity="0.911" fill-rule="evenodd" clip-rule="evenodd" d="M32.2879 15.6933C32.9877 16.2106 33.567 16.8404 34.0257 17.5821C33.8961 17.7286 33.871 17.8924 33.9501 18.0733C33.8191 18.3924 33.7688 18.7072 33.799 19.0178C33.1865 19.1708 32.582 19.347 31.9857 19.5466C32.0547 19.4268 32.0547 19.3134 31.9857 19.2066C32.1484 19.021 32.2492 18.807 32.2879 18.5644C32.7213 18.3908 33.1747 18.2522 33.6479 18.1488C33.2429 17.7219 32.8147 17.3316 32.3635 16.9778C32.3978 16.8745 32.423 16.7612 32.439 16.6378C32.3887 16.6126 32.3383 16.5873 32.2879 16.5621C32.3852 16.2929 32.3852 16.0032 32.2879 15.6933Z" fill="#D3262F"/>
<path opacity="0.949" fill-rule="evenodd" clip-rule="evenodd" d="M35.3856 16.5245C35.4806 16.5215 35.5562 16.5594 35.6124 16.6379C35.557 16.8164 35.557 17.0053 35.6124 17.2045C35.4768 17.378 35.3257 17.5418 35.159 17.6956C35.2306 17.7322 35.3062 17.7447 35.3856 17.7334C35.584 17.9401 35.584 18.1542 35.3856 18.3756C35.404 18.4438 35.4293 18.5067 35.4612 18.5645C34.9017 18.7007 34.3476 18.8518 33.799 19.0179C33.7688 18.7073 33.8191 18.3925 33.9501 18.0734C33.8709 17.8925 33.8961 17.7288 34.0256 17.5822C34.0959 17.6908 34.184 17.7915 34.2901 17.8845C34.6427 17.4188 35.0079 16.9655 35.3856 16.5245Z" fill="#C81F30"/>
<path opacity="0.973" fill-rule="evenodd" clip-rule="evenodd" d="M37.4257 17.28C37.2786 17.4096 37.1778 17.5733 37.1235 17.7711C37.1309 17.8933 37.1309 18.0066 37.1235 18.1111C36.5694 18.2621 36.0153 18.4133 35.4613 18.5644C35.4293 18.5066 35.4041 18.4437 35.3857 18.3755C35.584 18.1541 35.584 17.94 35.3857 17.7333C36.0486 17.5451 36.7286 17.394 37.4257 17.28Z" fill="#BC1731"/>
<path opacity="0.985" fill-rule="evenodd" clip-rule="evenodd" d="M32.288 18.5645C32.2492 18.807 32.1485 19.0211 31.9857 19.2066C32.0548 19.3135 32.0548 19.4268 31.9857 19.5466C31.8197 19.575 31.6686 19.6254 31.5325 19.6978C31.2249 19.6926 30.9479 19.7682 30.7013 19.9245C30.504 19.9902 30.3025 20.0406 30.0969 20.0755C30.2818 19.7689 30.4581 19.4541 30.6257 19.1311C30.5838 19.1022 30.5586 19.0644 30.5502 19.0178C31.1215 18.8357 31.7007 18.6846 32.288 18.5645Z" fill="#E0302E"/>
<path opacity="0.945" fill-rule="evenodd" clip-rule="evenodd" d="M22.3146 18.5645C22.3877 18.7861 22.4884 18.9875 22.6169 19.1689C22.5029 19.3704 22.4148 19.5718 22.3524 19.7734C22.7044 19.5342 23.0444 19.2824 23.3724 19.0178C23.4442 19.2153 23.5702 19.3664 23.7502 19.4711C23.6998 19.4711 23.6746 19.4963 23.6746 19.5466C23.2717 19.7984 22.8687 20.0504 22.4657 20.3022C22.26 20.0471 22.0334 19.77 21.7857 19.4711C21.9631 19.1663 22.1395 18.864 22.3146 18.5645Z" fill="#E6443A"/>
<path opacity="0.981" fill-rule="evenodd" clip-rule="evenodd" d="M30.5501 19.0178C30.5585 19.0644 30.5837 19.1022 30.6257 19.1311C30.458 19.4541 30.2817 19.7689 30.0969 20.0755C29.3726 20.3254 28.6422 20.5774 27.9057 20.8311C27.6627 20.8194 27.4612 20.8949 27.3012 21.0578C27.2761 21.0578 27.2509 21.0578 27.2257 21.0578C26.9475 21.0738 26.7209 21.1744 26.5457 21.36C26.0122 21.5211 25.4833 21.6973 24.9591 21.8889C24.5651 21.8078 24.1873 21.682 23.8257 21.5111C24.3814 21.2416 24.9606 21.0149 25.5635 20.8311C25.9148 20.8034 26.2548 20.8034 26.5835 20.8311C26.9275 20.7609 27.2675 20.6727 27.6035 20.5666C28.143 20.3292 28.5964 19.9892 28.9635 19.5466C29.4984 19.3852 30.0273 19.2089 30.5501 19.0178Z" fill="#E7493D"/>
<path opacity="0.922" fill-rule="evenodd" clip-rule="evenodd" d="M31.5324 19.6978C31.8146 21.5276 31.8902 23.366 31.759 25.2134C31.5102 25.1668 31.2708 25.0913 31.0412 24.9866C31.0123 25.0287 30.9746 25.0538 30.928 25.0622C30.9405 24.5579 30.928 24.0542 30.8901 23.5511C29.6857 24.4369 28.4139 25.2176 27.0746 25.8934C26.7521 25.6599 26.4374 25.408 26.1301 25.1378C26.072 25.2207 26.009 25.2207 25.9412 25.1378C26.3549 23.9153 26.5564 22.656 26.5457 21.36C26.7209 21.1744 26.9475 21.0738 27.2257 21.0578C27.2162 22.5234 27.0274 23.959 26.659 25.3645C28.1326 24.7729 29.5053 24.0173 30.7769 23.0978C29.576 22.4733 28.4175 21.7933 27.3012 21.0578C27.4612 20.8949 27.6627 20.8194 27.9057 20.8311C28.8446 21.5154 29.8268 22.1451 30.8524 22.72C30.8934 21.7858 30.8431 20.854 30.7012 19.9245C30.9478 19.7682 31.2248 19.6926 31.5324 19.6978ZM27.2257 21.0578C27.2509 21.0578 27.2761 21.0578 27.3012 21.0578C28.4175 21.7933 29.576 22.4733 30.7769 23.0978C29.5053 24.0173 28.1326 24.7729 26.659 25.3645C27.0274 23.959 27.2162 22.5234 27.2257 21.0578Z" fill="#E8E9EA"/>
<path opacity="0.992" fill-rule="evenodd" clip-rule="evenodd" d="M101.572 20.9067C104.896 20.6221 106.747 22.1332 107.126 25.44C107.163 26.0692 107.176 26.6988 107.163 27.329C104.494 27.329 101.824 27.329 99.1545 27.329C99.3177 30.1996 100.829 31.4715 103.688 31.1445C104.657 30.9688 105.525 30.5784 106.294 29.9734C106.345 30.5779 106.345 31.1822 106.294 31.7867C105.138 32.5323 103.867 32.8849 102.479 32.8445C99.7129 32.8104 98.0129 31.4504 97.379 28.7645C97.0647 27.1999 97.1652 25.6636 97.6813 24.1556C98.4247 22.3904 99.722 21.3075 101.572 20.9067ZM102.026 22.4934C104.145 22.5223 105.203 23.6052 105.199 25.7422C103.21 25.7422 101.22 25.7422 99.2301 25.7422C99.4401 24.0218 100.372 22.9388 102.026 22.4934Z" fill="#221E1F"/>
<path opacity="0.992" fill-rule="evenodd" clip-rule="evenodd" d="M130.888 20.9066C133.774 20.5845 135.575 21.8186 136.29 24.6089C136.438 25.5094 136.502 26.4161 136.479 27.3289C133.81 27.3289 131.14 27.3289 128.47 27.3289C128.63 30.1951 130.141 31.467 133.003 31.1445C133.972 30.9687 134.841 30.5783 135.61 29.9734C135.661 30.5778 135.661 31.1822 135.61 31.7866C134.441 32.5389 133.156 32.8915 131.757 32.8445C128.873 32.8072 127.161 31.3716 126.619 28.5378C126.355 26.9574 126.506 25.421 127.072 23.9289C127.85 22.2805 129.122 21.273 130.888 20.9066ZM131.342 22.4934C133.46 22.5225 134.518 23.6055 134.514 25.7422C132.5 25.7674 130.484 25.7422 128.47 25.6666C128.781 23.9964 129.738 22.9387 131.342 22.4934Z" fill="#221E1F"/>
<path opacity="0.991" fill-rule="evenodd" clip-rule="evenodd" d="M113.283 20.9822C113.866 20.9679 114.445 20.993 115.022 21.0579C115.034 21.7383 115.022 22.4183 114.983 23.0979C113.329 22.3376 112.121 22.7908 111.357 24.4579C111.148 25.0191 111.021 25.5984 110.979 26.1956C110.942 28.311 110.929 30.4266 110.942 32.5422C110.312 32.5422 109.681 32.5422 109.052 32.5422C109.052 28.7393 109.052 24.9363 109.052 21.1334C109.681 21.1334 110.312 21.1334 110.942 21.1334C110.929 21.8642 110.942 22.5946 110.979 23.3245C111.36 22.1502 112.128 21.3694 113.283 20.9822Z" fill="#221E1F"/>
<path opacity="0.989" fill-rule="evenodd" clip-rule="evenodd" d="M142.599 20.9821C143.078 20.9696 143.557 20.9821 144.034 21.0199C144.131 21.0433 144.218 21.081 144.299 21.1333C144.35 21.7881 144.35 22.4428 144.299 23.0978C142.76 22.3513 141.577 22.729 140.748 24.231C140.504 24.7598 140.354 25.314 140.294 25.8933C140.257 28.1094 140.244 30.3257 140.257 32.5421C139.627 32.5421 138.997 32.5421 138.368 32.5421C138.368 28.7392 138.368 24.9362 138.368 21.1333C138.997 21.1333 139.627 21.1333 140.257 21.1333C140.244 21.8389 140.257 22.5441 140.294 23.2489C140.708 22.1172 141.477 21.3616 142.599 20.9821Z" fill="#221E1F"/>
<path opacity="0.991" fill-rule="evenodd" clip-rule="evenodd" d="M115.474 21.1333C116.182 21.1083 116.886 21.1335 117.59 21.2089C118.427 23.6043 119.269 25.9969 120.122 28.3866C120.409 29.1499 120.636 29.9307 120.802 30.7289C120.927 30.2755 121.052 29.8221 121.179 29.3689C122.211 26.6354 123.207 23.8902 124.163 21.1333C124.844 21.1208 125.524 21.1333 126.203 21.1711C124.7 24.9379 123.189 28.7032 121.67 32.4666C121.024 32.5659 120.381 32.5659 119.743 32.4666C118.312 28.6899 116.889 24.9122 115.474 21.1333Z" fill="#221E1F"/>
<path opacity="0.779" fill-rule="evenodd" clip-rule="evenodd" d="M21.7857 19.4711C22.0333 19.77 22.26 20.0471 22.4657 20.3022C22.152 20.5517 21.8246 20.791 21.4835 21.02C21.0881 21.4984 20.6851 21.9642 20.2746 22.4178C20.2157 22.2532 20.115 22.1273 19.9724 22.04C20.6649 21.2466 21.2694 20.3902 21.7857 19.4711Z" fill="#D8292E"/>
<path opacity="0.99" fill-rule="evenodd" clip-rule="evenodd" d="M147.283 21.5112C147.283 21.8134 147.283 22.1156 147.283 22.4179C146.838 23.1748 146.208 23.3637 145.394 22.9845C144.9 22.486 144.812 21.9194 145.13 21.2845C145.591 20.8206 146.132 20.7074 146.754 20.9445C146.974 21.1008 147.15 21.2897 147.283 21.5112ZM145.923 21.4356C146.117 21.4316 146.268 21.5071 146.377 21.6622C146.285 21.8496 146.134 21.9251 145.923 21.889C145.923 21.7379 145.923 21.5867 145.923 21.4356ZM145.622 21.209C145.622 21.7127 145.622 22.2163 145.622 22.7201C145.721 22.7201 145.823 22.7201 145.923 22.7201C145.934 21.9536 146.085 21.9409 146.377 22.6822C146.5 22.7196 146.626 22.7322 146.754 22.7201C146.203 23.077 145.712 23.0014 145.282 22.4934C145.117 22.1037 145.143 21.726 145.357 21.3601C145.419 21.2601 145.507 21.2098 145.622 21.209ZM146.754 22.7201C146.657 22.4894 146.532 22.2753 146.377 22.0779C146.778 21.797 146.778 21.52 146.377 21.2467C146.126 21.2091 145.874 21.1964 145.622 21.209C146.406 20.8455 146.909 21.0973 147.132 21.9645C147.084 22.2624 146.958 22.5144 146.754 22.7201Z" fill="#221E1F"/>
<path opacity="0.953" fill-rule="evenodd" clip-rule="evenodd" d="M145.622 21.2089C145.874 21.1964 146.126 21.209 146.377 21.2466C146.778 21.5199 146.778 21.7969 146.377 22.0778C146.532 22.2752 146.657 22.4893 146.754 22.72C146.626 22.7321 146.5 22.7196 146.377 22.6822C146.085 21.9409 145.934 21.9535 145.923 22.72C145.823 22.72 145.721 22.72 145.622 22.72C145.622 22.2163 145.622 21.7126 145.622 21.2089ZM145.923 21.4355C145.923 21.5866 145.923 21.7378 145.923 21.8889C146.134 21.925 146.285 21.8495 146.377 21.6622C146.268 21.5072 146.117 21.4315 145.923 21.4355Z" fill="#221E1F"/>
<path opacity="0.935" fill-rule="evenodd" clip-rule="evenodd" d="M19.9724 22.04C20.115 22.1274 20.2157 22.2533 20.2746 22.4179C20.1987 22.5823 20.2491 22.6075 20.4257 22.4934C20.7078 22.8478 21.0351 23.15 21.408 23.4C21.0895 23.5718 20.7622 23.7229 20.4257 23.8534C20.1448 23.4561 19.7922 23.0783 19.368 22.72C19.5694 22.4934 19.7709 22.2667 19.9724 22.04Z" fill="#CB2030"/>
<path opacity="0.909" fill-rule="evenodd" clip-rule="evenodd" d="M23.5235 19.8489C23.6934 19.8927 23.8193 19.9934 23.9013 20.1511C23.1531 21.0127 22.322 21.7809 21.4079 22.4555C22.2033 22.1354 23.0092 21.8206 23.8257 21.5111C24.1872 21.682 24.5651 21.8078 24.959 21.8889C24.5748 22.0506 24.1971 22.2269 23.8257 22.4178C23.5827 22.406 23.3812 22.4815 23.2213 22.6444C23.1463 22.6315 23.096 22.6566 23.0701 22.72C22.717 22.7834 22.3896 22.9093 22.0879 23.0978C21.8701 23.2192 21.6435 23.32 21.4079 23.4C21.0351 23.15 20.7078 22.8477 20.4257 22.4933C21.5231 21.699 22.5557 20.8175 23.5235 19.8489Z" fill="#D82B2F"/>
<path opacity="0.935" fill-rule="evenodd" clip-rule="evenodd" d="M23.8257 22.4179C24.2449 23.5191 24.8997 24.4635 25.7901 25.2511C25.8896 25.2911 25.9399 25.2533 25.9412 25.1379C26.009 25.2208 26.072 25.2208 26.1301 25.1379C26.4374 25.4081 26.7521 25.66 27.0746 25.8934C27.001 25.9302 26.9255 25.968 26.8479 26.0067C28.0014 26.7597 29.2355 27.3515 30.5501 27.7822C30.7421 26.8855 30.8681 25.9787 30.9279 25.0622C30.9746 25.0539 31.0123 25.0288 31.0412 24.9867C31.2709 25.0913 31.5102 25.1669 31.759 25.2134C31.6483 27.2639 31.2706 29.2535 30.6257 31.1822C30.4808 31.2765 30.3424 31.3268 30.2101 31.3334C30.0036 31.2683 29.9909 31.2053 30.1724 31.1445C30.0364 31.0662 29.9105 31.0536 29.7946 31.1067C30.0447 30.2575 30.2713 29.4013 30.4746 28.5379C30.4494 28.5127 30.4242 28.4874 30.399 28.4622C29.7772 28.8579 29.1223 29.1853 28.4346 29.4445C28.2949 29.362 28.1689 29.2612 28.0569 29.1422C28.8877 28.8403 29.6936 28.4751 30.4746 28.0467C29.0169 27.7121 27.6443 27.1707 26.3569 26.4222C26.0054 27.3261 25.6151 28.2075 25.1857 29.0667C25.1621 28.8459 25.0613 28.7704 24.8835 28.8401C24.7853 28.7498 24.6846 28.6743 24.5812 28.6134C24.7988 28.0522 25.0381 27.498 25.299 26.9511C25.3557 26.8654 25.3431 26.7899 25.2612 26.7245C24.5879 27.0236 23.9079 27.3006 23.2212 27.5556C23.0353 27.346 22.8842 27.1192 22.7679 26.8756C23.6642 26.5304 24.5708 26.1904 25.4879 25.8556C24.7034 25.1979 24.0612 24.4297 23.5612 23.5511C23.41 23.2609 23.2966 22.9587 23.2212 22.6445C23.3812 22.4816 23.5827 22.4061 23.8257 22.4179Z" fill="#DADCDF"/>
<path opacity="0.985" fill-rule="evenodd" clip-rule="evenodd" d="M19.368 22.72C19.7923 23.0783 20.1448 23.4561 20.4257 23.8534C20.0333 24.0368 19.6556 24.2383 19.2925 24.4579C19.0241 24.5164 18.7722 24.6171 18.5369 24.76C18.3894 24.7394 18.2762 24.7897 18.1969 24.9111C18.1339 24.8482 18.0709 24.7852 18.008 24.7222C18.0798 24.668 18.0924 24.605 18.0457 24.5334C17.8834 24.6347 17.7953 24.5842 17.7814 24.3822C18.3102 23.8282 18.8391 23.2741 19.368 22.72Z" fill="#BF1A31"/>
<path opacity="0.947" fill-rule="evenodd" clip-rule="evenodd" d="M17.7813 24.3821C17.7953 24.5841 17.8833 24.6346 18.0457 24.5333C18.0923 24.6049 18.0798 24.668 18.008 24.7221C18.0709 24.7851 18.1339 24.8482 18.1969 24.9111C18.2761 24.7896 18.3894 24.7394 18.5369 24.76C18.4467 24.8183 18.3711 24.8938 18.3101 24.9866C17.6687 25.2947 17.0391 25.6222 16.4213 25.9689C16.306 25.9634 16.2304 26.0137 16.1946 26.12C15.8169 26.3215 15.4391 26.5229 15.0613 26.7244C15.9661 25.9459 16.8727 25.1652 17.7813 24.3821Z" fill="#AE1333"/>
<path opacity="0.063" fill-rule="evenodd" clip-rule="evenodd" d="M16.4214 25.9689C16.3856 26.0752 16.31 26.1255 16.1946 26.12C16.2304 26.0138 16.306 25.9634 16.4214 25.9689Z" fill="#B38D95"/>
<path opacity="0.963" fill-rule="evenodd" clip-rule="evenodd" d="M19.2925 24.4578C19.0117 25.5317 19.125 26.5642 19.6325 27.5555C19.7792 27.2859 19.9428 27.0341 20.1235 26.8C20.5014 27.2534 20.8791 27.7066 21.2569 28.16C20.906 28.2431 20.5785 28.369 20.2746 28.5378C21.1232 29.5128 22.1054 30.3187 23.2214 30.9555C23.4045 30.7221 23.5556 30.4703 23.6746 30.2C24.1383 30.5292 24.5917 30.8063 25.0346 31.0311C24.7483 31.1866 24.4461 31.3251 24.128 31.4466C25.7123 32.1671 27.3618 32.6834 29.0769 32.9955C29.1483 32.9649 29.1987 32.9146 29.228 32.8444C29.4253 32.265 29.6142 31.6857 29.7946 31.1066C29.9105 31.0535 30.0365 31.0661 30.1724 31.1444C29.9911 31.2052 30.0036 31.2682 30.2102 31.3334C30.3424 31.3268 30.4809 31.2763 30.6258 31.1822C30.1529 32.7028 29.5484 34.1635 28.8124 35.5644C28.6319 35.5282 28.506 35.4275 28.4346 35.2622C28.6387 34.6886 28.8023 34.1094 28.9258 33.5244C27.9633 34.0089 26.9685 34.4118 25.9414 34.7334C25.9494 34.5913 25.9116 34.5662 25.828 34.6578C25.691 34.5461 25.5526 34.4454 25.4124 34.3555C26.5707 33.9989 27.7292 33.6337 28.888 33.26C27.1064 33.0749 25.3811 32.6594 23.7124 32.0134C23.614 32.0495 23.5259 32.0998 23.448 32.1644C23.3783 32.2251 23.3027 32.2378 23.2214 32.2022C23.124 32.0957 23.036 31.9823 22.9569 31.8622C22.9026 31.9341 22.8397 31.9466 22.768 31.9C22.6217 31.6653 22.4201 31.5016 22.1635 31.4089C22.1719 31.3623 22.1971 31.3244 22.2391 31.2955C21.2137 30.7572 20.3322 30.0395 19.5946 29.1422C19.5003 29.0186 19.3744 28.9304 19.2169 28.8778C19.2421 28.8526 19.2673 28.8274 19.2925 28.8022C19.1485 28.5861 18.9721 28.4098 18.7635 28.2734C18.8598 28.1995 18.8598 28.1365 18.7635 28.0845C18.2262 27.103 18.0751 26.0704 18.3102 24.9866C18.3712 24.8939 18.4467 24.8183 18.5369 24.76C18.7721 24.6171 19.0241 24.5164 19.2925 24.4578Z" fill="#BBC1C9"/>
<path opacity="0.925" fill-rule="evenodd" clip-rule="evenodd" d="M23.0702 22.72C22.4367 24.3396 21.6812 25.901 20.8035 27.4045C20.8287 27.4297 20.8539 27.4548 20.8791 27.48C21.5004 27.2477 22.13 27.0462 22.768 26.8756C22.8842 27.1192 23.0354 27.3459 23.2214 27.5556C22.5711 27.7723 21.9163 27.9738 21.2569 28.16C20.8791 27.7067 20.5014 27.2534 20.1235 26.8C20.8362 25.6018 21.4909 24.3679 22.088 23.0979C22.3896 22.9094 22.7171 22.7835 23.0702 22.72Z" fill="#CACED3"/>
<path opacity="0.965" fill-rule="evenodd" clip-rule="evenodd" d="M16.1946 26.12C15.1727 26.905 14.4046 27.8872 13.8901 29.0666C13.8269 29.242 13.8017 29.4184 13.8146 29.5955C14.9879 29.2487 16.1591 28.8961 17.328 28.5378C17.3622 28.6102 17.4125 28.6732 17.479 28.7266C17.4539 28.7518 17.4287 28.7771 17.4035 28.8022C17.5494 28.8704 17.6753 28.9586 17.7813 29.0666C16.4495 29.3807 15.1147 29.683 13.7769 29.9734C14.0231 31.2702 14.6905 32.3029 15.779 33.0711C16.3581 32.2281 16.95 31.397 17.5546 30.5778C17.6815 30.6074 17.8074 30.6452 17.9324 30.6911C17.9072 30.7163 17.8821 30.7415 17.8569 30.7666C17.926 30.7877 17.9764 30.8255 18.008 30.88C17.3657 31.6863 16.736 32.5048 16.119 33.3355C16.1442 33.3607 16.1694 33.3859 16.1946 33.4111C17.3548 33.0707 18.5133 32.7055 19.6701 32.3155C19.7739 32.3036 19.8747 32.3163 19.9724 32.3534C20.0182 32.5429 20.0937 32.6562 20.199 32.6934C19.0276 33.0431 17.8439 33.3831 16.648 33.7134C17.8466 34.4404 19.1184 35.0071 20.4635 35.4134C20.8295 34.832 21.1946 34.2527 21.559 33.6755C21.7551 33.8364 21.9818 33.9371 22.239 33.9778C21.8665 34.5018 21.4636 35.0056 21.0301 35.4889C21.0806 35.5141 21.1309 35.5393 21.1813 35.5644C21.6573 35.4224 22.1359 35.2965 22.6169 35.1866C22.8429 35.1614 23.0191 35.237 23.1457 35.4134C22.7534 35.5302 22.3505 35.6436 21.9369 35.7534C23.9056 36.1712 25.8827 36.4609 27.8679 36.6222C28.0513 36.1582 28.2402 35.7049 28.4346 35.2622C28.506 35.4275 28.6319 35.5282 28.8124 35.5644C28.6062 36.0524 28.3795 36.5309 28.1324 37C27.5028 37 26.8731 37 26.2435 37C23.9561 36.7898 21.6894 36.3995 19.4435 35.8289C17.1445 35.2906 15.1674 34.1951 13.5124 32.5422C12.747 31.621 12.5454 30.5883 12.908 29.4444C13.3899 28.346 14.1077 27.4393 15.0613 26.7244C15.439 26.5229 15.8169 26.3216 16.1946 26.12Z" fill="#94A0AC"/>
<path opacity="0.93" fill-rule="evenodd" clip-rule="evenodd" d="M18.7635 28.0845C18.8597 28.1365 18.8597 28.1995 18.7635 28.2734C18.9721 28.4098 19.1483 28.5861 19.2924 28.8022C19.2672 28.8274 19.242 28.8527 19.2169 28.8778C19.3743 28.9304 19.5002 29.0186 19.5946 29.1422C19.4799 29.143 19.3917 29.1934 19.3301 29.2934C18.8997 29.8366 18.4589 30.3654 18.0079 30.88C17.9764 30.8255 17.926 30.7877 17.8569 30.7666C17.882 30.7416 17.9072 30.7163 17.9324 30.6911C17.8073 30.6452 17.6814 30.6074 17.5546 30.5778C17.941 30.002 18.344 29.4353 18.7635 28.8778C18.4329 28.9036 18.1055 28.9665 17.7813 29.0666C17.6753 28.9586 17.5494 28.8704 17.4035 28.8022C17.4287 28.7771 17.4538 28.7518 17.479 28.7266C17.4125 28.6732 17.3622 28.6102 17.3279 28.5378C17.8246 28.4203 18.3031 28.2692 18.7635 28.0845Z" fill="#ADB5BE"/>
<path opacity="0.935" fill-rule="evenodd" clip-rule="evenodd" d="M24.5812 28.6133C24.6846 28.6742 24.7853 28.7498 24.8835 28.84C25.0613 28.7703 25.1621 28.8458 25.1856 29.0666C24.9901 29.546 24.7635 30.0119 24.5056 30.4644C25.7027 30.0778 26.8864 29.637 28.0568 29.1421C28.1689 29.2611 28.2948 29.3619 28.4346 29.4444C27.3337 30.0324 26.2004 30.5613 25.0346 31.0311C24.5916 30.8062 24.1382 30.5291 23.6746 30.2C23.9588 29.6561 24.2611 29.1273 24.5812 28.6133Z" fill="#CACED4"/>
<path opacity="0.94" fill-rule="evenodd" clip-rule="evenodd" d="M22.1635 31.4089C22.4201 31.5015 22.6216 31.6653 22.768 31.9C22.8397 31.9466 22.9026 31.9341 22.9569 31.8621C23.0358 31.9823 23.124 32.0957 23.2212 32.2021C23.3026 32.2377 23.3782 32.2251 23.448 32.1644C23.0832 32.7927 22.6803 33.3971 22.2391 33.9778C21.9818 33.9371 21.7551 33.8364 21.5591 33.6755C21.8951 33.1677 22.2225 32.6515 22.5413 32.1266C21.7596 32.2902 20.9788 32.4791 20.1991 32.6933C20.0938 32.6561 20.0182 32.5429 19.9724 32.3533C19.8747 32.3162 19.774 32.3036 19.6702 32.3155C20.484 31.9853 21.3152 31.683 22.1635 31.4089Z" fill="#ADB5BE"/>
<path fill-rule="evenodd" clip-rule="evenodd" d="M25.4124 34.3555C25.5526 34.4454 25.691 34.5461 25.828 34.6578C25.9116 34.5662 25.9494 34.5913 25.9413 34.7334C25.024 35.0193 24.0922 35.246 23.1457 35.4134C23.0191 35.237 22.8429 35.1614 22.6169 35.1866C23.531 34.8759 24.4628 34.5989 25.4124 34.3555Z" fill="#A3ACB7"/>
<path opacity="0.937" fill-rule="evenodd" clip-rule="evenodd" d="M32.439 37C32.3383 37 32.2376 37 32.1369 37C32.1494 36.6967 32.1367 36.3945 32.099 36.0933C31.9674 36.4009 31.8288 36.7032 31.6835 37C31.6079 37 31.5324 37 31.4569 37C31.3402 36.6405 31.2018 36.2879 31.0412 35.9421C31.0036 36.2939 30.991 36.6465 31.0035 37C30.9279 37 30.8524 37 30.7769 37C30.7769 36.4711 30.7769 35.9421 30.7769 35.4133C30.9011 35.3971 31.0143 35.4224 31.1169 35.4889C31.2448 35.8355 31.4084 36.1629 31.6079 36.4711C31.7704 36.146 31.9341 35.8186 32.099 35.4889C32.2015 35.4224 32.3148 35.3971 32.439 35.4133C32.439 35.9421 32.439 36.4711 32.439 37Z" fill="#221E1F"/>
<path fill-rule="evenodd" clip-rule="evenodd" d="M30.1724 37C30.0717 37 29.9709 37 29.8701 37C29.8701 36.5466 29.8701 36.0933 29.8701 35.64C29.7442 35.64 29.6183 35.64 29.4924 35.64C29.4924 35.5644 29.4924 35.4889 29.4924 35.4133C29.8702 35.4133 30.248 35.4133 30.6257 35.4133C30.6257 35.4889 30.6257 35.5644 30.6257 35.64C30.4746 35.64 30.3235 35.64 30.1724 35.64C30.1724 36.0933 30.1724 36.5466 30.1724 37Z" fill="#221E1F"/>
</svg>
